<svg width="222" height="78" viewBox="0 0 222 78" fill="none" xmlns="http://www.w3.org/2000/svg">
<path opacity="0.8" d="M221.867 54.3552L212.623 54.3552C203.378 54.3552 184.889 54.3552 166.4 48.3095C147.911 42.3379 129.423 30.1357 110.934 33.2232C92.4447 36.2368 73.9557 54.3552 55.4668 54.3552C36.9779 54.3552 18.4889 36.2368 -4.40849e-10 25.6616C-18.4889 15.1604 -36.9778 12.0174 -55.4668 24.1641C-73.9557 36.2368 -92.4446 63.4143 -110.934 63.4143C-129.423 63.4143 -147.911 36.2368 -166.4 27.1776C-184.889 18.1185 -203.378 27.1776 -221.867 37.7528C-240.356 48.2541 -258.845 60.4562 -277.334 67.9439C-295.823 75.4316 -314.312 78.5746 -332.801 77.0031C-351.29 75.4316 -369.779 69.5154 -388.268 60.4008C-406.756 51.3971 -425.245 39.1949 -443.734 43.78C-462.223 48.2541 -480.712 69.5154 -499.201 72.4735C-517.69 75.4316 -536.179 60.4562 -554.668 55.8712C-573.157 51.3971 -591.646 57.3133 -610.135 64.9304C-628.624 72.4735 -647.113 81.5327 -665.602 73.9895C-684.09 66.3724 -702.579 42.3379 -721.068 30.1912C-739.557 18.1185 -758.046 18.1185 -776.535 24.1641C-795.024 30.1357 -813.513 42.3379 -832.002 43.78C-850.491 45.296 -868.98 36.2368 -887.469 40.7664C-905.958 45.296 -924.447 63.4143 -942.936 69.46C-961.424 75.4316 -979.913 69.5154 -998.402 57.3687C-1016.89 45.296 -1035.38 27.1776 -1053.87 25.6616C-1072.36 24.2195 -1090.85 39.1949 -1100.09 46.812L-1109.34 54.3552L-1109.34 9.91984e-05L-1100.09 9.91983e-05C-1090.85 9.91982e-05 -1072.36 9.9198e-05 -1053.87 9.91977e-05C-1035.38 9.91975e-05 -1016.89 9.91973e-05 -998.402 9.91971e-05C-979.913 9.91968e-05 -961.424 9.91966e-05 -942.936 9.91964e-05C-924.447 9.91962e-05 -905.958 9.91959e-05 -887.469 9.91957e-05C-868.98 9.91955e-05 -850.491 9.91953e-05 -832.002 9.9195e-05C-813.513 9.91948e-05 -795.024 9.91946e-05 -776.535 9.91943e-05C-758.046 9.91941e-05 -739.557 9.91939e-05 -721.068 9.91937e-05C-702.579 9.91934e-05 -684.09 9.91932e-05 -665.602 9.9193e-05C-647.113 9.91928e-05 -628.624 9.91925e-05 -610.135 9.91923e-05C-591.646 9.91921e-05 -573.157 9.91919e-05 -554.668 9.91916e-05C-536.179 9.91914e-05 -517.69 9.91912e-05 -499.201 9.9191e-05C-480.712 9.91907e-05 -462.223 9.91905e-05 -443.734 9.91903e-05C-425.245 9.919e-05 -406.756 9.91898e-05 -388.268 9.91896e-05C-369.779 9.91894e-05 -351.29 9.91891e-05 -332.801 9.91889e-05C-314.312 9.91887e-05 -295.823 9.91885e-05 -277.334 9.91882e-05C-258.845 9.9188e-05 -240.356 9.91878e-05 -221.867 9.91876e-05C-203.378 9.91873e-05 -184.889 9.91871e-05 -166.4 9.91869e-05C-147.911 9.91867e-05 -129.423 9.91864e-05 -110.934 9.91862e-05C-92.4446 9.9186e-05 -73.9557 9.91857e-05 -55.4668 9.91855e-05C-36.9778 9.91853e-05 -18.4889 9.91851e-05 -6.59497e-10 9.91848e-05C18.4889 9.91846e-05 36.9779 9.91844e-05 55.4668 9.91842e-05C73.9557 9.91839e-05 92.4447 9.91837e-05 110.934 9.91835e-05C129.423 9.91833e-05 147.911 9.9183e-05 166.4 9.91828e-05C184.889 9.91826e-05 203.378 9.91824e-05 212.623 9.91822e-05L221.867 9.91821e-05L221.867 54.3552Z" fill="url(#paint0_linear_1693_32708)"/>
<defs>
<linearGradient id="paint0_linear_1693_32708" x1="221.867" y1="9.91821e-05" x2="221.867" y2="77.3977" gradientUnits="userSpaceOnUse">
<stop stop-color="#00B8E7"/>
<stop offset="1" stop-color="#00B8E7"/>
</linearGradient>
</defs>
</svg>
