<svg width="32" height="32" viewBox="0 0 32 32" fill="none" xmlns="http://www.w3.org/2000/svg">
<rect width="32" height="32" rx="16" fill="#F5F7F8"/>
<path d="M17.3056 7.13569C17.5139 6.9564 17.8194 6.9564 18.0278 7.13569L25.8056 13.8857C26.0382 14.0896 26.066 14.4447 25.8646 14.6802C25.6632 14.9158 25.316 14.9439 25.0799 14.74L23.7778 13.6044V19.3736C23.7778 20.6146 22.7812 21.6236 21.5556 21.6236H15.6562C15.5486 21.2369 15.4167 20.8607 15.2639 20.4986H21.5556C22.1701 20.4986 22.6667 19.9958 22.6667 19.3736V12.6412L17.6667 8.30288L12.6667 12.6412V16.9935C12.316 16.7017 11.9444 16.4345 11.5556 16.1955V13.6044L10.25 14.7365C10.0174 14.9404 9.66667 14.9123 9.46528 14.6767C9.26389 14.4412 9.29167 14.0861 9.52431 13.8822L17.3021 7.13218L17.3056 7.13569ZM16.5556 13.1861H18.7778C19.3924 13.1861 19.8889 13.6888 19.8889 14.3111V16.5611C19.8889 17.1833 19.3924 17.6861 18.7778 17.6861H16.5556C15.941 17.6861 15.4444 17.1833 15.4444 16.5611V14.3111C15.4444 13.6888 15.941 13.1861 16.5556 13.1861ZM16.5556 14.3111V16.5611H18.7778V14.3111H16.5556ZM6.55556 15.9986C11.1562 15.9986 14.8889 19.7779 14.8889 24.4361C14.8889 24.7455 14.6389 24.9986 14.3333 24.9986C14.0278 24.9986 13.7778 24.7455 13.7778 24.4361C13.7778 20.3966 10.5451 17.1236 6.55556 17.1236C6.25 17.1236 6 16.8705 6 16.5611C6 16.2517 6.25 15.9986 6.55556 15.9986ZM7.11111 22.7486C7.4058 22.7486 7.68841 22.8671 7.89679 23.0781C8.10516 23.2891 8.22222 23.5752 8.22222 23.8736C8.22222 24.172 8.10516 24.4581 7.89679 24.6691C7.68841 24.8801 7.4058 24.9986 7.11111 24.9986C6.81643 24.9986 6.53381 24.8801 6.32544 24.6691C6.11706 24.4581 6 24.172 6 23.8736C6 23.5752 6.11706 23.2891 6.32544 23.0781C6.53381 22.8671 6.81643 22.7486 7.11111 22.7486ZM6 19.9361C6 19.6267 6.25 19.3736 6.55556 19.3736C9.31597 19.3736 11.5556 21.6412 11.5556 24.4361C11.5556 24.7455 11.3056 24.9986 11 24.9986C10.6944 24.9986 10.4444 24.7455 10.4444 24.4361C10.4444 22.2599 8.70486 20.4986 6.55556 20.4986C6.25 20.4986 6 20.2455 6 19.9361Z" fill="#98AFBA"/>
</svg>
