<svg width="32" height="32" viewBox="0 0 32 32" fill="none" xmlns="http://www.w3.org/2000/svg">
<rect width="32" height="32" rx="16" fill="#F5F7F8"/>
<path d="M8 7.56421C8 7.25483 8.25714 7.00171 8.57143 7.00171H23.4286C23.7429 7.00171 24 7.25483 24 7.56421C24 7.87358 23.7429 8.12671 23.4286 8.12671H8.57143C8.25714 8.12671 8 7.87358 8 7.56421ZM10.2857 13.9205C10.4643 13.8642 10.65 13.808 10.8357 13.7587C12.3214 13.372 14.2321 13.1892 16 13.1892C17.7679 13.1892 19.6786 13.372 21.1643 13.7623C21.3536 13.8115 21.5357 13.8642 21.7143 13.924V9.25171H22.8571V14.4056C22.9321 14.4478 23.0071 14.4935 23.075 14.5392C23.5714 14.8697 24 15.3478 24 16.0017C24 18.4556 22.7214 20.1537 21.1071 21.2224L21.65 23.0154C21.6929 23.1595 21.7143 23.3072 21.7143 23.4548C21.7143 24.3091 21.0107 24.9982 20.1464 24.9982H11.8571C10.9893 25.0017 10.2857 24.3091 10.2857 23.4583C10.2857 23.3107 10.3071 23.1595 10.35 23.0189L10.8929 21.2259C9.27857 20.1537 8 18.4556 8 16.0017C8 15.3513 8.42857 14.8697 8.925 14.5392C8.99286 14.4935 9.06786 14.4478 9.14286 14.4056V9.25171H10.2857V13.9205ZM9.43929 17.749C9.84286 18.8599 10.625 19.6966 11.5714 20.3119C12.9786 21.2294 14.7214 21.6267 16 21.6267C17.2786 21.6267 19.0214 21.2294 20.4321 20.3154C21.3786 19.7001 22.1607 18.8634 22.5643 17.7525C22.1536 17.9494 21.675 18.1111 21.1643 18.2447C19.6786 18.6314 17.7679 18.8142 16 18.8142C14.2321 18.8142 12.3214 18.6314 10.8357 18.2412C10.325 18.1076 9.85 17.9459 9.43571 17.749H9.43929ZM22.8571 16.0017C22.8571 15.8927 22.7929 15.7099 22.4357 15.4744C22.0857 15.2423 21.5536 15.0279 20.8679 14.8486C19.5071 14.4935 17.7036 14.3142 16 14.3142C14.2964 14.3142 12.4929 14.4935 11.1321 14.8486C10.4464 15.0279 9.91429 15.2423 9.56429 15.4744C9.20714 15.7099 9.14286 15.8927 9.14286 16.0017C9.14286 16.1107 9.20714 16.2935 9.56429 16.5291C9.91429 16.7611 10.4464 16.9755 11.1321 17.1548C12.4929 17.5099 14.2964 17.6892 16 17.6892C17.7036 17.6892 19.5071 17.5099 20.8679 17.1548C21.5536 16.9755 22.0857 16.7611 22.4357 16.5291C22.7893 16.2935 22.8571 16.1107 22.8571 16.0017ZM12 9.25171H13.1429C13.4571 9.25171 13.7143 9.50483 13.7143 9.81421C13.7143 10.1236 13.4571 10.3767 13.1429 10.3767H12C11.6857 10.3767 11.4286 10.1236 11.4286 9.81421C11.4286 9.50483 11.6857 9.25171 12 9.25171ZM20.5536 23.3388L20.0857 21.799C18.7 22.4599 17.1893 22.7517 16 22.7517C14.8107 22.7517 13.3 22.4599 11.9143 21.7955L11.4464 23.3388C11.4357 23.3775 11.4286 23.4197 11.4286 23.4583C11.4286 23.6904 11.6179 23.8767 11.8536 23.8767H20.1429C20.3786 23.8767 20.5679 23.6904 20.5679 23.4583C20.5679 23.4162 20.5607 23.3775 20.55 23.3388H20.5536Z" fill="#98AFBA"/>
</svg>
