<svg width="32" height="32" viewBox="0 0 32 32" fill="none" xmlns="http://www.w3.org/2000/svg">
<rect width="32" height="32" rx="16" fill="#F5F7F8"/>
<path d="M15.2689 22.9999C15.3471 23.0437 15.4314 23.0812 15.5127 23.1124V16.2905L9.5377 12.878C9.51895 12.9718 9.50957 13.0655 9.50957 13.1624V18.8405C9.50957 19.378 9.79707 19.8749 10.2658 20.1437L15.2658 22.9999H15.2689ZM16.7596 22.9999L21.7596 20.1437C22.2283 19.8749 22.5158 19.378 22.5158 18.8405V13.1624C22.5158 13.0655 22.5064 12.9718 22.4877 12.878L21.5127 13.4343V17.1124C21.5127 17.2937 21.4158 17.4593 21.2564 17.5468L18.7564 18.953C18.6002 19.0405 18.4127 19.0374 18.2596 18.9499C18.1064 18.8624 18.0127 18.6968 18.0127 18.5187V15.4343L16.5127 16.2905V23.1124C16.5971 23.0812 16.6783 23.0468 16.7564 22.9999H16.7596ZM20.1283 13.0749L14.0877 9.67803L12.6189 10.5187L18.6596 13.9155L20.1283 13.078V13.0749ZM21.1408 12.4968L21.9846 12.0155C21.9158 11.9562 21.8408 11.9062 21.7596 11.8593L16.7596 8.9999C16.2971 8.7374 15.7314 8.7374 15.2689 8.9999L15.0971 9.09678L21.1377 12.4937L21.1408 12.4968ZM19.0158 14.8624V17.6624L20.5158 16.8187V14.0062L19.0158 14.8624ZM17.6471 14.4937L11.6064 11.0937L10.2721 11.8562C10.1908 11.903 10.1158 11.953 10.0471 12.0124L16.0158 15.4218L17.6471 14.4874V14.4937ZM17.2533 23.8687C16.4846 24.3062 15.5408 24.3062 14.7721 23.8687L9.77207 21.0124C8.99395 20.5687 8.5127 19.7405 8.5127 18.8437V13.1655C8.5127 12.2687 8.99395 11.4405 9.77207 10.9968L14.7721 8.14053C15.5408 7.6999 16.4846 7.6999 17.2533 8.14053L22.2533 10.9968C23.0314 11.4405 23.5127 12.2687 23.5127 13.1655V18.8437C23.5127 19.7405 23.0314 20.5687 22.2533 21.0124L17.2533 23.8687Z" fill="#98AFBA"/>
</svg>
