<svg width="32" height="32" viewBox="0 0 32 32" fill="none" xmlns="http://www.w3.org/2000/svg">
<rect width="32" height="32" rx="16" fill="#F5F7F8"/>
<g clip-path="url(#clip0_2534_8656)">
<path d="M23 16C23 14.1435 22.2625 12.363 20.9497 11.0503C19.637 9.7375 17.8565 9 16 9C14.1435 9 12.363 9.7375 11.0503 11.0503C9.7375 12.363 9 14.1435 9 16C9 17.8565 9.7375 19.637 11.0503 20.9497C12.363 22.2625 14.1435 23 16 23C17.8565 23 19.637 22.2625 20.9497 20.9497C22.2625 19.637 23 17.8565 23 16ZM8 16C8 13.8783 8.84285 11.8434 10.3431 10.3431C11.8434 8.84285 13.8783 8 16 8C18.1217 8 20.1566 8.84285 21.6569 10.3431C23.1571 11.8434 24 13.8783 24 16C24 18.1217 23.1571 20.1566 21.6569 21.6569C20.1566 23.1571 18.1217 24 16 24C13.8783 24 11.8434 23.1571 10.3431 21.6569C8.84285 20.1566 8 18.1217 8 16ZM14.5 17H17C18.1031 17 19 16.1031 19 15C19 13.8969 18.1031 13 17 13H14.5V17ZM17 18H14.5V19.5C14.5 19.775 14.275 20 14 20C13.725 20 13.5 19.775 13.5 19.5V12.75C13.5 12.3344 13.8344 12 14.25 12H17C18.6562 12 20 13.3438 20 15C20 16.6562 18.6562 18 17 18Z" fill="#98AFBA"/>
</g>
<defs>
<clipPath id="clip0_2534_8656">
<rect width="16" height="16" fill="white" transform="translate(8 8)"/>
</clipPath>
</defs>
</svg>
