<svg width="32" height="32" viewBox="0 0 32 32" fill="none" xmlns="http://www.w3.org/2000/svg">
<rect width="32" height="32" rx="16" fill="#F5F7F8"/>
<g clip-path="url(#clip0_2534_8109)">
<path d="M14.25 8C12.7312 8 11.5 9.23125 11.5 10.75C11.5 11.4156 11.7375 12.025 12.1281 12.5C11.7344 12.975 11.5 13.5844 11.5 14.25C11.5 15.7688 12.7312 17 14.25 17C14.7 17 15.125 16.8906 15.5 16.7V20.3938C14.275 18.3594 12.0469 17 9.5 17H8.875C8.39062 17 8 17.3906 8 17.875C8 21.2563 10.7438 24 14.125 24H15.5H16H16.5H17.875C21.2563 24 24 21.2563 24 17.875C24 17.3906 23.6094 17 23.125 17H22.5C19.9531 17 17.725 18.3594 16.5 20.3938V16.7C16.875 16.8906 17.3 17 17.75 17C19.2688 17 20.5 15.7688 20.5 14.25C20.5 13.5844 20.2625 12.975 19.8719 12.5C20.2656 12.025 20.5 11.4156 20.5 10.75C20.5 9.23125 19.2688 8 17.75 8C17.0844 8 16.475 8.2375 16 8.62813C15.525 8.2375 14.9156 8 14.25 8ZM12.5 10.75C12.5 9.78437 13.2844 9 14.25 9C14.8 9 15.2906 9.25312 15.6125 9.65C15.7063 9.76875 15.85 9.83438 16 9.83438C16.15 9.83438 16.2937 9.76562 16.3875 9.65C16.7094 9.25312 17.2 9 17.75 9C18.7156 9 19.5 9.78437 19.5 10.75C19.5 11.3 19.2469 11.7906 18.85 12.1125C18.7313 12.2063 18.6656 12.35 18.6656 12.5C18.6656 12.65 18.7344 12.7937 18.85 12.8875C19.2469 13.2094 19.5 13.7 19.5 14.25C19.5 15.2156 18.7156 16 17.75 16C17.2 16 16.7094 15.7469 16.3875 15.35C16.2937 15.2312 16.15 15.1656 16 15.1656C15.85 15.1656 15.7063 15.2344 15.6125 15.35C15.2906 15.7469 14.8 16 14.25 16C13.2844 16 12.5 15.2156 12.5 14.25C12.5 13.7 12.7531 13.2094 13.15 12.8875C13.2688 12.7937 13.3344 12.65 13.3344 12.5C13.3344 12.35 13.2656 12.2063 13.15 12.1125C12.7531 11.7906 12.5 11.3 12.5 10.75ZM9 18H9.5C12.4719 18 14.9406 20.1625 15.4156 23H14.125C11.3375 23 9.06875 20.7719 9 18ZM23 18C22.9344 20.7719 20.6656 23 17.875 23H16.5844C17.0594 20.1625 19.5281 18 22.5 18H23ZM17 12.5C17 12.2348 16.8946 11.9804 16.7071 11.7929C16.5196 11.6054 16.2652 11.5 16 11.5C15.7348 11.5 15.4804 11.6054 15.2929 11.7929C15.1054 11.9804 15 12.2348 15 12.5C15 12.7652 15.1054 13.0196 15.2929 13.2071C15.4804 13.3946 15.7348 13.5 16 13.5C16.2652 13.5 16.5196 13.3946 16.7071 13.2071C16.8946 13.0196 17 12.7652 17 12.5Z" fill="#98AFBA"/>
</g>
<defs>
<clipPath id="clip0_2534_8109">
<rect width="16" height="16" fill="white" transform="translate(8 8)"/>
</clipPath>
</defs>
</svg>
