<svg width="32" height="32" viewBox="0 0 32 32" fill="none" xmlns="http://www.w3.org/2000/svg">
<rect width="32" height="32" rx="16" fill="#F5F7F8"/>
<path d="M12.0631 5.875C11.7537 5.875 11.5006 6.12812 11.5006 6.4375C11.5006 7.12656 11.7748 7.7875 12.2634 8.27617L13.3217 9.33438C13.5994 9.61211 13.7541 9.98477 13.7541 10.3785C13.7541 10.6879 14.0072 10.941 14.3166 10.941C14.6259 10.941 14.8791 10.6879 14.8791 10.3785C14.8791 9.68945 14.6049 9.02852 14.1162 8.53984L13.058 7.48164C12.7802 7.20391 12.6256 6.83125 12.6256 6.4375C12.6256 6.12812 12.3724 5.875 12.0631 5.875ZM8.68806 12.625C8.53337 12.625 8.38923 12.6883 8.28376 12.7973C8.17829 12.9062 8.11853 13.0574 8.12556 13.2121L8.13962 13.5672C8.26618 16.552 10.1822 19.048 12.8295 20.043L12.0771 21.6988C11.8943 21.6496 11.7009 21.625 11.5006 21.625C10.2595 21.625 9.25056 22.634 9.25056 23.875C9.25056 25.116 10.2595 26.125 11.5006 26.125C12.7416 26.125 13.7506 25.116 13.7506 23.875H19.6779L20.5498 25.7945C20.6799 26.0758 21.0103 26.2023 21.2951 26.0723C21.5799 25.9422 21.7029 25.6117 21.5728 25.327L19.1717 20.0465C21.9209 19.0199 23.8756 16.3727 23.8756 13.2648V13.1875C23.8756 12.8781 23.6224 12.625 23.3131 12.625H8.68806ZM18.0783 20.3559L19.1646 22.75H13.4482C13.3427 22.5672 13.2092 22.3984 13.058 22.2543L13.9193 20.3559C14.3869 20.4508 14.8685 20.5 15.3642 20.5H16.6369C17.1291 20.5 17.6107 20.4508 18.0748 20.3559H18.0783ZM15.3677 19.375C12.1685 19.375 9.52829 16.9141 9.27868 13.75H22.733C22.4869 16.8965 19.8537 19.375 16.6439 19.375H15.3677ZM12.6256 23.875C12.6256 24.4973 12.1228 25 11.5006 25C10.8783 25 10.3756 24.4973 10.3756 23.875C10.3756 23.2527 10.8783 22.75 11.5006 22.75C12.1228 22.75 12.6256 23.2527 12.6256 23.875ZM17.1256 6.4375C17.1256 6.12812 16.8724 5.875 16.5631 5.875C16.2537 5.875 16.0006 6.12812 16.0006 6.4375C16.0006 7.12656 16.2748 7.7875 16.7634 8.27617L17.8217 9.33438C18.0994 9.61211 18.2541 9.98477 18.2541 10.3785C18.2541 10.6879 18.5072 10.941 18.8166 10.941C19.1259 10.941 19.3791 10.6879 19.3791 10.3785C19.3791 9.68945 19.1049 9.02852 18.6162 8.53984L17.558 7.48164C17.2802 7.20391 17.1256 6.82773 17.1256 6.4375Z" fill="#98AFBA"/>
</svg>
