<svg width="32" height="32" viewBox="0 0 32 32" fill="none" xmlns="http://www.w3.org/2000/svg">
<rect width="32" height="32" rx="16" fill="#F5F7F8"/>
<path d="M20.5 8.6875C20.5 8.37812 20.7531 8.125 21.0625 8.125H25.5625C25.8719 8.125 26.125 8.37812 26.125 8.6875C26.125 8.99687 25.8719 9.25 25.5625 9.25H21.625V13.1875C21.625 13.4969 21.3719 13.75 21.0625 13.75H16.5625V18.8125C16.5625 19.1219 16.3094 19.375 16 19.375H11.5V23.3125C11.5 23.6219 11.2469 23.875 10.9375 23.875H6.4375C6.12812 23.875 5.875 23.6219 5.875 23.3125C5.875 23.0031 6.12812 22.75 6.4375 22.75H10.375V18.8125C10.375 18.5031 10.6281 18.25 10.9375 18.25H15.4375V13.1875C15.4375 12.8781 15.6906 12.625 16 12.625H20.5V8.6875Z" fill="#98AFBA"/>
</svg>
