<svg width="32" height="32" viewBox="0 0 32 32" fill="none" xmlns="http://www.w3.org/2000/svg">
<rect width="32" height="32" rx="16" fill="#F5F7F8"/>
<path d="M17.2812 8C20.6984 8 23.4688 10.7703 23.4688 14.1875V18.5082C23.4688 19.1164 23.2613 19.707 22.8816 20.1816L21.2398 22.2312L22.632 23.9715C22.8078 24.193 22.9062 24.4672 22.9062 24.752L22.8992 24.8785C22.8359 25.5078 22.3051 26 21.6582 26H12.9078L12.7812 25.993C12.1941 25.9332 11.7266 25.4656 11.6668 24.8785L11.6598 24.752C11.6598 24.5023 11.7336 24.2633 11.8707 24.0559L11.934 23.9715L13.3613 22.1855L13.0941 21.1133C12.8656 20.1992 13.1328 19.2324 13.8008 18.568L15.9313 16.4375H14.6656L14.5391 16.5324C13.8922 17.0105 13.0625 17.1547 12.3031 16.9227L12.152 16.8699C11.1781 16.5078 10.5312 15.5727 10.5312 14.532V14.4371C10.5312 13.7727 10.7809 13.1363 11.2309 12.6477L13.9062 9.75078V8.5625L13.9168 8.45C13.9695 8.19336 14.198 8 14.4688 8H17.2812ZM12.8094 24.6711C12.7918 24.6922 12.7812 24.7203 12.7812 24.7484C12.7812 24.8152 12.8375 24.8715 12.9043 24.8715H21.6547C21.7215 24.8715 21.7777 24.8152 21.7777 24.7484C21.7777 24.7344 21.7742 24.7203 21.7707 24.7063L21.7496 24.6711L20.1113 22.625H14.4441L12.8059 24.6711H12.8094ZM15.0312 9.96875C15.0312 10.1094 14.9785 10.2465 14.8836 10.3484L12.0605 13.407C11.8039 13.6883 11.6598 14.0539 11.6598 14.4336V14.5285C11.6598 15.1016 12.0148 15.6148 12.5527 15.8152L12.718 15.8645C13.1117 15.9559 13.5301 15.8715 13.857 15.6254L14.1348 15.418L14.2121 15.3688C14.293 15.3266 14.3809 15.3055 14.4723 15.3055H17.2848C17.5133 15.3055 17.7172 15.4426 17.8051 15.6535C17.893 15.8645 17.8438 16.107 17.682 16.2652L14.5918 19.3555C14.2051 19.7422 14.0504 20.3047 14.1805 20.832L14.3457 21.493H20.3855L22.0027 19.4715C22.2242 19.1973 22.3438 18.8527 22.3438 18.5012V14.1875C22.3438 11.3926 20.0762 9.125 17.2812 9.125H15.0312V9.96875ZM15.875 13.0625C15.6512 13.0625 15.4366 12.9736 15.2784 12.8154C15.1201 12.6571 15.0312 12.4425 15.0312 12.2188C15.0312 11.995 15.1201 11.7804 15.2784 11.6221C15.4366 11.4639 15.6512 11.375 15.875 11.375C16.0988 11.375 16.3134 11.4639 16.4716 11.6221C16.6299 11.7804 16.7188 11.995 16.7188 12.2188C16.7188 12.4425 16.6299 12.6571 16.4716 12.8154C16.3134 12.9736 16.0988 13.0625 15.875 13.0625Z" fill="#98AFBA"/>
</svg>
