<svg width="32" height="32" viewBox="0 0 32 32" fill="none" xmlns="http://www.w3.org/2000/svg">
<rect width="32" height="32" rx="16" fill="#F5F7F8"/>
<path d="M13.75 7.5625V10.375H18.25V7.5625C18.25 7.25312 17.9969 7 17.6875 7H14.3125C14.0031 7 13.75 7.25312 13.75 7.5625ZM12.625 10.375V7.5625C12.625 6.63086 13.3809 5.875 14.3125 5.875H17.6875C18.6191 5.875 19.375 6.63086 19.375 7.5625V10.375H20.5C21.741 10.375 22.75 11.384 22.75 12.625V22.75C22.75 23.991 21.741 25 20.5 25V25.5625C20.5 25.8719 20.2469 26.125 19.9375 26.125C19.6281 26.125 19.375 25.8719 19.375 25.5625V25H12.625V25.5625C12.625 25.8719 12.3719 26.125 12.0625 26.125C11.7531 26.125 11.5 25.8719 11.5 25.5625V25C10.259 25 9.25 23.991 9.25 22.75V12.625C9.25 11.384 10.259 10.375 11.5 10.375H12.625ZM12.0625 23.875H20.5C21.1223 23.875 21.625 23.3723 21.625 22.75V12.625C21.625 12.0027 21.1223 11.5 20.5 11.5H11.5C10.8777 11.5 10.375 12.0027 10.375 12.625V22.75C10.375 23.3723 10.8777 23.875 11.5 23.875H12.0625ZM12.625 16C12.625 15.6906 12.8781 15.4375 13.1875 15.4375H18.8125C19.1219 15.4375 19.375 15.6906 19.375 16C19.375 16.3094 19.1219 16.5625 18.8125 16.5625H13.1875C12.8781 16.5625 12.625 16.3094 12.625 16ZM12.625 19.375C12.625 19.0656 12.8781 18.8125 13.1875 18.8125H18.8125C19.1219 18.8125 19.375 19.0656 19.375 19.375C19.375 19.6844 19.1219 19.9375 18.8125 19.9375H13.1875C12.8781 19.9375 12.625 19.6844 12.625 19.375Z" fill="#98AFBA"/>
</svg>
