<svg width="32" height="32" viewBox="0 0 32 32" fill="none" xmlns="http://www.w3.org/2000/svg">
<rect width="32" height="32" rx="16" fill="#F5F7F8"/>
<g clip-path="url(#clip0_2534_12201)">
<path d="M15.6749 8.13433C15.8655 7.9562 16.1655 7.9562 16.3561 8.13433L23.8561 15.1343C24.0593 15.3218 24.0686 15.6406 23.8811 15.8406C23.6936 16.0406 23.3749 16.0531 23.1749 15.8656L22.5155 15.25V22C22.5155 23.1031 21.6186 24 20.5155 24H11.5155C10.4124 24 9.51552 23.1031 9.51552 22V15.25L8.85614 15.8656C8.65302 16.0531 8.33739 16.0437 8.14989 15.8406C7.96239 15.6375 7.97177 15.3218 8.17489 15.1343L15.6749 8.13433ZM16.0155 9.18433L10.5155 14.3187V22C10.5155 22.5531 10.9624 23 11.5155 23H13.5155V19.5C13.5155 18.3968 14.4124 17.5 15.5155 17.5H16.5155C17.6186 17.5 18.5155 18.3968 18.5155 19.5V23H20.5155C21.0686 23 21.5155 22.5531 21.5155 22V14.3187L16.0155 9.18433ZM14.5155 23H17.5155V19.5C17.5155 18.9468 17.0686 18.5 16.5155 18.5H15.5155C14.9624 18.5 14.5155 18.9468 14.5155 19.5V23Z" fill="#98AFBA"/>
</g>
<defs>
<clipPath id="clip0_2534_12201">
<rect width="16" height="16" fill="white" transform="translate(8 8)"/>
</clipPath>
</defs>
</svg>
