<svg width="32" height="32" viewBox="0 0 32 32" fill="none" xmlns="http://www.w3.org/2000/svg">
<rect width="32" height="32" rx="16" fill="#F5F7F8"/>
<path d="M9.25 10.375V11.8023C9.58047 11.6125 9.96367 11.5 10.375 11.5H14.3125C14.984 11.5 15.5887 11.7953 16 12.2629C16.4113 11.7953 17.016 11.5 17.6875 11.5H21.625C22.0363 11.5 22.4195 11.609 22.75 11.8023V10.375C22.75 9.75273 22.2473 9.25 21.625 9.25H10.375C9.75273 9.25 9.25 9.75273 9.25 10.375ZM23.875 13.75V15.4375C24.557 15.9508 25 16.7664 25 17.6875V21.0625V23.3125C25 23.6219 24.7469 23.875 24.4375 23.875C24.1281 23.875 23.875 23.6219 23.875 23.3125V21.625H8.125V23.3125C8.125 23.6219 7.87187 23.875 7.5625 23.875C7.25312 23.875 7 23.6219 7 23.3125V21.0625V17.6875C7 16.7664 7.44297 15.9508 8.125 15.4375V13.75V10.375C8.125 9.13398 9.13398 8.125 10.375 8.125H21.625C22.866 8.125 23.875 9.13398 23.875 10.375V13.75ZM22.75 14.9313V13.75C22.75 13.1277 22.2473 12.625 21.625 12.625H17.6875C17.0652 12.625 16.5625 13.1277 16.5625 13.75V14.875H22.1875C22.3809 14.875 22.5672 14.8961 22.75 14.9313ZM15.4375 14.875V13.75C15.4375 13.1277 14.9348 12.625 14.3125 12.625H10.375C9.75273 12.625 9.25 13.1277 9.25 13.75V14.9313C9.43281 14.8961 9.61914 14.875 9.8125 14.875H15.4375ZM23.875 17.6875C23.875 16.7559 23.1191 16 22.1875 16H9.8125C8.88086 16 8.125 16.7559 8.125 17.6875V20.5H23.875V17.6875Z" fill="#98AFBA"/>
</svg>
