<svg width="222" height="84" viewBox="0 0 222 84" fill="none" xmlns="http://www.w3.org/2000/svg">
<path d="M221.867 27.1773L212.623 28.6934C203.378 30.1354 184.889 33.2784 166.4 31.7069C147.911 30.1354 129.423 24.2192 110.934 21.1317C92.4447 18.1181 73.9557 18.1181 55.4668 27.1773C36.9779 36.2365 18.4889 54.3549 -2.26891e-10 57.3684C-18.4889 60.4559 -36.9778 48.2538 -55.4668 42.2821C-73.9557 36.2365 -92.4446 36.2365 -110.934 36.2365C-129.423 36.2365 -147.911 36.2365 -166.4 42.2821C-184.889 48.2538 -203.378 60.4559 -221.867 55.8709C-240.356 51.3968 -258.845 30.1354 -277.334 27.1773C-295.823 24.2192 -314.312 39.1946 -332.801 45.2957C-351.29 51.3968 -369.779 48.2538 -388.268 52.8388C-406.756 57.313 -425.245 69.5151 -443.734 72.4732C-462.223 75.4313 -480.712 69.5151 -499.201 66.4276C-517.69 63.414 -536.179 63.414 -554.668 64.9301C-573.157 66.3721 -591.646 69.5151 -610.135 61.898C-628.624 54.3549 -647.113 36.2365 -665.602 34.7205C-684.09 33.2784 -702.579 48.2538 -721.068 60.4005C-739.557 72.4732 -758.046 81.5324 -776.535 81.5324C-795.024 81.5324 -813.513 72.4732 -832.002 70.9572C-850.491 69.5151 -868.98 75.4313 -887.469 80.0164C-905.958 84.4905 -924.447 87.6335 -942.936 75.4868C-961.424 63.414 -979.913 36.2365 -998.402 36.2365C-1016.89 36.2365 -1035.38 63.414 -1053.87 73.9892C-1072.36 84.4905 -1090.85 78.5743 -1100.09 75.4868L-1109.34 72.4732L-1109.34 -0.000213607L-1100.09 -0.000213607C-1090.85 -0.000213607 -1072.36 -0.000213607 -1053.87 -0.000213607C-1035.38 -0.000213608 -1016.89 -0.000213608 -998.402 -0.000213608C-979.913 -0.000213608 -961.424 -0.000213609 -942.936 -0.000213609C-924.447 -0.000213609 -905.958 -0.000213609 -887.469 -0.000213609C-868.98 -0.00021361 -850.491 -0.00021361 -832.002 -0.00021361C-813.513 -0.00021361 -795.024 -0.000213611 -776.535 -0.000213611C-758.046 -0.000213611 -739.557 -0.000213611 -721.068 -0.000213612C-702.579 -0.000213612 -684.09 -0.000213612 -665.602 -0.000213612C-647.113 -0.000213612 -628.624 -0.000213613 -610.135 -0.000213613C-591.646 -0.000213613 -573.157 -0.000213613 -554.668 -0.000213614C-536.179 -0.000213614 -517.69 -0.000213614 -499.201 -0.000213614C-480.712 -0.000213614 -462.223 -0.000213615 -443.734 -0.000213615C-425.245 -0.000213615 -406.756 -0.000213615 -388.268 -0.000213616C-369.779 -0.000213616 -351.29 -0.000213616 -332.801 -0.000213616C-314.312 -0.000213616 -295.823 -0.000213617 -277.334 -0.000213617C-258.845 -0.000213617 -240.356 -0.000213617 -221.867 -0.000213618C-203.378 -0.000213618 -184.889 -0.000213618 -166.4 -0.000213618C-147.911 -0.000213619 -129.423 -0.000213619 -110.934 -0.000213619C-92.4446 -0.000213619 -73.9557 -0.000213619 -55.4668 -0.00021362C-36.9778 -0.00021362 -18.4889 -0.00021362 -7.15715e-10 -0.00021362C18.4889 -0.000213621 36.9779 -0.000213621 55.4668 -0.000213621C73.9557 -0.000213621 92.4447 -0.000213621 110.934 -0.000213622C129.423 -0.000213622 147.911 -0.000213622 166.4 -0.000213622C184.889 -0.000213623 203.378 -0.000213623 212.623 -0.000213623L221.867 -0.000213623L221.867 27.1773Z" fill="url(#paint0_linear_1693_32706)"/>
<defs>
<linearGradient id="paint0_linear_1693_32706" x1="221.867" y1="-0.000213623" x2="221.867" y2="83.9954" gradientUnits="userSpaceOnUse">
<stop stop-color="#00B8E7" stop-opacity="0.701961"/>
<stop offset="1" stop-color="#00B8E7" stop-opacity="0.701961"/>
</linearGradient>
</defs>
</svg>
