<svg width="32" height="32" viewBox="0 0 32 32" fill="none" xmlns="http://www.w3.org/2000/svg">
<rect width="32" height="32" rx="16" fill="#F5F7F8"/>
<path d="M20.398 9.25C22.2199 9.25 23.698 10.7617 23.698 12.625V13.9434C24.0418 13.8203 24.413 13.75 24.798 13.75V12.625C24.798 10.1395 22.8284 8.125 20.398 8.125H11.598C9.16773 8.125 7.19805 10.1395 7.19805 12.625V13.75C7.58305 13.75 7.9543 13.8168 8.29805 13.9434V12.625C8.29805 10.7617 9.77617 9.25 11.598 9.25H20.398ZM8.29805 18.25V21.625V22.1875C8.29805 22.4969 8.05055 22.75 7.74805 22.75H6.64805C6.34555 22.75 6.09805 22.4969 6.09805 22.1875V17.125C6.09805 16.5027 6.58961 16 7.19805 16C7.80648 16 8.29805 16.5027 8.29805 17.125V18.25ZM7.74805 23.875C8.46648 23.875 9.07836 23.4039 9.30523 22.75H22.6943C22.9212 23.4039 23.533 23.875 24.2515 23.875H25.3515C26.2624 23.875 27.0015 23.1191 27.0015 22.1875V17.125C27.0015 15.884 26.0149 14.875 24.8015 14.875C23.588 14.875 22.6015 15.884 22.6015 17.125H9.40148C9.40148 15.884 8.41492 14.875 7.20148 14.875C5.98805 14.875 5.00148 15.884 5.00148 17.125L4.99805 22.1875C4.99805 23.1191 5.73711 23.875 6.64805 23.875H7.74805ZM9.39805 21.625V18.25H22.598V21.625H9.39805ZM23.698 22.1875V21.625V18.25V17.125C23.698 16.5027 24.1896 16 24.798 16C25.4065 16 25.898 16.5027 25.898 17.125V22.1875C25.898 22.4969 25.6505 22.75 25.348 22.75H24.248C23.9455 22.75 23.698 22.4969 23.698 22.1875Z" fill="#98AFBA"/>
</svg>
