<svg width="32" height="32" viewBox="0 0 32 32" fill="none" xmlns="http://www.w3.org/2000/svg">
<rect width="32" height="32" rx="16" fill="#F5F7F8"/>
<path d="M15.9987 11.4995C16.4534 11.4995 16.8894 11.3217 17.2109 11.0053C17.5324 10.6888 17.713 10.2596 17.713 9.81201C17.713 9.36446 17.5324 8.93524 17.2109 8.61877C16.8894 8.3023 16.4534 8.12451 15.9987 8.12451C15.5441 8.12451 15.108 8.3023 14.7865 8.61877C14.465 8.93524 14.2844 9.36446 14.2844 9.81201C14.2844 10.2596 14.465 10.6888 14.7865 11.0053C15.108 11.3217 15.5441 11.4995 15.9987 11.4995ZM15.9987 6.99951C16.7565 6.99951 17.4832 7.29583 18.019 7.82327C18.5548 8.35072 18.8559 9.06609 18.8559 9.81201C18.8559 10.5579 18.5548 11.2733 18.019 11.8007C17.4832 12.3282 16.7565 12.6245 15.9987 12.6245C15.241 12.6245 14.5142 12.3282 13.9784 11.8007C13.4426 11.2733 13.1416 10.5579 13.1416 9.81201C13.1416 9.06609 13.4426 8.35072 13.9784 7.82327C14.5142 7.29583 15.241 6.99951 15.9987 6.99951ZM9.64515 12.1604C10.3773 11.3483 11.6416 11.2745 12.4701 11.9952L13.3344 12.7511C14.0666 13.3944 15.0166 13.7495 15.9987 13.7495C16.9809 13.7495 17.9309 13.3944 18.663 12.7511L19.5273 11.9952C20.3523 11.2745 21.6166 11.3448 22.3523 12.1604C23.088 12.9761 23.013 14.2171 22.188 14.9413L21.3201 15.6937C20.7451 16.1964 20.1094 16.6077 19.4273 16.9276V18.0632L21.2094 20.0354C21.813 20.7034 21.8844 21.6913 21.3773 22.4366L20.2344 24.1241C19.6201 25.0276 18.3809 25.2737 17.4594 24.669C16.538 24.0644 16.2916 22.8444 16.9059 21.9374L17.1916 21.5155L16.5309 20.7808H15.4701L14.8059 21.5155L15.0916 21.9374C15.7059 22.8409 15.4559 24.0644 14.538 24.669C13.6201 25.2737 12.3773 25.0276 11.763 24.1241L10.6201 22.4366C10.1166 21.6913 10.1844 20.7069 10.788 20.0354L12.5701 18.0632V17.1245C12.5701 17.1245 12.5701 17.1245 12.5701 17.121C12.5701 17.1175 12.5701 17.121 12.5701 17.1175V16.9241C11.888 16.6077 11.2487 16.1929 10.6773 15.6901L9.81301 14.9413C8.98801 14.2206 8.91301 12.9761 9.64515 12.1604ZM13.713 17.687V18.2776C13.713 18.2847 13.713 18.2917 13.713 18.2987L15.1023 19.6663C15.138 19.6593 15.1737 19.6558 15.2094 19.6558H16.7844C16.8201 19.6558 16.8559 19.6593 16.8916 19.6663L18.2844 18.2987C18.2844 18.2917 18.2844 18.2847 18.2844 18.2776V17.687H13.713ZM18.2844 16.562C18.2844 16.3335 18.4237 16.1296 18.638 16.0452C19.338 15.7604 19.988 15.3597 20.563 14.8569L21.4273 14.1011C21.7809 13.7917 21.813 13.2573 21.4987 12.9093C21.1844 12.5612 20.6416 12.5296 20.288 12.839L19.4237 13.5948C18.4809 14.4175 17.2594 14.8745 15.9987 14.8745C14.738 14.8745 13.5166 14.4175 12.5737 13.5913L11.7094 12.8354C11.3559 12.5261 10.813 12.5577 10.4987 12.9058C10.1844 13.2538 10.2166 13.7882 10.5701 14.0976L11.4344 14.8534C12.0094 15.3562 12.663 15.7569 13.3594 16.0417C13.5737 16.1296 13.7094 16.3335 13.713 16.5585H18.2844V16.562ZM18.9523 19.2304L17.738 20.4257L18.338 21.0937C18.5094 21.2835 18.5309 21.5647 18.388 21.7792L17.8559 22.5632C17.5916 22.9499 17.6987 23.4737 18.0951 23.7339C18.4916 23.994 19.0201 23.8886 19.2844 23.4983L20.4273 21.8108C20.6451 21.4909 20.613 21.069 20.3559 20.7808L18.9559 19.2304H18.9523ZM14.2594 20.4257L13.0451 19.2304L11.6451 20.7808C11.3844 21.069 11.3559 21.4909 11.5737 21.8108L12.7166 23.4983C12.9809 23.8851 13.513 23.9905 13.9059 23.7339C14.2987 23.4772 14.4059 22.9499 14.1451 22.5632L13.613 21.7792C13.4701 21.5647 13.488 21.2835 13.663 21.0937L14.263 20.4257H14.2594Z" fill="#98AFBA"/>
</svg>
