<svg width="32" height="32" viewBox="0 0 32 32" fill="none" xmlns="http://www.w3.org/2000/svg">
<rect width="32" height="32" rx="16" fill="#F5F7F8"/>
<path d="M10.2801 8.125C9.71055 8.125 9.25 8.58555 9.25 9.15508V16H22.75H23.875H24.4375C24.7469 16 25 16.2531 25 16.5625C25 16.8719 24.7469 17.125 24.4375 17.125H23.875H22.75H9.25H8.125H7.5625C7.25312 17.125 7 16.8719 7 16.5625C7 16.2531 7.25312 16 7.5625 16H8.125V9.15508C8.125 7.96328 9.08828 7 10.2801 7C10.8496 7 11.398 7.22852 11.8023 7.6293L12.6848 8.51172C13.075 8.26562 13.5355 8.125 14.0312 8.125C14.7414 8.125 15.3848 8.4168 15.8453 8.89141L15.884 8.85273C16.102 8.63477 16.4605 8.63477 16.6785 8.85273C16.8965 9.0707 16.8965 9.4293 16.6785 9.64727L13.0223 13.3035C12.8043 13.5215 12.4457 13.5215 12.2277 13.3035C12.0098 13.0855 12.0098 12.727 12.2277 12.509L12.2664 12.4703C11.7918 12.0098 11.5 11.3664 11.5 10.6562C11.5 10.1605 11.6406 9.7 11.8867 9.30977L11.0043 8.42734C10.8145 8.23398 10.5508 8.125 10.2801 8.125ZM8.125 18.25H9.25V19.9375C9.25 20.8586 9.69297 21.6742 10.375 22.1875C10.8461 22.5391 11.4297 22.75 12.0625 22.75H19.9375C20.5703 22.75 21.1539 22.5391 21.625 22.1875C22.307 21.6742 22.75 20.8586 22.75 19.9375V18.25H23.875V19.9375C23.875 21.0098 23.4461 21.9836 22.75 22.6937V24.4375C22.75 24.7469 22.4969 25 22.1875 25C21.8781 25 21.625 24.7469 21.625 24.4375V23.4953C21.1152 23.7379 20.5422 23.875 19.9375 23.875H12.0625C11.4578 23.875 10.8848 23.7379 10.375 23.4953V24.4375C10.375 24.7469 10.1219 25 9.8125 25C9.50312 25 9.25 24.7469 9.25 24.4375V22.6937C8.55391 21.9836 8.125 21.0098 8.125 19.9375V18.25ZM14.0312 9.25C13.2543 9.25 12.625 9.8793 12.625 10.6562C12.625 11.057 12.7937 11.4191 13.0609 11.6758L15.0508 9.68594C14.7941 9.41875 14.432 9.25 14.0312 9.25Z" fill="#98AFBA"/>
</svg>
