<svg width="32" height="32" viewBox="0 0 32 32" fill="none" xmlns="http://www.w3.org/2000/svg">
<rect width="32" height="32" rx="16" fill="#F5F7F8"/>
<path d="M11.5557 16C12.5871 16 13.5762 15.5852 14.3055 14.8467C15.0348 14.1083 15.4446 13.1068 15.4446 12.0625C15.4446 11.0182 15.0348 10.0167 14.3055 9.27827C13.5762 8.53984 12.5871 8.125 11.5557 8.125C10.5243 8.125 9.53511 8.53984 8.8058 9.27827C8.0765 10.0167 7.66678 11.0182 7.66678 12.0625C7.66678 13.1068 8.0765 14.1083 8.8058 14.8467C9.53511 15.5852 10.5243 16 11.5557 16ZM16.5244 12.625C16.2466 15.1562 14.1286 17.125 11.5557 17.125C8.79525 17.125 6.55566 14.8574 6.55566 12.0625C6.55566 9.26758 8.79525 7 11.5557 7C14.1286 7 16.2501 8.96875 16.5244 11.5H18.8716C19.1008 10.8461 19.7189 10.375 20.4446 10.375H23.7779C24.698 10.375 25.4446 11.1309 25.4446 12.0625C25.4446 12.9941 24.698 13.75 23.7779 13.75H20.4446C19.7189 13.75 19.1008 13.2789 18.8716 12.625H16.5244ZM16.0001 18.25H16.5557H17.6668V17.125C17.6668 16.5027 18.1633 16 18.7779 16H22.1112C22.7258 16 23.2223 16.5027 23.2223 17.125V18.25H24.3334H24.889C25.1946 18.25 25.4446 18.5031 25.4446 18.8125C25.4446 19.1219 25.1946 19.375 24.889 19.375H24.3334V23.3125C24.3334 24.2441 23.5869 25 22.6668 25H18.2223C17.3022 25 16.5557 24.2441 16.5557 23.3125V19.375H16.0001C15.6946 19.375 15.4446 19.1219 15.4446 18.8125C15.4446 18.5031 15.6946 18.25 16.0001 18.25ZM18.7779 18.25H22.1112V17.125H18.7779V18.25ZM17.6668 19.375V23.3125C17.6668 23.6219 17.9168 23.875 18.2223 23.875H22.6668C22.9723 23.875 23.2223 23.6219 23.2223 23.3125V19.375H17.6668ZM23.7779 11.5H20.4446C20.139 11.5 19.889 11.7531 19.889 12.0625C19.889 12.3719 20.139 12.625 20.4446 12.625H23.7779C24.0834 12.625 24.3334 12.3719 24.3334 12.0625C24.3334 11.7531 24.0834 11.5 23.7779 11.5ZM13.2223 12.0625C13.2223 11.6149 13.0467 11.1857 12.7342 10.8693C12.4216 10.5528 11.9977 10.375 11.5557 10.375C11.1136 10.375 10.6897 10.5528 10.3772 10.8693C10.0646 11.1857 9.889 11.6149 9.889 12.0625C9.889 12.5101 10.0646 12.9393 10.3772 13.2557C10.6897 13.5722 11.1136 13.75 11.5557 13.75C11.9977 13.75 12.4216 13.5722 12.7342 13.2557C13.0467 12.9393 13.2223 12.5101 13.2223 12.0625ZM8.77789 12.0625C8.77789 11.3166 9.07054 10.6012 9.59148 10.0738C10.1124 9.54632 10.819 9.25 11.5557 9.25C12.2924 9.25 12.9989 9.54632 13.5198 10.0738C14.0408 10.6012 14.3334 11.3166 14.3334 12.0625C14.3334 12.8084 14.0408 13.5238 13.5198 14.0512C12.9989 14.5787 12.2924 14.875 11.5557 14.875C10.819 14.875 10.1124 14.5787 9.59148 14.0512C9.07054 13.5238 8.77789 12.8084 8.77789 12.0625ZM6.55566 24.4375C6.55566 24.1281 6.80566 23.875 7.11122 23.875H13.7779C14.0834 23.875 14.3334 24.1281 14.3334 24.4375C14.3334 24.7469 14.0834 25 13.7779 25H7.11122C6.80566 25 6.55566 24.7469 6.55566 24.4375ZM12.1112 19.375V20.5H12.6668C12.9723 20.5 13.2223 20.2469 13.2223 19.9375C13.2223 19.6281 12.9723 19.375 12.6668 19.375H12.1112ZM12.1112 18.25H12.6668C13.5869 18.25 14.3334 19.0059 14.3334 19.9375C14.3334 20.8691 13.5869 21.625 12.6668 21.625H12.1112C12.1112 22.2473 11.6147 22.75 11.0001 22.75H8.77789C8.1633 22.75 7.66678 22.2473 7.66678 21.625V18.8125C7.66678 18.5031 7.91678 18.25 8.22233 18.25H11.0001H11.5557H12.1112ZM11.0001 20.5V19.375H8.77789V21.625H11.0001V20.5Z" fill="#98AFBA"/>
</svg>
