<svg width="32" height="32" viewBox="0 0 32 32" fill="none" xmlns="http://www.w3.org/2000/svg">
<rect width="32" height="32" rx="16" fill="#F5F7F8"/>
<path d="M20.4041 10.375H23.874L17.124 17.125V13.6551C17.124 13.3563 17.0045 13.0715 16.7936 12.8605L15.4541 11.5211C15.085 11.1484 14.874 10.6422 14.874 10.1148C14.874 9.01445 15.7635 8.125 16.8639 8.125C17.3912 8.125 17.8975 8.33594 18.2701 8.70859L19.6096 10.048C19.8205 10.259 20.1053 10.3785 20.4041 10.3785V10.375ZM20.4041 9.25L19.0646 7.91055C18.4811 7.32695 17.69 7 16.8639 7C15.1447 7 13.749 8.3957 13.749 10.1148C13.749 10.8777 14.0268 11.609 14.5295 12.175L11.1018 15.6027C10.9611 15.7434 10.9049 15.9508 10.9576 16.1441L13.0178 23.875H7.56152C7.25215 23.875 6.99902 24.1281 6.99902 24.4375C6.99902 24.7469 7.25215 25 7.56152 25H13.749H19.9365C20.2459 25 20.499 24.7469 20.499 24.4375C20.499 24.1281 20.2459 23.875 19.9365 23.875H14.1814L12.1248 16.1687L15.317 12.9766L15.999 13.6551V17.125C15.999 17.5785 16.2732 17.9898 16.6951 18.1656C17.117 18.3414 17.5986 18.243 17.9221 17.923L24.6721 11.173C24.9955 10.8496 25.0904 10.368 24.9146 9.94609C24.7389 9.52422 24.3311 9.25 23.874 9.25H20.4041ZM20.3127 17.1215C20.7451 17.4766 21.3006 17.6875 21.9053 17.6875C23.3045 17.6875 24.4365 16.5555 24.4365 15.1562C24.4365 14.5516 24.2256 13.9961 23.8705 13.5602L23.0654 14.3652C23.2201 14.5902 23.3115 14.8645 23.3115 15.1562C23.3115 15.9332 22.6822 16.5625 21.9053 16.5625C21.61 16.5625 21.3393 16.4711 21.1143 16.3164L20.3127 17.118V17.1215Z" fill="#98AFBA"/>
</svg>
