<svg width="32" height="32" viewBox="0 0 32 32" fill="none" xmlns="http://www.w3.org/2000/svg">
<rect width="32" height="32" rx="16" fill="#F5F7F8"/>
<path d="M12.4281 7.13861C12.1926 6.9347 11.8375 6.96283 11.6336 7.19837C11.4297 7.43392 11.4578 7.789 11.6934 7.9929L14.4777 10.3765H9.8125C8.25859 10.3765 7 11.6351 7 13.189V22.189C7 23.7429 8.25859 25.0015 9.8125 25.0015H22.1875C23.7414 25.0015 25 23.7429 25 22.189V13.189C25 11.6351 23.7414 10.3765 22.1875 10.3765H17.5223L20.3066 7.98939C20.5422 7.78548 20.5703 7.4304 20.3664 7.19486C20.1625 6.95931 19.8109 6.93119 19.5719 7.13509L16 10.1972L12.4281 7.13861ZM16 11.5015H22.1875C23.1191 11.5015 23.875 12.2574 23.875 13.189V22.189C23.875 23.1206 23.1191 23.8765 22.1875 23.8765H9.8125C8.88086 23.8765 8.125 23.1206 8.125 22.189V13.189C8.125 12.2574 8.88086 11.5015 9.8125 11.5015H16ZM18.8125 13.7515C19.1219 13.7515 19.375 14.0046 19.375 14.314V21.064C19.375 21.3734 19.1219 21.6265 18.8125 21.6265H10.9375C10.6281 21.6265 10.375 21.3734 10.375 21.064V14.314C10.375 14.0046 10.6281 13.7515 10.9375 13.7515H18.8125ZM10.9375 12.6265C10.0059 12.6265 9.25 13.3824 9.25 14.314V21.064C9.25 21.9956 10.0059 22.7515 10.9375 22.7515H18.8125C19.7441 22.7515 20.5 21.9956 20.5 21.064V14.314C20.5 13.3824 19.7441 12.6265 18.8125 12.6265H10.9375ZM22.1875 15.1577C22.4113 15.1577 22.6259 15.0689 22.7841 14.9106C22.9424 14.7524 23.0312 14.5378 23.0312 14.314C23.0312 14.0902 22.9424 13.8756 22.7841 13.7174C22.6259 13.5591 22.4113 13.4702 22.1875 13.4702C21.9637 13.4702 21.7491 13.5591 21.5909 13.7174C21.4326 13.8756 21.3438 14.0902 21.3438 14.314C21.3438 14.5378 21.4326 14.7524 21.5909 14.9106C21.7491 15.0689 21.9637 15.1577 22.1875 15.1577ZM23.0312 16.564C23.0312 16.3402 22.9424 16.1256 22.7841 15.9674C22.6259 15.8091 22.4113 15.7202 22.1875 15.7202C21.9637 15.7202 21.7491 15.8091 21.5909 15.9674C21.4326 16.1256 21.3438 16.3402 21.3438 16.564C21.3438 16.7878 21.4326 17.0024 21.5909 17.1606C21.7491 17.3189 21.9637 17.4077 22.1875 17.4077C22.4113 17.4077 22.6259 17.3189 22.7841 17.1606C22.9424 17.0024 23.0312 16.7878 23.0312 16.564Z" fill="#98AFBA"/>
</svg>
