<svg width="18" height="18" viewBox="0 0 18 18" fill="none" xmlns="http://www.w3.org/2000/svg">
<path d="M14.7139 1.125C15.9746 1.125 17 2.13399 17 3.375V14.625C17 15.866 15.9746 16.875 14.7139 16.875H3.28516C2.02451 16.8749 1.00001 15.866 1 14.625V3.375C1 2.13403 2.0245 1.12507 3.28516 1.125H14.7139ZM2.14258 6.75V14.625C2.14259 15.2472 2.65308 15.7499 3.28516 15.75H8.42773V6.75H2.14258ZM9.57129 6.75V15.75H14.7139C15.346 15.75 15.8564 15.2473 15.8564 14.625V6.75H9.57129ZM3.28516 2.25C2.65308 2.25007 2.14258 2.75278 2.14258 3.375V5.625H15.8564V3.375C15.8564 2.75274 15.346 2.25 14.7139 2.25H3.28516Z" fill="#96AFB8"/>
</svg>
