<svg width="18" height="18" viewBox="0 0 18 18" fill="none" xmlns="http://www.w3.org/2000/svg">
<g clip-path="url(#clip0_2504_10637)">
<path d="M3.20718 0C2.76278 0 2.40525 0.357527 2.40525 0.80193V2.79673C1.31931 3.13755 0.534084 4.14999 0.534084 5.3462C0.534084 6.54241 1.31931 7.55485 2.40525 7.89567V16.3059C2.40525 16.7503 2.76278 17.1078 3.20718 17.1078C3.65159 17.1078 4.00911 16.7503 4.00911 16.3059V7.89567C5.09506 7.55485 5.88028 6.54241 5.88028 5.3462C5.88028 4.14999 5.09506 3.13755 4.00911 2.79673V0.80193C4.00911 0.357527 3.65159 0 3.20718 0ZM3.20718 4.27696C3.49076 4.27696 3.76273 4.38961 3.96325 4.59013C4.16377 4.79066 4.27642 5.06262 4.27642 5.3462C4.27642 5.62978 4.16377 5.90175 3.96325 6.10227C3.76273 6.30279 3.49076 6.41544 3.20718 6.41544C2.9236 6.41544 2.65164 6.30279 2.45112 6.10227C2.2506 5.90175 2.13794 5.62978 2.13794 5.3462C2.13794 5.06262 2.2506 4.79066 2.45112 4.59013C2.65164 4.38961 2.9236 4.27696 3.20718 4.27696ZM8.55338 10.6924C8.83696 10.6924 9.10893 10.8051 9.30945 11.0056C9.50997 11.2061 9.62262 11.4781 9.62262 11.7616C9.62262 12.0452 9.50997 12.3172 9.30945 12.5177C9.10893 12.7182 8.83696 12.8309 8.55338 12.8309C8.2698 12.8309 7.99784 12.7182 7.79732 12.5177C7.5968 12.3172 7.48414 12.0452 7.48414 11.7616C7.48414 11.4781 7.5968 11.2061 7.79732 11.0056C7.99784 10.8051 8.2698 10.6924 8.55338 10.6924ZM11.2265 11.7616C11.2265 10.5654 10.4413 9.55299 9.35531 9.21217V0.80193C9.35531 0.357527 8.99779 0 8.55338 0C8.10898 0 7.75145 0.357527 7.75145 0.80193V9.21217C6.66551 9.55299 5.88028 10.5654 5.88028 11.7616C5.88028 12.9579 6.66551 13.9703 7.75145 14.3111V16.3059C7.75145 16.7503 8.10898 17.1078 8.55338 17.1078C8.99779 17.1078 9.35531 16.7503 9.35531 16.3059V14.3111C10.4413 13.9703 11.2265 12.9579 11.2265 11.7616ZM12.8303 6.41544C12.8303 6.13186 12.943 5.8599 13.1435 5.65937C13.344 5.45885 13.616 5.3462 13.8996 5.3462C14.1832 5.3462 14.4551 5.45885 14.6557 5.65937C14.8562 5.8599 14.9688 6.13186 14.9688 6.41544C14.9688 6.69902 14.8562 6.97099 14.6557 7.17151C14.4551 7.37203 14.1832 7.48468 13.8996 7.48468C13.616 7.48468 13.344 7.37203 13.1435 7.17151C12.943 6.97099 12.8303 6.69902 12.8303 6.41544ZM14.7015 8.96491C15.7875 8.62409 16.5727 7.61165 16.5727 6.41544C16.5727 5.21923 15.7875 4.20679 14.7015 3.86597V0.80193C14.7015 0.357527 14.344 0 13.8996 0C13.4552 0 13.0977 0.357527 13.0977 0.80193V3.86597C12.0117 4.20679 11.2265 5.21923 11.2265 6.41544C11.2265 7.61165 12.0117 8.62409 13.0977 8.96491V16.3059C13.0977 16.7503 13.4552 17.1078 13.8996 17.1078C14.344 17.1078 14.7015 16.7503 14.7015 16.3059V8.96491Z" fill="#98AFBA"/>
</g>
<defs>
<clipPath id="clip0_2504_10637">
<rect width="17.1078" height="17.1078" fill="white" transform="matrix(0 1 -1 0 17.1078 0)"/>
</clipPath>
</defs>
</svg>
