<svg width="44" height="44" viewBox="0 0 44 44" fill="none" xmlns="http://www.w3.org/2000/svg">
<path d="M5.11448 6.32055C3.78022 6.32055 2.70226 7.39851 2.70226 8.73277V18.3817C2.70226 19.7159 3.78022 20.7939 5.11448 20.7939H38.8856C40.2199 20.7939 41.2978 19.7159 41.2978 18.3817V8.73277C41.2978 7.39851 40.2199 6.32055 38.8856 6.32055H5.11448ZM0.290039 8.73277C0.290039 6.07179 2.4535 3.90833 5.11448 3.90833H38.8856C41.5466 3.90833 43.71 6.07179 43.71 8.73277V18.3817C43.71 21.0426 41.5466 23.2061 38.8856 23.2061H5.11448C2.4535 23.2061 0.290039 21.0426 0.290039 18.3817V8.73277ZM8.73282 13.5572H35.2673C35.9306 13.5572 36.4734 14.1 36.4734 14.7633C36.4734 15.4267 35.9306 15.9694 35.2673 15.9694H8.73282C8.06946 15.9694 7.52671 15.4267 7.52671 14.7633C7.52671 14.1 8.06946 13.5572 8.73282 13.5572ZM17.1756 35.2672V26.8244H19.5878V35.2672C19.5878 37.9282 17.4244 40.0917 14.7634 40.0917C12.1024 40.0917 9.93893 37.9282 9.93893 35.2672C9.93893 34.6039 10.4817 34.0611 11.145 34.0611C11.8084 34.0611 12.3511 34.6039 12.3511 35.2672C12.3511 36.6015 13.4291 37.6794 14.7634 37.6794C16.0976 37.6794 17.1756 36.6015 17.1756 35.2672ZM26.8245 26.8244V35.2672C26.8245 36.6015 27.9024 37.6794 29.2367 37.6794C30.571 37.6794 31.6489 36.6015 31.6489 35.2672V34.6642C31.6489 34.0008 32.1917 33.458 32.855 33.458C33.5184 33.458 34.0611 34.0008 34.0611 34.6642V35.2672C34.0611 37.9282 31.8977 40.0917 29.2367 40.0917C26.5757 40.0917 24.4123 37.9282 24.4123 35.2672V26.8244H26.8245Z" fill="#98AFBA"/>
</svg>
