<svg width="72" height="72" viewBox="0 0 72 72" fill="none" xmlns="http://www.w3.org/2000/svg">
<rect width="72" height="72" rx="36" fill="#F5F7F8"/>
<path d="M33.5879 49.2676C33.5877 51.9283 31.4244 54.0916 28.7637 54.0918C26.1028 54.0918 23.9387 51.9284 23.9385 49.2676C23.9385 48.6044 24.4814 48.0618 25.1445 48.0615C25.8079 48.0615 26.3516 48.6042 26.3516 49.2676C26.3518 50.6017 27.4295 51.6797 28.7637 51.6797C30.0977 51.6795 31.1756 50.6016 31.1758 49.2676V40.8242H33.5879V49.2676ZM40.8242 49.2676C40.8244 50.6016 41.9023 51.6795 43.2363 51.6797C44.5705 51.6797 45.6482 50.6017 45.6484 49.2676V48.6641C45.6485 48.0007 46.1921 47.458 46.8555 47.458C47.5186 47.4583 48.0615 48.0009 48.0615 48.6641V49.2676C48.0613 51.9284 45.8972 54.0918 43.2363 54.0918C40.5756 54.0916 38.4123 51.9283 38.4121 49.2676V40.8242H40.8242V49.2676ZM52.8857 17.9082C55.5465 17.9083 57.7098 20.0717 57.71 22.7324V32.3818C57.7099 35.0427 55.5466 37.206 52.8857 37.2061H19.1143C16.4534 37.206 14.2901 35.0427 14.29 32.3818V22.7324C14.2902 20.0717 16.4535 17.9083 19.1143 17.9082H52.8857ZM19.1143 20.3203C17.7802 20.3204 16.7023 21.3984 16.7021 22.7324V32.3818C16.7022 33.716 17.7801 34.7938 19.1143 34.7939H52.8857C54.2199 34.7938 55.2978 33.716 55.2979 32.3818V22.7324C55.2977 21.3984 54.2198 20.3204 52.8857 20.3203H19.1143ZM49.2676 27.5576C49.9308 27.5578 50.4736 28.1004 50.4736 28.7637C50.4734 29.4268 49.9307 29.9695 49.2676 29.9697H22.7324C22.0693 29.9695 21.5266 29.4268 21.5264 28.7637C21.5264 28.1004 22.0692 27.5578 22.7324 27.5576H49.2676Z" fill="#98AFBA"/>
</svg>
