<svg width="62" height="62" viewBox="0 0 62 62" fill="none" xmlns="http://www.w3.org/2000/svg">
<rect width="61.5882" height="61.5882" rx="30.7941" fill="#ECF7FB"/>
<path d="M28.7305 42.1426C28.7305 44.4186 26.8805 46.2693 24.6045 46.2695C22.3283 46.2695 20.4775 44.4188 20.4775 42.1426C20.4777 41.5753 20.9415 41.1114 21.5088 41.1113C22.0761 41.1113 22.5408 41.5753 22.541 42.1426C22.541 43.2839 23.4632 44.2061 24.6045 44.2061C25.7456 44.2058 26.667 43.2837 26.667 42.1426V34.9209H28.7305V42.1426ZM34.9209 42.1426C34.9209 43.2839 35.8431 44.206 36.9844 44.2061C38.1257 44.2061 39.0479 43.2839 39.0479 42.1426V41.627C39.0479 41.0597 39.5119 40.5959 40.0791 40.5957C40.6465 40.5957 41.1113 41.0596 41.1113 41.627V42.1426C41.1113 44.4188 39.2606 46.2695 36.9844 46.2695C34.7082 46.2695 32.8574 44.4188 32.8574 42.1426V34.9209H34.9209V42.1426ZM45.2383 15.3184C47.5143 15.3185 49.3651 17.1693 49.3652 19.4453V27.6992C49.3652 29.9753 47.5143 31.826 45.2383 31.8262H16.3506C14.0744 31.8262 12.2237 29.9754 12.2236 27.6992V19.4453C12.2238 17.1692 14.0745 15.3184 16.3506 15.3184H45.2383ZM16.3506 17.3818C15.2093 17.3818 14.2872 18.3041 14.2871 19.4453V27.6992C14.2872 28.8405 15.2093 29.7627 16.3506 29.7627H45.2383C46.3794 29.7625 47.3017 28.8404 47.3018 27.6992V19.4453C47.3016 18.3042 46.3794 17.382 45.2383 17.3818H16.3506ZM42.1426 23.5723C42.71 23.5723 43.1748 24.0371 43.1748 24.6045C43.1746 25.1717 42.7099 25.6357 42.1426 25.6357H19.4453C18.8781 25.6356 18.4143 25.1716 18.4141 24.6045C18.4141 24.0371 18.878 23.5724 19.4453 23.5723H42.1426Z" fill="url(#paint0_linear_2798_10048)"/>
<defs>
<linearGradient id="paint0_linear_2798_10048" x1="12.2236" y1="30.7939" x2="49.3652" y2="30.7939" gradientUnits="userSpaceOnUse">
<stop stop-color="#007DC0"/>
<stop offset="1" stop-color="#00B8E7"/>
</linearGradient>
</defs>
</svg>
