<svg width="18" height="18" viewBox="0 0 18 18" fill="none" xmlns="http://www.w3.org/2000/svg">
<path d="M9 3.85742C9.35356 3.85749 9.64258 4.14741 9.64258 4.50098V15.8086L13.6895 11.7617C13.9386 11.5128 14.3486 11.5126 14.5977 11.7617C14.8467 12.0108 14.8466 12.4208 14.5977 12.6699L9.4541 17.8135C9.20499 18.0626 8.79504 18.0626 8.5459 17.8135L3.40234 12.6699C3.15327 12.4208 3.15323 12.0108 3.40234 11.7617C3.65146 11.5127 4.06143 11.5127 4.31055 11.7617L8.35742 15.8086V4.50098C8.35742 4.14737 8.64639 3.85742 9 3.85742ZM16.0723 0C16.4258 9.1656e-05 16.7148 0.29 16.7148 0.643555C16.7147 0.996959 16.4257 1.28604 16.0723 1.28613H1.92773C1.57423 1.28613 1.28534 0.997015 1.28516 0.643555C1.28516 0.289944 1.57412 0 1.92773 0H16.0723Z" fill="#96AFB8"/>
</svg>
