<svg width="18" height="18" viewBox="0 0 18 18" fill="none" xmlns="http://www.w3.org/2000/svg">
<path d="M16.0723 16.7139C16.4258 16.714 16.7148 17.0039 16.7148 17.3574C16.7146 17.7108 16.4257 17.9999 16.0723 18H1.92773C1.57425 18 1.28537 17.7109 1.28516 17.3574C1.28516 17.0038 1.57412 16.7139 1.92773 16.7139H16.0723ZM8.5459 0.186523C8.79503 -0.0624025 9.20502 -0.0624828 9.4541 0.186523L14.5977 5.33008C14.8467 5.57916 14.8466 5.98915 14.5977 6.23828C14.3485 6.4874 13.9386 6.48736 13.6895 6.23828L9.64258 2.19238V13.499C9.64258 13.8526 9.35356 14.1425 9 14.1426C8.64639 14.1426 8.35742 13.8526 8.35742 13.499V2.19238L4.31055 6.23828C4.06141 6.48742 3.65148 6.48742 3.40234 6.23828C3.15328 5.98914 3.15323 5.57919 3.40234 5.33008L8.5459 0.186523Z" fill="#96AFB8"/>
</svg>
