<svg width="29" height="29" viewBox="0 0 29 29" fill="none" xmlns="http://www.w3.org/2000/svg">
<g clip-path="url(#clip0_2504_11033)">
<path d="M14.4065 0C13.4061 0 12.5979 0.804768 12.5979 1.80088V2.88141C8.47182 3.71431 5.36316 7.34984 5.36316 11.7057V13.1352C5.36316 15.6902 4.48708 18.172 2.88753 20.1642L2.04537 21.2166C1.71755 21.6218 1.65537 22.179 1.88146 22.6461C2.10754 23.1132 2.58232 23.4114 3.10231 23.4114H25.7108C26.2308 23.4114 26.7055 23.1132 26.9316 22.6461C27.1577 22.179 27.0955 21.6218 26.7677 21.2166L25.9255 20.1699C24.326 18.172 23.4499 15.6902 23.4499 13.1352V11.7057C23.4499 7.34984 20.3413 3.71431 16.2152 2.88141V1.80088C16.2152 0.804768 15.407 0 14.4065 0ZM14.4065 5.40264C17.9052 5.40264 20.7369 8.22214 20.7369 11.7057V13.1352C20.7369 15.8309 21.5225 18.459 22.9808 20.7101H5.83228C7.29053 18.459 8.07617 15.8309 8.07617 13.1352V11.7057C8.07617 8.22214 10.9079 5.40264 14.4065 5.40264ZM18.0239 25.2123H14.4065H10.7892C10.7892 26.169 11.1679 27.0864 11.8461 27.7617C12.5244 28.437 13.4457 28.8141 14.4065 28.8141C15.3674 28.8141 16.2887 28.437 16.9669 27.7617C17.6452 27.0864 18.0239 26.169 18.0239 25.2123Z" fill="white"/>
</g>
<defs>
<clipPath id="clip0_2504_11033">
<rect width="28.8141" height="28.8141" fill="white"/>
</clipPath>
</defs>
</svg>
