<svg width="18" height="20" viewBox="0 0 18 20" fill="none" xmlns="http://www.w3.org/2000/svg">
<path d="M9 0C11.5774 0.0002206 13.666 2.01459 13.666 4.5C13.666 4.80933 13.4038 5.06245 13.083 5.0625C12.7622 5.0625 12.5 4.80936 12.5 4.5C12.5 2.63685 10.9321 1.12522 9 1.125C7.06771 1.125 5.5 2.63672 5.5 4.5V6.75H13.666C14.953 6.75 16 7.75898 16 9V16.875C16 18.116 14.953 19.125 13.666 19.125H4.33301C3.04604 19.125 2.00001 18.116 2 16.875V9C2 7.75898 3.04603 6.75 4.33301 6.75V4.5C4.33301 2.01445 6.4224 0 9 0ZM4.33301 7.875C3.6877 7.875 3.16602 8.37773 3.16602 9V16.875C3.16603 17.4973 3.6877 18 4.33301 18H13.666C14.3113 18 14.833 17.4973 14.833 16.875V9C14.833 8.37773 14.3113 7.875 13.666 7.875H4.33301ZM10.75 12.375C11.0706 12.3752 11.333 12.6283 11.333 12.9375C11.333 13.2467 11.0706 13.4998 10.75 13.5H7.25C6.92917 13.5 6.66603 13.2469 6.66602 12.9375C6.66602 12.6281 6.92917 12.375 7.25 12.375H10.75Z" fill="#96AFB8"/>
</svg>
