<svg width="32" height="34" viewBox="0 0 32 34" fill="none" xmlns="http://www.w3.org/2000/svg">
<rect width="32" height="34" rx="16" fill="url(#paint0_linear_2828_5556)" fill-opacity="0.08"/>
<g clip-path="url(#clip0_2828_5556)">
<path d="M16.5623 8.5625C16.5623 8.25312 16.3091 8 15.9998 8C15.6904 8 15.4373 8.25312 15.4373 8.5625V11.143L14.147 9.85273C13.929 9.63477 13.5705 9.63477 13.3525 9.85273C13.1345 10.0707 13.1345 10.4293 13.3525 10.6473L15.4373 12.732V16.0262L12.5861 14.3809L11.8232 11.5332C11.7423 11.2344 11.433 11.0551 11.1341 11.1359C10.8353 11.2168 10.656 11.5227 10.7369 11.8215L11.208 13.5828L8.97553 12.2926C8.70483 12.1379 8.36381 12.2293 8.20561 12.5C8.04741 12.7707 8.14233 13.1117 8.41303 13.2699L10.6455 14.5602L8.88413 15.0312C8.58178 15.1121 8.406 15.418 8.48686 15.7203C8.56772 16.0227 8.8771 16.1984 9.17592 16.1176L12.0236 15.3547L14.8748 17L12.0236 18.6453L9.17592 17.8824C8.8771 17.8016 8.56772 17.9809 8.48686 18.2797C8.406 18.5785 8.58178 18.8879 8.88413 18.9688L10.6455 19.4398L8.41303 20.7301C8.14233 20.8883 8.05092 21.2293 8.20561 21.5C8.3603 21.7707 8.70483 21.8621 8.97553 21.7074L11.208 20.4172L10.7369 22.1785C10.656 22.4773 10.8353 22.7867 11.1341 22.8676C11.433 22.9484 11.7423 22.7691 11.8232 22.4703L12.5861 19.6227L15.4373 17.9738V21.268L13.3525 23.3527C13.1345 23.5707 13.1345 23.9293 13.3525 24.1473C13.5705 24.3652 13.929 24.3652 14.147 24.1473L15.4373 22.857V25.4375C15.4373 25.7469 15.6904 26 15.9998 26C16.3091 26 16.5623 25.7469 16.5623 25.4375V22.857L17.8525 24.1473C18.0705 24.3652 18.429 24.3652 18.647 24.1473C18.865 23.9293 18.865 23.5707 18.647 23.3527L16.5623 21.268V17.9738L19.4134 19.6191L20.1763 22.4668C20.2572 22.7656 20.5665 22.9449 20.8654 22.8641C21.1642 22.7832 21.3435 22.4738 21.2626 22.175L20.7915 20.4137L23.024 21.7039C23.2947 21.8586 23.6357 21.7672 23.7939 21.4965C23.9521 21.2258 23.8572 20.8848 23.5865 20.7266L21.354 19.4363L23.1154 18.9688C23.4142 18.8879 23.5935 18.5785 23.5126 18.2797C23.4318 17.9809 23.1224 17.8016 22.8236 17.8824L19.9759 18.6453L17.1248 17L19.9759 15.3547L22.8236 16.1176C23.1224 16.1984 23.4318 16.0191 23.5126 15.7203C23.5935 15.4215 23.4142 15.1121 23.1154 15.0312L21.354 14.5602L23.5865 13.2699C23.8572 13.1152 23.9486 12.7707 23.7939 12.5C23.6392 12.2293 23.2947 12.1379 23.024 12.2926L20.7915 13.5828L21.2626 11.8215C21.3435 11.5227 21.1642 11.2133 20.8654 11.1324C20.5665 11.0516 20.2572 11.2309 20.1763 11.5297L19.4134 14.3773L16.5623 16.0262V12.732L18.647 10.6473C18.865 10.4293 18.865 10.0707 18.647 9.85273C18.429 9.63477 18.0705 9.63477 17.8525 9.85273L16.5623 11.143V8.5625Z" fill="url(#paint1_linear_2828_5556)"/>
</g>
<defs>
<linearGradient id="paint0_linear_2828_5556" x1="0" y1="17" x2="32" y2="17" gradientUnits="userSpaceOnUse">
<stop stop-color="#007DC0"/>
<stop offset="1" stop-color="#00B8E7"/>
</linearGradient>
<linearGradient id="paint1_linear_2828_5556" x1="8.12891" y1="17" x2="23.8706" y2="17" gradientUnits="userSpaceOnUse">
<stop stop-color="#007DC0"/>
<stop offset="1" stop-color="#00B8E7"/>
</linearGradient>
<clipPath id="clip0_2828_5556">
<rect width="16" height="18" fill="white" transform="translate(8 8)"/>
</clipPath>
</defs>
</svg>
