<svg width="268" height="130" viewBox="0 0 268 130" fill="none" xmlns="http://www.w3.org/2000/svg">
<g clip-path="url(#clip0_2008_17452)">
<rect x="174" y="37.6602" width="6.45963" height="24.3478" rx="3.22981" transform="rotate(90 174 37.6602)" fill="url(#paint0_linear_2008_17452)" fill-opacity="0.7"/>
<rect x="118.348" y="37.6602" width="6.45963" height="24.3478" rx="3.22981" transform="rotate(90 118.348 37.6602)" fill="url(#paint1_linear_2008_17452)" fill-opacity="0.1"/>
<rect x="170.521" y="58.4897" width="6.45963" height="24.3478" rx="3.22981" transform="rotate(120.57 170.521 58.4897)" fill="url(#paint2_linear_2008_17452)" fill-opacity="0.8"/>
<rect width="6.45963" height="24.3478" rx="3.22981" transform="matrix(0.508584 0.861012 0.861012 -0.508584 97.0918 58.4897)" fill="url(#paint3_linear_2008_17452)"/>
<rect x="97.0918" y="23.752" width="6.45963" height="24.3478" rx="3.22981" transform="rotate(-59.4304 97.0918 23.752)" fill="url(#paint4_linear_2008_17452)" fill-opacity="0.2"/>
<rect width="6.45963" height="24.3478" rx="3.22981" transform="matrix(-0.508584 -0.861012 -0.861012 0.508584 170.521 23.752)" fill="url(#paint5_linear_2008_17452)" fill-opacity="0.6"/>
<rect x="156.609" y="74.1436" width="6.45963" height="24.3478" rx="3.22981" transform="rotate(149.971 156.609 74.1436)" fill="url(#paint6_linear_2008_17452)" fill-opacity="0.9"/>
<rect width="6.45963" height="24.3478" rx="3.22981" transform="matrix(0.86577 0.500441 0.500441 -0.86577 111.006 74.144)" fill="url(#paint7_linear_2008_17452)"/>
<rect x="111.006" y="8.09766" width="6.45963" height="24.3478" rx="3.22981" transform="rotate(-30.0292 111.006 8.09766)" fill="url(#paint8_linear_2008_17452)" fill-opacity="0.3"/>
<rect width="6.45963" height="24.3478" rx="3.22981" transform="matrix(-0.86577 -0.500441 -0.500441 0.86577 156.609 8.09766)" fill="url(#paint9_linear_2008_17452)" fill-opacity="0.5"/>
<rect x="130.77" y="57.0386" width="6.45963" height="24.3478" rx="3.22981" fill="url(#paint10_linear_2008_17452)"/>
<rect x="130.77" y="0.889648" width="6.45963" height="24.3478" rx="3.22981" fill="url(#paint11_linear_2008_17452)" fill-opacity="0.4"/>
</g>
<path d="M2.75825 117.387C2.49158 117.387 2.26225 117.297 2.07025 117.115C1.88892 116.923 1.79825 116.694 1.79825 116.427C1.79825 116.161 1.88892 115.937 2.07025 115.755C2.26225 115.563 2.49158 115.467 2.75825 115.467C3.02492 115.467 3.24892 115.563 3.43025 115.755C3.62225 115.937 3.71825 116.161 3.71825 116.427C3.71825 116.694 3.62225 116.923 3.43025 117.115C3.24892 117.297 3.02492 117.387 2.75825 117.387ZM7.44575 117.387C7.17908 117.387 6.94975 117.297 6.75775 117.115C6.57642 116.923 6.48575 116.694 6.48575 116.427C6.48575 116.161 6.57642 115.937 6.75775 115.755C6.94975 115.563 7.17908 115.467 7.44575 115.467C7.71242 115.467 7.93642 115.563 8.11775 115.755C8.30975 115.937 8.40575 116.161 8.40575 116.427C8.40575 116.694 8.30975 116.923 8.11775 117.115C7.93642 117.297 7.71242 117.387 7.44575 117.387ZM12.1332 117.387C11.8666 117.387 11.6373 117.297 11.4453 117.115C11.2639 116.923 11.1733 116.694 11.1733 116.427C11.1733 116.161 11.2639 115.937 11.4453 115.755C11.6373 115.563 11.8666 115.467 12.1332 115.467C12.3999 115.467 12.6239 115.563 12.8053 115.755C12.9973 115.937 13.0933 116.161 13.0933 116.427C13.0933 116.694 12.9973 116.923 12.8053 117.115C12.6239 117.297 12.3999 117.387 12.1332 117.387ZM18.2288 117.387C17.6101 117.387 17.0661 117.249 16.5968 116.971C16.1274 116.683 15.7754 116.299 15.5408 115.819C15.3061 115.339 15.2208 114.822 15.2848 114.267C15.3381 113.777 15.5141 112.913 15.8128 111.675L16.9808 111.979L16.9168 112.267C16.6608 113.355 16.5168 114.07 16.4848 114.411C16.4314 114.881 16.5541 115.254 16.8528 115.531C17.1514 115.809 17.6101 115.947 18.2288 115.947H25.1408C25.6848 115.947 26.0901 115.835 26.3568 115.611C26.6234 115.387 26.7568 115.03 26.7568 114.539V112.459H28.0048V114.731C28.0048 115.169 28.1114 115.483 28.3248 115.675C28.5381 115.857 28.8741 115.947 29.3328 115.947H29.9248L30.0048 116.635L29.9248 117.387H29.3328C28.9914 117.387 28.6341 117.302 28.2608 117.131C27.8874 116.961 27.5728 116.705 27.3168 116.363C27.0608 116.694 26.7354 116.95 26.3408 117.131C25.9461 117.302 25.5461 117.387 25.1408 117.387H18.2288ZM19.5888 111.323C19.5781 111.153 19.6208 110.993 19.7168 110.843C19.8128 110.683 19.9408 110.561 20.1008 110.475C20.2394 110.379 20.3994 110.331 20.5808 110.331C20.7514 110.321 20.9114 110.363 21.0608 110.459C21.2208 110.555 21.3434 110.678 21.4288 110.827C21.5141 110.998 21.5568 111.163 21.5568 111.323C21.5568 111.59 21.4608 111.825 21.2688 112.027C21.0768 112.219 20.8474 112.315 20.5808 112.315C20.3141 112.315 20.0794 112.219 19.8768 112.027C19.6848 111.825 19.5888 111.59 19.5888 111.323ZM22.3088 111.323C22.3088 111.057 22.4048 110.827 22.5968 110.635C22.7888 110.433 23.0181 110.331 23.2847 110.331C23.5514 110.331 23.7808 110.433 23.9728 110.635C24.1754 110.827 24.2768 111.057 24.2768 111.323C24.2768 111.59 24.1754 111.825 23.9728 112.027C23.7808 112.219 23.5514 112.315 23.2847 112.315C23.1141 112.326 22.9541 112.278 22.8048 112.171C22.6554 112.097 22.5328 111.979 22.4368 111.819C22.3514 111.659 22.3088 111.494 22.3088 111.323ZM29.7637 115.947H30.7398C31.2518 115.947 31.6144 115.835 31.8278 115.611C32.0518 115.387 32.1638 115.03 32.1638 114.539V112.459H33.4118V114.731C33.4118 115.158 33.5131 115.467 33.7158 115.659C33.9291 115.841 34.2544 115.937 34.6918 115.947C35.2038 115.937 35.5664 115.825 35.7798 115.611C36.0038 115.387 36.1158 115.03 36.1158 114.539V112.459H37.3638V114.731C37.3638 115.158 37.4651 115.467 37.6678 115.659C37.8811 115.841 38.2064 115.937 38.6438 115.947C39.1131 115.937 39.4544 115.825 39.6678 115.611C39.8811 115.387 39.9771 115.094 39.9558 114.731C39.9344 114.422 39.8704 113.985 39.7638 113.419C39.6678 112.854 39.5664 112.326 39.4598 111.835L40.6758 111.515C40.7931 112.006 40.9051 112.566 41.0118 113.195C41.1184 113.814 41.1824 114.315 41.2038 114.699C41.2251 115.137 41.1398 115.563 40.9478 115.979C40.7558 116.395 40.4624 116.737 40.0678 117.003C39.6731 117.259 39.1984 117.387 38.6438 117.387C38.3024 117.387 37.9504 117.307 37.5878 117.147C37.2358 116.977 36.9318 116.715 36.6758 116.363C36.4198 116.705 36.1264 116.961 35.7958 117.131C35.4651 117.302 35.0971 117.387 34.6918 117.387C34.3398 117.387 33.9824 117.297 33.6198 117.115C33.2571 116.923 32.9584 116.673 32.7238 116.363C32.4678 116.705 32.1691 116.961 31.8278 117.131C31.4864 117.302 31.1238 117.387 30.7398 117.387H29.7637V115.947ZM46.256 117.387C45.5307 117.387 44.9653 117.254 44.56 116.987C44.1547 116.71 43.8667 116.326 43.696 115.835C43.536 115.345 43.456 114.737 43.456 114.011L43.44 107.003H44.688L44.704 114.011C44.704 114.587 44.736 115.003 44.8 115.259C44.8747 115.515 45.0133 115.697 45.216 115.803C45.4293 115.899 45.776 115.947 46.256 115.947H46.496L46.576 116.683L46.496 117.387H46.256ZM46.3419 115.947H46.7899C47.0459 115.947 47.2485 115.894 47.3979 115.787C47.5579 115.67 47.6645 115.499 47.7179 115.275L48.2299 113.435C48.4645 112.603 48.8272 111.953 49.3179 111.483C49.8085 111.003 50.4005 110.763 51.0939 110.763C51.6485 110.763 52.1392 110.929 52.5659 111.259C52.9925 111.579 53.3232 112.017 53.5579 112.571C53.7925 113.115 53.9099 113.707 53.9099 114.347C53.9099 115.137 53.7979 115.787 53.5739 116.299C53.3499 116.801 53.0565 117.163 52.6939 117.387C52.3419 117.622 51.9685 117.739 51.5739 117.739C51.1579 117.739 50.7365 117.654 50.3099 117.483C49.8832 117.313 49.2112 116.993 48.2939 116.523L47.8779 116.315L48.4539 115.035C48.5819 115.099 48.7045 115.163 48.8219 115.227C49.6859 115.665 50.2832 115.953 50.6139 116.091C50.9552 116.23 51.2752 116.299 51.5739 116.299C51.9365 116.299 52.2085 116.166 52.3899 115.899C52.5712 115.622 52.6619 115.105 52.6619 114.347C52.6619 113.675 52.5285 113.153 52.2619 112.779C51.9952 112.395 51.6059 112.203 51.0939 112.203C50.7099 112.203 50.3739 112.337 50.0859 112.603C49.8085 112.87 49.5952 113.275 49.4459 113.819L48.9339 115.659C48.8379 116.001 48.6779 116.305 48.4539 116.571C48.2405 116.827 47.9845 117.03 47.6859 117.179C47.3979 117.318 47.0992 117.387 46.7899 117.387H46.3419V115.947ZM55.1579 116.667L55.0779 117.387H54.9179C54.3952 117.387 53.9685 117.259 53.6379 117.003C53.3179 116.747 53.0832 116.395 52.9339 115.947C52.7845 115.499 52.7099 114.966 52.7099 114.347H53.9099C53.9099 114.795 53.9472 115.137 54.0219 115.371C54.0965 115.595 54.2032 115.75 54.3419 115.835C54.4805 115.91 54.6725 115.947 54.9179 115.947H55.0779L55.1579 116.667ZM54.92 115.947H55.896C56.408 115.947 56.7707 115.835 56.984 115.611C57.208 115.387 57.32 115.03 57.32 114.539V112.459H58.568V114.731C58.568 115.158 58.6693 115.467 58.872 115.659C59.0853 115.841 59.4107 115.937 59.848 115.947C60.36 115.937 60.7227 115.825 60.936 115.611C61.16 115.387 61.272 115.03 61.272 114.539V112.459H62.52V114.731C62.52 115.158 62.6213 115.467 62.824 115.659C63.0373 115.841 63.3627 115.937 63.8 115.947C64.2693 115.937 64.6107 115.825 64.824 115.611C65.0373 115.387 65.1333 115.094 65.112 114.731C65.0907 114.422 65.0267 113.985 64.92 113.419C64.824 112.854 64.7227 112.326 64.616 111.835L65.832 111.515C65.9493 112.006 66.0613 112.566 66.168 113.195C66.2747 113.814 66.3387 114.315 66.36 114.699C66.3813 115.137 66.296 115.563 66.104 115.979C65.912 116.395 65.6187 116.737 65.224 117.003C64.8293 117.259 64.3547 117.387 63.8 117.387C63.4587 117.387 63.1067 117.307 62.744 117.147C62.392 116.977 62.088 116.715 61.832 116.363C61.576 116.705 61.2827 116.961 60.952 117.131C60.6213 117.302 60.2533 117.387 59.848 117.387C59.496 117.387 59.1387 117.297 58.776 117.115C58.4133 116.923 58.1147 116.673 57.88 116.363C57.624 116.705 57.3253 116.961 56.984 117.131C56.6427 117.302 56.28 117.387 55.896 117.387H54.92V115.947ZM60.952 107.547C60.952 107.281 61.048 107.051 61.24 106.859C61.4427 106.657 61.6773 106.555 61.944 106.555C62.2107 106.555 62.44 106.651 62.632 106.843C62.8347 107.035 62.936 107.27 62.936 107.547C62.936 107.814 62.84 108.043 62.648 108.235C62.456 108.427 62.2213 108.523 61.944 108.523C61.6773 108.523 61.4427 108.433 61.24 108.251C61.048 108.059 60.952 107.825 60.952 107.547ZM59.56 109.563C59.5493 109.393 59.592 109.233 59.688 109.083C59.784 108.923 59.912 108.801 60.072 108.715C60.2107 108.619 60.3707 108.571 60.552 108.571C60.8187 108.571 61.048 108.673 61.24 108.875C61.432 109.067 61.528 109.297 61.528 109.563C61.528 109.83 61.432 110.065 61.24 110.267C61.048 110.459 60.8187 110.555 60.552 110.555C60.2853 110.555 60.0507 110.459 59.848 110.267C59.656 110.065 59.56 109.83 59.56 109.563ZM62.36 109.563C62.36 109.297 62.456 109.067 62.648 108.875C62.84 108.673 63.0693 108.571 63.336 108.571C63.6027 108.571 63.832 108.673 64.024 108.875C64.2267 109.067 64.328 109.297 64.328 109.563C64.328 109.83 64.2267 110.065 64.024 110.267C63.832 110.459 63.6027 110.555 63.336 110.555C63.0693 110.555 62.84 110.459 62.648 110.267C62.456 110.065 62.36 109.83 62.36 109.563ZM78.1963 114.219C78.3456 114.849 78.6389 115.297 79.0763 115.563C79.5243 115.819 80.0469 115.947 80.6443 115.947H80.9643L81.0443 116.667L80.9643 117.387H80.6443C79.8549 117.387 79.1083 117.174 78.4043 116.747C77.7003 116.31 77.2256 115.585 76.9803 114.571C76.5536 112.769 76.1269 110.966 75.7003 109.163L76.9163 108.843L78.1963 114.219ZM77.7323 112.347C77.8069 113.019 77.8123 113.574 77.7483 114.011C77.6949 114.449 77.5563 114.859 77.3323 115.243C77.0549 115.723 76.6976 116.097 76.2603 116.363C75.8229 116.619 75.3483 116.747 74.8363 116.747C74.3349 116.747 73.8496 116.609 73.3803 116.331C72.9429 116.075 72.5963 115.718 72.3403 115.259C72.0843 114.79 71.9509 114.289 71.9403 113.755C71.9403 113.222 72.0736 112.726 72.3403 112.267C72.5216 111.947 72.7349 111.681 72.9803 111.467C73.2363 111.243 73.6309 110.998 74.1643 110.731C74.7083 110.454 75.5083 110.102 76.5643 109.675L77.0443 111.019C76.2336 111.254 75.5776 111.494 75.0763 111.739C74.5749 111.974 74.2016 112.193 73.9563 112.395C73.7216 112.598 73.5456 112.801 73.4283 113.003C73.1936 113.398 73.1296 113.793 73.2363 114.187C73.3536 114.571 73.5989 114.881 73.9723 115.115C74.3349 115.339 74.7456 115.403 75.2043 115.307C75.6736 115.201 76.0523 114.966 76.3403 114.603C76.5216 114.379 76.6229 114.123 76.6443 113.835C76.6763 113.537 76.6336 113.083 76.5163 112.475L77.7323 112.347ZM88.3146 107.803L83.2746 110.027L85.6106 112.987C86.048 113.542 86.2773 114.171 86.2986 114.875C86.32 115.569 86.112 116.161 85.6746 116.651C85.248 117.142 84.624 117.387 83.8026 117.387H80.8106V115.947H83.8026C84.2933 115.947 84.656 115.857 84.8906 115.675C85.136 115.494 85.2373 115.254 85.1946 114.955C85.1626 114.646 85.0026 114.321 84.7146 113.979L81.9146 110.587L82.2986 108.907L87.8026 106.491L88.3146 107.803ZM89.5946 116.667L89.5146 117.387H89.2106C88.624 117.387 88.1333 117.297 87.7386 117.115C87.3546 116.923 86.9813 116.635 86.6186 116.251C86.2666 115.857 85.7226 115.19 84.9866 114.251L84.6826 113.851L85.6106 112.987L86.0106 113.499C86.6186 114.278 87.0666 114.827 87.3546 115.147C87.6533 115.457 87.9306 115.67 88.1866 115.787C88.4426 115.894 88.784 115.947 89.2106 115.947H89.5146L89.5946 116.667ZM93.6135 112.459V114.731C93.6135 115.169 93.7202 115.483 93.9335 115.675C94.1468 115.857 94.4828 115.947 94.9415 115.947H95.5335L95.6135 116.683L95.5335 117.387H94.9415C94.5682 117.387 94.1788 117.291 93.7735 117.099C93.3788 116.897 93.0428 116.582 92.7655 116.155C92.4988 115.729 92.3655 115.19 92.3655 114.539V112.459H93.6135ZM93.3895 114.811C93.3895 115.387 93.2562 115.867 92.9895 116.251C92.7335 116.635 92.4028 116.923 91.9975 117.115C91.5922 117.297 91.1762 117.387 90.7495 117.387H89.3575V115.947H90.7495C91.2935 115.947 91.6988 115.835 91.9655 115.611C92.2322 115.387 92.3655 115.03 92.3655 114.539L93.3895 114.811ZM89.3895 120.651C89.3788 120.363 89.4748 120.123 89.6775 119.931C89.8908 119.75 90.1255 119.659 90.3815 119.659C90.6588 119.659 90.8935 119.755 91.0855 119.947C91.2775 120.139 91.3735 120.374 91.3735 120.651C91.3735 120.929 91.2775 121.163 91.0855 121.355C90.8935 121.547 90.6588 121.643 90.3815 121.643C90.1042 121.643 89.8695 121.547 89.6775 121.355C89.4855 121.163 89.3895 120.929 89.3895 120.651ZM95.3731 115.947H96.3491C96.8611 115.947 97.2238 115.835 97.4371 115.611C97.6611 115.387 97.7731 115.03 97.7731 114.539V112.459H99.0211V114.731C99.0211 115.158 99.1225 115.467 99.3251 115.659C99.5385 115.841 99.8638 115.937 100.301 115.947C100.813 115.937 101.176 115.825 101.389 115.611C101.613 115.387 101.725 115.03 101.725 114.539V112.459H102.973V114.731C102.973 115.158 103.074 115.467 103.277 115.659C103.49 115.841 103.816 115.937 104.253 115.947C104.722 115.937 105.064 115.825 105.277 115.611C105.49 115.387 105.586 115.094 105.565 114.731C105.544 114.422 105.48 113.985 105.373 113.419C105.277 112.854 105.176 112.326 105.069 111.835L106.285 111.515C106.402 112.006 106.514 112.566 106.621 113.195C106.728 113.814 106.792 114.315 106.813 114.699C106.834 115.137 106.749 115.563 106.557 115.979C106.365 116.395 106.072 116.737 105.677 117.003C105.282 117.259 104.808 117.387 104.253 117.387C103.912 117.387 103.56 117.307 103.197 117.147C102.845 116.977 102.541 116.715 102.285 116.363C102.029 116.705 101.736 116.961 101.405 117.131C101.074 117.302 100.706 117.387 100.301 117.387C99.9491 117.387 99.5918 117.297 99.2291 117.115C98.8665 116.923 98.5678 116.673 98.3331 116.363C98.0771 116.705 97.7785 116.961 97.4371 117.131C97.0958 117.302 96.7331 117.387 96.3491 117.387H95.3731V115.947ZM101.405 107.547C101.405 107.281 101.501 107.051 101.693 106.859C101.896 106.657 102.13 106.555 102.397 106.555C102.664 106.555 102.893 106.651 103.085 106.843C103.288 107.035 103.389 107.27 103.389 107.547C103.389 107.814 103.293 108.043 103.101 108.235C102.909 108.427 102.674 108.523 102.397 108.523C102.13 108.523 101.896 108.433 101.693 108.251C101.501 108.059 101.405 107.825 101.405 107.547ZM100.013 109.563C100.002 109.393 100.045 109.233 100.141 109.083C100.237 108.923 100.365 108.801 100.525 108.715C100.664 108.619 100.824 108.571 101.005 108.571C101.272 108.571 101.501 108.673 101.693 108.875C101.885 109.067 101.981 109.297 101.981 109.563C101.981 109.83 101.885 110.065 101.693 110.267C101.501 110.459 101.272 110.555 101.005 110.555C100.738 110.555 100.504 110.459 100.301 110.267C100.109 110.065 100.013 109.83 100.013 109.563ZM102.813 109.563C102.813 109.297 102.909 109.067 103.101 108.875C103.293 108.673 103.522 108.571 103.789 108.571C104.056 108.571 104.285 108.673 104.477 108.875C104.68 109.067 104.781 109.297 104.781 109.563C104.781 109.83 104.68 110.065 104.477 110.267C104.285 110.459 104.056 110.555 103.789 110.555C103.522 110.555 103.293 110.459 103.101 110.267C102.909 110.065 102.813 109.83 102.813 109.563ZM118.649 114.219C118.799 114.849 119.092 115.297 119.529 115.563C119.977 115.819 120.5 115.947 121.097 115.947H121.417L121.497 116.667L121.417 117.387H121.097C120.308 117.387 119.561 117.174 118.857 116.747C118.153 116.31 117.679 115.585 117.433 114.571C117.007 112.769 116.58 110.966 116.153 109.163L117.369 108.843L118.649 114.219ZM118.185 112.347C118.26 113.019 118.265 113.574 118.201 114.011C118.148 114.449 118.009 114.859 117.785 115.243C117.508 115.723 117.151 116.097 116.713 116.363C116.276 116.619 115.801 116.747 115.289 116.747C114.788 116.747 114.303 116.609 113.833 116.331C113.396 116.075 113.049 115.718 112.793 115.259C112.537 114.79 112.404 114.289 112.393 113.755C112.393 113.222 112.527 112.726 112.793 112.267C112.975 111.947 113.188 111.681 113.433 111.467C113.689 111.243 114.084 110.998 114.617 110.731C115.161 110.454 115.961 110.102 117.017 109.675L117.497 111.019C116.687 111.254 116.031 111.494 115.529 111.739C115.028 111.974 114.655 112.193 114.409 112.395C114.175 112.598 113.999 112.801 113.881 113.003C113.647 113.398 113.583 113.793 113.689 114.187C113.807 114.571 114.052 114.881 114.425 115.115C114.788 115.339 115.199 115.403 115.657 115.307C116.127 115.201 116.505 114.966 116.793 114.603C116.975 114.379 117.076 114.123 117.097 113.835C117.129 113.537 117.087 113.083 116.969 112.475L118.185 112.347ZM121.264 115.947H123.024C123.514 115.947 123.866 115.841 124.08 115.627C124.304 115.403 124.405 115.105 124.384 114.731C124.362 114.422 124.298 113.985 124.192 113.419C124.096 112.854 123.994 112.326 123.888 111.835L125.104 111.515C125.221 112.006 125.333 112.566 125.44 113.195C125.546 113.814 125.61 114.315 125.632 114.699C125.653 115.147 125.562 115.579 125.36 115.995C125.168 116.411 124.869 116.747 124.464 117.003C124.069 117.259 123.589 117.387 123.024 117.387H121.264V115.947ZM121.472 120.635C121.461 120.347 121.557 120.107 121.76 119.915C121.973 119.734 122.208 119.643 122.464 119.643C122.741 119.643 122.976 119.739 123.168 119.931C123.36 120.123 123.456 120.358 123.456 120.635C123.456 120.913 123.36 121.147 123.168 121.339C122.976 121.531 122.741 121.627 122.464 121.627C122.186 121.627 121.952 121.531 121.76 121.339C121.568 121.147 121.472 120.913 121.472 120.635ZM135.35 121.419C134.465 121.419 133.713 121.201 133.094 120.763C132.475 120.326 132.006 119.75 131.686 119.035C131.377 118.321 131.222 117.558 131.222 116.747C131.222 116.225 131.302 115.659 131.462 115.051C131.633 114.443 131.83 113.899 132.054 113.419L133.158 113.963C132.966 114.369 132.801 114.827 132.662 115.339C132.534 115.851 132.47 116.321 132.47 116.747C132.47 117.377 132.571 117.931 132.774 118.411C132.977 118.902 133.291 119.286 133.718 119.563C134.145 119.841 134.689 119.979 135.35 119.979H136.134C136.859 119.979 137.425 119.894 137.83 119.723C138.235 119.563 138.523 119.302 138.694 118.939C138.865 118.587 138.95 118.102 138.95 117.483L138.934 107.003H140.182L140.198 117.483C140.198 118.721 139.873 119.686 139.222 120.379C138.571 121.073 137.542 121.419 136.134 121.419H135.35ZM145.256 117.387C144.531 117.387 143.965 117.254 143.56 116.987C143.155 116.71 142.867 116.326 142.696 115.835C142.536 115.345 142.456 114.737 142.456 114.011L142.44 107.003H143.688L143.704 114.011C143.704 114.587 143.736 115.003 143.8 115.259C143.875 115.515 144.013 115.697 144.216 115.803C144.429 115.899 144.776 115.947 145.256 115.947H145.496L145.576 116.683L145.496 117.387H145.256ZM151.774 113.115C152.297 112.294 152.814 111.707 153.326 111.355C153.849 111.003 154.467 110.827 155.182 110.827C155.779 110.827 156.291 110.982 156.718 111.291C157.155 111.601 157.486 112.017 157.71 112.539C157.945 113.051 158.062 113.611 158.062 114.219C158.062 114.859 157.913 115.419 157.614 115.899C157.315 116.379 156.915 116.747 156.414 117.003C155.913 117.259 155.369 117.387 154.782 117.387H150.702C150.403 117.387 150.057 117.318 149.662 117.179C149.267 117.041 148.91 116.779 148.59 116.395C148.281 116.011 148.126 115.483 148.126 114.811V112.459H149.374V114.811C149.374 115.238 149.507 115.537 149.774 115.707C150.051 115.867 150.361 115.947 150.702 115.947H154.782C155.422 115.947 155.918 115.803 156.27 115.515C156.633 115.217 156.814 114.785 156.814 114.219C156.814 113.601 156.681 113.121 156.414 112.779C156.147 112.438 155.737 112.267 155.182 112.267C154.851 112.267 154.569 112.321 154.334 112.427C154.11 112.523 153.886 112.683 153.662 112.907C153.438 113.131 153.15 113.478 152.798 113.947C152.435 114.427 151.758 115.377 150.766 116.795L149.79 116.155L151.774 113.115ZM149.374 114.811C149.374 115.387 149.225 115.873 148.926 116.267C148.638 116.651 148.27 116.934 147.822 117.115C147.385 117.297 146.947 117.387 146.51 117.387H145.342V115.947H146.51C146.99 115.947 147.379 115.857 147.678 115.675C147.977 115.483 148.126 115.195 148.126 114.811H149.374ZM159.07 117.387C158.675 117.387 158.291 117.307 157.918 117.147C157.555 116.987 157.257 116.779 157.022 116.523C156.798 116.257 156.686 115.985 156.686 115.707L157.566 114.987C157.63 115.307 157.79 115.547 158.046 115.707C158.302 115.867 158.643 115.947 159.07 115.947H159.582L159.694 116.667L159.582 117.387H159.07ZM159.451 115.947H161.611C162.23 115.947 162.662 115.841 162.907 115.627C163.163 115.414 163.281 115.115 163.259 114.731C163.238 114.422 163.174 113.985 163.067 113.419C162.971 112.854 162.87 112.326 162.763 111.835L163.979 111.515C164.097 112.006 164.209 112.566 164.315 113.195C164.422 113.814 164.486 114.315 164.507 114.699C164.529 115.158 164.433 115.595 164.219 116.011C164.017 116.417 163.691 116.747 163.243 117.003C162.806 117.259 162.262 117.387 161.611 117.387H159.451V115.947ZM160.059 108.827C160.049 108.657 160.091 108.497 160.187 108.347C160.283 108.187 160.411 108.065 160.571 107.979C160.71 107.883 160.87 107.835 161.051 107.835C161.222 107.825 161.382 107.867 161.531 107.963C161.691 108.059 161.814 108.182 161.899 108.331C161.985 108.502 162.027 108.667 162.027 108.827C162.027 109.094 161.931 109.329 161.739 109.531C161.547 109.723 161.318 109.819 161.051 109.819C160.785 109.819 160.55 109.723 160.347 109.531C160.155 109.329 160.059 109.094 160.059 108.827ZM162.779 108.827C162.779 108.561 162.875 108.331 163.067 108.139C163.259 107.937 163.489 107.835 163.755 107.835C164.022 107.835 164.251 107.937 164.443 108.139C164.646 108.331 164.747 108.561 164.747 108.827C164.747 109.094 164.646 109.329 164.443 109.531C164.251 109.723 164.022 109.819 163.755 109.819C163.585 109.83 163.425 109.782 163.275 109.675C163.126 109.601 163.003 109.483 162.907 109.323C162.822 109.163 162.779 108.998 162.779 108.827ZM166.753 107.003H168.001L168.017 117.387H166.769L166.753 107.003ZM178.069 121.419C177.183 121.419 176.431 121.201 175.813 120.763C175.194 120.326 174.725 119.75 174.405 119.035C174.095 118.321 173.941 117.558 173.941 116.747C173.941 116.225 174.021 115.659 174.181 115.051C174.351 114.443 174.549 113.899 174.773 113.419L175.877 113.963C175.685 114.369 175.519 114.827 175.381 115.339C175.253 115.851 175.189 116.321 175.189 116.747C175.189 117.377 175.29 117.931 175.493 118.411C175.695 118.902 176.01 119.286 176.437 119.563C176.863 119.841 177.407 119.979 178.069 119.979H178.853C179.578 119.979 180.143 119.894 180.549 119.723C180.954 119.563 181.242 119.302 181.413 118.939C181.583 118.587 181.669 118.102 181.669 117.483L181.653 107.003H182.901L182.917 117.483C182.917 118.721 182.591 119.686 181.941 120.379C181.29 121.073 180.261 121.419 178.853 121.419H178.069ZM187.975 117.387C187.249 117.387 186.684 117.254 186.279 116.987C185.873 116.71 185.585 116.326 185.415 115.835C185.255 115.345 185.175 114.737 185.175 114.011L185.159 107.003H186.407L186.423 114.011C186.423 114.587 186.455 115.003 186.519 115.259C186.593 115.515 186.732 115.697 186.935 115.803C187.148 115.899 187.495 115.947 187.975 115.947H188.215L188.295 116.683L188.215 117.387H187.975ZM187.997 115.947H189.981C190.695 115.947 191.362 115.862 191.981 115.691C192.599 115.51 193.17 115.286 193.693 115.019C194.215 114.742 194.871 114.363 195.661 113.883L196.189 113.563L196.157 113.915L195.165 113.499C194.194 113.094 193.415 112.79 192.829 112.587C192.253 112.374 191.847 112.267 191.613 112.267C191.293 112.267 191.042 112.342 190.861 112.491C190.69 112.63 190.525 112.918 190.365 113.355L189.149 112.971C189.405 112.214 189.746 111.67 190.173 111.339C190.599 110.998 191.079 110.827 191.613 110.827C191.975 110.827 192.53 110.966 193.277 111.243C194.034 111.521 195.085 111.942 196.429 112.507C196.695 112.614 196.957 112.721 197.213 112.827L197.533 114.347L196.685 114.875C195.757 115.462 194.989 115.921 194.381 116.251C193.773 116.582 193.101 116.854 192.365 117.067C191.639 117.281 190.845 117.387 189.981 117.387H187.997V115.947ZM207.56 112.459V116.971C207.56 117.931 207.395 118.742 207.064 119.403C206.744 120.065 206.269 120.566 205.64 120.907C205.011 121.249 204.243 121.419 203.336 121.419H202.328V119.979H203.336C204.051 119.979 204.621 119.878 205.048 119.675C205.485 119.473 205.805 119.153 206.008 118.715C206.211 118.278 206.312 117.697 206.312 116.971V112.459H207.56ZM213.337 110.667C213.721 111.265 214.004 111.713 214.185 112.011C214.377 112.299 214.66 112.731 215.033 113.307C215.332 113.766 215.497 114.278 215.529 114.843C215.572 115.409 215.465 115.873 215.209 116.235C214.9 116.673 214.527 116.977 214.089 117.147C213.652 117.307 213.172 117.387 212.649 117.387H211.785C211.209 117.387 210.687 117.307 210.217 117.147C209.759 116.977 209.38 116.785 209.081 116.571L209.737 115.355L209.817 115.403C210.063 115.553 210.335 115.681 210.633 115.787C210.932 115.894 211.316 115.947 211.785 115.947H212.649C213.033 115.947 213.348 115.91 213.593 115.835C213.849 115.75 214.047 115.606 214.185 115.403C214.303 115.243 214.345 115.062 214.313 114.859C214.281 114.646 214.169 114.385 213.977 114.075C212.975 112.497 212.164 111.249 211.545 110.331L212.601 109.531L213.337 110.667ZM224.84 110.299C225.49 111.003 225.986 111.563 226.328 111.979C226.669 112.395 226.941 112.822 227.144 113.259C227.357 113.686 227.464 114.123 227.464 114.571C227.464 115.115 227.32 115.611 227.032 116.059C226.744 116.507 226.354 116.859 225.864 117.115C225.384 117.371 224.866 117.499 224.312 117.499C223.746 117.499 223.218 117.371 222.728 117.115C222.248 116.859 221.864 116.507 221.576 116.059C221.288 115.611 221.144 115.115 221.144 114.571C221.144 114.091 221.245 113.638 221.448 113.211C221.65 112.774 221.896 112.374 222.184 112.011C222.472 111.649 222.866 111.206 223.368 110.683L223.768 110.251L224.696 111.243L224.264 111.691C223.784 112.193 223.426 112.587 223.192 112.875C222.957 113.153 222.765 113.435 222.616 113.723C222.466 114.001 222.392 114.283 222.392 114.571C222.392 115.009 222.562 115.366 222.904 115.643C223.256 115.921 223.725 116.059 224.312 116.059C224.888 116.059 225.346 115.921 225.688 115.643C226.04 115.366 226.216 115.009 226.216 114.571C226.216 114.315 226.136 114.049 225.976 113.771C225.826 113.483 225.608 113.174 225.32 112.843C225.042 112.513 224.605 112.022 224.008 111.371C223.848 111.19 223.682 111.009 223.512 110.827C223.341 110.635 223.16 110.433 222.968 110.219L223.896 109.259L224.84 110.299ZM232.522 117.387C231.796 117.387 231.231 117.254 230.826 116.987C230.42 116.71 230.132 116.326 229.962 115.835C229.802 115.345 229.722 114.737 229.722 114.011L229.706 107.003H230.954L230.97 114.011C230.97 114.587 231.002 115.003 231.066 115.259C231.14 115.515 231.279 115.697 231.482 115.803C231.695 115.899 232.042 115.947 232.522 115.947H232.762L232.842 116.683L232.762 117.387H232.522ZM240.128 108.283L235.328 110.411L237.408 112.987C237.856 113.531 238.09 114.155 238.112 114.859C238.133 115.553 237.925 116.15 237.488 116.651C237.05 117.142 236.421 117.387 235.6 117.387H232.607V115.947H235.6C236.09 115.947 236.453 115.857 236.688 115.675C236.933 115.483 237.034 115.238 236.992 114.939C236.96 114.641 236.8 114.321 236.512 113.979L233.968 110.971L234.352 109.291L239.616 106.971L240.128 108.283ZM241.312 117.387H241.008C240.421 117.387 239.93 117.297 239.536 117.115C239.152 116.923 238.778 116.635 238.416 116.251C238.064 115.857 237.52 115.19 236.784 114.251L236.48 113.851L237.408 112.987L237.808 113.499C238.416 114.278 238.864 114.827 239.152 115.147C239.45 115.457 239.728 115.67 239.984 115.787C240.24 115.894 240.581 115.947 241.008 115.947H241.312V117.387ZM234.576 107.467L238.784 105.627L239.024 106.235L234.496 108.219L234.576 107.467ZM245.714 112.459V114.731C245.714 115.169 245.821 115.483 246.034 115.675C246.248 115.857 246.584 115.947 247.042 115.947H247.858L247.938 116.699L247.858 117.387H247.042C246.669 117.387 246.28 117.291 245.874 117.099C245.48 116.897 245.144 116.582 244.866 116.155C244.6 115.729 244.466 115.19 244.466 114.539V112.459H245.714ZM245.49 114.811C245.49 115.387 245.357 115.867 245.09 116.251C244.834 116.635 244.504 116.923 244.098 117.115C243.693 117.297 243.277 117.387 242.85 117.387H241.154V115.947H242.85C243.394 115.947 243.8 115.835 244.066 115.611C244.333 115.387 244.466 115.03 244.466 114.539L245.49 114.811ZM241.842 109.851C241.832 109.681 241.874 109.521 241.97 109.371C242.066 109.211 242.194 109.089 242.354 109.003C242.493 108.907 242.653 108.859 242.834 108.859C243.005 108.849 243.165 108.891 243.314 108.987C243.474 109.083 243.597 109.206 243.682 109.355C243.768 109.526 243.81 109.691 243.81 109.851C243.81 110.118 243.714 110.353 243.522 110.555C243.33 110.747 243.101 110.843 242.834 110.843C242.568 110.843 242.333 110.747 242.13 110.555C241.938 110.353 241.842 110.118 241.842 109.851ZM244.562 109.851C244.562 109.585 244.658 109.355 244.85 109.163C245.042 108.961 245.272 108.859 245.538 108.859C245.805 108.859 246.034 108.961 246.226 109.163C246.429 109.355 246.53 109.585 246.53 109.851C246.53 110.118 246.429 110.353 246.226 110.555C246.034 110.747 245.805 110.843 245.538 110.843C245.368 110.854 245.208 110.806 245.058 110.699C244.909 110.625 244.786 110.507 244.69 110.347C244.605 110.187 244.562 110.022 244.562 109.851ZM247.701 115.947H248.677C249.189 115.947 249.552 115.835 249.765 115.611C249.989 115.387 250.101 115.03 250.101 114.539V112.459H251.349V114.731C251.349 115.158 251.451 115.467 251.653 115.659C251.867 115.841 252.192 115.937 252.629 115.947C253.141 115.937 253.504 115.825 253.717 115.611C253.941 115.387 254.053 115.03 254.053 114.539V112.459H255.301V114.731C255.301 115.158 255.403 115.467 255.605 115.659C255.819 115.841 256.144 115.937 256.581 115.947C257.051 115.937 257.392 115.825 257.605 115.611C257.819 115.387 257.915 115.094 257.893 114.731C257.872 114.422 257.808 113.985 257.701 113.419C257.605 112.854 257.504 112.326 257.397 111.835L258.613 111.515C258.731 112.006 258.843 112.566 258.949 113.195C259.056 113.814 259.12 114.315 259.141 114.699C259.163 115.137 259.077 115.563 258.885 115.979C258.693 116.395 258.4 116.737 258.005 117.003C257.611 117.259 257.136 117.387 256.581 117.387C256.24 117.387 255.888 117.307 255.525 117.147C255.173 116.977 254.869 116.715 254.613 116.363C254.357 116.705 254.064 116.961 253.733 117.131C253.403 117.302 253.035 117.387 252.629 117.387C252.277 117.387 251.92 117.297 251.557 117.115C251.195 116.923 250.896 116.673 250.661 116.363C250.405 116.705 250.107 116.961 249.765 117.131C249.424 117.302 249.061 117.387 248.677 117.387H247.701V115.947ZM264.994 110.667C265.378 111.265 265.66 111.713 265.842 112.011C266.034 112.299 266.316 112.731 266.69 113.307C266.988 113.766 267.154 114.278 267.186 114.843C267.228 115.409 267.122 115.873 266.866 116.235C266.556 116.673 266.183 116.977 265.746 117.147C265.308 117.307 264.828 117.387 264.306 117.387H263.442C262.866 117.387 262.343 117.307 261.874 117.147C261.415 116.977 261.036 116.785 260.738 116.571L261.394 115.355L261.474 115.403C261.719 115.553 261.991 115.681 262.289 115.787C262.588 115.894 262.972 115.947 263.442 115.947H264.306C264.69 115.947 265.004 115.91 265.25 115.835C265.506 115.75 265.703 115.606 265.842 115.403C265.959 115.243 266.002 115.062 265.97 114.859C265.938 114.646 265.826 114.385 265.634 114.075C264.631 112.497 263.82 111.249 263.202 110.331L264.258 109.531L264.994 110.667Z" fill="#263238"/>
<defs>
<linearGradient id="paint0_linear_2008_17452" x1="174" y1="49.8341" x2="180.46" y2="49.8341" gradientUnits="userSpaceOnUse">
<stop stop-color="#007DC0"/>
<stop offset="1" stop-color="#00B8E7"/>
</linearGradient>
<linearGradient id="paint1_linear_2008_17452" x1="118.348" y1="49.8341" x2="124.807" y2="49.8341" gradientUnits="userSpaceOnUse">
<stop stop-color="#007DC0"/>
<stop offset="1" stop-color="#00B8E7"/>
</linearGradient>
<linearGradient id="paint2_linear_2008_17452" x1="170.521" y1="70.6637" x2="176.981" y2="70.6637" gradientUnits="userSpaceOnUse">
<stop stop-color="#007DC0"/>
<stop offset="1" stop-color="#00B8E7"/>
</linearGradient>
<linearGradient id="paint3_linear_2008_17452" x1="0" y1="12.1739" x2="6.45963" y2="12.1739" gradientUnits="userSpaceOnUse">
<stop stop-color="#007DC0"/>
<stop offset="1" stop-color="#00B8E7"/>
</linearGradient>
<linearGradient id="paint4_linear_2008_17452" x1="97.0918" y1="35.9259" x2="103.551" y2="35.9259" gradientUnits="userSpaceOnUse">
<stop stop-color="#007DC0"/>
<stop offset="1" stop-color="#00B8E7"/>
</linearGradient>
<linearGradient id="paint5_linear_2008_17452" x1="0" y1="12.1739" x2="6.45963" y2="12.1739" gradientUnits="userSpaceOnUse">
<stop stop-color="#007DC0"/>
<stop offset="1" stop-color="#00B8E7"/>
</linearGradient>
<linearGradient id="paint6_linear_2008_17452" x1="156.609" y1="86.3175" x2="163.069" y2="86.3175" gradientUnits="userSpaceOnUse">
<stop stop-color="#007DC0"/>
<stop offset="1" stop-color="#00B8E7"/>
</linearGradient>
<linearGradient id="paint7_linear_2008_17452" x1="0" y1="12.1739" x2="6.45963" y2="12.1739" gradientUnits="userSpaceOnUse">
<stop stop-color="#007DC0"/>
<stop offset="1" stop-color="#00B8E7"/>
</linearGradient>
<linearGradient id="paint8_linear_2008_17452" x1="111.006" y1="20.2716" x2="117.465" y2="20.2716" gradientUnits="userSpaceOnUse">
<stop stop-color="#007DC0"/>
<stop offset="1" stop-color="#00B8E7"/>
</linearGradient>
<linearGradient id="paint9_linear_2008_17452" x1="0" y1="12.1739" x2="6.45963" y2="12.1739" gradientUnits="userSpaceOnUse">
<stop stop-color="#007DC0"/>
<stop offset="1" stop-color="#00B8E7"/>
</linearGradient>
<linearGradient id="paint10_linear_2008_17452" x1="130.77" y1="69.2125" x2="137.229" y2="69.2125" gradientUnits="userSpaceOnUse">
<stop stop-color="#007DC0"/>
<stop offset="1" stop-color="#00B8E7"/>
</linearGradient>
<linearGradient id="paint11_linear_2008_17452" x1="130.77" y1="13.0636" x2="137.229" y2="13.0636" gradientUnits="userSpaceOnUse">
<stop stop-color="#007DC0"/>
<stop offset="1" stop-color="#00B8E7"/>
</linearGradient>
<clipPath id="clip0_2008_17452">
<rect width="80.4969" height="80" fill="white" transform="matrix(0 1 -1 0 174 0.890137)"/>
</clipPath>
</defs>
</svg>
