<svg width="242" height="129" viewBox="0 0 242 129" fill="none" xmlns="http://www.w3.org/2000/svg">
<g clip-path="url(#clip0_2008_17431)">
<rect x="117.521" y="0.138672" width="6.45963" height="24.3478" rx="3.22981" fill="url(#paint0_linear_2008_17431)" fill-opacity="0.7"/>
<rect x="117.521" y="55.791" width="6.45963" height="24.3478" rx="3.22981" fill="url(#paint1_linear_2008_17431)" fill-opacity="0.1"/>
<rect x="138.352" y="3.6167" width="6.45963" height="24.3478" rx="3.22981" transform="rotate(30.5696 138.352 3.6167)" fill="url(#paint2_linear_2008_17431)" fill-opacity="0.8"/>
<rect width="6.45963" height="24.3478" rx="3.22981" transform="matrix(0.861012 -0.508584 -0.508584 -0.861012 138.352 77.0464)" fill="url(#paint3_linear_2008_17431)"/>
<rect x="103.613" y="77.0464" width="6.45963" height="24.3478" rx="3.22981" transform="rotate(-149.43 103.613 77.0464)" fill="url(#paint4_linear_2008_17431)" fill-opacity="0.2"/>
<rect width="6.45963" height="24.3478" rx="3.22981" transform="matrix(-0.861012 0.508584 0.508584 0.861012 103.613 3.6167)" fill="url(#paint5_linear_2008_17431)" fill-opacity="0.6"/>
<rect x="154.005" y="17.5298" width="6.45963" height="24.3478" rx="3.22981" transform="rotate(59.9708 154.005 17.5298)" fill="url(#paint6_linear_2008_17431)" fill-opacity="0.9"/>
<rect width="6.45963" height="24.3478" rx="3.22981" transform="matrix(0.500441 -0.86577 -0.86577 -0.500441 154.006 63.1333)" fill="url(#paint7_linear_2008_17431)"/>
<rect x="87.959" y="63.1333" width="6.45963" height="24.3478" rx="3.22981" transform="rotate(-120.029 87.959 63.1333)" fill="url(#paint8_linear_2008_17431)" fill-opacity="0.3"/>
<rect width="6.45963" height="24.3478" rx="3.22981" transform="matrix(-0.500441 0.86577 0.86577 0.500441 87.959 17.5298)" fill="url(#paint9_linear_2008_17431)" fill-opacity="0.5"/>
<rect x="136.9" y="43.3687" width="6.45963" height="24.3478" rx="3.22981" transform="rotate(-90 136.9 43.3687)" fill="url(#paint10_linear_2008_17431)"/>
<rect x="80.752" y="43.3687" width="6.45963" height="24.3478" rx="3.22981" transform="rotate(-90 80.752 43.3687)" fill="url(#paint11_linear_2008_17431)" fill-opacity="0.4"/>
</g>
<path d="M2.852 116.139C2.58533 116.139 2.356 116.048 2.164 115.867C1.98267 115.675 1.892 115.445 1.892 115.179C1.892 114.912 1.98267 114.688 2.164 114.507C2.356 114.315 2.58533 114.219 2.852 114.219C3.11867 114.219 3.34267 114.315 3.524 114.507C3.716 114.688 3.812 114.912 3.812 115.179C3.812 115.445 3.716 115.675 3.524 115.867C3.34267 116.048 3.11867 116.139 2.852 116.139ZM7.5395 116.139C7.27283 116.139 7.0435 116.048 6.8515 115.867C6.67017 115.675 6.5795 115.445 6.5795 115.179C6.5795 114.912 6.67017 114.688 6.8515 114.507C7.0435 114.315 7.27283 114.219 7.5395 114.219C7.80617 114.219 8.03017 114.315 8.2115 114.507C8.4035 114.688 8.4995 114.912 8.4995 115.179C8.4995 115.445 8.4035 115.675 8.2115 115.867C8.03017 116.048 7.80617 116.139 7.5395 116.139ZM12.227 116.139C11.9603 116.139 11.731 116.048 11.539 115.867C11.3577 115.675 11.267 115.445 11.267 115.179C11.267 114.912 11.3577 114.688 11.539 114.507C11.731 114.315 11.9603 114.219 12.227 114.219C12.4937 114.219 12.7177 114.315 12.899 114.507C13.091 114.688 13.187 114.912 13.187 115.179C13.187 115.445 13.091 115.675 12.899 115.867C12.7177 116.048 12.4937 116.139 12.227 116.139ZM19.0585 109.051C19.7092 109.755 20.2052 110.315 20.5465 110.731C20.8878 111.147 21.1598 111.573 21.3625 112.011C21.5758 112.437 21.6825 112.875 21.6825 113.323C21.6825 113.867 21.5385 114.363 21.2505 114.811C20.9625 115.259 20.5732 115.611 20.0825 115.867C19.6025 116.123 19.0852 116.251 18.5305 116.251C17.9652 116.251 17.4372 116.123 16.9465 115.867C16.4665 115.611 16.0825 115.259 15.7945 114.811C15.5065 114.363 15.3625 113.867 15.3625 113.323C15.3625 112.843 15.4638 112.389 15.6665 111.963C15.8692 111.525 16.1145 111.125 16.4025 110.763C16.6905 110.4 17.0852 109.957 17.5865 109.435L17.9865 109.003L18.9145 109.995L18.4825 110.443C18.0025 110.944 17.6452 111.339 17.4105 111.627C17.1758 111.904 16.9838 112.187 16.8345 112.475C16.6852 112.752 16.6105 113.035 16.6105 113.323C16.6105 113.76 16.7812 114.117 17.1225 114.395C17.4745 114.672 17.9438 114.811 18.5305 114.811C19.1065 114.811 19.5652 114.672 19.9065 114.395C20.2585 114.117 20.4345 113.76 20.4345 113.323C20.4345 113.067 20.3545 112.8 20.1945 112.523C20.0452 112.235 19.8265 111.925 19.5385 111.595C19.2612 111.264 18.8238 110.773 18.2265 110.123C18.0665 109.941 17.9012 109.76 17.7305 109.579C17.5598 109.387 17.3785 109.184 17.1865 108.971L18.1145 108.011L19.0585 109.051ZM26.7404 116.139C26.015 116.139 25.4497 116.005 25.0444 115.739C24.639 115.461 24.351 115.077 24.1804 114.587C24.0204 114.096 23.9404 113.488 23.9404 112.763L23.9244 105.755H25.1724L25.1884 112.763C25.1884 113.339 25.2204 113.755 25.2844 114.011C25.359 114.267 25.4977 114.448 25.7004 114.555C25.9137 114.651 26.2604 114.699 26.7404 114.699H26.9804L27.0604 115.435L26.9804 116.139H26.7404ZM34.3463 107.035L29.5463 109.163L31.6263 111.739C32.0743 112.283 32.3089 112.907 32.3303 113.611C32.3516 114.304 32.1436 114.901 31.7063 115.403C31.2689 115.893 30.6396 116.139 29.8183 116.139H26.8262V114.699H29.8183C30.3089 114.699 30.6716 114.608 30.9062 114.427C31.1516 114.235 31.2529 113.989 31.2103 113.691C31.1783 113.392 31.0183 113.072 30.7303 112.731L28.1863 109.723L28.5703 108.043L33.8343 105.723L34.3463 107.035ZM35.5303 116.139H35.2263C34.6396 116.139 34.1489 116.048 33.7543 115.867C33.3703 115.675 32.9969 115.387 32.6343 115.003C32.2823 114.608 31.7383 113.941 31.0023 113.003L30.6983 112.603L31.6263 111.739L32.0263 112.251C32.6343 113.029 33.0823 113.579 33.3703 113.899C33.6689 114.208 33.9463 114.421 34.2023 114.539C34.4583 114.645 34.7996 114.699 35.2263 114.699H35.5303V116.139ZM28.7943 106.219L33.0023 104.379L33.2423 104.987L28.7143 106.971L28.7943 106.219ZM39.9331 111.211V113.483C39.9331 113.92 40.0398 114.235 40.2531 114.427C40.4665 114.608 40.8025 114.699 41.2611 114.699H42.0771L42.1571 115.451L42.0771 116.139H41.2611C40.8878 116.139 40.4985 116.043 40.0931 115.851C39.6985 115.648 39.3625 115.333 39.0851 114.907C38.8185 114.48 38.6851 113.941 38.6851 113.291V111.211H39.9331ZM39.7091 113.563C39.7091 114.139 39.5758 114.619 39.3091 115.003C39.0531 115.387 38.7225 115.675 38.3171 115.867C37.9118 116.048 37.4958 116.139 37.0691 116.139H35.3731V114.699H37.0691C37.6131 114.699 38.0185 114.587 38.2851 114.363C38.5518 114.139 38.6851 113.781 38.6851 113.291L39.7091 113.563ZM36.0611 108.603C36.0505 108.432 36.0931 108.272 36.1891 108.123C36.2851 107.963 36.4131 107.84 36.5731 107.755C36.7118 107.659 36.8718 107.611 37.0531 107.611C37.2238 107.6 37.3838 107.643 37.5331 107.739C37.6931 107.835 37.8158 107.957 37.9011 108.107C37.9865 108.277 38.0291 108.443 38.0291 108.603C38.0291 108.869 37.9331 109.104 37.7411 109.307C37.5491 109.499 37.3198 109.595 37.0531 109.595C36.7865 109.595 36.5518 109.499 36.3491 109.307C36.1571 109.104 36.0611 108.869 36.0611 108.603ZM38.7811 108.603C38.7811 108.336 38.8771 108.107 39.0691 107.915C39.2611 107.712 39.4905 107.611 39.7571 107.611C40.0238 107.611 40.2531 107.712 40.4451 107.915C40.6478 108.107 40.7491 108.336 40.7491 108.603C40.7491 108.869 40.6478 109.104 40.4451 109.307C40.2531 109.499 40.0238 109.595 39.7571 109.595C39.5865 109.605 39.4265 109.557 39.2771 109.451C39.1278 109.376 39.0051 109.259 38.9091 109.099C38.8238 108.939 38.7811 108.773 38.7811 108.603ZM41.92 114.699H42.896C43.408 114.699 43.7707 114.587 43.984 114.363C44.208 114.139 44.32 113.781 44.32 113.291V111.211H45.568V113.483C45.568 113.909 45.6693 114.219 45.872 114.411C46.0853 114.592 46.4107 114.688 46.848 114.699C47.36 114.688 47.7227 114.576 47.936 114.363C48.16 114.139 48.272 113.781 48.272 113.291V111.211H49.52V113.483C49.52 113.909 49.6213 114.219 49.824 114.411C50.0373 114.592 50.3627 114.688 50.8 114.699C51.2693 114.688 51.6107 114.576 51.824 114.363C52.0373 114.139 52.1333 113.845 52.112 113.483C52.0907 113.173 52.0267 112.736 51.92 112.171C51.824 111.605 51.7227 111.077 51.616 110.587L52.832 110.267C52.9493 110.757 53.0613 111.317 53.168 111.947C53.2747 112.565 53.3387 113.067 53.36 113.451C53.3813 113.888 53.296 114.315 53.104 114.731C52.912 115.147 52.6187 115.488 52.224 115.755C51.8293 116.011 51.3547 116.139 50.8 116.139C50.4587 116.139 50.1067 116.059 49.744 115.899C49.392 115.728 49.088 115.467 48.832 115.115C48.576 115.456 48.2827 115.712 47.952 115.883C47.6213 116.053 47.2533 116.139 46.848 116.139C46.496 116.139 46.1387 116.048 45.776 115.867C45.4133 115.675 45.1147 115.424 44.88 115.115C44.624 115.456 44.3253 115.712 43.984 115.883C43.6427 116.053 43.28 116.139 42.896 116.139H41.92V114.699ZM59.2123 109.419C59.5963 110.016 59.8789 110.464 60.0603 110.763C60.2523 111.051 60.5349 111.483 60.9083 112.059C61.2069 112.517 61.3723 113.029 61.4043 113.595C61.4469 114.16 61.3403 114.624 61.0843 114.987C60.7749 115.424 60.4016 115.728 59.9643 115.899C59.5269 116.059 59.0469 116.139 58.5243 116.139H57.6603C57.0843 116.139 56.5616 116.059 56.0923 115.899C55.6336 115.728 55.2549 115.536 54.9563 115.323L55.6123 114.107L55.6923 114.155C55.9376 114.304 56.2096 114.432 56.5082 114.539C56.8069 114.645 57.1909 114.699 57.6603 114.699H58.5243C58.9083 114.699 59.2229 114.661 59.4683 114.587C59.7243 114.501 59.9216 114.357 60.0603 114.155C60.1776 113.995 60.2203 113.813 60.1883 113.611C60.1563 113.397 60.0443 113.136 59.8523 112.827C58.8496 111.248 58.0389 110 57.4203 109.083L58.4763 108.283L59.2123 109.419ZM69.2268 111.995C68.9174 112.667 68.6774 113.307 68.5068 113.915C68.3361 114.512 68.2561 115.056 68.2668 115.547C68.2881 116.165 68.4054 116.709 68.6188 117.179C68.8321 117.659 69.1468 118.037 69.5628 118.315C69.9894 118.592 70.5121 118.731 71.1308 118.731H72.8588C73.5201 118.731 74.0481 118.661 74.4427 118.523C74.8481 118.384 75.1468 118.165 75.3388 117.867C75.5308 117.579 75.6374 117.195 75.6588 116.715C75.6694 116.555 75.6534 116.448 75.6108 116.395C75.5788 116.352 75.4774 116.309 75.3068 116.267L71.9148 115.355C71.6374 114.523 71.5734 113.744 71.7228 113.019C71.8828 112.283 72.1921 111.653 72.6508 111.131C73.0348 110.693 73.4774 110.357 73.9788 110.123C74.4801 109.877 75.0028 109.749 75.5468 109.739C75.8241 109.728 76.1174 109.744 76.4268 109.787C76.7361 109.819 77.0134 109.861 77.2588 109.915L76.9708 111.323C76.5761 111.205 76.1121 111.157 75.5788 111.179C75.1734 111.189 74.8001 111.275 74.4588 111.435C74.1281 111.584 73.8348 111.803 73.5788 112.091C73.3014 112.4 73.1094 112.715 73.0028 113.035C72.8961 113.355 72.8694 113.723 72.9228 114.139C73.1468 114.192 73.6374 114.325 74.3948 114.539C74.6508 114.613 74.8854 114.683 75.0988 114.747C75.3228 114.8 75.5094 114.848 75.6588 114.891C75.9681 114.976 76.2134 115.104 76.3948 115.275C76.5868 115.445 76.7254 115.653 76.8108 115.899C76.8961 116.144 76.9281 116.437 76.9068 116.779C76.8854 117.493 76.7094 118.101 76.3788 118.603C76.0481 119.115 75.5841 119.504 74.9868 119.771C74.4001 120.037 73.6908 120.171 72.8588 120.171H71.1308C70.2988 120.171 69.5734 119.957 68.9548 119.531C68.3468 119.104 67.8774 118.539 67.5468 117.835C67.2161 117.141 67.0401 116.389 67.0188 115.579C67.0081 114.96 67.0988 114.288 67.2908 113.563C67.4934 112.827 67.7548 112.101 68.0748 111.387L69.2268 111.995ZM80.7825 118.731C81.5292 118.731 82.1052 118.64 82.5105 118.459C82.9265 118.288 83.2145 118.021 83.3745 117.659C83.5345 117.296 83.6145 116.816 83.6145 116.219V113.083C83.6145 112.432 83.4652 111.925 83.1665 111.563C82.8678 111.189 82.4252 111.003 81.8385 111.003C81.2945 111.003 80.8678 111.195 80.5585 111.579C80.2598 111.952 80.1105 112.453 80.1105 113.083C80.1105 113.669 80.2492 114.085 80.5265 114.331C80.8038 114.565 81.2465 114.683 81.8545 114.683H84.1585V116.123H81.8545C80.9585 116.123 80.2332 115.856 79.6785 115.323C79.1345 114.789 78.8625 114.043 78.8625 113.083C78.8625 112.432 78.9852 111.84 79.2305 111.307C79.4865 110.773 79.8385 110.352 80.2865 110.043C80.7452 109.733 81.2625 109.579 81.8385 109.579C82.4465 109.579 82.9798 109.728 83.4385 110.027C83.8972 110.315 84.2492 110.725 84.4945 111.259C84.7398 111.792 84.8625 112.4 84.8625 113.083V116.219C84.8625 117.008 84.7238 117.696 84.4465 118.283C84.1798 118.869 83.7425 119.328 83.1345 119.659C82.5372 120 81.7532 120.171 80.7825 120.171H79.0705V118.731H80.7825ZM90.8883 111.211V115.723C90.8883 116.683 90.7229 117.493 90.3923 118.155C90.0723 118.816 89.5976 119.317 88.9683 119.659C88.3389 120 87.5709 120.171 86.6643 120.171H85.6562V118.731H86.6643C87.3789 118.731 87.9496 118.629 88.3763 118.427C88.8136 118.224 89.1336 117.904 89.3363 117.467C89.5389 117.029 89.6403 116.448 89.6403 115.723V111.211H90.8883ZM99.3694 116.139C98.7507 116.139 98.2067 116 97.7374 115.723C97.268 115.435 96.916 115.051 96.6814 114.571C96.4467 114.091 96.3614 113.573 96.4254 113.019C96.4787 112.528 96.6547 111.664 96.9534 110.427L98.1214 110.731L98.0574 111.019C97.8014 112.107 97.6574 112.821 97.6254 113.163C97.572 113.632 97.6947 114.005 97.9934 114.283C98.292 114.56 98.7507 114.699 99.3694 114.699H106.281C106.804 114.699 107.193 114.555 107.449 114.267C107.716 113.979 107.849 113.632 107.849 113.227C107.849 112.757 107.684 111.781 107.353 110.299L108.569 109.979C108.921 111.504 109.097 112.587 109.097 113.227C109.097 113.675 108.985 114.128 108.761 114.587C108.537 115.035 108.212 115.408 107.785 115.707C107.359 115.995 106.857 116.139 106.281 116.139H99.3694ZM100.457 110.043C100.447 109.872 100.489 109.712 100.585 109.563C100.681 109.403 100.809 109.28 100.969 109.195C101.108 109.099 101.268 109.051 101.449 109.051C101.62 109.04 101.78 109.083 101.929 109.179C102.089 109.275 102.212 109.397 102.297 109.547C102.383 109.717 102.425 109.883 102.425 110.043C102.425 110.309 102.329 110.544 102.137 110.747C101.945 110.939 101.716 111.035 101.449 111.035C101.183 111.035 100.948 110.939 100.745 110.747C100.553 110.544 100.457 110.309 100.457 110.043ZM103.177 110.043C103.177 109.776 103.273 109.547 103.465 109.355C103.657 109.152 103.887 109.051 104.153 109.051C104.42 109.051 104.649 109.152 104.841 109.355C105.044 109.547 105.145 109.776 105.145 110.043C105.145 110.309 105.044 110.544 104.841 110.747C104.649 110.939 104.42 111.035 104.153 111.035C103.983 111.045 103.823 110.997 103.673 110.891C103.524 110.816 103.401 110.699 103.305 110.539C103.22 110.379 103.177 110.213 103.177 110.043ZM114.147 116.139C113.421 116.139 112.856 116.005 112.451 115.739C112.045 115.461 111.757 115.077 111.587 114.587C111.427 114.096 111.347 113.488 111.347 112.763L111.331 105.755H112.579L112.595 112.763C112.595 113.339 112.627 113.755 112.691 114.011C112.765 114.267 112.904 114.448 113.107 114.555C113.32 114.651 113.667 114.699 114.147 114.699H114.387L114.467 115.435L114.387 116.139H114.147ZM114.232 114.699H114.681C114.937 114.699 115.139 114.645 115.289 114.539C115.449 114.421 115.555 114.251 115.609 114.027L116.121 112.187C116.355 111.355 116.718 110.704 117.209 110.235C117.699 109.755 118.291 109.515 118.985 109.515C119.539 109.515 120.03 109.68 120.457 110.011C120.883 110.331 121.214 110.768 121.449 111.323C121.683 111.867 121.801 112.459 121.801 113.099C121.801 113.888 121.689 114.539 121.465 115.051C121.241 115.552 120.947 115.915 120.585 116.139C120.233 116.373 119.859 116.491 119.465 116.491C119.049 116.491 118.627 116.405 118.201 116.235C117.774 116.064 117.102 115.744 116.185 115.275L115.769 115.067L116.345 113.787C116.473 113.851 116.595 113.915 116.713 113.979C117.577 114.416 118.174 114.704 118.505 114.843C118.846 114.981 119.166 115.051 119.465 115.051C119.827 115.051 120.099 114.917 120.281 114.651C120.462 114.373 120.553 113.856 120.553 113.099C120.553 112.427 120.419 111.904 120.153 111.531C119.886 111.147 119.497 110.955 118.985 110.955C118.601 110.955 118.265 111.088 117.977 111.355C117.699 111.621 117.486 112.027 117.337 112.571L116.825 114.411C116.729 114.752 116.569 115.056 116.345 115.323C116.131 115.579 115.875 115.781 115.577 115.931C115.289 116.069 114.99 116.139 114.681 116.139H114.232V114.699ZM123.049 115.419L122.969 116.139H122.809C122.286 116.139 121.859 116.011 121.529 115.755C121.209 115.499 120.974 115.147 120.825 114.699C120.675 114.251 120.601 113.717 120.601 113.099H121.801C121.801 113.547 121.838 113.888 121.913 114.123C121.987 114.347 122.094 114.501 122.233 114.587C122.371 114.661 122.563 114.699 122.809 114.699H122.969L123.049 115.419ZM127.371 111.211V113.483C127.371 113.92 127.477 114.235 127.691 114.427C127.904 114.608 128.24 114.699 128.699 114.699H129.515L129.595 115.451L129.515 116.139H128.699C128.325 116.139 127.936 116.043 127.531 115.851C127.136 115.648 126.8 115.333 126.523 114.907C126.256 114.48 126.123 113.941 126.123 113.291V111.211H127.371ZM127.147 113.563C127.147 114.139 127.013 114.619 126.747 115.003C126.491 115.387 126.16 115.675 125.755 115.867C125.349 116.048 124.933 116.139 124.507 116.139H122.811V114.699H124.507C125.051 114.699 125.456 114.587 125.723 114.363C125.989 114.139 126.123 113.781 126.123 113.291L127.147 113.563ZM122.187 119.387C122.176 119.216 122.219 119.051 122.315 118.891C122.411 118.741 122.539 118.624 122.699 118.539C122.837 118.443 122.997 118.395 123.179 118.395C123.349 118.384 123.509 118.427 123.659 118.523C123.819 118.619 123.941 118.741 124.027 118.891C124.112 119.061 124.155 119.227 124.155 119.387C124.155 119.653 124.059 119.883 123.867 120.075C123.675 120.277 123.445 120.379 123.179 120.379C122.912 120.379 122.683 120.277 122.491 120.075C122.288 119.883 122.187 119.653 122.187 119.387ZM124.907 119.387C124.907 119.12 125.003 118.885 125.195 118.683C125.387 118.491 125.616 118.395 125.883 118.395C126.149 118.395 126.379 118.491 126.571 118.683C126.773 118.885 126.875 119.12 126.875 119.387C126.875 119.653 126.773 119.883 126.571 120.075C126.379 120.277 126.149 120.379 125.883 120.379C125.712 120.389 125.552 120.341 125.403 120.235C125.253 120.16 125.131 120.043 125.035 119.883C124.949 119.723 124.907 119.557 124.907 119.387ZM129.357 114.699H136.078C136.718 114.699 137.214 114.555 137.566 114.267C137.928 113.968 138.11 113.536 138.11 112.971C138.11 112.352 137.976 111.872 137.71 111.531C137.443 111.189 137.032 111.019 136.478 111.019C136.136 111.019 135.848 111.067 135.614 111.163C135.379 111.259 135.15 111.424 134.926 111.659C134.702 111.893 134.424 112.24 134.094 112.699L132.062 115.547L131.086 114.907L133.07 111.867C133.614 111.045 134.136 110.459 134.638 110.107C135.15 109.755 135.763 109.579 136.478 109.579C137.075 109.579 137.587 109.733 138.014 110.043C138.451 110.352 138.782 110.768 139.006 111.291C139.24 111.803 139.358 112.363 139.358 112.971C139.358 113.611 139.208 114.171 138.91 114.651C138.611 115.131 138.211 115.499 137.71 115.755C137.208 116.011 136.664 116.139 136.078 116.139H129.357V114.699ZM131.614 105.755H132.862L132.878 114.043L131.63 114.699L131.614 105.755ZM140.27 116.139C139.875 116.139 139.491 116.059 139.118 115.899C138.755 115.739 138.456 115.531 138.222 115.275C137.998 115.008 137.885 114.736 137.885 114.459L138.766 113.739C138.83 114.059 138.99 114.299 139.246 114.459C139.502 114.619 139.843 114.699 140.27 114.699H140.782L140.894 115.419L140.782 116.139H140.27ZM135.71 106.651C135.699 106.363 135.795 106.123 135.998 105.931C136.211 105.749 136.446 105.659 136.702 105.659C136.979 105.659 137.214 105.755 137.406 105.947C137.598 106.139 137.694 106.373 137.694 106.651C137.694 106.928 137.598 107.163 137.406 107.355C137.214 107.547 136.979 107.643 136.702 107.643C136.424 107.643 136.19 107.547 135.998 107.355C135.806 107.163 135.71 106.928 135.71 106.651ZM144.91 111.211V113.483C144.91 113.92 145.017 114.235 145.23 114.427C145.444 114.608 145.78 114.699 146.238 114.699H146.83L146.91 115.435L146.83 116.139H146.238C145.865 116.139 145.476 116.043 145.07 115.851C144.676 115.648 144.34 115.333 144.062 114.907C143.796 114.48 143.662 113.941 143.662 113.291V111.211H144.91ZM144.686 113.563C144.686 114.139 144.553 114.619 144.286 115.003C144.03 115.387 143.7 115.675 143.294 115.867C142.889 116.048 142.473 116.139 142.046 116.139H140.654V114.699H142.046C142.59 114.699 142.996 114.587 143.262 114.363C143.529 114.139 143.662 113.781 143.662 113.291L144.686 113.563ZM141.726 108.619C141.716 108.331 141.812 108.091 142.014 107.899C142.228 107.717 142.462 107.627 142.718 107.627C142.996 107.627 143.23 107.723 143.422 107.915C143.614 108.107 143.71 108.341 143.71 108.619C143.71 108.896 143.614 109.131 143.422 109.323C143.23 109.515 142.996 109.611 142.718 109.611C142.441 109.611 142.206 109.515 142.014 109.323C141.822 109.131 141.726 108.896 141.726 108.619ZM146.67 114.699H148.83C149.449 114.699 149.881 114.592 150.126 114.379C150.382 114.165 150.499 113.867 150.478 113.483C150.457 113.173 150.393 112.736 150.286 112.171C150.19 111.605 150.089 111.077 149.982 110.587L151.198 110.267C151.315 110.757 151.427 111.317 151.534 111.947C151.641 112.565 151.705 113.067 151.726 113.451C151.747 113.909 151.651 114.347 151.438 114.763C151.235 115.168 150.91 115.499 150.462 115.755C150.025 116.011 149.481 116.139 148.83 116.139H146.67V114.699ZM147.278 107.579C147.267 107.408 147.31 107.248 147.406 107.099C147.502 106.939 147.63 106.816 147.79 106.731C147.929 106.635 148.089 106.587 148.27 106.587C148.441 106.576 148.601 106.619 148.75 106.715C148.91 106.811 149.033 106.933 149.118 107.083C149.203 107.253 149.246 107.419 149.246 107.579C149.246 107.845 149.15 108.08 148.958 108.283C148.766 108.475 148.537 108.571 148.27 108.571C148.003 108.571 147.769 108.475 147.566 108.283C147.374 108.08 147.278 107.845 147.278 107.579ZM149.998 107.579C149.998 107.312 150.094 107.083 150.286 106.891C150.478 106.688 150.707 106.587 150.974 106.587C151.241 106.587 151.47 106.688 151.662 106.891C151.865 107.083 151.966 107.312 151.966 107.579C151.966 107.845 151.865 108.08 151.662 108.283C151.47 108.475 151.241 108.571 150.974 108.571C150.803 108.581 150.643 108.533 150.494 108.427C150.345 108.352 150.222 108.235 150.126 108.075C150.041 107.915 149.998 107.749 149.998 107.579ZM161.027 109.051C161.678 109.755 162.174 110.315 162.515 110.731C162.857 111.147 163.129 111.573 163.331 112.011C163.545 112.437 163.651 112.875 163.651 113.323C163.651 113.867 163.507 114.363 163.219 114.811C162.931 115.259 162.542 115.611 162.051 115.867C161.571 116.123 161.054 116.251 160.499 116.251C159.934 116.251 159.406 116.123 158.915 115.867C158.435 115.611 158.051 115.259 157.763 114.811C157.475 114.363 157.331 113.867 157.331 113.323C157.331 112.843 157.433 112.389 157.635 111.963C157.838 111.525 158.083 111.125 158.371 110.763C158.659 110.4 159.054 109.957 159.555 109.435L159.955 109.003L160.883 109.995L160.451 110.443C159.971 110.944 159.614 111.339 159.379 111.627C159.145 111.904 158.953 112.187 158.803 112.475C158.654 112.752 158.579 113.035 158.579 113.323C158.579 113.76 158.75 114.117 159.091 114.395C159.443 114.672 159.913 114.811 160.499 114.811C161.075 114.811 161.534 114.672 161.875 114.395C162.227 114.117 162.403 113.76 162.403 113.323C162.403 113.067 162.323 112.8 162.163 112.523C162.014 112.235 161.795 111.925 161.507 111.595C161.23 111.264 160.793 110.773 160.195 110.123C160.035 109.941 159.87 109.76 159.699 109.579C159.529 109.387 159.347 109.184 159.155 108.971L160.083 108.011L161.027 109.051ZM168.091 111.211V115.723C168.091 116.683 167.926 117.493 167.595 118.155C167.275 118.816 166.801 119.317 166.171 119.659C165.542 120 164.774 120.171 163.867 120.171H162.859V118.731H163.867C164.582 118.731 165.153 118.629 165.579 118.427C166.017 118.224 166.337 117.904 166.539 117.467C166.742 117.029 166.843 116.448 166.843 115.723V111.211H168.091ZM168.091 113.483C168.091 113.92 168.198 114.235 168.411 114.427C168.625 114.608 168.961 114.699 169.419 114.699H169.579L169.675 115.435L169.579 116.139H169.419C169.046 116.139 168.705 116.059 168.395 115.899C168.086 115.739 167.83 115.461 167.627 115.067C167.435 114.672 167.339 114.144 167.339 113.483H168.091ZM173.98 111.211V113.483C173.98 113.92 174.087 114.235 174.3 114.427C174.513 114.608 174.849 114.699 175.308 114.699H176.124L176.204 115.451L176.124 116.139H175.308C174.935 116.139 174.545 116.043 174.14 115.851C173.745 115.648 173.409 115.333 173.132 114.907C172.865 114.48 172.732 113.941 172.732 113.291V111.211H173.98ZM173.756 113.563C173.756 114.139 173.623 114.619 173.356 115.003C173.1 115.387 172.769 115.675 172.364 115.867C171.959 116.048 171.543 116.139 171.116 116.139H169.42V114.699H171.116C171.66 114.699 172.065 114.587 172.332 114.363C172.599 114.139 172.732 113.781 172.732 113.291L173.756 113.563ZM169.756 119.387C169.745 119.216 169.788 119.051 169.884 118.891C169.98 118.741 170.108 118.624 170.268 118.539C170.407 118.443 170.567 118.395 170.748 118.395C170.919 118.384 171.079 118.427 171.228 118.523C171.388 118.619 171.511 118.741 171.596 118.891C171.681 119.061 171.724 119.227 171.724 119.387C171.724 119.653 171.628 119.883 171.436 120.075C171.244 120.277 171.015 120.379 170.748 120.379C170.481 120.379 170.247 120.277 170.044 120.075C169.852 119.883 169.756 119.653 169.756 119.387ZM172.476 119.387C172.476 119.12 172.572 118.885 172.764 118.683C172.956 118.491 173.185 118.395 173.452 118.395C173.719 118.395 173.948 118.491 174.14 118.683C174.343 118.885 174.444 119.12 174.444 119.387C174.444 119.653 174.343 119.883 174.14 120.075C173.948 120.277 173.719 120.379 173.452 120.379C173.281 120.389 173.121 120.341 172.972 120.235C172.823 120.16 172.7 120.043 172.604 119.883C172.519 119.723 172.476 119.557 172.476 119.387ZM175.903 114.699H177.887C178.602 114.699 179.268 114.613 179.887 114.443C180.506 114.261 181.076 114.037 181.599 113.771C182.122 113.493 182.778 113.115 183.567 112.635L184.095 112.315L184.063 112.667L183.071 112.251C182.1 111.845 181.322 111.541 180.735 111.339C180.159 111.125 179.754 111.019 179.519 111.019C179.199 111.019 178.948 111.093 178.767 111.243C178.596 111.381 178.431 111.669 178.271 112.107L177.055 111.723C177.311 110.965 177.652 110.421 178.079 110.091C178.506 109.749 178.986 109.579 179.519 109.579C179.882 109.579 180.436 109.717 181.183 109.995C181.94 110.272 182.991 110.693 184.335 111.259C184.602 111.365 184.863 111.472 185.119 111.579L185.439 113.099L184.591 113.627C183.663 114.213 182.895 114.672 182.287 115.003C181.679 115.333 181.007 115.605 180.271 115.819C179.546 116.032 178.751 116.139 177.887 116.139H175.903V114.699ZM178.783 107.275C178.772 106.987 178.868 106.747 179.071 106.555C179.284 106.373 179.519 106.283 179.775 106.283C180.052 106.283 180.287 106.379 180.479 106.571C180.671 106.763 180.767 106.997 180.767 107.275C180.767 107.552 180.671 107.787 180.479 107.979C180.287 108.171 180.052 108.267 179.775 108.267C179.498 108.267 179.263 108.171 179.071 107.979C178.879 107.787 178.783 107.552 178.783 107.275ZM191.29 109.419C191.674 110.016 191.957 110.464 192.138 110.763C192.33 111.051 192.613 111.483 192.986 112.059C193.285 112.517 193.45 113.029 193.482 113.595C193.525 114.16 193.418 114.624 193.162 114.987C192.853 115.424 192.48 115.728 192.042 115.899C191.605 116.059 191.125 116.139 190.602 116.139H189.738C189.162 116.139 188.64 116.059 188.17 115.899C187.712 115.728 187.333 115.536 187.034 115.323L187.69 114.107L187.77 114.155C188.016 114.304 188.288 114.432 188.586 114.539C188.885 114.645 189.269 114.699 189.738 114.699H190.602C190.986 114.699 191.301 114.661 191.546 114.587C191.802 114.501 192 114.357 192.138 114.155C192.256 113.995 192.298 113.813 192.266 113.611C192.234 113.397 192.122 113.136 191.93 112.827C190.928 111.248 190.117 110 189.498 109.083L190.554 108.283L191.29 109.419ZM189.418 105.931C189.408 105.643 189.504 105.403 189.706 105.211C189.92 105.029 190.154 104.939 190.41 104.939C190.688 104.939 190.922 105.035 191.114 105.227C191.306 105.419 191.402 105.653 191.402 105.931C191.402 106.208 191.306 106.443 191.114 106.635C190.922 106.827 190.688 106.923 190.41 106.923C190.133 106.923 189.898 106.827 189.706 106.635C189.514 106.443 189.418 106.208 189.418 105.931ZM203.225 120.171C202.34 120.171 201.588 119.952 200.969 119.515C200.35 119.077 199.881 118.501 199.561 117.787C199.252 117.072 199.097 116.309 199.097 115.499C199.097 114.976 199.177 114.411 199.337 113.803C199.508 113.195 199.705 112.651 199.929 112.171L201.033 112.715C200.841 113.12 200.676 113.579 200.537 114.091C200.409 114.603 200.345 115.072 200.345 115.499C200.345 116.128 200.446 116.683 200.649 117.163C200.852 117.653 201.166 118.037 201.593 118.315C202.02 118.592 202.564 118.731 203.225 118.731H204.009C204.734 118.731 205.3 118.645 205.705 118.475C206.11 118.315 206.398 118.053 206.569 117.691C206.74 117.339 206.825 116.853 206.825 116.235L206.809 105.755H208.057L208.073 116.235C208.073 117.472 207.748 118.437 207.097 119.131C206.446 119.824 205.417 120.171 204.009 120.171H203.225ZM213.131 116.139C212.406 116.139 211.84 116.005 211.435 115.739C211.03 115.461 210.742 115.077 210.571 114.587C210.411 114.096 210.331 113.488 210.331 112.763L210.315 105.755H211.563L211.579 112.763C211.579 113.339 211.611 113.755 211.675 114.011C211.75 114.267 211.888 114.448 212.091 114.555C212.304 114.651 212.651 114.699 213.131 114.699H213.371L213.451 115.435L213.371 116.139H213.131ZM213.153 114.699H215.137C215.852 114.699 216.518 114.613 217.137 114.443C217.756 114.261 218.326 114.037 218.849 113.771C219.372 113.493 220.028 113.115 220.817 112.635L221.345 112.315L221.313 112.667L220.321 112.251C219.35 111.845 218.572 111.541 217.985 111.339C217.409 111.125 217.004 111.019 216.769 111.019C216.449 111.019 216.198 111.093 216.017 111.243C215.846 111.381 215.681 111.669 215.521 112.107L214.305 111.723C214.561 110.965 214.902 110.421 215.329 110.091C215.756 109.749 216.236 109.579 216.769 109.579C217.132 109.579 217.686 109.717 218.433 109.995C219.19 110.272 220.241 110.693 221.585 111.259C221.852 111.365 222.113 111.472 222.369 111.579L222.689 113.099L221.841 113.627C220.913 114.213 220.145 114.672 219.537 115.003C218.929 115.333 218.257 115.605 217.521 115.819C216.796 116.032 216.001 116.139 215.137 116.139H213.153V114.699ZM232.716 111.211V115.723C232.716 116.683 232.551 117.493 232.22 118.155C231.9 118.816 231.426 119.317 230.796 119.659C230.167 120 229.399 120.171 228.492 120.171H227.484V118.731H228.492C229.207 118.731 229.778 118.629 230.204 118.427C230.642 118.224 230.962 117.904 231.164 117.467C231.367 117.029 231.468 116.448 231.468 115.723V111.211H232.716ZM238.494 109.419C238.878 110.016 239.16 110.464 239.342 110.763C239.534 111.051 239.816 111.483 240.19 112.059C240.488 112.517 240.654 113.029 240.686 113.595C240.728 114.16 240.622 114.624 240.366 114.987C240.056 115.424 239.683 115.728 239.246 115.899C238.808 116.059 238.328 116.139 237.806 116.139H236.942C236.366 116.139 235.843 116.059 235.374 115.899C234.915 115.728 234.536 115.536 234.238 115.323L234.894 114.107L234.974 114.155C235.219 114.304 235.491 114.432 235.789 114.539C236.088 114.645 236.472 114.699 236.942 114.699H237.806C238.19 114.699 238.504 114.661 238.75 114.587C239.006 114.501 239.203 114.357 239.342 114.155C239.459 113.995 239.502 113.813 239.47 113.611C239.438 113.397 239.326 113.136 239.134 112.827C238.131 111.248 237.32 110 236.702 109.083L237.758 108.283L238.494 109.419Z" fill="#263238"/>
<defs>
<linearGradient id="paint0_linear_2008_17431" x1="117.521" y1="12.3126" x2="123.981" y2="12.3126" gradientUnits="userSpaceOnUse">
<stop stop-color="#007DC0"/>
<stop offset="1" stop-color="#00B8E7"/>
</linearGradient>
<linearGradient id="paint1_linear_2008_17431" x1="117.521" y1="67.9649" x2="123.981" y2="67.9649" gradientUnits="userSpaceOnUse">
<stop stop-color="#007DC0"/>
<stop offset="1" stop-color="#00B8E7"/>
</linearGradient>
<linearGradient id="paint2_linear_2008_17431" x1="138.352" y1="15.7906" x2="144.811" y2="15.7906" gradientUnits="userSpaceOnUse">
<stop stop-color="#007DC0"/>
<stop offset="1" stop-color="#00B8E7"/>
</linearGradient>
<linearGradient id="paint3_linear_2008_17431" x1="0" y1="12.1739" x2="6.45963" y2="12.1739" gradientUnits="userSpaceOnUse">
<stop stop-color="#007DC0"/>
<stop offset="1" stop-color="#00B8E7"/>
</linearGradient>
<linearGradient id="paint4_linear_2008_17431" x1="103.613" y1="89.2203" x2="110.073" y2="89.2203" gradientUnits="userSpaceOnUse">
<stop stop-color="#007DC0"/>
<stop offset="1" stop-color="#00B8E7"/>
</linearGradient>
<linearGradient id="paint5_linear_2008_17431" x1="0" y1="12.1739" x2="6.45963" y2="12.1739" gradientUnits="userSpaceOnUse">
<stop stop-color="#007DC0"/>
<stop offset="1" stop-color="#00B8E7"/>
</linearGradient>
<linearGradient id="paint6_linear_2008_17431" x1="154.005" y1="29.7037" x2="160.465" y2="29.7037" gradientUnits="userSpaceOnUse">
<stop stop-color="#007DC0"/>
<stop offset="1" stop-color="#00B8E7"/>
</linearGradient>
<linearGradient id="paint7_linear_2008_17431" x1="0" y1="12.1739" x2="6.45963" y2="12.1739" gradientUnits="userSpaceOnUse">
<stop stop-color="#007DC0"/>
<stop offset="1" stop-color="#00B8E7"/>
</linearGradient>
<linearGradient id="paint8_linear_2008_17431" x1="87.959" y1="75.3072" x2="94.4186" y2="75.3072" gradientUnits="userSpaceOnUse">
<stop stop-color="#007DC0"/>
<stop offset="1" stop-color="#00B8E7"/>
</linearGradient>
<linearGradient id="paint9_linear_2008_17431" x1="0" y1="12.1739" x2="6.45963" y2="12.1739" gradientUnits="userSpaceOnUse">
<stop stop-color="#007DC0"/>
<stop offset="1" stop-color="#00B8E7"/>
</linearGradient>
<linearGradient id="paint10_linear_2008_17431" x1="136.9" y1="55.5426" x2="143.36" y2="55.5426" gradientUnits="userSpaceOnUse">
<stop stop-color="#007DC0"/>
<stop offset="1" stop-color="#00B8E7"/>
</linearGradient>
<linearGradient id="paint11_linear_2008_17431" x1="80.752" y1="55.5426" x2="87.2116" y2="55.5426" gradientUnits="userSpaceOnUse">
<stop stop-color="#007DC0"/>
<stop offset="1" stop-color="#00B8E7"/>
</linearGradient>
<clipPath id="clip0_2008_17431">
<rect width="80.4969" height="80" fill="white" transform="translate(80.752 0.138672)"/>
</clipPath>
</defs>
</svg>
