<svg width="268" height="129" viewBox="0 0 268 129" fill="none" xmlns="http://www.w3.org/2000/svg">
<g clip-path="url(#clip0_2008_17676)">
<rect x="137.479" y="80.1387" width="6.45963" height="24.3478" rx="3.22981" transform="rotate(180 137.479 80.1387)" fill="url(#paint0_linear_2008_17676)" fill-opacity="0.7"/>
<rect x="137.479" y="24.4863" width="6.45963" height="24.3478" rx="3.22981" transform="rotate(180 137.479 24.4863)" fill="url(#paint1_linear_2008_17676)" fill-opacity="0.1"/>
<rect x="116.648" y="76.6606" width="6.45963" height="24.3478" rx="3.22981" transform="rotate(-149.43 116.648 76.6606)" fill="url(#paint2_linear_2008_17676)" fill-opacity="0.8"/>
<rect width="6.45963" height="24.3478" rx="3.22981" transform="matrix(-0.861012 0.508584 0.508584 0.861012 116.648 3.23096)" fill="url(#paint3_linear_2008_17676)"/>
<rect x="151.387" y="3.23096" width="6.45963" height="24.3478" rx="3.22981" transform="rotate(30.5696 151.387 3.23096)" fill="url(#paint4_linear_2008_17676)" fill-opacity="0.2"/>
<rect width="6.45963" height="24.3478" rx="3.22981" transform="matrix(0.861012 -0.508584 -0.508584 -0.861012 151.387 76.6606)" fill="url(#paint5_linear_2008_17676)" fill-opacity="0.6"/>
<rect x="100.994" y="62.7476" width="6.45963" height="24.3478" rx="3.22981" transform="rotate(-120.029 100.994 62.7476)" fill="url(#paint6_linear_2008_17676)" fill-opacity="0.9"/>
<rect width="6.45963" height="24.3478" rx="3.22981" transform="matrix(-0.500441 0.86577 0.86577 0.500441 100.994 17.144)" fill="url(#paint7_linear_2008_17676)"/>
<rect x="167.041" y="17.144" width="6.45963" height="24.3478" rx="3.22981" transform="rotate(59.9708 167.041 17.144)" fill="url(#paint8_linear_2008_17676)" fill-opacity="0.3"/>
<rect width="6.45963" height="24.3478" rx="3.22981" transform="matrix(0.500441 -0.86577 -0.86577 -0.500441 167.041 62.7476)" fill="url(#paint9_linear_2008_17676)" fill-opacity="0.5"/>
<rect x="118.1" y="36.9087" width="6.45963" height="24.3478" rx="3.22981" transform="rotate(90 118.1 36.9087)" fill="url(#paint10_linear_2008_17676)"/>
<rect x="174.248" y="36.9087" width="6.45963" height="24.3478" rx="3.22981" transform="rotate(90 174.248 36.9087)" fill="url(#paint11_linear_2008_17676)" fill-opacity="0.4"/>
</g>
<path d="M2.4145 116.139C2.14783 116.139 1.9185 116.048 1.7265 115.867C1.54517 115.675 1.4545 115.445 1.4545 115.179C1.4545 114.912 1.54517 114.688 1.7265 114.507C1.9185 114.315 2.14783 114.219 2.4145 114.219C2.68117 114.219 2.90517 114.315 3.0865 114.507C3.2785 114.688 3.3745 114.912 3.3745 115.179C3.3745 115.445 3.2785 115.675 3.0865 115.867C2.90517 116.048 2.68117 116.139 2.4145 116.139ZM9.902 108.251C10.0193 108.528 10.3873 109.333 11.006 110.667C11.198 111.083 11.39 111.504 11.582 111.931C11.838 112.464 11.9927 112.992 12.046 113.515C12.11 114.027 11.9873 114.501 11.678 114.939C11.358 115.397 10.9687 115.712 10.51 115.883C10.062 116.053 9.57667 116.139 9.054 116.139H8.238C7.662 116.139 7.15 116.053 6.702 115.883C6.254 115.701 5.87 115.499 5.55 115.275L6.206 114.059L6.286 114.107C6.56333 114.267 6.85133 114.405 7.15 114.523C7.44867 114.64 7.81133 114.699 8.238 114.699H9.054C9.438 114.699 9.76333 114.656 10.03 114.571C10.2967 114.475 10.5047 114.32 10.654 114.107C10.7927 113.915 10.8407 113.712 10.798 113.499C10.766 113.275 10.654 112.955 10.462 112.539L9.374 110.203C9.12867 109.701 8.92067 109.253 8.75 108.859L9.902 108.251ZM11.598 111.947C11.9073 112.64 12.174 113.179 12.398 113.563C12.6327 113.947 12.878 114.235 13.134 114.427C13.39 114.608 13.6887 114.699 14.03 114.699H14.286L14.366 115.467L14.286 116.139H14.03C13.486 116.139 13.006 115.995 12.59 115.707C12.174 115.408 11.8007 115.003 11.47 114.491C11.15 113.979 10.8087 113.323 10.446 112.523L11.598 111.947ZM18.6831 111.211V113.483C18.6831 113.92 18.7898 114.235 19.0031 114.427C19.2165 114.608 19.5525 114.699 20.0111 114.699H20.8271L20.9071 115.451L20.8271 116.139H20.0111C19.6378 116.139 19.2485 116.043 18.8431 115.851C18.4485 115.648 18.1125 115.333 17.8351 114.907C17.5685 114.48 17.4351 113.941 17.4351 113.291V111.211H18.6831ZM18.4591 113.563C18.4591 114.139 18.3258 114.619 18.0591 115.003C17.8031 115.387 17.4725 115.675 17.0671 115.867C16.6618 116.048 16.2458 116.139 15.8191 116.139H14.1231V114.699H15.8191C16.3631 114.699 16.7685 114.587 17.0351 114.363C17.3018 114.139 17.4351 113.781 17.4351 113.291L18.4591 113.563ZM13.4991 119.387C13.4885 119.216 13.5311 119.051 13.6271 118.891C13.7231 118.741 13.8511 118.624 14.0111 118.539C14.1498 118.443 14.3098 118.395 14.4911 118.395C14.6618 118.384 14.8218 118.427 14.9711 118.523C15.1311 118.619 15.2538 118.741 15.3391 118.891C15.4245 119.061 15.4671 119.227 15.4671 119.387C15.4671 119.653 15.3711 119.883 15.1791 120.075C14.9871 120.277 14.7578 120.379 14.4911 120.379C14.2245 120.379 13.9951 120.277 13.8031 120.075C13.6005 119.883 13.4991 119.653 13.4991 119.387ZM16.2191 119.387C16.2191 119.12 16.3151 118.885 16.5071 118.683C16.6991 118.491 16.9285 118.395 17.1951 118.395C17.4618 118.395 17.6911 118.491 17.8831 118.683C18.0858 118.885 18.1871 119.12 18.1871 119.387C18.1871 119.653 18.0858 119.883 17.8831 120.075C17.6911 120.277 17.4618 120.379 17.1951 120.379C17.0245 120.389 16.8645 120.341 16.7151 120.235C16.5658 120.16 16.4431 120.043 16.3471 119.883C16.2618 119.723 16.2191 119.557 16.2191 119.387ZM20.67 114.699H21.646C22.158 114.699 22.5207 114.587 22.734 114.363C22.958 114.139 23.07 113.781 23.07 113.291V111.211H24.318V113.483C24.318 113.909 24.4193 114.219 24.622 114.411C24.8353 114.592 25.1607 114.688 25.598 114.699C26.11 114.688 26.4727 114.576 26.686 114.363C26.91 114.139 27.022 113.781 27.022 113.291V111.211H28.27V113.483C28.27 113.909 28.3713 114.219 28.574 114.411C28.7873 114.592 29.1127 114.688 29.55 114.699C30.0193 114.688 30.3607 114.576 30.574 114.363C30.7873 114.139 30.8833 113.845 30.862 113.483C30.8407 113.173 30.7767 112.736 30.67 112.171C30.574 111.605 30.4727 111.077 30.366 110.587L31.582 110.267C31.6993 110.757 31.8113 111.317 31.918 111.947C32.0247 112.565 32.0887 113.067 32.11 113.451C32.1313 113.888 32.046 114.315 31.854 114.731C31.662 115.147 31.3687 115.488 30.974 115.755C30.5793 116.011 30.1047 116.139 29.55 116.139C29.2087 116.139 28.8567 116.059 28.494 115.899C28.142 115.728 27.838 115.467 27.582 115.115C27.326 115.456 27.0327 115.712 26.702 115.883C26.3713 116.053 26.0033 116.139 25.598 116.139C25.246 116.139 24.8887 116.048 24.526 115.867C24.1633 115.675 23.8647 115.424 23.63 115.115C23.374 115.456 23.0753 115.712 22.734 115.883C22.3927 116.053 22.03 116.139 21.646 116.139H20.67V114.699ZM26.702 106.299C26.702 106.032 26.798 105.803 26.99 105.611C27.1927 105.408 27.4273 105.307 27.694 105.307C27.9607 105.307 28.19 105.403 28.382 105.595C28.5847 105.787 28.686 106.021 28.686 106.299C28.686 106.565 28.59 106.795 28.398 106.987C28.206 107.179 27.9713 107.275 27.694 107.275C27.4273 107.275 27.1927 107.184 26.99 107.003C26.798 106.811 26.702 106.576 26.702 106.299ZM25.31 108.315C25.2993 108.144 25.342 107.984 25.438 107.835C25.534 107.675 25.662 107.552 25.822 107.467C25.9607 107.371 26.1207 107.323 26.302 107.323C26.5687 107.323 26.798 107.424 26.99 107.627C27.182 107.819 27.278 108.048 27.278 108.315C27.278 108.581 27.182 108.816 26.99 109.019C26.798 109.211 26.5687 109.307 26.302 109.307C26.0353 109.307 25.8007 109.211 25.598 109.019C25.406 108.816 25.31 108.581 25.31 108.315ZM28.11 108.315C28.11 108.048 28.206 107.819 28.398 107.627C28.59 107.424 28.8193 107.323 29.086 107.323C29.3527 107.323 29.582 107.424 29.774 107.627C29.9767 107.819 30.078 108.048 30.078 108.315C30.078 108.581 29.9767 108.816 29.774 109.019C29.582 109.211 29.3527 109.307 29.086 109.307C28.8193 109.307 28.59 109.211 28.398 109.019C28.206 108.816 28.11 108.581 28.11 108.315ZM37.1623 116.139C36.4369 116.139 35.8716 116.005 35.4663 115.739C35.0609 115.461 34.7729 115.077 34.6023 114.587C34.4423 114.096 34.3623 113.488 34.3623 112.763L34.3463 105.755H35.5943L35.6103 112.763C35.6103 113.339 35.6423 113.755 35.7063 114.011C35.7809 114.267 35.9196 114.448 36.1223 114.555C36.3356 114.651 36.6823 114.699 37.1623 114.699H37.4023L37.4823 115.435L37.4023 116.139H37.1623ZM37.2481 114.699H39.0081C39.4988 114.699 39.8508 114.592 40.0641 114.379C40.2881 114.155 40.3895 113.856 40.3681 113.483C40.3468 113.173 40.2828 112.736 40.1761 112.171C40.0801 111.605 39.9788 111.077 39.8721 110.587L41.0881 110.267C41.2055 110.757 41.3175 111.317 41.4241 111.947C41.5308 112.565 41.5948 113.067 41.6161 113.451C41.6375 113.899 41.5468 114.331 41.3441 114.747C41.1521 115.163 40.8535 115.499 40.4481 115.755C40.0535 116.011 39.5735 116.139 39.0081 116.139H37.2481V114.699ZM37.4561 119.387C37.4455 119.099 37.5415 118.859 37.7441 118.667C37.9575 118.485 38.1921 118.395 38.4481 118.395C38.7255 118.395 38.9601 118.491 39.1521 118.683C39.3441 118.875 39.4401 119.109 39.4401 119.387C39.4401 119.664 39.3441 119.899 39.1521 120.091C38.9601 120.283 38.7255 120.379 38.4481 120.379C38.1708 120.379 37.9361 120.283 37.7441 120.091C37.5521 119.899 37.4561 119.664 37.4561 119.387ZM51.6383 111.211V115.723C51.6383 116.683 51.4729 117.493 51.1423 118.155C50.8223 118.816 50.3476 119.317 49.7183 119.659C49.0889 120 48.3209 120.171 47.4143 120.171H46.4062V118.731H47.4143C48.1289 118.731 48.6996 118.629 49.1263 118.427C49.5636 118.224 49.8836 117.904 50.0863 117.467C50.2889 117.029 50.3903 116.448 50.3903 115.723V111.211H51.6383ZM55.0794 118.747C55.826 118.747 56.402 118.656 56.8074 118.475C57.2234 118.304 57.5114 118.037 57.6714 117.675C57.8314 117.312 57.9114 116.832 57.9114 116.235V113.099C57.9114 112.448 57.762 111.941 57.4634 111.579C57.1647 111.205 56.722 111.019 56.1354 111.019C55.5914 111.019 55.1647 111.211 54.8554 111.595C54.5567 111.968 54.4074 112.469 54.4074 113.099C54.4074 113.685 54.546 114.101 54.8234 114.347C55.1007 114.581 55.5434 114.699 56.1514 114.699H58.1994H58.5354H60.0554L60.1514 115.435L60.0554 116.139H56.1514C55.2554 116.139 54.53 115.872 53.9754 115.339C53.4314 114.805 53.1594 114.059 53.1594 113.099C53.1594 112.448 53.282 111.856 53.5274 111.323C53.7834 110.789 54.1354 110.368 54.5834 110.059C55.042 109.749 55.5594 109.595 56.1354 109.595C56.7434 109.595 57.2767 109.744 57.7354 110.043C58.194 110.341 58.546 110.757 58.7914 111.291C59.0367 111.813 59.1594 112.416 59.1594 113.099V116.235C59.1594 117.024 59.0207 117.712 58.7434 118.299C58.4767 118.885 58.0394 119.344 57.4314 119.675C56.834 120.016 56.05 120.187 55.0794 120.187H53.3674V118.747H55.0794ZM64.1448 111.211V113.483C64.1448 113.92 64.2514 114.235 64.4648 114.427C64.6781 114.608 65.0141 114.699 65.4728 114.699H66.0648L66.1448 115.435L66.0648 116.139H65.4728C65.0994 116.139 64.7101 116.043 64.3048 115.851C63.9101 115.648 63.5741 115.333 63.2968 114.907C63.0301 114.48 62.8968 113.941 62.8968 113.291V111.211H64.1448ZM63.9208 113.563C63.9208 114.139 63.7874 114.619 63.5208 115.003C63.2648 115.387 62.9341 115.675 62.5288 115.867C62.1234 116.048 61.7074 116.139 61.2808 116.139H59.8887V114.699H61.2808C61.8248 114.699 62.2301 114.587 62.4968 114.363C62.7634 114.139 62.8968 113.781 62.8968 113.291L63.9208 113.563ZM60.8168 119.387C60.8061 119.099 60.9021 118.859 61.1048 118.667C61.3181 118.485 61.5528 118.395 61.8088 118.395C62.0861 118.395 62.3208 118.491 62.5128 118.683C62.7048 118.875 62.8008 119.109 62.8008 119.387C62.8008 119.664 62.7048 119.899 62.5128 120.091C62.3208 120.283 62.0861 120.379 61.8088 120.379C61.5314 120.379 61.2968 120.283 61.1048 120.091C60.9128 119.899 60.8168 119.664 60.8168 119.387ZM72.3364 111.867C72.859 111.045 73.3764 110.459 73.8884 110.107C74.411 109.755 75.0297 109.579 75.7444 109.579C76.3417 109.579 76.8537 109.733 77.2804 110.043C77.7177 110.352 78.0484 110.768 78.2724 111.291C78.507 111.803 78.6244 112.363 78.6244 112.971C78.6244 113.611 78.475 114.171 78.1764 114.651C77.8777 115.131 77.4777 115.499 76.9764 115.755C76.475 116.011 75.931 116.139 75.3444 116.139H71.2644C70.9657 116.139 70.619 116.069 70.2244 115.931C69.8297 115.792 69.4724 115.531 69.1524 115.147C68.843 114.763 68.6884 114.235 68.6884 113.563V111.211H69.9364V113.563C69.9364 113.989 70.0697 114.288 70.3364 114.459C70.6137 114.619 70.923 114.699 71.2644 114.699H75.3444C75.9844 114.699 76.4804 114.555 76.8324 114.267C77.195 113.968 77.3764 113.536 77.3764 112.971C77.3764 112.352 77.243 111.872 76.9764 111.531C76.7097 111.189 76.299 111.019 75.7444 111.019C75.4137 111.019 75.131 111.072 74.8964 111.179C74.6724 111.275 74.4484 111.435 74.2244 111.659C74.0004 111.883 73.7124 112.229 73.3604 112.699C72.9977 113.179 72.3204 114.128 71.3284 115.547L70.3524 114.907L72.3364 111.867ZM69.9364 113.563C69.9364 114.139 69.787 114.624 69.4884 115.019C69.2004 115.403 68.8324 115.685 68.3844 115.867C67.947 116.048 67.5097 116.139 67.0724 116.139H65.9044V114.699H67.0724C67.5524 114.699 67.9417 114.608 68.2404 114.427C68.539 114.235 68.6884 113.947 68.6884 113.563H69.9364ZM83.907 104.043L87.299 102.939V103.739L83.907 104.827V104.043ZM83.907 102.619L87.299 101.515V102.315L83.907 103.403V102.619ZM87.6779 116.139C86.9525 116.139 86.3872 116.005 85.9819 115.739C85.5765 115.461 85.2885 115.077 85.1179 114.587C84.9579 114.096 84.8779 113.488 84.8779 112.763L84.8619 105.755H86.1099L86.1259 112.763C86.1259 113.339 86.1579 113.755 86.2219 114.011C86.2965 114.267 86.4352 114.448 86.6379 114.555C86.8512 114.651 87.1979 114.699 87.6779 114.699H87.9179L87.9979 115.435L87.9179 116.139H87.6779ZM87.6997 114.699H88.5478C89.1771 114.699 89.7531 114.667 90.2758 114.603C89.8811 114.315 89.5718 113.989 89.3478 113.627C89.1238 113.264 89.0118 112.864 89.0118 112.427C89.0118 111.851 89.1451 111.328 89.4118 110.859C89.6784 110.379 90.0358 110 90.4838 109.723C90.9424 109.445 91.4438 109.307 91.9878 109.307C92.5104 109.307 92.9958 109.445 93.4438 109.723C93.8918 110 94.2491 110.379 94.5158 110.859C94.7824 111.339 94.9158 111.861 94.9158 112.427C94.9158 112.864 94.8038 113.264 94.5798 113.627C94.3558 113.989 94.0464 114.32 93.6518 114.619C94.2171 114.672 94.7931 114.699 95.3798 114.699H96.1478L96.2438 115.419L96.1478 116.139H95.3798C94.9424 116.139 94.4091 116.085 93.7798 115.979C93.1611 115.861 92.5584 115.696 91.9718 115.483C91.3744 115.696 90.7611 115.861 90.1318 115.979C89.5131 116.085 88.9851 116.139 88.5478 116.139H87.6997V114.699ZM91.9398 114.251C92.5051 114.059 92.9318 113.808 93.2198 113.499C93.5184 113.189 93.6678 112.832 93.6678 112.427C93.6678 111.925 93.5078 111.52 93.1878 111.211C92.8678 110.901 92.4678 110.747 91.9878 110.747C91.4864 110.747 91.0704 110.901 90.7398 111.211C90.4198 111.52 90.2598 111.925 90.2598 112.427C90.2598 112.832 90.3984 113.189 90.6758 113.499C90.9638 113.808 91.3851 114.059 91.9398 114.251ZM90.9798 107.307C90.9691 107.019 91.0651 106.779 91.2678 106.587C91.4811 106.405 91.7158 106.315 91.9718 106.315C92.2491 106.315 92.4838 106.411 92.6758 106.603C92.8678 106.795 92.9638 107.029 92.9638 107.307C92.9638 107.584 92.8678 107.819 92.6758 108.011C92.4838 108.203 92.2491 108.299 91.9718 108.299C91.6944 108.299 91.4598 108.203 91.2678 108.011C91.0758 107.819 90.9798 107.584 90.9798 107.307ZM95.9825 114.699H102.703C103.343 114.699 103.839 114.555 104.191 114.267C104.553 113.968 104.735 113.536 104.735 112.971C104.735 112.352 104.601 111.872 104.335 111.531C104.068 111.189 103.657 111.019 103.103 111.019C102.761 111.019 102.473 111.067 102.239 111.163C102.004 111.259 101.775 111.424 101.551 111.659C101.327 111.893 101.049 112.24 100.719 112.699L98.6865 115.547L97.7105 114.907L99.6945 111.867C100.239 111.045 100.761 110.459 101.263 110.107C101.775 109.755 102.388 109.579 103.103 109.579C103.7 109.579 104.212 109.733 104.639 110.043C105.076 110.352 105.407 110.768 105.631 111.291C105.865 111.803 105.983 112.363 105.983 112.971C105.983 113.611 105.833 114.171 105.535 114.651C105.236 115.131 104.836 115.499 104.335 115.755C103.833 116.011 103.289 116.139 102.703 116.139H95.9825V114.699ZM98.2385 105.755H99.4865L99.5025 114.043L98.2545 114.699L98.2385 105.755ZM106.895 116.139C106.5 116.139 106.116 116.059 105.743 115.899C105.38 115.739 105.081 115.531 104.847 115.275C104.623 115.008 104.51 114.736 104.51 114.459L105.391 113.739C105.455 114.059 105.615 114.299 105.871 114.459C106.127 114.619 106.468 114.699 106.895 114.699H107.407L107.519 115.419L107.407 116.139H106.895ZM110.591 113.291C110.591 113.941 110.453 114.48 110.175 114.907C109.909 115.333 109.578 115.648 109.183 115.851C108.789 116.043 108.405 116.139 108.031 116.139H107.279V114.699H107.919C108.399 114.699 108.757 114.597 108.991 114.395C109.237 114.181 109.359 113.813 109.359 113.291V105.755H110.591V113.291ZM117.743 116.139C117.476 116.139 117.247 116.048 117.055 115.867C116.873 115.675 116.783 115.445 116.783 115.179C116.783 114.912 116.873 114.688 117.055 114.507C117.247 114.315 117.476 114.219 117.743 114.219C118.009 114.219 118.233 114.315 118.415 114.507C118.607 114.688 118.703 114.912 118.703 115.179C118.703 115.445 118.607 115.675 118.415 115.867C118.233 116.048 118.009 116.139 117.743 116.139ZM122.43 116.139C122.163 116.139 121.934 116.048 121.742 115.867C121.561 115.675 121.47 115.445 121.47 115.179C121.47 114.912 121.561 114.688 121.742 114.507C121.934 114.315 122.163 114.219 122.43 114.219C122.697 114.219 122.921 114.315 123.102 114.507C123.294 114.688 123.39 114.912 123.39 115.179C123.39 115.445 123.294 115.675 123.102 115.867C122.921 116.048 122.697 116.139 122.43 116.139ZM127.118 116.139C126.851 116.139 126.622 116.048 126.43 115.867C126.248 115.675 126.158 115.445 126.158 115.179C126.158 114.912 126.248 114.688 126.43 114.507C126.622 114.315 126.851 114.219 127.118 114.219C127.384 114.219 127.608 114.315 127.79 114.507C127.982 114.688 128.078 114.912 128.078 115.179C128.078 115.445 127.982 115.675 127.79 115.867C127.608 116.048 127.384 116.139 127.118 116.139ZM134.365 120.171C133.533 120.171 132.808 119.957 132.189 119.531C131.581 119.104 131.112 118.539 130.781 117.835C130.45 117.141 130.274 116.389 130.253 115.579C130.242 114.96 130.333 114.288 130.525 113.563C130.728 112.827 130.989 112.101 131.309 111.387L132.461 111.995C132.152 112.667 131.912 113.307 131.741 113.915C131.57 114.512 131.49 115.056 131.501 115.547C131.522 116.165 131.64 116.709 131.853 117.179C132.066 117.659 132.381 118.037 132.797 118.315C133.224 118.592 133.746 118.731 134.365 118.731H136.093C136.626 118.731 137.101 118.672 137.517 118.555C137.933 118.448 138.253 118.293 138.477 118.091C138.701 117.899 138.813 117.68 138.813 117.435C138.813 117.307 138.77 117.173 138.685 117.035C138.6 116.896 138.45 116.768 138.237 116.651C138.002 116.523 137.693 116.416 137.309 116.331C136.936 116.245 136.466 116.187 135.901 116.155C135.752 116.144 135.501 116.139 135.149 116.139V114.699H141.613L141.709 115.451L141.613 116.139H139.581C139.741 116.267 139.864 116.437 139.949 116.651C140.034 116.864 140.077 117.099 140.077 117.355C140.077 117.813 139.944 118.256 139.677 118.683C139.41 119.109 138.978 119.461 138.381 119.739C137.794 120.027 137.032 120.171 136.093 120.171H134.365ZM141.771 114.699H143.931C144.55 114.699 144.982 114.592 145.227 114.379C145.483 114.165 145.601 113.867 145.579 113.483C145.558 113.173 145.494 112.736 145.387 112.171C145.291 111.605 145.19 111.077 145.083 110.587L146.299 110.267C146.417 110.757 146.529 111.317 146.635 111.947C146.742 112.565 146.806 113.067 146.827 113.451C146.849 113.909 146.753 114.347 146.539 114.763C146.337 115.168 146.011 115.499 145.563 115.755C145.126 116.011 144.582 116.139 143.931 116.139H141.771V114.699ZM141.499 116.139V114.699H141.915L141.995 115.435L141.915 116.139H141.499ZM141.787 119.387C141.777 119.216 141.819 119.051 141.915 118.891C142.011 118.741 142.134 118.624 142.283 118.539C142.433 118.443 142.598 118.395 142.779 118.395C142.95 118.384 143.11 118.427 143.259 118.523C143.419 118.619 143.542 118.741 143.627 118.891C143.713 119.061 143.755 119.227 143.755 119.387C143.755 119.653 143.659 119.883 143.467 120.075C143.275 120.277 143.046 120.379 142.779 120.379C142.513 120.379 142.278 120.277 142.075 120.075C141.883 119.883 141.787 119.653 141.787 119.387ZM144.507 119.387C144.507 119.12 144.603 118.885 144.795 118.683C144.987 118.491 145.217 118.395 145.483 118.395C145.75 118.395 145.979 118.491 146.171 118.683C146.374 118.885 146.475 119.12 146.475 119.387C146.475 119.653 146.374 119.883 146.171 120.075C145.979 120.277 145.75 120.379 145.483 120.379C145.313 120.368 145.153 120.32 145.003 120.235C144.854 120.149 144.731 120.027 144.635 119.867C144.55 119.717 144.507 119.557 144.507 119.387ZM151.881 116.139C151.156 116.139 150.59 116.005 150.185 115.739C149.78 115.461 149.492 115.077 149.321 114.587C149.161 114.096 149.081 113.488 149.081 112.763L149.065 105.755H150.313L150.329 112.763C150.329 113.339 150.361 113.755 150.425 114.011C150.5 114.267 150.638 114.448 150.841 114.555C151.054 114.651 151.401 114.699 151.881 114.699H152.121L152.201 115.435L152.121 116.139H151.881ZM151.967 114.699H153.983H154.351C154.948 114.677 155.476 114.603 155.935 114.475C156.404 114.347 156.783 114.16 157.071 113.915C157.359 113.669 157.53 113.371 157.583 113.019C157.658 112.549 157.631 112.149 157.503 111.819C157.386 111.477 157.178 111.221 156.879 111.051C156.591 110.88 156.25 110.795 155.855 110.795C155.215 110.795 154.751 110.976 154.463 111.339C154.186 111.701 154.047 112.299 154.047 113.131V116.235C154.047 116.8 154.159 117.259 154.383 117.611C154.618 117.963 154.97 118.224 155.439 118.395C155.908 118.576 156.511 118.683 157.247 118.715V117.595C157.247 117.008 157.37 116.496 157.615 116.059C157.871 115.611 158.191 115.275 158.575 115.051C158.959 114.816 159.348 114.699 159.743 114.699H160.703L160.783 115.419L160.703 116.139H159.743C159.391 116.139 159.092 116.256 158.847 116.491C158.612 116.736 158.495 117.104 158.495 117.595V118.907L157.455 120.171C156.559 120.171 155.759 120.027 155.055 119.739C154.351 119.451 153.796 119.008 153.391 118.411C152.996 117.824 152.799 117.099 152.799 116.235V113.131C152.799 112.363 152.922 111.696 153.167 111.131C153.412 110.555 153.764 110.117 154.223 109.819C154.682 109.509 155.226 109.355 155.855 109.355C156.463 109.355 157.012 109.525 157.503 109.867C158.004 110.208 158.378 110.677 158.623 111.275C158.879 111.861 158.948 112.517 158.831 113.243C158.671 114.245 158.127 114.981 157.199 115.451C156.271 115.909 155.199 116.139 153.983 116.139H151.967V114.699ZM160.545 114.699H162.305C162.796 114.699 163.148 114.592 163.361 114.379C163.585 114.155 163.686 113.856 163.665 113.483C163.644 113.173 163.58 112.736 163.473 112.171C163.377 111.605 163.276 111.077 163.169 110.587L164.385 110.267C164.502 110.757 164.614 111.317 164.721 111.947C164.828 112.565 164.892 113.067 164.913 113.451C164.934 113.899 164.844 114.331 164.641 114.747C164.449 115.163 164.15 115.499 163.745 115.755C163.35 116.011 162.87 116.139 162.305 116.139H160.545V114.699ZM162.081 107.595C162.07 107.307 162.166 107.067 162.369 106.875C162.582 106.693 162.817 106.603 163.073 106.603C163.35 106.603 163.585 106.699 163.777 106.891C163.969 107.083 164.065 107.317 164.065 107.595C164.065 107.872 163.969 108.107 163.777 108.299C163.585 108.491 163.35 108.587 163.073 108.587C162.796 108.587 162.561 108.491 162.369 108.299C162.177 108.107 162.081 107.872 162.081 107.595ZM176.743 112.971C176.892 113.6 177.186 114.048 177.623 114.315C178.071 114.571 178.594 114.699 179.191 114.699H179.511L179.591 115.419L179.511 116.139H179.191C178.402 116.139 177.655 115.925 176.951 115.499C176.247 115.061 175.772 114.336 175.527 113.323C175.1 111.52 174.674 109.717 174.247 107.915L175.463 107.595L176.743 112.971ZM176.279 111.099C176.354 111.771 176.359 112.325 176.295 112.763C176.242 113.2 176.103 113.611 175.879 113.995C175.602 114.475 175.244 114.848 174.807 115.115C174.37 115.371 173.895 115.499 173.383 115.499C172.882 115.499 172.396 115.36 171.927 115.083C171.49 114.827 171.143 114.469 170.887 114.011C170.631 113.541 170.498 113.04 170.487 112.507C170.487 111.973 170.62 111.477 170.887 111.019C171.068 110.699 171.282 110.432 171.527 110.219C171.783 109.995 172.178 109.749 172.711 109.483C173.255 109.205 174.055 108.853 175.111 108.427L175.591 109.771C174.78 110.005 174.124 110.245 173.623 110.491C173.122 110.725 172.748 110.944 172.503 111.147C172.268 111.349 172.092 111.552 171.975 111.755C171.74 112.149 171.676 112.544 171.783 112.939C171.9 113.323 172.146 113.632 172.519 113.867C172.882 114.091 173.292 114.155 173.751 114.059C174.22 113.952 174.599 113.717 174.887 113.355C175.068 113.131 175.17 112.875 175.191 112.587C175.223 112.288 175.18 111.835 175.063 111.227L176.279 111.099ZM179.357 114.699H181.518C182.136 114.699 182.568 114.592 182.814 114.379C183.07 114.165 183.187 113.867 183.166 113.483C183.144 113.173 183.08 112.736 182.974 112.171C182.878 111.605 182.776 111.077 182.67 110.587L183.886 110.267C184.003 110.757 184.115 111.317 184.222 111.947C184.328 112.565 184.392 113.067 184.414 113.451C184.435 113.909 184.339 114.347 184.126 114.763C183.923 115.168 183.598 115.499 183.15 115.755C182.712 116.011 182.168 116.139 181.518 116.139H179.357V114.699ZM178.621 119.387C178.611 119.216 178.653 119.051 178.749 118.891C178.845 118.741 178.973 118.624 179.133 118.539C179.272 118.443 179.432 118.395 179.614 118.395C179.784 118.384 179.944 118.427 180.094 118.523C180.254 118.619 180.376 118.741 180.462 118.891C180.547 119.061 180.59 119.227 180.59 119.387C180.59 119.653 180.494 119.883 180.302 120.075C180.11 120.277 179.88 120.379 179.614 120.379C179.347 120.379 179.117 120.277 178.925 120.075C178.723 119.883 178.621 119.653 178.621 119.387ZM181.342 119.387C181.342 119.12 181.438 118.885 181.63 118.683C181.822 118.491 182.051 118.395 182.318 118.395C182.584 118.395 182.814 118.491 183.006 118.683C183.208 118.885 183.31 119.12 183.31 119.387C183.31 119.653 183.208 119.883 183.006 120.075C182.814 120.277 182.584 120.379 182.318 120.379C182.147 120.389 181.987 120.341 181.838 120.235C181.688 120.16 181.566 120.043 181.47 119.883C181.384 119.723 181.342 119.557 181.342 119.387ZM190.371 108.251C190.488 108.528 190.856 109.333 191.475 110.667C191.667 111.083 191.859 111.504 192.051 111.931C192.307 112.464 192.461 112.992 192.515 113.515C192.579 114.027 192.456 114.501 192.147 114.939C191.827 115.397 191.437 115.712 190.979 115.883C190.531 116.053 190.045 116.139 189.523 116.139H188.707C188.131 116.139 187.619 116.053 187.171 115.883C186.723 115.701 186.339 115.499 186.019 115.275L186.675 114.059L186.755 114.107C187.032 114.267 187.32 114.405 187.619 114.523C187.917 114.64 188.28 114.699 188.707 114.699H189.523C189.907 114.699 190.232 114.656 190.499 114.571C190.765 114.475 190.973 114.32 191.123 114.107C191.261 113.915 191.309 113.712 191.267 113.499C191.235 113.275 191.123 112.955 190.931 112.539L189.843 110.203C189.597 109.701 189.389 109.253 189.219 108.859L190.371 108.251ZM192.067 111.947C192.376 112.64 192.643 113.179 192.867 113.563C193.101 113.947 193.347 114.235 193.603 114.427C193.859 114.608 194.157 114.699 194.499 114.699H194.755L194.835 115.467L194.755 116.139H194.499C193.955 116.139 193.475 115.995 193.059 115.707C192.643 115.408 192.269 115.003 191.939 114.491C191.619 113.979 191.277 113.323 190.915 112.523L192.067 111.947ZM199.152 111.211V113.483C199.152 113.92 199.259 114.235 199.472 114.427C199.685 114.608 200.021 114.699 200.48 114.699H201.296L201.376 115.451L201.296 116.139H200.48C200.107 116.139 199.717 116.043 199.312 115.851C198.917 115.648 198.581 115.333 198.304 114.907C198.037 114.48 197.904 113.941 197.904 113.291V111.211H199.152ZM198.928 113.563C198.928 114.139 198.795 114.619 198.528 115.003C198.272 115.387 197.941 115.675 197.536 115.867C197.131 116.048 196.715 116.139 196.288 116.139H194.592V114.699H196.288C196.832 114.699 197.237 114.587 197.504 114.363C197.771 114.139 197.904 113.781 197.904 113.291L198.928 113.563ZM193.968 119.387C193.957 119.216 194 119.051 194.096 118.891C194.192 118.741 194.32 118.624 194.48 118.539C194.619 118.443 194.779 118.395 194.96 118.395C195.131 118.384 195.291 118.427 195.44 118.523C195.6 118.619 195.723 118.741 195.808 118.891C195.893 119.061 195.936 119.227 195.936 119.387C195.936 119.653 195.84 119.883 195.648 120.075C195.456 120.277 195.227 120.379 194.96 120.379C194.693 120.379 194.464 120.277 194.272 120.075C194.069 119.883 193.968 119.653 193.968 119.387ZM196.688 119.387C196.688 119.12 196.784 118.885 196.976 118.683C197.168 118.491 197.397 118.395 197.664 118.395C197.931 118.395 198.16 118.491 198.352 118.683C198.555 118.885 198.656 119.12 198.656 119.387C198.656 119.653 198.555 119.883 198.352 120.075C198.16 120.277 197.931 120.379 197.664 120.379C197.493 120.389 197.333 120.341 197.184 120.235C197.035 120.16 196.912 120.043 196.816 119.883C196.731 119.723 196.688 119.557 196.688 119.387ZM201.139 114.699H203.299C203.917 114.699 204.349 114.592 204.595 114.379C204.851 114.165 204.968 113.867 204.947 113.483C204.925 113.173 204.861 112.736 204.755 112.171C204.659 111.605 204.557 111.077 204.451 110.587L205.667 110.267C205.784 110.757 205.896 111.317 206.003 111.947C206.109 112.565 206.173 113.067 206.195 113.451C206.216 113.909 206.12 114.347 205.907 114.763C205.704 115.168 205.379 115.499 204.931 115.755C204.493 116.011 203.949 116.139 203.299 116.139H201.139V114.699ZM200.403 119.387C200.392 119.216 200.435 119.051 200.531 118.891C200.627 118.741 200.755 118.624 200.915 118.539C201.053 118.443 201.213 118.395 201.395 118.395C201.565 118.384 201.725 118.427 201.875 118.523C202.035 118.619 202.157 118.741 202.243 118.891C202.328 119.061 202.371 119.227 202.371 119.387C202.371 119.653 202.275 119.883 202.083 120.075C201.891 120.277 201.661 120.379 201.395 120.379C201.128 120.379 200.899 120.277 200.707 120.075C200.504 119.883 200.403 119.653 200.403 119.387ZM203.123 119.387C203.123 119.12 203.219 118.885 203.411 118.683C203.603 118.491 203.832 118.395 204.099 118.395C204.365 118.395 204.595 118.491 204.787 118.683C204.989 118.885 205.091 119.12 205.091 119.387C205.091 119.653 204.989 119.883 204.787 120.075C204.595 120.277 204.365 120.379 204.099 120.379C203.928 120.389 203.768 120.341 203.619 120.235C203.469 120.16 203.347 120.043 203.251 119.883C203.165 119.723 203.123 119.557 203.123 119.387ZM211.256 116.139C210.531 116.139 209.965 116.005 209.56 115.739C209.155 115.461 208.867 115.077 208.696 114.587C208.536 114.096 208.456 113.488 208.456 112.763L208.44 106.875H209.688L209.704 112.763C209.704 113.339 209.736 113.755 209.8 114.011C209.875 114.267 210.013 114.448 210.216 114.555C210.429 114.651 210.776 114.699 211.256 114.699H211.496L211.576 115.419L211.496 116.139H211.256ZM210.056 105.451C209.704 105.504 209.363 105.477 209.032 105.371C208.701 105.264 208.424 105.093 208.2 104.859C207.987 104.613 207.875 104.315 207.864 103.963C207.853 103.664 207.912 103.397 208.04 103.163C208.179 102.917 208.365 102.725 208.6 102.587C208.845 102.448 209.107 102.373 209.384 102.363C209.512 102.363 209.645 102.373 209.784 102.395C209.923 102.416 210.077 102.443 210.248 102.475L210.44 102.523L210.312 103.291C209.907 103.205 209.597 103.163 209.384 103.163C209.107 103.173 208.888 103.248 208.728 103.387C208.579 103.525 208.509 103.707 208.52 103.931C208.531 104.219 208.675 104.448 208.952 104.619C209.24 104.779 209.587 104.821 209.992 104.747L210.056 105.451ZM207.704 105.419L211.032 104.443L211.08 105.243L207.752 106.219L207.704 105.419ZM211.342 114.699H213.502C214.121 114.699 214.553 114.592 214.798 114.379C215.054 114.165 215.171 113.867 215.15 113.483C215.129 113.173 215.065 112.736 214.958 112.171C214.862 111.605 214.761 111.077 214.654 110.587L215.87 110.267C215.987 110.757 216.099 111.317 216.206 111.947C216.313 112.565 216.377 113.067 216.398 113.451C216.419 113.909 216.323 114.347 216.11 114.763C215.907 115.168 215.582 115.499 215.134 115.755C214.697 116.011 214.153 116.139 213.502 116.139H211.342V114.699ZM211.95 107.579C211.939 107.408 211.982 107.248 212.078 107.099C212.174 106.939 212.302 106.816 212.462 106.731C212.601 106.635 212.761 106.587 212.942 106.587C213.113 106.576 213.273 106.619 213.422 106.715C213.582 106.811 213.705 106.933 213.79 107.083C213.875 107.253 213.918 107.419 213.918 107.579C213.918 107.845 213.822 108.08 213.63 108.283C213.438 108.475 213.209 108.571 212.942 108.571C212.675 108.571 212.441 108.475 212.238 108.283C212.046 108.08 211.95 107.845 211.95 107.579ZM214.67 107.579C214.67 107.312 214.766 107.083 214.958 106.891C215.15 106.688 215.379 106.587 215.646 106.587C215.913 106.587 216.142 106.688 216.334 106.891C216.537 107.083 216.638 107.312 216.638 107.579C216.638 107.845 216.537 108.08 216.334 108.283C216.142 108.475 215.913 108.571 215.646 108.571C215.475 108.581 215.315 108.533 215.166 108.427C215.017 108.352 214.894 108.235 214.798 108.075C214.713 107.915 214.67 107.749 214.67 107.579ZM224.963 116.139C224.344 116.139 223.8 116 223.331 115.723C222.862 115.435 222.51 115.051 222.275 114.571C222.04 114.091 221.955 113.573 222.019 113.019C222.072 112.528 222.248 111.664 222.547 110.427L223.715 110.731L223.651 111.019C223.395 112.107 223.251 112.821 223.219 113.163C223.166 113.632 223.288 114.005 223.587 114.283C223.886 114.56 224.344 114.699 224.963 114.699H231.875C232.419 114.699 232.824 114.587 233.091 114.363C233.358 114.139 233.491 113.781 233.491 113.291V111.211H234.739V113.483C234.739 113.92 234.846 114.235 235.059 114.427C235.272 114.608 235.608 114.699 236.067 114.699H236.659L236.739 115.387L236.659 116.139H236.067C235.726 116.139 235.368 116.053 234.995 115.883C234.622 115.712 234.307 115.456 234.051 115.115C233.795 115.445 233.47 115.701 233.075 115.883C232.68 116.053 232.28 116.139 231.875 116.139H224.963ZM226.323 110.075C226.312 109.904 226.355 109.744 226.451 109.595C226.547 109.435 226.675 109.312 226.835 109.227C226.974 109.131 227.134 109.083 227.315 109.083C227.486 109.072 227.646 109.115 227.795 109.211C227.955 109.307 228.078 109.429 228.163 109.579C228.248 109.749 228.291 109.915 228.291 110.075C228.291 110.341 228.195 110.576 228.003 110.779C227.811 110.971 227.582 111.067 227.315 111.067C227.048 111.067 226.814 110.971 226.611 110.779C226.419 110.576 226.323 110.341 226.323 110.075ZM229.043 110.075C229.043 109.808 229.139 109.579 229.331 109.387C229.523 109.184 229.752 109.083 230.019 109.083C230.286 109.083 230.515 109.184 230.707 109.387C230.91 109.579 231.011 109.808 231.011 110.075C231.011 110.341 230.91 110.576 230.707 110.779C230.515 110.971 230.286 111.067 230.019 111.067C229.848 111.077 229.688 111.029 229.539 110.923C229.39 110.848 229.267 110.731 229.171 110.571C229.086 110.411 229.043 110.245 229.043 110.075ZM236.498 114.699H239.058H239.154C239.922 114.688 240.482 114.624 240.834 114.507C241.197 114.379 241.437 114.171 241.554 113.883C241.671 113.584 241.73 113.125 241.73 112.507V110.875C241.73 110.384 241.607 110.005 241.362 109.739C241.127 109.461 240.775 109.323 240.306 109.323C239.869 109.323 239.522 109.467 239.266 109.755C239.01 110.032 238.882 110.405 238.882 110.875C238.882 111.301 238.999 111.621 239.234 111.835C239.469 112.048 239.826 112.155 240.306 112.155H242.386V113.595H240.306C239.815 113.595 239.367 113.483 238.962 113.259C238.557 113.024 238.231 112.704 237.986 112.299C237.751 111.883 237.634 111.408 237.634 110.875C237.634 110.341 237.757 109.845 238.002 109.387C238.247 108.928 238.573 108.565 238.978 108.299C239.394 108.021 239.837 107.883 240.306 107.883C240.818 107.883 241.277 108.021 241.682 108.299C242.087 108.565 242.402 108.928 242.626 109.387C242.861 109.845 242.978 110.341 242.978 110.875V112.507C242.978 113.317 242.861 113.989 242.626 114.523C242.391 115.045 241.986 115.445 241.41 115.723C240.845 116 240.061 116.139 239.058 116.139H236.498V114.699ZM239.298 105.691C239.287 105.403 239.383 105.163 239.586 104.971C239.799 104.789 240.034 104.699 240.29 104.699C240.567 104.699 240.802 104.795 240.994 104.987C241.186 105.179 241.282 105.413 241.282 105.691C241.282 105.968 241.186 106.203 240.994 106.395C240.802 106.587 240.567 106.683 240.29 106.683C240.013 106.683 239.778 106.587 239.586 106.395C239.394 106.203 239.298 105.968 239.298 105.691ZM248.037 116.139C247.312 116.139 246.747 116.005 246.341 115.739C245.936 115.461 245.648 115.077 245.477 114.587C245.317 114.096 245.237 113.488 245.237 112.763L245.221 105.755H246.469L246.485 112.763C246.485 113.339 246.517 113.755 246.581 114.011C246.656 114.267 246.795 114.448 246.997 114.555C247.211 114.651 247.557 114.699 248.037 114.699H248.277L248.357 115.435L248.277 116.139H248.037ZM248.123 114.699H250.283C250.902 114.699 251.334 114.592 251.579 114.379C251.835 114.165 251.952 113.867 251.931 113.483C251.91 113.173 251.846 112.736 251.739 112.171C251.643 111.605 251.542 111.077 251.435 110.587L252.651 110.267C252.768 110.757 252.88 111.317 252.987 111.947C253.094 112.565 253.158 113.067 253.179 113.451C253.2 113.909 253.104 114.347 252.891 114.763C252.688 115.168 252.363 115.499 251.915 115.755C251.478 116.011 250.934 116.139 250.283 116.139H248.123V114.699ZM247.387 119.387C247.376 119.216 247.419 119.051 247.515 118.891C247.611 118.741 247.739 118.624 247.899 118.539C248.038 118.443 248.198 118.395 248.379 118.395C248.55 118.384 248.71 118.427 248.859 118.523C249.019 118.619 249.142 118.741 249.227 118.891C249.312 119.061 249.355 119.227 249.355 119.387C249.355 119.653 249.259 119.883 249.067 120.075C248.875 120.277 248.646 120.379 248.379 120.379C248.112 120.379 247.883 120.277 247.691 120.075C247.488 119.883 247.387 119.653 247.387 119.387ZM250.107 119.387C250.107 119.12 250.203 118.885 250.395 118.683C250.587 118.491 250.816 118.395 251.083 118.395C251.35 118.395 251.579 118.491 251.771 118.683C251.974 118.885 252.075 119.12 252.075 119.387C252.075 119.653 251.974 119.883 251.771 120.075C251.579 120.277 251.35 120.379 251.083 120.379C250.912 120.389 250.752 120.341 250.603 120.235C250.454 120.16 250.331 120.043 250.235 119.883C250.15 119.723 250.107 119.557 250.107 119.387ZM259.216 111.211V115.723C259.216 116.683 259.051 117.493 258.72 118.155C258.4 118.816 257.926 119.317 257.296 119.659C256.667 120 255.899 120.171 254.992 120.171H253.984V118.731H254.992C255.707 118.731 256.278 118.629 256.704 118.427C257.142 118.224 257.462 117.904 257.664 117.467C257.867 117.029 257.968 116.448 257.968 115.723V111.211H259.216ZM264.994 109.419C265.378 110.016 265.66 110.464 265.842 110.763C266.034 111.051 266.316 111.483 266.69 112.059C266.988 112.517 267.154 113.029 267.186 113.595C267.228 114.16 267.122 114.624 266.866 114.987C266.556 115.424 266.183 115.728 265.746 115.899C265.308 116.059 264.828 116.139 264.306 116.139H263.442C262.866 116.139 262.343 116.059 261.874 115.899C261.415 115.728 261.036 115.536 260.738 115.323L261.394 114.107L261.474 114.155C261.719 114.304 261.991 114.432 262.289 114.539C262.588 114.645 262.972 114.699 263.442 114.699H264.306C264.69 114.699 265.004 114.661 265.25 114.587C265.506 114.501 265.703 114.357 265.842 114.155C265.959 113.995 266.002 113.813 265.97 113.611C265.938 113.397 265.826 113.136 265.634 112.827C264.631 111.248 263.82 110 263.202 109.083L264.258 108.283L264.994 109.419Z" fill="#263238"/>
<defs>
<linearGradient id="paint0_linear_2008_17676" x1="137.479" y1="92.3126" x2="143.938" y2="92.3126" gradientUnits="userSpaceOnUse">
<stop stop-color="#007DC0"/>
<stop offset="1" stop-color="#00B8E7"/>
</linearGradient>
<linearGradient id="paint1_linear_2008_17676" x1="137.479" y1="36.6602" x2="143.938" y2="36.6602" gradientUnits="userSpaceOnUse">
<stop stop-color="#007DC0"/>
<stop offset="1" stop-color="#00B8E7"/>
</linearGradient>
<linearGradient id="paint2_linear_2008_17676" x1="116.648" y1="88.8346" x2="123.108" y2="88.8346" gradientUnits="userSpaceOnUse">
<stop stop-color="#007DC0"/>
<stop offset="1" stop-color="#00B8E7"/>
</linearGradient>
<linearGradient id="paint3_linear_2008_17676" x1="0" y1="12.1739" x2="6.45963" y2="12.1739" gradientUnits="userSpaceOnUse">
<stop stop-color="#007DC0"/>
<stop offset="1" stop-color="#00B8E7"/>
</linearGradient>
<linearGradient id="paint4_linear_2008_17676" x1="151.387" y1="15.4049" x2="157.846" y2="15.4049" gradientUnits="userSpaceOnUse">
<stop stop-color="#007DC0"/>
<stop offset="1" stop-color="#00B8E7"/>
</linearGradient>
<linearGradient id="paint5_linear_2008_17676" x1="0" y1="12.1739" x2="6.45963" y2="12.1739" gradientUnits="userSpaceOnUse">
<stop stop-color="#007DC0"/>
<stop offset="1" stop-color="#00B8E7"/>
</linearGradient>
<linearGradient id="paint6_linear_2008_17676" x1="100.994" y1="74.9215" x2="107.454" y2="74.9215" gradientUnits="userSpaceOnUse">
<stop stop-color="#007DC0"/>
<stop offset="1" stop-color="#00B8E7"/>
</linearGradient>
<linearGradient id="paint7_linear_2008_17676" x1="0" y1="12.1739" x2="6.45963" y2="12.1739" gradientUnits="userSpaceOnUse">
<stop stop-color="#007DC0"/>
<stop offset="1" stop-color="#00B8E7"/>
</linearGradient>
<linearGradient id="paint8_linear_2008_17676" x1="167.041" y1="29.318" x2="173.501" y2="29.318" gradientUnits="userSpaceOnUse">
<stop stop-color="#007DC0"/>
<stop offset="1" stop-color="#00B8E7"/>
</linearGradient>
<linearGradient id="paint9_linear_2008_17676" x1="0" y1="12.1739" x2="6.45963" y2="12.1739" gradientUnits="userSpaceOnUse">
<stop stop-color="#007DC0"/>
<stop offset="1" stop-color="#00B8E7"/>
</linearGradient>
<linearGradient id="paint10_linear_2008_17676" x1="118.1" y1="49.0826" x2="124.559" y2="49.0826" gradientUnits="userSpaceOnUse">
<stop stop-color="#007DC0"/>
<stop offset="1" stop-color="#00B8E7"/>
</linearGradient>
<linearGradient id="paint11_linear_2008_17676" x1="174.248" y1="49.0826" x2="180.708" y2="49.0826" gradientUnits="userSpaceOnUse">
<stop stop-color="#007DC0"/>
<stop offset="1" stop-color="#00B8E7"/>
</linearGradient>
<clipPath id="clip0_2008_17676">
<rect width="80.4969" height="80" fill="white" transform="matrix(-1 0 0 -1 174.248 80.1387)"/>
</clipPath>
</defs>
</svg>
