<svg width="18" height="18" viewBox="0 0 18 18" fill="none" xmlns="http://www.w3.org/2000/svg">
<path d="M10.3496 10.3496C13.0834 10.3496 15.2998 12.5661 15.2998 15.2998V15.5244C15.2998 15.8984 14.999 16.2001 14.625 16.2002C14.2509 16.2002 13.9502 15.8985 13.9502 15.5244V15.2998C13.9502 13.3114 12.338 11.7002 10.3496 11.7002H7.64941C5.66114 11.7004 4.0498 13.3115 4.0498 15.2998V15.5244C4.0498 15.8984 3.74896 16.2001 3.375 16.2002C3.00094 16.2002 2.7002 15.8985 2.7002 15.5244V15.2998C2.7002 12.5662 4.91583 10.3498 7.64941 10.3496H10.3496ZM9 1.7998C10.9882 1.79993 12.5994 3.41122 12.5996 5.39941C12.5996 7.38778 10.9883 8.99988 9 9C7.01156 9 5.39941 7.38785 5.39941 5.39941C5.39961 3.41115 7.01168 1.7998 9 1.7998ZM9 3.14941C7.757 3.14941 6.7502 4.15646 6.75 5.39941C6.75 6.64254 7.75688 7.64941 9 7.64941C10.243 7.64929 11.25 6.64246 11.25 5.39941C11.2498 4.15653 10.2429 3.14954 9 3.14941Z" fill="#96AFB8"/>
</svg>
