<svg width="19" height="20" viewBox="0 0 19 20" fill="none" xmlns="http://www.w3.org/2000/svg">
<path d="M4.03418 6.34375V17.0312C4.03418 17.6535 4.54461 18.1562 5.17676 18.1562H14.3193C14.9515 18.1562 15.4619 17.6535 15.4619 17.0312V6.34375H16.6055V17.0312C16.6055 18.2723 15.5801 19.2812 14.3193 19.2812H5.17676C3.91604 19.2812 2.89062 18.2723 2.89062 17.0312V6.34375H4.03418ZM11.3447 9.04004C11.5661 8.82236 11.93 8.8224 12.1514 9.04004C12.3728 9.25801 12.3728 9.61699 12.1514 9.83496L10.5557 11.4062L12.1514 12.9775C12.3728 13.1955 12.3728 13.5545 12.1514 13.7725C11.93 13.9901 11.5661 13.9902 11.3447 13.7725L9.74805 12.2012L8.15137 13.7725C7.92998 13.9901 7.56609 13.9902 7.34473 13.7725C7.1233 13.5545 7.1233 13.1955 7.34473 12.9775L8.94141 11.4062L7.34473 9.83496C7.1233 9.61699 7.1233 9.25801 7.34473 9.04004C7.56609 8.82236 7.92998 8.8224 8.15137 9.04004L9.74805 10.6113L11.3447 9.04004ZM11.4697 0.71875C12.2267 0.71883 12.8944 1.20741 13.1123 1.9209L13.6016 3.53125H17.1768C17.491 3.53129 17.748 3.78441 17.748 4.09375C17.748 4.4031 17.491 4.65621 17.1768 4.65625H2.31934C2.00514 4.65614 1.74805 4.40306 1.74805 4.09375C1.74806 3.78445 2.00515 3.53136 2.31934 3.53125H5.89453L6.38379 1.9209C6.60168 1.20743 7.26942 0.718886 8.02637 0.71875H11.4697ZM8.02637 1.84375C7.77665 1.84389 7.55201 2.00542 7.48047 2.24414L7.08691 3.53125H12.4092L12.0156 2.24414C11.9441 2.0054 11.7231 1.84383 11.4697 1.84375H8.02637Z" fill="#EC0206" fill-opacity="0.6"/>
</svg>
