<svg width="18" height="19" viewBox="0 0 18 19" fill="none" xmlns="http://www.w3.org/2000/svg">
<path d="M3.375 5.625V16.3125C3.375 16.9347 3.87776 17.4375 4.5 17.4375H13.5C14.1223 17.4375 14.625 16.9348 14.625 16.3125V5.625H15.75V16.3125C15.75 17.5535 14.741 18.5625 13.5 18.5625H4.5C3.25901 18.5625 2.25 17.5535 2.25 16.3125V5.625H3.375ZM7.75879 7.19629C7.97674 6.97833 8.33574 6.97836 8.55371 7.19629C8.77168 7.41426 8.77168 7.77324 8.55371 7.99121L6.98242 9.5625H9.5625C11.1164 9.5625 12.375 10.8211 12.375 12.375V13.7812C12.375 14.0906 12.1219 14.3438 11.8125 14.3438C11.5032 14.3437 11.25 14.0906 11.25 13.7812V12.375C11.25 11.4434 10.4941 10.6875 9.5625 10.6875H6.98242L8.55371 12.2588C8.77168 12.4768 8.77168 12.8357 8.55371 13.0537C8.33574 13.2717 7.97675 13.2717 7.75879 13.0537L5.22754 10.5225C5.00962 10.3045 5.00961 9.9455 5.22754 9.72754L7.75879 7.19629ZM10.6943 0C11.4396 0 12.097 0.488623 12.3115 1.20215L12.793 2.8125H16.3125C16.6219 2.8125 16.875 3.06563 16.875 3.375C16.875 3.68438 16.6219 3.9375 16.3125 3.9375H1.6875C1.37815 3.93746 1.125 3.68435 1.125 3.375C1.12501 3.06566 1.37816 2.81254 1.6875 2.8125H5.20703L5.68848 1.20215C5.903 0.488604 6.56043 0 7.30566 0H10.6943ZM7.30566 1.125C7.05969 1.125 6.83801 1.28653 6.76758 1.52539L6.38086 2.8125H11.6191L11.2324 1.52539C11.162 1.28655 10.9438 1.125 10.6943 1.125H7.30566Z" fill="#EC0206" fill-opacity="0.6"/>
</svg>
