<svg width="18" height="18" viewBox="0 0 18 18" fill="none" xmlns="http://www.w3.org/2000/svg">
<path d="M9.00293 13C9.40075 13 9.78315 13.1581 10.0645 13.4395C10.3456 13.7207 10.5029 14.1023 10.5029 14.5C10.5029 14.8977 10.3456 15.2793 10.0645 15.5605C9.78315 15.8419 9.40075 16 9.00293 16C8.60525 15.9999 8.22359 15.8418 7.94238 15.5605C7.6612 15.2793 7.50294 14.8977 7.50293 14.5C7.50293 14.1023 7.66121 13.7207 7.94238 13.4395C8.22359 13.1582 8.60525 13.0001 9.00293 13ZM9.00293 7.5C11.1341 7.5 13.0469 8.45617 14.3281 9.95605C14.5969 10.2686 14.5566 10.7439 14.2441 11.0127C13.9316 11.2814 13.4563 11.2434 13.1875 10.9277C12.1781 9.74666 10.6778 9 9.00293 9C7.32828 9.00012 5.82863 9.74681 4.81934 10.9277C4.55062 11.2433 4.07832 11.2813 3.7627 11.0127C3.44707 10.7439 3.40996 10.2717 3.67871 9.95605C4.96301 8.45319 6.87198 7.50012 9.00293 7.5ZM9.00293 2C12.4217 2 15.525 3.37539 17.7812 5.60352C18.0748 5.89402 18.0783 6.36837 17.7881 6.66211C17.4975 6.95579 17.0223 6.95936 16.7285 6.66895C14.741 4.70957 12.0154 3.5 9.00293 3.5C5.99059 3.50011 3.26261 4.70966 1.27832 6.66895H1.27539C0.98164 6.95956 0.506441 6.95586 0.21582 6.66211C-0.0744844 6.36848 -0.0716055 5.89411 0.22168 5.60352C2.47784 3.37548 5.58433 2.00011 9.00293 2Z" fill="#96AFB8"/>
</svg>
