<svg width="19" height="18" viewBox="0 0 19 18" fill="none" xmlns="http://www.w3.org/2000/svg">
<path fill-rule="evenodd" clip-rule="evenodd" d="M8.11523 2.13092C8.42691 2.13092 8.68254 2.38567 8.68262 2.69732C8.68262 3.00904 8.42695 3.26471 8.11523 3.26471H3.58105C2.64253 3.26491 1.88086 4.02633 1.88086 4.9649V15.1661C1.88086 16.1046 2.64253 16.8661 3.58105 16.8663H13.7832C14.7219 16.8662 15.4834 16.1048 15.4834 15.1661V10.6319C15.4835 10.3204 15.7383 10.0657 16.0498 10.0655C16.3614 10.0655 16.6171 10.3203 16.6172 10.6319V15.1661C16.6172 16.7317 15.3489 18 13.7832 18.0001H3.58105C2.01555 17.9999 0.748047 16.7316 0.748047 15.1661V4.9649C0.748047 3.39935 2.01555 2.13112 3.58105 2.13092H8.11523ZM14.4492 0.664119C15.3348 -0.221337 16.7697 -0.22141 17.6553 0.664119L18.083 1.09674C18.9686 1.9823 18.9686 3.41625 18.083 4.30181L10.2803 12.1094C9.97924 12.4105 9.59989 12.6192 9.18555 12.7149L5.97559 13.4551C5.78441 13.4975 5.5863 13.4409 5.44824 13.3028C5.31021 13.1647 5.2535 12.9666 5.2959 12.7754L6.03613 9.56549C6.13178 9.15136 6.3408 8.77268 6.6416 8.47174L14.4453 0.664119H14.4492ZM7.44238 9.27154H7.44629C7.29398 9.42031 7.18765 9.61199 7.1416 9.81744L6.60645 12.1446L8.93066 11.6094C9.13593 11.5598 9.32693 11.4534 9.47559 11.3047L15.5332 5.2481L13.5 3.2149L7.44238 9.27154ZM16.8506 1.46783C16.4079 1.02544 15.6888 1.02539 15.2461 1.46783L14.3008 2.41412L16.334 4.44732L17.2793 3.50201C17.7221 3.05923 17.7221 2.33932 17.2793 1.89654L16.8506 1.46783Z" fill="#96AFB8"/>
</svg>
