<svg width="18" height="18" viewBox="0 0 18 18" fill="none" xmlns="http://www.w3.org/2000/svg">
<path d="M9 0C11.3867 0.000112127 13.6756 0.948181 15.3633 2.63574C17.0511 4.32357 18 6.61305 18 9C18 11.3869 17.0511 13.6764 15.3633 15.3643C13.6756 17.0518 11.3867 17.9999 9 18C6.61316 18 4.32355 17.0519 2.63574 15.3643C0.94792 13.6764 6.01601e-06 11.3869 0 9C0 6.61305 0.947915 4.32357 2.63574 2.63574C4.32355 0.94804 6.61315 0 9 0ZM9 1.125C6.91142 1.125 4.90751 1.95479 3.43066 3.43164C1.954 4.90846 1.125 6.91156 1.125 9C1.12501 11.0884 1.95399 13.0915 3.43066 14.5684C4.90751 16.0452 6.91142 16.875 9 16.875C11.0884 16.8749 13.0916 16.0451 14.5684 14.5684C16.0451 13.0915 16.875 11.0885 16.875 9C16.875 6.91153 16.0451 4.90847 14.5684 3.43164C13.0916 1.95489 11.0884 1.12511 9 1.125ZM9 7.875C9.30918 7.87523 9.5625 8.12827 9.5625 8.4375V12.375H10.6875C10.9967 12.3752 11.25 12.6283 11.25 12.9375C11.25 13.2467 10.9967 13.4998 10.6875 13.5H7.3125C7.00313 13.5 6.75001 13.2469 6.75 12.9375C6.75 12.6281 7.00313 12.375 7.3125 12.375H8.4375V9H7.59375C7.28438 9 7.03126 8.74686 7.03125 8.4375C7.03125 8.12813 7.28438 7.875 7.59375 7.875H9ZM9 4.78125C9.22362 4.78136 9.43855 4.87019 9.59668 5.02832C9.75477 5.18653 9.84375 5.40133 9.84375 5.625C9.84374 5.84867 9.75478 6.06347 9.59668 6.22168C9.43855 6.37981 9.22362 6.46864 9 6.46875C8.77633 6.46875 8.56153 6.37977 8.40332 6.22168C8.24509 6.06345 8.15626 5.84877 8.15625 5.625C8.15625 5.40122 8.24509 5.18655 8.40332 5.02832C8.56153 4.87021 8.77632 4.78125 9 4.78125Z" fill="#96AFB8"/>
</svg>
