<svg width="18" height="18" viewBox="0 0 18 18" fill="none" xmlns="http://www.w3.org/2000/svg">
<path fill-rule="evenodd" clip-rule="evenodd" d="M7.36719 2.13092C7.67886 2.13092 7.93449 2.38567 7.93457 2.69732C7.93457 3.00904 7.67891 3.26471 7.36719 3.26471H2.83301C1.89448 3.26491 1.13281 4.02633 1.13281 4.9649V15.1661C1.13281 16.1046 1.89448 16.8661 2.83301 16.8663H13.0352C13.9738 16.8662 14.7354 16.1048 14.7354 15.1661V10.6319C14.7355 10.3204 14.9903 10.0657 15.3018 10.0655C15.6134 10.0655 15.869 10.3203 15.8691 10.6319V15.1661C15.8691 16.7317 14.6008 18 13.0352 18.0001H2.83301C1.2675 17.9999 0 16.7316 0 15.1661V4.9649C0 3.39935 1.2675 2.13112 2.83301 2.13092H7.36719ZM13.7012 0.664119C14.5867 -0.221337 16.0217 -0.22141 16.9072 0.664119L17.335 1.09674C18.2205 1.9823 18.2205 3.41625 17.335 4.30181L9.53223 12.1094C9.2312 12.4105 8.85184 12.6192 8.4375 12.7149L5.22754 13.4551C5.03637 13.4975 4.83826 13.4409 4.7002 13.3028C4.56216 13.1647 4.50545 12.9666 4.54785 12.7754L5.28809 9.56549C5.38373 9.15136 5.59275 8.77268 5.89355 8.47174L13.6973 0.664119H13.7012ZM6.69434 9.27154H6.69824C6.54593 9.42031 6.43961 9.61199 6.39355 9.81744L5.8584 12.1446L8.18262 11.6094C8.38789 11.5598 8.57888 11.4534 8.72754 11.3047L14.7852 5.2481L12.752 3.2149L6.69434 9.27154ZM16.1025 1.46783C15.6598 1.02544 14.9407 1.02539 14.498 1.46783L13.5527 2.41412L15.5859 4.44732L16.5312 3.50201C16.974 3.05923 16.974 2.33932 16.5312 1.89654L16.1025 1.46783Z" fill="#96AFB8"/>
</svg>
