<svg width="237" height="112" viewBox="0 0 237 112" fill="none" xmlns="http://www.w3.org/2000/svg">
<g filter="url(#filter0_d_2075_52446)">
<rect x="16" y="16.2771" width="196" height="70" rx="8" fill="white"/>
<path d="M72.2847 49.8051C71.4634 49.8051 70.7634 49.6184 70.1847 49.2451C69.606 48.8718 69.1674 48.3678 68.8687 47.7331C68.57 47.0984 68.4207 46.4031 68.4207 45.6471C68.4207 45.1991 68.4907 44.7091 68.6307 44.1771C68.7707 43.6451 68.9434 43.1504 69.1487 42.6931L70.5067 43.2811C70.3387 43.6638 70.1987 44.0651 70.0867 44.4851C69.984 44.8958 69.9327 45.2784 69.9327 45.6331C69.9327 46.1464 70.012 46.5804 70.1707 46.9351C70.3294 47.2898 70.5814 47.5604 70.9267 47.7471C71.272 47.9431 71.7247 48.0411 72.2847 48.0411H72.9707C73.5867 48.0411 74.0487 47.9804 74.3567 47.8591C74.674 47.7471 74.8934 47.5558 75.0147 47.2851C75.1454 47.0144 75.2107 46.6224 75.2107 46.1091L75.1967 36.8551H76.7507V46.1091C76.7507 47.2478 76.4474 48.1484 75.8407 48.8111C75.234 49.4738 74.2774 49.8051 72.9707 49.8051H72.2847ZM81.2211 46.2771C80.5677 46.2771 80.0404 46.1511 79.6391 45.8991C79.2377 45.6378 78.9484 45.2784 78.7711 44.8211C78.5937 44.3638 78.5051 43.8224 78.5051 43.1971L78.4911 37.0231H80.0311L80.0451 43.1971C80.0451 43.5984 80.0684 43.8878 80.1151 44.0651C80.1711 44.2331 80.2737 44.3498 80.4231 44.4151C80.5817 44.4804 80.8477 44.5131 81.2211 44.5131H81.6271L81.6971 45.4231L81.6271 46.2771H81.2211ZM87.0866 42.2451C87.572 41.5078 88.0526 40.9711 88.5286 40.6351C89.0046 40.2991 89.5506 40.1311 90.1666 40.1311C90.7546 40.1311 91.254 40.2758 91.6646 40.5651C92.0846 40.8544 92.3973 41.2418 92.6026 41.7271C92.8173 42.2031 92.9246 42.7258 92.9246 43.2951C92.9246 43.8551 92.794 44.3638 92.5326 44.8211C92.2713 45.2691 91.9073 45.6238 91.4406 45.8851C90.974 46.1464 90.4466 46.2771 89.8586 46.2771H86.1906C85.808 46.2771 85.4206 46.1791 85.0286 45.9831C84.6366 45.7871 84.3006 45.4978 84.0206 45.1151C83.7406 44.7324 83.6006 44.2844 83.6006 43.7711V41.7131H85.1546V43.7711C85.1546 44.0511 85.2433 44.2471 85.4206 44.3591C85.598 44.4618 85.822 44.5131 86.0926 44.5131H89.8586C90.3533 44.5131 90.7313 44.4104 90.9926 44.2051C91.2633 43.9998 91.3986 43.6918 91.3986 43.2811C91.3986 42.8518 91.296 42.5158 91.0906 42.2731C90.8853 42.0211 90.5726 41.8951 90.1526 41.8951C89.91 41.8951 89.7 41.9371 89.5226 42.0211C89.3453 42.0958 89.1726 42.2171 89.0046 42.3851C88.8366 42.5438 88.6313 42.7818 88.3886 43.0991C87.922 43.7058 87.292 44.5598 86.4986 45.6611L85.3506 44.8491L87.0866 42.2451ZM85.1546 43.7711C85.1546 44.2378 85.0146 44.6671 84.7346 45.0591C84.464 45.4418 84.114 45.7404 83.6846 45.9551C83.2646 46.1698 82.8353 46.2771 82.3966 46.2771H81.4026V44.5131H82.4246C82.8073 44.5131 83.0966 44.4571 83.2926 44.3451C83.498 44.2238 83.6006 44.0324 83.6006 43.7711H85.1546ZM93.8206 46.2771C93.466 46.2771 93.1253 46.2024 92.7986 46.0531C92.4813 45.9038 92.2153 45.7218 92.0006 45.5071C91.7953 45.2831 91.6646 45.0638 91.6086 44.8491L92.4626 43.7851C92.5653 44.0278 92.7286 44.2098 92.9526 44.3311C93.1766 44.4524 93.48 44.5131 93.8626 44.5131H94.2126L94.3526 45.4091L94.2126 46.2771H93.8206ZM94.1058 44.5131H95.7578C96.2244 44.5131 96.5511 44.4338 96.7378 44.2751C96.9338 44.1164 97.0224 43.8924 97.0038 43.6031C96.9851 43.3418 96.9338 42.9824 96.8498 42.5251C96.7751 42.0584 96.6958 41.6198 96.6118 41.2091L98.0818 40.8311C98.1938 41.2884 98.2964 41.7924 98.3898 42.3431C98.4831 42.8844 98.5391 43.3278 98.5578 43.6731C98.5671 44.1211 98.4738 44.5458 98.2778 44.9471C98.0818 45.3391 97.7784 45.6611 97.3678 45.9131C96.9571 46.1558 96.4531 46.2771 95.8558 46.2771H94.1058V44.5131ZM94.5678 37.6671C94.8104 37.6671 94.9878 37.6671 95.0998 37.6671C95.2211 37.6671 95.3984 37.6671 95.6318 37.6671C95.8091 37.6671 95.9818 37.6671 96.1498 37.6671C96.1498 38.0311 96.1498 38.3018 96.1498 38.4791C96.1498 38.6471 96.1498 38.9038 96.1498 39.2491C95.7951 39.2491 95.5291 39.2491 95.3518 39.2491C95.1838 39.2491 94.9224 39.2491 94.5678 39.2491C94.5678 38.8851 94.5678 38.6191 94.5678 38.4511C94.5678 38.2831 94.5678 38.0218 94.5678 37.6671ZM97.1578 37.6671C97.5218 37.6671 97.7878 37.6671 97.9558 37.6671C98.1331 37.6671 98.3944 37.6671 98.7398 37.6671C98.7398 38.0311 98.7398 38.3018 98.7398 38.4791C98.7398 38.6471 98.7398 38.9038 98.7398 39.2491C98.3758 39.2491 98.1051 39.2491 97.9278 39.2491C97.7598 39.2491 97.5031 39.2491 97.1578 39.2491C97.1578 38.8851 97.1578 38.6191 97.1578 38.4511C97.1578 38.2831 97.1578 38.0218 97.1578 37.6671ZM100.41 37.0231H101.95L101.964 46.2771H100.424L100.41 37.0231ZM112.432 43.1971C112.554 43.6824 112.782 44.0231 113.118 44.2191C113.454 44.4151 113.865 44.5131 114.35 44.5131H114.63L114.728 45.3671L114.63 46.2771H114.35C113.594 46.2771 112.89 46.0671 112.236 45.6471C111.592 45.2178 111.154 44.5411 110.92 43.6171C110.528 41.9558 110.136 40.2944 109.744 38.6331L111.256 38.2411L112.432 43.1971ZM111.984 41.5871C112.05 42.1938 112.05 42.7024 111.984 43.1131C111.928 43.5238 111.793 43.9111 111.578 44.2751C111.317 44.7324 110.986 45.0871 110.584 45.3391C110.183 45.5911 109.749 45.7171 109.282 45.7171C108.816 45.7171 108.358 45.5911 107.91 45.3391C107.472 45.0871 107.131 44.7324 106.888 44.2751C106.646 43.8178 106.524 43.3324 106.524 42.8191C106.524 42.3058 106.646 41.8391 106.888 41.4191C107.066 41.1204 107.262 40.8731 107.476 40.6771C107.7 40.4811 108.055 40.2571 108.54 40.0051C109.026 39.7531 109.744 39.4358 110.696 39.0531L111.284 40.6771C110.556 40.9291 109.982 41.1531 109.562 41.3491C109.142 41.5451 108.839 41.7178 108.652 41.8671C108.475 42.0164 108.335 42.1658 108.232 42.3151C108.074 42.5858 108.032 42.8658 108.106 43.1551C108.181 43.4351 108.349 43.6638 108.61 43.8411C108.872 44.0091 109.166 44.0651 109.492 44.0091C109.819 43.9438 110.099 43.7804 110.332 43.5191C110.491 43.3418 110.584 43.1318 110.612 42.8891C110.64 42.6371 110.612 42.2964 110.528 41.8671L111.984 41.5871ZM114.491 44.5131H115.891C116.292 44.5131 116.577 44.4338 116.745 44.2751C116.922 44.1164 117.001 43.8924 116.983 43.6031C116.973 43.3418 116.927 42.9824 116.843 42.5251C116.768 42.0584 116.684 41.6198 116.591 41.2091L118.075 40.8311C118.177 41.2884 118.275 41.7924 118.369 42.3431C118.471 42.8844 118.527 43.3278 118.537 43.6731C118.546 44.1211 118.453 44.5458 118.257 44.9471C118.07 45.3391 117.785 45.6611 117.403 45.9131C117.02 46.1558 116.549 46.2771 115.989 46.2771H114.491V44.5131ZM114.421 48.1251C114.71 48.1251 114.999 48.1251 115.289 48.1251C115.569 48.1251 115.849 48.1251 116.129 48.1251C116.129 48.5078 116.129 48.7878 116.129 48.9651C116.129 49.1518 116.129 49.4318 116.129 49.8051C115.737 49.8051 115.447 49.8051 115.261 49.8051C115.074 49.8051 114.794 49.8051 114.421 49.8051C114.421 49.4224 114.421 49.1378 114.421 48.9511C114.421 48.7738 114.421 48.4984 114.421 48.1251ZM126.909 41.7131V45.6611C126.909 46.5384 126.76 47.2851 126.461 47.9011C126.163 48.5171 125.719 48.9884 125.131 49.3151C124.543 49.6418 123.829 49.8051 122.989 49.8051H122.107V48.0411H122.989C123.587 48.0411 124.053 47.9664 124.389 47.8171C124.735 47.6678 124.982 47.4204 125.131 47.0751C125.29 46.7391 125.369 46.2678 125.369 45.6611V41.7131H126.909ZM125.271 38.2551C125.561 38.2551 125.85 38.2551 126.139 38.2551C126.419 38.2551 126.699 38.2551 126.979 38.2551C126.979 38.6378 126.979 38.9224 126.979 39.1091C126.979 39.2864 126.979 39.5618 126.979 39.9351C126.587 39.9351 126.298 39.9351 126.111 39.9351C125.925 39.9351 125.645 39.9351 125.271 39.9351C125.271 39.5524 125.271 39.2724 125.271 39.0951C125.271 38.9084 125.271 38.6284 125.271 38.2551ZM131.246 46.2771C130.593 46.2771 130.066 46.1511 129.664 45.8991C129.263 45.6378 128.974 45.2784 128.796 44.8211C128.619 44.3638 128.53 43.8224 128.53 43.1971L128.516 37.0231H130.056L130.07 43.1971C130.07 43.5984 130.094 43.8878 130.14 44.0651C130.196 44.2331 130.299 44.3498 130.448 44.4151C130.607 44.4804 130.873 44.5131 131.246 44.5131H131.652L131.722 45.4231L131.652 46.2771H131.246ZM135.796 41.7131V43.7291C135.796 44.0184 135.871 44.2238 136.02 44.3451C136.169 44.4571 136.403 44.5131 136.72 44.5131H137.462L137.546 45.4371L137.462 46.2771H136.72C136.356 46.2771 135.983 46.1838 135.6 45.9971C135.217 45.8104 134.895 45.5211 134.634 45.1291C134.373 44.7278 134.242 44.2284 134.242 43.6311V41.7131H135.796ZM135.684 43.7711C135.684 44.3031 135.558 44.7604 135.306 45.1431C135.054 45.5164 134.727 45.8011 134.326 45.9971C133.925 46.1838 133.509 46.2771 133.08 46.2771H131.512V44.5131H133.08C133.491 44.5131 133.785 44.4478 133.962 44.3171C134.149 44.1771 134.242 43.9484 134.242 43.6311L135.684 43.7711ZM130.714 48.1251C130.957 48.1251 131.139 48.1251 131.26 48.1251C131.372 48.1251 131.545 48.1251 131.778 48.1251C131.955 48.1251 132.128 48.1251 132.296 48.1251C132.296 48.4891 132.296 48.7551 132.296 48.9231C132.296 49.1004 132.296 49.3618 132.296 49.7071C131.941 49.7071 131.68 49.7071 131.512 49.7071C131.335 49.7071 131.069 49.7071 130.714 49.7071C130.714 49.3431 130.714 49.0771 130.714 48.9091C130.714 48.7411 130.714 48.4798 130.714 48.1251ZM133.304 48.1251C133.668 48.1251 133.934 48.1251 134.102 48.1251C134.279 48.1251 134.541 48.1251 134.886 48.1251C134.886 48.4891 134.886 48.7551 134.886 48.9231C134.886 49.1004 134.886 49.3618 134.886 49.7071C134.522 49.7071 134.251 49.7071 134.074 49.7071C133.906 49.7071 133.649 49.7071 133.304 49.7071C133.304 49.3431 133.304 49.0771 133.304 48.9091C133.304 48.7411 133.304 48.4798 133.304 48.1251ZM137.323 44.5131H138.723C139.124 44.5131 139.409 44.4338 139.577 44.2751C139.754 44.1164 139.833 43.8924 139.815 43.6031C139.805 43.3418 139.759 42.9824 139.675 42.5251C139.6 42.0584 139.516 41.6198 139.423 41.2091L140.907 40.8311C141.009 41.2884 141.107 41.7924 141.201 42.3431C141.303 42.8844 141.359 43.3278 141.369 43.6731C141.378 44.1211 141.285 44.5458 141.089 44.9471C140.902 45.3391 140.617 45.6611 140.235 45.9131C139.852 46.1558 139.381 46.2771 138.821 46.2771H137.323V44.5131ZM138.639 37.5691C138.928 37.5691 139.217 37.5691 139.507 37.5691C139.787 37.5691 140.067 37.5691 140.347 37.5691C140.347 37.9518 140.347 38.2364 140.347 38.4231C140.347 38.6004 140.347 38.8758 140.347 39.2491C139.955 39.2491 139.665 39.2491 139.479 39.2491C139.292 39.2491 139.012 39.2491 138.639 39.2491C138.639 38.8664 138.639 38.5864 138.639 38.4091C138.639 38.2224 138.639 37.9424 138.639 37.5691ZM82.6156 64.2771C81.9623 64.2771 81.4349 64.1511 81.0336 63.8991C80.6323 63.6378 80.3429 63.2784 80.1656 62.8211C79.9883 62.3638 79.8996 61.8224 79.8996 61.1971L79.8856 55.0231H81.4256L81.4396 61.1971C81.4396 61.5984 81.4629 61.8878 81.5096 62.0651C81.5656 62.2331 81.6683 62.3498 81.8176 62.4151C81.9763 62.4804 82.2423 62.5131 82.6156 62.5131H83.0216L83.0916 63.4231L83.0216 64.2771H82.6156ZM82.8812 62.5131H83.2592C83.4552 62.5131 83.6045 62.4711 83.7072 62.3871C83.8192 62.2938 83.9032 62.1398 83.9592 61.9251L84.3372 60.4971C84.5518 59.7131 84.8925 59.1111 85.3592 58.6911C85.8258 58.2618 86.3858 58.0471 87.0392 58.0471C87.5618 58.0471 88.0238 58.1918 88.4252 58.4811C88.8358 58.7704 89.1532 59.1718 89.3772 59.6851C89.6105 60.1891 89.7272 60.7491 89.7272 61.3651C89.7272 62.1118 89.6105 62.7231 89.3772 63.1991C89.1532 63.6751 88.8592 64.0204 88.4952 64.2351C88.1405 64.4404 87.7718 64.5431 87.3892 64.5431C87.0345 64.5431 86.6612 64.4684 86.2692 64.3191C85.8865 64.1698 85.2892 63.8944 84.4772 63.4931L84.1132 63.3251L84.8132 61.7991C84.8878 61.8364 84.9578 61.8738 85.0232 61.9111C85.7792 62.2751 86.3065 62.5178 86.6052 62.6391C86.9132 62.7604 87.1885 62.8211 87.4312 62.8211C87.7018 62.8211 87.9072 62.7138 88.0472 62.4991C88.1872 62.2751 88.2572 61.8971 88.2572 61.3651C88.2572 60.8611 88.1545 60.4738 87.9492 60.2031C87.7438 59.9231 87.4592 59.7784 87.0952 59.7691C86.7965 59.7598 86.5352 59.8624 86.3112 60.0771C86.0872 60.2824 85.9192 60.5858 85.8072 60.9871L85.4012 62.5691C85.3172 62.8864 85.1632 63.1758 84.9392 63.4371C84.7245 63.6984 84.4678 63.9038 84.1692 64.0531C83.8798 64.2024 83.5812 64.2771 83.2732 64.2771H82.8812V62.5131ZM95.2574 58.0051C95.5561 58.4718 95.8034 58.8638 95.9994 59.1811C96.2047 59.4891 96.4521 59.8671 96.7414 60.3151C97.0587 60.8098 97.2267 61.3231 97.2454 61.8551C97.2734 62.3871 97.1567 62.8351 96.8954 63.1991C96.6154 63.5911 96.2747 63.8711 95.8734 64.0391C95.4814 64.1978 95.0241 64.2771 94.5014 64.2771H93.7454C93.1947 64.2771 92.7001 64.1884 92.2614 64.0111C91.8321 63.8338 91.4867 63.6424 91.2254 63.4371L91.9674 62.0091L92.0374 62.0371C92.2521 62.1678 92.4947 62.2798 92.7654 62.3731C93.0361 62.4664 93.3674 62.5131 93.7594 62.5131H94.4594C94.7861 62.5131 95.0381 62.4898 95.2154 62.4431C95.3927 62.3871 95.5281 62.2891 95.6214 62.1491C95.7054 62.0464 95.7334 61.9204 95.7054 61.7711C95.6774 61.6218 95.5887 61.4351 95.4394 61.2111C94.6274 59.9604 93.9181 58.8871 93.3114 57.9911L94.6134 57.0111L95.2574 58.0051ZM105.691 59.7131V63.6611C105.691 64.5384 105.541 65.2851 105.243 65.9011C104.944 66.5171 104.501 66.9884 103.913 67.3151C103.325 67.6418 102.611 67.8051 101.771 67.8051H100.889V66.0411H101.771C102.368 66.0411 102.835 65.9664 103.171 65.8171C103.516 65.6678 103.763 65.4204 103.913 65.0751C104.071 64.7391 104.151 64.2678 104.151 63.6611V59.7131H105.691ZM108.837 66.1111C109.463 66.1111 109.934 66.0458 110.251 65.9151C110.569 65.7938 110.783 65.5931 110.895 65.3131C111.017 65.0424 111.077 64.6598 111.077 64.1651V61.3931C111.077 60.8984 110.97 60.5111 110.755 60.2311C110.55 59.9511 110.219 59.8111 109.761 59.8111C109.341 59.8111 109.019 59.9558 108.795 60.2451C108.581 60.5251 108.473 60.8984 108.473 61.3651C108.473 61.7851 108.576 62.0931 108.781 62.2891C108.987 62.4758 109.318 62.5691 109.775 62.5691H111.497L111.959 62.5131H113.415L113.513 63.4091L113.415 64.2771H109.775C108.917 64.2771 108.235 64.0251 107.731 63.5211C107.227 63.0171 106.975 62.3171 106.975 61.4211C106.975 60.7864 107.092 60.2218 107.325 59.7271C107.568 59.2231 107.899 58.8311 108.319 58.5511C108.739 58.2711 109.22 58.1311 109.761 58.1311C110.331 58.1311 110.83 58.2711 111.259 58.5511C111.698 58.8218 112.034 59.2044 112.267 59.6991C112.51 60.1938 112.631 60.7678 112.631 61.4211V64.1651C112.631 64.8931 112.505 65.5324 112.253 66.0831C112.001 66.6338 111.591 67.0678 111.021 67.3851C110.461 67.7118 109.733 67.8751 108.837 67.8751H107.213V66.1111H108.837ZM119.518 63.4371C119.322 63.6984 119.07 63.9038 118.762 64.0531C118.454 64.2024 118.118 64.2771 117.754 64.2771C117.418 64.2771 117.077 64.1978 116.732 64.0391C116.396 63.8804 116.148 63.6798 115.99 63.4371C115.803 63.6984 115.551 63.9038 115.234 64.0531C114.926 64.2024 114.576 64.2771 114.184 64.2771H113.274V62.5131H114.24C114.613 62.5131 114.874 62.4431 115.024 62.3031C115.182 62.1538 115.262 61.8971 115.262 61.5331V59.7131H116.816V61.5191C116.816 61.8644 116.895 62.1164 117.054 62.2751C117.212 62.4338 117.455 62.5131 117.782 62.5131C118.118 62.5131 118.36 62.4338 118.51 62.2751C118.668 62.1164 118.748 61.8644 118.748 61.5191V59.7131H120.302L120.288 61.5191C120.288 61.8644 120.376 62.1164 120.554 62.2751C120.731 62.4338 120.974 62.5131 121.282 62.5131C121.608 62.5131 121.846 62.4338 121.996 62.2751C122.145 62.1164 122.22 61.8644 122.22 61.5191V59.7131H123.774V61.5331C123.774 61.8971 123.848 62.1538 123.998 62.3031C124.156 62.4431 124.422 62.5131 124.796 62.5131H125.762L125.846 63.3951L125.762 64.2771H124.852C124.469 64.2771 124.119 64.2024 123.802 64.0531C123.484 63.9038 123.232 63.6984 123.046 63.4371C122.887 63.6798 122.635 63.8804 122.29 64.0391C121.954 64.1978 121.622 64.2771 121.296 64.2771C120.932 64.2771 120.6 64.2024 120.302 64.0531C120.003 63.9038 119.742 63.6984 119.518 63.4371ZM129.567 59.7131V61.7291C129.567 62.0184 129.642 62.2238 129.791 62.3451C129.941 62.4571 130.174 62.5131 130.491 62.5131H130.939L131.023 63.4371L130.939 64.2771H130.491C130.127 64.2771 129.754 64.1838 129.371 63.9971C128.989 63.8104 128.667 63.5211 128.405 63.1291C128.144 62.7278 128.013 62.2284 128.013 61.6311V59.7131H129.567ZM129.455 61.7711C129.455 62.3031 129.329 62.7604 129.077 63.1431C128.825 63.5164 128.499 63.8011 128.097 63.9971C127.696 64.1838 127.276 64.2771 126.837 64.2771H125.619V62.5131H126.837C127.257 62.5131 127.556 62.4478 127.733 62.3171C127.92 62.1771 128.013 61.9484 128.013 61.6311L129.455 61.7711ZM127.117 56.3951C127.407 56.3951 127.696 56.3951 127.985 56.3951C128.265 56.3951 128.545 56.3951 128.825 56.3951C128.825 56.7778 128.825 57.0624 128.825 57.2491C128.825 57.4264 128.825 57.7018 128.825 58.0751C128.433 58.0751 128.144 58.0751 127.957 58.0751C127.771 58.0751 127.491 58.0751 127.117 58.0751C127.117 57.6924 127.117 57.4124 127.117 57.2351C127.117 57.0484 127.117 56.7684 127.117 56.3951ZM130.801 62.5131H131.767C132.131 62.5131 132.392 62.4384 132.551 62.2891C132.71 62.1304 132.789 61.8784 132.789 61.5331V59.7131H134.343V61.6171C134.343 61.9251 134.427 62.1491 134.595 62.2891C134.763 62.4291 134.996 62.5038 135.295 62.5131C135.64 62.5038 135.897 62.4198 136.065 62.2611C136.242 62.1024 136.331 61.8551 136.331 61.5191L136.317 59.7131H137.871V61.6171C137.871 61.9251 137.946 62.1491 138.095 62.2891C138.254 62.4291 138.487 62.5038 138.795 62.5131C139.122 62.5038 139.374 62.4198 139.551 62.2611C139.728 62.0931 139.803 61.8691 139.775 61.5891C139.728 61.2251 139.668 60.8471 139.593 60.4551C139.528 60.0631 139.453 59.6478 139.369 59.2091L140.839 58.8311C140.951 59.2884 141.054 59.7924 141.147 60.3431C141.24 60.8844 141.292 61.3278 141.301 61.6731C141.31 62.1211 141.226 62.5458 141.049 62.9471C140.872 63.3391 140.592 63.6611 140.209 63.9131C139.836 64.1558 139.364 64.2771 138.795 64.2771C138.459 64.2771 138.137 64.2071 137.829 64.0671C137.53 63.9178 137.274 63.7078 137.059 63.4371C136.844 63.6984 136.583 63.9038 136.275 64.0531C135.967 64.2024 135.631 64.2771 135.267 64.2771C134.95 64.2771 134.623 64.1978 134.287 64.0391C133.951 63.8804 133.694 63.6798 133.517 63.4371C133.33 63.6984 133.078 63.9038 132.761 64.0531C132.453 64.2024 132.103 64.2771 131.711 64.2771H130.801V62.5131Z" fill="#263238"/>
<rect x="154" y="28.2771" width="46" height="46" rx="5.93548" fill="#FFA31F"/>
<mask id="path-4-inside-1_2075_52446" fill="white">
<path d="M177 42.8377C175.568 42.8377 174.403 44.0022 174.403 45.4345V52.5107C174.403 52.7582 174.31 52.9935 174.144 53.1721C173.498 53.8659 173.105 54.7951 173.105 55.8216C173.105 57.972 174.85 59.7167 177 59.7167C179.15 59.7167 180.895 57.972 180.895 55.8216C180.895 54.7991 180.502 53.87 179.856 53.1721C179.69 52.9935 179.597 52.7541 179.597 52.5107V45.4345C179.597 44.0022 178.432 42.8377 177 42.8377ZM172.456 45.4345C172.456 42.9229 174.488 40.8901 177 40.8901C179.512 40.8901 181.544 42.9229 181.544 45.4345V52.1496C182.356 53.1518 182.843 54.4299 182.843 55.8216C182.843 59.0473 180.226 61.6643 177 61.6643C173.774 61.6643 171.157 59.0473 171.157 55.8216C171.157 54.4299 171.644 53.1518 172.456 52.1496V45.4345ZM178.948 55.8216C178.948 56.8968 178.075 57.7692 177 57.7692C175.925 57.7692 175.052 56.8968 175.052 55.8216C175.052 55.0994 175.446 54.4705 176.026 54.1337V50.9526C176.026 50.413 176.46 49.9788 177 49.9788C177.54 49.9788 177.974 50.413 177.974 50.9526V54.1337C178.554 54.4705 178.948 55.0994 178.948 55.8216Z"/>
</mask>
<path d="M177 42.8377C175.568 42.8377 174.403 44.0022 174.403 45.4345V52.5107C174.403 52.7582 174.31 52.9935 174.144 53.1721C173.498 53.8659 173.105 54.7951 173.105 55.8216C173.105 57.972 174.85 59.7167 177 59.7167C179.15 59.7167 180.895 57.972 180.895 55.8216C180.895 54.7991 180.502 53.87 179.856 53.1721C179.69 52.9935 179.597 52.7541 179.597 52.5107V45.4345C179.597 44.0022 178.432 42.8377 177 42.8377ZM172.456 45.4345C172.456 42.9229 174.488 40.8901 177 40.8901C179.512 40.8901 181.544 42.9229 181.544 45.4345V52.1496C182.356 53.1518 182.843 54.4299 182.843 55.8216C182.843 59.0473 180.226 61.6643 177 61.6643C173.774 61.6643 171.157 59.0473 171.157 55.8216C171.157 54.4299 171.644 53.1518 172.456 52.1496V45.4345ZM178.948 55.8216C178.948 56.8968 178.075 57.7692 177 57.7692C175.925 57.7692 175.052 56.8968 175.052 55.8216C175.052 55.0994 175.446 54.4705 176.026 54.1337V50.9526C176.026 50.413 176.46 49.9788 177 49.9788C177.54 49.9788 177.974 50.413 177.974 50.9526V54.1337C178.554 54.4705 178.948 55.0994 178.948 55.8216Z" fill="white"/>
<path d="M174.144 53.1721L168.824 48.2153L168.819 48.2209L174.144 53.1721ZM179.856 53.1721L185.196 48.2364L185.186 48.2258L185.176 48.2153L179.856 53.1721ZM181.544 52.1496H174.273V54.7242L175.894 56.7251L181.544 52.1496ZM172.456 52.1496L178.106 56.7251L179.727 54.7242V52.1496H172.456ZM176.026 54.1337L179.676 60.4222L183.297 58.3204V54.1337H176.026ZM177.974 54.1337H170.703V58.3204L174.324 60.4222L177.974 54.1337ZM177 42.8377V35.5667C171.552 35.5667 167.132 39.9866 167.132 45.4345H174.403H181.674C181.674 48.0179 179.583 50.1087 177 50.1087V42.8377ZM174.403 45.4345H167.132V52.5107H174.403H181.674V45.4345H174.403ZM174.403 52.5107H167.132C167.132 50.9188 167.736 49.3828 168.824 48.2153L174.144 53.1721L179.463 58.1289C180.884 56.6042 181.674 54.5976 181.674 52.5107H174.403ZM174.144 53.1721L168.819 48.2209C166.967 50.2126 165.834 52.8943 165.834 55.8216H173.105H180.376C180.376 56.6958 180.03 57.5192 179.468 58.1232L174.144 53.1721ZM173.105 55.8216H165.834C165.834 61.9877 170.834 66.9877 177 66.9877V59.7167V52.4458C178.865 52.4458 180.376 53.9564 180.376 55.8216H173.105ZM177 59.7167V66.9877C183.166 66.9877 188.166 61.9877 188.166 55.8216H180.895H173.624C173.624 53.9564 175.135 52.4458 177 52.4458V59.7167ZM180.895 55.8216H188.166C188.166 52.8908 187.028 50.219 185.196 48.2364L179.856 53.1721L174.517 58.1077C173.975 57.5209 173.624 56.7074 173.624 55.8216H180.895ZM179.856 53.1721L185.176 48.2153C186.275 49.3945 186.868 50.9308 186.868 52.5107H179.597H172.326C172.326 54.5775 173.105 56.5926 174.537 58.1289L179.856 53.1721ZM179.597 52.5107H186.868V45.4345H179.597H172.326V52.5107H179.597ZM179.597 45.4345H186.868C186.868 39.9866 182.448 35.5667 177 35.5667V42.8377V50.1087C174.417 50.1087 172.326 48.0179 172.326 45.4345H179.597ZM172.456 45.4345H179.727C179.727 46.9386 178.504 48.1611 177 48.1611V40.8901V33.6192C170.473 33.6192 165.185 38.9073 165.185 45.4345H172.456ZM177 40.8901V48.1611C175.496 48.1611 174.273 46.9386 174.273 45.4345H181.544H188.815C188.815 38.9073 183.527 33.6192 177 33.6192V40.8901ZM181.544 45.4345H174.273V52.1496H181.544H188.815V45.4345H181.544ZM181.544 52.1496L175.894 56.7251C175.695 56.4796 175.572 56.155 175.572 55.8216H182.843H190.114C190.114 52.7048 189.017 49.8239 187.195 47.574L181.544 52.1496ZM182.843 55.8216H175.572C175.572 55.0316 176.21 54.3934 177 54.3934V61.6643V68.9353C184.241 68.9353 190.114 63.0629 190.114 55.8216H182.843ZM177 61.6643V54.3934C177.79 54.3934 178.428 55.0316 178.428 55.8216H171.157H163.886C163.886 63.0629 169.759 68.9353 177 68.9353V61.6643ZM171.157 55.8216H178.428C178.428 56.155 178.305 56.4796 178.106 56.7251L172.456 52.1496L166.805 47.574C164.983 49.8239 163.886 52.7048 163.886 55.8216H171.157ZM172.456 52.1496H179.727V45.4345H172.456H165.185V52.1496H172.456ZM178.948 55.8216H171.677C171.677 52.8812 174.06 50.4982 177 50.4982V57.7692V65.0401C182.091 65.0401 186.219 60.9125 186.219 55.8216H178.948ZM177 57.7692V50.4982C179.94 50.4982 182.323 52.8812 182.323 55.8216H175.052H167.781C167.781 60.9125 171.909 65.0401 177 65.0401V57.7692ZM175.052 55.8216H182.323C182.323 57.8099 181.233 59.5187 179.676 60.4222L176.026 54.1337L172.376 47.8452C169.659 49.4222 167.781 52.3888 167.781 55.8216H175.052ZM176.026 54.1337H183.297V50.9526H176.026H168.755V54.1337H176.026ZM176.026 50.9526H183.297C183.297 54.4286 180.476 57.2498 177 57.2498V49.9788V42.7079C172.445 42.7079 168.755 46.3973 168.755 50.9526H176.026ZM177 49.9788V57.2498C173.524 57.2498 170.703 54.4286 170.703 50.9526H177.974H185.245C185.245 46.3973 181.555 42.7079 177 42.7079V49.9788ZM177.974 50.9526H170.703V54.1337H177.974H185.245V50.9526H177.974ZM177.974 54.1337L174.324 60.4222C172.767 59.5187 171.677 57.8099 171.677 55.8216H178.948H186.219C186.219 52.3888 184.341 49.4222 181.624 47.8452L177.974 54.1337Z" fill="white" mask="url(#path-4-inside-1_2075_52446)"/>
</g>
<defs>
<filter id="filter0_d_2075_52446" x="-9" y="-8.7229" width="246" height="120" filterUnits="userSpaceOnUse" color-interpolation-filters="sRGB">
<feFlood flood-opacity="0" result="BackgroundImageFix"/>
<feColorMatrix in="SourceAlpha" type="matrix" values="0 0 0 0 0 0 0 0 0 0 0 0 0 0 0 0 0 0 127 0" result="hardAlpha"/>
<feOffset/>
<feGaussianBlur stdDeviation="12.5"/>
<feComposite in2="hardAlpha" operator="out"/>
<feColorMatrix type="matrix" values="0 0 0 0 0.207843 0 0 0 0 0.290196 0 0 0 0 0.32549 0 0 0 0.08 0"/>
<feBlend mode="normal" in2="BackgroundImageFix" result="effect1_dropShadow_2075_52446"/>
<feBlend mode="normal" in="SourceGraphic" in2="effect1_dropShadow_2075_52446" result="shape"/>
</filter>
</defs>
</svg>
