<svg width="46" height="46" viewBox="0 0 46 46" fill="none" xmlns="http://www.w3.org/2000/svg">
<rect width="46" height="46" rx="5.93548" fill="#45CE7E"/>
<path d="M22.9982 16.3226C19.2046 16.3226 15.7699 17.825 13.245 20.2706C12.715 20.7839 11.8678 20.7714 11.3586 20.2414C10.8495 19.7114 10.8578 18.8642 11.3878 18.355C14.3885 15.442 18.4868 13.6516 22.9982 13.6516C27.5096 13.6516 31.6079 15.442 34.6127 18.355C35.1427 18.8683 35.1553 19.7155 34.6419 20.2414C34.1286 20.7672 33.2814 20.7839 32.7556 20.2706C30.2265 17.825 26.7918 16.3226 22.9982 16.3226ZM20.995 30.3452C20.995 29.2392 21.8922 28.3419 22.9982 28.3419C24.1041 28.3419 25.0014 29.2392 25.0014 30.3452C25.0014 31.4511 24.1041 32.3484 22.9982 32.3484C21.8922 32.3484 20.995 31.4511 20.995 30.3452ZM17.9901 25.9297C17.5018 26.4848 16.6588 26.5349 16.1038 26.0466C15.5487 25.5583 15.4986 24.7153 15.9869 24.1602C17.698 22.2237 20.2062 20.9968 22.9982 20.9968C25.7902 20.9968 28.2984 22.2237 30.0095 24.1602C30.4978 24.7153 30.4435 25.5583 29.8926 26.0466C29.3417 26.5349 28.4945 26.4806 28.0063 25.9297C26.7793 24.54 24.9931 23.6677 22.9982 23.6677C21.0033 23.6677 19.2171 24.54 17.9901 25.9297Z" fill="white"/>
</svg>
