<svg width="239" height="121" viewBox="0 0 239 121" fill="none" xmlns="http://www.w3.org/2000/svg">
<g filter="url(#filter0_d_2075_52489)">
<rect x="25.666" y="25.2771" width="197.333" height="70" rx="8" fill="white"/>
<path d="M45.814 51.7211C45.562 52.2718 45.366 52.7991 45.226 53.3031C45.0954 53.7978 45.03 54.2551 45.03 54.6751C45.0394 55.1698 45.1234 55.5898 45.282 55.9351C45.45 56.2898 45.702 56.5604 46.038 56.7471C46.374 56.9431 46.8127 57.0411 47.354 57.0411H48.656C49.132 57.0411 49.5287 57.0038 49.846 56.9291C50.1727 56.8544 50.4107 56.7518 50.56 56.6211C50.7187 56.4904 50.8027 56.3458 50.812 56.1871C50.812 56.0751 50.7747 55.9678 50.7 55.8651C50.6254 55.7624 50.4854 55.6738 50.28 55.5991C50.0934 55.5151 49.8554 55.4498 49.566 55.4031C49.286 55.3564 48.9594 55.3191 48.586 55.2911C48.4647 55.2818 48.2827 55.2771 48.04 55.2771V53.5131H52.688L52.786 54.3671L52.688 55.2771H52.058C52.1514 55.3891 52.2214 55.5198 52.268 55.6691C52.324 55.8278 52.352 55.9958 52.352 56.1731C52.3427 56.6304 52.1887 57.0551 51.89 57.4471C51.6007 57.8484 51.1807 58.1751 50.63 58.4271C50.0794 58.6791 49.4214 58.8051 48.656 58.8051H47.354C46.5607 58.8051 45.8747 58.6184 45.296 58.2451C44.7267 57.8811 44.288 57.3864 43.98 56.7611C43.672 56.1358 43.5134 55.4451 43.504 54.6891C43.4947 54.1478 43.5834 53.5504 43.77 52.8971C43.9567 52.2344 44.19 51.6044 44.47 51.0071L45.814 51.7211ZM55.7424 52.6311C55.7424 53.2284 55.6118 53.7278 55.3504 54.1291C55.0891 54.5211 54.7671 54.8104 54.3844 54.9971C54.0111 55.1838 53.6424 55.2771 53.2784 55.2771H52.5504V53.5131H53.1664C53.5118 53.5131 53.7684 53.4384 53.9364 53.2891C54.1138 53.1304 54.2024 52.8691 54.2024 52.5051V46.0231H55.7424V52.6311ZM60.6384 55.2771C59.9851 55.2771 59.4577 55.1511 59.0564 54.8991C58.6551 54.6378 58.3657 54.2784 58.1884 53.8211C58.0111 53.3638 57.9224 52.8224 57.9224 52.1971L57.9084 46.0231H59.4484L59.4624 52.1971C59.4624 52.5984 59.4857 52.8878 59.5324 53.0651C59.5884 53.2331 59.6911 53.3498 59.8404 53.4151C59.9991 53.4804 60.2651 53.5131 60.6384 53.5131H61.0444L61.1144 54.4231L61.0444 55.2771H60.6384ZM60.904 53.5131H61.548C62.0426 53.5131 62.4626 53.4991 62.808 53.4711C63.1533 53.4338 63.4613 53.3778 63.732 53.3031L62.864 52.1131C62.4533 51.5438 62.1686 51.1518 62.01 50.9371L62.976 49.1871H66.714C67.2646 49.1871 67.7033 49.3738 68.03 49.7471C68.366 50.1204 68.5246 50.5638 68.506 51.0771C68.4873 51.5904 68.2866 52.0431 67.904 52.4351L67.498 52.8271C67.2833 53.0138 67.0733 53.2098 66.868 53.4151C67.0453 53.4524 67.2086 53.4804 67.358 53.4991C67.5073 53.5084 67.6986 53.5131 67.932 53.5131H69.318L69.43 54.4091L69.318 55.2771H67.484C67.0173 55.2771 66.6113 55.2164 66.266 55.0951C65.9206 54.9738 65.58 54.7964 65.244 54.5631C64.8333 54.7964 64.3713 54.9738 63.858 55.0951C63.3446 55.2164 62.7333 55.2771 62.024 55.2771H60.904V53.5131ZM65.342 52.9671C65.5566 52.7618 65.8413 52.4678 66.196 52.0851C66.4013 51.8704 66.6066 51.6651 66.812 51.4691C66.9053 51.3758 66.9566 51.2731 66.966 51.1611C66.9753 51.0491 66.938 50.9604 66.854 50.8951C66.77 50.8204 66.6486 50.7831 66.49 50.7831H63.704C63.9 51.0258 64.1753 51.3851 64.53 51.8611C64.81 52.2531 65.0806 52.6218 65.342 52.9671ZM69.1754 53.5131H71.4574H71.5274C72.1714 53.5038 72.6334 53.4571 72.9134 53.3731C73.2028 53.2891 73.3941 53.1351 73.4874 52.9111C73.5808 52.6871 73.6274 52.3324 73.6274 51.8471V50.2651C73.6274 49.9104 73.5388 49.6258 73.3614 49.4111C73.1841 49.1964 72.9134 49.0891 72.5494 49.0891C72.2041 49.0891 71.9381 49.2011 71.7514 49.4251C71.5648 49.6398 71.4714 49.9198 71.4714 50.2651C71.4714 50.5544 71.5508 50.7784 71.7094 50.9371C71.8774 51.0958 72.1388 51.1938 72.4934 51.2311L74.3414 51.5671L74.1874 53.1071L72.3674 52.9111C71.8728 52.8458 71.4481 52.7104 71.0934 52.5051C70.7481 52.2998 70.4728 52.0104 70.2674 51.6371C70.0714 51.2638 69.9734 50.8111 69.9734 50.2791C69.9734 49.7284 70.0901 49.2384 70.3234 48.8091C70.5568 48.3798 70.8694 48.0438 71.2614 47.8011C71.6534 47.5584 72.0828 47.4371 72.5494 47.4371C73.0441 47.4371 73.4874 47.5584 73.8794 47.8011C74.2714 48.0344 74.5748 48.3704 74.7894 48.8091C75.0041 49.2384 75.1114 49.7284 75.1114 50.2791V51.4831C75.1114 52.2484 74.9994 52.9111 74.7754 53.4711C74.5514 54.0311 74.1688 54.4744 73.6274 54.8011C73.0954 55.1184 72.3721 55.2771 71.4574 55.2771H69.1754V53.5131ZM71.6954 44.8051C71.9941 44.8051 72.2834 44.8051 72.5634 44.8051C72.8528 44.8051 73.1328 44.8051 73.4034 44.8051C73.4034 45.1878 73.4034 45.4724 73.4034 45.6591C73.4034 45.8364 73.4034 46.1118 73.4034 46.4851C73.0114 46.4851 72.7221 46.4851 72.5354 46.4851C72.3488 46.4851 72.0688 46.4851 71.6954 46.4851C71.6954 46.1024 71.6954 45.8178 71.6954 45.6311C71.6954 45.4444 71.6954 45.1691 71.6954 44.8051ZM82.9194 48.4871C83.5634 49.1964 84.0487 49.7518 84.3754 50.1531C84.7021 50.5451 84.9587 50.9418 85.1454 51.3431C85.3414 51.7351 85.4394 52.1458 85.4394 52.5751C85.4394 53.0978 85.3041 53.5738 85.0334 54.0031C84.7627 54.4324 84.3987 54.7731 83.9414 55.0251C83.4841 55.2678 82.9847 55.3891 82.4434 55.3891C81.9021 55.3891 81.4027 55.2678 80.9454 55.0251C80.4881 54.7731 80.1241 54.4324 79.8534 54.0031C79.5827 53.5738 79.4474 53.0978 79.4474 52.5751C79.4474 52.1271 79.5361 51.7024 79.7134 51.3011C79.9001 50.8998 80.1241 50.5358 80.3854 50.2091C80.6561 49.8731 81.0201 49.4624 81.4774 48.9771L81.7994 48.6271L82.8914 49.7611L82.5414 50.1391C82.1307 50.5684 81.8274 50.8998 81.6314 51.1331C81.4354 51.3664 81.2814 51.5904 81.1694 51.8051C81.0574 52.0198 81.0014 52.2391 81.0014 52.4631C81.0014 52.7991 81.1274 53.0838 81.3794 53.3171C81.6314 53.5504 81.9861 53.6671 82.4434 53.6671C82.9007 53.6671 83.2554 53.5504 83.5074 53.3171C83.7594 53.0838 83.8854 52.7991 83.8854 52.4631C83.8854 52.2671 83.8154 52.0478 83.6754 51.8051C83.5354 51.5624 83.3254 51.2824 83.0454 50.9651C82.7747 50.6384 82.3267 50.1344 81.7014 49.4531C81.5707 49.3038 81.4447 49.1684 81.3234 49.0471C81.2114 48.9258 81.0807 48.7811 80.9314 48.6131L82.0374 47.5211L82.9194 48.4871ZM89.8962 55.2771C89.2429 55.2771 88.7155 55.1511 88.3142 54.8991C87.9129 54.6378 87.6235 54.2784 87.4462 53.8211C87.2689 53.3638 87.1802 52.8224 87.1802 52.1971L87.1662 46.0231H88.7062L88.7202 52.1971C88.7202 52.5984 88.7435 52.8878 88.7902 53.0651C88.8462 53.2331 88.9489 53.3498 89.0982 53.4151C89.2569 53.4804 89.5229 53.5131 89.8962 53.5131H90.3022L90.3722 54.4231L90.3022 55.2771H89.8962ZM96.7444 47.2551L92.8664 48.9771L94.4764 50.9931C94.9244 51.5531 95.1577 52.1738 95.1764 52.8551C95.1951 53.5271 94.9897 54.1011 94.5604 54.5771C94.1311 55.0438 93.5244 55.2771 92.7404 55.2771H90.0524V53.5131H92.7684C93.0764 53.5131 93.3097 53.4524 93.4684 53.3311C93.6271 53.2004 93.6924 53.0371 93.6644 52.8411C93.6457 52.6358 93.5384 52.4164 93.3424 52.1831L91.1864 49.6351L91.5784 47.6471L96.1144 45.6451L96.7444 47.2551ZM97.7384 55.2771H97.5004C96.9964 55.2771 96.5624 55.1884 96.1984 55.0111C95.8437 54.8244 95.4937 54.5491 95.1484 54.1851C94.8124 53.8118 94.2897 53.1958 93.5804 52.3371L93.3284 52.0151L94.4764 50.9931L94.7984 51.3851C95.2931 52.0198 95.6664 52.4724 95.9184 52.7431C96.1704 53.0138 96.4131 53.2098 96.6464 53.3311C96.8797 53.4524 97.1644 53.5131 97.5004 53.5131H97.7384V55.2771ZM91.8024 46.0371L95.3444 44.4831L95.5964 45.0991L91.7184 46.8071L91.8024 46.0371ZM101.883 50.7131V52.7291C101.883 53.0184 101.958 53.2238 102.107 53.3451C102.257 53.4571 102.49 53.5131 102.807 53.5131H103.549L103.633 54.4371L103.549 55.2771H102.807C102.443 55.2771 102.07 55.1838 101.687 54.9971C101.305 54.8104 100.983 54.5211 100.721 54.1291C100.46 53.7278 100.329 53.2284 100.329 52.6311V50.7131H101.883ZM101.771 52.7711C101.771 53.3031 101.645 53.7604 101.393 54.1431C101.141 54.5164 100.815 54.8011 100.413 54.9971C100.012 55.1838 99.5966 55.2771 99.1673 55.2771H97.5993V53.5131H99.1673C99.5779 53.5131 99.8719 53.4478 100.049 53.3171C100.236 53.1771 100.329 52.9484 100.329 52.6311L101.771 52.7711ZM98.0753 47.5071C98.3179 47.5071 98.4953 47.5071 98.6073 47.5071C98.7286 47.5071 98.9059 47.5071 99.1393 47.5071C99.3166 47.5071 99.4893 47.5071 99.6573 47.5071C99.6573 47.8711 99.6573 48.1418 99.6573 48.3191C99.6573 48.4871 99.6573 48.7438 99.6573 49.0891C99.3026 49.0891 99.0366 49.0891 98.8593 49.0891C98.6913 49.0891 98.4299 49.0891 98.0753 49.0891C98.0753 48.7251 98.0753 48.4591 98.0753 48.2911C98.0753 48.1231 98.0753 47.8618 98.0753 47.5071ZM100.665 47.5071C101.029 47.5071 101.295 47.5071 101.463 47.5071C101.641 47.5071 101.902 47.5071 102.247 47.5071C102.247 47.8711 102.247 48.1418 102.247 48.3191C102.247 48.4871 102.247 48.7438 102.247 49.0891C101.883 49.0891 101.613 49.0891 101.435 49.0891C101.267 49.0891 101.011 49.0891 100.665 49.0891C100.665 48.7251 100.665 48.4591 100.665 48.2911C100.665 48.1231 100.665 47.8618 100.665 47.5071ZM103.41 53.5131H104.376C104.74 53.5131 105.001 53.4384 105.16 53.2891C105.318 53.1304 105.398 52.8784 105.398 52.5331V50.7131H106.952V52.6171C106.952 52.9251 107.036 53.1491 107.204 53.2891C107.372 53.4291 107.605 53.5038 107.904 53.5131C108.249 53.5038 108.506 53.4198 108.674 53.2611C108.851 53.1024 108.94 52.8551 108.94 52.5191L108.926 50.7131H110.48V52.6171C110.48 52.9251 110.554 53.1491 110.704 53.2891C110.862 53.4291 111.096 53.5038 111.404 53.5131C111.73 53.5038 111.982 53.4198 112.16 53.2611C112.337 53.0931 112.412 52.8691 112.384 52.5891C112.337 52.2251 112.276 51.8471 112.202 51.4551C112.136 51.0631 112.062 50.6478 111.978 50.2091L113.448 49.8311C113.56 50.2884 113.662 50.7924 113.756 51.3431C113.849 51.8844 113.9 52.3278 113.91 52.6731C113.919 53.1211 113.835 53.5458 113.658 53.9471C113.48 54.3391 113.2 54.6611 112.818 54.9131C112.444 55.1558 111.973 55.2771 111.404 55.2771C111.068 55.2771 110.746 55.2071 110.438 55.0671C110.139 54.9178 109.882 54.7078 109.668 54.4371C109.453 54.6984 109.192 54.9038 108.884 55.0531C108.576 55.2024 108.24 55.2771 107.876 55.2771C107.558 55.2771 107.232 55.1978 106.896 55.0391C106.56 54.8804 106.303 54.6798 106.126 54.4371C105.939 54.6984 105.687 54.9038 105.37 55.0531C105.062 55.2024 104.712 55.2771 104.32 55.2771H103.41V53.5131ZM119.341 49.0051C119.639 49.4718 119.887 49.8638 120.083 50.1811C120.288 50.4891 120.535 50.8671 120.825 51.3151C121.142 51.8098 121.31 52.3231 121.329 52.8551C121.357 53.3871 121.24 53.8351 120.979 54.1991C120.699 54.5911 120.358 54.8711 119.957 55.0391C119.565 55.1978 119.107 55.2771 118.585 55.2771H117.829C117.278 55.2771 116.783 55.1884 116.345 55.0111C115.915 54.8338 115.57 54.6424 115.309 54.4371L116.051 53.0091L116.121 53.0371C116.335 53.1678 116.578 53.2798 116.849 53.3731C117.119 53.4664 117.451 53.5131 117.843 53.5131H118.543C118.869 53.5131 119.121 53.4898 119.299 53.4431C119.476 53.3871 119.611 53.2891 119.705 53.1491C119.789 53.0464 119.817 52.9204 119.789 52.7711C119.761 52.6218 119.672 52.4351 119.523 52.2111C118.711 50.9604 118.001 49.8871 117.395 48.9911L118.697 48.0111L119.341 49.0051ZM129.774 50.7131V54.6611C129.774 55.5384 129.625 56.2851 129.326 56.9011C129.027 57.5171 128.584 57.9884 127.996 58.3151C127.408 58.6418 126.694 58.8051 125.854 58.8051H124.972V57.0411H125.854C126.451 57.0411 126.918 56.9664 127.254 56.8171C127.599 56.6678 127.847 56.4204 127.996 56.0751C128.155 55.7391 128.234 55.2678 128.234 54.6611V50.7131H129.774ZM128.136 47.2551C128.425 47.2551 128.715 47.2551 129.004 47.2551C129.284 47.2551 129.564 47.2551 129.844 47.2551C129.844 47.6378 129.844 47.9224 129.844 48.1091C129.844 48.2864 129.844 48.5618 129.844 48.9351C129.452 48.9351 129.163 48.9351 128.976 48.9351C128.789 48.9351 128.509 48.9351 128.136 48.9351C128.136 48.5524 128.136 48.2724 128.136 48.0951C128.136 47.9084 128.136 47.6284 128.136 47.2551ZM132.907 57.1111C133.532 57.1111 134.004 57.0458 134.321 56.9151C134.638 56.7938 134.853 56.5931 134.965 56.3131C135.086 56.0424 135.147 55.6598 135.147 55.1651V52.3931C135.147 51.8984 135.04 51.5111 134.825 51.2311C134.62 50.9511 134.288 50.8111 133.831 50.8111C133.411 50.8111 133.089 50.9558 132.865 51.2451C132.65 51.5251 132.543 51.8984 132.543 52.3651C132.543 52.7851 132.646 53.0931 132.851 53.2891C133.056 53.4758 133.388 53.5691 133.845 53.5691H135.567L136.029 53.5131H137.485L137.583 54.4091L137.485 55.2771H133.845C132.986 55.2771 132.305 55.0251 131.801 54.5211C131.297 54.0171 131.045 53.3171 131.045 52.4211C131.045 51.7864 131.162 51.2218 131.395 50.7271C131.638 50.2231 131.969 49.8311 132.389 49.5511C132.809 49.2711 133.29 49.1311 133.831 49.1311C134.4 49.1311 134.9 49.2711 135.329 49.5511C135.768 49.8218 136.104 50.2044 136.337 50.6991C136.58 51.1938 136.701 51.7678 136.701 52.4211V55.1651C136.701 55.8931 136.575 56.5324 136.323 57.0831C136.071 57.6338 135.66 58.0678 135.091 58.3851C134.531 58.7118 133.803 58.8751 132.907 58.8751H131.283V57.1111H132.907ZM141.291 50.7131V52.7291C141.291 53.0184 141.366 53.2238 141.515 53.3451C141.665 53.4571 141.898 53.5131 142.215 53.5131H142.663L142.747 54.4371L142.663 55.2771H142.215C141.851 55.2771 141.478 55.1838 141.095 54.9971C140.713 54.8104 140.391 54.5211 140.129 54.1291C139.868 53.7278 139.737 53.2284 139.737 52.6311V50.7131H141.291ZM141.179 52.7711C141.179 53.3031 141.053 53.7604 140.801 54.1431C140.549 54.5164 140.223 54.8011 139.821 54.9971C139.42 55.1838 139 55.2771 138.561 55.2771H137.343V53.5131H138.561C138.981 53.5131 139.28 53.4478 139.457 53.3171C139.644 53.1771 139.737 52.9484 139.737 52.6311L141.179 52.7711ZM138.841 47.3951C139.131 47.3951 139.42 47.3951 139.709 47.3951C139.989 47.3951 140.269 47.3951 140.549 47.3951C140.549 47.7778 140.549 48.0624 140.549 48.2491C140.549 48.4264 140.549 48.7018 140.549 49.0751C140.157 49.0751 139.868 49.0751 139.681 49.0751C139.495 49.0751 139.215 49.0751 138.841 49.0751C138.841 48.6924 138.841 48.4124 138.841 48.2351C138.841 48.0484 138.841 47.7684 138.841 47.3951ZM149.875 47.8151L152.073 51.1611C152.297 51.4971 152.446 51.8564 152.521 52.2391C152.596 52.6218 152.596 52.9904 152.521 53.3451C152.456 53.6904 152.32 53.9938 152.115 54.2551C151.816 54.6284 151.392 54.9038 150.841 55.0811C150.29 55.2491 149.548 55.3331 148.615 55.3331C147.766 55.3331 146.93 55.1884 146.109 54.8991C145.297 54.6004 144.63 54.1804 144.107 53.6391C143.594 53.0884 143.337 52.4538 143.337 51.7351C143.337 51.1844 143.463 50.6758 143.715 50.2091C143.976 49.7424 144.326 49.3738 144.765 49.1031C145.204 48.8231 145.689 48.6831 146.221 48.6831C146.734 48.6831 147.206 48.8184 147.635 49.0891C148.074 49.3598 148.419 49.7284 148.671 50.1951C148.932 50.6618 149.063 51.1704 149.063 51.7211C149.063 52.4584 148.806 53.0978 148.293 53.6391C147.789 54.1711 147.122 54.5771 146.291 54.8571C145.47 55.1371 144.588 55.2771 143.645 55.2771H142.525V53.5131H143.771C144.518 53.5131 145.171 53.4431 145.731 53.3031C146.3 53.1631 146.739 52.9624 147.047 52.7011C147.355 52.4398 147.509 52.1271 147.509 51.7631C147.509 51.3618 147.388 51.0351 147.145 50.7831C146.902 50.5218 146.59 50.3911 146.207 50.3911C145.815 50.3911 145.498 50.5218 145.255 50.7831C145.012 51.0351 144.891 51.3664 144.891 51.7771C144.891 52.1411 145.05 52.4631 145.367 52.7431C145.694 53.0138 146.128 53.2191 146.669 53.3591C147.22 53.4991 147.836 53.5691 148.517 53.5691C149.226 53.5691 149.758 53.5364 150.113 53.4711C150.477 53.4058 150.72 53.3078 150.841 53.1771C150.953 53.0464 151 52.8924 150.981 52.7151C150.972 52.5284 150.888 52.3138 150.729 52.0711L148.573 48.7811L149.875 47.8151ZM120.132 73.2771C119.506 73.2771 118.97 73.1278 118.522 72.8291C118.083 72.5304 117.761 72.1338 117.556 71.6391C117.36 71.1444 117.308 70.6264 117.402 70.0851C117.504 69.4878 117.649 68.8158 117.836 68.0691L119.264 68.4331L119.194 68.7551C119.007 69.5111 118.9 70.0338 118.872 70.3231C118.825 70.6871 118.909 70.9764 119.124 71.1911C119.348 71.4058 119.684 71.5131 120.132 71.5131H126.208C126.618 71.5131 126.917 71.4478 127.104 71.3171C127.29 71.1771 127.384 70.9484 127.384 70.6311V68.7131H128.924V70.7291C128.924 71.0184 128.998 71.2238 129.148 71.3451C129.297 71.4571 129.535 71.5131 129.862 71.5131H130.31L130.394 72.3951L130.31 73.2771H129.862C129.563 73.2771 129.255 73.2118 128.938 73.0811C128.62 72.9504 128.34 72.7591 128.098 72.5071C127.874 72.7591 127.594 72.9504 127.258 73.0811C126.931 73.2118 126.581 73.2771 126.208 73.2771H120.132ZM121.294 66.7811C121.536 66.7811 121.714 66.7811 121.826 66.7811C121.947 66.7811 122.124 66.7811 122.358 66.7811C122.535 66.7811 122.708 66.7811 122.876 66.7811C122.876 67.1451 122.876 67.4158 122.876 67.5931C122.876 67.7611 122.876 68.0178 122.876 68.3631C122.521 68.3631 122.255 68.3631 122.078 68.3631C121.91 68.3631 121.648 68.3631 121.294 68.3631C121.294 67.9991 121.294 67.7331 121.294 67.5651C121.294 67.3971 121.294 67.1358 121.294 66.7811ZM123.884 66.7811C124.248 66.7811 124.514 66.7811 124.682 66.7811C124.859 66.7811 125.12 66.7811 125.466 66.7811C125.466 67.1451 125.466 67.4158 125.466 67.5931C125.466 67.7611 125.466 68.0178 125.466 68.3631C125.102 68.3631 124.831 68.3631 124.654 68.3631C124.486 68.3631 124.229 68.3631 123.884 68.3631C123.884 67.9991 123.884 67.7331 123.884 67.5651C123.884 67.3971 123.884 67.1358 123.884 66.7811ZM136.41 72.4371C136.214 72.6984 135.962 72.9038 135.654 73.0531C135.346 73.2024 135.01 73.2771 134.646 73.2771C134.31 73.2771 133.969 73.1978 133.624 73.0391C133.288 72.8804 133.04 72.6798 132.882 72.4371C132.695 72.6984 132.443 72.9038 132.126 73.0531C131.818 73.2024 131.468 73.2771 131.076 73.2771H130.166V71.5131H131.132C131.505 71.5131 131.766 71.4431 131.916 71.3031C132.074 71.1538 132.154 70.8971 132.154 70.5331V68.7131H133.708V70.5191C133.708 70.8644 133.787 71.1164 133.946 71.2751C134.104 71.4338 134.347 71.5131 134.674 71.5131C135.01 71.5131 135.252 71.4338 135.402 71.2751C135.56 71.1164 135.64 70.8644 135.64 70.5191V68.7131H137.194L137.18 70.5191C137.18 70.8644 137.268 71.1164 137.446 71.2751C137.623 71.4338 137.866 71.5131 138.174 71.5131C138.5 71.5131 138.738 71.4338 138.888 71.2751C139.037 71.1164 139.112 70.8644 139.112 70.5191V68.7131H140.666V70.5331C140.666 70.8971 140.74 71.1538 140.89 71.3031C141.048 71.4431 141.314 71.5131 141.688 71.5131H142.654L142.738 72.3951L142.654 73.2771H141.744C141.361 73.2771 141.011 73.2024 140.694 73.0531C140.376 72.9038 140.124 72.6984 139.938 72.4371C139.779 72.6798 139.527 72.8804 139.182 73.0391C138.846 73.1978 138.514 73.2771 138.188 73.2771C137.824 73.2771 137.492 73.2024 137.194 73.0531C136.895 72.9038 136.634 72.6984 136.41 72.4371ZM146.795 68.7131V70.7291C146.795 71.0184 146.87 71.2238 147.019 71.3451C147.169 71.4571 147.402 71.5131 147.719 71.5131H148.461L148.545 72.4371L148.461 73.2771H147.719C147.355 73.2771 146.982 73.1838 146.599 72.9971C146.217 72.8104 145.895 72.5211 145.633 72.1291C145.372 71.7278 145.241 71.2284 145.241 70.6311V68.7131H146.795ZM146.683 70.7711C146.683 71.3031 146.557 71.7604 146.305 72.1431C146.053 72.5164 145.727 72.8011 145.325 72.9971C144.924 73.1838 144.509 73.2771 144.079 73.2771H142.511V71.5131H144.079C144.49 71.5131 144.784 71.4478 144.961 71.3171C145.148 71.1771 145.241 70.9484 145.241 70.6311L146.683 70.7711ZM141.713 75.1251C141.956 75.1251 142.138 75.1251 142.259 75.1251C142.371 75.1251 142.544 75.1251 142.777 75.1251C142.955 75.1251 143.127 75.1251 143.295 75.1251C143.295 75.4891 143.295 75.7551 143.295 75.9231C143.295 76.1004 143.295 76.3618 143.295 76.7071C142.941 76.7071 142.679 76.7071 142.511 76.7071C142.334 76.7071 142.068 76.7071 141.713 76.7071C141.713 76.3431 141.713 76.0771 141.713 75.9091C141.713 75.7411 141.713 75.4798 141.713 75.1251ZM144.303 75.1251C144.667 75.1251 144.933 75.1251 145.101 75.1251C145.279 75.1251 145.54 75.1251 145.885 75.1251C145.885 75.4891 145.885 75.7551 145.885 75.9231C145.885 76.1004 145.885 76.3618 145.885 76.7071C145.521 76.7071 145.251 76.7071 145.073 76.7071C144.905 76.7071 144.649 76.7071 144.303 76.7071C144.303 76.3431 144.303 76.0771 144.303 75.9091C144.303 75.7411 144.303 75.4798 144.303 75.1251ZM148.322 71.5131H149.722C150.123 71.5131 150.408 71.4338 150.576 71.2751C150.753 71.1164 150.833 70.8924 150.814 70.6031C150.805 70.3418 150.758 69.9824 150.674 69.5251C150.599 69.0584 150.515 68.6198 150.422 68.2091L151.906 67.8311C152.009 68.2884 152.107 68.7924 152.2 69.3431C152.303 69.8844 152.359 70.3278 152.368 70.6731C152.377 71.1211 152.284 71.5458 152.088 71.9471C151.901 72.3391 151.617 72.6611 151.234 72.9131C150.851 73.1558 150.38 73.2771 149.82 73.2771H148.322V71.5131ZM149.638 64.5691C149.927 64.5691 150.217 64.5691 150.506 64.5691C150.786 64.5691 151.066 64.5691 151.346 64.5691C151.346 64.9518 151.346 65.2364 151.346 65.4231C151.346 65.6004 151.346 65.8758 151.346 66.2491C150.954 66.2491 150.665 66.2491 150.478 66.2491C150.291 66.2491 150.011 66.2491 149.638 66.2491C149.638 65.8664 149.638 65.5864 149.638 65.4091C149.638 65.2224 149.638 64.9424 149.638 64.5691Z" fill="#263238"/>
<rect x="164.999" y="37.2771" width="46" height="46" rx="5.93548" fill="#45CE7E"/>
<path d="M189.629 67.6221C189.629 68.5239 188.898 69.2549 187.996 69.2549C187.151 69.2548 186.456 68.6125 186.372 67.7891L186.364 67.6221C186.364 66.7203 187.094 65.9903 187.996 65.9902L188.163 65.998C188.986 66.0815 189.629 66.7766 189.629 67.6221Z" fill="white" stroke="white" stroke-width="7.27097"/>
</g>
<defs>
<filter id="filter0_d_2075_52489" x="0.666016" y="0.2771" width="247.333" height="120" filterUnits="userSpaceOnUse" color-interpolation-filters="sRGB">
<feFlood flood-opacity="0" result="BackgroundImageFix"/>
<feColorMatrix in="SourceAlpha" type="matrix" values="0 0 0 0 0 0 0 0 0 0 0 0 0 0 0 0 0 0 127 0" result="hardAlpha"/>
<feOffset/>
<feGaussianBlur stdDeviation="12.5"/>
<feComposite in2="hardAlpha" operator="out"/>
<feColorMatrix type="matrix" values="0 0 0 0 0.207843 0 0 0 0 0.290196 0 0 0 0 0.32549 0 0 0 0.08 0"/>
<feBlend mode="normal" in2="BackgroundImageFix" result="effect1_dropShadow_2075_52489"/>
<feBlend mode="normal" in="SourceGraphic" in2="effect1_dropShadow_2075_52489" result="shape"/>
</filter>
</defs>
</svg>
