<svg width="46" height="46" viewBox="0 0 46 46" fill="none" xmlns="http://www.w3.org/2000/svg">
<rect width="46" height="46" rx="5.93548" fill="#FFA31F"/>
<mask id="path-2-inside-1_2075_52452" fill="white">
<path d="M23 14.5606C21.5677 14.5606 20.4032 15.7251 20.4032 17.1574V24.2336C20.4032 24.4811 20.3099 24.7164 20.1435 24.895C19.4984 25.5888 19.1048 26.518 19.1048 27.5445C19.1048 29.6949 20.8495 31.4396 23 31.4396C25.1504 31.4396 26.8951 29.6949 26.8951 27.5445C26.8951 26.522 26.5016 25.5929 25.8564 24.895C25.6901 24.7164 25.5967 24.477 25.5967 24.2336V17.1574C25.5967 15.7251 24.4323 14.5606 23 14.5606ZM18.4556 17.1574C18.4556 14.6458 20.4884 12.613 23 12.613C25.5115 12.613 27.5443 14.6458 27.5443 17.1574V23.8725C28.3558 24.8747 28.8427 26.1528 28.8427 27.5445C28.8427 30.7702 26.2256 33.3872 23 33.3872C19.7743 33.3872 17.1572 30.7702 17.1572 27.5445C17.1572 26.1528 17.6441 24.8747 18.4556 23.8725V17.1574ZM24.9475 27.5445C24.9475 28.6197 24.0752 29.4921 23 29.4921C21.9247 29.4921 21.0524 28.6197 21.0524 27.5445C21.0524 26.8223 21.446 26.1934 22.0262 25.8566V22.6755C22.0262 22.1359 22.4603 21.7017 23 21.7017C23.5396 21.7017 23.9738 22.1359 23.9738 22.6755V25.8566C24.554 26.1934 24.9475 26.8223 24.9475 27.5445Z"/>
</mask>
<path d="M23 14.5606C21.5677 14.5606 20.4032 15.7251 20.4032 17.1574V24.2336C20.4032 24.4811 20.3099 24.7164 20.1435 24.895C19.4984 25.5888 19.1048 26.518 19.1048 27.5445C19.1048 29.6949 20.8495 31.4396 23 31.4396C25.1504 31.4396 26.8951 29.6949 26.8951 27.5445C26.8951 26.522 26.5016 25.5929 25.8564 24.895C25.6901 24.7164 25.5967 24.477 25.5967 24.2336V17.1574C25.5967 15.7251 24.4323 14.5606 23 14.5606ZM18.4556 17.1574C18.4556 14.6458 20.4884 12.613 23 12.613C25.5115 12.613 27.5443 14.6458 27.5443 17.1574V23.8725C28.3558 24.8747 28.8427 26.1528 28.8427 27.5445C28.8427 30.7702 26.2256 33.3872 23 33.3872C19.7743 33.3872 17.1572 30.7702 17.1572 27.5445C17.1572 26.1528 17.6441 24.8747 18.4556 23.8725V17.1574ZM24.9475 27.5445C24.9475 28.6197 24.0752 29.4921 23 29.4921C21.9247 29.4921 21.0524 28.6197 21.0524 27.5445C21.0524 26.8223 21.446 26.1934 22.0262 25.8566V22.6755C22.0262 22.1359 22.4603 21.7017 23 21.7017C23.5396 21.7017 23.9738 22.1359 23.9738 22.6755V25.8566C24.554 26.1934 24.9475 26.8223 24.9475 27.5445Z" fill="white"/>
<path d="M20.1435 24.895L14.824 19.9382L14.8187 19.9438L20.1435 24.895ZM25.8564 24.895L31.1956 19.9593L31.1858 19.9487L31.1759 19.9382L25.8564 24.895ZM27.5443 23.8725H20.2734V26.4471L21.8935 28.448L27.5443 23.8725ZM18.4556 23.8725L24.1064 28.448L25.7266 26.4471V23.8725H18.4556ZM22.0262 25.8566L25.6761 32.1451L29.2971 30.0433V25.8566H22.0262ZM23.9738 25.8566H16.7028V30.0433L20.3238 32.1451L23.9738 25.8566ZM23 14.5606V7.28965C17.552 7.28965 13.1322 11.7095 13.1322 17.1574H20.4032H27.6742C27.6742 19.7408 25.5833 21.8316 23 21.8316V14.5606ZM20.4032 17.1574H13.1322V24.2336H20.4032H27.6742V17.1574H20.4032ZM20.4032 24.2336H13.1322C13.1322 22.6417 13.7361 21.1057 14.824 19.9382L20.1435 24.895L25.463 29.8518C26.8837 28.3271 27.6742 26.3205 27.6742 24.2336H20.4032ZM20.1435 24.895L14.8187 19.9438C12.9669 21.9355 11.8338 24.6172 11.8338 27.5445H19.1048H26.3758C26.3758 28.4187 26.0299 29.2421 25.4683 29.8461L20.1435 24.895ZM19.1048 27.5445H11.8338C11.8338 33.7106 16.8339 38.7106 23 38.7106V31.4396V24.1687C24.8652 24.1687 26.3758 25.6793 26.3758 27.5445H19.1048ZM23 31.4396V38.7106C29.1661 38.7106 34.1661 33.7106 34.1661 27.5445H26.8951H19.6242C19.6242 25.6793 21.1348 24.1687 23 24.1687V31.4396ZM26.8951 27.5445H34.1661C34.1661 24.6137 33.0283 21.9419 31.1956 19.9593L25.8564 24.895L20.5173 29.8306C19.9748 29.2438 19.6242 28.4303 19.6242 27.5445H26.8951ZM25.8564 24.895L31.1759 19.9382C32.2748 21.1174 32.8677 22.6537 32.8677 24.2336H25.5967H18.3258C18.3258 26.3004 19.1054 28.3155 20.5369 29.8518L25.8564 24.895ZM25.5967 24.2336H32.8677V17.1574H25.5967H18.3258V24.2336H25.5967ZM25.5967 17.1574H32.8677C32.8677 11.7095 28.4479 7.28965 23 7.28965V14.5606V21.8316C20.4166 21.8316 18.3258 19.7408 18.3258 17.1574H25.5967ZM18.4556 17.1574H25.7266C25.7266 18.6615 24.504 19.884 23 19.884V12.613V5.34207C16.4728 5.34207 11.1846 10.6302 11.1846 17.1574H18.4556ZM23 12.613V19.884C21.4959 19.884 20.2734 18.6615 20.2734 17.1574H27.5443H34.8153C34.8153 10.6302 29.5272 5.34207 23 5.34207V12.613ZM27.5443 17.1574H20.2734V23.8725H27.5443H34.8153V17.1574H27.5443ZM27.5443 23.8725L21.8935 28.448C21.6948 28.2025 21.5717 27.8779 21.5717 27.5445H28.8427H36.1137C36.1137 24.4277 35.0169 21.5468 33.1951 19.2969L27.5443 23.8725ZM28.8427 27.5445H21.5717C21.5717 26.7545 22.21 26.1163 23 26.1163V33.3872V40.6582C30.2413 40.6582 36.1137 34.7858 36.1137 27.5445H28.8427ZM23 33.3872V26.1163C23.7899 26.1163 24.4282 26.7545 24.4282 27.5445H17.1572H9.88626C9.88626 34.7858 15.7586 40.6582 23 40.6582V33.3872ZM17.1572 27.5445H24.4282C24.4282 27.8779 24.3052 28.2025 24.1064 28.448L18.4556 23.8725L12.8048 19.2969C10.9831 21.5468 9.88626 24.4277 9.88626 27.5445H17.1572ZM18.4556 23.8725H25.7266V17.1574H18.4556H11.1846V23.8725H18.4556ZM24.9475 27.5445H17.6766C17.6766 24.6041 20.0596 22.2211 23 22.2211V29.4921V36.763C28.0908 36.763 32.2185 32.6354 32.2185 27.5445H24.9475ZM23 29.4921V22.2211C25.9404 22.2211 28.3234 24.6041 28.3234 27.5445H21.0524H13.7814C13.7814 32.6354 17.9091 36.763 23 36.763V29.4921ZM21.0524 27.5445H28.3234C28.3234 29.5328 27.2326 31.2416 25.6761 32.1451L22.0262 25.8566L18.3762 19.5681C15.6593 21.1451 13.7814 24.1117 13.7814 27.5445H21.0524ZM22.0262 25.8566H29.2971V22.6755H22.0262H14.7552V25.8566H22.0262ZM22.0262 22.6755H29.2971C29.2971 26.1515 26.476 28.9727 23 28.9727V21.7017V14.4308C18.4447 14.4308 14.7552 18.1203 14.7552 22.6755H22.0262ZM23 21.7017V28.9727C19.524 28.9727 16.7028 26.1515 16.7028 22.6755H23.9738H31.2447C31.2447 18.1203 27.5553 14.4308 23 14.4308V21.7017ZM23.9738 22.6755H16.7028V25.8566H23.9738H31.2447V22.6755H23.9738ZM23.9738 25.8566L20.3238 32.1451C18.7673 31.2416 17.6766 29.5328 17.6766 27.5445H24.9475H32.2185C32.2185 24.1117 30.3407 21.1451 27.6237 19.5681L23.9738 25.8566Z" fill="white" mask="url(#path-2-inside-1_2075_52452)"/>
</svg>
