<svg width="46" height="47" viewBox="0 0 46 47" fill="none" xmlns="http://www.w3.org/2000/svg">
<rect y="0.2771" width="46" height="46" rx="5.93548" fill="#FFA31F"/>
<mask id="path-2-inside-1_2075_52452" fill="white">
<path d="M23 14.8377C21.5677 14.8377 20.4032 16.0022 20.4032 17.4345V24.5107C20.4032 24.7582 20.3099 24.9935 20.1435 25.1721C19.4984 25.8659 19.1048 26.7951 19.1048 27.8216C19.1048 29.972 20.8495 31.7167 23 31.7167C25.1504 31.7167 26.8951 29.972 26.8951 27.8216C26.8951 26.7991 26.5016 25.87 25.8564 25.1721C25.6901 24.9935 25.5967 24.7541 25.5967 24.5107V17.4345C25.5967 16.0022 24.4323 14.8377 23 14.8377ZM18.4556 17.4345C18.4556 14.9229 20.4884 12.8901 23 12.8901C25.5115 12.8901 27.5443 14.9229 27.5443 17.4345V24.1496C28.3558 25.1518 28.8427 26.4299 28.8427 27.8216C28.8427 31.0473 26.2256 33.6643 23 33.6643C19.7743 33.6643 17.1572 31.0473 17.1572 27.8216C17.1572 26.4299 17.6441 25.1518 18.4556 24.1496V17.4345ZM24.9475 27.8216C24.9475 28.8968 24.0752 29.7692 23 29.7692C21.9247 29.7692 21.0524 28.8968 21.0524 27.8216C21.0524 27.0994 21.446 26.4705 22.0262 26.1337V22.9526C22.0262 22.413 22.4603 21.9788 23 21.9788C23.5396 21.9788 23.9738 22.413 23.9738 22.9526V26.1337C24.554 26.4705 24.9475 27.0994 24.9475 27.8216Z"/>
</mask>
<path d="M23 14.8377C21.5677 14.8377 20.4032 16.0022 20.4032 17.4345V24.5107C20.4032 24.7582 20.3099 24.9935 20.1435 25.1721C19.4984 25.8659 19.1048 26.7951 19.1048 27.8216C19.1048 29.972 20.8495 31.7167 23 31.7167C25.1504 31.7167 26.8951 29.972 26.8951 27.8216C26.8951 26.7991 26.5016 25.87 25.8564 25.1721C25.6901 24.9935 25.5967 24.7541 25.5967 24.5107V17.4345C25.5967 16.0022 24.4323 14.8377 23 14.8377ZM18.4556 17.4345C18.4556 14.9229 20.4884 12.8901 23 12.8901C25.5115 12.8901 27.5443 14.9229 27.5443 17.4345V24.1496C28.3558 25.1518 28.8427 26.4299 28.8427 27.8216C28.8427 31.0473 26.2256 33.6643 23 33.6643C19.7743 33.6643 17.1572 31.0473 17.1572 27.8216C17.1572 26.4299 17.6441 25.1518 18.4556 24.1496V17.4345ZM24.9475 27.8216C24.9475 28.8968 24.0752 29.7692 23 29.7692C21.9247 29.7692 21.0524 28.8968 21.0524 27.8216C21.0524 27.0994 21.446 26.4705 22.0262 26.1337V22.9526C22.0262 22.413 22.4603 21.9788 23 21.9788C23.5396 21.9788 23.9738 22.413 23.9738 22.9526V26.1337C24.554 26.4705 24.9475 27.0994 24.9475 27.8216Z" fill="white"/>
<path d="M20.1435 25.1721L14.824 20.2153L14.8187 20.2209L20.1435 25.1721ZM25.8564 25.1721L31.1956 20.2364L31.1858 20.2258L31.1759 20.2153L25.8564 25.1721ZM27.5443 24.1496H20.2734V26.7242L21.8935 28.7251L27.5443 24.1496ZM18.4556 24.1496L24.1064 28.7251L25.7266 26.7242V24.1496H18.4556ZM22.0262 26.1337L25.6761 32.4222L29.2971 30.3204V26.1337H22.0262ZM23.9738 26.1337H16.7028V30.3204L20.3238 32.4222L23.9738 26.1337ZM23 14.8377V7.56675C17.552 7.56675 13.1322 11.9866 13.1322 17.4345H20.4032H27.6742C27.6742 20.0179 25.5833 22.1087 23 22.1087V14.8377ZM20.4032 17.4345H13.1322V24.5107H20.4032H27.6742V17.4345H20.4032ZM20.4032 24.5107H13.1322C13.1322 22.9188 13.7361 21.3828 14.824 20.2153L20.1435 25.1721L25.463 30.1289C26.8837 28.6042 27.6742 26.5976 27.6742 24.5107H20.4032ZM20.1435 25.1721L14.8187 20.2209C12.9669 22.2126 11.8338 24.8943 11.8338 27.8216H19.1048H26.3758C26.3758 28.6958 26.0299 29.5192 25.4683 30.1232L20.1435 25.1721ZM19.1048 27.8216H11.8338C11.8338 33.9877 16.8339 38.9877 23 38.9877V31.7167V24.4458C24.8652 24.4458 26.3758 25.9564 26.3758 27.8216H19.1048ZM23 31.7167V38.9877C29.1661 38.9877 34.1661 33.9877 34.1661 27.8216H26.8951H19.6242C19.6242 25.9564 21.1348 24.4458 23 24.4458V31.7167ZM26.8951 27.8216H34.1661C34.1661 24.8908 33.0283 22.219 31.1956 20.2364L25.8564 25.1721L20.5173 30.1077C19.9748 29.5209 19.6242 28.7074 19.6242 27.8216H26.8951ZM25.8564 25.1721L31.1759 20.2153C32.2748 21.3945 32.8677 22.9308 32.8677 24.5107H25.5967H18.3258C18.3258 26.5775 19.1054 28.5926 20.5369 30.1289L25.8564 25.1721ZM25.5967 24.5107H32.8677V17.4345H25.5967H18.3258V24.5107H25.5967ZM25.5967 17.4345H32.8677C32.8677 11.9866 28.4479 7.56675 23 7.56675V14.8377V22.1087C20.4166 22.1087 18.3258 20.0179 18.3258 17.4345H25.5967ZM18.4556 17.4345H25.7266C25.7266 18.9386 24.504 20.1611 23 20.1611V12.8901V5.61917C16.4728 5.61917 11.1846 10.9073 11.1846 17.4345H18.4556ZM23 12.8901V20.1611C21.4959 20.1611 20.2734 18.9386 20.2734 17.4345H27.5443H34.8153C34.8153 10.9073 29.5272 5.61917 23 5.61917V12.8901ZM27.5443 17.4345H20.2734V24.1496H27.5443H34.8153V17.4345H27.5443ZM27.5443 24.1496L21.8935 28.7251C21.6948 28.4796 21.5717 28.155 21.5717 27.8216H28.8427H36.1137C36.1137 24.7048 35.0169 21.8239 33.1951 19.574L27.5443 24.1496ZM28.8427 27.8216H21.5717C21.5717 27.0316 22.21 26.3934 23 26.3934V33.6643V40.9353C30.2413 40.9353 36.1137 35.0629 36.1137 27.8216H28.8427ZM23 33.6643V26.3934C23.7899 26.3934 24.4282 27.0316 24.4282 27.8216H17.1572H9.88626C9.88626 35.0629 15.7586 40.9353 23 40.9353V33.6643ZM17.1572 27.8216H24.4282C24.4282 28.155 24.3052 28.4796 24.1064 28.7251L18.4556 24.1496L12.8048 19.574C10.9831 21.8239 9.88626 24.7048 9.88626 27.8216H17.1572ZM18.4556 24.1496H25.7266V17.4345H18.4556H11.1846V24.1496H18.4556ZM24.9475 27.8216H17.6766C17.6766 24.8812 20.0596 22.4982 23 22.4982V29.7692V37.0401C28.0908 37.0401 32.2185 32.9125 32.2185 27.8216H24.9475ZM23 29.7692V22.4982C25.9404 22.4982 28.3234 24.8812 28.3234 27.8216H21.0524H13.7814C13.7814 32.9125 17.9091 37.0401 23 37.0401V29.7692ZM21.0524 27.8216H28.3234C28.3234 29.8099 27.2326 31.5187 25.6761 32.4222L22.0262 26.1337L18.3762 19.8452C15.6593 21.4222 13.7814 24.3888 13.7814 27.8216H21.0524ZM22.0262 26.1337H29.2971V22.9526H22.0262H14.7552V26.1337H22.0262ZM22.0262 22.9526H29.2971C29.2971 26.4286 26.476 29.2498 23 29.2498V21.9788V14.7079C18.4447 14.7079 14.7552 18.3973 14.7552 22.9526H22.0262ZM23 21.9788V29.2498C19.524 29.2498 16.7028 26.4286 16.7028 22.9526H23.9738H31.2447C31.2447 18.3973 27.5553 14.7079 23 14.7079V21.9788ZM23.9738 22.9526H16.7028V26.1337H23.9738H31.2447V22.9526H23.9738ZM23.9738 26.1337L20.3238 32.4222C18.7673 31.5187 17.6766 29.8099 17.6766 27.8216H24.9475H32.2185C32.2185 24.3888 30.3407 21.4222 27.6237 19.8452L23.9738 26.1337Z" fill="white" mask="url(#path-2-inside-1_2075_52452)"/>
</svg>
