<svg width="32" height="32" viewBox="0 0 32 32" fill="none" xmlns="http://www.w3.org/2000/svg">
<rect width="32" height="32" rx="16" fill="#BA68C8" fill-opacity="0.08"/>
<g clip-path="url(#clip0_2828_5544)">
<path d="M15.5779 12.1938C15.5435 12.525 15.6779 12.85 15.9341 13.0625C16.1904 13.275 16.5341 13.3469 16.8529 13.2532C17.381 13.1 18.081 12.9969 19.0029 12.9969H19.006C20.8654 12.9907 22.3872 14.1813 22.8529 15.8782L19.806 15.575C19.4747 15.5407 19.1497 15.675 18.9372 15.9313C18.7247 16.1875 18.6529 16.5313 18.7466 16.85C18.8997 17.3782 19.0029 18.0782 19.0029 19V19.0032C19.0091 20.8625 17.8185 22.3844 16.1216 22.85L16.4247 19.8032C16.4591 19.4719 16.3247 19.1469 16.0685 18.9344C15.8122 18.7219 15.4685 18.65 15.1497 18.7438C14.6216 18.8969 13.9216 19 12.9997 19H12.9966C11.1372 19.0063 9.61536 17.8157 9.14973 16.1188L12.1966 16.4219C12.5279 16.4563 12.8529 16.3219 13.0654 16.0657C13.2779 15.8094 13.3497 15.4657 13.256 15.1469C13.1029 14.6188 12.9997 13.9188 12.9997 12.9969V12.9938C12.9935 11.1344 14.1841 9.61253 15.881 9.1469L15.5779 12.1938ZM16.5716 12.2969L16.6779 11.2375L16.8904 9.10315C16.9497 8.51565 16.481 7.99378 15.9029 8.11878C13.6216 8.60003 11.9904 10.5844 11.9997 13C11.9997 13.5188 12.031 13.9844 12.0841 14.4032C12.1341 14.7844 12.206 15.125 12.2935 15.4282L11.2341 15.3219L9.09973 15.1094C8.51223 15.05 7.99036 15.5188 8.11536 16.0969C8.59973 18.3813 10.5872 20.0094 12.9997 20C13.5185 20 13.9841 19.9688 14.4029 19.9157C14.7841 19.8657 15.1247 19.7938 15.4279 19.7063L15.3216 20.7657L15.1091 22.9C15.0497 23.4875 15.5185 24.0094 16.0966 23.8844C18.381 23.4 20.0091 21.4157 19.9997 19C19.9997 18.4813 19.9685 18.0157 19.9154 17.5969C19.8654 17.2157 19.7935 16.875 19.706 16.5719L20.7654 16.6782L22.8997 16.8907C23.4872 16.95 24.0091 16.4813 23.8841 15.9032C23.3997 13.6188 21.4154 11.9907 18.9997 12C18.481 12 18.0154 12.0313 17.5966 12.0844C17.2154 12.1344 16.8747 12.2063 16.5716 12.2938V12.2969ZM15.9997 16.75C16.1986 16.75 16.3894 16.671 16.5301 16.5304C16.6707 16.3897 16.7497 16.1989 16.7497 16C16.7497 15.8011 16.6707 15.6103 16.5301 15.4697C16.3894 15.329 16.1986 15.25 15.9997 15.25C15.8008 15.25 15.6101 15.329 15.4694 15.4697C15.3288 15.6103 15.2497 15.8011 15.2497 16C15.2497 16.1989 15.3288 16.3897 15.4694 16.5304C15.6101 16.671 15.8008 16.75 15.9997 16.75Z" fill="#BA68C8"/>
</g>
<defs>
<clipPath id="clip0_2828_5544">
<rect width="16" height="16" fill="white" transform="translate(8 8)"/>
</clipPath>
</defs>
</svg>
