<svg width="19" height="18" viewBox="0 0 19 18" fill="none" xmlns="http://www.w3.org/2000/svg">
<path d="M8.58105 10.167C10.9435 10.167 12.8584 12.0819 12.8584 14.4443V14.6387C12.8584 14.9619 12.5987 15.2227 12.2754 15.2227C11.9521 15.2227 11.6924 14.9619 11.6924 14.6387V14.4443C11.6923 12.726 10.2994 11.3331 8.58105 11.333H7.02539C5.30702 11.333 3.91411 12.726 3.91406 14.4443V14.6387C3.91406 14.9619 3.65427 15.2226 3.33105 15.2227C3.00779 15.2227 2.74805 14.9619 2.74805 14.6387V14.4443C2.74809 12.0819 4.66292 10.167 7.02539 10.167H8.58105ZM12.6641 10.5557C14.9196 10.5557 16.7479 12.3832 16.748 14.6387C16.748 14.9619 16.4873 15.2227 16.1641 15.2227C15.8409 15.2225 15.5811 14.9619 15.5811 14.6387C15.581 13.2608 14.6258 12.1067 13.3428 11.8027C13.0876 11.3434 12.7659 10.9227 12.3916 10.5557H12.6641ZM7.80273 2.77734C8.62785 2.77734 9.41948 3.10601 10.0029 3.68945C10.5862 4.27284 10.914 5.0637 10.9141 5.88867C10.9141 6.71379 10.5864 7.50542 10.0029 8.08887C9.4195 8.67224 8.62779 9 7.80273 9C6.97786 8.99988 6.18684 8.6721 5.60352 8.08887C5.02007 7.50542 4.69238 6.71379 4.69238 5.88867C4.69243 5.06368 5.02019 4.27284 5.60352 3.68945C6.18686 3.10611 6.97778 2.77746 7.80273 2.77734ZM12.4697 3.55762C13.9742 3.55762 15.1924 4.77576 15.1924 6.28027C15.1923 7.78475 13.9742 9 12.4697 9C11.9667 8.99998 11.4952 8.86408 11.0918 8.62598C11.3397 8.32709 11.5486 7.99391 11.709 7.63672C11.9326 7.76307 12.1927 7.83592 12.4697 7.83594C13.3277 7.83594 14.0253 7.13822 14.0254 6.28027C14.0254 5.42229 13.3277 4.72461 12.4697 4.72461C12.2852 4.72462 12.108 4.75623 11.9453 4.81445C11.8457 4.43043 11.6944 4.06834 11.5 3.73535C11.8014 3.62113 12.1295 3.55763 12.4697 3.55762ZM7.80273 3.94434C7.28737 3.94445 6.79323 4.14935 6.42871 4.51367C6.0641 4.87828 5.85845 5.37304 5.8584 5.88867C5.8584 6.40437 6.06406 6.89902 6.42871 7.26367C6.79324 7.62812 7.28728 7.83289 7.80273 7.83301C8.31837 7.83301 8.81309 7.62825 9.17773 7.26367C9.54239 6.89902 9.74805 6.40437 9.74805 5.88867C9.748 5.37304 9.54234 4.87828 9.17773 4.51367C8.81311 4.14922 8.31828 3.94434 7.80273 3.94434Z" fill="#96AFB8"/>
</svg>
