<svg width="63" height="63" viewBox="0 0 63 63" fill="none" xmlns="http://www.w3.org/2000/svg">
<rect x="0.717773" y="0.55957" width="61.5882" height="61.5882" rx="30.7941" fill="#F5F7F8"/>
<path d="M22.6201 34.2441C22.1197 34.7758 21.6761 35.3595 21.3008 35.9893C18.5748 36.4745 16.5002 38.838 16.5 41.6768V42.5029C16.5 42.9572 16.1247 43.3291 15.666 43.3291C15.2074 43.329 14.832 42.9571 14.832 42.5029V41.6768C14.8323 37.5734 18.1942 34.2443 22.3379 34.2441H22.6201ZM32.7637 33.418C37.1368 33.4182 40.6865 36.934 40.6865 41.2646V42.5029C40.6865 42.9571 40.3111 43.329 39.8525 43.3291C39.3938 43.3291 39.0186 42.9572 39.0186 42.5029V41.2646C39.0186 37.8425 36.2194 35.0705 32.7637 35.0703H30.2617C26.8058 35.0703 24.0059 37.8423 24.0059 41.2646V42.5029C24.0059 42.9572 23.6306 43.3291 23.1719 43.3291C22.7133 43.3289 22.3379 42.9571 22.3379 42.5029V41.2646C22.3379 36.9339 25.8884 33.418 30.2617 33.418H32.7637ZM40.6865 34.2441C44.8303 34.2442 48.1921 37.5734 48.1924 41.6768V42.5029C48.1924 42.9572 47.8171 43.3291 47.3584 43.3291C46.8997 43.3291 46.5244 42.9572 46.5244 42.5029V41.6768C46.5242 38.838 44.4548 36.4745 41.7236 35.9893H41.7285C41.3532 35.3647 40.9105 34.7758 40.4102 34.2441H40.6865ZM23.1719 21.8555C23.4012 21.8555 23.6258 21.8714 23.8447 21.9023C23.6206 22.4133 23.4487 22.9553 23.334 23.5127C23.2767 23.5075 23.2243 23.5078 23.167 23.5078C21.327 23.5078 19.8311 24.9894 19.8311 26.8115C19.8313 28.6335 21.3271 30.1143 23.167 30.1143C23.683 30.1143 24.168 30.0014 24.6006 29.7949C24.9185 30.2645 25.2888 30.6927 25.6953 31.085C24.9552 31.5185 24.0898 31.7665 23.1621 31.7666C20.3996 31.7666 18.1575 29.5471 18.1572 26.8115C18.1572 24.0757 20.3995 21.8555 23.1621 21.8555H23.1719ZM39.8467 21.8555C42.6093 21.8555 44.8516 24.0757 44.8516 26.8115C44.8513 29.5471 42.6092 31.7666 39.8467 31.7666C38.9242 31.7665 38.0588 31.5185 37.3135 31.085H37.3193C37.7258 30.6927 38.0962 30.2594 38.4141 29.7949C38.8466 30.0013 39.3367 30.1143 39.8525 30.1143C41.6923 30.1141 43.1882 28.6334 43.1885 26.8115C43.1885 24.9895 41.6925 23.5079 39.8525 23.5078C39.7952 23.5078 39.7429 23.5075 39.6855 23.5127C39.5709 22.9553 39.3989 22.4133 39.1748 21.9023C39.3936 21.8714 39.6227 21.8555 39.8467 21.8555ZM31.5127 19.3779C33.0609 19.378 34.5459 19.9872 35.6406 21.0713C36.7354 22.1554 37.3506 23.626 37.3506 25.1592C37.3506 26.6924 36.7353 28.1629 35.6406 29.2471C34.5459 30.3312 33.0609 30.9403 31.5127 30.9404C29.9643 30.9404 28.4786 30.3313 27.3838 29.2471C26.2891 28.1629 25.6738 26.6923 25.6738 25.1592C25.6739 23.626 26.2891 22.1554 27.3838 21.0713C28.4786 19.9871 29.9643 19.3779 31.5127 19.3779ZM31.5127 21.0303C30.4067 21.0303 29.3455 21.4648 28.5635 22.2393C27.7815 23.0137 27.3418 24.064 27.3418 25.1592C27.3418 26.2543 27.7815 27.3047 28.5635 28.0791C29.3455 28.8535 30.4067 29.2891 31.5127 29.2891C32.6185 29.2889 33.679 28.8534 34.4609 28.0791C35.2429 27.3047 35.6826 26.2543 35.6826 25.1592C35.6826 24.064 35.2429 23.0137 34.4609 22.2393C33.679 21.4649 32.6185 21.0304 31.5127 21.0303Z" fill="#98AFBA"/>
</svg>
