<svg width="63" height="63" viewBox="0 0 63 63" fill="none" xmlns="http://www.w3.org/2000/svg">
<rect x="0.717773" y="0.554688" width="61.5882" height="61.5882" rx="30.7941" fill="#ECF7FB"/>
<path d="M22.6201 34.2393C22.1197 34.7709 21.6761 35.3546 21.3008 35.9844C18.5748 36.4696 16.5002 38.8331 16.5 41.6719V42.498C16.5 42.9523 16.1247 43.3242 15.666 43.3242C15.2074 43.3242 14.832 42.9523 14.832 42.498V41.6719C14.8323 37.5685 18.1942 34.2394 22.3379 34.2393H22.6201ZM32.7637 33.4131C37.1368 33.4133 40.6865 36.9291 40.6865 41.2598V42.498C40.6865 42.9522 40.3111 43.3241 39.8525 43.3242C39.3938 43.3242 39.0186 42.9523 39.0186 42.498V41.2598C39.0186 37.8376 36.2194 35.0656 32.7637 35.0654H30.2617C26.8058 35.0654 24.0059 37.8375 24.0059 41.2598V42.498C24.0059 42.9523 23.6306 43.3242 23.1719 43.3242C22.7133 43.3241 22.3379 42.9522 22.3379 42.498V41.2598C22.3379 36.929 25.8884 33.4131 30.2617 33.4131H32.7637ZM40.6865 34.2393C44.8303 34.2394 48.1921 37.5685 48.1924 41.6719V42.498C48.1924 42.9523 47.8171 43.3242 47.3584 43.3242C46.8997 43.3242 46.5244 42.9523 46.5244 42.498V41.6719C46.5242 38.8331 44.4548 36.4696 41.7236 35.9844H41.7285C41.3532 35.3598 40.9105 34.7709 40.4102 34.2393H40.6865ZM23.1719 21.8506C23.4012 21.8506 23.6258 21.8665 23.8447 21.8975C23.6206 22.4085 23.4487 22.9504 23.334 23.5078C23.2767 23.5027 23.2243 23.5029 23.167 23.5029C21.327 23.5029 19.8311 24.9845 19.8311 26.8066C19.8313 28.6286 21.3271 30.1094 23.167 30.1094C23.683 30.1094 24.168 29.9965 24.6006 29.79C24.9185 30.2597 25.2888 30.6879 25.6953 31.0801C24.9552 31.5136 24.0898 31.7617 23.1621 31.7617C20.3996 31.7617 18.1575 29.5422 18.1572 26.8066C18.1572 24.0709 20.3995 21.8506 23.1621 21.8506H23.1719ZM39.8467 21.8506C42.6093 21.8506 44.8516 24.0709 44.8516 26.8066C44.8513 29.5422 42.6092 31.7617 39.8467 31.7617C38.9242 31.7616 38.0588 31.5136 37.3135 31.0801H37.3193C37.7258 30.6878 38.0962 30.2545 38.4141 29.79C38.8466 29.9964 39.3367 30.1094 39.8525 30.1094C41.6923 30.1093 43.1882 28.6285 43.1885 26.8066C43.1885 24.9846 41.6925 23.503 39.8525 23.5029C39.7952 23.5029 39.7429 23.5027 39.6855 23.5078C39.5709 22.9504 39.3989 22.4084 39.1748 21.8975C39.3936 21.8665 39.6227 21.8506 39.8467 21.8506ZM31.5127 19.373C33.0609 19.3732 34.5459 19.9823 35.6406 21.0664C36.7354 22.1506 37.3506 23.6211 37.3506 25.1543C37.3506 26.6875 36.7353 28.158 35.6406 29.2422C34.5459 30.3263 33.0609 30.9354 31.5127 30.9355C29.9643 30.9355 28.4786 30.3264 27.3838 29.2422C26.2891 28.158 25.6738 26.6875 25.6738 25.1543C25.6739 23.6211 26.2891 22.1506 27.3838 21.0664C28.4786 19.9822 29.9643 19.373 31.5127 19.373ZM31.5127 21.0254C30.4067 21.0254 29.3455 21.4599 28.5635 22.2344C27.7815 23.0088 27.3418 24.0591 27.3418 25.1543C27.3418 26.2494 27.7815 27.2998 28.5635 28.0742C29.3455 28.8486 30.4067 29.2842 31.5127 29.2842C32.6185 29.2841 33.679 28.8485 34.4609 28.0742C35.2429 27.2998 35.6826 26.2495 35.6826 25.1543C35.6826 24.0591 35.2429 23.0088 34.4609 22.2344C33.679 21.4601 32.6185 21.0255 31.5127 21.0254Z" fill="url(#paint0_linear_2137_13774)"/>
<defs>
<linearGradient id="paint0_linear_2137_13774" x1="14.832" y1="31.3486" x2="48.1924" y2="31.3486" gradientUnits="userSpaceOnUse">
<stop stop-color="#007DC0"/>
<stop offset="1" stop-color="#00B8E7"/>
</linearGradient>
</defs>
</svg>
