<svg width="32" height="34" viewBox="0 0 32 34" fill="none" xmlns="http://www.w3.org/2000/svg">
<rect width="32" height="34" rx="16" fill="#F34730" fill-opacity="0.08"/>
<g clip-path="url(#clip0_2828_5550)">
<path d="M11.1449 14.5426C9.93203 15.7555 9.25 17.4008 9.25 19.1164V19.5207C9.25 23.0996 12.1504 26 15.7293 26H16.2602C19.8461 26 22.75 23.0961 22.75 19.5102C22.75 17.1863 21.7973 14.968 20.1168 13.3648L17.3676 10.7492C17.0336 10.4293 16.8438 9.98984 16.8438 9.52578V8.74883C16.8438 8.3375 16.5062 8 16.0949 8C15.8594 8 15.6379 8.1125 15.4938 8.29883L14.8082 9.21289C14.302 9.89141 13.9926 10.6965 13.9223 11.5402L13.8906 11.9199C13.859 12.3172 13.8766 12.7109 13.9469 13.0977C14.0453 13.6355 14.2387 14.1488 14.5234 14.6199C14.5445 14.6586 14.5691 14.6937 14.5938 14.7324C14.65 14.8203 14.7133 14.9082 14.7766 14.9961L15.9016 16.4973C16.1477 16.8242 16.2812 17.225 16.2812 17.6363V18.1285C16.2812 18.9055 15.652 19.5348 14.875 19.5348C14.098 19.5348 13.4688 18.9055 13.4688 18.1285V15.0453V14.6234C13.4688 14.2437 13.2543 13.9133 12.9414 13.7445C12.8008 13.6707 12.6426 13.6285 12.4738 13.6285C12.2102 13.6285 11.957 13.734 11.7707 13.9203L11.1449 14.5426ZM15.7363 9.84922C15.8102 10.4996 16.1125 11.1078 16.5906 11.5613L19.3398 14.1805C20.7988 15.5691 21.625 17.4957 21.625 19.5102C21.625 22.4738 19.2238 24.875 16.2602 24.875H15.7293C12.7727 24.875 10.375 22.4773 10.375 19.5207V19.1164C10.375 17.6996 10.9375 16.3391 11.9395 15.3371L12.3438 14.9363V18.125C12.3438 19.5242 13.4758 20.6562 14.875 20.6562C16.2742 20.6562 17.4062 19.5242 17.4062 18.125V17.6328C17.4062 16.9789 17.1953 16.3426 16.8016 15.8187L15.6766 14.3176C15.1809 13.6566 14.9453 12.8375 15.0121 12.0113L15.0438 11.6316C15.0965 10.9988 15.325 10.3941 15.7082 9.88789L15.7363 9.84922Z" fill="#F34730"/>
</g>
<defs>
<clipPath id="clip0_2828_5550">
<rect width="16" height="18" fill="white" transform="translate(8 8)"/>
</clipPath>
</defs>
</svg>
