<svg width="224" height="66" viewBox="0 0 224 66" fill="none" xmlns="http://www.w3.org/2000/svg">
<mask id="path-1-outside-1_1693_29285" maskUnits="userSpaceOnUse" x="0.943093" y="1.60933e-06" width="222.115" height="65.3955" fill="black">
<rect fill="white" x="0.943093" y="1.60933e-06" width="222.115" height="65.3955"/>
<path d="M1.05713 1L223.057 1.39556L222.943 65.2618L0.943331 64.8662L1.05713 1Z"/>
</mask>
<path d="M1.05713 1L223.057 1.39556L222.943 65.2618L0.943331 64.8662L1.05713 1Z" fill="url(#paint0_linear_1693_29285)"/>
<path d="M1.05713 1L1.05535 2L223.055 2.39556L223.057 1.39556L223.059 0.395564L1.05891 1.60933e-06L1.05713 1Z" fill="#007DC0" mask="url(#path-1-outside-1_1693_29285)"/>
<path d="M65.477 50.564C64.6186 50.5624 63.8758 50.3099 63.2486 49.8063C62.6214 49.3027 62.1308 48.4957 61.7768 47.3854C61.4439 46.2542 61.279 44.7988 61.2821 43.0191L64.3285 43.0246C64.3279 43.3386 64.4322 43.5482 64.6414 43.6532C64.8715 43.7583 65.196 43.8113 65.6147 43.812L66.1486 43.813L66.4879 47.2682L66.1366 50.5652L65.477 50.564ZM49.9773 42.3395C49.515 43.3018 49.1258 44.3165 48.8099 45.3837C48.5148 46.451 48.3666 47.4139 48.365 48.2723C48.3636 49.0888 48.488 49.7486 48.7384 50.2515C48.9888 50.7335 49.4173 51.0902 50.0241 51.3216C50.6309 51.553 51.4577 51.6696 52.5045 51.6715L54.4517 51.6749C55.5823 51.677 56.4199 51.5947 56.9646 51.4282C57.5092 51.2826 57.8761 51.0111 58.0652 50.6136C58.2544 50.2161 58.3497 49.5882 58.3512 48.7298L58.3687 38.9312L64.3357 38.9418L64.3183 48.7404C64.3131 51.6716 63.5028 54.0151 61.8875 55.7709C60.2722 57.5477 57.7896 58.4331 54.4396 58.4271L52.4925 58.4237C50.336 58.4198 48.5048 57.9664 46.9989 57.0634C45.493 56.1814 44.3646 54.965 43.6136 53.4143C42.8626 51.8846 42.4888 50.1671 42.4922 48.2618C42.4945 46.9637 42.7273 45.5404 43.1907 43.9919C43.675 42.4434 44.2218 41.073 44.8311 39.8807L49.9773 42.3395ZM51.4372 33.7683C52.3375 33.7699 53.2378 33.7715 54.1381 33.7731C55.164 33.775 56.0329 33.7765 56.7448 33.7778C56.7427 34.9503 56.7411 35.8191 56.7401 36.3844C56.7391 36.9497 56.7376 37.7977 56.7356 38.9283C55.5212 38.9261 54.621 38.9245 54.0347 38.9235C53.4485 38.9224 52.5796 38.9209 51.4281 38.9188C51.4301 37.7464 51.4317 36.8775 51.4327 36.3122C51.4337 35.7469 51.4352 34.8989 51.4372 33.7683ZM76.8305 38.9641L76.8232 43.0468C76.8227 43.3609 76.8956 43.5704 77.0419 43.6753C77.2093 43.7803 77.4813 43.8331 77.8582 43.8338L79.1458 43.8361L79.3908 47.354L79.1338 50.5883L77.6577 50.5857C76.5062 50.5836 75.4075 50.299 74.3617 49.7319C73.3368 49.1438 72.5008 48.2839 71.8538 47.1521C71.2068 45.9994 70.8847 44.6275 70.8876 43.0363L70.8948 38.9535L76.8305 38.9641ZM76.8232 43.0468C76.8207 44.4706 76.4729 45.7576 75.78 46.9079C75.087 48.0582 74.1746 48.9568 73.0429 49.6039C71.9111 50.2509 70.7381 50.5734 69.5237 50.5712L65.8178 50.5646L65.8299 43.8124L69.5043 43.8189C70.0696 43.8199 70.4361 43.7683 70.6038 43.6639C70.7924 43.5595 70.887 43.3503 70.8876 43.0363L76.8232 43.0468ZM66.8492 53.3615C67.4564 53.3626 67.9798 53.3635 68.4195 53.3643C68.8801 53.3651 69.414 53.3661 70.0212 53.3672C70.5237 53.3681 71.0367 53.369 71.5601 53.3699C71.5589 54.0608 71.5579 54.5843 71.5573 54.9402C71.5567 55.2961 71.5557 55.8196 71.5545 56.5105C71.5536 57.013 71.5527 57.5259 71.5517 58.0494C70.484 58.0475 69.6883 58.046 69.1649 58.0451C68.6415 58.0442 67.8668 58.0428 66.8409 58.041C66.8428 56.9732 66.8442 56.1776 66.8452 55.6541C66.8461 55.1516 66.8474 54.3874 66.8492 53.3615ZM71.3717 53.3696C72.4604 53.3715 73.256 53.3729 73.7585 53.3738C74.2819 53.3748 75.0566 53.3762 76.0825 53.378C76.0806 54.4458 76.0792 55.2309 76.0783 55.7334C76.0774 56.2568 76.076 57.0315 76.0742 58.0574C75.0064 58.0555 74.2108 58.0541 73.6873 58.0532C73.1848 58.0523 72.4102 58.0509 71.3633 58.049C71.3642 57.5256 71.3652 57.0126 71.3661 56.5101C71.3673 55.7983 71.3683 55.2644 71.3689 54.9085C71.3695 54.5735 71.3704 54.0605 71.3717 53.3696ZM80.2784 43.8381L83.576 43.844C84.2878 43.8453 84.801 43.731 85.1155 43.5013C85.43 43.2506 85.5563 42.874 85.4944 42.3714C85.3909 41.6802 85.2874 41.0101 85.1839 40.3608C85.1013 39.6907 84.977 38.9367 84.811 38.099L90.4038 36.6957C90.6948 37.8687 90.9439 39.073 91.1511 40.3087C91.3792 41.5234 91.4925 42.56 91.491 43.4184C91.4888 44.6328 91.225 45.7943 90.6996 46.9031C90.1743 47.9908 89.3771 48.8793 88.308 49.5683C87.26 50.2573 85.9717 50.6005 84.4433 50.5978L80.2664 50.5903L80.2784 43.8381ZM82.757 62.843C82.7586 61.9427 82.7598 61.2727 82.7606 60.833C82.7613 60.4143 82.7625 59.7652 82.764 58.8859C83.769 58.8877 84.5123 58.889 84.9938 58.8899C85.4963 58.8907 86.2396 58.8921 87.2236 58.8938C87.222 59.7941 87.2209 60.4536 87.2201 60.8724C87.2193 61.3121 87.2182 61.9716 87.2166 62.8509C86.2116 62.8491 85.4579 62.8478 84.9554 62.8469C84.4738 62.846 83.741 62.8447 82.757 62.843ZM80.3483 57.4997C80.3502 56.4319 80.3516 55.6363 80.3525 55.1129C80.3534 54.6104 80.3548 53.8357 80.3567 52.7889C81.4245 52.7908 82.2201 52.7922 82.7435 52.7931C83.2669 52.7941 84.0416 52.7955 85.0675 52.7973C85.0656 53.886 85.0641 54.6816 85.0633 55.1841C85.0623 55.7075 85.0609 56.4822 85.0591 57.5081C84.5357 57.5072 84.0227 57.5063 83.5202 57.5054C82.9131 57.5043 82.3792 57.4929 81.9186 57.4711C81.4789 57.4703 80.9555 57.4799 80.3483 57.4997ZM84.9335 57.5079C84.9354 56.4401 84.9368 55.6445 84.9377 55.1211C84.9386 54.6186 84.94 53.8439 84.9419 52.7971C86.0097 52.799 86.7948 52.8004 87.2973 52.8013C87.8207 52.8022 88.5954 52.8036 89.6213 52.8054C89.6194 53.8941 89.618 54.6897 89.6171 55.1922C89.6161 55.7156 89.6148 56.4903 89.6129 57.5162C88.5451 57.5143 87.7495 57.5129 87.2261 57.512C86.7236 57.5111 85.9594 57.5097 84.9335 57.5079ZM78.8337 43.8356L80.4668 43.8385L80.6807 47.1993L80.4548 50.5907L78.8217 50.5878L78.8337 43.8356ZM99.932 51.6618C101.209 51.664 102.11 51.5924 102.633 51.4467C103.178 51.3221 103.534 51.061 103.702 50.6635C103.892 50.266 103.987 49.6067 103.989 48.6854L104.001 41.7762C104.002 41.0644 103.857 40.5093 103.564 40.1109C103.272 39.7126 102.78 39.5128 102.089 39.5116C101.44 39.5104 100.958 39.719 100.643 40.1371C100.329 40.5344 100.171 41.0471 100.17 41.6752C100.169 42.2614 100.325 42.7118 100.638 43.0265C100.952 43.3201 101.433 43.4676 102.082 43.4687L106.385 43.4764L106.373 49.8831L102.071 49.8754C99.7258 49.8713 97.895 49.198 96.5784 47.8557C95.2827 46.4925 94.637 44.607 94.6413 42.1992C94.6446 40.3777 94.9405 38.8184 95.529 37.5214C96.1385 36.2034 96.9988 35.2 98.1097 34.511C99.2415 33.8221 100.572 33.479 102.1 33.4817C103.691 33.4846 105.072 33.843 106.244 34.5569C107.436 35.2709 108.355 36.3299 109.002 37.7338C109.648 39.1168 109.97 40.8028 109.966 42.7918L109.956 48.6961C109.952 50.5385 109.594 52.1919 108.879 53.6563C108.186 55.1206 107.084 56.2807 105.575 57.1364C104.066 57.9921 102.181 58.418 99.92 58.414L95.3034 58.4057L95.3154 51.6535L99.932 51.6618Z" fill="white"/>
<path d="M175.105 59.6151C178.49 56.9636 180.964 53.3232 182.184 49.2001C183.403 45.077 183.308 40.6763 181.91 36.6102C180.512 32.5441 177.882 29.0147 174.385 26.513C170.888 24.0114 166.698 22.6618 162.398 22.6521L162.383 31.078C164.928 31.0837 167.404 31.8967 169.474 33.3774C171.544 34.8582 173.101 36.9473 173.928 39.354C174.756 41.7608 174.812 44.3656 174.09 46.8061C173.368 49.2466 171.904 51.4014 169.9 52.9708L175.105 59.6151Z" fill="white"/>
<path d="M151.866 22.6333L162.398 22.6521L162.383 31.078L151.851 31.0592L151.866 22.6333Z" fill="white"/>
<path d="M152.023 39.0993L162.747 39.1184C165.074 39.1225 166.956 41.0121 166.952 43.3388C166.948 45.6656 165.059 47.5484 162.732 47.5443L152.008 47.5252L152.023 39.0993Z" fill="white"/>
<path d="M151.802 55.3762L160.42 55.3916L166.916 63.8291L151.787 63.8021L151.802 55.3762Z" fill="white"/>
<path d="M113.455 47.4596C113.725 48.6506 114.11 50.0096 114.588 51.1397C115.645 53.6413 117.185 55.9101 119.12 57.8165C121.054 59.7229 123.345 61.2297 125.862 62.2507C128.378 63.2718 131.072 63.7871 133.788 63.7674L133.75 55.3472C132.143 55.3589 130.524 55.0342 129.035 54.4298C127.545 53.8254 126.189 52.9336 125.044 51.8051C123.899 50.6767 122.977 49.1423 122.351 47.6616C122.325 47.5997 122.3 47.5376 122.274 47.4753L113.455 47.4596Z" fill="white"/>
<path d="M144.076 63.7773L133.788 63.7674L133.75 55.3472L144.091 55.3514L144.076 63.7773Z" fill="white"/>
<path d="M135.665 55.3506L135.702 34.4774L144.128 34.4924L144.091 55.3514L135.665 55.3506Z" fill="white"/>
<path d="M144.113 42.9183L122.283 42.8794L115.787 34.4419L144.128 34.4924L144.113 42.9183Z" fill="white"/>
<path d="M134.192 22.6084L134.177 31.0277L125.751 31.0127L125.763 24.0934C128.036 23.1827 130.687 22.6022 133.724 22.6076L134.192 22.6084Z" fill="white"/>
<path d="M124.23 24.7836L124.219 31.01L116.996 30.9971C118.448 28.9683 120.849 26.4796 124.23 24.7836Z" fill="white"/>
<path d="M144.056 31.0453L135.709 31.0304L135.724 22.6112L144.071 22.6261L144.056 31.0453Z" fill="white"/>
<defs>
<linearGradient id="paint0_linear_1693_29285" x1="112.01" y1="-0.0391825" x2="111.95" y2="64.9607" gradientUnits="userSpaceOnUse">
<stop stop-color="#007DC0"/>
<stop offset="1" stop-color="#00B8E7"/>
</linearGradient>
</defs>
</svg>
