<svg width="24" height="24" viewBox="0 0 24 24" fill="none" xmlns="http://www.w3.org/2000/svg">
<rect width="23.951" height="23.951" rx="3.42157" fill="#F5F7F8"/>
<path d="M11.9759 4.70508C12.3314 4.70508 12.6175 4.9911 12.6175 5.34662V6.02292C15.4108 6.31963 17.6322 8.54098 17.9289 11.3344H18.6052C18.9607 11.3344 19.2467 11.6204 19.2467 11.9759C19.2467 12.3314 18.9607 12.6175 18.6052 12.6175H17.9289C17.6322 15.4108 15.4108 17.6322 12.6175 17.9289V18.6052C12.6175 18.9607 12.3314 19.2467 11.9759 19.2467C11.6204 19.2467 11.3344 18.9607 11.3344 18.6052V17.9289C8.54098 17.6322 6.31963 15.4108 6.02292 12.6175H5.34662C4.9911 12.6175 4.70508 12.3314 4.70508 11.9759C4.70508 11.6204 4.9911 11.3344 5.34662 11.3344H6.02292C6.31963 8.54098 8.54098 6.31963 11.3344 6.02292V5.34662C11.3344 4.9911 11.6204 4.70508 11.9759 4.70508ZM16.6806 11.9759C16.6806 10.7282 16.1849 9.53151 15.3026 8.64922C14.4203 7.76692 13.2237 7.27125 11.9759 7.27125C10.7282 7.27125 9.53151 7.76692 8.64922 8.64922C7.76692 9.53151 7.27125 10.7282 7.27125 11.9759C7.27125 13.2237 7.76692 14.4203 8.64922 15.3026C9.53151 16.1849 10.7282 16.6806 11.9759 16.6806C13.2237 16.6806 14.4203 16.1849 15.3026 15.3026C16.1849 14.4203 16.6806 13.2237 16.6806 11.9759ZM13.6867 11.9759C13.6867 11.5222 13.5065 11.087 13.1856 10.7662C12.8648 10.4454 12.4296 10.2651 11.9759 10.2651C11.5222 10.2651 11.087 10.4454 10.7662 10.7662C10.4454 11.087 10.2651 11.5222 10.2651 11.9759C10.2651 12.4296 10.4454 12.8648 10.7662 13.1856C11.087 13.5065 11.5222 13.6867 11.9759 13.6867C12.4296 13.6867 12.8648 13.5065 13.1856 13.1856C13.5065 12.8648 13.6867 12.4296 13.6867 11.9759ZM8.98204 11.9759C8.98204 11.5828 9.05948 11.1934 9.20993 10.8302C9.36039 10.467 9.58092 10.1369 9.85892 9.85892C10.1369 9.58092 10.467 9.36039 10.8302 9.20993C11.1934 9.05948 11.5828 8.98204 11.9759 8.98204C12.3691 8.98204 12.7584 9.05948 13.1216 9.20993C13.4848 9.36039 13.8149 9.58092 14.0929 9.85892C14.3709 10.1369 14.5914 10.467 14.7419 10.8302C14.8923 11.1934 14.9698 11.5828 14.9698 11.9759C14.9698 12.3691 14.8923 12.7584 14.7419 13.1216C14.5914 13.4848 14.3709 13.8149 14.0929 14.0929C13.8149 14.3709 13.4848 14.5914 13.1216 14.7419C12.7584 14.8923 12.3691 14.9698 11.9759 14.9698C11.5828 14.9698 11.1934 14.8923 10.8302 14.7419C10.467 14.5914 10.1369 14.3709 9.85892 14.0929C9.58092 13.8149 9.36039 13.4848 9.20993 13.1216C9.05948 12.7584 8.98204 12.3691 8.98204 11.9759Z" fill="#98AFBA"/>
</svg>
