<svg width="218" height="124" viewBox="0 0 218 124" fill="none" xmlns="http://www.w3.org/2000/svg">
<path d="M38.2944 44.0502C36.9898 44.0502 35.8603 43.6684 34.9057 42.9047C33.9511 42.1411 33.2034 40.9161 32.6625 39.2296C32.1534 37.5114 31.8988 35.3 31.8988 32.5954H36.5285C36.5285 33.0727 36.6876 33.3909 37.0058 33.55C37.3558 33.709 37.849 33.7886 38.4853 33.7886H39.2967L39.8217 39.0387L39.2967 44.0502H38.2944ZM14.7165 31.5931C14.0165 33.0568 13.4279 34.6 12.9506 36.2228C12.5051 37.8455 12.2824 39.3092 12.2824 40.6138C12.2824 41.8547 12.4733 42.857 12.8551 43.6207C13.2369 44.3525 13.8892 44.8934 14.812 45.2434C15.7347 45.5935 16.9916 45.7685 18.5825 45.7685H21.5417C23.2599 45.7685 24.5327 45.6412 25.36 45.3866C26.1873 45.1639 26.7441 44.7503 27.0305 44.1457C27.3169 43.5411 27.46 42.5866 27.46 41.282V26.3907H36.5285V41.282C36.5285 45.7366 35.3034 49.3004 32.8534 51.9732C30.4033 54.6778 26.6328 56.0301 21.5417 56.0301H18.5825C15.3052 56.0301 12.521 55.346 10.23 53.9778C7.93907 52.6414 6.22084 50.7959 5.07536 48.4413C3.92987 46.1185 3.35713 43.5093 3.35713 40.6138C3.35713 38.641 3.70714 36.4773 4.40716 34.1227C5.139 31.7681 5.96629 29.6839 6.88904 27.8703L14.7165 31.5931ZM16.912 18.5632C18.2803 18.5632 19.6485 18.5632 21.0167 18.5632C22.5758 18.5632 23.8963 18.5632 24.9782 18.5632C24.9782 20.3451 24.9782 21.6655 24.9782 22.5247C24.9782 23.3838 24.9782 24.6724 24.9782 26.3907C23.1327 26.3907 21.7644 26.3907 20.8735 26.3907C19.9826 26.3907 18.6621 26.3907 16.912 26.3907C16.912 24.6088 16.912 23.2883 16.912 22.4292C16.912 21.5701 16.912 20.2814 16.912 18.5632ZM55.5173 26.3907V32.5954C55.5173 33.0727 55.6287 33.3909 55.8514 33.55C56.106 33.709 56.5196 33.7886 57.0924 33.7886H59.0493L59.4311 39.1342L59.0493 44.0502H56.806C55.056 44.0502 53.3855 43.6207 51.7945 42.7616C50.2354 41.8706 48.9626 40.566 47.9762 38.8478C46.9898 37.0978 46.4966 35.0136 46.4966 32.5954V26.3907H55.5173ZM55.5173 32.5954C55.5173 34.7591 54.9923 36.7159 53.9423 38.466C52.8923 40.216 51.5081 41.5843 49.7899 42.5706C48.0717 43.557 46.2898 44.0502 44.4443 44.0502H38.8124V33.7886H44.3966C45.2557 33.7886 45.8125 33.709 46.0671 33.55C46.3535 33.3909 46.4966 33.0727 46.4966 32.5954H55.5173ZM40.3874 48.2981C41.3101 48.2981 42.1056 48.2981 42.7738 48.2981C43.4738 48.2981 44.2852 48.2981 45.208 48.2981C45.9716 48.2981 46.7512 48.2981 47.5467 48.2981C47.5467 49.3481 47.5467 50.1436 47.5467 50.6845C47.5467 51.2254 47.5467 52.0209 47.5467 53.0709C47.5467 53.8346 47.5467 54.6141 47.5467 55.4096C45.9239 55.4096 44.7148 55.4096 43.9193 55.4096C43.1238 55.4096 41.9465 55.4096 40.3874 55.4096C40.3874 53.7869 40.3874 52.5777 40.3874 51.7823C40.3874 51.0186 40.3874 49.8572 40.3874 48.2981ZM47.2603 48.2981C48.9149 48.2981 50.124 48.2981 50.8877 48.2981C51.6831 48.2981 52.8605 48.2981 54.4196 48.2981C54.4196 49.9208 54.4196 51.1141 54.4196 51.8777C54.4196 52.6732 54.4196 53.8505 54.4196 55.4096C52.7968 55.4096 51.5877 55.4096 50.7922 55.4096C50.0286 55.4096 48.8513 55.4096 47.2603 55.4096C47.2603 54.6141 47.2603 53.8346 47.2603 53.0709C47.2603 51.9891 47.2603 51.1777 47.2603 50.6368C47.2603 50.1277 47.2603 49.3481 47.2603 48.2981ZM60.7705 33.7886H65.782C66.8638 33.7886 67.6434 33.6136 68.1207 33.2636C68.5979 32.8818 68.7889 32.309 68.6934 31.5454C68.5343 30.4953 68.3752 29.4771 68.2161 28.4907C68.0888 27.4725 67.8979 26.327 67.6434 25.0543L76.1391 22.9065C76.5845 24.6884 76.9664 26.5179 77.2845 28.3953C77.6346 30.2408 77.8096 31.8158 77.8096 33.1204C77.8096 34.9659 77.4118 36.7319 76.6163 38.4183C75.8209 40.0729 74.6117 41.4252 72.989 42.4752C71.398 43.5252 69.4412 44.0502 67.1184 44.0502H60.7705V33.7886ZM64.5887 62.6644C64.5887 61.2961 64.5887 60.2779 64.5887 59.6097C64.5887 58.9734 64.5887 57.987 64.5887 56.6506C66.1161 56.6506 67.2456 56.6506 67.9775 56.6506C68.7411 56.6506 69.8707 56.6506 71.3662 56.6506C71.3662 58.0188 71.3662 59.0211 71.3662 59.6575C71.3662 60.3257 71.3662 61.328 71.3662 62.6644C69.8389 62.6644 68.6934 62.6644 67.9297 62.6644C67.1979 62.6644 66.0842 62.6644 64.5887 62.6644ZM60.9137 54.5505C60.9137 52.9277 60.9137 51.7186 60.9137 50.9231C60.9137 50.1595 60.9137 48.9822 60.9137 47.3912C62.5364 47.3912 63.7455 47.3912 64.541 47.3912C65.3365 47.3912 66.5138 47.3912 68.0729 47.3912C68.0729 49.0458 68.0729 50.2549 68.0729 51.0186C68.0729 51.8141 68.0729 52.9914 68.0729 54.5505C67.2775 54.5505 66.4979 54.5505 65.7342 54.5505C64.8115 54.5505 64.0001 54.5346 63.3001 54.5028C62.6319 54.5028 61.8364 54.5187 60.9137 54.5505ZM67.882 54.5505C67.882 52.9277 67.882 51.7186 67.882 50.9231C67.882 50.1595 67.882 48.9822 67.882 47.3912C69.5048 47.3912 70.698 47.3912 71.4617 47.3912C72.2571 47.3912 73.4344 47.3912 74.9936 47.3912C74.9936 49.0458 74.9936 50.2549 74.9936 51.0186C74.9936 51.8141 74.9936 52.9914 74.9936 54.5505C73.3708 54.5505 72.1617 54.5505 71.3662 54.5505C70.6025 54.5505 69.4412 54.5505 67.882 54.5505ZM58.575 33.7886H61.0568L61.3909 38.8955L61.0568 44.0502H58.575V33.7886ZM90.6601 45.6253C92.6011 45.6253 93.9693 45.5139 94.7647 45.2912C95.592 45.1003 96.133 44.7025 96.3875 44.098C96.6739 43.4934 96.8171 42.4911 96.8171 41.0911V30.5908C96.8171 29.5089 96.5943 28.6657 96.1489 28.0612C95.7034 27.4566 94.9557 27.1543 93.9056 27.1543C92.9192 27.1543 92.1874 27.4725 91.7101 28.1089C91.2328 28.7135 90.9942 29.493 90.9942 30.4476C90.9942 31.3385 91.2328 32.0226 91.7101 32.4999C92.1874 32.9454 92.9192 33.1681 93.9056 33.1681H100.444V42.9047H93.9056C90.3419 42.9047 87.5577 41.8865 85.5531 39.8501C83.5804 37.7819 82.594 34.9182 82.594 31.259C82.594 28.4907 83.0394 26.1202 83.9304 24.1474C84.8531 22.1428 86.1577 20.6155 87.8441 19.5655C89.5623 18.5155 91.5828 17.9904 93.9056 17.9904C96.3239 17.9904 98.4239 18.5314 100.206 19.6132C102.019 20.6951 103.42 22.3019 104.406 24.4338C105.392 26.5339 105.886 29.0953 105.886 32.1181V41.0911C105.886 43.8911 105.345 46.4048 104.263 48.6322C103.213 50.8595 101.542 52.6255 99.2512 53.93C96.9603 55.2346 94.0965 55.8869 90.6601 55.8869H83.644V45.6253H90.6601Z" fill="white"/>
<path d="M205.024 56.907C210.161 52.8683 213.911 47.329 215.753 41.0597C217.596 34.7904 217.438 28.1027 215.303 21.927C213.168 15.7514 209.161 10.3948 203.839 6.60235C198.518 2.80993 192.147 0.77029 185.613 0.767151L185.613 13.5724C189.48 13.5742 193.245 14.803 196.395 17.0478C199.545 19.2926 201.916 22.4632 203.18 26.1186C204.444 29.774 204.537 33.7325 203.447 37.4434C202.356 41.1542 200.137 44.433 197.096 46.8235L205.024 56.907Z" fill="white"/>
<path d="M169.606 0.767151H185.613L185.613 13.5724H169.606V0.767151Z" fill="white"/>
<path d="M169.889 25.7908H186.187C189.723 25.7908 192.589 28.6573 192.589 32.1934C192.589 35.7294 189.723 38.596 186.187 38.596H169.889V25.7908Z" fill="white"/>
<path d="M169.598 50.5281H182.695L192.589 63.3334H169.598V50.5281Z" fill="white"/>
<path d="M111.299 38.6007C111.712 40.41 112.301 42.4743 113.03 44.1905C114.644 47.9894 116.99 51.4332 119.935 54.3252C122.88 57.2173 126.366 59.501 130.194 61.0459C134.021 62.5908 138.116 63.3667 142.243 63.3293L142.164 50.5329C139.721 50.555 137.26 50.0659 134.995 49.1515C132.729 48.237 130.666 46.8853 128.923 45.1735C127.18 43.4616 125.775 41.1323 124.819 38.8837C124.779 38.7897 124.74 38.6953 124.702 38.6007H111.299Z" fill="white"/>
<path d="M157.879 63.3166L142.243 63.3293L142.164 50.5329L157.879 50.5114V63.3166Z" fill="white"/>
<path d="M145.074 50.5329V18.8109H157.879L157.879 50.5114L145.074 50.5329Z" fill="white"/>
<path d="M157.879 31.6161H124.702L114.807 18.8109H157.879V31.6161Z" fill="white"/>
<path d="M142.746 0.77724L142.746 13.5724H129.94V3.05678C133.392 1.66666 137.419 0.77724 142.034 0.77724H142.746Z" fill="white"/>
<path d="M127.612 4.10993L127.612 13.5724H116.635C118.836 10.4851 122.478 6.69652 127.612 4.10993Z" fill="white"/>
<path d="M157.759 13.5724H145.074V0.77724H157.759L157.759 13.5724Z" fill="white"/>
<path d="M13.977 86.9164C14.1763 87.7135 14.5518 88.2729 15.1036 88.5948C15.6554 88.9167 16.3298 89.0776 17.1268 89.0776H17.5866L17.7476 90.4801L17.5866 91.9745H17.1268C15.8853 91.9745 14.7281 91.6296 13.6551 90.9399C12.5976 90.2348 11.8772 89.1236 11.494 87.6062C10.8502 84.8779 10.2065 82.1496 9.56272 79.4213L12.0458 78.7775L13.977 86.9164ZM13.2413 84.2724C13.3486 85.2687 13.3486 86.1041 13.2413 86.7785C13.1493 87.4529 12.9271 88.089 12.5746 88.6867C12.1454 89.4378 11.6013 90.0202 10.9422 90.4341C10.2831 90.8479 9.57038 91.0548 8.80401 91.0548C8.03763 91.0548 7.28659 90.8479 6.55087 90.4341C5.83048 90.0202 5.27103 89.4378 4.87251 88.6867C4.474 87.9357 4.27474 87.1387 4.27474 86.2957C4.27474 85.4527 4.474 84.6863 4.87251 83.9965C5.16374 83.5061 5.48561 83.0999 5.83814 82.778C6.206 82.4561 6.78845 82.0883 7.58547 81.6744C8.3825 81.2606 9.56272 80.7395 11.1261 80.111L12.0917 82.778C10.8962 83.1919 9.95357 83.5597 9.26383 83.8816C8.57409 84.2035 8.07595 84.487 7.7694 84.7323C7.47818 84.9775 7.24827 85.2227 7.07967 85.468C6.8191 85.9125 6.75013 86.3723 6.87275 86.8475C6.99537 87.3073 7.27126 87.6828 7.70043 87.974C8.1296 88.2499 8.61241 88.3419 9.14887 88.2499C9.68534 88.1426 10.1452 87.8744 10.5283 87.4452C10.7889 87.154 10.9422 86.8091 10.9882 86.4106C11.0342 85.9968 10.9882 85.4373 10.8502 84.7323L13.2413 84.2724ZM17.3573 89.0776H18.4149C19.2272 89.0776 19.917 89.0546 20.4841 89.0086C21.0512 88.9473 21.557 88.8553 22.0015 88.7327L20.576 86.7785C19.9016 85.8435 19.4341 85.1998 19.1736 84.8472L20.76 81.9733H26.8986C27.8029 81.9733 28.5233 82.2799 29.0598 82.893C29.6116 83.5061 29.8721 84.2341 29.8415 85.0771C29.8108 85.9201 29.4813 86.6635 28.8529 87.3073L28.1861 87.951C27.8336 88.2576 27.4887 88.5795 27.1515 88.9167C27.4427 88.978 27.711 89.024 27.9562 89.0546C28.2014 89.0699 28.5157 89.0776 28.8988 89.0776H31.175L31.3589 90.549L31.175 91.9745H28.1631C27.3968 91.9745 26.73 91.8749 26.1629 91.6756C25.5958 91.4763 25.0363 91.1851 24.4845 90.8019C23.8101 91.1851 23.0514 91.4763 22.2084 91.6756C21.3654 91.8749 20.3614 91.9745 19.1966 91.9745H17.3573V89.0776ZM24.6455 88.1809C24.998 87.8437 25.4655 87.3609 26.0479 86.7325C26.3851 86.38 26.7223 86.0428 27.0595 85.7209C27.2128 85.5676 27.2971 85.399 27.3124 85.2151C27.3278 85.0311 27.2665 84.8855 27.1285 84.7782C26.9906 84.6556 26.7913 84.5943 26.5307 84.5943H21.9555C22.2774 84.9928 22.7295 85.5829 23.312 86.3646C23.7718 87.0084 24.2163 87.6138 24.6455 88.1809ZM30.9409 89.0776H32.5273C33.1251 89.0776 33.5543 88.955 33.8148 88.7097C34.0754 88.4492 34.2057 88.0353 34.2057 87.4682V84.4794H36.7577V87.6062C36.7577 88.112 36.8956 88.4798 37.1715 88.7097C37.4474 88.9397 37.8306 89.0623 38.3211 89.0776C38.8882 89.0623 39.3097 88.9243 39.5856 88.6638C39.8768 88.4032 40.0224 87.997 40.0224 87.4452L39.9995 84.4794H42.5515V87.6062C42.5515 88.112 42.6741 88.4798 42.9193 88.7097C43.1799 88.9397 43.5631 89.0623 44.0689 89.0776C44.6054 89.0623 45.0192 88.9243 45.3104 88.6638C45.6016 88.3879 45.7243 88.02 45.6783 87.5602C45.6016 86.9624 45.502 86.3416 45.3794 85.6979C45.2721 85.0541 45.1495 84.3721 45.0115 83.6517L47.4256 83.0309C47.6095 83.782 47.7781 84.6096 47.9314 85.514C48.0847 86.403 48.169 87.131 48.1843 87.6981C48.1996 88.4338 48.0617 89.1312 47.7705 89.7903C47.4793 90.4341 47.0194 90.9629 46.391 91.3767C45.7779 91.7752 45.0039 91.9745 44.0689 91.9745C43.5171 91.9745 42.9883 91.8595 42.4825 91.6296C41.992 91.3844 41.5705 91.0395 41.218 90.595C40.8655 91.0242 40.4363 91.3614 39.9305 91.6066C39.4247 91.8519 38.8729 91.9745 38.2751 91.9745C37.754 91.9745 37.2175 91.8442 36.6657 91.5836C36.1139 91.3231 35.6924 90.9935 35.4012 90.595C35.0947 91.0242 34.6808 91.3614 34.1597 91.6066C33.6539 91.8519 33.0791 91.9745 32.4354 91.9745H30.9409V89.0776ZM53.5395 94.9863C54.5664 94.9863 55.3404 94.879 55.8616 94.6645C56.3827 94.4652 56.7352 94.1357 56.9192 93.6758C57.1184 93.2313 57.2181 92.6029 57.2181 91.7906V87.2383C57.2181 86.4259 57.0418 85.7899 56.6893 85.33C56.3521 84.8702 55.8079 84.6403 55.0569 84.6403C54.3672 84.6403 53.8384 84.8779 53.4705 85.353C53.118 85.8128 52.9417 86.4259 52.9417 87.1923C52.9417 87.8821 53.1103 88.3879 53.4475 88.7097C53.7847 89.0163 54.3288 89.1696 55.0799 89.1696H57.9078L58.6665 89.0776H61.0576L61.2185 90.549L61.0576 91.9745H55.0799C53.6698 91.9745 52.5508 91.5606 51.7232 90.733C50.8955 89.9053 50.4816 88.7557 50.4816 87.2843C50.4816 86.242 50.6732 85.3147 51.0564 84.5024C51.4549 83.6747 51.9991 83.0309 52.6888 82.5711C53.3785 82.1113 54.1679 81.8814 55.0569 81.8814C55.9919 81.8814 56.8119 82.1113 57.5169 82.5711C58.2373 83.0156 58.7891 83.644 59.1723 84.4564C59.5708 85.2687 59.7701 86.2114 59.7701 87.2843V91.7906C59.7701 92.9861 59.5632 94.036 59.1493 94.9404C58.7355 95.8447 58.0611 96.5574 57.1261 97.0785C56.2064 97.615 55.0109 97.8832 53.5395 97.8832H50.8725V94.9863H53.5395ZM60.825 89.0776H63.5379C64.3043 89.0776 64.8408 88.9473 65.1473 88.6867C65.4692 88.4262 65.6148 88.0583 65.5842 87.5832C65.5535 87.154 65.4692 86.5639 65.3313 85.8128C65.2086 85.0465 65.0783 84.3261 64.9404 83.6517L67.3545 83.0309C67.5384 83.782 67.707 84.6096 67.8603 85.514C68.0136 86.403 68.1055 87.131 68.1362 87.6981C68.1515 88.4338 67.9982 89.1312 67.6764 89.7903C67.3545 90.4341 66.8563 90.9629 66.1819 91.3767C65.5075 91.7752 64.6798 91.9745 63.6989 91.9745H60.825V89.0776ZM61.5837 77.8349C61.9822 77.8349 62.2734 77.8349 62.4574 77.8349C62.6566 77.8349 62.9478 77.8349 63.331 77.8349C63.6222 77.8349 63.9058 77.8349 64.1817 77.8349C64.1817 78.4327 64.1817 78.8772 64.1817 79.1684C64.1817 79.4443 64.1817 79.8658 64.1817 80.4329C63.5992 80.4329 63.1624 80.4329 62.8712 80.4329C62.5953 80.4329 62.1661 80.4329 61.5837 80.4329C61.5837 79.8351 61.5837 79.3983 61.5837 79.1224C61.5837 78.8465 61.5837 78.4174 61.5837 77.8349ZM65.8371 77.8349C66.4348 77.8349 66.8717 77.8349 67.1476 77.8349C67.4388 77.8349 67.8679 77.8349 68.4351 77.8349C68.4351 78.4327 68.4351 78.8772 68.4351 79.1684C68.4351 79.4443 68.4351 79.8658 68.4351 80.4329C67.8373 80.4329 67.3928 80.4329 67.1016 80.4329C66.8257 80.4329 66.4042 80.4329 65.8371 80.4329C65.8371 79.8351 65.8371 79.3983 65.8371 79.1224C65.8371 78.8465 65.8371 78.4174 65.8371 77.8349ZM78.3268 94.8714C79.3538 94.8714 80.1278 94.7641 80.649 94.5495C81.1701 94.3502 81.5226 94.0207 81.7065 93.5609C81.9058 93.1164 82.0054 92.488 82.0054 91.6756V87.1233C82.0054 86.311 81.8292 85.6749 81.4766 85.2151C81.1394 84.7553 80.5953 84.5253 79.8443 84.5253C79.1545 84.5253 78.6257 84.7629 78.2579 85.2381C77.9053 85.6979 77.7291 86.311 77.7291 87.0774C77.7291 87.7671 77.8977 88.2729 78.2349 88.5948C78.5721 88.9013 79.1162 89.0546 79.8672 89.0546H83.178V91.8595H79.8672C78.4571 91.8595 77.3382 91.4457 76.5105 90.618C75.6829 89.7903 75.269 88.6408 75.269 87.1693C75.269 86.1271 75.4606 85.1998 75.8438 84.3874C76.2423 83.5597 76.7864 82.916 77.4762 82.4561C78.1659 81.9963 78.9553 81.7664 79.8443 81.7664C80.7792 81.7664 81.5993 81.9963 82.3043 82.4561C83.0247 82.9006 83.5765 83.5291 83.9597 84.3414C84.3582 85.1538 84.5575 86.0964 84.5575 87.1693V91.6756C84.5575 92.8711 84.3505 93.9211 83.9367 94.8254C83.5228 95.7297 82.8484 96.4424 81.9135 96.9636C80.9938 97.5 79.7983 97.7683 78.3268 97.7683H75.6599V94.8714H78.3268ZM95.4062 85.8128C95.069 86.6099 94.7701 87.4146 94.5096 88.2269C94.2643 89.0393 94.1417 89.8976 94.1417 90.8019C94.1417 91.7522 94.2643 92.5186 94.5096 93.1011C94.7701 93.6988 95.1993 94.1433 95.7971 94.4345C96.3949 94.7411 97.1995 94.8944 98.2112 94.8944H100.533C101.56 94.8944 102.334 94.7871 102.855 94.5725C103.392 94.3732 103.752 94.0514 103.936 93.6069C104.135 93.1777 104.235 92.5723 104.235 91.7906V87.2383C104.235 86.4259 104.059 85.7899 103.706 85.33C103.354 84.8702 102.802 84.6403 102.051 84.6403C101.376 84.6403 100.855 84.8779 100.487 85.353C100.135 85.8128 99.9585 86.4259 99.9585 87.1923C99.9585 87.8821 100.127 88.3879 100.464 88.7097C100.802 89.0163 101.338 89.1696 102.074 89.1696H104.902L105.66 89.0776H108.051L108.212 90.549L108.051 91.9745H102.074C100.679 91.9745 99.56 91.5606 98.717 90.733C97.8893 89.9053 97.4754 88.7557 97.4754 87.2843C97.4754 86.242 97.667 85.3147 98.0502 84.5024C98.4487 83.6747 98.9929 83.0309 99.6826 82.5711C100.388 82.1113 101.177 81.8814 102.051 81.8814C103.001 81.8814 103.829 82.1113 104.534 82.5711C105.254 83.0156 105.806 83.644 106.189 84.4564C106.588 85.2687 106.787 86.2114 106.787 87.2843V91.7906C106.787 92.9554 106.572 93.9824 106.143 94.8714C105.729 95.7604 105.055 96.4654 104.12 96.9866C103.2 97.523 102.005 97.7913 100.533 97.7913H98.2112C96.0193 97.7913 94.3793 97.2012 93.291 96.0209C92.2181 94.8407 91.6817 93.1624 91.6817 90.9859C91.6817 89.775 91.8349 88.6484 92.1415 87.6062C92.448 86.5639 92.8082 85.5906 93.2221 84.6863L93.291 84.5483L95.4982 85.6059L95.4062 85.8128ZM98.4641 77.3751C98.8626 77.3751 99.1538 77.3751 99.3377 77.3751C99.537 77.3751 99.8282 77.3751 100.211 77.3751C100.503 77.3751 100.786 77.3751 101.062 77.3751C101.062 77.9729 101.062 78.4174 101.062 78.7086C101.062 78.9845 101.062 79.406 101.062 79.9731C100.48 79.9731 100.043 79.9731 99.7516 79.9731C99.4757 79.9731 99.0465 79.9731 98.4641 79.9731C98.4641 79.3753 98.4641 78.9385 98.4641 78.6626C98.4641 78.3867 98.4641 77.9575 98.4641 77.3751ZM102.717 77.3751C103.315 77.3751 103.752 77.3751 104.028 77.3751C104.319 77.3751 104.748 77.3751 105.315 77.3751C105.315 77.9729 105.315 78.4174 105.315 78.7086C105.315 78.9845 105.315 79.406 105.315 79.9731C104.718 79.9731 104.273 79.9731 103.982 79.9731C103.706 79.9731 103.285 79.9731 102.717 79.9731C102.717 79.3753 102.717 78.9385 102.717 78.6626C102.717 78.3867 102.717 77.9575 102.717 77.3751ZM114.853 84.4794V87.7901C114.853 88.2652 114.976 88.6024 115.221 88.8017C115.466 88.9856 115.849 89.0776 116.37 89.0776H117.589L117.727 90.595L117.589 91.9745H116.37C115.773 91.9745 115.16 91.8212 114.531 91.5147C113.903 91.2081 113.374 90.733 112.945 90.0892C112.516 89.4301 112.301 88.6101 112.301 87.6292V84.4794H114.853ZM114.669 87.8591C114.669 88.7327 114.462 89.4838 114.048 90.1122C113.634 90.7253 113.098 91.1928 112.439 91.5147C111.78 91.8212 111.098 91.9745 110.393 91.9745H107.818V89.0776H110.393C111.067 89.0776 111.55 88.9703 111.841 88.7557C112.148 88.5258 112.301 88.1503 112.301 87.6292L114.669 87.8591ZM108.324 95.0093C108.722 95.0093 109.013 95.0093 109.197 95.0093C109.396 95.0093 109.688 95.0093 110.071 95.0093C110.362 95.0093 110.646 95.0093 110.922 95.0093C110.922 95.6071 110.922 96.0439 110.922 96.3198C110.922 96.611 110.922 97.0402 110.922 97.6073C110.339 97.6073 109.902 97.6073 109.611 97.6073C109.335 97.6073 108.906 97.6073 108.324 97.6073C108.324 97.0096 108.324 96.5727 108.324 96.2968C108.324 96.0209 108.324 95.5918 108.324 95.0093ZM112.577 95.0093C113.175 95.0093 113.611 95.0093 113.887 95.0093C114.179 95.0093 114.608 95.0093 115.175 95.0093C115.175 95.6071 115.175 96.0439 115.175 96.3198C115.175 96.611 115.175 97.0402 115.175 97.6073C114.577 97.6073 114.133 97.6073 113.841 97.6073C113.566 97.6073 113.144 97.6073 112.577 97.6073C112.577 97.0096 112.577 96.5727 112.577 96.2968C112.577 96.0209 112.577 95.5918 112.577 95.0093ZM117.314 89.0776H118.326C119.061 89.0776 119.751 89.0469 120.395 88.9856C119.981 88.6178 119.651 88.1963 119.406 87.7211C119.176 87.2306 119.061 86.7172 119.061 86.1807C119.061 85.3684 119.268 84.602 119.682 83.8816C120.096 83.1459 120.655 82.5558 121.36 82.1113C122.065 81.6668 122.847 81.4445 123.706 81.4445C124.549 81.4445 125.315 81.6668 126.005 82.1113C126.71 82.5558 127.269 83.1459 127.683 83.8816C128.097 84.602 128.304 85.3684 128.304 86.1807C128.304 86.7172 128.181 87.2306 127.936 87.7211C127.706 88.1963 127.376 88.6254 126.947 89.0086C127.622 89.0546 128.304 89.0776 128.993 89.0776H129.982L130.166 90.526L129.982 91.9745H128.58C127.921 91.9745 127.147 91.8979 126.258 91.7446C125.369 91.576 124.51 91.3384 123.683 91.0318C122.824 91.3384 121.951 91.576 121.062 91.7446C120.188 91.8979 119.421 91.9745 118.762 91.9745H117.314V89.0776ZM123.66 88.6178C124.303 88.4185 124.824 88.1196 125.223 87.7211C125.621 87.3073 125.821 86.8398 125.821 86.3187C125.821 85.7056 125.614 85.2074 125.2 84.8242C124.801 84.4257 124.303 84.2265 123.706 84.2265C123.108 84.2265 122.602 84.4257 122.188 84.8242C121.774 85.2074 121.567 85.7056 121.567 86.3187C121.567 86.8551 121.751 87.3226 122.119 87.7211C122.502 88.1196 123.016 88.4185 123.66 88.6178ZM120.303 77.2831C120.701 77.2831 120.993 77.2831 121.176 77.2831C121.376 77.2831 121.667 77.2831 122.05 77.2831C122.341 77.2831 122.625 77.2831 122.901 77.2831C122.901 77.8809 122.901 78.3254 122.901 78.6166C122.901 78.8925 122.901 79.314 122.901 79.8811C122.318 79.8811 121.882 79.8811 121.59 79.8811C121.314 79.8811 120.885 79.8811 120.303 79.8811C120.303 79.2834 120.303 78.8465 120.303 78.5706C120.303 78.2947 120.303 77.8656 120.303 77.2831ZM124.556 77.2831C125.154 77.2831 125.591 77.2831 125.867 77.2831C126.158 77.2831 126.587 77.2831 127.154 77.2831C127.154 77.8809 127.154 78.3254 127.154 78.6166C127.154 78.8925 127.154 79.314 127.154 79.8811C126.556 79.8811 126.112 79.8811 125.821 79.8811C125.545 79.8811 125.123 79.8811 124.556 79.8811C124.556 79.2834 124.556 78.8465 124.556 78.5706C124.556 78.2947 124.556 77.8656 124.556 77.2831ZM144.123 91.9745C143.02 91.9745 142.1 91.6756 141.364 91.0778C140.628 90.4801 140.169 89.5911 139.985 88.4109L141.226 87.3992C141.441 87.9357 141.801 88.3495 142.307 88.6408C142.828 88.932 143.418 89.0776 144.077 89.0776H145.687L145.87 90.5031L145.687 91.9745H144.123ZM129.662 89.0776H132.467C133.509 89.0776 134.49 88.9703 135.409 88.7557C136.344 88.5411 137.226 88.2499 138.053 87.8821C138.896 87.5142 139.847 87.0237 140.904 86.4106L141.525 86.0428L141.617 86.9624L140.605 86.5716C139.134 86.0198 137.877 85.5753 136.835 85.2381C135.793 84.9009 135.118 84.7323 134.812 84.7323C134.444 84.7323 134.137 84.8319 133.892 85.0311C133.662 85.2304 133.455 85.5829 133.271 86.0887L130.972 85.376C131.34 84.2111 131.853 83.3375 132.513 82.755C133.172 82.1726 133.938 81.8814 134.812 81.8814C135.363 81.8814 136.214 82.0883 137.364 82.5021C138.529 82.9006 140.031 83.4831 141.87 84.2494C142.36 84.4487 142.751 84.6096 143.043 84.7323L143.502 87.8591L142.491 88.4798C141.219 89.2615 140.1 89.8976 139.134 90.3881C138.184 90.8632 137.149 91.2464 136.03 91.5377C134.927 91.8289 133.739 91.9745 132.467 91.9745H129.662V89.0776ZM145.403 89.0776H148.116C148.882 89.0776 149.419 88.9473 149.725 88.6867C150.047 88.4262 150.193 88.0583 150.162 87.5832C150.131 87.154 150.047 86.5639 149.909 85.8128C149.787 85.0465 149.656 84.3261 149.518 83.6517L151.932 83.0309C152.116 83.782 152.285 84.6096 152.438 85.514C152.591 86.403 152.683 87.131 152.714 87.6981C152.729 88.4338 152.576 89.1312 152.254 89.7903C151.932 90.4341 151.434 90.9629 150.76 91.3767C150.085 91.7752 149.258 91.9745 148.277 91.9745H145.403V89.0776ZM146.162 77.8349C146.56 77.8349 146.851 77.8349 147.035 77.8349C147.235 77.8349 147.526 77.8349 147.909 77.8349C148.2 77.8349 148.484 77.8349 148.76 77.8349C148.76 78.4327 148.76 78.8772 148.76 79.1684C148.76 79.4443 148.76 79.8658 148.76 80.4329C148.177 80.4329 147.74 80.4329 147.449 80.4329C147.173 80.4329 146.744 80.4329 146.162 80.4329C146.162 79.8351 146.162 79.3983 146.162 79.1224C146.162 78.8465 146.162 78.4174 146.162 77.8349ZM150.415 77.8349C151.013 77.8349 151.45 77.8349 151.725 77.8349C152.017 77.8349 152.446 77.8349 153.013 77.8349C153.013 78.4327 153.013 78.8772 153.013 79.1684C153.013 79.4443 153.013 79.8658 153.013 80.4329C152.415 80.4329 151.971 80.4329 151.68 80.4329C151.404 80.4329 150.982 80.4329 150.415 80.4329C150.415 79.8351 150.415 79.3983 150.415 79.1224C150.415 78.8465 150.415 78.4174 150.415 77.8349ZM164.399 91.9745C163.372 91.9745 162.491 91.7292 161.755 91.2388C161.035 90.7483 160.506 90.0969 160.169 89.2845C159.847 88.4722 159.763 87.6215 159.916 86.7325C160.085 85.7515 160.322 84.648 160.629 83.4218L162.974 84.0195L162.859 84.5483C162.552 85.7899 162.376 86.6482 162.33 87.1233C162.253 87.7211 162.391 88.1963 162.744 88.5488C163.112 88.9013 163.663 89.0776 164.399 89.0776H174.377C175.052 89.0776 175.542 88.9703 175.849 88.7557C176.155 88.5258 176.309 88.1503 176.309 87.6292V84.4794H178.838V87.7901C178.838 88.2652 178.96 88.6024 179.206 88.8017C179.451 88.9856 179.842 89.0776 180.378 89.0776H181.114L181.252 90.526L181.114 91.9745H180.378C179.888 91.9745 179.382 91.8672 178.861 91.6526C178.34 91.438 177.88 91.1238 177.481 90.71C177.113 91.1238 176.654 91.438 176.102 91.6526C175.565 91.8672 174.99 91.9745 174.377 91.9745H164.399ZM166.307 81.3066C166.706 81.3066 166.997 81.3066 167.181 81.3066C167.38 81.3066 167.672 81.3066 168.055 81.3066C168.346 81.3066 168.63 81.3066 168.905 81.3066C168.905 81.9043 168.905 82.3488 168.905 82.6401C168.905 82.916 168.905 83.3375 168.905 83.9046C168.323 83.9046 167.886 83.9046 167.595 83.9046C167.319 83.9046 166.89 83.9046 166.307 83.9046C166.307 83.3068 166.307 82.87 166.307 82.5941C166.307 82.3182 166.307 81.889 166.307 81.3066ZM170.561 81.3066C171.159 81.3066 171.595 81.3066 171.871 81.3066C172.163 81.3066 172.592 81.3066 173.159 81.3066C173.159 81.9043 173.159 82.3488 173.159 82.6401C173.159 82.916 173.159 83.3375 173.159 83.9046C172.561 83.9046 172.117 83.9046 171.825 83.9046C171.549 83.9046 171.128 83.9046 170.561 83.9046C170.561 83.3068 170.561 82.87 170.561 82.5941C170.561 82.3182 170.561 81.889 170.561 81.3066ZM191.798 78.1568L185.108 81.1226L188.879 84.9392C189.722 85.7975 190.151 86.7861 190.166 87.905C190.197 89.024 189.836 89.9819 189.085 90.7789C188.334 91.576 187.307 91.9745 186.005 91.9745H180.878V89.0776H186.051C186.572 89.0776 186.963 88.9703 187.223 88.7557C187.499 88.5411 187.614 88.2652 187.568 87.928C187.537 87.5908 187.346 87.246 186.993 86.8934L182.349 82.2032L182.993 78.9385L190.787 75.5358L191.798 78.1568ZM196.961 84.4794V90.9629C196.961 92.4037 196.716 93.6299 196.226 94.6415C195.735 95.6531 195.007 96.4271 194.041 96.9636C193.076 97.5 191.903 97.7683 190.524 97.7683H189.075V94.8714H190.524C191.505 94.8714 192.271 94.7488 192.823 94.5035C193.39 94.2583 193.796 93.8521 194.041 93.285C194.302 92.7332 194.432 91.9592 194.432 90.9629V84.4794H196.961ZM196.961 87.7901C196.961 88.2652 197.084 88.6024 197.329 88.8017C197.574 88.9856 197.965 89.0776 198.502 89.0776H198.87L199.008 90.549L198.87 91.9745H198.502C198.042 91.9745 197.62 91.8825 197.237 91.6986C196.869 91.5147 196.555 91.2005 196.295 90.756C196.049 90.3115 195.911 89.7367 195.881 89.0316L196.961 87.7901ZM198.637 89.0776H200.224C200.822 89.0776 201.251 88.955 201.511 88.7097C201.772 88.4492 201.902 88.0353 201.902 87.4682V84.4794H204.454V87.6062C204.454 88.112 204.592 88.4798 204.868 88.7097C205.144 88.9397 205.527 89.0623 206.018 89.0776C206.585 89.0623 207.006 88.9243 207.282 88.6638C207.573 88.4032 207.719 87.997 207.719 87.4452L207.696 84.4794H210.248V87.6062C210.248 88.112 210.371 88.4798 210.616 88.7097C210.876 88.9397 211.26 89.0623 211.765 89.0776C212.302 89.0623 212.716 88.9243 213.007 88.6638C213.298 88.3879 213.421 88.02 213.375 87.5602C213.298 86.9624 213.198 86.3416 213.076 85.6979C212.969 85.0541 212.846 84.3721 212.708 83.6517L215.122 83.0309C215.306 83.782 215.475 84.6096 215.628 85.514C215.781 86.403 215.865 87.131 215.881 87.6981C215.896 88.4338 215.758 89.1312 215.467 89.7903C215.176 90.4341 214.716 90.9629 214.087 91.3767C213.474 91.7752 212.7 91.9745 211.765 91.9745C211.214 91.9745 210.685 91.8595 210.179 91.6296C209.688 91.3844 209.267 91.0395 208.914 90.595C208.562 91.0242 208.133 91.3614 207.627 91.6066C207.121 91.8519 206.569 91.9745 205.972 91.9745C205.45 91.9745 204.914 91.8442 204.362 91.5836C203.81 91.3231 203.389 90.9935 203.098 90.595C202.791 91.0242 202.377 91.3614 201.856 91.6066C201.35 91.8519 200.776 91.9745 200.132 91.9745H198.637V89.0776ZM207.811 75.8577C208.363 75.8577 208.776 75.8577 209.052 75.8577C209.328 75.8577 209.734 75.8577 210.271 75.8577C210.271 76.4095 210.271 76.8233 210.271 77.0992C210.271 77.3751 210.271 77.7813 210.271 78.3177C209.719 78.3177 209.305 78.3177 209.029 78.3177C208.769 78.3177 208.363 78.3177 207.811 78.3177C207.811 77.7659 207.811 77.3598 207.811 77.0992C207.811 76.8233 207.811 76.4095 207.811 75.8577ZM205.581 79.0534C205.964 79.0534 206.255 79.0534 206.454 79.0534C206.654 79.0534 206.945 79.0534 207.328 79.0534C207.619 79.0534 207.903 79.0534 208.179 79.0534C208.179 79.6512 208.179 80.088 208.179 80.3639C208.179 80.6398 208.179 81.069 208.179 81.6514C207.581 81.6514 207.136 81.6514 206.845 81.6514C206.569 81.6514 206.148 81.6514 205.581 81.6514C205.581 81.0537 205.581 80.6168 205.581 80.3409C205.581 80.0497 205.581 79.6206 205.581 79.0534ZM209.903 79.0534C210.501 79.0534 210.938 79.0534 211.214 79.0534C211.489 79.0534 211.919 79.0534 212.501 79.0534C212.501 79.6512 212.501 80.088 212.501 80.3639C212.501 80.6398 212.501 81.069 212.501 81.6514C211.903 81.6514 211.459 81.6514 211.168 81.6514C210.892 81.6514 210.47 81.6514 209.903 81.6514C209.903 81.0537 209.903 80.6168 209.903 80.3409C209.903 80.0497 209.903 79.6206 209.903 79.0534ZM23.1794 115.974C22.5663 115.974 22.0299 115.821 21.57 115.515C21.1102 115.208 20.7424 114.733 20.4665 114.089C20.1906 113.43 20.0526 112.625 20.0526 111.675H21.593C21.593 112.212 21.7233 112.579 21.9839 112.779C22.2598 112.978 22.6583 113.078 23.1794 113.078H23.6163L23.7772 114.572L23.6163 115.974H23.1794ZM10.6492 110.227C10.2507 111.054 9.94417 111.859 9.72958 112.641C9.515 113.407 9.4077 114.174 9.4077 114.94C9.4077 115.768 9.53032 116.473 9.77556 117.055C10.0361 117.638 10.45 118.082 11.0171 118.389C11.5842 118.71 12.3276 118.871 13.2472 118.871H15.3624C16.374 118.871 17.1327 118.772 17.6385 118.572C18.1597 118.389 18.5199 118.074 18.7191 117.63C18.9337 117.185 19.041 116.542 19.041 115.699V108.479H21.593V115.699C21.593 117.569 21.0872 119.048 20.0756 120.136C19.0793 121.224 17.5083 121.768 15.3624 121.768H13.2472C11.8984 121.768 10.7489 121.462 9.79855 120.849C8.84825 120.236 8.12786 119.408 7.63738 118.366C7.1469 117.323 6.90167 116.181 6.90167 114.94C6.90167 113.974 7.05494 112.978 7.36149 111.951C7.66804 110.909 8.05122 109.951 8.51105 109.077L10.6492 110.227ZM13.3622 107.054C13.8373 107.054 14.3125 107.054 14.7876 107.054C15.2475 107.054 15.7073 107.054 16.1671 107.054C16.1671 107.682 16.1671 108.15 16.1671 108.456C16.1671 108.748 16.1671 109.2 16.1671 109.813C15.5234 109.813 15.0482 109.813 14.7417 109.813C14.4351 109.813 13.9753 109.813 13.3622 109.813C13.3622 109.184 13.3622 108.725 13.3622 108.433C13.3622 108.127 13.3622 107.667 13.3622 107.054ZM23.3969 113.078H28.1791L28.34 114.48L28.1791 115.974H23.3969V113.078ZM27.9548 113.078H32.7369L32.8979 114.48L32.7369 115.974H27.9548V113.078ZM32.5126 113.078H37.2948L37.4557 114.48L37.2948 115.974H32.5126V113.078ZM37.0704 113.078H41.8526L42.0135 114.48L41.8526 115.974H37.0704V113.078ZM41.6282 113.078H46.4104L46.5713 114.48L46.4104 115.974H41.6282V113.078ZM46.1861 113.078H50.9682L51.1292 114.48L50.9682 115.974H46.1861V113.078ZM50.7439 113.078H55.526L55.687 114.48L55.526 115.974H50.7439V113.078ZM55.3017 113.078H60.0839L60.2448 114.48L60.0839 115.974H55.3017V113.078ZM59.8595 113.078H64.6417L64.8026 114.48L64.6417 115.974H59.8595V113.078ZM64.4174 113.078H69.1995L69.3605 114.48L69.1995 115.974H64.4174V113.078ZM68.9752 113.078H73.7573L73.9183 114.48L73.7573 115.974H68.9752V113.078ZM73.533 113.078H78.3152L78.4761 114.48L78.3152 115.974H73.533V113.078ZM78.0908 113.078H82.873L83.0339 114.48L82.873 115.974H78.0908V113.078ZM82.6486 113.078H87.4308L87.5917 114.48L87.4308 115.974H82.6486V113.078ZM87.2065 113.078H91.9886L92.1496 114.48L91.9886 115.974H87.2065V113.078ZM91.7643 113.078H96.5465L96.7074 114.48L96.5465 115.974H91.7643V113.078ZM96.3221 113.078H101.104L101.265 114.48L101.104 115.974H96.3221V113.078ZM100.88 113.078H105.662L105.823 114.48L105.662 115.974H100.88V113.078ZM105.438 113.078H110.22L110.381 114.48L110.22 115.974H105.438V113.078ZM109.996 113.078H114.778L114.939 114.48L114.778 115.974H109.996V113.078ZM114.553 113.078H119.336L119.497 114.48L119.336 115.974H114.553V113.078ZM119.111 113.078H123.893L124.054 114.48L123.893 115.974H119.111V113.078ZM123.669 113.078H128.451L128.612 114.48L128.451 115.974H123.669V113.078ZM128.227 113.078H133.009L133.17 114.48L133.009 115.974H128.227V113.078ZM132.785 113.078H137.567L137.728 114.48L137.567 115.974H132.785V113.078ZM137.343 113.078H142.125L142.286 114.48L142.125 115.974H137.343V113.078ZM141.9 113.078H146.683L146.843 114.48L146.683 115.974H141.9V113.078ZM146.458 113.078H151.24L151.401 114.48L151.24 115.974H146.458V113.078ZM151.016 113.078H155.798L155.959 114.48L155.798 115.974H151.016V113.078ZM155.574 113.078H160.356L160.517 114.48L160.356 115.974H155.574V113.078ZM160.132 113.078H164.914L165.075 114.48L164.914 115.974H160.132V113.078ZM164.689 113.078H169.472L169.633 114.48L169.472 115.974H164.689V113.078ZM169.247 113.078H174.029L174.19 114.48L174.029 115.974H169.247V113.078ZM173.805 113.078H178.587L178.748 114.48L178.587 115.974H173.805V113.078ZM185.398 108.479V111.79C185.398 112.265 185.521 112.602 185.766 112.802C186.011 112.986 186.395 113.078 186.916 113.078H188.134L188.272 114.595L188.134 115.974H186.916C186.318 115.974 185.705 115.821 185.076 115.515C184.448 115.208 183.919 114.733 183.49 114.089C183.061 113.43 182.846 112.61 182.846 111.629V108.479H185.398ZM185.214 111.859C185.214 112.733 185.007 113.484 184.594 114.112C184.18 114.725 183.643 115.193 182.984 115.515C182.325 115.821 181.643 115.974 180.938 115.974H178.363V113.078H180.938C181.612 113.078 182.095 112.97 182.386 112.756C182.693 112.526 182.846 112.15 182.846 111.629L185.214 111.859ZM177.052 119.009C177.451 119.009 177.75 119.009 177.949 119.009C178.133 119.009 178.417 119.009 178.8 119.009C179.091 119.009 179.375 119.009 179.65 119.009C179.65 119.607 179.65 120.044 179.65 120.32C179.65 120.611 179.65 121.04 179.65 121.607C179.068 121.607 178.639 121.607 178.363 121.607C178.072 121.607 177.635 121.607 177.052 121.607C177.052 121.01 177.052 120.573 177.052 120.297C177.052 120.021 177.052 119.592 177.052 119.009ZM181.306 119.009C181.904 119.009 182.34 119.009 182.616 119.009C182.908 119.009 183.337 119.009 183.904 119.009C183.904 119.607 183.904 120.044 183.904 120.32C183.904 120.611 183.904 121.04 183.904 121.607C183.306 121.607 182.862 121.607 182.57 121.607C182.294 121.607 181.873 121.607 181.306 121.607C181.306 121.01 181.306 120.573 181.306 120.297C181.306 120.021 181.306 119.592 181.306 119.009ZM187.905 113.078H190.618C191.385 113.078 191.921 112.947 192.228 112.687C192.549 112.426 192.695 112.058 192.664 111.583C192.634 111.154 192.549 110.564 192.411 109.813C192.289 109.046 192.159 108.326 192.021 107.652L194.435 107.031C194.619 107.782 194.787 108.61 194.94 109.514C195.094 110.403 195.186 111.131 195.216 111.698C195.232 112.434 195.078 113.131 194.757 113.79C194.435 114.434 193.937 114.963 193.262 115.377C192.588 115.775 191.76 115.974 190.779 115.974H187.905V113.078ZM189.216 123.723C189.216 123.171 189.216 122.757 189.216 122.481C189.216 122.22 189.216 121.814 189.216 121.262C189.767 121.262 190.181 121.262 190.457 121.262C190.733 121.262 191.139 121.262 191.676 121.262C191.676 121.814 191.676 122.228 191.676 122.504C191.676 122.78 191.676 123.186 191.676 123.723C191.124 123.723 190.71 123.723 190.434 123.723C190.174 123.723 189.767 123.723 189.216 123.723ZM186.986 120.527C186.986 119.944 186.986 119.507 186.986 119.216C186.986 118.94 186.986 118.511 186.986 117.929C187.583 117.929 188.02 117.929 188.296 117.929C188.572 117.929 189.001 117.929 189.584 117.929C189.584 118.527 189.584 118.963 189.584 119.239C189.584 119.53 189.584 119.96 189.584 120.527C189.292 120.527 189.001 120.527 188.71 120.527C188.327 120.527 188.043 120.527 187.859 120.527C187.66 120.527 187.369 120.527 186.986 120.527ZM191.308 120.527C191.308 119.944 191.308 119.507 191.308 119.216C191.308 118.94 191.308 118.511 191.308 117.929C191.89 117.929 192.319 117.929 192.595 117.929C192.887 117.929 193.323 117.929 193.906 117.929C193.906 118.527 193.906 118.963 193.906 119.239C193.906 119.53 193.906 119.96 193.906 120.527C193.308 120.527 192.864 120.527 192.572 120.527C192.296 120.527 191.875 120.527 191.308 120.527ZM200.58 118.871C201.607 118.871 202.381 118.764 202.902 118.55C203.423 118.35 203.776 118.021 203.959 117.561C204.159 117.116 204.258 116.488 204.258 115.676V111.123C204.258 110.311 204.082 109.675 203.73 109.215C203.392 108.755 202.848 108.525 202.097 108.525C201.407 108.525 200.879 108.763 200.511 109.238C200.158 109.698 199.982 110.311 199.982 111.077C199.982 111.767 200.151 112.273 200.488 112.595C200.825 112.901 201.369 113.055 202.12 113.055H205.431V115.86H202.12C200.71 115.86 199.591 115.446 198.763 114.618C197.936 113.79 197.522 112.641 197.522 111.169C197.522 110.127 197.714 109.2 198.097 108.387C198.495 107.56 199.039 106.916 199.729 106.456C200.419 105.996 201.208 105.766 202.097 105.766C203.032 105.766 203.852 105.996 204.557 106.456C205.278 106.901 205.829 107.529 206.213 108.341C206.611 109.154 206.81 110.096 206.81 111.169V115.676C206.81 116.871 206.603 117.921 206.19 118.825C205.776 119.73 205.101 120.442 204.166 120.964C203.247 121.5 202.051 121.768 200.58 121.768H197.913V118.871H200.58ZM215.148 108.479V114.963C215.148 116.404 214.903 117.63 214.412 118.641C213.922 119.653 213.194 120.427 212.228 120.964C211.262 121.5 210.09 121.768 208.71 121.768H207.262V118.871H208.71C209.691 118.871 210.458 118.749 211.009 118.504C211.576 118.258 211.983 117.852 212.228 117.285C212.488 116.733 212.619 115.959 212.619 114.963V108.479H215.148ZM212.297 99.8807C212.849 99.8807 213.262 99.8807 213.538 99.8807C213.814 99.8807 214.22 99.8807 214.757 99.8807C214.757 100.432 214.757 100.846 214.757 101.122C214.757 101.398 214.757 101.804 214.757 102.341C214.205 102.341 213.791 102.341 213.515 102.341C213.255 102.341 212.849 102.341 212.297 102.341C212.297 101.789 212.297 101.383 212.297 101.122C212.297 100.846 212.297 100.432 212.297 99.8807ZM210.067 103.076C210.45 103.076 210.741 103.076 210.94 103.076C211.14 103.076 211.431 103.076 211.814 103.076C212.105 103.076 212.389 103.076 212.665 103.076C212.665 103.674 212.665 104.111 212.665 104.387C212.665 104.663 212.665 105.092 212.665 105.674C212.067 105.674 211.622 105.674 211.331 105.674C211.055 105.674 210.634 105.674 210.067 105.674C210.067 105.077 210.067 104.64 210.067 104.364C210.067 104.073 210.067 103.644 210.067 103.076ZM214.389 103.076C214.987 103.076 215.424 103.076 215.7 103.076C215.975 103.076 216.405 103.076 216.987 103.076C216.987 103.674 216.987 104.111 216.987 104.387C216.987 104.663 216.987 105.092 216.987 105.674C216.389 105.674 215.945 105.674 215.654 105.674C215.378 105.674 214.956 105.674 214.389 105.674C214.389 105.077 214.389 104.64 214.389 104.364C214.389 104.073 214.389 103.644 214.389 103.076Z" fill="white"/>
</svg>
