<svg width="222" height="78" viewBox="0 0 222 78" fill="none" xmlns="http://www.w3.org/2000/svg">
<path opacity="0.9" d="M221.867 36.2368L212.623 42.2824C203.378 48.2541 184.889 60.4562 166.4 64.9304C147.911 69.5154 129.423 66.3724 110.934 57.3687C92.4447 48.2541 73.9557 33.2787 55.4668 24.1641C36.9779 15.1604 18.4889 12.0174 -4.66514e-10 22.648C-18.4889 33.2787 -36.9778 57.3133 -55.4668 67.9439C-73.9557 78.5746 -92.4446 75.4316 -110.934 66.4279C-129.423 57.3133 -147.911 42.3379 -166.4 43.78C-184.889 45.296 -203.378 63.4143 -221.867 66.4279C-240.356 69.5154 -258.845 57.3133 -277.334 55.8712C-295.823 54.3552 -314.312 63.4143 -332.801 66.4279C-351.29 69.5154 -369.779 66.3724 -388.268 67.9439C-406.756 69.5154 -425.245 75.4316 -443.734 77.0031C-462.223 78.5746 -480.712 75.4316 -499.201 67.9439C-517.69 60.4562 -536.179 48.2541 -554.668 40.7664C-573.157 33.2787 -591.646 30.1357 -610.135 30.1912C-628.624 30.1357 -647.113 33.2787 -665.602 31.7072C-684.09 30.1357 -702.579 24.2195 -721.068 25.6616C-739.557 27.1776 -758.046 36.2368 -776.535 43.78C-795.024 51.3971 -813.513 57.3133 -832.002 54.3552C-850.491 51.3971 -868.98 39.1949 -887.469 30.1912C-905.958 21.0765 -924.447 15.1604 -942.936 16.6024C-961.424 18.1185 -979.913 27.1776 -998.402 37.7528C-1016.89 48.2541 -1035.38 60.4562 -1053.87 61.8983C-1072.36 63.4143 -1090.85 54.3552 -1100.09 49.8256L-1109.34 45.296L-1109.34 9.91984e-05L-1100.09 9.91983e-05C-1090.85 9.91982e-05 -1072.36 9.9198e-05 -1053.87 9.91977e-05C-1035.38 9.91975e-05 -1016.89 9.91973e-05 -998.402 9.91971e-05C-979.913 9.91968e-05 -961.424 9.91966e-05 -942.936 9.91964e-05C-924.447 9.91962e-05 -905.958 9.91959e-05 -887.469 9.91957e-05C-868.98 9.91955e-05 -850.491 9.91953e-05 -832.002 9.9195e-05C-813.513 9.91948e-05 -795.024 9.91946e-05 -776.535 9.91943e-05C-758.046 9.91941e-05 -739.557 9.91939e-05 -721.068 9.91937e-05C-702.579 9.91934e-05 -684.09 9.91932e-05 -665.602 9.9193e-05C-647.113 9.91928e-05 -628.624 9.91925e-05 -610.135 9.91923e-05C-591.646 9.91921e-05 -573.157 9.91919e-05 -554.668 9.91916e-05C-536.179 9.91914e-05 -517.69 9.91912e-05 -499.201 9.9191e-05C-480.712 9.91907e-05 -462.223 9.91905e-05 -443.734 9.91903e-05C-425.245 9.919e-05 -406.756 9.91898e-05 -388.268 9.91896e-05C-369.779 9.91894e-05 -351.29 9.91891e-05 -332.801 9.91889e-05C-314.312 9.91887e-05 -295.823 9.91885e-05 -277.334 9.91882e-05C-258.845 9.9188e-05 -240.356 9.91878e-05 -221.867 9.91876e-05C-203.378 9.91873e-05 -184.889 9.91871e-05 -166.4 9.91869e-05C-147.911 9.91867e-05 -129.423 9.91864e-05 -110.934 9.91862e-05C-92.4446 9.9186e-05 -73.9557 9.91857e-05 -55.4668 9.91855e-05C-36.9778 9.91853e-05 -18.4889 9.91851e-05 -6.59497e-10 9.91848e-05C18.4889 9.91846e-05 36.9779 9.91844e-05 55.4668 9.91842e-05C73.9557 9.91839e-05 92.4447 9.91837e-05 110.934 9.91835e-05C129.423 9.91833e-05 147.911 9.9183e-05 166.4 9.91828e-05C184.889 9.91826e-05 203.378 9.91824e-05 212.623 9.91822e-05L221.867 9.91821e-05L221.867 36.2368Z" fill="url(#paint0_linear_1693_32707)"/>
<defs>
<linearGradient id="paint0_linear_1693_32707" x1="221.867" y1="9.91821e-05" x2="221.867" y2="77.3977" gradientUnits="userSpaceOnUse">
<stop stop-color="#00B8E7" stop-opacity="0.839216"/>
<stop offset="1" stop-color="#00B8E7" stop-opacity="0.905882"/>
</linearGradient>
</defs>
</svg>
