<svg width="29" height="29" viewBox="0 0 29 29" fill="none" xmlns="http://www.w3.org/2000/svg">
<g clip-path="url(#clip0_2504_11025)">
<path d="M28.4192 15.3639C28.9482 14.8349 28.9482 13.9795 28.4192 13.4561L21.2156 6.24695C20.6866 5.71794 19.8312 5.71794 19.3078 6.24695C18.7845 6.77596 18.7788 7.63137 19.3078 8.15476L24.204 13.0509L10.3541 13.0565C9.60559 13.0565 9.00342 13.6587 9.00342 14.4072C9.00342 15.1557 9.60559 15.7578 10.3541 15.7578H24.204L19.3078 20.654C18.7788 21.183 18.7788 22.0384 19.3078 22.5618C19.8368 23.0852 20.6923 23.0908 21.2156 22.5618L28.4192 15.3639ZM9.45364 4.50235C10.2021 4.50235 10.8043 3.90018 10.8043 3.15169C10.8043 2.40319 10.2021 1.80103 9.45364 1.80103H4.95144C2.21636 1.80103 -0.000976562 4.01836 -0.000976562 6.75345V22.0609C-0.000976562 24.796 2.21636 27.0133 4.95144 27.0133H9.45364C10.2021 27.0133 10.8043 26.4112 10.8043 25.6627C10.8043 24.9142 10.2021 24.312 9.45364 24.312H4.95144C3.70771 24.312 2.70034 23.3047 2.70034 22.0609V6.75345C2.70034 5.50971 3.70771 4.50235 4.95144 4.50235H9.45364Z" fill="white"/>
</g>
<defs>
<clipPath id="clip0_2504_11025">
<rect width="28.8141" height="28.8141" fill="white"/>
</clipPath>
</defs>
</svg>
