<svg width="300" height="300" viewBox="0 0 300 300" fill="none" xmlns="http://www.w3.org/2000/svg">
<path d="M152.322 291.48C229.773 291.48 292.559 256.032 292.559 212.304C292.559 168.576 229.773 133.128 152.322 133.128C74.8706 133.128 12.084 168.576 12.084 212.304C12.084 256.032 74.8706 291.48 152.322 291.48Z" fill="#F5F5F5"/>
<path d="M203.747 18.5106L200.536 16.6328L36.8286 111.146V232.103C36.7841 232.528 36.8527 232.956 37.0275 233.345C37.2023 233.735 37.4771 234.07 37.8238 234.319L41.0285 236.197C41.4167 236.377 41.8461 236.45 42.2721 236.408C42.698 236.366 43.105 236.211 43.4508 235.959L200.323 145.383C201.319 144.733 202.148 143.858 202.742 142.828C203.337 141.798 203.681 140.643 203.747 139.456V18.5106Z" fill="url(#paint0_linear_2057_27785)"/>
<path opacity="0.15" d="M203.747 18.5106L200.536 16.6328L36.8286 111.146V232.103C36.7841 232.528 36.8527 232.956 37.0275 233.345C37.2023 233.735 37.4771 234.07 37.8238 234.319L41.0285 236.197C41.4167 236.377 41.8461 236.45 42.2721 236.408C42.698 236.366 43.105 236.211 43.4508 235.959L200.323 145.383C201.319 144.733 202.148 143.858 202.742 142.828C203.337 141.798 203.681 140.643 203.747 139.456V18.5106Z" fill="black"/>
<path d="M40.9918 236.159L37.8622 234.319C37.5138 234.071 37.2375 233.736 37.0615 233.347C36.8856 232.957 36.8163 232.528 36.8608 232.103V124.571L40.0717 126.449V233.968C40.0276 234.381 40.0888 234.799 40.2497 235.182C40.4106 235.565 40.6659 235.901 40.9918 236.159Z" fill="url(#paint1_linear_2057_27785)"/>
<g opacity="0.65">
<path d="M40.9913 236.159L37.8617 234.319C37.5134 234.071 37.237 233.736 37.061 233.347C36.8851 232.957 36.8158 232.528 36.8603 232.103V124.571L40.0712 126.449V233.968C40.0271 234.381 40.0883 234.799 40.2492 235.182C40.4101 235.565 40.6654 235.901 40.9913 236.159Z" fill="white"/>
</g>
<path opacity="0.1" d="M40.9918 236.159L37.8622 234.319C37.5138 234.071 37.2375 233.736 37.0615 233.347C36.8856 232.957 36.8163 232.528 36.8608 232.103V124.571L40.0717 126.449V233.968C40.0276 234.381 40.0888 234.799 40.2497 235.182C40.4106 235.565 40.6659 235.901 40.9918 236.159Z" fill="black"/>
<path d="M40.0347 233.974C40.0347 236.152 41.5682 237.041 43.4584 235.946L200.325 145.382C201.32 144.732 202.149 143.857 202.744 142.827C203.339 141.797 203.683 140.642 203.748 139.455V18.5098L40.0347 113.023V233.974Z" fill="url(#paint2_linear_2057_27785)"/>
<g opacity="0.75">
<path d="M40.0342 233.974C40.0342 236.152 41.5677 237.041 43.4579 235.946L200.324 145.382C201.32 144.732 202.149 143.857 202.743 142.827C203.338 141.797 203.682 140.642 203.748 139.455V18.5098L40.0342 113.023V233.974Z" fill="white"/>
</g>
<path d="M40.0405 113.023V126.423L203.748 31.9106V18.5098L40.0405 113.023Z" fill="url(#paint3_linear_2057_27785)"/>
<path d="M172.165 42.0384V45.2243C172.165 45.8502 172.621 46.1444 173.191 45.8189L194.109 33.7075V28.1494L173.191 40.2608C172.893 40.4561 172.645 40.7187 172.466 41.0275C172.288 41.3362 172.185 41.6825 172.165 42.0384Z" fill="#FAFAFA"/>
<path d="M199.511 25.033C200.074 24.7075 200.537 24.9704 200.537 25.6276V28.8198C200.516 29.1755 200.412 29.5214 200.234 29.83C200.056 30.1386 199.808 30.4013 199.511 30.5974L194.115 33.7269V28.1501L199.511 25.033Z" fill="#455A64"/>
<path d="M199.109 29.4075L198.483 29.2197C198.545 28.9657 198.577 28.7051 198.577 28.4436C198.604 28.201 198.568 27.9554 198.473 27.7307C198.377 27.5059 198.226 27.3095 198.032 27.1605C197.897 27.0862 197.743 27.0509 197.588 27.0587C197.433 27.0664 197.284 27.1168 197.156 27.2043C196.773 27.4973 196.464 27.8769 196.255 28.312C196.046 28.7471 195.943 29.2254 195.954 29.7079C195.927 29.9515 195.962 30.1981 196.058 30.424C196.153 30.6498 196.305 30.8473 196.499 30.9973C196.615 31.0639 196.747 31.0984 196.881 31.0975C197.055 31.0937 197.226 31.044 197.375 30.9535C197.837 30.6404 198.18 30.1822 198.352 29.6516L198.978 29.8394H199.046C199.094 29.839 199.14 29.8237 199.178 29.7956C199.216 29.7675 199.245 29.7281 199.259 29.6829C199.273 29.6265 199.266 29.5669 199.238 29.5159C199.21 29.4649 199.164 29.4262 199.109 29.4075ZM197.181 30.5592C197.12 30.6058 197.048 30.6346 196.971 30.6424C196.895 30.6501 196.818 30.6365 196.749 30.603C196.627 30.4896 196.534 30.3486 196.477 30.1918C196.421 30.035 196.402 29.867 196.424 29.7017C196.418 29.2985 196.503 28.8992 196.672 28.533C196.841 28.1669 197.09 27.8433 197.4 27.5861C197.483 27.5351 197.578 27.507 197.676 27.5047C197.731 27.5036 197.785 27.5189 197.832 27.5485C197.954 27.6607 198.048 27.8005 198.104 27.9563C198.161 28.1121 198.179 28.2792 198.158 28.4436C198.163 28.8468 198.079 29.2461 197.91 29.6122C197.741 29.9784 197.492 30.3019 197.181 30.5592Z" fill="#FAFAFA"/>
<path d="M52.9833 108.711L48.9212 111.052C48.5965 111.266 48.3263 111.553 48.1318 111.889C47.9373 112.226 47.824 112.604 47.8008 112.992V117.686C47.8008 118.4 48.3078 118.688 48.9212 118.312L52.9833 115.984C53.3092 115.772 53.5805 115.487 53.7752 115.151C53.9699 114.815 54.0825 114.438 54.1037 114.05V109.355C54.0849 108.642 53.6093 108.354 52.9833 108.711ZM50.9366 116.278C49.6159 117.035 48.5456 116.422 48.5456 114.901C48.5895 114.072 48.829 113.264 49.2446 112.545C49.6601 111.826 50.2399 111.216 50.9366 110.764C52.251 110 53.3213 110.62 53.3213 112.147C53.2747 112.974 53.0346 113.779 52.6205 114.496C52.2063 115.214 51.6295 115.824 50.9366 116.278Z" fill="#FAFAFA"/>
<path d="M49.3916 114.413C49.3916 115.396 50.0801 115.796 50.9376 115.302C51.3858 115.008 51.7587 114.613 52.0261 114.149C52.2936 113.685 52.4482 113.164 52.4774 112.629C52.4774 111.646 51.7888 111.246 50.9376 111.74C50.4872 112.032 50.1123 112.426 49.8436 112.891C49.5749 113.355 49.42 113.877 49.3916 114.413Z" fill="#FAFAFA"/>
<path d="M57.29 108.285V108.679C57.29 109.111 57.5967 109.305 57.966 109.073L69.3263 102.514C69.5237 102.386 69.6879 102.214 69.8054 102.01C69.9229 101.807 69.9904 101.578 70.0023 101.343V100.949C70.0023 100.517 69.7019 100.323 69.3263 100.555L57.9911 107.114C57.7898 107.24 57.6212 107.411 57.4993 107.615C57.3775 107.818 57.3057 108.048 57.29 108.285Z" fill="#455A64"/>
<path d="M108.139 80.432V80.8264C108.139 81.2582 108.446 81.4523 108.815 81.2207L117.634 76.132C117.831 76.0037 117.995 75.8308 118.112 75.6275C118.229 75.4241 118.297 75.196 118.31 74.9616V74.5672C118.31 74.1353 118.01 73.9413 117.634 74.1729L108.815 79.2616C108.619 79.3899 108.455 79.5628 108.337 79.7661C108.22 79.9694 108.152 80.1976 108.139 80.432Z" fill="#455A64"/>
<path d="M123.394 71.625V72.0193C123.394 72.4512 123.7 72.6452 124.076 72.4136L132.889 67.3312C133.086 67.2036 133.25 67.031 133.368 66.8275C133.485 66.624 133.553 66.3955 133.565 66.1608V65.7664C133.565 65.3346 133.264 65.1405 132.889 65.3721L124.076 70.4608C123.878 70.5875 123.714 70.7589 123.595 70.9612C123.477 71.1635 123.408 71.3909 123.394 71.625Z" fill="#455A64"/>
<path d="M138.653 62.8187V63.2131C138.653 63.6449 138.953 63.839 139.329 63.6011L148.123 58.5187C148.32 58.3911 148.484 58.2185 148.602 58.015C148.719 57.8115 148.787 57.583 148.799 57.3483V56.9539C148.799 56.5221 148.498 56.328 148.123 56.5596L139.36 61.6483C139.157 61.7723 138.987 61.9434 138.864 62.1471C138.74 62.3509 138.668 62.5812 138.653 62.8187Z" fill="#FAFAFA"/>
<path d="M153.907 54.0123V54.4066C153.907 54.8385 154.207 55.0325 154.583 54.7947L163.396 49.7123C163.592 49.5862 163.756 49.4157 163.875 49.2146C163.993 49.0135 164.063 48.7873 164.078 48.5543V48.16C164.078 47.7281 163.771 47.5341 163.396 47.7657L154.583 52.8481C154.387 52.9762 154.224 53.1481 154.107 53.3502C153.99 53.5523 153.921 53.779 153.907 54.0123Z" fill="#455A64"/>
<path opacity="0.7" d="M57.29 112.103V112.397C57.29 112.685 57.4903 112.798 57.7407 112.654L65.308 108.273C65.4395 108.187 65.5488 108.072 65.6271 107.936C65.7055 107.8 65.7505 107.647 65.7586 107.49V107.227C65.7586 106.939 65.5584 106.821 65.308 106.965L57.7407 111.346C57.6125 111.429 57.5051 111.541 57.427 111.672C57.3488 111.803 57.302 111.951 57.29 112.103Z" fill="white"/>
<path d="M199.566 7.2822C198.941 6.90039 198.077 6.9442 197.113 7.49501L40.2528 98.0646C39.2562 98.7137 38.4267 99.5887 37.8318 100.619C37.2369 101.649 36.8934 102.804 36.8291 103.992V111.146L40.0338 113.024L203.748 18.5111V11.3381C203.794 10.9136 203.726 10.4844 203.551 10.0949C203.376 9.70533 203.101 9.36959 202.752 9.12238C202.176 8.79691 200.124 7.62019 199.566 7.2822Z" fill="#263238"/>
<path d="M40.0347 105.857C40.0989 104.669 40.4425 103.513 41.0374 102.483C41.6323 101.453 42.4617 100.578 43.4584 99.9291L200.325 9.36579C202.202 8.27044 203.748 9.15924 203.748 11.3374V18.5104L40.0347 113.023V105.857Z" fill="#37474F"/>
<path d="M202.79 9.15368C202.164 8.76561 201.294 8.80942 200.324 9.36649L43.4574 99.9298C42.4479 100.562 41.6163 101.441 41.0414 102.484L37.8242 100.606C38.4018 99.559 39.2379 98.6777 40.2528 98.0458L197.113 7.49501C198.077 6.9442 198.947 6.90039 199.566 7.2822C200.186 7.664 202.176 8.79691 202.759 9.12864C202.766 9.14019 202.777 9.14899 202.79 9.15368Z" fill="#455A64"/>
<path d="M184.488 22.2037C184.02 22.5079 183.631 22.918 183.351 23.4009C183.072 23.8837 182.91 24.4257 182.879 24.9827C182.879 26.0092 183.599 26.4223 184.488 25.9091C184.955 25.6046 185.343 25.1942 185.622 24.7113C185.9 24.2284 186.061 23.6867 186.09 23.13C186.09 22.1098 185.371 21.6904 184.488 22.2037Z" fill="url(#paint4_linear_2057_27785)"/>
<path d="M190.103 18.9676C189.636 19.273 189.247 19.6845 188.969 20.1685C188.69 20.6524 188.53 21.1953 188.501 21.7529C188.501 22.7731 189.215 23.1862 190.103 22.6792C190.571 22.3737 190.959 21.9623 191.238 21.4783C191.516 20.9943 191.676 20.4515 191.706 19.8939C191.706 18.8737 190.992 18.4606 190.103 18.9676Z" fill="url(#paint5_linear_2057_27785)"/>
<path d="M195.693 15.7372C195.231 16.0439 194.848 16.4545 194.574 16.936C194.3 17.4176 194.143 17.9567 194.115 18.51C194.115 19.5302 194.835 19.9496 195.718 19.4363C196.185 19.1322 196.575 18.722 196.854 18.2392C197.134 17.7563 197.295 17.2144 197.326 16.6573C197.326 15.6371 196.606 15.224 195.693 15.7372Z" fill="url(#paint6_linear_2057_27785)"/>
<path d="M47.7886 126.869L195.98 41.2188V140.326L47.7886 225.976V126.869Z" fill="#FAFAFA"/>
<path d="M143.854 83.3615C143.479 83.3677 143.11 83.2725 142.784 83.0861C142.02 82.648 141.601 81.7404 141.601 80.5449C141.67 79.2656 142.039 78.0207 142.68 76.9113C143.32 75.8019 144.214 74.8594 145.288 74.1606C146.327 73.5347 147.316 73.4721 148.079 73.9165C148.843 74.3609 149.262 75.2559 149.262 76.4577C149.193 77.7358 148.823 78.9796 148.182 80.0878C147.541 81.1961 146.648 82.1375 145.576 82.8357C145.058 83.1594 144.464 83.3408 143.854 83.3615ZM146.984 74.2232C146.476 74.2452 145.982 74.3983 145.551 74.6676C144.564 75.3122 143.742 76.1802 143.153 77.2013C142.563 78.2223 142.223 79.3677 142.158 80.5449C142.063 80.94 142.099 81.3552 142.26 81.7282C142.421 82.1012 142.699 82.4119 143.052 82.6137C143.404 82.8154 143.813 82.8973 144.216 82.8471C144.619 82.7968 144.995 82.6171 145.288 82.335C146.275 81.6903 147.096 80.8224 147.686 79.8013C148.275 78.7803 148.616 77.6348 148.68 76.4577C148.724 76.0695 148.665 75.6767 148.509 75.3185C148.353 74.9604 148.105 74.6496 147.791 74.4172C147.553 74.2829 147.283 74.2138 147.009 74.2169L146.984 74.2232Z" fill="#E0E0E0"/>
<path d="M151.384 74.8427V75.212C151.384 75.6126 151.665 75.7753 152.01 75.575L160.234 70.8118C160.417 70.6908 160.569 70.5287 160.677 70.3385C160.786 70.1483 160.849 69.9353 160.86 69.7165V69.3472C160.86 68.9466 160.572 68.7839 160.234 68.9842L152.01 73.7473C151.826 73.8676 151.674 74.0295 151.565 74.2199C151.456 74.4103 151.394 74.6237 151.384 74.8427Z" fill="#E0E0E0"/>
<path d="M145.619 80.4765C145.609 80.4858 145.596 80.4909 145.582 80.4909C145.568 80.4909 145.555 80.4858 145.544 80.4765C145.533 80.4463 145.533 80.4129 145.544 80.3827V79.6754L144.368 80.3701C144.357 80.3783 144.344 80.3827 144.33 80.3827C144.317 80.3827 144.303 80.3783 144.293 80.3701C144.27 80.3441 144.259 80.3104 144.261 80.2763V79.8506C144.255 79.7987 144.255 79.7461 144.261 79.6942L144.324 79.5252L145.482 76.6272C145.508 76.5336 145.563 76.4505 145.638 76.3893L145.926 76.2266C145.935 76.2178 145.948 76.2129 145.961 76.2129C145.973 76.2129 145.986 76.2178 145.995 76.2266C146.006 76.2393 146.015 76.2542 146.02 76.2703C146.026 76.2865 146.028 76.3035 146.026 76.3205V78.6614L146.352 78.4674C146.363 78.4592 146.376 78.4549 146.389 78.4549C146.403 78.4549 146.416 78.4592 146.427 78.4674C146.449 78.4934 146.46 78.5271 146.458 78.5613V78.9744C146.457 79.0198 146.446 79.0645 146.427 79.1058C146.421 79.1246 146.411 79.1421 146.398 79.1571C146.385 79.1722 146.369 79.1845 146.352 79.1934L146.026 79.3812V80.0885C146.028 80.1343 146.017 80.1797 145.995 80.2199C145.981 80.2549 145.957 80.2852 145.926 80.3076L145.619 80.4765ZM145.519 78.9431V77.6912L144.893 79.3186L145.519 78.9431Z" fill="#E0E0E0"/>
<path d="M114.747 100.553C114.374 100.558 114.007 100.463 113.683 100.278C112.919 99.8394 112.5 98.9381 112.5 97.7363C112.569 96.4571 112.938 95.2121 113.579 94.1027C114.219 92.9933 115.113 92.0508 116.187 91.352C117.226 90.7261 118.215 90.6635 118.978 91.1079C119.742 91.5523 120.161 92.4473 120.161 93.6491C120.093 94.9283 119.723 96.1733 119.082 97.2827C118.442 98.3921 117.548 99.3346 116.475 100.033C115.954 100.354 115.358 100.533 114.747 100.553ZM117.877 91.4146C117.368 91.4366 116.875 91.5897 116.443 91.859C115.456 92.5037 114.635 93.3716 114.045 94.3927C113.456 95.4137 113.115 96.5591 113.051 97.7363C112.956 98.1314 112.992 98.5466 113.153 98.9196C113.314 99.2926 113.592 99.6033 113.944 99.8051C114.297 100.007 114.706 100.089 115.109 100.038C115.512 99.9882 115.888 99.8085 116.18 99.5264C117.167 98.8817 117.989 98.0138 118.578 96.9927C119.168 95.9717 119.508 94.8262 119.573 93.6491C119.617 93.2602 119.558 92.8666 119.4 92.5082C119.243 92.1497 118.994 91.8394 118.678 91.6086C118.443 91.4747 118.178 91.4056 117.908 91.4083L117.877 91.4146Z" fill="url(#paint7_linear_2057_27785)"/>
<path d="M122.122 91.742V92.1112C122.122 92.5118 122.41 92.6746 122.748 92.4743L130.972 87.7111C131.156 87.5908 131.308 87.4289 131.417 87.2385C131.526 87.0482 131.588 86.8347 131.598 86.6157V86.2527C131.598 85.8459 131.317 85.6831 130.972 85.8834L122.748 90.6466C122.566 90.7683 122.415 90.9306 122.306 91.1206C122.198 91.3107 122.135 91.5234 122.122 91.742Z" fill="url(#paint8_linear_2057_27785)"/>
<path d="M117.009 92.9942C117.019 92.9866 117.031 92.9824 117.043 92.9824C117.056 92.9824 117.068 92.9866 117.078 92.9942C117.089 93.0244 117.089 93.0578 117.078 93.0881V93.5012C117.086 93.5467 117.086 93.5933 117.078 93.6389L117.028 93.764L116.471 94.9846C116.568 94.9455 116.673 94.9285 116.777 94.9345C116.866 94.9425 116.95 94.9799 117.015 95.0409C117.088 95.1142 117.142 95.2046 117.172 95.3038C117.206 95.443 117.223 95.586 117.222 95.7294C117.223 95.928 117.197 96.1258 117.147 96.3178C117.094 96.5009 117.021 96.6774 116.927 96.8435C116.837 97.0021 116.728 97.1492 116.602 97.2817C116.483 97.4075 116.346 97.5151 116.195 97.6009C116.057 97.694 115.898 97.752 115.732 97.7699C115.62 97.7857 115.506 97.766 115.406 97.7135C115.317 97.6598 115.246 97.5786 115.206 97.482C115.161 97.3768 115.136 97.2644 115.131 97.1502C115.119 97.1072 115.119 97.0618 115.131 97.0188C115.151 96.9858 115.177 96.9562 115.206 96.9312L115.507 96.7622C115.507 96.7622 115.55 96.7622 115.569 96.7622C115.588 96.788 115.605 96.8152 115.619 96.8435C115.633 96.8792 115.654 96.9113 115.682 96.9374C115.709 96.965 115.744 96.9827 115.782 96.9875C115.833 97.0023 115.887 97.0023 115.939 96.9875C116.02 96.9645 116.098 96.9309 116.17 96.8873C116.32 96.7971 116.448 96.6754 116.546 96.5306C116.637 96.3841 116.684 96.2148 116.683 96.0424C116.683 95.8671 116.64 95.767 116.546 95.7419C116.412 95.7326 116.279 95.7702 116.17 95.8483L115.857 96.0299C115.846 96.038 115.833 96.0424 115.82 96.0424C115.806 96.0424 115.793 96.038 115.782 96.0299C115.76 96.0038 115.749 95.9701 115.751 95.936V95.4978C115.753 95.4504 115.763 95.4038 115.782 95.3601C115.799 95.3174 115.817 95.2756 115.838 95.2349L116.364 94.0645L115.319 94.6904C115.31 94.6992 115.297 94.7041 115.284 94.7041C115.272 94.7041 115.259 94.6992 115.25 94.6904C115.238 94.6785 115.228 94.6637 115.223 94.6473C115.217 94.631 115.216 94.6135 115.219 94.5965V94.1834C115.219 94.1418 115.227 94.1007 115.245 94.0629C115.262 94.0251 115.287 93.9915 115.319 93.9643L117.009 92.9942Z" fill="url(#paint9_linear_2057_27785)"/>
<path d="M173.085 66.4426C172.71 66.4481 172.34 66.353 172.014 66.1672C171.61 65.8866 171.288 65.5032 171.081 65.0564C170.874 64.6097 170.79 64.1159 170.838 63.626C170.906 62.3473 171.274 61.1026 171.914 59.9933C172.553 58.8839 173.446 57.9412 174.518 57.2416C175.557 56.6157 176.552 56.5531 177.316 56.9975C178.08 57.4419 178.493 58.337 178.493 59.5387C178.422 60.8169 178.053 62.0606 177.413 63.1695C176.774 64.2785 175.883 65.2217 174.812 65.9231C174.291 66.2424 173.696 66.4214 173.085 66.4426ZM176.246 57.3042C175.737 57.3262 175.244 57.4793 174.812 57.7486C173.825 58.3933 173.004 59.2613 172.414 60.2823C171.825 61.3034 171.484 62.4488 171.42 63.626C171.335 64.0151 171.375 64.4213 171.536 64.7857C171.697 65.1502 171.97 65.454 172.315 65.6533C172.66 65.8526 173.059 65.937 173.455 65.8944C173.851 65.8517 174.223 65.6842 174.518 65.4161C175.505 64.7714 176.327 63.9034 176.916 62.8824C177.505 61.8613 177.846 60.7159 177.911 59.5387C177.956 59.1505 177.897 58.7572 177.741 58.3988C177.585 58.0405 177.337 57.7298 177.022 57.4983C176.783 57.3707 176.516 57.3081 176.246 57.3168V57.3042Z" fill="#E0E0E0"/>
<path d="M173.848 60.1904C173.839 60.1491 173.839 60.1065 173.848 60.0652C173.864 60.0298 173.89 59.9996 173.923 59.9776L175.35 59.1514C175.36 59.1438 175.372 59.1396 175.384 59.1396C175.397 59.1396 175.409 59.1438 175.419 59.1514C175.441 59.1774 175.452 59.2111 175.45 59.2453V59.6584C175.449 59.7039 175.438 59.7486 175.419 59.7898C175.404 59.8248 175.38 59.8551 175.35 59.8774L174.286 60.5034L174.242 61.2732C174.301 61.2024 174.368 61.1393 174.442 61.0855C174.495 61.0444 174.552 61.0088 174.611 60.9791C174.729 60.9005 174.865 60.8511 175.006 60.8351C175.061 60.8273 175.117 60.8304 175.17 60.8444C175.224 60.8584 175.274 60.8829 175.319 60.9165C175.416 60.9939 175.488 61.0985 175.525 61.2169C175.58 61.3887 175.605 61.5686 175.6 61.7489C175.602 61.9806 175.577 62.2117 175.525 62.4374C175.478 62.6314 175.407 62.8186 175.312 62.9945C175.229 63.1562 175.122 63.304 174.993 63.4326C174.879 63.5485 174.751 63.6495 174.611 63.7331C174.475 63.8207 174.321 63.8763 174.161 63.8958C174.051 63.9114 173.94 63.8869 173.848 63.827C173.762 63.7597 173.699 63.6681 173.666 63.5641C173.62 63.4375 173.595 63.3044 173.591 63.1697C173.58 63.1267 173.58 63.0814 173.591 63.0383C173.606 63.0015 173.632 62.9706 173.666 62.9507L173.973 62.7754C173.983 62.7694 173.995 62.7662 174.007 62.7662C174.019 62.7662 174.031 62.7694 174.042 62.7754C174.053 62.7847 174.062 62.7962 174.068 62.8091C174.075 62.822 174.078 62.8361 174.079 62.8505C174.089 62.9144 174.115 62.9747 174.154 63.0258C174.182 63.0621 174.222 63.0867 174.267 63.0946C174.314 63.1095 174.364 63.1095 174.411 63.0946C174.47 63.0728 174.526 63.0456 174.58 63.0133C174.731 62.9242 174.851 62.7909 174.924 62.6315C175.015 62.4552 175.062 62.26 175.062 62.0619C175.069 61.9948 175.061 61.9269 175.037 61.8638C175.013 61.8006 174.974 61.7441 174.924 61.6989C174.837 61.63 174.724 61.6363 174.58 61.6989C174.514 61.735 174.453 61.7792 174.399 61.8303C174.358 61.8672 174.322 61.9093 174.292 61.9555L174.211 62.0619C174.187 62.0931 174.158 62.1188 174.123 62.137L173.779 62.3373C173.769 62.3465 173.755 62.3516 173.741 62.3516C173.727 62.3516 173.714 62.3465 173.704 62.3373C173.692 62.3071 173.692 62.2736 173.704 62.2434L173.848 60.1904Z" fill="#E0E0E0"/>
<path d="M180.614 57.9431V58.3124C180.614 58.713 180.896 58.8757 181.24 58.6754L189.465 53.9122C189.648 53.792 189.8 53.6301 189.909 53.4397C190.018 53.2493 190.08 53.0359 190.091 52.8169V52.4539C190.091 52.047 189.809 51.8843 189.465 52.0846L181.24 56.8478C181.057 56.9684 180.905 57.1304 180.796 57.3207C180.688 57.511 180.625 57.7242 180.614 57.9431Z" fill="#E0E0E0"/>
<path d="M85.3374 117.16C84.9643 117.167 84.5965 117.071 84.2733 116.885C83.5097 116.447 83.0903 115.545 83.0903 114.344C83.1606 113.066 83.5303 111.822 84.1696 110.713C84.8089 109.604 85.6999 108.661 86.7707 107.959C87.8097 107.334 88.8049 107.271 89.5685 107.715C90.3321 108.16 90.7515 109.055 90.7515 110.257C90.683 111.536 90.3133 112.781 89.6727 113.89C89.0321 115 88.1386 115.942 87.0649 116.641C86.5439 116.961 85.9485 117.14 85.3374 117.16Z" fill="url(#paint10_linear_2057_27785)"/>
<path d="M92.8667 108.641V109.011C92.8667 109.411 93.1546 109.574 93.4926 109.374L101.717 104.61C101.9 104.49 102.053 104.328 102.162 104.138C102.27 103.948 102.333 103.734 102.343 103.515V103.152C102.343 102.745 102.061 102.583 101.717 102.783L93.4926 107.546C93.3106 107.668 93.1594 107.83 93.0508 108.02C92.9422 108.21 92.8792 108.423 92.8667 108.641Z" fill="url(#paint11_linear_2057_27785)"/>
<path d="M88.5792 109.437C88.5218 109.412 88.4598 109.398 88.397 109.397C88.3341 109.395 88.2716 109.407 88.2132 109.43C88.1549 109.453 88.1018 109.488 88.0571 109.533C88.0125 109.577 87.9771 109.63 87.9533 109.688L86.1757 113.913L85.7563 113.5C85.6683 113.412 85.549 113.362 85.4246 113.362C85.3002 113.362 85.1809 113.412 85.0929 113.5C85.0049 113.588 84.9556 113.707 84.9556 113.831C84.9556 113.956 85.0049 114.075 85.0929 114.163L86.0129 115.052C86.0553 115.095 86.106 115.13 86.1618 115.153C86.2177 115.177 86.2777 115.189 86.3384 115.19H86.4323C86.5097 115.173 86.582 115.139 86.643 115.089C86.7041 115.039 86.7521 114.974 86.7828 114.902L88.8233 110.045C88.868 109.931 88.8676 109.805 88.8222 109.692C88.7768 109.579 88.6898 109.488 88.5792 109.437Z" fill="#FAFAFA"/>
<path d="M56.1137 134.066C55.7382 134.069 55.3686 133.972 55.0434 133.784C54.2861 133.346 53.8667 132.445 53.8667 131.243C53.937 129.965 54.3067 128.721 54.946 127.612C55.5853 126.503 56.4763 125.56 57.5471 124.859C58.5861 124.233 59.5813 124.17 60.3449 124.615C60.7501 124.895 61.0732 125.278 61.2811 125.725C61.4891 126.171 61.5742 126.665 61.5279 127.156C61.4564 128.434 61.0855 129.678 60.4451 130.787C59.8048 131.896 58.9129 132.839 57.8412 133.54C57.3206 133.862 56.7254 134.043 56.1137 134.066Z" fill="url(#paint12_linear_2057_27785)"/>
<path d="M63.625 125.542V125.911C63.625 126.312 63.9067 126.474 64.2509 126.274L72.4754 121.511C72.6583 121.392 72.8103 121.231 72.9191 121.041C73.0279 120.852 73.0903 120.64 73.1013 120.422V120.053C73.1013 119.646 72.8197 119.483 72.4754 119.683L64.2509 124.471C64.0712 124.59 63.9212 124.748 63.8126 124.933C63.704 125.119 63.6398 125.327 63.625 125.542Z" fill="url(#paint13_linear_2057_27785)"/>
<path d="M59.3177 126.331C59.2603 126.305 59.1983 126.291 59.1354 126.29C59.0726 126.289 59.0101 126.3 58.9517 126.324C58.8933 126.347 58.8402 126.382 58.7956 126.426C58.7509 126.47 58.7156 126.523 58.6918 126.581L56.9142 130.806L56.4948 130.393C56.4022 130.336 56.2927 130.313 56.1849 130.327C56.0771 130.342 55.9777 130.394 55.9038 130.474C55.8299 130.553 55.786 130.656 55.7796 130.765C55.7732 130.874 55.8048 130.981 55.8689 131.069L56.789 131.958C56.8314 132.001 56.882 132.036 56.9379 132.059C56.9938 132.083 57.0538 132.095 57.1145 132.096H57.2083C57.2826 132.08 57.352 132.047 57.4108 131.999C57.4695 131.951 57.516 131.89 57.5463 131.82L59.5868 126.963C59.6121 126.904 59.6251 126.841 59.6252 126.776C59.6253 126.712 59.6123 126.649 59.5872 126.59C59.562 126.531 59.5252 126.477 59.4789 126.433C59.4326 126.388 59.3777 126.354 59.3177 126.331Z" fill="#FAFAFA"/>
<path d="M47.7886 142.667L195.98 57.0166V57.8491L47.7886 143.499V142.667Z" fill="#E0E0E0"/>
<path d="M47.7886 143.149V143.499L136.086 92.5313V91.7051L47.7886 142.667V143.149Z" fill="url(#paint14_linear_2057_27785)"/>
<path d="M171.976 80.4757C171.836 80.4019 171.677 80.3692 171.519 80.3814C171.361 80.3936 171.209 80.4501 171.081 80.5445L71.1356 138.272C70.7746 138.501 70.4729 138.812 70.2553 139.18C70.0377 139.548 69.9104 139.962 69.8837 140.388V205.383C69.8677 205.533 69.8917 205.684 69.9533 205.821C70.0149 205.959 70.1118 206.077 70.2342 206.165C70.4533 206.303 72.3123 207.367 72.5313 207.492C72.6694 207.557 72.8224 207.584 72.9744 207.57C73.1263 207.555 73.2716 207.501 73.3951 207.411L173.372 149.702C173.734 149.474 174.037 149.163 174.254 148.795C174.472 148.428 174.599 148.013 174.624 147.586V82.5975C174.641 82.4467 174.618 82.2941 174.556 82.1555C174.494 82.0168 174.397 81.8971 174.273 81.8089C174.017 81.6774 172.177 80.6384 171.976 80.4757Z" fill="url(#paint15_linear_2057_27785)"/>
<g opacity="0.9">
<path d="M174.243 81.8092C174.018 81.6777 173.792 81.5526 174.174 81.7716C174.04 81.729 173.899 81.7176 173.76 81.7382C173.621 81.7588 173.489 81.8109 173.373 81.8906L73.396 139.6C73.0373 139.827 72.7422 140.141 72.5385 140.514C72.3126 140.875 72.1872 141.29 72.1754 141.715V206.704C72.1651 206.844 72.1861 206.985 72.237 207.116C72.2879 207.247 72.3673 207.365 72.4696 207.461L72.5322 207.492C72.6702 207.558 72.8233 207.584 72.9752 207.57C73.1272 207.556 73.2725 207.501 73.396 207.411L173.373 149.702C173.735 149.474 174.038 149.164 174.255 148.796C174.473 148.428 174.6 148.013 174.625 147.586V82.5978C174.639 82.4441 174.61 82.2895 174.543 82.1506C174.476 82.0117 174.372 81.8937 174.243 81.8092Z" fill="white"/>
</g>
<g opacity="0.8">
<path d="M72.1746 141.715C72.1864 141.289 72.3117 140.875 72.5376 140.513L70.2405 139.187C70.0216 139.55 69.8988 139.964 69.8837 140.388V205.383C69.8677 205.533 69.8917 205.684 69.9533 205.822C70.0149 205.959 70.1118 206.078 70.2342 206.165L72.4688 207.461C72.3665 207.365 72.287 207.247 72.2361 207.116C72.1852 206.985 72.1642 206.844 72.1746 206.704V141.715Z" fill="white"/>
</g>
<g opacity="0.95">
<path d="M171.977 80.4766C172.165 80.608 173.792 81.5281 174.174 81.7284C174.04 81.6858 173.899 81.6744 173.76 81.695C173.621 81.7156 173.488 81.7677 173.373 81.8474L73.3958 139.557C73.0371 139.784 72.7421 140.098 72.5383 140.47L70.2412 139.143C70.4467 138.77 70.744 138.456 71.105 138.23L171.082 80.5267C171.212 80.4366 171.365 80.3842 171.522 80.3754C171.68 80.3665 171.838 80.4016 171.977 80.4766Z" fill="white"/>
</g>
<path d="M188.875 91.1163C188.735 91.0425 188.576 91.0098 188.418 91.022C188.26 91.0342 188.108 91.0907 187.98 91.1851L88.0344 148.913C87.6793 149.145 87.3837 149.458 87.1717 149.825C86.9597 150.193 86.8371 150.605 86.8139 151.029V216.023C86.7979 216.173 86.8219 216.325 86.8835 216.462C86.9451 216.599 87.042 216.718 87.1644 216.806C87.3835 216.944 89.2424 218.008 89.4615 218.133C89.5996 218.198 89.7526 218.225 89.9045 218.21C90.0565 218.196 90.2018 218.141 90.3253 218.051L190.302 160.342C190.664 160.115 190.967 159.804 191.185 159.436C191.402 159.068 191.529 158.653 191.554 158.227V93.2381C191.571 93.0874 191.548 92.9348 191.486 92.7961C191.425 92.6574 191.327 92.5378 191.204 92.4495C190.916 92.318 189.076 91.279 188.875 91.1163Z" fill="url(#paint16_linear_2057_27785)"/>
<g opacity="0.7">
<path d="M191.142 92.4498C190.917 92.3184 190.692 92.1932 191.074 92.4123C190.94 92.3696 190.798 92.3582 190.659 92.3788C190.52 92.3994 190.388 92.4515 190.272 92.5312L90.2954 150.24C89.9367 150.467 89.6416 150.782 89.4379 151.154C89.212 151.515 89.0866 151.93 89.0748 152.356V217.344C89.0645 217.485 89.0855 217.625 89.1364 217.756C89.1873 217.887 89.2668 218.005 89.369 218.102L89.4316 218.133C89.5696 218.198 89.7227 218.225 89.8746 218.211C90.0266 218.196 90.1719 218.141 90.2954 218.052L190.272 160.343C190.634 160.115 190.937 159.804 191.155 159.436C191.372 159.068 191.499 158.654 191.524 158.227V93.2385C191.538 93.0847 191.51 92.9302 191.443 92.7912C191.375 92.6523 191.272 92.5343 191.142 92.4498Z" fill="white"/>
</g>
<g opacity="0.6">
<path d="M89.074 152.356C89.0858 151.93 89.2111 151.515 89.437 151.154L87.1399 149.827C86.921 150.191 86.7982 150.605 86.7831 151.029V216.024C86.7671 216.173 86.7911 216.325 86.8527 216.462C86.9143 216.6 87.0112 216.718 87.1337 216.806L89.3682 218.102C89.2659 218.005 89.1864 217.887 89.1355 217.756C89.0847 217.625 89.0636 217.485 89.074 217.344V152.356Z" fill="white"/>
</g>
<g opacity="0.8">
<path d="M188.876 91.1162C189.064 91.2477 190.692 92.1678 191.073 92.3681C190.94 92.3255 190.798 92.314 190.659 92.3346C190.52 92.3552 190.388 92.4074 190.272 92.487L90.2952 150.196C89.9365 150.423 89.6415 150.738 89.4377 151.11L87.1406 149.783C87.3461 149.41 87.6434 149.095 88.0044 148.869L187.981 91.1663C188.111 91.0762 188.264 91.0238 188.422 91.015C188.58 91.0062 188.737 91.0412 188.876 91.1162Z" fill="white"/>
</g>
<path d="M207.027 101.131C206.886 101.057 206.727 101.024 206.569 101.037C206.411 101.049 206.259 101.105 206.132 101.2L106.186 158.928C105.831 159.16 105.535 159.472 105.323 159.84C105.111 160.207 104.988 160.62 104.965 161.043V226.038C104.949 226.188 104.973 226.339 105.035 226.477C105.096 226.614 105.193 226.733 105.316 226.82C105.535 226.958 107.394 228.022 107.613 228.147C107.751 228.213 107.904 228.239 108.056 228.225C108.208 228.211 108.353 228.156 108.477 228.066L208.454 170.357C208.816 170.129 209.118 169.819 209.336 169.451C209.554 169.083 209.68 168.668 209.706 168.241V103.253C209.723 103.102 209.699 102.949 209.638 102.811C209.576 102.672 209.478 102.552 209.355 102.464C209.067 102.333 207.227 101.294 207.027 101.131Z" fill="url(#paint17_linear_2057_27785)"/>
<path d="M207.028 101.131C207.216 101.262 208.843 102.182 209.225 102.383C209.091 102.34 208.949 102.329 208.81 102.349C208.672 102.37 208.539 102.422 208.424 102.502L108.447 160.211C108.088 160.438 107.793 160.752 107.589 161.125L105.292 159.798C105.497 159.425 105.795 159.11 106.156 158.884L206.133 101.181C206.263 101.091 206.415 101.038 206.573 101.03C206.731 101.021 206.889 101.056 207.028 101.131Z" fill="url(#paint18_linear_2057_27785)"/>
<path opacity="0.2" d="M207.028 101.131C207.216 101.262 208.843 102.182 209.225 102.383C209.091 102.34 208.949 102.329 208.81 102.349C208.672 102.37 208.539 102.422 208.424 102.502L108.447 160.211C108.088 160.438 107.793 160.752 107.589 161.125L105.292 159.798C105.497 159.425 105.795 159.11 106.156 158.884L206.133 101.181C206.263 101.091 206.415 101.038 206.573 101.03C206.731 101.021 206.889 101.056 207.028 101.131Z" fill="black"/>
<path opacity="0.35" d="M107.226 227.359C107.214 227.5 107.235 227.641 107.288 227.773C107.34 227.904 107.421 228.022 107.526 228.116L105.285 226.827C105.163 226.738 105.066 226.618 105.005 226.48C104.943 226.341 104.919 226.189 104.935 226.038V161.044C104.948 160.619 105.071 160.205 105.292 159.842L107.589 161.169C107.363 161.53 107.238 161.945 107.226 162.37V227.359Z" fill="black"/>
<path d="M120.827 158.339C121.653 157.863 122.329 158.251 122.329 159.209C122.301 159.729 122.15 160.234 121.888 160.684C121.627 161.135 121.264 161.517 120.827 161.8C120.001 162.276 119.331 161.888 119.331 160.93C119.359 160.411 119.51 159.906 119.77 159.456C120.03 159.006 120.392 158.623 120.827 158.339Z" fill="#FAFAFA"/>
<path d="M120.827 159.285C121.203 159.072 121.51 159.247 121.51 159.679C121.496 159.915 121.427 160.144 121.309 160.349C121.19 160.553 121.025 160.727 120.827 160.856C120.452 161.069 120.151 160.893 120.151 160.461C120.164 160.226 120.231 159.997 120.349 159.792C120.466 159.588 120.63 159.414 120.827 159.285Z" fill="#455A64"/>
<path d="M123.799 158.202V158.534C123.799 158.903 124.056 159.053 124.375 158.866L131.886 154.547C132.053 154.436 132.192 154.288 132.292 154.114C132.392 153.94 132.45 153.745 132.462 153.545V153.214C132.462 152.844 132.205 152.694 131.886 152.882L124.375 157.201C124.206 157.309 124.065 157.457 123.965 157.631C123.865 157.805 123.808 158.001 123.799 158.202Z" fill="#FAFAFA"/>
<path d="M181.822 123.088C182.648 122.612 183.318 123 183.318 123.958C183.29 124.477 183.141 124.983 182.881 125.433C182.621 125.883 182.258 126.266 181.822 126.549C180.996 127.025 180.32 126.637 180.32 125.685C180.349 125.165 180.501 124.659 180.762 124.208C181.023 123.757 181.386 123.373 181.822 123.088Z" fill="#FAFAFA"/>
<path opacity="0.7" d="M184.789 122.95V123.282C184.789 123.651 185.046 123.801 185.365 123.62L192.876 119.295C193.044 119.187 193.185 119.04 193.285 118.867C193.385 118.694 193.442 118.499 193.452 118.3V117.962C193.452 117.599 193.195 117.448 192.876 117.63L185.365 121.955C185.196 122.063 185.056 122.209 184.956 122.382C184.856 122.556 184.799 122.75 184.789 122.95Z" fill="white"/>
<path opacity="0.3" d="M107.226 172.93L158.075 143.574V144.551L107.226 173.906V172.93Z" fill="black"/>
<path opacity="0.7" d="M158.076 143.574L209.645 113.8V114.77L158.076 144.551V143.574Z" fill="white"/>
<g opacity="0.3">
<path d="M117.397 173.631V173.963C117.397 174.332 117.654 174.482 117.973 174.301L125.484 169.976C125.651 169.866 125.789 169.719 125.889 169.546C125.989 169.373 126.048 169.18 126.06 168.98V168.642C126.06 168.273 125.803 168.129 125.484 168.311L117.973 172.636C117.804 172.744 117.664 172.89 117.564 173.063C117.464 173.236 117.406 173.431 117.397 173.631Z" fill="black"/>
<path d="M147.904 156.017V156.349C147.904 156.718 148.16 156.869 148.48 156.681L155.991 152.362C156.16 152.254 156.301 152.106 156.401 151.932C156.501 151.757 156.558 151.562 156.566 151.361V151.029C156.566 150.66 156.31 150.509 155.991 150.697L148.48 155.016C148.31 155.124 148.17 155.272 148.069 155.446C147.969 155.621 147.912 155.817 147.904 156.017Z" fill="black"/>
<path d="M178.417 138.398V138.736C178.417 139.105 178.674 139.249 178.993 139.068L186.504 134.749C186.671 134.638 186.81 134.49 186.91 134.316C187.009 134.142 187.068 133.947 187.08 133.747V133.416C187.08 133.046 186.817 132.896 186.504 133.084L178.993 137.403C178.824 137.511 178.684 137.657 178.584 137.83C178.484 138.003 178.426 138.198 178.417 138.398Z" fill="black"/>
<path d="M117.397 185.392V185.723C117.397 186.093 117.654 186.243 117.973 186.061L125.484 181.736C125.651 181.627 125.789 181.479 125.889 181.307C125.989 181.134 126.048 180.94 126.06 180.741V180.403C126.06 180.04 125.803 179.89 125.484 180.071L117.973 184.396C117.804 184.504 117.664 184.651 117.564 184.824C117.464 184.997 117.406 185.192 117.397 185.392Z" fill="black"/>
<path d="M117.397 197.128V197.46C117.397 197.829 117.654 197.979 117.973 197.791L125.484 193.472C125.651 193.362 125.79 193.214 125.89 193.04C125.99 192.866 126.048 192.671 126.06 192.471V192.139C126.06 191.77 125.803 191.62 125.484 191.808L117.973 196.126C117.803 196.235 117.663 196.382 117.562 196.557C117.462 196.731 117.405 196.927 117.397 197.128Z" fill="black"/>
<path d="M147.904 167.779V168.104C147.904 168.473 148.16 168.624 148.48 168.436L155.991 164.117C156.159 164.009 156.299 163.863 156.4 163.689C156.5 163.516 156.557 163.322 156.566 163.122V162.784C156.566 162.415 156.31 162.264 155.991 162.452L148.48 166.771C148.309 166.88 148.168 167.028 148.068 167.204C147.968 167.379 147.911 167.577 147.904 167.779Z" fill="black"/>
<path d="M178.417 150.16V150.498C178.417 150.867 178.674 151.011 178.993 150.829L186.504 146.511C186.671 146.4 186.81 146.251 186.91 146.078C187.009 145.904 187.068 145.709 187.08 145.509V145.177C187.08 144.808 186.817 144.658 186.504 144.846L178.993 149.164C178.824 149.272 178.684 149.419 178.584 149.592C178.484 149.765 178.426 149.96 178.417 150.16Z" fill="black"/>
</g>
<path opacity="0.7" d="M117.96 176.06L138.421 164.249C138.734 164.067 138.997 164.249 138.997 164.58V166.996C138.987 167.196 138.93 167.391 138.83 167.564C138.729 167.737 138.589 167.884 138.421 167.992L117.96 179.803C117.64 179.99 117.384 179.84 117.384 179.471V177.061C117.392 176.86 117.449 176.664 117.549 176.49C117.65 176.316 117.79 176.168 117.96 176.06Z" fill="white"/>
<path opacity="0.7" d="M148.466 158.446L168.928 146.635C169.247 146.453 169.503 146.597 169.503 146.967V149.383C169.494 149.582 169.437 149.777 169.336 149.95C169.236 150.123 169.096 150.27 168.928 150.378L148.466 162.189C148.154 162.377 147.891 162.226 147.891 161.857V159.447C147.902 159.247 147.96 159.052 148.06 158.878C148.16 158.705 148.299 158.557 148.466 158.446Z" fill="white"/>
<path opacity="0.7" d="M178.98 140.832L199.447 129.021C199.76 128.834 200.023 128.984 200.023 129.353V131.763C200.011 131.963 199.953 132.158 199.853 132.331C199.753 132.505 199.614 132.653 199.447 132.764L178.98 144.575C178.66 144.757 178.404 144.607 178.404 144.244V141.815C178.415 141.617 178.473 141.425 178.573 141.254C178.674 141.084 178.813 140.939 178.98 140.832Z" fill="white"/>
<path opacity="0.7" d="M117.96 187.82L138.421 176.009C138.734 175.827 138.997 175.977 138.997 176.34V178.744C138.987 178.944 138.93 179.138 138.83 179.312C138.729 179.485 138.589 179.631 138.421 179.739L117.96 191.55C117.64 191.738 117.384 191.588 117.384 191.218V188.821C117.392 188.62 117.449 188.424 117.549 188.25C117.65 188.076 117.79 187.928 117.96 187.82Z" fill="white"/>
<path opacity="0.7" d="M117.96 199.869L199.447 152.812C199.76 152.631 200.023 152.781 200.023 153.144V168.642C200.012 168.842 199.954 169.037 199.854 169.211C199.754 169.384 199.614 169.533 199.447 169.643L117.96 216.699C117.64 216.881 117.384 216.731 117.384 216.368V200.864C117.393 200.664 117.45 200.469 117.551 200.296C117.651 200.123 117.791 199.976 117.96 199.869Z" fill="white"/>
<path opacity="0.7" d="M148.466 170.207L168.928 158.396C169.247 158.214 169.503 158.358 169.503 158.727V161.143C169.494 161.343 169.437 161.538 169.336 161.711C169.236 161.884 169.096 162.031 168.928 162.139L148.466 173.95C148.154 174.137 147.891 173.987 147.891 173.618V171.233C147.899 171.029 147.955 170.829 148.055 170.651C148.155 170.472 148.296 170.32 148.466 170.207Z" fill="white"/>
<path opacity="0.7" d="M178.98 152.594L199.447 140.783C199.76 140.595 200.023 140.746 200.023 141.115V143.525C200.011 143.725 199.953 143.919 199.853 144.093C199.753 144.267 199.614 144.415 199.447 144.526L178.98 156.337C178.66 156.519 178.404 156.375 178.404 156.005V153.589C178.413 153.389 178.471 153.195 178.571 153.022C178.671 152.849 178.811 152.702 178.98 152.594Z" fill="white"/>
<path d="M221.256 250.422C245.744 250.422 265.596 238.959 265.596 224.82C265.596 210.68 245.744 199.218 221.256 199.218C196.768 199.218 176.916 210.68 176.916 224.82C176.916 238.959 196.768 250.422 221.256 250.422Z" fill="#E0E0E0"/>
<path d="M54.9956 252.745C54.3956 243.613 55.0376 234.33 49.3436 221.73C44.5436 211.159 36.6715 202.831 27.7015 202.183C23.9816 201.913 21.2936 202.783 19.7276 205.428C16.9856 210.078 21.0716 215.065 25.4516 217.939C27.3778 219.204 43.1995 227.401 47.5735 245.575L49.4696 255.925L50.0696 255.571L54.9956 252.745Z" fill="url(#paint19_linear_2057_27785)"/>
<path opacity="0.25" d="M54.9956 252.745C54.3956 243.613 55.0376 234.33 49.3436 221.73C44.5436 211.159 36.6715 202.831 27.7015 202.183C23.9816 201.913 21.2936 202.783 19.7276 205.428C16.9856 210.078 21.0716 215.065 25.4516 217.939C27.3778 219.204 43.1995 227.401 47.5735 245.575L49.4696 255.925L50.0696 255.571L54.9956 252.745Z" fill="white"/>
<path d="M52.11 249.6C52.0226 249.588 51.9419 249.547 51.8801 249.484C51.8183 249.421 51.7789 249.339 51.7679 249.252C48.9241 227.16 40.53 213.936 25.2 208.734C25.1508 208.713 25.1063 208.683 25.0692 208.644C25.0321 208.606 25.0031 208.56 24.9841 208.511C24.965 208.461 24.9562 208.408 24.9583 208.354C24.9604 208.301 24.9732 208.248 24.996 208.2C25.0417 208.104 25.1227 208.029 25.2221 207.991C25.3215 207.953 25.4318 207.955 25.53 207.996C40.9919 212.934 49.68 226.77 52.56 249.174C52.5667 249.278 52.533 249.38 52.4658 249.46C52.3986 249.539 52.3034 249.59 52.2001 249.6H52.11Z" fill="white"/>
<path d="M46.4947 257.706C45.8466 254.538 44.1427 250.866 37.6927 243.792C32.1246 237.684 23.4426 234.276 21.7446 230.484C19.7046 225.924 23.3646 221.736 30.3486 222.642C38.7486 223.734 47.3105 236.226 50.4246 255.384L46.4947 257.706Z" fill="url(#paint20_linear_2057_27785)"/>
<path opacity="0.65" d="M46.4947 257.706C45.8466 254.538 44.1427 250.866 37.6927 243.792C32.1246 237.684 23.4426 234.276 21.7446 230.484C19.7046 225.924 23.3646 221.736 30.3486 222.642C38.7486 223.734 47.3105 236.226 50.4246 255.384L46.4947 257.706Z" fill="white"/>
<path d="M27.4983 226.956C27.4468 226.943 27.3931 226.942 27.3408 226.951C27.2885 226.96 27.2385 226.98 27.194 227.01C27.1498 227.039 27.1117 227.077 27.0826 227.121C27.0535 227.165 27.0335 227.215 27.0243 227.268C27.013 227.32 27.0122 227.373 27.0216 227.426C27.0311 227.478 27.051 227.528 27.0799 227.573C27.109 227.618 27.1468 227.656 27.1908 227.686C27.2348 227.716 27.2841 227.737 27.3365 227.748C32.9825 228.948 44.7845 239.538 48.6065 256.362C48.603 256.388 48.603 256.414 48.6065 256.44L49.3204 256.02C45.4625 238.998 33.7325 228.258 27.4983 226.956Z" fill="white"/>
<path d="M253.86 211.506C254.352 204.354 253.824 197.106 258.282 187.236C262.02 178.962 268.194 172.452 275.221 171.942C278.131 171.732 280.23 172.41 281.455 174.48C283.603 178.122 280.403 182.022 276.98 184.272C275.471 185.262 263.076 191.67 259.668 205.872L258.186 213.966L257.694 213.69L253.86 211.506Z" fill="url(#paint21_linear_2057_27785)"/>
<path opacity="0.25" d="M253.86 211.506C254.352 204.354 253.824 197.106 258.282 187.236C262.02 178.962 268.194 172.452 275.221 171.942C278.131 171.732 280.23 172.41 281.455 174.48C283.603 178.122 280.403 182.022 276.98 184.272C275.471 185.262 263.076 191.67 259.668 205.872L258.186 213.966L257.694 213.69L253.86 211.506Z" fill="white"/>
<path d="M256.116 209.064C256.184 209.054 256.248 209.022 256.296 208.974C256.345 208.925 256.377 208.862 256.386 208.794C258.612 191.484 265.182 181.134 277.163 177.066C277.203 177.05 277.236 177.026 277.265 176.996C277.295 176.966 277.317 176.931 277.333 176.892C277.346 176.854 277.354 176.813 277.354 176.772C277.352 176.73 277.344 176.689 277.327 176.652C277.29 176.577 277.225 176.518 277.149 176.488C277.071 176.458 276.985 176.458 276.907 176.49C264.81 180.354 258.012 191.178 255.756 208.71C255.748 208.793 255.771 208.876 255.823 208.942C255.874 209.008 255.949 209.052 256.032 209.064H256.116Z" fill="white"/>
<path d="M260.514 215.4C261.018 212.916 262.357 210.048 267.396 204.51C271.751 199.71 278.55 197.064 279.883 194.094C281.48 190.53 278.609 187.254 273.151 187.962C266.58 188.802 259.872 198.6 257.442 213.6L260.514 215.4Z" fill="url(#paint22_linear_2057_27785)"/>
<path opacity="0.65" d="M260.514 215.4C261.018 212.916 262.357 210.048 267.396 204.51C271.751 199.71 278.55 197.064 279.883 194.094C281.48 190.53 278.609 187.254 273.151 187.962C266.58 188.802 259.872 198.6 257.442 213.6L260.514 215.4Z" fill="white"/>
<path d="M258.966 213.21C259.02 213.198 259.069 213.172 259.11 213.136C259.151 213.099 259.182 213.052 259.2 213C262.746 200.016 271.063 192.888 275.477 191.964C275.52 191.956 275.558 191.939 275.593 191.916C275.628 191.892 275.658 191.862 275.679 191.827C275.704 191.791 275.72 191.752 275.725 191.711C275.733 191.67 275.733 191.627 275.725 191.586C275.717 191.546 275.701 191.507 275.677 191.473C275.655 191.438 275.625 191.409 275.59 191.387C275.555 191.364 275.515 191.349 275.474 191.342C275.434 191.335 275.393 191.337 275.353 191.346C270.462 192.366 262.206 199.578 258.588 212.832C258.566 212.913 258.577 213 258.619 213.073C258.66 213.146 258.729 213.2 258.81 213.222C258.863 213.231 258.916 213.227 258.966 213.21Z" fill="white"/>
<path d="M133.554 35.2981L135.432 34.158C135.426 34.0282 135.426 33.8979 135.432 33.7682V32.8382C135.48 31.9366 135.741 31.059 136.192 30.2771C136.644 29.495 137.274 28.8308 138.03 28.3382C138.254 28.1863 138.508 28.0814 138.774 28.0298C139.04 27.9783 139.313 27.9813 139.578 28.0382C139.733 26.7951 140.154 25.6003 140.814 24.5357C141.474 23.471 142.356 22.5616 143.4 21.8701C145.548 20.6341 147.288 21.6361 147.288 24.1141V25.5121C147.278 26.1889 147.167 26.8604 146.958 27.504L149.628 25.9621C150.426 25.5001 151.068 25.8721 151.068 26.7961C151.041 27.296 150.897 27.7825 150.646 28.2163C150.396 28.6498 150.047 29.0183 149.628 29.2922L133.548 38.628C132.75 39.0902 132.102 38.7119 132.102 37.7941C132.131 37.2932 132.277 36.8062 132.53 36.3724C132.782 35.9388 133.133 35.5708 133.554 35.2981Z" fill="#EBEBEB"/>
<path d="M122.028 24.2458L120.149 24.9658V20.8258C120.149 17.5438 117.528 16.7577 114.69 18.3958C111.846 20.0397 109.542 24.0297 109.542 27.3119V27.9119C109.14 27.7875 108.714 27.7565 108.299 27.8209C107.883 27.8854 107.487 28.0438 107.142 28.2836C106.064 28.9861 105.166 29.9331 104.523 31.0476C103.88 32.1623 103.508 33.4128 103.44 34.6977V34.9678L100.818 36.4859C100.111 36.9464 99.5218 37.5664 99.0977 38.2956C98.6736 39.0251 98.4262 39.8436 98.3755 40.6859C98.3755 42.2398 99.4676 42.8698 100.818 42.0898L122.028 29.8797C122.735 29.4191 123.324 28.7992 123.748 28.07C124.172 27.3405 124.419 26.5219 124.47 25.6797C124.47 24.0958 123.378 23.4658 122.028 24.2458Z" fill="#EBEBEB"/>
<path opacity="0.5" d="M49.5181 66.1444L76.2 50.7422L62.8621 75.2464L49.5181 66.1444Z" fill="url(#paint23_linear_2057_27785)"/>
<path opacity="0.3" d="M49.5181 54.942L76.2 39.54L62.8621 64.044L49.5181 54.942Z" fill="url(#paint24_linear_2057_27785)"/>
<path opacity="0.1" d="M49.5181 43.7399L76.2 28.3379L62.8621 52.8418L49.5181 43.7399Z" fill="url(#paint25_linear_2057_27785)"/>
<path d="M202.842 231.696L197.892 221.952L187.938 227.778L200.209 242.262C200.209 242.262 206.292 241.704 207.27 238.53C208.248 235.356 204.516 232.752 202.842 231.696Z" fill="#FFA8A7"/>
<path d="M209.85 235.523C210.406 235.929 210.875 236.441 211.23 237.029C211.632 237.629 211.506 240.51 211.89 241.829C212.274 243.149 212.568 243.521 213.21 245.201C213.918 247.062 215.232 248.76 213.75 253.536C212.268 258.312 209.892 260.592 207.894 261.762C207.153 262.149 206.33 262.355 205.494 262.362C205.494 262.362 202.872 261.371 203.274 259.817C203.676 258.264 209.85 235.523 209.85 235.523Z" fill="#263238"/>
<path d="M198.342 240.768C198.414 241.26 199.098 242.016 199.38 242.418C200.322 243.768 200.754 245.598 201.078 247.218C202.626 254.778 199.62 258.618 203.694 261.462C204.894 262.2 207.294 261.996 211.032 257.232C212.934 254.796 214.032 249.792 213.276 247.524C212.52 245.256 211.524 243.78 211.044 242.034C210.564 240.288 210.816 237.042 209.844 235.548C209.221 234.702 208.415 234.007 207.486 233.514C206.766 233.076 205.182 232.5 204.45 232.08C203.718 231.66 203.304 231.186 202.836 231.72L203.682 232.77C205.008 234.606 204.642 234.876 204.606 235.854C204.666 236.906 204.833 237.95 205.104 238.968C204.156 237.768 203.772 236.736 202.74 236.916C201.708 237.096 201.588 237.054 200.112 238.434C198.636 239.814 198.276 240.33 198.342 240.768Z" fill="url(#paint26_linear_2057_27785)"/>
<path opacity="0.4" d="M198.342 240.768C198.414 241.26 199.098 242.016 199.38 242.418C200.322 243.768 200.754 245.598 201.078 247.218C202.626 254.778 199.62 258.618 203.694 261.462C204.894 262.2 207.294 261.996 211.032 257.232C212.934 254.796 214.032 249.792 213.276 247.524C212.52 245.256 211.524 243.78 211.044 242.034C210.564 240.288 210.816 237.042 209.844 235.548C209.221 234.702 208.415 234.007 207.486 233.514C206.766 233.076 205.182 232.5 204.45 232.08C203.718 231.66 203.304 231.186 202.836 231.72L203.682 232.77C205.008 234.606 204.642 234.876 204.606 235.854C204.666 236.906 204.833 237.95 205.104 238.968C204.156 237.768 203.772 236.736 202.74 236.916C201.708 237.096 201.588 237.054 200.112 238.434C198.636 239.814 198.276 240.33 198.342 240.768Z" fill="black"/>
<path opacity="0.3" d="M211.032 257.208C212.934 254.772 214.032 249.768 213.276 247.5C213.027 246.752 212.736 246.019 212.406 245.304C212.436 245.454 212.484 245.616 212.502 245.742C212.55 246.036 212.586 246.342 212.616 246.63C212.786 247.787 212.656 248.969 212.238 250.062C211.812 251.004 210.822 253.368 209.55 253.416C208.83 253.446 208.224 252.744 207.942 251.94C207.828 251.598 207.636 250.68 207.636 250.68C206.466 250.949 205.348 251.405 204.324 252.03C202.482 253.23 202.524 253.518 202.524 253.518C202.635 254.05 202.656 254.598 202.584 255.138C202.476 255.719 202.243 256.27 201.9 256.752C201.758 256.897 201.599 257.024 201.426 257.13C201.504 258.876 201.96 260.244 203.67 261.438C204.87 262.2 207.318 261.972 211.032 257.208Z" fill="black"/>
<path d="M201.078 247.2C201.475 249.188 201.634 251.216 201.552 253.242C202.248 255.18 202.854 255.126 202.938 254.118C203.022 253.11 201.684 248.952 200.688 245.514C200.844 246.078 201 246.648 201.078 247.2Z" fill="#37474F"/>
<path d="M205.68 235.067C205.765 234.087 205.504 233.108 204.942 232.301C204.762 232.217 204.588 232.133 204.456 232.055C203.658 231.605 203.31 231.161 202.842 231.695L203.688 232.745C205.014 234.581 204.648 234.851 204.612 235.829C204.671 236.882 204.838 237.925 205.11 238.943C205.878 242.225 206.58 243.323 206.946 246.425C207.312 249.527 206.688 251.609 207.126 251.783C207.564 251.957 208.446 251.609 208.608 249.125C208.77 246.641 207.672 242.459 206.898 240.479C206.124 238.499 205.524 236.399 205.68 235.067Z" fill="#37474F"/>
<path d="M207.852 250.896C207.809 250.939 207.755 250.968 207.696 250.98C206.718 251.11 205.776 251.434 204.925 251.933C204.074 252.432 203.331 253.095 202.74 253.884C202.686 253.946 202.61 253.985 202.528 253.992C202.446 253.999 202.365 253.973 202.302 253.92C202.271 253.894 202.246 253.862 202.227 253.826C202.209 253.791 202.197 253.751 202.194 253.711C202.19 253.671 202.195 253.631 202.207 253.593C202.22 253.554 202.24 253.519 202.266 253.488C203.551 251.788 205.459 250.668 207.57 250.374C207.651 250.36 207.734 250.377 207.802 250.423C207.871 250.469 207.918 250.54 207.936 250.62C207.947 250.669 207.944 250.721 207.93 250.769C207.915 250.817 207.888 250.861 207.852 250.896Z" fill="#EBEBEB"/>
<path d="M207.462 248.31C207.418 248.352 207.364 248.383 207.306 248.4C205.226 248.753 203.359 249.886 202.086 251.568C202.059 251.6 202.026 251.627 201.989 251.647C201.951 251.667 201.911 251.679 201.869 251.682C201.826 251.685 201.784 251.68 201.744 251.667C201.704 251.653 201.667 251.632 201.636 251.604C201.572 251.548 201.533 251.47 201.526 251.386C201.52 251.302 201.546 251.219 201.6 251.154C202.965 249.37 204.95 248.164 207.162 247.776C207.229 247.759 207.3 247.765 207.364 247.793C207.427 247.82 207.48 247.868 207.514 247.929C207.548 247.989 207.562 248.059 207.552 248.128C207.543 248.197 207.511 248.261 207.462 248.31Z" fill="#EBEBEB"/>
<path d="M207.516 245.46C207.472 245.51 207.413 245.543 207.348 245.556C205.026 245.974 202.943 247.245 201.51 249.12C201.48 249.155 201.444 249.183 201.403 249.204C201.362 249.225 201.318 249.237 201.272 249.24C201.226 249.244 201.18 249.238 201.136 249.224C201.093 249.209 201.053 249.186 201.018 249.156C200.983 249.127 200.954 249.091 200.933 249.05C200.912 249.009 200.899 248.965 200.895 248.919C200.891 248.873 200.896 248.827 200.91 248.783C200.924 248.74 200.947 248.699 200.976 248.664C202.506 246.677 204.719 245.328 207.186 244.878C207.231 244.867 207.277 244.864 207.323 244.871C207.368 244.878 207.412 244.894 207.451 244.918C207.49 244.942 207.524 244.974 207.551 245.011C207.578 245.049 207.596 245.091 207.606 245.136C207.621 245.193 207.62 245.253 207.605 245.31C207.589 245.367 207.558 245.419 207.516 245.46Z" fill="#EBEBEB"/>
<path d="M207.102 243.03C207.056 243.076 206.998 243.107 206.934 243.12C204.664 243.526 202.629 244.768 201.228 246.6C201.169 246.668 201.085 246.71 200.996 246.716C200.906 246.723 200.817 246.694 200.748 246.636C200.713 246.607 200.685 246.572 200.663 246.532C200.642 246.493 200.63 246.449 200.626 246.404C200.622 246.36 200.627 246.315 200.641 246.272C200.655 246.229 200.677 246.19 200.706 246.156C202.2 244.208 204.368 242.888 206.784 242.453C206.873 242.434 206.965 242.45 207.041 242.498C207.118 242.547 207.172 242.623 207.192 242.712C207.207 242.768 207.206 242.827 207.19 242.883C207.174 242.939 207.144 242.989 207.102 243.03Z" fill="#EBEBEB"/>
<path d="M206.214 240.66C206.166 240.704 206.109 240.737 206.046 240.756C203.772 241.156 201.733 242.399 200.334 244.236C200.305 244.269 200.269 244.297 200.228 244.317C200.188 244.337 200.144 244.349 200.1 244.352C200.055 244.355 200.01 244.349 199.967 244.335C199.924 244.321 199.885 244.298 199.851 244.268C199.817 244.239 199.79 244.203 199.77 244.163C199.75 244.123 199.738 244.079 199.735 244.034C199.732 243.989 199.737 243.944 199.752 243.901C199.766 243.859 199.789 243.819 199.818 243.786C201.312 241.84 203.477 240.521 205.89 240.084C205.979 240.064 206.073 240.08 206.15 240.128C206.227 240.176 206.283 240.253 206.304 240.342C206.316 240.398 206.313 240.456 206.298 240.511C206.282 240.567 206.254 240.618 206.214 240.66Z" fill="#EBEBEB"/>
<path d="M200.154 232.476L193.71 237.744L190.062 240.03L194.226 247.896L205.95 242.286L200.154 232.476Z" fill="#FFA8A7"/>
<path d="M213.288 197.286C213.288 197.286 189.827 193.404 179.79 193.464C169.547 193.53 168.599 201.221 171.162 205.932C176.07 214.932 193.134 234.078 193.134 234.078C193.134 234.078 198.864 231.449 200.621 226.494L196.734 217.566L209.153 221.52L210.588 219.773L213.288 197.286Z" fill="#455A64"/>
<path d="M194.688 210C196.575 212.762 198.302 215.631 199.86 218.592L196.734 217.596C193.206 209.196 192.48 206.748 186.846 202.812C186.846 202.8 190.89 204.3 194.688 210Z" fill="#37474F"/>
<path d="M213.288 197.286L249.45 203.916C249.45 203.916 252.312 217.248 249.546 225.576C246.84 233.724 238.806 236.058 234.942 236.376C229.41 236.802 222.996 235.092 222.996 235.092C221.017 236.606 218.862 237.873 216.576 238.866C213.348 240.156 199.206 246.066 199.206 246.066C199.206 246.066 195.228 242.7 195.606 235.698L210.6 219.774L213.288 197.286Z" fill="#455A64"/>
<path d="M199.2 246.06C199.2 246.06 198.432 245.706 197.328 243.624C200.988 242.76 213.03 238.05 216.918 236.424C223.842 233.49 225.984 230.388 225.984 230.388C225.984 230.388 226.026 232.452 222.984 235.098C221.005 236.612 218.849 237.879 216.564 238.872C213.348 240.138 199.2 246.06 199.2 246.06Z" fill="#37474F"/>
<path d="M230.4 233.748C233.862 234.306 243.174 232.59 246.204 226.026C249.168 219.6 248.166 211.926 247.506 205.326L248.622 205.59L250.584 206.118C251.1 211.986 251.676 218.916 249.984 225.492C247.824 233.796 238.83 236.058 234.984 236.358C229.452 236.784 223.038 235.074 223.038 235.074L224.874 232.23C226.647 232.961 228.503 233.471 230.4 233.748Z" fill="#37474F"/>
<path d="M208.98 221.484C208.98 221.484 209.628 220.71 211.002 219.084C212.376 217.458 214.602 214.434 220.254 214.656C225.906 214.878 236.845 215.856 236.845 215.856C236.845 215.856 225.445 213.918 221.532 213.264C217.621 212.61 214.98 213.06 212.736 215.064C210.493 217.068 207.019 220.83 207.019 220.83L208.98 221.484Z" fill="#37474F"/>
<path d="M216.6 214.2C214.745 212.007 213.794 209.191 213.942 206.322C213.942 206.322 212.58 211.5 214.758 215.268L216.6 214.2Z" fill="#37474F"/>
<path d="M175.29 244.128C172.53 245.22 170.826 246.312 169.548 247.98C168.27 249.648 167.886 251.328 169.098 253.35C170.31 255.372 172.536 257.736 175.176 257.58C177.816 257.424 179.442 256.77 181.896 255.438L175.29 244.128Z" fill="#263238"/>
<path d="M197.334 246.462C197.376 247.29 193.89 248.94 190.272 250.662C186.39 252.511 185.436 253.716 182.268 255.277C178.668 257.077 177.27 257.161 174.468 256.381C171.666 255.601 168.192 251.581 170.61 247.879C172.578 244.879 175.122 244.038 179.01 243.018C182.086 242.243 185.109 241.267 188.058 240.096C190.854 239.011 193.158 237.061 193.734 237.738C193.332 237.931 190.41 239.736 190.962 240.229C191.1 240.481 191.514 240.403 192.234 240.103C192.387 240.023 192.557 239.977 192.73 239.969C192.902 239.96 193.075 239.99 193.236 240.055C193.559 240.266 193.812 240.569 193.962 240.925C194.292 241.647 194.584 242.386 194.838 243.138C195.054 243.649 194.964 243.355 195.162 243.87C195.36 244.386 195.822 245.323 195.762 245.851C195.726 246.168 195.498 246.27 195.252 246.451C195.006 246.631 194.652 246.792 194.43 246.972C194.334 247.044 194.172 247.285 194.22 247.405C194.268 247.525 194.82 247.512 195.024 247.405C195.228 247.296 195.588 247.231 195.84 247.135C196.092 247.038 196.698 246.762 197.334 246.462Z" fill="url(#paint27_linear_2057_27785)"/>
<path opacity="0.4" d="M197.334 246.462C197.376 247.29 193.89 248.94 190.272 250.662C186.39 252.511 185.436 253.716 182.268 255.277C178.668 257.077 177.27 257.161 174.468 256.381C171.666 255.601 168.192 251.581 170.61 247.879C172.578 244.879 175.122 244.038 179.01 243.018C182.086 242.243 185.109 241.267 188.058 240.096C190.854 239.011 193.158 237.061 193.734 237.738C193.332 237.931 190.41 239.736 190.962 240.229C191.1 240.481 191.514 240.403 192.234 240.103C192.387 240.023 192.557 239.977 192.73 239.969C192.902 239.96 193.075 239.99 193.236 240.055C193.559 240.266 193.812 240.569 193.962 240.925C194.292 241.647 194.584 242.386 194.838 243.138C195.054 243.649 194.964 243.355 195.162 243.87C195.36 244.386 195.822 245.323 195.762 245.851C195.726 246.168 195.498 246.27 195.252 246.451C195.006 246.631 194.652 246.792 194.43 246.972C194.334 247.044 194.172 247.285 194.22 247.405C194.268 247.525 194.82 247.512 195.024 247.405C195.228 247.296 195.588 247.231 195.84 247.135C196.092 247.038 196.698 246.762 197.334 246.462Z" fill="black"/>
<path opacity="0.3" d="M183.511 254.681C182.989 254.945 179.7 256.481 178.674 255.557C177.552 254.561 180.193 252.983 180.193 252.983C180.193 252.983 180.595 250.505 177.6 246.857C177.085 247.259 174.924 247.241 174.954 245.969C174.985 244.697 178.602 243.137 178.657 243.113C174.948 244.103 172.513 244.961 170.604 247.883C168.204 251.585 171.654 255.605 174.463 256.385C177.271 257.165 178.663 257.063 182.263 255.281C182.628 255.101 183.193 254.867 183.511 254.681Z" fill="black"/>
<path d="M179.838 252.738C178.464 253.194 179.406 254.436 181.416 254.034C184.416 253.434 186.924 251.724 190.272 250.668C193.872 248.94 197.574 247.332 197.34 246.414C196.692 246.66 195.306 247.236 195.306 247.236C195.036 247.35 194.334 247.614 194.334 247.614C191.592 248.814 188.556 250.704 185.586 251.508C183 252.216 181.2 252.276 179.838 252.738Z" fill="#37474F"/>
<path d="M177.798 247.326C179.052 246.6 179.274 245.982 181.734 244.854C184.194 243.726 188.334 241.308 190.92 239.808C191.886 239.169 192.817 238.48 193.71 237.744C193.284 237.258 191.718 237.708 190.146 238.698C188.574 239.688 187.626 240.312 186.072 241.098C183.072 242.898 179.61 244.134 177.888 245.244C176.166 246.354 176.544 248.052 177.798 247.326Z" fill="#37474F"/>
<path d="M177.6 246.996C177.616 247.036 177.641 247.073 177.672 247.104C179.062 248.848 179.887 250.975 180.035 253.2C180.04 253.289 180.077 253.374 180.14 253.437C180.204 253.5 180.288 253.538 180.378 253.542C180.42 253.539 180.46 253.526 180.497 253.506C180.534 253.486 180.567 253.458 180.593 253.425C180.619 253.392 180.638 253.354 180.648 253.313C180.658 253.272 180.66 253.23 180.654 253.188C180.498 250.799 179.607 248.517 178.104 246.654C178.076 246.622 178.042 246.597 178.003 246.579C177.965 246.562 177.924 246.553 177.881 246.553C177.839 246.553 177.798 246.562 177.76 246.579C177.721 246.597 177.687 246.622 177.659 246.654C177.623 246.702 177.598 246.758 177.587 246.818C177.577 246.877 177.581 246.939 177.6 246.996Z" fill="#F0F0F0"/>
<path d="M180.048 245.22C180.064 245.256 180.084 245.29 180.108 245.322C181.683 247.415 182.68 249.886 183 252.486C183.007 252.575 183.048 252.658 183.113 252.719C183.179 252.78 183.264 252.815 183.354 252.816C183.395 252.811 183.435 252.798 183.471 252.776C183.508 252.755 183.539 252.727 183.564 252.693C183.589 252.659 183.606 252.621 183.615 252.58C183.625 252.539 183.626 252.497 183.618 252.456C183.288 249.693 182.219 247.071 180.522 244.866C180.497 244.832 180.465 244.805 180.429 244.784C180.392 244.764 180.351 244.753 180.31 244.75C180.268 244.747 180.226 244.753 180.187 244.768C180.148 244.783 180.113 244.806 180.084 244.836C180.04 244.889 180.013 244.954 180.006 245.022C180 245.091 180.014 245.16 180.048 245.22Z" fill="#F0F0F0"/>
<path d="M185.4 252.235C185.424 252.293 185.463 252.345 185.514 252.383C185.565 252.421 185.625 252.444 185.688 252.45C185.73 252.451 185.772 252.444 185.811 252.427C185.849 252.411 185.884 252.387 185.913 252.356C185.942 252.326 185.964 252.29 185.978 252.25C185.992 252.211 185.998 252.168 185.994 252.126C185.85 247.729 182.994 243.607 182.886 243.462C182.859 243.431 182.824 243.405 182.786 243.388C182.748 243.37 182.706 243.361 182.664 243.361C182.622 243.361 182.58 243.37 182.542 243.388C182.504 243.405 182.47 243.431 182.442 243.462C182.389 243.534 182.363 243.622 182.368 243.711C182.374 243.8 182.411 243.884 182.472 243.948C182.502 243.979 185.238 248.011 185.364 252.096C185.371 252.144 185.383 252.19 185.4 252.235Z" fill="#F0F0F0"/>
<path d="M187.656 250.8C187.679 250.858 187.717 250.908 187.767 250.946C187.817 250.984 187.875 251.008 187.938 251.016C187.98 251.018 188.022 251.012 188.062 250.997C188.101 250.982 188.137 250.958 188.166 250.928C188.196 250.898 188.219 250.862 188.233 250.822C188.247 250.782 188.253 250.74 188.25 250.698C188.156 247.657 186.994 244.746 184.968 242.478C184.94 242.447 184.906 242.422 184.869 242.406C184.831 242.389 184.79 242.38 184.749 242.38C184.707 242.38 184.666 242.389 184.629 242.406C184.591 242.422 184.557 242.447 184.53 242.478C184.481 242.552 184.459 242.642 184.469 242.73C184.479 242.819 184.52 242.902 184.583 242.964C186.441 245.098 187.513 247.804 187.62 250.632C187.623 250.689 187.636 250.746 187.656 250.8Z" fill="#F0F0F0"/>
<path d="M190.573 249.564C190.596 249.621 190.635 249.672 190.685 249.709C190.734 249.747 190.793 249.772 190.855 249.78C190.896 249.782 190.937 249.776 190.976 249.761C191.015 249.746 191.05 249.723 191.079 249.694C191.108 249.664 191.131 249.629 191.145 249.59C191.159 249.551 191.164 249.509 191.16 249.467C191.16 244.895 187.932 241.356 187.788 241.212C187.761 241.18 187.727 241.154 187.689 241.137C187.65 241.119 187.609 241.11 187.567 241.11C187.525 241.11 187.483 241.119 187.444 241.137C187.406 241.154 187.372 241.18 187.345 241.212C187.293 241.285 187.269 241.374 187.278 241.464C187.286 241.553 187.327 241.636 187.393 241.697C187.423 241.734 190.525 245.154 190.536 249.402C190.535 249.458 190.548 249.513 190.573 249.564Z" fill="#EBEBEB"/>
<path d="M173.844 166.344L195.666 168.924C195.666 168.924 201.702 166.218 205.458 164.592C218.472 158.946 220.488 157.908 224.694 157.962L217.596 172.878C217.596 172.878 209.148 176.478 201.366 179.388C197.31 180.912 197.358 181.188 192.882 180.03C189.552 179.178 187.83 178.728 182.994 177.414C177.066 175.806 173.064 174.858 173.064 174.858L173.844 166.344Z" fill="#FFA8A7"/>
<path d="M176.34 166.83C172.356 166.026 170.808 166.056 169.74 163.578C168.672 161.1 168.216 160.632 167.766 160.164C167.316 159.696 164.4 158.04 163.2 157.38C162.287 156.894 161.454 156.948 159.798 156.588C158.976 156.408 158.028 156.144 157.211 155.904C156.558 155.617 155.867 155.425 155.16 155.334C154.242 155.334 154.452 156.654 155.082 157.272C155.839 157.906 156.711 158.388 157.65 158.694C158.31 158.964 159.887 159.576 159.887 159.576C159.648 160.116 159.036 161.1 159.048 161.766C159.06 162.432 159.161 162.696 160.35 163.842C160.209 163.991 160.101 164.168 160.032 164.361C159.964 164.554 159.937 164.76 159.954 164.964C160.136 165.497 160.452 165.974 160.872 166.35C160.666 166.608 160.551 166.926 160.542 167.256C160.542 167.784 161.448 168.792 162.342 169.572C163.284 170.592 164.076 172.152 164.94 172.956C165.804 173.76 167.052 174 169.104 174.156C171.156 174.312 176.442 175.632 176.442 175.632C176.442 175.632 180.204 167.604 176.34 166.83Z" fill="#FFA8A7"/>
<path d="M166.35 161.472C165.252 161.258 164.256 160.686 163.518 159.846C162.816 158.994 162.096 158.004 161.772 158.136C161.226 158.358 160.662 159.852 161.676 161.34C162.69 162.828 164.184 164.238 164.436 164.664C164.704 165.507 164.83 166.389 164.808 167.274C164.907 168.224 165.294 169.121 165.919 169.844C166.543 170.567 167.374 171.082 168.3 171.318C167.191 171.285 166.138 170.825 165.36 170.034C163.86 168.648 164.118 166.464 163.962 165.546C163.806 164.628 163.776 164.442 162.636 163.254C161.496 162.066 160.266 160.788 160.752 158.922C161.238 157.056 162.03 157.494 162.426 157.866C162.822 158.238 164.466 161.046 166.35 161.472Z" fill="#F28F8F"/>
<path d="M159.87 159.6L160.956 159.858L160.752 160.26C160.458 160.227 160.16 160.274 159.891 160.397C159.622 160.519 159.391 160.712 159.222 160.956C159.366 160.578 159.678 159.978 159.87 159.6Z" fill="#F28F8F"/>
<path d="M160.332 163.841C160.715 164.232 161.963 165.365 162.215 165.6C162.467 165.834 162.971 165.498 163.05 164.808C163.147 164.245 163.029 163.667 162.719 163.188C163.115 163.636 163.329 164.216 163.319 164.813C163.254 165.702 162.78 166.013 162.419 166.067C162.06 166.122 161.154 164.67 160.332 163.841Z" fill="#F28F8F"/>
<path d="M160.854 166.35C161.136 166.65 161.586 166.986 162.378 167.79C162.84 168.258 163.116 168.57 163.44 168.39C163.66 168.143 163.798 167.835 163.837 167.506C163.876 167.178 163.812 166.846 163.656 166.554C163.436 166.18 163.172 165.834 162.87 165.522L163.092 165.282C163.59 165.755 163.967 166.342 164.19 166.992C164.412 167.874 163.908 168.864 163.452 168.792C162.996 168.72 162.756 168.468 162.126 167.778C161.496 167.088 160.854 166.35 160.854 166.35Z" fill="#F28F8F"/>
<path d="M163.2 168.6C163.362 168.81 163.476 169.398 163.092 169.59C162.972 169.644 162.842 169.672 162.711 169.672C162.58 169.672 162.45 169.644 162.33 169.59C162.443 169.71 162.59 169.791 162.751 169.823C162.913 169.856 163.08 169.837 163.23 169.77C163.698 169.536 163.704 168.948 163.596 168.504L163.2 168.6Z" fill="#F28F8F"/>
<path d="M249.642 182.226C248.832 170.394 248.862 165.282 247.692 161.406C245.892 160.878 242.022 159.798 242.022 159.798C242.022 159.798 232.698 159.402 229.368 157.998L224.694 157.818C222.162 160.254 215.49 165.45 213.324 170.376C211.878 173.67 211.914 178.512 215.868 181.776C215.891 184.439 216.092 187.096 216.468 189.732C216.468 189.732 215.268 193.506 213.756 197.214C214.32 203.034 222.81 207.414 233.172 210.204C244.296 213.204 251.1 208.716 251.1 208.716C251.1 208.716 250.446 193.95 249.642 182.226Z" fill="url(#paint28_linear_2057_27785)"/>
<path opacity="0.6" d="M249.642 182.226C248.832 170.394 248.862 165.282 247.692 161.406C245.892 160.878 242.022 159.798 242.022 159.798C242.022 159.798 232.698 159.402 229.368 157.998L224.694 157.818C222.162 160.254 215.49 165.45 213.324 170.376C211.878 173.67 211.914 178.512 215.868 181.776C215.891 184.439 216.092 187.096 216.468 189.732C216.468 189.732 215.268 193.506 213.756 197.214C214.32 203.034 222.81 207.414 233.172 210.204C244.296 213.204 251.1 208.716 251.1 208.716C251.1 208.716 250.446 193.95 249.642 182.226Z" fill="white"/>
<path opacity="0.3" d="M225.222 183.882C225.222 183.882 228.024 187.65 233.922 187.236C240.006 186.81 241.398 181.836 241.398 181.836C241.398 181.836 241.398 188.436 234.108 188.934C232.284 189.131 230.445 188.749 228.85 187.842C227.255 186.935 225.986 185.55 225.222 183.882Z" fill="url(#paint29_linear_2057_27785)"/>
<path d="M232.2 216.684V217.368C232.201 217.708 232.113 218.043 231.943 218.338C231.774 218.633 231.529 218.878 231.234 219.048L212.766 229.68C212.472 229.849 212.139 229.938 211.8 229.938C211.461 229.938 211.128 229.849 210.834 229.68L176.946 210.114C176.651 209.944 176.406 209.699 176.235 209.404C176.064 209.109 175.974 208.775 175.974 208.434V207.966L211.8 228.648L232.2 216.684Z" fill="#EBEBEB"/>
<path d="M175.974 207.966L196.068 196.362C196.244 196.262 196.442 196.209 196.644 196.209C196.846 196.209 197.045 196.262 197.22 196.362L232.08 216.492C232.12 216.514 232.154 216.546 232.177 216.585C232.201 216.624 232.213 216.669 232.213 216.714C232.213 216.76 232.201 216.805 232.177 216.844C232.154 216.883 232.12 216.915 232.08 216.936L211.8 228.648L175.974 207.966Z" fill="#FAFAFA"/>
<path d="M211.986 226.944L222.822 220.691L191.13 202.397L180.24 208.613L211.986 226.944Z" fill="#E0E0E0"/>
<path d="M217.308 209.556L217.11 209.67L211.8 212.736L202.35 207.282L202.158 207.168L207.666 203.988L217.308 209.556Z" fill="#E0E0E0"/>
<path d="M217.11 209.67L211.801 212.736L202.351 207.282L207.667 204.216L217.11 209.67Z" fill="#E6E6E6"/>
<path d="M211.8 228.648V229.938C211.461 229.94 211.127 229.851 210.834 229.68L176.946 210.114C176.651 209.944 176.406 209.699 176.235 209.404C176.064 209.109 175.974 208.775 175.974 208.434V207.966L211.8 228.648Z" fill="#EBEBEB"/>
<g style="mix-blend-mode:multiply" opacity="0.5">
<path d="M211.8 228.648V229.938C211.461 229.94 211.127 229.851 210.834 229.68L176.946 210.114C176.65 209.944 176.405 209.699 176.234 209.404C176.063 209.109 175.974 208.775 175.974 208.434V207.966L211.8 228.648Z" fill="#E0E0E0"/>
</g>
<path d="M211.254 228.936C210.933 229.06 210.589 229.11 210.246 229.083C209.903 229.056 209.571 228.953 209.274 228.78L175.536 209.304C175.243 209.135 174.99 208.903 174.798 208.625C174.605 208.347 174.476 208.03 174.42 207.696L170.724 185.67C170.705 185.545 170.695 185.419 170.694 185.292C170.695 184.68 170.939 184.093 171.372 183.66L206.436 203.91C206.653 204.036 206.84 204.21 206.983 204.417C207.125 204.625 207.219 204.862 207.258 205.11L211.254 228.936Z" fill="url(#paint30_linear_2057_27785)"/>
<g opacity="0.7">
<path d="M211.254 228.936C210.934 229.06 210.589 229.11 210.247 229.083C209.904 229.056 209.572 228.953 209.274 228.78L175.536 209.304C175.243 209.135 174.991 208.903 174.798 208.625C174.605 208.347 174.476 208.03 174.42 207.696L170.724 185.67C170.705 185.545 170.695 185.419 170.694 185.292C170.695 184.68 170.939 184.093 171.372 183.66L206.436 203.91C206.654 204.036 206.841 204.21 206.983 204.417C207.125 204.625 207.219 204.862 207.258 205.11L211.254 228.936Z" fill="white"/>
</g>
<path d="M211.8 228.648L211.566 228.78C211.465 228.838 211.361 228.89 211.254 228.936L207.258 205.098C207.219 204.849 207.125 204.612 206.983 204.405C206.84 204.197 206.654 204.024 206.436 203.898L171.372 183.66C171.515 183.525 171.672 183.407 171.84 183.306L207 203.592C207.218 203.718 207.405 203.891 207.547 204.098C207.689 204.306 207.783 204.543 207.822 204.792L211.8 228.648Z" fill="#FAFAFA"/>
<path d="M192.252 208.602C192 207.126 190.482 205.164 188.85 204.222C187.218 203.28 186.096 203.718 186.342 205.188C186.588 206.658 188.112 208.626 189.744 209.567C191.376 210.51 192.498 210.072 192.252 208.602Z" fill="url(#paint31_linear_2057_27785)"/>
<path d="M259.992 195C259.632 192.6 256.129 170.58 255.084 167.604C253.956 164.388 252.727 162.882 247.734 161.418C243.079 164.604 243.996 175.098 244.596 177.51L248.232 194.832C248.232 194.832 243.048 197.298 238.866 199.23C235.266 200.874 232.782 202.752 228.594 203.166C224.406 203.58 223.614 203.352 220.026 204.912C218.775 205.494 217.571 206.174 216.426 206.946C215.16 208.278 213.6 209.298 212.226 210.546C211.2 211.23 212.13 211.746 212.934 211.788C215.16 211.866 216.96 210.144 218.964 209.442C218.724 210.154 218.592 210.899 218.574 211.65C218.574 212.25 218.412 212.976 218.929 213.45C219.314 213.695 219.735 213.879 220.176 213.996C220.177 214.219 220.263 214.434 220.416 214.596C220.719 214.829 221.099 214.936 221.479 214.896C221.68 214.881 221.88 214.855 222.079 214.818C222.102 215.009 222.175 215.191 222.291 215.344C222.407 215.498 222.561 215.619 222.738 215.694C223.564 215.972 224.45 216.019 225.3 215.832C225.426 215.784 226.386 215.292 226.668 215.148C227.03 215.025 227.359 214.819 227.629 214.548C227.838 214.236 227.268 213.504 226.776 213.414C226.232 213.352 225.681 213.377 225.144 213.486C225.373 213.046 225.542 212.578 225.648 212.094C226.11 211.392 229.303 212.178 232.164 211.74C234.318 211.41 235.614 209.814 236.586 209.394C243.042 206.592 251.586 204.894 255.786 203.646C261.036 202.068 260.664 199.416 259.992 195Z" fill="#FFA8A7"/>
<path d="M219 209.4C219.155 208.361 219.567 207.377 220.2 206.538C219.084 206.916 218.274 209.694 218.274 209.694L219 209.4Z" fill="#F28F8F"/>
<path d="M220.2 213.948C220.12 213.351 220.12 212.745 220.2 212.148C220.252 211.559 220.34 210.974 220.464 210.396C220.567 209.808 220.738 209.234 220.974 208.686C221.2 208.129 221.579 207.646 222.066 207.294C221.859 207.498 221.69 207.738 221.568 208.002C221.429 208.253 221.312 208.516 221.22 208.788C221.037 209.337 220.895 209.898 220.794 210.468C220.674 211.038 220.566 211.614 220.458 212.184C220.335 212.766 220.249 213.355 220.2 213.948Z" fill="#F28F8F"/>
<path d="M222.108 214.752C222.057 214.171 222.069 213.585 222.144 213.006C222.204 212.428 222.302 211.855 222.438 211.29C222.565 210.723 222.733 210.165 222.942 209.622C223.114 209.06 223.431 208.554 223.86 208.152C223.68 208.372 223.543 208.625 223.458 208.896C223.354 209.16 223.264 209.43 223.188 209.706C223.038 210.258 222.894 210.81 222.768 211.368C222.51 212.484 222.264 213.6 222.108 214.752Z" fill="#F28F8F"/>
<path d="M226.8 213.378C226.557 213.379 226.315 213.409 226.08 213.468C225.846 213.516 225.684 213.63 225.39 213.72L225.51 213.534C225.522 213.651 225.503 213.769 225.456 213.876C225.418 213.974 225.361 214.064 225.288 214.14C225.155 214.289 224.982 214.398 224.79 214.452C224.908 214.316 225.01 214.167 225.096 214.008C225.128 213.937 225.152 213.862 225.168 213.786C225.175 213.72 225.175 213.654 225.168 213.588V213.45L225.306 213.402C225.525 213.32 225.756 213.276 225.99 213.27C226.265 213.227 226.546 213.265 226.8 213.378Z" fill="#F28F8F"/>
<path d="M242.748 127.47C247.17 126.096 251.55 131.412 251.022 135.696C252.936 137.16 254.022 142.35 251.526 144.924C252.978 147.594 250.86 152.82 247.212 153.324C247.74 155.64 244.71 159.054 241.026 159.21C236.088 159.42 237.312 157.668 238.296 152.238C238.8 149.58 242.748 127.47 242.748 127.47Z" fill="#263238"/>
<path d="M227.088 166.2C222.798 165.509 224.82 162.815 227.88 159.696L234.648 157.8L240.168 157.229C240.132 159.113 241.266 159.509 242.352 159.924C239.43 162.953 232.2 167.003 227.088 166.2Z" fill="#FFA8A7"/>
<path d="M229.098 159.329C227.298 163.475 223.908 163.343 222.594 163.091C222.06 165.689 219.876 166.967 217.614 167.891C218.124 170.465 216.252 172.151 214.398 173.531C214.714 174.004 214.919 174.542 214.998 175.105C215.077 175.668 215.028 176.242 214.854 176.783C214.506 178.217 212.286 180.725 212.706 182.423C210.18 179.735 210.192 176.087 212.358 173.213C211.938 170.693 211.638 168.185 213.978 166.613C213.378 163.373 214.938 160.991 218.208 160.445C218.28 157.955 219.906 156.479 222.648 156.047C222.048 151.715 226.482 149.993 229.248 149.909C229.212 151.793 229.5 155.831 229.416 157.709L229.098 159.329Z" fill="#263238"/>
<path d="M224.634 124.362C230.064 121.776 238.884 122.892 240.204 126.762C242.562 126.39 244.404 127.806 245.946 130.782C246.894 132.73 247.415 134.858 247.476 137.023C247.537 139.188 247.136 141.342 246.3 143.34C244.989 146.815 242.918 149.953 240.24 152.526L240.084 146.136C239.543 146.099 239.009 145.995 238.494 145.824C235.662 144.846 226.344 140.886 224.166 137.088C224.166 137.088 219.888 139.38 219.882 139.374C215.4 135.15 217.2 127.896 224.634 124.362Z" fill="#37474F"/>
<path d="M220.602 134.106C220.314 135.168 219.402 137.502 219.552 144.774C219.696 151.704 221.778 153.924 223.362 154.836C224.562 155.532 227.142 155.79 229.11 155.604V161.514C229.11 161.514 228.702 162.546 232.956 162.894C239.412 163.428 240.156 160.038 240.156 160.038L240.324 149.538C240.324 149.538 242.058 150.648 244.056 148.974C245.256 147.978 246.24 144.978 244.746 143.388C243.252 141.798 241.644 142.242 240.324 144.48C240.189 144.665 240.004 144.808 239.791 144.891C239.577 144.974 239.345 144.995 239.12 144.95C238.895 144.905 238.689 144.797 238.523 144.638C238.358 144.48 238.242 144.277 238.188 144.054C237.588 141.42 238.41 138.69 234.798 137.142C231.859 136.024 229.342 134.017 227.598 131.4C225.174 133.278 222 134.322 220.602 134.106Z" fill="#FFA8A7"/>
<path d="M231.84 141.887C231.819 142.199 231.686 142.492 231.465 142.713C231.244 142.933 230.951 143.066 230.64 143.087C230.495 143.087 230.351 143.059 230.217 143.004C230.083 142.948 229.962 142.867 229.859 142.764C229.757 142.662 229.675 142.54 229.62 142.406C229.564 142.272 229.536 142.128 229.536 141.984C229.536 141.839 229.564 141.695 229.62 141.561C229.675 141.427 229.757 141.305 229.859 141.203C229.962 141.1 230.083 141.019 230.217 140.963C230.351 140.908 230.495 140.88 230.64 140.88C230.932 140.856 231.222 140.949 231.447 141.137C231.671 141.326 231.812 141.596 231.84 141.887Z" fill="#263238"/>
<path d="M223.662 141.552C223.662 141.845 223.546 142.126 223.339 142.333C223.132 142.54 222.851 142.656 222.558 142.656C222.239 142.631 221.939 142.493 221.712 142.267C221.485 142.04 221.347 141.74 221.322 141.42C221.322 140.82 221.952 140.454 222.558 140.454C222.703 140.453 222.847 140.481 222.98 140.536C223.114 140.591 223.236 140.672 223.339 140.774C223.441 140.876 223.523 140.997 223.578 141.13C223.634 141.264 223.662 141.407 223.662 141.552Z" fill="#263238"/>
<path d="M230.022 148.536L226.656 149.4C226.703 149.625 226.795 149.837 226.926 150.026C227.057 150.214 227.225 150.374 227.419 150.496C227.614 150.618 227.83 150.7 228.057 150.736C228.283 150.772 228.515 150.763 228.738 150.708C229.194 150.587 229.584 150.291 229.824 149.885C230.064 149.478 230.135 148.994 230.022 148.536Z" fill="#F28F8F"/>
<path d="M229.8 149.22C229.352 149.165 228.901 149.29 228.543 149.566C228.186 149.842 227.952 150.248 227.893 150.696C228.174 150.771 228.469 150.771 228.751 150.696C229.08 150.605 229.376 150.423 229.606 150.17C229.835 149.917 229.988 149.604 230.047 149.267C229.966 149.245 229.884 149.229 229.8 149.22Z" fill="#FFA8A7"/>
<path d="M220.908 139.553L223.188 138.767C223.143 138.616 223.069 138.476 222.969 138.355C222.869 138.233 222.746 138.133 222.606 138.061C222.467 137.989 222.314 137.945 222.157 137.934C222 137.922 221.843 137.942 221.694 137.993C221.388 138.104 221.137 138.327 220.991 138.617C220.844 138.907 220.815 139.242 220.908 139.553Z" fill="#263238"/>
<path d="M230.622 138.785L232.644 140.099C232.737 139.973 232.803 139.828 232.838 139.675C232.873 139.522 232.876 139.363 232.848 139.208C232.819 139.054 232.759 138.907 232.671 138.776C232.584 138.646 232.47 138.534 232.338 138.449C232.064 138.274 231.732 138.211 231.413 138.274C231.093 138.336 230.81 138.52 230.622 138.785Z" fill="#263238"/>
<path d="M227.292 140.196L226.542 147.354L222.798 146.1C223.974 144.096 225.462 141.6 227.292 140.196Z" fill="#F28F8F"/>
<path d="M229.11 155.604C231.852 155.094 236.976 153.852 237.87 149.916C237.87 149.916 238.11 152.022 235.938 154.146C233.67 156.372 229.11 157.2 229.11 157.2V155.604Z" fill="#F28F8F"/>
<path d="M233.244 113.682L235.2 110.004L233.628 105.456V102.672L238.428 105.456V108.24L236.352 111.84C236.32 111.895 236.272 111.939 236.214 111.966L233.244 113.682Z" fill="url(#paint32_linear_2057_27785)"/>
<path opacity="0.2" d="M233.244 113.682L235.2 110.004L233.628 105.456V102.672L238.428 105.456V108.24L236.352 111.84C236.32 111.895 236.272 111.939 236.214 111.966L233.244 113.682Z" fill="black"/>
<path d="M222.456 75.3783C222.483 74.8762 222.628 74.3874 222.879 73.9517C223.13 73.516 223.481 73.1455 223.902 72.8704L225.102 72.1924C225.55 71.9677 226.044 71.8506 226.545 71.8506C227.046 71.8506 227.54 71.9677 227.988 72.1924L246 82.6263C246.42 82.9009 246.77 83.2705 247.021 83.7052C247.272 84.1398 247.418 84.6273 247.446 85.1283V110.562C247.418 111.063 247.272 111.551 247.021 111.986C246.77 112.42 246.42 112.79 246 113.064L244.8 113.742C244.352 113.97 243.856 114.089 243.354 114.089C242.851 114.089 242.356 113.97 241.908 113.742L235.386 109.992L233.322 113.592C233.291 113.642 233.247 113.682 233.195 113.708C233.143 113.734 233.084 113.745 233.026 113.74C232.968 113.734 232.912 113.712 232.866 113.677C232.82 113.641 232.784 113.593 232.764 113.538L230.58 107.233L223.872 103.326C223.451 103.052 223.101 102.683 222.849 102.249C222.598 101.814 222.453 101.326 222.426 100.824L222.456 75.3783Z" fill="url(#paint33_linear_2057_27785)"/>
<path opacity="0.2" d="M247.452 110.562C247.424 111.063 247.278 111.55 247.027 111.985C246.776 112.42 246.426 112.789 246.006 113.064L244.806 113.742C244.398 113.946 243.951 114.061 243.495 114.081C243.039 114.101 242.584 114.024 242.16 113.856C242.844 114.114 243.36 113.73 243.36 112.908V87.4739C243.341 86.9723 243.196 86.4832 242.94 86.0518L247.002 83.7061C247.264 84.135 247.411 84.6249 247.428 85.1278L247.452 110.562Z" fill="black"/>
<path opacity="0.3" d="M222.504 74.9637C222.672 74.3637 223.23 74.1536 223.896 74.5377L241.938 84.9776C242.367 85.2393 242.719 85.61 242.958 86.0516L247.02 83.7055C246.781 83.2655 246.432 82.8951 246.006 82.6315L228 72.1917C227.551 71.9667 227.056 71.8496 226.554 71.8496C226.052 71.8496 225.557 71.9667 225.108 72.1917L223.908 72.8756C223.545 73.1106 223.233 73.4168 222.992 73.7759C222.751 74.1347 222.585 74.5388 222.504 74.9637Z" fill="white"/>
<path d="M238.098 96.4681L234.402 98.8859V85.728L231.996 84.3359V97.8122L228.834 92.676L227.136 93.954L232.836 102.87L239.262 98.658L238.098 96.4681Z" fill="#FAFAFA"/>
<defs>
<linearGradient id="paint0_linear_2057_27785" x1="36.8154" y1="126.526" x2="203.747" y2="126.526" gradientUnits="userSpaceOnUse">
<stop stop-color="#007DC0"/>
<stop offset="1" stop-color="#00B8E7"/>
</linearGradient>
<linearGradient id="paint1_linear_2057_27785" x1="36.8477" y1="180.365" x2="40.9918" y2="180.365" gradientUnits="userSpaceOnUse">
<stop stop-color="#007DC0"/>
<stop offset="1" stop-color="#00B8E7"/>
</linearGradient>
<linearGradient id="paint2_linear_2057_27785" x1="40.0347" y1="127.462" x2="203.748" y2="127.462" gradientUnits="userSpaceOnUse">
<stop stop-color="#007DC0"/>
<stop offset="1" stop-color="#00B8E7"/>
</linearGradient>
<linearGradient id="paint3_linear_2057_27785" x1="40.0405" y1="72.4666" x2="203.748" y2="72.4666" gradientUnits="userSpaceOnUse">
<stop stop-color="#007DC0"/>
<stop offset="1" stop-color="#00B8E7"/>
</linearGradient>
<linearGradient id="paint4_linear_2057_27785" x1="182.879" y1="24.057" x2="186.09" y2="24.057" gradientUnits="userSpaceOnUse">
<stop stop-color="#007DC0"/>
<stop offset="1" stop-color="#00B8E7"/>
</linearGradient>
<linearGradient id="paint5_linear_2057_27785" x1="188.501" y1="20.8234" x2="191.706" y2="20.8234" gradientUnits="userSpaceOnUse">
<stop stop-color="#007DC0"/>
<stop offset="1" stop-color="#00B8E7"/>
</linearGradient>
<linearGradient id="paint6_linear_2057_27785" x1="194.115" y1="17.5861" x2="197.326" y2="17.5861" gradientUnits="userSpaceOnUse">
<stop stop-color="#007DC0"/>
<stop offset="1" stop-color="#00B8E7"/>
</linearGradient>
<linearGradient id="paint7_linear_2057_27785" x1="112.5" y1="95.6867" x2="120.161" y2="95.6867" gradientUnits="userSpaceOnUse">
<stop stop-color="#007DC0"/>
<stop offset="1" stop-color="#00B8E7"/>
</linearGradient>
<linearGradient id="paint8_linear_2057_27785" x1="122.122" y1="89.1789" x2="131.598" y2="89.1789" gradientUnits="userSpaceOnUse">
<stop stop-color="#007DC0"/>
<stop offset="1" stop-color="#00B8E7"/>
</linearGradient>
<linearGradient id="paint9_linear_2057_27785" x1="115.122" y1="95.3788" x2="117.222" y2="95.3788" gradientUnits="userSpaceOnUse">
<stop stop-color="#007DC0"/>
<stop offset="1" stop-color="#00B8E7"/>
</linearGradient>
<linearGradient id="paint10_linear_2057_27785" x1="83.0903" y1="112.294" x2="90.7515" y2="112.294" gradientUnits="userSpaceOnUse">
<stop stop-color="#007DC0"/>
<stop offset="1" stop-color="#00B8E7"/>
</linearGradient>
<linearGradient id="paint11_linear_2057_27785" x1="92.8667" y1="106.078" x2="102.343" y2="106.078" gradientUnits="userSpaceOnUse">
<stop stop-color="#007DC0"/>
<stop offset="1" stop-color="#00B8E7"/>
</linearGradient>
<linearGradient id="paint12_linear_2057_27785" x1="53.8667" y1="129.197" x2="61.5402" y2="129.197" gradientUnits="userSpaceOnUse">
<stop stop-color="#007DC0"/>
<stop offset="1" stop-color="#00B8E7"/>
</linearGradient>
<linearGradient id="paint13_linear_2057_27785" x1="63.625" y1="122.979" x2="73.1013" y2="122.979" gradientUnits="userSpaceOnUse">
<stop stop-color="#007DC0"/>
<stop offset="1" stop-color="#00B8E7"/>
</linearGradient>
<linearGradient id="paint14_linear_2057_27785" x1="47.7886" y1="117.602" x2="136.086" y2="117.602" gradientUnits="userSpaceOnUse">
<stop stop-color="#007DC0"/>
<stop offset="1" stop-color="#00B8E7"/>
</linearGradient>
<linearGradient id="paint15_linear_2057_27785" x1="69.8789" y1="143.976" x2="174.629" y2="143.976" gradientUnits="userSpaceOnUse">
<stop stop-color="#007DC0"/>
<stop offset="1" stop-color="#00B8E7"/>
</linearGradient>
<linearGradient id="paint16_linear_2057_27785" x1="86.8091" y1="154.617" x2="191.56" y2="154.617" gradientUnits="userSpaceOnUse">
<stop stop-color="#007DC0"/>
<stop offset="1" stop-color="#00B8E7"/>
</linearGradient>
<linearGradient id="paint17_linear_2057_27785" x1="104.96" y1="164.631" x2="209.711" y2="164.631" gradientUnits="userSpaceOnUse">
<stop stop-color="#007DC0"/>
<stop offset="1" stop-color="#00B8E7"/>
</linearGradient>
<linearGradient id="paint18_linear_2057_27785" x1="105.292" y1="131.076" x2="209.225" y2="131.076" gradientUnits="userSpaceOnUse">
<stop stop-color="#007DC0"/>
<stop offset="1" stop-color="#00B8E7"/>
</linearGradient>
<linearGradient id="paint19_linear_2057_27785" x1="18.8394" y1="229.03" x2="54.9956" y2="229.03" gradientUnits="userSpaceOnUse">
<stop stop-color="#007DC0"/>
<stop offset="1" stop-color="#00B8E7"/>
</linearGradient>
<linearGradient id="paint20_linear_2057_27785" x1="21.1826" y1="240.112" x2="50.4246" y2="240.112" gradientUnits="userSpaceOnUse">
<stop stop-color="#007DC0"/>
<stop offset="1" stop-color="#00B8E7"/>
</linearGradient>
<linearGradient id="paint21_linear_2057_27785" x1="253.86" y1="192.936" x2="282.151" y2="192.936" gradientUnits="userSpaceOnUse">
<stop stop-color="#007DC0"/>
<stop offset="1" stop-color="#00B8E7"/>
</linearGradient>
<linearGradient id="paint22_linear_2057_27785" x1="257.442" y1="201.633" x2="280.322" y2="201.633" gradientUnits="userSpaceOnUse">
<stop stop-color="#007DC0"/>
<stop offset="1" stop-color="#00B8E7"/>
</linearGradient>
<linearGradient id="paint23_linear_2057_27785" x1="49.5181" y1="62.9943" x2="76.2" y2="62.9943" gradientUnits="userSpaceOnUse">
<stop stop-color="#007DC0"/>
<stop offset="1" stop-color="#00B8E7"/>
</linearGradient>
<linearGradient id="paint24_linear_2057_27785" x1="49.5181" y1="51.792" x2="76.2" y2="51.792" gradientUnits="userSpaceOnUse">
<stop stop-color="#007DC0"/>
<stop offset="1" stop-color="#00B8E7"/>
</linearGradient>
<linearGradient id="paint25_linear_2057_27785" x1="49.5181" y1="40.5899" x2="76.2" y2="40.5899" gradientUnits="userSpaceOnUse">
<stop stop-color="#007DC0"/>
<stop offset="1" stop-color="#00B8E7"/>
</linearGradient>
<linearGradient id="paint26_linear_2057_27785" x1="198.334" y1="246.633" x2="213.517" y2="246.633" gradientUnits="userSpaceOnUse">
<stop stop-color="#007DC0"/>
<stop offset="1" stop-color="#00B8E7"/>
</linearGradient>
<linearGradient id="paint27_linear_2057_27785" x1="169.796" y1="247.224" x2="197.334" y2="247.224" gradientUnits="userSpaceOnUse">
<stop stop-color="#007DC0"/>
<stop offset="1" stop-color="#00B8E7"/>
</linearGradient>
<linearGradient id="paint28_linear_2057_27785" x1="212.451" y1="184.528" x2="251.1" y2="184.528" gradientUnits="userSpaceOnUse">
<stop stop-color="#007DC0"/>
<stop offset="1" stop-color="#00B8E7"/>
</linearGradient>
<linearGradient id="paint29_linear_2057_27785" x1="225.222" y1="185.41" x2="241.398" y2="185.41" gradientUnits="userSpaceOnUse">
<stop stop-color="#007DC0"/>
<stop offset="1" stop-color="#00B8E7"/>
</linearGradient>
<linearGradient id="paint30_linear_2057_27785" x1="170.694" y1="206.375" x2="211.254" y2="206.375" gradientUnits="userSpaceOnUse">
<stop stop-color="#007DC0"/>
<stop offset="1" stop-color="#00B8E7"/>
</linearGradient>
<linearGradient id="paint31_linear_2057_27785" x1="186.308" y1="206.895" x2="192.286" y2="206.895" gradientUnits="userSpaceOnUse">
<stop stop-color="#007DC0"/>
<stop offset="1" stop-color="#00B8E7"/>
</linearGradient>
<linearGradient id="paint32_linear_2057_27785" x1="233.244" y1="108.177" x2="238.428" y2="108.177" gradientUnits="userSpaceOnUse">
<stop stop-color="#007DC0"/>
<stop offset="1" stop-color="#00B8E7"/>
</linearGradient>
<linearGradient id="paint33_linear_2057_27785" x1="222.426" y1="92.9697" x2="247.446" y2="92.9697" gradientUnits="userSpaceOnUse">
<stop stop-color="#007DC0"/>
<stop offset="1" stop-color="#00B8E7"/>
</linearGradient>
</defs>
</svg>
