<svg width="63" height="62" viewBox="0 0 63 62" fill="none" xmlns="http://www.w3.org/2000/svg">
<rect x="0.718262" y="0.297363" width="61.5882" height="61.5882" rx="30.7941" fill="#F5F7F8"/>
<path d="M31.5122 16.0361C37.7458 16.0361 42.803 21.0936 42.8032 27.3271C42.8032 30.3379 41.6274 33.0727 39.7046 35.0957C38.3167 36.56 37.1577 38.3481 37.1577 40.3652V41.4414C37.1577 44.0406 35.0527 46.1463 32.4536 46.1465H30.5718C27.9725 46.1465 25.8667 44.0407 25.8667 41.4414V40.3652C25.8667 38.3481 24.7077 36.56 23.3198 35.0957C21.397 33.0727 20.2212 30.3379 20.2212 27.3271C20.2214 21.0937 25.2787 16.0362 31.5122 16.0361ZM27.7485 40.501V41.4414C27.7485 42.9998 29.0134 44.2646 30.5718 44.2646H32.4536C34.0118 44.2644 35.2759 42.9997 35.2759 41.4414V40.501H27.7485ZM31.5122 17.918C26.3137 17.918 22.1032 22.1287 22.103 27.3271C22.103 29.8383 23.0855 32.1149 24.6851 33.8027C25.8552 35.0318 27.0603 36.6611 27.5366 38.6191H35.4878C35.9641 36.6667 37.1701 35.0318 38.3403 33.8027C39.9399 32.1149 40.9214 29.8383 40.9214 27.3271C40.9212 22.1287 36.7107 17.918 31.5122 17.918ZM16.8745 34.0732C17.3097 33.7851 17.892 33.8969 18.1802 34.332C18.4682 34.7672 18.3565 35.3486 17.9214 35.6367L15.0991 37.5186C14.6639 37.8067 14.0816 37.6949 13.7935 37.2598C13.5055 36.8246 13.6172 36.2432 14.0522 35.9551L16.8745 34.0732ZM44.8442 34.332C45.1324 33.9027 45.7147 33.7851 46.1499 34.0732L48.9722 35.9551C49.4014 36.2432 49.5189 36.8305 49.231 37.2598C48.9428 37.6891 48.3605 37.8067 47.9253 37.5186L45.103 35.6367C44.6738 35.3486 44.5563 34.7613 44.8442 34.332ZM16.4575 26.3867C16.9748 26.3868 17.3978 26.8099 17.3979 27.3271C17.3979 27.8446 16.975 28.2685 16.4575 28.2686H13.6343C13.1169 28.2684 12.6938 27.8446 12.6938 27.3271C12.694 26.8099 13.117 26.3869 13.6343 26.3867H16.4575ZM49.3901 26.3867C49.9074 26.3868 50.3304 26.8099 50.3306 27.3271C50.3306 27.8446 49.9076 28.2685 49.3901 28.2686H46.5669C46.0495 28.2684 45.6265 27.8446 45.6265 27.3271C45.6267 26.8099 46.0496 26.3869 46.5669 26.3867H49.3901ZM30.5718 20.7412C31.089 20.7415 31.5121 21.1644 31.5122 21.6816C31.5122 22.199 31.0891 22.6228 30.5718 22.623C28.4958 22.623 26.8071 24.3108 26.8071 26.3867C26.807 26.9042 26.3841 27.3271 25.8667 27.3271C25.3492 27.3271 24.9254 26.9042 24.9253 26.3867C24.9253 23.2699 27.4549 20.7412 30.5718 20.7412ZM47.9253 17.1357C48.3604 16.8476 48.9427 16.9596 49.231 17.3945C49.5191 17.8297 49.4073 18.412 48.9722 18.7002L46.1499 20.582C45.7147 20.8702 45.1324 20.7584 44.8442 20.3232C44.5561 19.8881 44.6679 19.3057 45.103 19.0176L47.9253 17.1357ZM13.7935 17.3945C14.0817 16.9654 14.664 16.8476 15.0991 17.1357L17.9214 19.0176C18.3507 19.3057 18.4683 19.8939 18.1802 20.3232C17.892 20.7525 17.3097 20.8702 16.8745 20.582L14.0522 18.7002C13.6229 18.412 13.5053 17.8238 13.7935 17.3945Z" fill="#98AFBA"/>
</svg>
