<svg width="63" height="63" viewBox="0 0 63 63" fill="none" xmlns="http://www.w3.org/2000/svg">
<rect x="0.718262" y="0.655273" width="61.5882" height="61.5882" rx="30.7941" fill="#ECF7FB"/>
<path d="M31.5122 16.394C37.7458 16.394 42.803 21.4515 42.8032 27.6851C42.8032 30.6959 41.6274 33.4306 39.7046 35.4536C38.3167 36.9179 37.1577 38.706 37.1577 40.7231V41.7993C37.1577 44.3985 35.0527 46.5042 32.4536 46.5044H30.5718C27.9725 46.5044 25.8667 44.3986 25.8667 41.7993V40.7231C25.8667 38.706 24.7077 36.9179 23.3198 35.4536C21.397 33.4307 20.2212 30.6958 20.2212 27.6851C20.2214 21.4516 25.2787 16.3941 31.5122 16.394ZM27.7485 40.8589V41.7993C27.7485 43.3577 29.0134 44.6226 30.5718 44.6226H32.4536C34.0118 44.6223 35.2759 43.3576 35.2759 41.7993V40.8589H27.7485ZM31.5122 18.2759C26.3137 18.2759 22.1032 22.4866 22.103 27.6851C22.103 30.1962 23.0855 32.4728 24.6851 34.1606C25.8552 35.3897 27.0603 37.019 27.5366 38.9771H35.4878C35.9641 37.0246 37.1701 35.3897 38.3403 34.1606C39.9399 32.4728 40.9214 30.1962 40.9214 27.6851C40.9212 22.4866 36.7107 18.2759 31.5122 18.2759ZM16.8745 34.4312C17.3097 34.143 17.892 34.2548 18.1802 34.6899C18.4682 35.1251 18.3565 35.7065 17.9214 35.9946L15.0991 37.8765C14.6639 38.1646 14.0816 38.0529 13.7935 37.6177C13.5055 37.1826 13.6172 36.6011 14.0522 36.313L16.8745 34.4312ZM44.8442 34.6899C45.1324 34.2606 45.7147 34.143 46.1499 34.4312L48.9722 36.313C49.4014 36.6011 49.5189 37.1884 49.231 37.6177C48.9428 38.047 48.3605 38.1646 47.9253 37.8765L45.103 35.9946C44.6738 35.7065 44.5563 35.1192 44.8442 34.6899ZM16.4575 26.7446C16.9748 26.7447 17.3978 27.1678 17.3979 27.6851C17.3979 28.2025 16.975 28.6264 16.4575 28.6265H13.6343C13.1169 28.6263 12.6938 28.2025 12.6938 27.6851C12.694 27.1678 13.117 26.7448 13.6343 26.7446H16.4575ZM49.3901 26.7446C49.9074 26.7447 50.3304 27.1678 50.3306 27.6851C50.3306 28.2025 49.9076 28.6264 49.3901 28.6265H46.5669C46.0495 28.6263 45.6265 28.2025 45.6265 27.6851C45.6267 27.1678 46.0496 26.7448 46.5669 26.7446H49.3901ZM30.5718 21.0991C31.089 21.0994 31.5121 21.5223 31.5122 22.0396C31.5122 22.5569 31.0891 22.9807 30.5718 22.981C28.4958 22.981 26.8071 24.6687 26.8071 26.7446C26.807 27.2621 26.3841 27.685 25.8667 27.6851C25.3492 27.6851 24.9254 27.2621 24.9253 26.7446C24.9253 23.6278 27.4549 21.0991 30.5718 21.0991ZM47.9253 17.4937C48.3604 17.2056 48.9427 17.3175 49.231 17.7524C49.5191 18.1876 49.4073 18.7699 48.9722 19.0581L46.1499 20.9399C45.7147 21.2281 45.1324 21.1163 44.8442 20.6812C44.5561 20.246 44.6679 19.6636 45.103 19.3755L47.9253 17.4937ZM13.7935 17.7524C14.0817 17.3233 14.664 17.2055 15.0991 17.4937L17.9214 19.3755C18.3507 19.6636 18.4683 20.2519 18.1802 20.6812C17.892 21.1105 17.3097 21.2281 16.8745 20.9399L14.0522 19.0581C13.6229 18.7699 13.5053 18.1817 13.7935 17.7524Z" fill="url(#paint0_linear_1956_11214)"/>
<defs>
<linearGradient id="paint0_linear_1956_11214" x1="12.6938" y1="31.4492" x2="50.3306" y2="31.4492" gradientUnits="userSpaceOnUse">
<stop stop-color="#007DC0"/>
<stop offset="1" stop-color="#00B8E7"/>
</linearGradient>
</defs>
</svg>
