<svg width="29" height="29" viewBox="0 0 29 29" fill="none" xmlns="http://www.w3.org/2000/svg">
<g clip-path="url(#clip0_2504_11029)">
<path d="M14.407 6.30308C11.672 6.30308 9.45462 8.52041 9.45462 11.2555C9.45462 13.9906 11.672 16.2079 14.407 16.2079C17.1421 16.2079 19.3595 13.9906 19.3595 11.2555C19.3595 8.52041 17.1421 6.30308 14.407 6.30308ZM14.407 13.5066C13.1656 13.5066 12.1559 12.4964 12.1559 11.2555C12.1559 10.0118 13.1633 9.0044 14.407 9.0044C15.6508 9.0044 16.6581 10.014 16.6581 11.2555C16.6581 12.4992 15.6508 13.5066 14.407 13.5066ZM14.407 0C6.4494 0 0 6.4494 0 14.407C0 22.3647 6.4494 28.8141 14.407 28.8141C22.3647 28.8141 28.8141 22.3647 28.8141 14.407C28.8141 6.4494 22.3647 0 14.407 0ZM14.407 26.1128C11.7772 26.1128 9.35557 25.2303 7.40049 23.7609C8.37409 21.8919 10.265 20.7101 12.3923 20.7101H16.4268C18.5513 20.7101 20.44 21.8925 21.4175 23.7609C19.4608 25.2292 17.0352 26.1128 14.407 26.1128ZM23.4227 21.8638C21.9032 19.4889 19.3144 18.0088 16.4218 18.0088H12.3923C9.50189 18.0088 6.91369 19.4861 5.39138 21.8627C3.71206 19.8378 2.70132 17.2378 2.70132 14.407C2.70132 7.95201 7.95257 2.70132 14.407 2.70132C20.8615 2.70132 26.1128 7.95257 26.1128 14.407C26.1128 17.2378 25.0998 19.8378 23.4227 21.8638Z" fill="white"/>
</g>
<defs>
<clipPath id="clip0_2504_11029">
<rect width="28.8141" height="28.8141" fill="white"/>
</clipPath>
</defs>
</svg>
