<svg width="18" height="18" viewBox="0 0 18 18" fill="none" xmlns="http://www.w3.org/2000/svg">
<path d="M10.9336 0.0986328C11.0881 -0.00669886 11.281 -0.0284988 11.4531 0.0380859C13.9527 1.01543 15.75 3.3082 15.75 6.1875C15.7499 8.68695 14.3928 10.867 12.375 12.0342V17.4375C12.3749 17.7466 12.1216 17.9998 11.8125 18C11.5032 18 11.2501 17.7468 11.25 17.4375V11.7002C11.25 11.4893 11.3693 11.2951 11.5557 11.2002C13.38 10.2685 14.6249 8.37399 14.625 6.1875C14.625 4.11694 13.5033 2.40102 11.8125 1.44824V6.1875C11.8124 6.36319 11.7275 6.53228 11.5869 6.6377L9.33691 8.3252C9.13663 8.47607 8.86237 8.47611 8.66211 8.3252L6.41211 6.6377C6.27155 6.53228 6.18758 6.36319 6.1875 6.1875V1.44824C4.49648 2.40098 3.375 4.1168 3.375 6.1875C3.37509 8.37395 4.61905 10.2685 6.44336 11.2002C6.6332 11.2951 6.75 11.4893 6.75 11.7002V17.4375C6.74987 17.7466 6.4966 17.9998 6.1875 18C5.87821 18 5.62513 17.7468 5.625 17.4375V12.0342C3.6071 10.867 2.25009 8.68701 2.25 6.1875C2.25 3.3082 4.04629 1.01543 6.5459 0.0380859C6.71809 -0.0285637 6.91533 -0.0067719 7.06641 0.0986328C7.22079 0.204131 7.3125 0.37637 7.3125 0.5625V5.90625L9 7.17188L10.6875 5.90625V0.5625C10.6875 0.376172 10.7789 0.204102 10.9336 0.0986328Z" fill="#96AFB8"/>
</svg>
