<svg width="19" height="19" viewBox="0 0 19 19" fill="none" xmlns="http://www.w3.org/2000/svg">
<path d="M9.47363 0C14.7058 0 18.9472 4.24149 18.9473 9.47363C18.9473 14.7058 14.7058 18.9473 9.47363 18.9473C4.24149 18.9472 0 14.7058 0 9.47363C2.78317e-05 4.2415 4.2415 2.78325e-05 9.47363 0ZM7.5127 11.6055C7.64814 12.4136 7.85475 13.1288 8.1123 13.7061V13.708C8.34545 14.232 8.60554 14.6118 8.85645 14.8516C9.10508 15.0869 9.31156 15.1582 9.47363 15.1582C9.63567 15.1582 9.84224 15.087 10.0908 14.8496C10.3417 14.6098 10.6018 14.23 10.835 13.7061C11.0903 13.1288 11.2991 12.4136 11.4346 11.6055H7.5127ZM4.20215 11.6055C4.86828 13.2507 6.28072 14.5121 8.02148 14.9717C7.45532 14.2123 7.016 13.0242 6.79395 11.6055H4.20215ZM12.1562 11.6055C11.932 13.0242 11.4939 14.2123 10.9277 14.9717C12.6663 14.5121 14.079 13.2507 14.7451 11.6055H12.1562ZM3.96973 8.05273C3.85205 8.5079 3.78907 8.98294 3.78906 9.47363C3.78906 9.9643 3.85206 10.4394 3.96973 10.8945H6.70215C6.65554 10.4372 6.63184 9.96203 6.63184 9.47363C6.63184 8.98522 6.65553 8.51007 6.70215 8.05273H3.96973ZM7.41504 8.05273C7.36842 8.50564 7.3418 8.98077 7.3418 9.47363C7.3418 9.96647 7.36621 10.4416 7.41504 10.8945H11.5322C11.5788 10.4416 11.6055 9.96648 11.6055 9.47363C11.6055 8.98077 11.5811 8.50564 11.5322 8.05273H7.41504ZM12.2451 8.05273C12.2917 8.51008 12.3154 8.98521 12.3154 9.47363C12.3154 9.96203 12.2917 10.4372 12.2451 10.8945H14.9785C15.0961 10.4394 15.1582 9.96423 15.1582 9.47363C15.1582 8.98302 15.0962 8.50784 14.9785 8.05273H12.2451ZM8.02148 3.97559C6.28075 4.43519 4.86829 5.69656 4.20215 7.3418H6.79395C7.016 5.92312 7.45533 4.7349 8.02148 3.97559ZM9.47363 3.78906C9.31158 3.78908 9.10505 3.86045 8.85645 4.0957C8.60554 4.3355 8.34544 4.71525 8.1123 5.23926C7.85698 5.81872 7.64814 6.53367 7.5127 7.3418H11.4346C11.2991 6.53146 11.0925 5.8165 10.835 5.23926C10.6018 4.71527 10.3417 4.3355 10.0908 4.0957C9.84221 3.86047 9.63569 3.78906 9.47363 3.78906ZM10.9258 3.97559C11.4919 4.7349 11.9313 5.92312 12.1533 7.3418H14.7432C14.0792 5.69653 12.6643 4.4352 10.9258 3.97559Z" fill="url(#paint0_linear_1693_6346)"/>
<defs>
<linearGradient id="paint0_linear_1693_6346" x1="0" y1="9.47368" x2="18.9474" y2="9.47368" gradientUnits="userSpaceOnUse">
<stop stop-color="#007DC0"/>
<stop offset="1" stop-color="#00B8E7"/>
</linearGradient>
</defs>
</svg>
