<svg width="19" height="19" viewBox="0 0 19 19" fill="none" xmlns="http://www.w3.org/2000/svg">
<path d="M9.47363 0C14.7058 0 18.9472 4.24149 18.9473 9.47363C18.9473 14.7058 14.7058 18.9473 9.47363 18.9473C4.24149 18.9472 0 14.7058 0 9.47363C2.78317e-05 4.2415 4.2415 2.78325e-05 9.47363 0ZM8.16602 7.3418C7.65755 7.3418 7.18672 7.61549 6.93359 8.05957L6.93066 8.05664L4.68652 11.9873C4.5644 12.2027 4.5 12.4469 4.5 12.6934V13.3818C4.50014 13.9701 4.97715 14.4472 5.56543 14.4473H13.3809C13.9692 14.4473 14.4471 13.9701 14.4473 13.3818V12.6934C14.4473 12.4447 14.3828 12.2026 14.2607 11.9873L12.0156 8.05664C11.7625 7.61501 11.2918 7.34181 10.7812 7.3418H8.16602ZM10.7812 8.4082C10.9078 8.40822 11.0277 8.47688 11.0898 8.58789L13.335 12.5176C13.366 12.5709 13.3809 12.6312 13.3809 12.6934V13.3818H5.56543V12.6934C5.56543 12.6334 5.58122 12.5709 5.6123 12.5176L7.85742 8.58789C7.92182 8.47692 8.03949 8.4082 8.16602 8.4082H10.7812ZM9.47363 9.47363C9.09685 9.47363 8.73523 9.62329 8.46875 9.88965C8.2023 10.1561 8.05279 10.5177 8.05273 10.8945C8.05273 11.2714 8.20225 11.6329 8.46875 11.8994C8.73525 12.1659 9.09676 12.3154 9.47363 12.3154C9.85043 12.3154 10.2121 12.1659 10.4785 11.8994C10.7449 11.6329 10.8945 11.2713 10.8945 10.8945C10.8945 10.5177 10.745 10.1561 10.4785 9.88965C10.2121 9.62321 9.85043 9.4737 9.47363 9.47363ZM9.47363 4.5C6.5849 4.5 4.63716 5.90807 4.00879 6.43652C3.86469 6.55861 3.7891 6.7382 3.78906 6.92676V7.69727C3.78906 8.09028 4.10699 8.4082 4.5 8.4082H5.43848C5.72928 8.4082 5.992 8.23047 6.09863 7.96191L6.5332 6.88281C6.59755 6.72084 6.71992 6.58957 6.88184 6.52734C7.29483 6.37192 8.20332 6.09864 9.47559 6.09863C10.7479 6.09863 11.6563 6.37192 12.0693 6.52734C12.2313 6.58956 12.3536 6.72083 12.418 6.88281L12.8486 7.96191C12.9553 8.23036 13.2171 8.40819 13.5078 8.4082H14.4473C14.8402 8.4081 15.1572 8.09021 15.1572 7.69727V6.92676C15.1572 6.73807 15.0818 6.55862 14.9375 6.43652C14.3091 5.90808 12.3622 4.50008 9.47363 4.5Z" fill="url(#paint0_linear_1693_6352)"/>
<defs>
<linearGradient id="paint0_linear_1693_6352" x1="0" y1="9.47368" x2="18.9474" y2="9.47368" gradientUnits="userSpaceOnUse">
<stop stop-color="#007DC0"/>
<stop offset="1" stop-color="#00B8E7"/>
</linearGradient>
</defs>
</svg>
