<svg width="19" height="19" viewBox="0 0 19 19" fill="none" xmlns="http://www.w3.org/2000/svg">
<path d="M9.47368 18.9474C11.9863 18.9474 14.3959 17.9493 16.1726 16.1726C17.9493 14.3959 18.9474 11.9863 18.9474 9.47368C18.9474 6.96111 17.9493 4.55144 16.1726 2.77478C14.3959 0.998118 11.9863 0 9.47368 0C6.96111 0 4.55144 0.998118 2.77478 2.77478C0.998118 4.55144 0 6.96111 0 9.47368C0 11.9863 0.998118 14.3959 2.77478 16.1726C4.55144 17.9493 6.96111 18.9474 9.47368 18.9474ZM6.90913 4.76275C7.26809 4.66653 7.64556 4.84786 7.78618 5.19202L8.52632 6.96834C8.65214 7.27179 8.56332 7.61965 8.31168 7.82689L7.40132 8.57442C8.01562 9.87706 9.07031 10.9317 10.3729 11.5461L11.1205 10.632C11.3277 10.3803 11.6756 10.2915 11.979 10.4174L13.7553 11.1575C14.0995 11.3018 14.2808 11.6756 14.1846 12.0345L13.7405 13.6628C13.6517 13.9885 13.3594 14.2105 13.0263 14.2105C8.4486 14.2105 4.73684 10.4988 4.73684 5.92105C4.73684 5.58799 4.95888 5.29564 5.28084 5.20683L6.90913 4.76275Z" fill="url(#paint0_linear_1693_6340)"/>
<defs>
<linearGradient id="paint0_linear_1693_6340" x1="0" y1="9.47368" x2="18.9474" y2="9.47368" gradientUnits="userSpaceOnUse">
<stop stop-color="#007DC0"/>
<stop offset="1" stop-color="#00B8E7"/>
</linearGradient>
</defs>
</svg>
