<svg width="408" height="71" viewBox="0 0 408 71" fill="none" xmlns="http://www.w3.org/2000/svg">
<g clip-path="url(#clip0_2113_19884)">
<rect x="3.73333" y="4.01068" width="62.5333" height="62.5333" rx="31.2667" stroke="#98AFBA" stroke-opacity="0.25" stroke-width="7.46667"/>
<path d="M28.7514 28.272C29.0302 28.9689 29.2442 29.7006 29.3935 30.4672C29.5429 31.2238 29.6374 31.9556 29.6773 32.6624C29.7171 33.3693 29.737 34.1309 29.737 34.9472V35.44L29.7071 38.2773H28.3034L28.3333 35.44V35.0816C28.3333 34.2553 28.3134 33.5186 28.2735 32.8715C28.2437 32.2144 28.164 31.5424 28.0346 30.8555C27.9052 30.1685 27.7061 29.5065 27.4373 28.8693L28.7514 28.272Z" fill="#263238"/>
<path d="M35.3036 27.6597H36.6774L32.4065 39.1883H31.0326L35.3036 27.6597Z" fill="#263238"/>
<path d="M38.9167 28.272C39.1954 28.9689 39.4095 29.7006 39.5588 30.4672C39.7081 31.2238 39.8027 31.9556 39.8425 32.6624C39.8824 33.3693 39.9023 34.1309 39.9023 34.9472V35.44L39.8724 38.2773H38.4687L38.4985 35.44V35.0816C38.4985 34.2553 38.4786 33.5186 38.4388 32.8715C38.4089 32.2144 38.3293 31.5424 38.1999 30.8555C38.0705 30.1685 37.8713 29.5065 37.6025 28.8693L38.9167 28.272ZM43.0084 28.6453L43.2473 30.3029C43.327 30.9003 43.2623 31.4329 43.0532 31.9008C42.8441 32.3687 42.5405 32.7321 42.1423 32.9909C41.754 33.2498 41.3458 33.3792 40.9177 33.3792C40.3204 33.3792 39.8077 33.1851 39.3796 32.7968C38.9515 32.4085 38.623 31.7963 38.394 30.96L39.5887 30.5867C39.6584 31.0446 39.7977 31.3582 40.0068 31.5275C40.2258 31.6868 40.5195 31.7664 40.8879 31.7664C41.087 31.7664 41.2662 31.7266 41.4255 31.6469C41.5848 31.5573 41.6993 31.418 41.7689 31.2288C41.8486 31.0297 41.8735 30.7858 41.8436 30.4971L41.6047 28.8693L43.0084 28.6453ZM46.2788 28.4363L46.5177 30.3029C46.5974 30.9501 46.5426 31.5076 46.3535 31.9755C46.1643 32.4434 45.8856 32.7968 45.5172 33.0357C45.1489 33.2647 44.7407 33.3792 44.2927 33.3792C43.7053 33.3792 43.2075 33.1502 42.7993 32.6923C42.3912 32.2343 42.1323 31.5076 42.0228 30.512L43.2473 30.3179C43.317 30.8754 43.4315 31.2587 43.5908 31.4677C43.7601 31.6669 43.989 31.7664 44.2777 31.7664C44.6162 31.7664 44.8552 31.6718 44.9945 31.4827C45.1339 31.2836 45.1737 30.955 45.114 30.4971L44.8751 28.6304L46.2788 28.4363Z" fill="#263238"/>
<mask id="path-6-inside-1_2113_19884" fill="white">
<path d="M35 3.99229C35 1.94058 36.6679 0.256944 38.7081 0.47431C43.494 0.98422 48.1372 2.47743 52.3411 4.87524C57.6238 7.88845 62.0302 12.2262 65.126 17.4609C68.2218 22.6956 69.9002 28.6467 69.9957 34.7276C70.0717 39.5666 69.1433 44.3549 67.2845 48.7944C66.4921 50.687 64.2132 51.3374 62.4153 50.349C60.6174 49.3606 59.9873 47.1077 60.7252 45.1933C61.9929 41.9044 62.6224 38.3916 62.5667 34.8443C62.4915 30.0543 61.1694 25.3665 58.7307 21.243C56.2921 17.1195 52.8211 13.7026 48.6598 11.3291C45.5781 9.57131 42.1966 8.43068 38.7038 7.95715C36.6707 7.68152 35 6.044 35 3.99229Z"/>
</mask>
<path d="M35 3.99229C35 1.94058 36.6679 0.256944 38.7081 0.47431C43.494 0.98422 48.1372 2.47743 52.3411 4.87524C57.6238 7.88845 62.0302 12.2262 65.126 17.4609C68.2218 22.6956 69.9002 28.6467 69.9957 34.7276C70.0717 39.5666 69.1433 44.3549 67.2845 48.7944C66.4921 50.687 64.2132 51.3374 62.4153 50.349C60.6174 49.3606 59.9873 47.1077 60.7252 45.1933C61.9929 41.9044 62.6224 38.3916 62.5667 34.8443C62.4915 30.0543 61.1694 25.3665 58.7307 21.243C56.2921 17.1195 52.8211 13.7026 48.6598 11.3291C45.5781 9.57131 42.1966 8.43068 38.7038 7.95715C36.6707 7.68152 35 6.044 35 3.99229Z" stroke="url(#paint0_linear_2113_19884)" stroke-width="14.9333" mask="url(#path-6-inside-1_2113_19884)"/>
</g>
<path d="M299.99 22.1813C300.779 23.0347 301.366 23.7013 301.75 24.1813C302.144 24.6507 302.448 25.12 302.662 25.5893C302.886 26.0587 302.998 26.5493 302.998 27.0613C302.998 27.6693 302.838 28.2293 302.518 28.7413C302.198 29.2533 301.766 29.664 301.222 29.9733C300.678 30.272 300.091 30.4213 299.462 30.4213C298.811 30.4213 298.214 30.272 297.67 29.9733C297.126 29.664 296.694 29.2533 296.374 28.7413C296.054 28.2293 295.894 27.6693 295.894 27.0613C295.894 26.5173 295.995 26.016 296.198 25.5573C296.411 25.088 296.672 24.6613 296.982 24.2773C297.291 23.8933 297.723 23.408 298.278 22.8213L298.63 22.4533L300.038 23.8933L299.622 24.3253C299.163 24.816 298.827 25.1893 298.614 25.4453C298.4 25.6907 298.23 25.9307 298.102 26.1653C297.984 26.4 297.926 26.6347 297.926 26.8693C297.926 27.232 298.054 27.5413 298.31 27.7973C298.576 28.0533 298.96 28.1813 299.462 28.1813C299.942 28.1813 300.31 28.0533 300.566 27.7973C300.832 27.5413 300.966 27.232 300.966 26.8693C300.966 26.6453 300.886 26.4 300.726 26.1333C300.566 25.8667 300.32 25.5413 299.99 25.1573C299.659 24.7733 299.104 24.1547 298.326 23.3013C298.176 23.1413 298.048 23.0027 297.942 22.8853C297.835 22.7573 297.702 22.608 297.542 22.4373L298.966 21.0613L299.99 22.1813ZM308.117 30.2773C307.36 30.2773 306.736 30.128 306.245 29.8293C305.765 29.52 305.413 29.0987 305.189 28.5653C304.965 28.032 304.853 27.4027 304.853 26.6773V19.5893H306.885V26.6773C306.885 27.0827 306.906 27.3707 306.949 27.5413C307.002 27.712 307.109 27.8293 307.269 27.8933C307.44 27.9467 307.722 27.9733 308.117 27.9733H308.693L308.789 29.1573L308.693 30.2773H308.117ZM316.038 21.0773L311.798 22.9653L313.542 25.1413C314.086 25.8133 314.369 26.56 314.39 27.3813C314.411 28.192 314.161 28.88 313.638 29.4453C313.115 30 312.385 30.2773 311.446 30.2773H308.342V27.9733H311.494C311.782 27.9733 312.001 27.9147 312.15 27.7973C312.299 27.68 312.363 27.52 312.342 27.3173C312.331 27.1147 312.23 26.9067 312.038 26.6933L309.59 23.8293L310.086 21.2533L315.222 18.9813L316.038 21.0773ZM317.174 30.2773H316.902C316.347 30.2773 315.857 30.1653 315.43 29.9413C315.014 29.7173 314.598 29.392 314.182 28.9653C313.777 28.5387 313.153 27.8133 312.31 26.7893L312.022 26.4373L313.542 25.1413L313.862 25.5573C314.427 26.2507 314.849 26.752 315.126 27.0613C315.414 27.3707 315.691 27.6 315.958 27.7493C316.235 27.8987 316.55 27.9733 316.902 27.9733H317.174V30.2773ZM310.342 19.3973L314.342 17.6533L314.63 18.4213L310.246 20.3253L310.342 19.3973ZM322.086 24.9173V27.2373C322.086 27.5147 322.155 27.7067 322.294 27.8133C322.443 27.92 322.683 27.9733 323.014 27.9733H323.878L323.974 29.1893L323.878 30.2773H323.014C322.566 30.2773 322.112 30.1707 321.654 29.9573C321.206 29.7333 320.827 29.3867 320.518 28.9173C320.208 28.448 320.054 27.8613 320.054 27.1573V24.9173H322.086ZM321.99 27.2693C321.99 27.888 321.84 28.4267 321.542 28.8853C321.243 29.3333 320.848 29.68 320.358 29.9253C319.878 30.16 319.371 30.2773 318.838 30.2773H317.014V27.9733H318.838C319.286 27.9733 319.6 27.9147 319.782 27.7973C319.963 27.6693 320.054 27.456 320.054 27.1573L321.99 27.2693ZM317.43 21.1413C317.707 21.1413 317.915 21.1413 318.054 21.1413C318.203 21.1413 318.422 21.1413 318.71 21.1413C318.912 21.1413 319.12 21.1413 319.334 21.1413C319.334 21.5787 319.334 21.8987 319.334 22.1013C319.334 22.304 319.334 22.6187 319.334 23.0453C318.896 23.0453 318.571 23.0453 318.358 23.0453C318.155 23.0453 317.846 23.0453 317.43 23.0453C317.43 22.608 317.43 22.288 317.43 22.0853C317.43 21.872 317.43 21.5573 317.43 21.1413ZM320.422 21.1413C320.859 21.1413 321.179 21.1413 321.382 21.1413C321.595 21.1413 321.915 21.1413 322.342 21.1413C322.342 21.5787 322.342 21.8987 322.342 22.1013C322.342 22.304 322.342 22.6187 322.342 23.0453C321.904 23.0453 321.579 23.0453 321.366 23.0453C321.163 23.0453 320.848 23.0453 320.422 23.0453C320.422 22.608 320.422 22.288 320.422 22.0853C320.422 21.872 320.422 21.5573 320.422 21.1413ZM323.717 27.9733H324.885C325.258 27.9733 325.525 27.8987 325.685 27.7493C325.856 27.5893 325.941 27.3387 325.941 26.9973V24.9173H327.973V27.0453C327.973 27.3547 328.058 27.5893 328.229 27.7493C328.41 27.8987 328.656 27.9733 328.965 27.9733C329.296 27.9733 329.552 27.888 329.733 27.7173C329.914 27.5467 330.005 27.296 330.005 26.9653V24.9173H332.037L332.021 27.0453C332.021 27.3547 332.106 27.5893 332.277 27.7493C332.448 27.8987 332.682 27.9733 332.981 27.9733C333.312 27.9733 333.573 27.888 333.765 27.7173C333.957 27.536 334.037 27.2907 334.005 26.9813C333.941 26.5333 333.872 26.1173 333.797 25.7333C333.733 25.3387 333.648 24.88 333.541 24.3573L335.461 23.8773C335.589 24.4107 335.706 24.992 335.813 25.6213C335.93 26.2507 335.994 26.768 336.005 27.1733C336.016 27.7067 335.914 28.208 335.701 28.6773C335.498 29.1467 335.168 29.5307 334.709 29.8293C334.25 30.128 333.674 30.2773 332.981 30.2773C332.565 30.2773 332.192 30.1973 331.861 30.0373C331.53 29.8773 331.242 29.6533 330.997 29.3653C330.752 29.6427 330.448 29.8667 330.085 30.0373C329.733 30.1973 329.338 30.2773 328.901 30.2773C328.538 30.2773 328.154 30.1867 327.749 30.0053C327.354 29.824 327.066 29.6107 326.885 29.3653C326.693 29.6427 326.41 29.8667 326.037 30.0373C325.674 30.1973 325.264 30.2773 324.805 30.2773H323.717V27.9733ZM342.381 22.8853C342.712 23.3867 343 23.8347 343.245 24.2293C343.501 24.6133 343.778 25.0453 344.077 25.5253C344.461 26.144 344.664 26.768 344.685 27.3973C344.706 28.0267 344.562 28.5653 344.253 29.0133C343.933 29.472 343.544 29.7973 343.085 29.9893C342.626 30.1813 342.072 30.2773 341.421 30.2773H340.573C339.901 30.2773 339.309 30.1707 338.797 29.9573C338.285 29.7333 337.885 29.4933 337.597 29.2373L338.557 27.3973L338.605 27.4453C338.85 27.5733 339.128 27.696 339.437 27.8133C339.757 27.92 340.141 27.9733 340.589 27.9733H341.373C341.725 27.9733 341.992 27.9467 342.173 27.8933C342.365 27.84 342.504 27.7547 342.589 27.6373C342.664 27.52 342.685 27.392 342.653 27.2533C342.621 27.104 342.53 26.912 342.381 26.6773C341.496 25.3333 340.68 24.1173 339.933 23.0293L341.645 21.7493L342.381 22.8853ZM356.371 26.5813C356.488 27.104 356.723 27.4667 357.075 27.6693C357.427 27.872 357.88 27.9733 358.435 27.9733H358.755L358.883 29.0933L358.755 30.2773H358.435C357.518 30.2773 356.675 30.0267 355.907 29.5253C355.15 29.0133 354.643 28.2133 354.387 27.1253C353.918 25.1733 353.448 23.2213 352.979 21.2693L354.963 20.7573L356.371 26.5813ZM355.811 24.7733C355.886 25.4667 355.886 26.0587 355.811 26.5493C355.747 27.0293 355.587 27.488 355.331 27.9253C355.022 28.4693 354.632 28.8907 354.163 29.1893C353.694 29.4773 353.187 29.6267 352.643 29.6373C352.099 29.648 351.56 29.4987 351.027 29.1893C350.483 28.8907 350.062 28.4693 349.763 27.9253C349.475 27.3707 349.331 26.784 349.331 26.1653C349.342 25.5467 349.496 24.992 349.795 24.5013C349.987 24.16 350.206 23.872 350.451 23.6373C350.707 23.4027 351.118 23.1413 351.683 22.8533C352.259 22.5547 353.102 22.1813 354.211 21.7333L354.979 23.8773C354.115 24.1867 353.454 24.448 352.995 24.6613C352.536 24.8747 352.206 25.056 352.003 25.2053C351.8 25.3547 351.651 25.5147 351.555 25.6853C351.384 25.9413 351.331 26.2187 351.395 26.5173C351.47 26.816 351.64 27.0507 351.907 27.2213C352.184 27.4027 352.488 27.472 352.819 27.4293C353.15 27.376 353.438 27.2107 353.683 26.9333C353.854 26.7413 353.96 26.5067 354.003 26.2293C354.046 25.952 354.024 25.5947 353.939 25.1573L355.811 24.7733ZM358.576 27.9733H360.128C360.555 27.9733 360.864 27.8933 361.056 27.7333C361.248 27.5627 361.333 27.3227 361.312 27.0133C361.291 26.736 361.237 26.3413 361.152 25.8293C361.067 25.3173 360.981 24.8267 360.896 24.3573L362.8 23.8773C362.939 24.4107 363.061 24.992 363.168 25.6213C363.275 26.2507 363.333 26.768 363.344 27.1733C363.355 27.696 363.243 28.1973 363.008 28.6773C362.784 29.1573 362.437 29.5467 361.968 29.8453C361.509 30.1333 360.949 30.2773 360.288 30.2773H358.576V27.9733ZM358.272 32.2133C358.635 32.2133 358.997 32.2133 359.36 32.2133C359.712 32.2133 360.059 32.2133 360.4 32.2133C360.4 32.6933 360.4 33.0453 360.4 33.2693C360.4 33.504 360.4 33.8453 360.4 34.2933C359.92 34.2933 359.563 34.2933 359.328 34.2933C359.093 34.2933 358.741 34.2933 358.272 34.2933C358.272 33.824 358.272 33.472 358.272 33.2373C358.272 33.0133 358.272 32.672 358.272 32.2133ZM372.438 34.3093C371.478 34.3093 370.656 34.096 369.974 33.6693C369.291 33.2427 368.774 32.6613 368.422 31.9253C368.07 31.2 367.894 30.3947 367.894 29.5093C367.894 28.9973 367.974 28.4373 368.134 27.8293C368.294 27.2213 368.491 26.6453 368.726 26.1013L370.518 26.8533C370.315 27.3013 370.155 27.76 370.038 28.2293C369.92 28.688 369.862 29.1147 369.862 29.5093C369.862 30.0533 369.942 30.5067 370.102 30.8693C370.272 31.2427 370.544 31.5253 370.918 31.7173C371.302 31.9093 371.808 32.0053 372.438 32.0053H373.238C373.92 32.0053 374.432 31.9467 374.774 31.8293C375.115 31.712 375.344 31.5093 375.462 31.2213C375.59 30.9333 375.654 30.5067 375.654 29.9413L375.67 19.3013H377.686L377.702 29.9413C377.702 31.2853 377.339 32.3467 376.614 33.1253C375.888 33.9147 374.763 34.3093 373.238 34.3093H372.438ZM382.82 30.2773C382.063 30.2773 381.439 30.128 380.948 29.8293C380.468 29.52 380.116 29.0987 379.892 28.5653C379.668 28.032 379.556 27.4027 379.556 26.6773V19.5893H381.588V26.6773C381.588 27.0827 381.609 27.3707 381.652 27.5413C381.705 27.712 381.812 27.8293 381.972 27.8933C382.143 27.9467 382.425 27.9733 382.82 27.9733H383.396L383.492 29.1573L383.396 30.2773H382.82ZM389.601 25.4933C390.177 24.64 390.742 24.016 391.297 23.6213C391.851 23.216 392.486 23.0133 393.201 23.0133C393.905 23.0133 394.502 23.1893 394.993 23.5413C395.483 23.8827 395.851 24.336 396.097 24.9013C396.353 25.4667 396.481 26.08 396.481 26.7413C396.481 27.392 396.331 27.9893 396.033 28.5333C395.745 29.0667 395.323 29.4933 394.769 29.8133C394.225 30.1227 393.59 30.2773 392.865 30.2773H388.625C388.123 30.2773 387.627 30.1493 387.137 29.8933C386.657 29.6267 386.257 29.264 385.937 28.8053C385.627 28.336 385.473 27.824 385.473 27.2693V24.9173H387.505V27.2693C387.505 27.5467 387.59 27.7333 387.761 27.8293C387.931 27.9253 388.155 27.9733 388.433 27.9733H392.865C393.387 27.9733 393.787 27.872 394.065 27.6693C394.342 27.4667 394.481 27.152 394.481 26.7253C394.481 26.3093 394.374 25.9733 394.161 25.7173C393.947 25.4507 393.611 25.3173 393.153 25.3173C392.907 25.3173 392.689 25.3653 392.497 25.4613C392.305 25.5467 392.118 25.6747 391.937 25.8453C391.766 26.016 391.569 26.2507 391.345 26.5493C390.726 27.3493 389.979 28.3413 389.105 29.5253L387.617 28.4533L389.601 25.4933ZM387.505 27.2693C387.505 27.7813 387.345 28.272 387.025 28.7413C386.705 29.2 386.289 29.5733 385.777 29.8613C385.265 30.1387 384.742 30.2773 384.209 30.2773H383.072V27.9733H384.241C384.667 27.9733 384.977 27.92 385.169 27.8133C385.371 27.7067 385.473 27.5253 385.473 27.2693H387.505ZM397.521 30.2773C397.105 30.2773 396.71 30.192 396.337 30.0213C395.963 29.8507 395.654 29.6427 395.409 29.3973C395.163 29.152 394.998 28.912 394.913 28.6773L395.953 27.2213C396.091 27.4773 396.289 27.6693 396.545 27.7973C396.801 27.9147 397.142 27.9733 397.569 27.9733H397.937L398.113 29.1573L397.937 30.2773H397.521ZM397.795 27.9733H399.571C400.051 27.9733 400.392 27.8933 400.595 27.7333C400.797 27.5627 400.888 27.3227 400.867 27.0133C400.845 26.7147 400.792 26.3147 400.707 25.8133C400.632 25.312 400.547 24.8267 400.451 24.3573L402.371 23.8773C402.499 24.4107 402.616 24.992 402.723 25.6213C402.84 26.2507 402.899 26.768 402.899 27.1733C402.909 27.7067 402.797 28.2133 402.563 28.6933C402.328 29.1627 401.971 29.5467 401.491 29.8453C401.021 30.1333 400.435 30.2773 399.731 30.2773H397.795V27.9733ZM398.243 20.1973C398.52 20.1973 398.728 20.1973 398.867 20.1973C399.016 20.1973 399.235 20.1973 399.523 20.1973C399.725 20.1973 399.933 20.1973 400.147 20.1973C400.147 20.6347 400.147 20.9547 400.147 21.1573C400.147 21.36 400.147 21.6747 400.147 22.1013C399.709 22.1013 399.384 22.1013 399.171 22.1013C398.968 22.1013 398.659 22.1013 398.243 22.1013C398.243 21.664 398.243 21.344 398.243 21.1413C398.243 20.928 398.243 20.6133 398.243 20.1973ZM401.235 20.1973C401.672 20.1973 401.992 20.1973 402.195 20.1973C402.408 20.1973 402.728 20.1973 403.155 20.1973C403.155 20.6347 403.155 20.9547 403.155 21.1573C403.155 21.36 403.155 21.6747 403.155 22.1013C402.717 22.1013 402.392 22.1013 402.179 22.1013C401.976 22.1013 401.661 22.1013 401.235 22.1013C401.235 21.664 401.235 21.344 401.235 21.1413C401.235 20.928 401.235 20.6133 401.235 20.1973ZM404.951 19.5893H406.983V30.2773H404.951V19.5893Z" fill="#263238"/>
<path d="M172.933 57.6513C172.662 58.2393 172.452 58.7993 172.303 59.3313C172.153 59.854 172.083 60.33 172.093 60.7593C172.111 61.3007 172.214 61.7767 172.401 62.1873C172.587 62.6073 172.863 62.9387 173.227 63.1813C173.6 63.424 174.057 63.5453 174.599 63.5453H176.111C176.689 63.5453 177.151 63.4847 177.497 63.3633C177.851 63.242 178.113 63.0507 178.281 62.7893C178.449 62.5373 178.542 62.2013 178.561 61.7813C178.57 61.6413 178.556 61.548 178.519 61.5013C178.491 61.464 178.402 61.4267 178.253 61.3893L175.285 60.5913C175.042 59.8633 174.986 59.182 175.117 58.5473C175.257 57.9033 175.527 57.3527 175.929 56.8953C176.265 56.5127 176.652 56.2187 177.091 56.0133C177.529 55.7987 177.987 55.6867 178.463 55.6773C178.705 55.668 178.962 55.682 179.233 55.7193C179.503 55.7473 179.746 55.7847 179.961 55.8313L179.709 57.0633C179.363 56.9607 178.957 56.9187 178.491 56.9373C178.136 56.9467 177.809 57.0213 177.511 57.1613C177.221 57.292 176.965 57.4833 176.741 57.7353C176.498 58.006 176.33 58.2813 176.237 58.5613C176.143 58.8413 176.12 59.1633 176.167 59.5273C176.363 59.574 176.792 59.6907 177.455 59.8773C177.679 59.9427 177.884 60.0033 178.071 60.0593C178.267 60.106 178.43 60.148 178.561 60.1853C178.831 60.26 179.046 60.372 179.205 60.5213C179.373 60.6707 179.494 60.8527 179.569 61.0673C179.643 61.282 179.671 61.5387 179.653 61.8373C179.634 62.4627 179.48 62.9947 179.191 63.4333C178.901 63.8813 178.495 64.222 177.973 64.4553C177.459 64.6887 176.839 64.8053 176.111 64.8053H174.599C173.871 64.8053 173.236 64.6187 172.695 64.2453C172.163 63.872 171.752 63.3773 171.463 62.7613C171.173 62.1547 171.019 61.4967 171.001 60.7873C170.991 60.246 171.071 59.658 171.239 59.0233C171.416 58.3793 171.645 57.7447 171.925 57.1193L172.933 57.6513ZM184.388 61.2773C183.753 61.2773 183.259 61.1607 182.904 60.9273C182.549 60.6847 182.297 60.3487 182.148 59.9193C182.008 59.49 181.938 58.958 181.938 58.3233L181.924 52.1913H183.016L183.03 58.3233C183.03 58.8273 183.058 59.1913 183.114 59.4153C183.179 59.6393 183.301 59.798 183.478 59.8913C183.665 59.9753 183.968 60.0173 184.388 60.0173H184.598L184.668 60.6613L184.598 61.2773H184.388ZM184.463 60.0173H186.703H186.787C187.459 60.008 187.949 59.952 188.257 59.8493C188.575 59.7373 188.785 59.5553 188.887 59.3033C188.99 59.042 189.041 58.6407 189.041 58.0993V56.6713C189.041 56.242 188.934 55.9107 188.719 55.6773C188.514 55.4347 188.206 55.3133 187.795 55.3133C187.413 55.3133 187.109 55.4393 186.885 55.6913C186.661 55.934 186.549 56.2607 186.549 56.6713C186.549 57.0447 186.652 57.3247 186.857 57.5113C187.063 57.698 187.375 57.7913 187.795 57.7913H189.615V59.0513H187.795C187.366 59.0513 186.974 58.9533 186.619 58.7573C186.265 58.552 185.98 58.272 185.765 57.9173C185.56 57.5533 185.457 57.138 185.457 56.6713C185.457 56.2047 185.565 55.7707 185.779 55.3693C185.994 54.968 186.279 54.6507 186.633 54.4173C186.997 54.1747 187.385 54.0533 187.795 54.0533C188.243 54.0533 188.645 54.1747 188.999 54.4173C189.354 54.6507 189.629 54.968 189.825 55.3693C190.031 55.7707 190.133 56.2047 190.133 56.6713V58.0993C190.133 58.8087 190.031 59.3967 189.825 59.8633C189.62 60.3207 189.265 60.6707 188.761 60.9133C188.267 61.156 187.581 61.2773 186.703 61.2773H184.463V60.0173ZM187.081 51.4213C187.315 51.4213 187.553 51.4213 187.795 51.4213C188.029 51.4213 188.257 51.4213 188.481 51.4213C188.481 51.7387 188.481 51.9767 188.481 52.1353C188.481 52.2847 188.481 52.5133 188.481 52.8213C188.164 52.8213 187.926 52.8213 187.767 52.8213C187.618 52.8213 187.389 52.8213 187.081 52.8213C187.081 52.504 187.081 52.2707 187.081 52.1213C187.081 51.9627 187.081 51.7293 187.081 51.4213ZM196.968 57.6513C196.697 58.2393 196.487 58.7993 196.338 59.3313C196.189 59.854 196.119 60.33 196.128 60.7593C196.147 61.3007 196.249 61.7767 196.436 62.1873C196.623 62.6073 196.898 62.9387 197.262 63.1813C197.635 63.424 198.093 63.5453 198.634 63.5453H200.146C200.725 63.5453 201.187 63.4847 201.532 63.3633C201.887 63.242 202.148 63.0507 202.316 62.7893C202.484 62.5373 202.577 62.2013 202.596 61.7813C202.605 61.6413 202.591 61.548 202.554 61.5013C202.526 61.464 202.437 61.4267 202.288 61.3893L199.32 60.5913C199.077 59.8633 199.021 59.182 199.152 58.5473C199.292 57.9033 199.563 57.3527 199.964 56.8953C200.3 56.5127 200.687 56.2187 201.126 56.0133C201.565 55.7987 202.022 55.6867 202.498 55.6773C202.741 55.668 202.997 55.682 203.268 55.7193C203.539 55.7473 203.781 55.7847 203.996 55.8313L203.744 57.0633C203.399 56.9607 202.993 56.9187 202.526 56.9373C202.171 56.9467 201.845 57.0213 201.546 57.1613C201.257 57.292 201 57.4833 200.776 57.7353C200.533 58.006 200.365 58.2813 200.272 58.5613C200.179 58.8413 200.155 59.1633 200.202 59.5273C200.398 59.574 200.827 59.6907 201.49 59.8773C201.714 59.9427 201.919 60.0033 202.106 60.0593C202.302 60.106 202.465 60.148 202.596 60.1853C202.867 60.26 203.081 60.372 203.24 60.5213C203.408 60.6707 203.529 60.8527 203.604 61.0673C203.679 61.282 203.707 61.5387 203.688 61.8373C203.669 62.4627 203.515 62.9947 203.226 63.4333C202.937 63.8813 202.531 64.222 202.008 64.4553C201.495 64.6887 200.874 64.8053 200.146 64.8053H198.634C197.906 64.8053 197.271 64.6187 196.73 64.2453C196.198 63.872 195.787 63.3773 195.498 62.7613C195.209 62.1547 195.055 61.4967 195.036 60.7873C195.027 60.246 195.106 59.658 195.274 59.0233C195.451 58.3793 195.68 57.7447 195.96 57.1193L196.968 57.6513ZM205.959 52.1913H207.051L207.065 61.2773H205.973L205.959 52.1913ZM210.429 63.5453C211.082 63.5453 211.586 63.466 211.941 63.3073C212.305 63.158 212.557 62.9247 212.697 62.6073C212.837 62.29 212.907 61.87 212.907 61.3473V58.6033C212.907 58.034 212.776 57.5907 212.515 57.2733C212.253 56.9467 211.866 56.7833 211.353 56.7833C210.877 56.7833 210.503 56.9513 210.233 57.2873C209.971 57.614 209.841 58.0527 209.841 58.6033C209.841 59.1167 209.962 59.4807 210.205 59.6953C210.447 59.9007 210.835 60.0033 211.367 60.0033H213.383V61.2633H211.367C210.583 61.2633 209.948 61.03 209.463 60.5633C208.987 60.0967 208.749 59.4433 208.749 58.6033C208.749 58.034 208.856 57.516 209.071 57.0493C209.295 56.5827 209.603 56.214 209.995 55.9433C210.396 55.6727 210.849 55.5373 211.353 55.5373C211.885 55.5373 212.351 55.668 212.753 55.9293C213.154 56.1813 213.462 56.5407 213.677 57.0073C213.891 57.474 213.999 58.006 213.999 58.6033V61.3473C213.999 62.038 213.877 62.64 213.635 63.1533C213.401 63.6667 213.019 64.068 212.487 64.3573C211.964 64.656 211.278 64.8053 210.429 64.8053H208.931V63.5453H210.429ZM224.353 58.5053C224.484 59.056 224.741 59.448 225.123 59.6813C225.515 59.9053 225.973 60.0173 226.495 60.0173H226.775L226.845 60.6473L226.775 61.2773H226.495C225.805 61.2773 225.151 61.0907 224.535 60.7173C223.919 60.3347 223.504 59.7 223.289 58.8133C222.916 57.236 222.543 55.6587 222.169 54.0813L223.233 53.8013L224.353 58.5053ZM223.947 56.8673C224.013 57.4553 224.017 57.9407 223.961 58.3233C223.915 58.706 223.793 59.0653 223.597 59.4013C223.355 59.8213 223.042 60.148 222.659 60.3813C222.277 60.6053 221.861 60.7173 221.413 60.7173C220.975 60.7173 220.55 60.596 220.139 60.3533C219.757 60.1293 219.453 59.8167 219.229 59.4153C219.005 59.0047 218.889 58.566 218.879 58.0993C218.879 57.6327 218.996 57.1987 219.229 56.7973C219.388 56.5173 219.575 56.284 219.789 56.0973C220.013 55.9013 220.359 55.6867 220.825 55.4533C221.301 55.2107 222.001 54.9027 222.925 54.5293L223.345 55.7053C222.636 55.9107 222.062 56.1207 221.623 56.3353C221.185 56.5407 220.858 56.732 220.643 56.9093C220.438 57.0867 220.284 57.264 220.181 57.4413C219.976 57.7867 219.92 58.132 220.013 58.4773C220.116 58.8133 220.331 59.084 220.657 59.2893C220.975 59.4853 221.334 59.5413 221.735 59.4573C222.146 59.364 222.477 59.1587 222.729 58.8413C222.888 58.6453 222.977 58.4213 222.995 58.1693C223.023 57.908 222.986 57.5113 222.883 56.9793L223.947 56.8673ZM233.207 52.8913L228.797 54.8373L230.841 57.4273C231.224 57.9127 231.424 58.4633 231.443 59.0793C231.462 59.686 231.28 60.204 230.897 60.6333C230.524 61.0627 229.978 61.2773 229.259 61.2773H226.641V60.0173H229.259C229.688 60.0173 230.006 59.938 230.211 59.7793C230.426 59.6207 230.514 59.4107 230.477 59.1493C230.449 58.8787 230.309 58.594 230.057 58.2953L227.607 55.3273L227.943 53.8573L232.759 51.7433L233.207 52.8913ZM234.327 60.6473L234.257 61.2773H233.991C233.478 61.2773 233.048 61.198 232.703 61.0393C232.367 60.8713 232.04 60.6193 231.723 60.2833C231.415 59.938 230.939 59.3547 230.295 58.5333L230.029 58.1833L230.841 57.4273L231.191 57.8753C231.723 58.5567 232.115 59.0373 232.367 59.3173C232.628 59.588 232.871 59.7747 233.095 59.8773C233.319 59.9707 233.618 60.0173 233.991 60.0173H234.257L234.327 60.6473ZM237.843 56.9653V58.9533C237.843 59.336 237.937 59.6113 238.123 59.7793C238.31 59.938 238.604 60.0173 239.005 60.0173H239.523L239.593 60.6613L239.523 61.2773H239.005C238.679 61.2773 238.338 61.1933 237.983 61.0253C237.638 60.848 237.344 60.5727 237.101 60.1993C236.868 59.826 236.751 59.3547 236.751 58.7853V56.9653H237.843ZM237.647 59.0233C237.647 59.5273 237.531 59.9473 237.297 60.2833C237.073 60.6193 236.784 60.8713 236.429 61.0393C236.075 61.198 235.711 61.2773 235.337 61.2773H234.119V60.0173H235.337C235.813 60.0173 236.168 59.9193 236.401 59.7233C236.635 59.5273 236.751 59.2147 236.751 58.7853L237.647 59.0233ZM234.315 63.4193C234.558 63.4193 234.796 63.4193 235.029 63.4193C235.263 63.4193 235.491 63.4193 235.715 63.4193C235.715 63.7367 235.715 63.97 235.715 64.1193C235.715 64.278 235.715 64.5113 235.715 64.8193C235.398 64.8193 235.16 64.8193 235.001 64.8193C234.852 64.8193 234.623 64.8193 234.315 64.8193C234.315 64.502 234.315 64.264 234.315 64.1053C234.315 63.956 234.315 63.7273 234.315 63.4193ZM239.383 60.0173H240.237C240.685 60.0173 241.002 59.9193 241.189 59.7233C241.385 59.5273 241.483 59.2147 241.483 58.7853V56.9653H242.575V58.9533C242.575 59.3267 242.664 59.5973 242.841 59.7653C243.028 59.924 243.312 60.008 243.695 60.0173C244.143 60.008 244.46 59.91 244.647 59.7233C244.843 59.5273 244.941 59.2147 244.941 58.7853V56.9653H246.033V58.9533C246.033 59.3267 246.122 59.5973 246.299 59.7653C246.486 59.924 246.77 60.008 247.153 60.0173C247.564 60.008 247.862 59.91 248.049 59.7233C248.236 59.5273 248.32 59.2707 248.301 58.9533C248.282 58.6827 248.226 58.3 248.133 57.8053C248.049 57.3107 247.96 56.8487 247.867 56.4193L248.931 56.1393C249.034 56.5687 249.132 57.0587 249.225 57.6093C249.318 58.1507 249.374 58.5893 249.393 58.9253C249.412 59.308 249.337 59.6813 249.169 60.0453C249.001 60.4093 248.744 60.708 248.399 60.9413C248.054 61.1653 247.638 61.2773 247.153 61.2773C246.854 61.2773 246.546 61.2073 246.229 61.0673C245.921 60.918 245.655 60.6893 245.431 60.3813C245.207 60.68 244.95 60.904 244.661 61.0533C244.372 61.2027 244.05 61.2773 243.695 61.2773C243.387 61.2773 243.074 61.198 242.757 61.0393C242.44 60.8713 242.178 60.652 241.973 60.3813C241.749 60.68 241.488 60.904 241.189 61.0533C240.89 61.2027 240.573 61.2773 240.237 61.2773H239.383V60.0173ZM244.871 51.9113C245.17 51.9113 245.394 51.9113 245.543 51.9113C245.692 51.9113 245.912 51.9113 246.201 51.9113C246.201 52.21 246.201 52.434 246.201 52.5833C246.201 52.7233 246.201 52.9427 246.201 53.2413C245.902 53.2413 245.678 53.2413 245.529 53.2413C245.389 53.2413 245.17 53.2413 244.871 53.2413C244.871 52.9427 244.871 52.7187 244.871 52.5693C244.871 52.42 244.871 52.2007 244.871 51.9113ZM243.541 53.7173C243.746 53.7173 243.9 53.7173 244.003 53.7173C244.115 53.7173 244.278 53.7173 244.493 53.7173C244.642 53.7173 244.792 53.7173 244.941 53.7173C244.941 54.0347 244.941 54.2727 244.941 54.4313C244.941 54.5807 244.941 54.8093 244.941 55.1173C244.624 55.1173 244.386 55.1173 244.227 55.1173C244.078 55.1173 243.849 55.1173 243.541 55.1173C243.541 54.8 243.541 54.5667 243.541 54.4173C243.541 54.2587 243.541 54.0253 243.541 53.7173ZM246.117 53.7173C246.434 53.7173 246.668 53.7173 246.817 53.7173C246.976 53.7173 247.209 53.7173 247.517 53.7173C247.517 54.0347 247.517 54.2727 247.517 54.4313C247.517 54.5807 247.517 54.8093 247.517 55.1173C247.2 55.1173 246.962 55.1173 246.803 55.1173C246.654 55.1173 246.425 55.1173 246.117 55.1173C246.117 54.8 246.117 54.5667 246.117 54.4173C246.117 54.2587 246.117 54.0253 246.117 53.7173ZM256.88 61.2773C256.339 61.2773 255.863 61.156 255.452 60.9133C255.041 60.6613 254.733 60.3253 254.528 59.9053C254.323 59.4853 254.248 59.0327 254.304 58.5473C254.351 58.118 254.505 57.362 254.766 56.2793L255.788 56.5453L255.732 56.7973C255.508 57.7493 255.382 58.3747 255.354 58.6733C255.307 59.084 255.415 59.4107 255.676 59.6533C255.937 59.896 256.339 60.0173 256.88 60.0173H262.928C263.385 60.0173 263.726 59.8913 263.95 59.6393C264.183 59.3873 264.3 59.084 264.3 58.7293C264.3 58.3187 264.155 57.4647 263.866 56.1673L264.93 55.8873C265.238 57.222 265.392 58.1693 265.392 58.7293C265.392 59.1213 265.294 59.518 265.098 59.9193C264.902 60.3113 264.617 60.638 264.244 60.8993C263.871 61.1513 263.432 61.2773 262.928 61.2773H256.88ZM257.93 55.2433C258.135 55.2433 258.289 55.2433 258.392 55.2433C258.504 55.2433 258.667 55.2433 258.882 55.2433C259.031 55.2433 259.181 55.2433 259.33 55.2433C259.33 55.5607 259.33 55.7987 259.33 55.9573C259.33 56.1067 259.33 56.3353 259.33 56.6433C259.013 56.6433 258.775 56.6433 258.616 56.6433C258.467 56.6433 258.238 56.6433 257.93 56.6433C257.93 56.326 257.93 56.0927 257.93 55.9433C257.93 55.7847 257.93 55.5513 257.93 55.2433ZM260.436 55.2433C260.753 55.2433 260.987 55.2433 261.136 55.2433C261.295 55.2433 261.528 55.2433 261.836 55.2433C261.836 55.5607 261.836 55.7987 261.836 55.9573C261.836 56.1067 261.836 56.3353 261.836 56.6433C261.519 56.6433 261.281 56.6433 261.122 56.6433C260.973 56.6433 260.744 56.6433 260.436 56.6433C260.436 56.326 260.436 56.0927 260.436 55.9433C260.436 55.7847 260.436 55.5513 260.436 55.2433ZM269.81 61.2773C269.175 61.2773 268.681 61.1607 268.326 60.9273C267.971 60.6847 267.719 60.3487 267.57 59.9193C267.43 59.49 267.36 58.958 267.36 58.3233L267.346 52.1913H268.438L268.452 58.3233C268.452 58.8273 268.48 59.1913 268.536 59.4153C268.601 59.6393 268.723 59.798 268.9 59.8913C269.087 59.9753 269.39 60.0173 269.81 60.0173H270.02L270.09 60.6613L270.02 61.2773H269.81ZM276.563 61.2773H269.885V60.0173H276.563V61.2773ZM275.261 61.0533C274.477 61.0533 273.796 60.9367 273.217 60.7033C272.638 60.4607 272.19 60.1293 271.873 59.7093C271.565 59.28 271.411 58.7993 271.411 58.2673C271.411 57.8007 271.523 57.376 271.747 56.9933C271.971 56.6013 272.274 56.2933 272.657 56.0693C273.04 55.836 273.455 55.7193 273.903 55.7193C274.323 55.7193 274.673 55.78 274.953 55.9013C275.233 56.0227 275.583 56.228 276.003 56.5173L276.297 56.7133L275.751 57.6093C275.676 57.5627 275.602 57.5207 275.527 57.4833C275.107 57.2593 274.794 57.11 274.589 57.0353C274.393 56.9513 274.164 56.9093 273.903 56.9093C273.52 56.9093 273.189 57.04 272.909 57.3013C272.638 57.5627 272.503 57.8847 272.503 58.2673C272.503 58.6033 272.596 58.902 272.783 59.1633C272.979 59.4247 273.282 59.6347 273.693 59.7933C274.104 59.9427 274.626 60.0173 275.261 60.0173V61.0533ZM285.278 61.2773C284.951 61.2773 284.624 61.1933 284.298 61.0253C283.971 60.848 283.696 60.5727 283.472 60.1993C283.248 59.826 283.136 59.3547 283.136 58.7853H284.116C284.116 59.1867 284.214 59.4947 284.41 59.7093C284.606 59.9147 284.895 60.0173 285.278 60.0173H285.796L285.866 60.6473L285.796 61.2773H285.278ZM277.97 60.0173H281.778C282.198 60.0173 282.51 59.9287 282.716 59.7513C282.93 59.5647 283.038 59.2427 283.038 58.7853V52.1913H284.116V58.7853C284.116 59.3547 283.994 59.826 283.752 60.1993C283.518 60.5727 283.229 60.848 282.884 61.0253C282.538 61.1933 282.202 61.2773 281.876 61.2773H277.97V60.0173ZM278.446 52.4293L279.538 52.3453L279.916 58.9113L278.824 58.9953L278.446 52.4293ZM285.662 60.0173H291.542C292.102 60.0173 292.536 59.8913 292.844 59.6393C293.162 59.378 293.32 59 293.32 58.5053C293.32 57.964 293.204 57.544 292.97 57.2453C292.737 56.9467 292.378 56.7973 291.892 56.7973C291.594 56.7973 291.342 56.8393 291.136 56.9233C290.931 57.0073 290.73 57.152 290.534 57.3573C290.338 57.5627 290.096 57.866 289.806 58.2673L288.028 60.7593L287.174 60.1993L288.91 57.5393C289.386 56.8207 289.844 56.3073 290.282 55.9993C290.73 55.6913 291.267 55.5373 291.892 55.5373C292.415 55.5373 292.863 55.6727 293.236 55.9433C293.619 56.214 293.908 56.578 294.104 57.0353C294.31 57.4833 294.412 57.9733 294.412 58.5053C294.412 59.0653 294.282 59.5553 294.02 59.9753C293.759 60.3953 293.409 60.7173 292.97 60.9413C292.532 61.1653 292.056 61.2773 291.542 61.2773H285.662V60.0173ZM287.636 52.1913H288.728L288.742 59.4433L287.65 60.0173L287.636 52.1913ZM296.371 52.1913H297.463L297.477 61.2773H296.385L296.371 52.1913ZM305.251 61.2773C304.71 61.2773 304.234 61.156 303.823 60.9133C303.412 60.6613 303.104 60.3253 302.899 59.9053C302.694 59.4853 302.619 59.0327 302.675 58.5473C302.722 58.118 302.876 57.362 303.137 56.2793L304.159 56.5453L304.103 56.7973C303.879 57.7493 303.753 58.3747 303.725 58.6733C303.678 59.084 303.786 59.4107 304.047 59.6533C304.308 59.896 304.71 60.0173 305.251 60.0173H311.299C311.775 60.0173 312.13 59.9193 312.363 59.7233C312.596 59.5273 312.713 59.2147 312.713 58.7853V56.9653H313.805V58.9533C313.805 59.336 313.898 59.6113 314.085 59.7793C314.272 59.938 314.566 60.0173 314.967 60.0173H315.485L315.555 60.6193L315.485 61.2773H314.967C314.668 61.2773 314.356 61.2027 314.029 61.0533C313.702 60.904 313.427 60.68 313.203 60.3813C312.979 60.6707 312.694 60.8947 312.349 61.0533C312.004 61.2027 311.654 61.2773 311.299 61.2773H305.251ZM306.539 55.2713C306.744 55.2713 306.898 55.2713 307.001 55.2713C307.113 55.2713 307.276 55.2713 307.491 55.2713C307.64 55.2713 307.79 55.2713 307.939 55.2713C307.939 55.5887 307.939 55.8267 307.939 55.9853C307.939 56.1347 307.939 56.3633 307.939 56.6713C307.622 56.6713 307.384 56.6713 307.225 56.6713C307.076 56.6713 306.847 56.6713 306.539 56.6713C306.539 56.354 306.539 56.1207 306.539 55.9713C306.539 55.8127 306.539 55.5793 306.539 55.2713ZM309.045 55.2713C309.362 55.2713 309.596 55.2713 309.745 55.2713C309.904 55.2713 310.137 55.2713 310.445 55.2713C310.445 55.5887 310.445 55.8267 310.445 55.9853C310.445 56.1347 310.445 56.3633 310.445 56.6713C310.128 56.6713 309.89 56.6713 309.731 56.6713C309.582 56.6713 309.353 56.6713 309.045 56.6713C309.045 56.354 309.045 56.1207 309.045 55.9713C309.045 55.8127 309.045 55.5793 309.045 55.2713ZM315.344 60.0173H317.584H317.668C318.34 60.008 318.83 59.952 319.138 59.8493C319.455 59.7373 319.665 59.5553 319.768 59.3033C319.871 59.042 319.922 58.6407 319.922 58.0993V56.6713C319.922 56.242 319.815 55.9107 319.6 55.6773C319.395 55.4347 319.087 55.3133 318.676 55.3133C318.293 55.3133 317.99 55.4393 317.766 55.6913C317.542 55.934 317.43 56.2607 317.43 56.6713C317.43 57.0447 317.533 57.3247 317.738 57.5113C317.943 57.698 318.256 57.7913 318.676 57.7913H320.496V59.0513H318.676C318.247 59.0513 317.855 58.9533 317.5 58.7573C317.145 58.552 316.861 58.272 316.646 57.9173C316.441 57.5533 316.338 57.138 316.338 56.6713C316.338 56.2047 316.445 55.7707 316.66 55.3693C316.875 54.968 317.159 54.6507 317.514 54.4173C317.878 54.1747 318.265 54.0533 318.676 54.0533C319.124 54.0533 319.525 54.1747 319.88 54.4173C320.235 54.6507 320.51 54.968 320.706 55.3693C320.911 55.7707 321.014 56.2047 321.014 56.6713V58.0993C321.014 58.8087 320.911 59.3967 320.706 59.8633C320.501 60.3207 320.146 60.6707 319.642 60.9133C319.147 61.156 318.461 61.2773 317.584 61.2773H315.344V60.0173ZM317.962 51.4213C318.195 51.4213 318.433 51.4213 318.676 51.4213C318.909 51.4213 319.138 51.4213 319.362 51.4213C319.362 51.7387 319.362 51.9767 319.362 52.1353C319.362 52.2847 319.362 52.5133 319.362 52.8213C319.045 52.8213 318.807 52.8213 318.648 52.8213C318.499 52.8213 318.27 52.8213 317.962 52.8213C317.962 52.504 317.962 52.2707 317.962 52.1213C317.962 51.9627 317.962 51.7293 317.962 51.4213ZM325.441 61.2773C324.806 61.2773 324.311 61.1607 323.957 60.9273C323.602 60.6847 323.35 60.3487 323.201 59.9193C323.061 59.49 322.991 58.958 322.991 58.3233L322.977 52.1913H324.069L324.083 58.3233C324.083 58.8273 324.111 59.1913 324.167 59.4153C324.232 59.6393 324.353 59.798 324.531 59.8913C324.717 59.9753 325.021 60.0173 325.441 60.0173H325.651L325.721 60.6613L325.651 61.2773H325.441ZM325.516 60.0173H327.406C327.947 60.0173 328.325 59.924 328.54 59.7373C328.764 59.5507 328.867 59.2893 328.848 58.9533C328.829 58.6827 328.773 58.3 328.68 57.8053C328.596 57.3107 328.507 56.8487 328.414 56.4193L329.478 56.1393C329.581 56.5687 329.679 57.0587 329.772 57.6093C329.865 58.1507 329.921 58.5893 329.94 58.9253C329.959 59.3267 329.875 59.7093 329.688 60.0733C329.511 60.428 329.226 60.7173 328.834 60.9413C328.451 61.1653 327.975 61.2773 327.406 61.2773H325.516V60.0173ZM324.97 63.4193C325.175 63.4193 325.334 63.4193 325.446 63.4193C325.549 63.4193 325.707 63.4193 325.922 63.4193C326.071 63.4193 326.221 63.4193 326.37 63.4193C326.37 63.7367 326.37 63.97 326.37 64.1193C326.37 64.278 326.37 64.5113 326.37 64.8193C326.053 64.8193 325.815 64.8193 325.656 64.8193C325.507 64.8193 325.278 64.8193 324.97 64.8193C324.97 64.502 324.97 64.264 324.97 64.1053C324.97 63.956 324.97 63.7273 324.97 63.4193ZM327.476 63.4193C327.793 63.4193 328.027 63.4193 328.176 63.4193C328.335 63.4193 328.568 63.4193 328.876 63.4193C328.876 63.7367 328.876 63.97 328.876 64.1193C328.876 64.278 328.876 64.5113 328.876 64.8193C328.559 64.8193 328.321 64.8193 328.162 64.8193C328.013 64.8193 327.784 64.8193 327.476 64.8193C327.476 64.502 327.476 64.264 327.476 64.1053C327.476 63.956 327.476 63.7273 327.476 63.4193ZM335.223 56.9653V60.9133C335.223 61.7533 335.078 62.4627 334.789 63.0413C334.509 63.62 334.093 64.0587 333.543 64.3573C332.992 64.656 332.32 64.8053 331.527 64.8053H330.645V63.5453H331.527C332.152 63.5453 332.651 63.4567 333.025 63.2793C333.407 63.102 333.687 62.822 333.865 62.4393C334.042 62.0567 334.131 61.548 334.131 60.9133V56.9653H335.223ZM340.278 55.3973C340.614 55.92 340.861 56.312 341.02 56.5733C341.188 56.8253 341.435 57.2033 341.762 57.7073C342.023 58.1087 342.168 58.5567 342.196 59.0513C342.233 59.546 342.14 59.952 341.916 60.2693C341.645 60.652 341.318 60.918 340.936 61.0673C340.553 61.2073 340.133 61.2773 339.676 61.2773H338.92C338.416 61.2773 337.958 61.2073 337.548 61.0673C337.146 60.918 336.815 60.75 336.554 60.5633L337.128 59.4993L337.198 59.5413C337.412 59.672 337.65 59.784 337.912 59.8773C338.173 59.9707 338.509 60.0173 338.92 60.0173H339.676C340.012 60.0173 340.287 59.9847 340.502 59.9193C340.726 59.8447 340.898 59.7187 341.02 59.5413C341.122 59.4013 341.16 59.2427 341.132 59.0653C341.104 58.8787 341.006 58.65 340.838 58.3793C339.96 56.998 339.251 55.906 338.71 55.1033L339.634 54.4033L340.278 55.3973ZM348.284 57.3013C348.051 57.3013 347.85 57.222 347.682 57.0633C347.524 56.8953 347.444 56.6947 347.444 56.4613C347.444 56.228 347.524 56.032 347.682 55.8733C347.85 55.7053 348.051 55.6213 348.284 55.6213C348.518 55.6213 348.714 55.7053 348.872 55.8733C349.04 56.032 349.124 56.228 349.124 56.4613C349.124 56.6947 349.04 56.8953 348.872 57.0633C348.714 57.222 348.518 57.3013 348.284 57.3013ZM348.284 61.3193C348.051 61.3193 347.85 61.24 347.682 61.0813C347.524 60.9133 347.444 60.7127 347.444 60.4793C347.444 60.246 347.524 60.05 347.682 59.8913C347.85 59.7233 348.051 59.6393 348.284 59.6393C348.518 59.6393 348.714 59.7233 348.872 59.8913C349.04 60.05 349.124 60.246 349.124 60.4793C349.124 60.7127 349.04 60.9133 348.872 61.0813C348.714 61.24 348.518 61.3193 348.284 61.3193ZM354.662 54.3753C354.765 54.618 355.087 55.3227 355.628 56.4893C355.796 56.8533 355.964 57.222 356.132 57.5953C356.356 58.062 356.492 58.524 356.538 58.9813C356.594 59.4293 356.487 59.8447 356.216 60.2273C355.936 60.6287 355.596 60.904 355.194 61.0533C354.802 61.2027 354.378 61.2773 353.92 61.2773H353.206C352.702 61.2773 352.254 61.2027 351.862 61.0533C351.47 60.8947 351.134 60.7173 350.854 60.5213L351.428 59.4573L351.498 59.4993C351.741 59.6393 351.993 59.7607 352.254 59.8633C352.516 59.966 352.833 60.0173 353.206 60.0173H353.92C354.256 60.0173 354.541 59.98 354.774 59.9053C355.008 59.8213 355.19 59.686 355.32 59.4993C355.442 59.3313 355.484 59.154 355.446 58.9673C355.418 58.7713 355.32 58.4913 355.152 58.1273L354.2 56.0833C353.986 55.6447 353.804 55.2527 353.654 54.9073L354.662 54.3753ZM356.146 57.6093C356.417 58.216 356.65 58.6873 356.846 59.0233C357.052 59.3593 357.266 59.6113 357.49 59.7793C357.714 59.938 357.976 60.0173 358.274 60.0173H358.498L358.568 60.6893L358.498 61.2773H358.274C357.798 61.2773 357.378 61.1513 357.014 60.8993C356.65 60.638 356.324 60.2833 356.034 59.8353C355.754 59.3873 355.456 58.8133 355.138 58.1133L356.146 57.6093ZM358.356 60.0173H359C359.644 60.0173 360.176 59.994 360.596 59.9473C361.025 59.8913 361.389 59.8073 361.688 59.6953L360.68 58.3513C360.25 57.7727 359.914 57.3293 359.672 57.0213L360.568 55.6073H364.138C364.614 55.6073 365.001 55.78 365.3 56.1253C365.598 56.4707 365.738 56.8767 365.72 57.3433C365.701 57.8007 365.51 58.1927 365.146 58.5193L364.558 59.0513C364.259 59.3127 363.96 59.5787 363.662 59.8493C363.82 59.9147 363.988 59.9613 364.166 59.9893C364.352 60.008 364.581 60.0173 364.852 60.0173H366.574L366.672 60.6753L366.574 61.2773H364.852C364.348 61.2773 363.914 61.2213 363.55 61.1093C363.186 60.9973 362.859 60.834 362.57 60.6193C362.178 60.8433 361.702 61.0113 361.142 61.1233C360.591 61.226 359.877 61.2773 359 61.2773H358.356V60.0173ZM362.71 59.1913C362.906 59.014 363.19 58.7387 363.564 58.3653C363.853 58.076 364.138 57.8053 364.418 57.5533C364.539 57.4413 364.609 57.3247 364.628 57.2033C364.646 57.0727 364.604 56.97 364.502 56.8953C364.399 56.8113 364.25 56.7693 364.054 56.7693H360.82C361.025 57.012 361.342 57.4133 361.772 57.9733C362.098 58.4213 362.411 58.8273 362.71 59.1913ZM366.436 60.0173H367.976C368.405 60.0173 368.713 59.924 368.9 59.7373C369.096 59.5413 369.185 59.28 369.166 58.9533C369.147 58.6827 369.091 58.3 368.998 57.8053C368.914 57.3107 368.825 56.8487 368.732 56.4193L369.796 56.1393C369.899 56.5687 369.997 57.0587 370.09 57.6093C370.183 58.1507 370.239 58.5893 370.258 58.9253C370.277 59.3173 370.197 59.6953 370.02 60.0593C369.852 60.4233 369.591 60.7173 369.236 60.9413C368.891 61.1653 368.471 61.2773 367.976 61.2773H366.436V60.0173ZM366.786 63.4053C367.029 63.4053 367.267 63.4053 367.5 63.4053C367.733 63.4053 367.962 63.4053 368.186 63.4053C368.186 63.7227 368.186 63.956 368.186 64.1053C368.186 64.264 368.186 64.4973 368.186 64.8053C367.869 64.8053 367.631 64.8053 367.472 64.8053C367.323 64.8053 367.094 64.8053 366.786 64.8053C366.786 64.488 366.786 64.25 366.786 64.0913C366.786 63.942 366.786 63.7133 366.786 63.4053ZM380.609 58.5053C380.74 59.056 380.997 59.448 381.379 59.6813C381.771 59.9053 382.229 60.0173 382.751 60.0173H383.031L383.101 60.6473L383.031 61.2773H382.751C382.061 61.2773 381.407 61.0907 380.791 60.7173C380.175 60.3347 379.76 59.7 379.545 58.8133C379.172 57.236 378.799 55.6587 378.425 54.0813L379.489 53.8013L380.609 58.5053ZM380.203 56.8673C380.269 57.4553 380.273 57.9407 380.217 58.3233C380.171 58.706 380.049 59.0653 379.853 59.4013C379.611 59.8213 379.298 60.148 378.915 60.3813C378.533 60.6053 378.117 60.7173 377.669 60.7173C377.231 60.7173 376.806 60.596 376.395 60.3533C376.013 60.1293 375.709 59.8167 375.485 59.4153C375.261 59.0047 375.145 58.566 375.135 58.0993C375.135 57.6327 375.252 57.1987 375.485 56.7973C375.644 56.5173 375.831 56.284 376.045 56.0973C376.269 55.9013 376.615 55.6867 377.081 55.4533C377.557 55.2107 378.257 54.9027 379.181 54.5293L379.601 55.7053C378.892 55.9107 378.318 56.1207 377.879 56.3353C377.441 56.5407 377.114 56.732 376.899 56.9093C376.694 57.0867 376.54 57.264 376.437 57.4413C376.232 57.7867 376.176 58.132 376.269 58.4773C376.372 58.8133 376.587 59.084 376.913 59.2893C377.231 59.4853 377.59 59.5413 377.991 59.4573C378.402 59.364 378.733 59.1587 378.985 58.8413C379.144 58.6453 379.233 58.4213 379.251 58.1693C379.279 57.908 379.242 57.5113 379.139 56.9793L380.203 56.8673ZM382.897 60.0173H383.457C383.877 60.0173 384.189 59.9287 384.395 59.7513C384.609 59.5647 384.717 59.2427 384.717 58.7853V52.1913H385.795V58.7853C385.795 59.3547 385.673 59.826 385.431 60.1993C385.197 60.5727 384.908 60.848 384.563 61.0253C384.217 61.1933 383.881 61.2773 383.555 61.2773H382.897V60.0173ZM386.957 61.2773C386.63 61.2773 386.303 61.1933 385.977 61.0253C385.65 60.848 385.375 60.5727 385.151 60.1993C384.927 59.826 384.815 59.3547 384.815 58.7853L385.795 58.9533C385.795 59.336 385.888 59.6113 386.075 59.7793C386.261 59.938 386.555 60.0173 386.957 60.0173H387.475L387.545 60.6613L387.475 61.2773H386.957ZM387.284 60.0173H389.02C389.645 60.0173 390.229 59.9427 390.77 59.7933C391.311 59.6347 391.811 59.4387 392.268 59.2053C392.725 58.9627 393.299 58.6313 393.99 58.2113L394.452 57.9313L394.424 58.2393L393.556 57.8753C392.707 57.5207 392.025 57.2547 391.512 57.0773C391.008 56.8907 390.653 56.7973 390.448 56.7973C390.168 56.7973 389.949 56.8627 389.79 56.9933C389.641 57.1147 389.496 57.3667 389.356 57.7493L388.292 57.4133C388.516 56.7507 388.815 56.2747 389.188 55.9853C389.561 55.6867 389.981 55.5373 390.448 55.5373C390.765 55.5373 391.251 55.6587 391.904 55.9013C392.567 56.144 393.486 56.5127 394.662 57.0073C394.895 57.1007 395.124 57.194 395.348 57.2873L395.628 58.6173L394.886 59.0793C394.074 59.5927 393.402 59.994 392.87 60.2833C392.338 60.5727 391.75 60.8107 391.106 60.9973C390.471 61.184 389.776 61.2773 389.02 61.2773H387.284V60.0173ZM399.221 56.9653V60.9133C399.221 61.7533 399.076 62.4627 398.787 63.0413C398.507 63.62 398.091 64.0587 397.541 64.3573C396.99 64.656 396.318 64.8053 395.525 64.8053H394.643V63.5453H395.525C396.15 63.5453 396.649 63.4567 397.023 63.2793C397.405 63.102 397.685 62.822 397.863 62.4393C398.04 62.0567 398.129 61.548 398.129 60.9133V56.9653H399.221ZM399.221 58.9533C399.221 59.336 399.314 59.6113 399.501 59.7793C399.687 59.938 399.981 60.0173 400.383 60.0173H400.523L400.607 60.6613L400.523 61.2773H400.383C400.056 61.2773 399.757 61.2073 399.487 61.0673C399.216 60.9273 398.992 60.6847 398.815 60.3393C398.647 59.994 398.563 59.532 398.563 58.9533H399.221ZM400.383 60.0173H400.775C400.999 60.0173 401.176 59.9707 401.307 59.8773C401.447 59.7747 401.54 59.6253 401.587 59.4293L402.035 57.8193C402.24 57.0913 402.558 56.522 402.987 56.1113C403.416 55.6913 403.934 55.4813 404.541 55.4813C405.026 55.4813 405.456 55.626 405.829 55.9153C406.202 56.1953 406.492 56.578 406.697 57.0633C406.902 57.5393 407.005 58.0573 407.005 58.6173C407.005 59.308 406.907 59.8773 406.711 60.3253C406.515 60.764 406.258 61.0813 405.941 61.2773C405.633 61.4827 405.306 61.5853 404.961 61.5853C404.597 61.5853 404.228 61.5107 403.855 61.3613C403.482 61.212 402.894 60.932 402.091 60.5213L401.727 60.3393L402.231 59.2193C402.343 59.2753 402.45 59.3313 402.553 59.3873C403.309 59.77 403.832 60.022 404.121 60.1433C404.42 60.2647 404.7 60.3253 404.961 60.3253C405.278 60.3253 405.516 60.2087 405.675 59.9753C405.834 59.7327 405.913 59.28 405.913 58.6173C405.913 58.0293 405.796 57.572 405.563 57.2453C405.33 56.9093 404.989 56.7413 404.541 56.7413C404.205 56.7413 403.911 56.858 403.659 57.0913C403.416 57.3247 403.23 57.6793 403.099 58.1553L402.651 59.7653C402.567 60.064 402.427 60.33 402.231 60.5633C402.044 60.7873 401.82 60.9647 401.559 61.0953C401.307 61.2167 401.046 61.2773 400.775 61.2773H400.383V60.0173Z" fill="#98AFBA"/>
<defs>
<linearGradient id="paint0_linear_2113_19884" x1="70" y1="35.2773" x2="0" y2="35.2773" gradientUnits="userSpaceOnUse">
<stop stop-color="#007DC0"/>
<stop offset="1" stop-color="#00B8E7"/>
</linearGradient>
<clipPath id="clip0_2113_19884">
<rect width="70" height="70" fill="white" transform="translate(0 0.277344)"/>
</clipPath>
</defs>
</svg>
