<svg width="408" height="71" viewBox="0 0 408 71" fill="none" xmlns="http://www.w3.org/2000/svg">
<g clip-path="url(#clip0_2113_19981)">
<rect x="3.73333" y="4.01068" width="62.5333" height="62.5333" rx="31.2667" stroke="#98AFBA" stroke-opacity="0.25" stroke-width="7.46667"/>
<path d="M23.9167 28.272C24.1954 28.9689 24.4095 29.7006 24.5588 30.4672C24.7081 31.2238 24.8027 31.9556 24.8425 32.6624C24.8824 33.3693 24.9023 34.1309 24.9023 34.9472V35.44L24.8724 38.2773H23.4687L23.4985 35.44V35.0816C23.4985 34.2553 23.4786 33.5186 23.4388 32.8715C23.4089 32.2144 23.3293 31.5424 23.1999 30.8555C23.0705 30.1685 22.8713 29.5065 22.6025 28.8693L23.9167 28.272ZM28.0084 28.6453L28.2473 30.3029C28.327 30.9003 28.2623 31.4329 28.0532 31.9008C27.8441 32.3687 27.5405 32.7321 27.1423 32.9909C26.754 33.2498 26.3458 33.3792 25.9177 33.3792C25.3204 33.3792 24.8077 33.1851 24.3796 32.7968C23.9515 32.4085 23.623 31.7963 23.394 30.96L24.5887 30.5867C24.6584 31.0446 24.7977 31.3582 25.0068 31.5275C25.2258 31.6868 25.5195 31.7664 25.8879 31.7664C26.087 31.7664 26.2662 31.7266 26.4255 31.6469C26.5848 31.5573 26.6993 31.418 26.7689 31.2288C26.8486 31.0297 26.8735 30.7858 26.8436 30.4971L26.6047 28.8693L28.0084 28.6453ZM31.2788 28.4363L31.5177 30.3029C31.5974 30.9501 31.5426 31.5076 31.3535 31.9755C31.1643 32.4434 30.8856 32.7968 30.5172 33.0357C30.1489 33.2647 29.7407 33.3792 29.2927 33.3792C28.7053 33.3792 28.2075 33.1502 27.7993 32.6923C27.3912 32.2343 27.1323 31.5076 27.0228 30.512L28.2473 30.3179C28.317 30.8754 28.4315 31.2587 28.5908 31.4677C28.7601 31.6669 28.989 31.7664 29.2777 31.7664C29.6162 31.7664 29.8552 31.6718 29.9945 31.4827C30.1339 31.2836 30.1737 30.955 30.114 30.4971L29.8751 28.6304L31.2788 28.4363Z" fill="#263238"/>
<path d="M36.3036 27.6597H37.6774L33.4065 39.1883H32.0326L36.3036 27.6597Z" fill="#263238"/>
<path d="M39.9167 28.272C40.1954 28.9689 40.4095 29.7006 40.5588 30.4672C40.7081 31.2238 40.8027 31.9556 40.8425 32.6624C40.8824 33.3693 40.9023 34.1309 40.9023 34.9472V35.44L40.8724 38.2773H39.4687L39.4985 35.44V35.0816C39.4985 34.2553 39.4786 33.5186 39.4388 32.8715C39.4089 32.2144 39.3293 31.5424 39.1999 30.8555C39.0705 30.1685 38.8713 29.5065 38.6025 28.8693L39.9167 28.272ZM44.0084 28.6453L44.2473 30.3029C44.327 30.9003 44.2623 31.4329 44.0532 31.9008C43.8441 32.3687 43.5405 32.7321 43.1423 32.9909C42.754 33.2498 42.3458 33.3792 41.9177 33.3792C41.3204 33.3792 40.8077 33.1851 40.3796 32.7968C39.9515 32.4085 39.623 31.7963 39.394 30.96L40.5887 30.5867C40.6584 31.0446 40.7977 31.3582 41.0068 31.5275C41.2258 31.6868 41.5195 31.7664 41.8879 31.7664C42.087 31.7664 42.2662 31.7266 42.4255 31.6469C42.5848 31.5573 42.6993 31.418 42.7689 31.2288C42.8486 31.0297 42.8735 30.7858 42.8436 30.4971L42.6047 28.8693L44.0084 28.6453ZM47.2788 28.4363L47.5177 30.3029C47.5974 30.9501 47.5426 31.5076 47.3535 31.9755C47.1643 32.4434 46.8856 32.7968 46.5172 33.0357C46.1489 33.2647 45.7407 33.3792 45.2927 33.3792C44.7053 33.3792 44.2075 33.1502 43.7993 32.6923C43.3912 32.2343 43.1323 31.5076 43.0228 30.512L44.2473 30.3179C44.317 30.8754 44.4315 31.2587 44.5908 31.4677C44.7601 31.6669 44.989 31.7664 45.2777 31.7664C45.6162 31.7664 45.8552 31.6718 45.9945 31.4827C46.1339 31.2836 46.1737 30.955 46.114 30.4971L45.8751 28.6304L47.2788 28.4363Z" fill="#263238"/>
<mask id="path-6-inside-1_2113_19981" fill="white">
<path d="M0 35.2773C0 54.6073 15.67 70.2773 35 70.2773C54.33 70.2773 70 54.6073 70 35.2773C70 15.9474 54.33 0.277344 35 0.277344C15.67 0.277344 0 15.9474 0 35.2773ZM62.5701 35.2773C62.5701 50.5039 50.2265 62.8474 35 62.8474C19.7735 62.8474 7.4299 50.5039 7.4299 35.2773C7.4299 20.0508 19.7735 7.70724 35 7.70724C50.2265 7.70724 62.5701 20.0508 62.5701 35.2773Z"/>
</mask>
<path d="M0 35.2773C0 54.6073 15.67 70.2773 35 70.2773C54.33 70.2773 70 54.6073 70 35.2773C70 15.9474 54.33 0.277344 35 0.277344C15.67 0.277344 0 15.9474 0 35.2773ZM62.5701 35.2773C62.5701 50.5039 50.2265 62.8474 35 62.8474C19.7735 62.8474 7.4299 50.5039 7.4299 35.2773C7.4299 20.0508 19.7735 7.70724 35 7.70724C50.2265 7.70724 62.5701 20.0508 62.5701 35.2773Z" stroke="url(#paint0_linear_2113_19981)" stroke-width="14.9333" mask="url(#path-6-inside-1_2113_19981)"/>
</g>
<path d="M328.26 21.7813C328.377 22.0373 328.702 22.736 329.236 23.8773C329.481 24.4 329.721 24.928 329.956 25.4613C330.233 26.0907 330.393 26.704 330.436 27.3013C330.489 27.888 330.345 28.4213 330.004 28.9013C329.641 29.4133 329.209 29.7707 328.708 29.9733C328.206 30.176 327.657 30.2773 327.06 30.2773H326.244C325.593 30.2773 325.017 30.1653 324.516 29.9413C324.014 29.7173 323.614 29.4773 323.316 29.2213L324.276 27.3813L324.324 27.4133C324.569 27.5627 324.846 27.696 325.156 27.8133C325.476 27.92 325.838 27.9733 326.244 27.9733H327.06C327.412 27.9733 327.684 27.952 327.876 27.9093C328.078 27.856 328.222 27.7653 328.308 27.6373C328.404 27.5093 328.436 27.3707 328.404 27.2213C328.372 27.0613 328.27 26.7947 328.1 26.4213L326.98 23.9893C326.777 23.552 326.585 23.136 326.404 22.7413L328.26 21.7813ZM329.956 25.4773C330.254 26.1387 330.505 26.6453 330.708 26.9973C330.91 27.3387 331.118 27.5893 331.332 27.7493C331.545 27.8987 331.801 27.9733 332.1 27.9733H332.372L332.484 29.1573L332.372 30.2773H332.1C331.502 30.2773 330.974 30.128 330.516 29.8293C330.057 29.5307 329.636 29.1093 329.252 28.5653C328.878 28.0107 328.5 27.3013 328.116 26.4373L329.956 25.4773ZM336.841 24.9173V27.2373C336.841 27.5147 336.911 27.7067 337.049 27.8133C337.199 27.92 337.439 27.9733 337.769 27.9733H338.249L338.345 29.2053L338.249 30.2773H337.769C337.321 30.2773 336.868 30.1707 336.409 29.9573C335.961 29.7333 335.583 29.3867 335.273 28.9173C334.964 28.448 334.809 27.8613 334.809 27.1573V24.9173H336.841ZM336.745 27.2693C336.745 27.888 336.596 28.4267 336.297 28.8853C335.999 29.3333 335.604 29.68 335.113 29.9253C334.633 30.16 334.132 30.2773 333.609 30.2773H332.201V27.9733H333.609C334.047 27.9733 334.356 27.9147 334.537 27.7973C334.719 27.6693 334.809 27.456 334.809 27.1573L336.745 27.2693ZM334.121 20.9493C334.484 20.9493 334.847 20.9493 335.209 20.9493C335.561 20.9493 335.908 20.9493 336.249 20.9493C336.249 21.4187 336.249 21.7707 336.249 22.0053C336.249 22.2293 336.249 22.5707 336.249 23.0293C335.769 23.0293 335.412 23.0293 335.177 23.0293C334.943 23.0293 334.591 23.0293 334.121 23.0293C334.121 22.5493 334.121 22.1973 334.121 21.9733C334.121 21.7387 334.121 21.3973 334.121 20.9493ZM338.076 27.9733H339.852C340.332 27.9733 340.673 27.8933 340.876 27.7333C341.079 27.5627 341.169 27.3227 341.148 27.0133C341.127 26.7147 341.073 26.3147 340.988 25.8133C340.913 25.312 340.828 24.8267 340.732 24.3573L342.652 23.8773C342.78 24.4107 342.897 24.992 343.004 25.6213C343.121 26.2507 343.18 26.768 343.18 27.1733C343.191 27.7067 343.079 28.2133 342.844 28.6933C342.609 29.1627 342.252 29.5467 341.772 29.8453C341.303 30.1333 340.716 30.2773 340.012 30.2773H338.076V27.9733ZM337.18 32.2453C337.457 32.2453 337.671 32.2453 337.82 32.2453C337.959 32.2453 338.172 32.2453 338.46 32.2453C338.663 32.2453 338.871 32.2453 339.084 32.2453C339.084 32.6827 339.084 33.0027 339.084 33.2053C339.084 33.408 339.084 33.7227 339.084 34.1493C338.647 34.1493 338.327 34.1493 338.124 34.1493C337.911 34.1493 337.596 34.1493 337.18 34.1493C337.18 33.712 337.18 33.3867 337.18 33.1733C337.18 32.9707 337.18 32.6613 337.18 32.2453ZM340.172 32.2453C340.609 32.2453 340.929 32.2453 341.132 32.2453C341.345 32.2453 341.665 32.2453 342.092 32.2453C342.092 32.6827 342.092 33.0027 342.092 33.2053C342.092 33.408 342.092 33.7227 342.092 34.1493C341.655 34.1493 341.329 34.1493 341.116 34.1493C340.913 34.1493 340.599 34.1493 340.172 34.1493C340.172 33.712 340.172 33.3867 340.172 33.1733C340.172 32.9707 340.172 32.6613 340.172 32.2453ZM345.312 21.2853H347.392V30.2773H345.312V21.2853ZM342.816 20.6773C343.04 19.9733 343.366 19.4507 343.792 19.1093C344.208 18.768 344.8 18.5973 345.568 18.5973H348.848V20.2293H345.568C345.195 20.2293 344.907 20.304 344.704 20.4533C344.512 20.6027 344.358 20.832 344.24 21.1413L342.816 20.6773ZM354.038 24.9173V29.4293C354.038 30.4427 353.857 31.3173 353.494 32.0533C353.142 32.7893 352.62 33.3493 351.926 33.7333C351.244 34.1173 350.406 34.3093 349.414 34.3093H348.406V32.0053H349.414C350.086 32.0053 350.604 31.9253 350.966 31.7653C351.34 31.616 351.601 31.3547 351.75 30.9813C351.91 30.6187 351.99 30.1013 351.99 29.4293V24.9173H354.038ZM354.038 27.2373C354.038 27.5147 354.108 27.7067 354.246 27.8133C354.396 27.92 354.63 27.9733 354.95 27.9733H355.254L355.35 29.1413L355.254 30.2773H354.95C354.662 30.2773 354.396 30.2187 354.15 30.1013C353.916 29.984 353.718 29.7973 353.558 29.5413C353.409 29.2747 353.313 28.9333 353.27 28.5173L354.038 27.2373ZM355.107 27.9733H357.732H357.828C358.542 27.9733 359.054 27.9307 359.364 27.8453C359.673 27.7493 359.876 27.5893 359.972 27.3653C360.078 27.1307 360.132 26.7467 360.132 26.2133V24.3253C360.132 23.952 360.036 23.6533 359.844 23.4293C359.662 23.1947 359.38 23.0773 358.996 23.0773C358.622 23.0773 358.34 23.1947 358.148 23.4293C357.956 23.664 357.86 23.9627 357.86 24.3253C357.86 24.592 357.94 24.8107 358.1 24.9813C358.26 25.1413 358.526 25.264 358.9 25.3493L361.028 25.8933L360.74 27.8453L358.692 27.5093C358.084 27.392 357.577 27.216 357.172 26.9813C356.766 26.736 356.457 26.4 356.243 25.9733C356.03 25.536 355.924 24.992 355.924 24.3413C355.924 23.6693 356.057 23.0773 356.324 22.5653C356.601 22.0533 356.969 21.6587 357.428 21.3813C357.897 21.0933 358.414 20.9493 358.98 20.9493C359.588 20.9493 360.121 21.0933 360.58 21.3813C361.038 21.6587 361.396 22.0533 361.652 22.5653C361.918 23.0667 362.052 23.6587 362.052 24.3413V25.6053C362.052 26.512 361.918 27.312 361.652 28.0053C361.385 28.6987 360.932 29.2533 360.292 29.6693C359.652 30.0747 358.798 30.2773 357.732 30.2773H355.107V27.9733ZM357.94 17.9573C358.302 17.9573 358.665 17.9573 359.028 17.9573C359.369 17.9573 359.716 17.9573 360.068 17.9573C360.068 18.4267 360.068 18.7787 360.068 19.0133C360.068 19.2373 360.068 19.5787 360.068 20.0373C359.577 20.0373 359.214 20.0373 358.98 20.0373C358.756 20.0373 358.409 20.0373 357.94 20.0373C357.94 19.568 357.94 19.2213 357.94 18.9973C357.94 18.7627 357.94 18.416 357.94 17.9573ZM371.235 34.3093C370.275 34.3093 369.453 34.096 368.771 33.6693C368.088 33.2427 367.571 32.6613 367.219 31.9253C366.867 31.2 366.691 30.3947 366.691 29.5093C366.691 28.9973 366.771 28.4373 366.931 27.8293C367.091 27.2213 367.288 26.6453 367.523 26.1013L369.315 26.8533C369.112 27.3013 368.952 27.76 368.835 28.2293C368.717 28.688 368.659 29.1147 368.659 29.5093C368.659 30.0533 368.739 30.5067 368.899 30.8693C369.069 31.2427 369.341 31.5253 369.715 31.7173C370.099 31.9093 370.605 32.0053 371.235 32.0053H372.035C372.717 32.0053 373.229 31.9467 373.571 31.8293C373.912 31.712 374.141 31.5093 374.259 31.2213C374.387 30.9333 374.451 30.5067 374.451 29.9413L374.467 19.3013H376.483L376.499 29.9413C376.499 31.2853 376.136 32.3467 375.411 33.1253C374.685 33.9147 373.56 34.3093 372.035 34.3093H371.235ZM377.443 30.2773C377.037 30.2773 376.68 30.1653 376.371 29.9413C376.061 29.7067 375.816 29.36 375.635 28.9013C375.464 28.4427 375.379 27.8667 375.379 27.1733H376.499C376.499 27.4827 376.579 27.696 376.739 27.8133C376.899 27.92 377.133 27.9733 377.443 27.9733H377.779L377.923 29.1733L377.779 30.2773H377.443ZM382.742 24.9173V27.2373C382.742 27.5147 382.811 27.7067 382.95 27.8133C383.099 27.92 383.339 27.9733 383.67 27.9733H384.534L384.63 29.1893L384.534 30.2773H383.67C383.222 30.2773 382.769 30.1707 382.31 29.9573C381.862 29.7333 381.483 29.3867 381.174 28.9173C380.865 28.448 380.71 27.8613 380.71 27.1573V24.9173H382.742ZM382.646 27.2693C382.646 27.888 382.497 28.4267 382.198 28.8853C381.899 29.3333 381.505 29.68 381.014 29.9253C380.534 30.16 380.027 30.2773 379.494 30.2773H377.67V27.9733H379.494C379.942 27.9733 380.257 27.9147 380.438 27.7973C380.619 27.6693 380.71 27.456 380.71 27.1573L382.646 27.2693ZM378.006 32.2453C378.283 32.2453 378.491 32.2453 378.63 32.2453C378.779 32.2453 378.998 32.2453 379.286 32.2453C379.489 32.2453 379.697 32.2453 379.91 32.2453C379.91 32.6827 379.91 33.0027 379.91 33.2053C379.91 33.408 379.91 33.7227 379.91 34.1493C379.473 34.1493 379.147 34.1493 378.934 34.1493C378.731 34.1493 378.422 34.1493 378.006 34.1493C378.006 33.712 378.006 33.3867 378.006 33.1733C378.006 32.9707 378.006 32.6613 378.006 32.2453ZM380.998 32.2453C381.435 32.2453 381.755 32.2453 381.958 32.2453C382.171 32.2453 382.491 32.2453 382.918 32.2453C382.918 32.6827 382.918 33.0027 382.918 33.2053C382.918 33.408 382.918 33.7227 382.918 34.1493C382.481 34.1493 382.155 34.1493 381.942 34.1493C381.739 34.1493 381.425 34.1493 380.998 34.1493C380.998 33.712 380.998 33.3867 380.998 33.1733C380.998 32.9707 380.998 32.6613 380.998 32.2453ZM384.373 27.9733H384.789C384.992 27.9733 385.152 27.9253 385.269 27.8293C385.386 27.7227 385.472 27.552 385.525 27.3173L385.941 25.7813C386.176 24.8533 386.57 24.144 387.125 23.6533C387.68 23.1627 388.346 22.9173 389.125 22.9173C389.733 22.9173 390.282 23.088 390.773 23.4293C391.264 23.76 391.648 24.224 391.925 24.8213C392.202 25.408 392.341 26.0693 392.341 26.8053C392.341 27.68 392.197 28.4 391.909 28.9653C391.621 29.5307 391.258 29.9413 390.821 30.1973C390.384 30.4427 389.936 30.5653 389.477 30.5653C389.082 30.5653 388.661 30.48 388.213 30.3093C387.765 30.1387 387.072 29.8293 386.133 29.3813L385.717 29.1733L386.613 27.2053C386.688 27.2373 386.757 27.2693 386.821 27.3013C387.685 27.7173 388.288 27.9947 388.629 28.1333C388.97 28.2613 389.28 28.3253 389.557 28.3253C389.834 28.3253 390.048 28.208 390.197 27.9733C390.357 27.728 390.437 27.344 390.437 26.8213C390.437 26.288 390.325 25.8773 390.101 25.5893C389.877 25.3013 389.578 25.1467 389.205 25.1253C388.885 25.1147 388.602 25.2213 388.357 25.4453C388.122 25.6693 387.952 26 387.845 26.4373L387.381 28.1973C387.285 28.592 387.104 28.9493 386.837 29.2693C386.581 29.5787 386.272 29.824 385.909 30.0053C385.557 30.1867 385.194 30.2773 384.821 30.2773H384.373V27.9733ZM393.733 29.0933L393.605 30.2773H393.365C392.725 30.2773 392.192 30.1387 391.765 29.8613C391.338 29.5733 391.024 29.1733 390.821 28.6613C390.618 28.1493 390.517 27.536 390.517 26.8213L392.341 26.8053C392.341 27.1467 392.368 27.3973 392.421 27.5573C392.485 27.7173 392.586 27.8293 392.725 27.8933C392.864 27.9467 393.077 27.9733 393.365 27.9733H393.605L393.733 29.0933ZM401.1 20.6613L396.62 22.6293L398.636 25.1413C399.18 25.8133 399.462 26.56 399.484 27.3813C399.505 28.192 399.254 28.88 398.732 29.4453C398.22 30 397.489 30.2773 396.54 30.2773H393.436V27.9733H396.588C396.876 27.9733 397.094 27.9147 397.244 27.7973C397.393 27.68 397.457 27.52 397.436 27.3173C397.425 27.1147 397.324 26.9067 397.132 26.6933L394.412 23.4933L394.908 20.9173L400.268 18.5493L401.1 20.6613ZM402.396 29.0933L402.268 30.2773H401.996C401.441 30.2773 400.95 30.1653 400.524 29.9413C400.108 29.7173 399.692 29.392 399.276 28.9653C398.87 28.5387 398.246 27.8133 397.404 26.7893L397.116 26.4373L398.636 25.1413L398.956 25.5573C399.521 26.2507 399.942 26.752 400.22 27.0613C400.508 27.3707 400.785 27.6 401.052 27.7493C401.329 27.8987 401.644 27.9733 401.996 27.9733H402.268L402.396 29.0933ZM402.091 27.9733H403.868C404.348 27.9733 404.689 27.8933 404.892 27.7333C405.094 27.5627 405.185 27.3227 405.164 27.0133C405.142 26.7147 405.089 26.3147 405.004 25.8133C404.929 25.312 404.844 24.8267 404.748 24.3573L406.668 23.8773C406.796 24.4107 406.913 24.992 407.02 25.6213C407.137 26.2507 407.196 26.768 407.196 27.1733C407.206 27.7067 407.094 28.2133 406.86 28.6933C406.625 29.1627 406.268 29.5467 405.788 29.8453C405.318 30.1333 404.732 30.2773 404.028 30.2773H402.091V27.9733ZM402.54 20.1973C402.817 20.1973 403.025 20.1973 403.164 20.1973C403.313 20.1973 403.532 20.1973 403.82 20.1973C404.022 20.1973 404.23 20.1973 404.444 20.1973C404.444 20.6347 404.444 20.9547 404.444 21.1573C404.444 21.36 404.444 21.6747 404.444 22.1013C404.006 22.1013 403.681 22.1013 403.468 22.1013C403.265 22.1013 402.956 22.1013 402.54 22.1013C402.54 21.664 402.54 21.344 402.54 21.1413C402.54 20.928 402.54 20.6133 402.54 20.1973ZM405.532 20.1973C405.969 20.1973 406.289 20.1973 406.492 20.1973C406.705 20.1973 407.025 20.1973 407.452 20.1973C407.452 20.6347 407.452 20.9547 407.452 21.1573C407.452 21.36 407.452 21.6747 407.452 22.1013C407.014 22.1013 406.689 22.1013 406.476 22.1013C406.273 22.1013 405.958 22.1013 405.532 22.1013C405.532 21.664 405.532 21.344 405.532 21.1413C405.532 20.928 405.532 20.6133 405.532 20.1973Z" fill="#263238"/>
<path d="M219.357 58.5053C219.488 59.056 219.745 59.448 220.127 59.6813C220.519 59.9053 220.977 60.0173 221.499 60.0173H221.779L221.849 60.6473L221.779 61.2773H221.499C220.809 61.2773 220.155 61.0907 219.539 60.7173C218.923 60.3347 218.508 59.7 218.293 58.8133C217.92 57.236 217.547 55.6587 217.173 54.0813L218.237 53.8013L219.357 58.5053ZM218.951 56.8673C219.017 57.4553 219.021 57.9407 218.965 58.3233C218.919 58.706 218.797 59.0653 218.601 59.4013C218.359 59.8213 218.046 60.148 217.663 60.3813C217.281 60.6053 216.865 60.7173 216.417 60.7173C215.979 60.7173 215.554 60.596 215.143 60.3533C214.761 60.1293 214.457 59.8167 214.233 59.4153C214.009 59.0047 213.893 58.566 213.883 58.0993C213.883 57.6327 214 57.1987 214.233 56.7973C214.392 56.5173 214.579 56.284 214.793 56.0973C215.017 55.9013 215.363 55.6867 215.829 55.4533C216.305 55.2107 217.005 54.9027 217.929 54.5293L218.349 55.7053C217.64 55.9107 217.066 56.1207 216.627 56.3353C216.189 56.5407 215.862 56.732 215.647 56.9093C215.442 57.0867 215.288 57.264 215.185 57.4413C214.98 57.7867 214.924 58.132 215.017 58.4773C215.12 58.8133 215.335 59.084 215.661 59.2893C215.979 59.4853 216.338 59.5413 216.739 59.4573C217.15 59.364 217.481 59.1587 217.733 58.8413C217.892 58.6453 217.981 58.4213 217.999 58.1693C218.027 57.908 217.99 57.5113 217.887 56.9793L218.951 56.8673ZM221.645 60.0173H222.037C222.261 60.0173 222.438 59.9707 222.569 59.8773C222.709 59.7747 222.802 59.6253 222.849 59.4293L223.297 57.8193C223.502 57.0913 223.82 56.522 224.249 56.1113C224.678 55.6913 225.196 55.4813 225.803 55.4813C226.288 55.4813 226.718 55.626 227.091 55.9153C227.464 56.1953 227.754 56.578 227.959 57.0633C228.164 57.5393 228.267 58.0573 228.267 58.6173C228.267 59.308 228.169 59.8773 227.973 60.3253C227.777 60.764 227.52 61.0813 227.203 61.2773C226.895 61.4827 226.568 61.5853 226.223 61.5853C225.859 61.5853 225.49 61.5107 225.117 61.3613C224.744 61.212 224.156 60.932 223.353 60.5213L222.989 60.3393L223.493 59.2193C223.605 59.2753 223.712 59.3313 223.815 59.3873C224.571 59.77 225.094 60.022 225.383 60.1433C225.682 60.2647 225.962 60.3253 226.223 60.3253C226.54 60.3253 226.778 60.2087 226.937 59.9753C227.096 59.7327 227.175 59.28 227.175 58.6173C227.175 58.0293 227.058 57.572 226.825 57.2453C226.592 56.9093 226.251 56.7413 225.803 56.7413C225.467 56.7413 225.173 56.858 224.921 57.0913C224.678 57.3247 224.492 57.6793 224.361 58.1553L223.913 59.7653C223.829 60.064 223.689 60.33 223.493 60.5633C223.306 60.7873 223.082 60.9647 222.821 61.0953C222.569 61.2167 222.308 61.2773 222.037 61.2773H221.645V60.0173ZM232.685 61.2773C232.05 61.2773 231.556 61.1607 231.201 60.9273C230.846 60.6847 230.594 60.3487 230.445 59.9193C230.305 59.49 230.235 58.958 230.235 58.3233L230.221 52.1913H231.313L231.327 58.3233C231.327 58.8273 231.355 59.1913 231.411 59.4153C231.476 59.6393 231.598 59.798 231.775 59.8913C231.962 59.9753 232.265 60.0173 232.685 60.0173H232.895L232.965 60.6613L232.895 61.2773H232.685ZM232.76 60.0173H234.3C234.729 60.0173 235.037 59.924 235.224 59.7373C235.42 59.5413 235.509 59.28 235.49 58.9533C235.471 58.6827 235.415 58.3 235.322 57.8053C235.238 57.3107 235.149 56.8487 235.056 56.4193L236.12 56.1393C236.223 56.5687 236.321 57.0587 236.414 57.6093C236.507 58.1507 236.563 58.5893 236.582 58.9253C236.601 59.3173 236.521 59.6953 236.344 60.0593C236.176 60.4233 235.915 60.7173 235.56 60.9413C235.215 61.1653 234.795 61.2773 234.3 61.2773H232.76V60.0173ZM234.272 53.0873C234.515 53.0873 234.753 53.0873 234.986 53.0873C235.219 53.0873 235.448 53.0873 235.672 53.0873C235.672 53.4047 235.672 53.6427 235.672 53.8013C235.672 53.9507 235.672 54.1793 235.672 54.4873C235.355 54.4873 235.117 54.4873 234.958 54.4873C234.809 54.4873 234.58 54.4873 234.272 54.4873C234.272 54.17 234.272 53.9367 234.272 53.7873C234.272 53.6287 234.272 53.3953 234.272 53.0873ZM241.851 56.9653V60.9133C241.851 61.7533 241.707 62.4627 241.417 63.0413C241.137 63.62 240.722 64.0587 240.171 64.3573C239.621 64.656 238.949 64.8053 238.155 64.8053H237.273V63.5453H238.155C238.781 63.5453 239.28 63.4567 239.653 63.2793C240.036 63.102 240.316 62.822 240.493 62.4393C240.671 62.0567 240.759 61.548 240.759 60.9133V56.9653H241.851ZM241.851 58.9533C241.851 59.336 241.945 59.6113 242.131 59.7793C242.318 59.938 242.612 60.0173 243.013 60.0173H243.153L243.237 60.6613L243.153 61.2773H243.013C242.687 61.2773 242.388 61.2073 242.117 61.0673C241.847 60.9273 241.623 60.6847 241.445 60.3393C241.277 59.994 241.193 59.532 241.193 58.9533H241.851ZM243.014 60.0173H244.554C244.983 60.0173 245.291 59.924 245.478 59.7373C245.674 59.5413 245.763 59.28 245.744 58.9533C245.725 58.6827 245.669 58.3 245.576 57.8053C245.492 57.3107 245.403 56.8487 245.31 56.4193L246.374 56.1393C246.477 56.5687 246.575 57.0587 246.668 57.6093C246.761 58.1507 246.817 58.5893 246.836 58.9253C246.855 59.3173 246.775 59.6953 246.598 60.0593C246.43 60.4233 246.169 60.7173 245.814 60.9413C245.469 61.1653 245.049 61.2773 244.554 61.2773H243.014V60.0173ZM244.036 63.4053C244.279 63.4053 244.517 63.4053 244.75 63.4053C244.983 63.4053 245.212 63.4053 245.436 63.4053C245.436 63.7227 245.436 63.956 245.436 64.1053C245.436 64.264 245.436 64.4973 245.436 64.8053C245.119 64.8053 244.881 64.8053 244.722 64.8053C244.573 64.8053 244.344 64.8053 244.036 64.8053C244.036 64.488 244.036 64.25 244.036 64.0913C244.036 63.942 244.036 63.7133 244.036 63.4053ZM255.605 56.9653V60.9133C255.605 61.7533 255.461 62.4627 255.171 63.0413C254.891 63.62 254.476 64.0587 253.925 64.3573C253.375 64.656 252.703 64.8053 251.909 64.8053H251.027V63.5453H251.909C252.535 63.5453 253.034 63.4567 253.407 63.2793C253.79 63.102 254.07 62.822 254.247 62.4393C254.425 62.0567 254.513 61.548 254.513 60.9133V56.9653H255.605ZM254.359 53.5913C254.602 53.5913 254.84 53.5913 255.073 53.5913C255.307 53.5913 255.535 53.5913 255.759 53.5913C255.759 53.9087 255.759 54.1467 255.759 54.3053C255.759 54.4547 255.759 54.6833 255.759 54.9913C255.442 54.9913 255.204 54.9913 255.045 54.9913C254.896 54.9913 254.667 54.9913 254.359 54.9913C254.359 54.674 254.359 54.4407 254.359 54.2913C254.359 54.1327 254.359 53.8993 254.359 53.5913ZM257.496 52.1913H258.588L258.602 61.2773H257.51L257.496 52.1913ZM267.02 55.0753C267.589 55.6913 268.023 56.1813 268.322 56.5453C268.621 56.9093 268.859 57.2827 269.036 57.6653C269.223 58.0387 269.316 58.4213 269.316 58.8133C269.316 59.2893 269.19 59.7233 268.938 60.1153C268.686 60.5073 268.345 60.8153 267.916 61.0393C267.496 61.2633 267.043 61.3753 266.558 61.3753C266.063 61.3753 265.601 61.2633 265.172 61.0393C264.752 60.8153 264.416 60.5073 264.164 60.1153C263.912 59.7233 263.786 59.2893 263.786 58.8133C263.786 58.3933 263.875 57.9967 264.052 57.6233C264.229 57.2407 264.444 56.8907 264.696 56.5733C264.948 56.256 265.293 55.8687 265.732 55.4113L266.082 55.0333L266.894 55.9013L266.516 56.2933C266.096 56.732 265.783 57.0773 265.578 57.3293C265.373 57.572 265.205 57.8193 265.074 58.0713C264.943 58.314 264.878 58.5613 264.878 58.8133C264.878 59.196 265.027 59.5087 265.326 59.7513C265.634 59.994 266.045 60.1153 266.558 60.1153C267.062 60.1153 267.463 59.994 267.762 59.7513C268.07 59.5087 268.224 59.196 268.224 58.8133C268.224 58.5893 268.154 58.356 268.014 58.1133C267.883 57.8613 267.692 57.5907 267.44 57.3013C267.197 57.012 266.815 56.5827 266.292 56.0133C266.152 55.8547 266.007 55.696 265.858 55.5373C265.709 55.3693 265.55 55.192 265.382 55.0053L266.194 54.1653L267.02 55.0753ZM274.442 55.3973C274.778 55.92 275.025 56.312 275.184 56.5733C275.352 56.8253 275.599 57.2033 275.926 57.7073C276.187 58.1087 276.332 58.5567 276.36 59.0513C276.397 59.546 276.304 59.952 276.08 60.2693C275.809 60.652 275.482 60.918 275.1 61.0673C274.717 61.2073 274.297 61.2773 273.84 61.2773H273.084C272.58 61.2773 272.122 61.2073 271.712 61.0673C271.31 60.918 270.979 60.75 270.718 60.5633L271.292 59.4993L271.362 59.5413C271.576 59.672 271.814 59.784 272.076 59.8773C272.337 59.9707 272.673 60.0173 273.084 60.0173H273.84C274.176 60.0173 274.451 59.9847 274.666 59.9193C274.89 59.8447 275.062 59.7187 275.184 59.5413C275.286 59.4013 275.324 59.2427 275.296 59.0653C275.268 58.8787 275.17 58.65 275.002 58.3793C274.124 56.998 273.415 55.906 272.874 55.1033L273.798 54.4033L274.442 55.3973ZM280.796 61.2773C280.162 61.2773 279.667 61.1607 279.312 60.9273C278.958 60.6847 278.706 60.3487 278.556 59.9193C278.416 59.49 278.346 58.958 278.346 58.3233L278.332 52.1913H279.424L279.438 58.3233C279.438 58.8273 279.466 59.1913 279.522 59.4153C279.588 59.6393 279.709 59.798 279.886 59.8913C280.073 59.9753 280.376 60.0173 280.796 60.0173H281.006L281.076 60.6613L281.006 61.2773H280.796ZM280.815 60.0173H281.557C282.108 60.0173 282.612 59.9893 283.069 59.9333C282.724 59.6813 282.453 59.3967 282.257 59.0793C282.061 58.762 281.963 58.412 281.963 58.0293C281.963 57.5253 282.08 57.068 282.313 56.6573C282.547 56.2373 282.859 55.906 283.251 55.6633C283.653 55.4207 284.091 55.2993 284.567 55.2993C285.025 55.2993 285.449 55.4207 285.841 55.6633C286.233 55.906 286.546 56.2373 286.779 56.6573C287.013 57.0773 287.129 57.5347 287.129 58.0293C287.129 58.412 287.031 58.762 286.835 59.0793C286.639 59.3967 286.369 59.686 286.023 59.9473C286.518 59.994 287.022 60.0173 287.535 60.0173H288.207L288.291 60.6473L288.207 61.2773H287.535C287.153 61.2773 286.686 61.2307 286.135 61.1373C285.594 61.0347 285.067 60.89 284.553 60.7033C284.031 60.89 283.494 61.0347 282.943 61.1373C282.402 61.2307 281.94 61.2773 281.557 61.2773H280.815V60.0173ZM284.525 59.6253C285.02 59.4573 285.393 59.238 285.645 58.9673C285.907 58.6967 286.037 58.384 286.037 58.0293C286.037 57.5907 285.897 57.236 285.617 56.9653C285.337 56.6947 284.987 56.5593 284.567 56.5593C284.129 56.5593 283.765 56.6947 283.475 56.9653C283.195 57.236 283.055 57.5907 283.055 58.0293C283.055 58.384 283.177 58.6967 283.419 58.9673C283.671 59.238 284.04 59.4573 284.525 59.6253ZM283.853 52.8353C284.096 52.8353 284.334 52.8353 284.567 52.8353C284.801 52.8353 285.029 52.8353 285.253 52.8353C285.253 53.1527 285.253 53.3907 285.253 53.5493C285.253 53.6987 285.253 53.9273 285.253 54.2353C284.936 54.2353 284.698 54.2353 284.539 54.2353C284.39 54.2353 284.161 54.2353 283.853 54.2353C283.853 53.918 283.853 53.6847 283.853 53.5353C283.853 53.3767 283.853 53.1433 283.853 52.8353ZM292.053 56.9653V58.9533C292.053 59.336 292.146 59.6113 292.333 59.7793C292.519 59.938 292.813 60.0173 293.215 60.0173H293.929L293.999 60.6753L293.929 61.2773H293.215C292.888 61.2773 292.547 61.1933 292.193 61.0253C291.847 60.848 291.553 60.5727 291.311 60.1993C291.077 59.826 290.961 59.3547 290.961 58.7853V56.9653H292.053ZM291.857 59.0233C291.857 59.5273 291.74 59.9473 291.507 60.2833C291.283 60.6193 290.993 60.8713 290.639 61.0393C290.284 61.198 289.92 61.2773 289.547 61.2773H288.063V60.0173H289.547C290.023 60.0173 290.377 59.9193 290.611 59.7233C290.844 59.5273 290.961 59.2147 290.961 58.7853L291.857 59.0233ZM288.763 53.9833C288.968 53.9833 289.122 53.9833 289.225 53.9833C289.337 53.9833 289.5 53.9833 289.715 53.9833C289.864 53.9833 290.013 53.9833 290.163 53.9833C290.163 54.3007 290.163 54.5387 290.163 54.6973C290.163 54.8467 290.163 55.0753 290.163 55.3833C289.845 55.3833 289.607 55.3833 289.449 55.3833C289.299 55.3833 289.071 55.3833 288.763 55.3833C288.763 55.066 288.763 54.8327 288.763 54.6833C288.763 54.5247 288.763 54.2913 288.763 53.9833ZM291.269 53.9833C291.586 53.9833 291.819 53.9833 291.969 53.9833C292.127 53.9833 292.361 53.9833 292.669 53.9833C292.669 54.3007 292.669 54.5387 292.669 54.6973C292.669 54.8467 292.669 55.0753 292.669 55.3833C292.351 55.3833 292.113 55.3833 291.955 55.3833C291.805 55.3833 291.577 55.3833 291.269 55.3833C291.269 55.066 291.269 54.8327 291.269 54.6833C291.269 54.5247 291.269 54.2913 291.269 53.9833ZM293.791 60.0173H294.645C295.093 60.0173 295.411 59.9193 295.597 59.7233C295.793 59.5273 295.891 59.2147 295.891 58.7853V56.9653H296.983V58.9533C296.983 59.3267 297.072 59.5973 297.249 59.7653C297.436 59.924 297.721 60.008 298.103 60.0173C298.551 60.008 298.869 59.91 299.055 59.7233C299.251 59.5273 299.349 59.2147 299.349 58.7853V56.9653H300.441V58.9533C300.441 59.3267 300.53 59.5973 300.707 59.7653C300.894 59.924 301.179 60.008 301.561 60.0173C301.972 60.008 302.271 59.91 302.457 59.7233C302.644 59.5273 302.728 59.2707 302.709 58.9533C302.691 58.6827 302.635 58.3 302.541 57.8053C302.457 57.3107 302.369 56.8487 302.275 56.4193L303.339 56.1393C303.442 56.5687 303.54 57.0587 303.633 57.6093C303.727 58.1507 303.783 58.5893 303.801 58.9253C303.82 59.308 303.745 59.6813 303.577 60.0453C303.409 60.4093 303.153 60.708 302.807 60.9413C302.462 61.1653 302.047 61.2773 301.561 61.2773C301.263 61.2773 300.955 61.2073 300.637 61.0673C300.329 60.918 300.063 60.6893 299.839 60.3813C299.615 60.68 299.359 60.904 299.069 61.0533C298.78 61.2027 298.458 61.2773 298.103 61.2773C297.795 61.2773 297.483 61.198 297.165 61.0393C296.848 60.8713 296.587 60.652 296.381 60.3813C296.157 60.68 295.896 60.904 295.597 61.0533C295.299 61.2027 294.981 61.2773 294.645 61.2773H293.791V60.0173ZM305.758 52.1913H306.85L306.864 61.2773H305.772L305.758 52.1913ZM319.216 64.8193H315.66C314.932 64.8193 314.292 64.6607 313.742 64.3433C313.2 64.0353 312.78 63.6107 312.482 63.0693C312.192 62.5373 312.048 61.94 312.048 61.2773C312.048 60.6333 312.206 60.0453 312.524 59.5133C312.85 58.972 313.28 58.5473 313.812 58.2393C314.353 57.922 314.936 57.7633 315.562 57.7633L318.614 57.7913V59.0513L315.716 59.0233C315.249 59.0233 314.824 59.1213 314.442 59.3173C314.059 59.504 313.756 59.77 313.532 60.1153C313.308 60.4607 313.196 60.848 313.196 61.2773C313.196 61.7253 313.289 62.122 313.476 62.4673C313.672 62.8127 313.956 63.0787 314.33 63.2653C314.712 63.4613 315.174 63.5593 315.716 63.5593H319.216V64.8193ZM317.312 58.8273C316.528 58.8273 315.846 58.7107 315.268 58.4773C314.689 58.2347 314.241 57.9033 313.924 57.4833C313.616 57.054 313.462 56.5733 313.462 56.0413C313.462 55.5747 313.574 55.15 313.798 54.7673C314.022 54.3753 314.325 54.0673 314.708 53.8433C315.09 53.61 315.506 53.4933 315.954 53.4933C316.374 53.4933 316.724 53.554 317.004 53.6753C317.284 53.7967 317.634 54.002 318.054 54.2913L318.348 54.4873L317.802 55.3833C317.727 55.3367 317.652 55.2947 317.578 55.2573C317.158 55.0333 316.845 54.884 316.64 54.8093C316.444 54.7253 316.215 54.6833 315.954 54.6833C315.571 54.6833 315.24 54.814 314.96 55.0753C314.689 55.3367 314.554 55.6587 314.554 56.0413C314.554 56.3773 314.647 56.676 314.834 56.9373C315.03 57.1987 315.333 57.4087 315.744 57.5673C316.154 57.7167 316.677 57.7913 317.312 57.7913V58.8273ZM322.3 63.5453C322.953 63.5453 323.457 63.466 323.812 63.3073C324.176 63.158 324.428 62.9247 324.568 62.6073C324.708 62.29 324.778 61.87 324.778 61.3473V58.6033C324.778 58.034 324.647 57.5907 324.386 57.2733C324.125 56.9467 323.737 56.7833 323.224 56.7833C322.748 56.7833 322.375 56.9513 322.104 57.2873C321.843 57.614 321.712 58.0527 321.712 58.6033C321.712 59.1167 321.833 59.4807 322.076 59.6953C322.319 59.9007 322.706 60.0033 323.238 60.0033H325.254V61.2633H323.238C322.454 61.2633 321.819 61.03 321.334 60.5633C320.858 60.0967 320.62 59.4433 320.62 58.6033C320.62 58.034 320.727 57.516 320.942 57.0493C321.166 56.5827 321.474 56.214 321.866 55.9433C322.267 55.6727 322.72 55.5373 323.224 55.5373C323.756 55.5373 324.223 55.668 324.624 55.9293C325.025 56.1813 325.333 56.5407 325.548 57.0073C325.763 57.474 325.87 58.006 325.87 58.6033V61.3473C325.87 62.038 325.749 62.64 325.506 63.1533C325.273 63.6667 324.89 64.068 324.358 64.3573C323.835 64.656 323.149 64.8053 322.3 64.8053H320.802V63.5453H322.3ZM331.142 56.9653V60.9133C331.142 61.7533 330.998 62.4627 330.708 63.0413C330.428 63.62 330.013 64.0587 329.462 64.3573C328.912 64.656 328.24 64.8053 327.446 64.8053H326.564V63.5453H327.446C328.072 63.5453 328.571 63.4567 328.944 63.2793C329.327 63.102 329.607 62.822 329.784 62.4393C329.962 62.0567 330.05 61.548 330.05 60.9133V56.9653H331.142ZM331.142 58.9533C331.142 59.336 331.236 59.6113 331.422 59.7793C331.609 59.938 331.903 60.0173 332.304 60.0173H332.444L332.528 60.6613L332.444 61.2773H332.304C331.978 61.2773 331.679 61.2073 331.408 61.0673C331.138 60.9273 330.914 60.6847 330.736 60.3393C330.568 59.994 330.484 59.532 330.484 58.9533H331.142ZM332.305 60.0173H333.159C333.607 60.0173 333.924 59.9193 334.111 59.7233C334.307 59.5273 334.405 59.2147 334.405 58.7853V56.9653H335.497V58.9533C335.497 59.3267 335.586 59.5973 335.763 59.7653C335.95 59.924 336.234 60.008 336.617 60.0173C337.065 60.008 337.382 59.91 337.569 59.7233C337.765 59.5273 337.863 59.2147 337.863 58.7853V56.9653H338.955V58.9533C338.955 59.3267 339.044 59.5973 339.221 59.7653C339.408 59.924 339.692 60.008 340.075 60.0173C340.486 60.008 340.784 59.91 340.971 59.7233C341.158 59.5273 341.242 59.2707 341.223 58.9533C341.204 58.6827 341.148 58.3 341.055 57.8053C340.971 57.3107 340.882 56.8487 340.789 56.4193L341.853 56.1393C341.956 56.5687 342.054 57.0587 342.147 57.6093C342.24 58.1507 342.296 58.5893 342.315 58.9253C342.334 59.308 342.259 59.6813 342.091 60.0453C341.923 60.4093 341.666 60.708 341.321 60.9413C340.976 61.1653 340.56 61.2773 340.075 61.2773C339.776 61.2773 339.468 61.2073 339.151 61.0673C338.843 60.918 338.577 60.6893 338.353 60.3813C338.129 60.68 337.872 60.904 337.583 61.0533C337.294 61.2027 336.972 61.2773 336.617 61.2773C336.309 61.2773 335.996 61.198 335.679 61.0393C335.362 60.8713 335.1 60.652 334.895 60.3813C334.671 60.68 334.41 60.904 334.111 61.0533C333.812 61.2027 333.495 61.2773 333.159 61.2773H332.305V60.0173ZM337.793 51.9113C338.092 51.9113 338.316 51.9113 338.465 51.9113C338.614 51.9113 338.834 51.9113 339.123 51.9113C339.123 52.21 339.123 52.434 339.123 52.5833C339.123 52.7233 339.123 52.9427 339.123 53.2413C338.824 53.2413 338.6 53.2413 338.451 53.2413C338.311 53.2413 338.092 53.2413 337.793 53.2413C337.793 52.9427 337.793 52.7187 337.793 52.5693C337.793 52.42 337.793 52.2007 337.793 51.9113ZM336.463 53.7173C336.668 53.7173 336.822 53.7173 336.925 53.7173C337.037 53.7173 337.2 53.7173 337.415 53.7173C337.564 53.7173 337.714 53.7173 337.863 53.7173C337.863 54.0347 337.863 54.2727 337.863 54.4313C337.863 54.5807 337.863 54.8093 337.863 55.1173C337.546 55.1173 337.308 55.1173 337.149 55.1173C337 55.1173 336.771 55.1173 336.463 55.1173C336.463 54.8 336.463 54.5667 336.463 54.4173C336.463 54.2587 336.463 54.0253 336.463 53.7173ZM339.039 53.7173C339.356 53.7173 339.59 53.7173 339.739 53.7173C339.898 53.7173 340.131 53.7173 340.439 53.7173C340.439 54.0347 340.439 54.2727 340.439 54.4313C340.439 54.5807 340.439 54.8093 340.439 55.1173C340.122 55.1173 339.884 55.1173 339.725 55.1173C339.576 55.1173 339.347 55.1173 339.039 55.1173C339.039 54.8 339.039 54.5667 339.039 54.4173C339.039 54.2587 339.039 54.0253 339.039 53.7173ZM348.388 57.3013C348.154 57.3013 347.954 57.222 347.786 57.0633C347.627 56.8953 347.548 56.6947 347.548 56.4613C347.548 56.228 347.627 56.032 347.786 55.8733C347.954 55.7053 348.154 55.6213 348.388 55.6213C348.621 55.6213 348.817 55.7053 348.976 55.8733C349.144 56.032 349.228 56.228 349.228 56.4613C349.228 56.6947 349.144 56.8953 348.976 57.0633C348.817 57.222 348.621 57.3013 348.388 57.3013ZM348.388 61.3193C348.154 61.3193 347.954 61.24 347.786 61.0813C347.627 60.9133 347.548 60.7127 347.548 60.4793C347.548 60.246 347.627 60.05 347.786 59.8913C347.954 59.7233 348.154 59.6393 348.388 59.6393C348.621 59.6393 348.817 59.7233 348.976 59.8913C349.144 60.05 349.228 60.246 349.228 60.4793C349.228 60.7127 349.144 60.9133 348.976 61.0813C348.817 61.24 348.621 61.3193 348.388 61.3193ZM354.766 54.3753C354.868 54.618 355.19 55.3227 355.732 56.4893C355.9 56.8533 356.068 57.222 356.236 57.5953C356.46 58.062 356.595 58.524 356.642 58.9813C356.698 59.4293 356.59 59.8447 356.32 60.2273C356.04 60.6287 355.699 60.904 355.298 61.0533C354.906 61.2027 354.481 61.2773 354.024 61.2773H353.31C352.806 61.2773 352.358 61.2027 351.966 61.0533C351.574 60.8947 351.238 60.7173 350.958 60.5213L351.532 59.4573L351.602 59.4993C351.844 59.6393 352.096 59.7607 352.358 59.8633C352.619 59.966 352.936 60.0173 353.31 60.0173H354.024C354.36 60.0173 354.644 59.98 354.878 59.9053C355.111 59.8213 355.293 59.686 355.424 59.4993C355.545 59.3313 355.587 59.154 355.55 58.9673C355.522 58.7713 355.424 58.4913 355.256 58.1273L354.304 56.0833C354.089 55.6447 353.907 55.2527 353.758 54.9073L354.766 54.3753ZM356.25 57.6093C356.52 58.216 356.754 58.6873 356.95 59.0233C357.155 59.3593 357.37 59.6113 357.594 59.7793C357.818 59.938 358.079 60.0173 358.378 60.0173H358.602L358.672 60.6893L358.602 61.2773H358.378C357.902 61.2773 357.482 61.1513 357.118 60.8993C356.754 60.638 356.427 60.2833 356.138 59.8353C355.858 59.3873 355.559 58.8133 355.242 58.1133L356.25 57.6093ZM358.459 60.0173H359.103C359.747 60.0173 360.279 59.994 360.699 59.9473C361.129 59.8913 361.493 59.8073 361.791 59.6953L360.783 58.3513C360.354 57.7727 360.018 57.3293 359.775 57.0213L360.671 55.6073H364.241C364.717 55.6073 365.105 55.78 365.403 56.1253C365.702 56.4707 365.842 56.8767 365.823 57.3433C365.805 57.8007 365.613 58.1927 365.249 58.5193L364.661 59.0513C364.363 59.3127 364.064 59.5787 363.765 59.8493C363.924 59.9147 364.092 59.9613 364.269 59.9893C364.456 60.008 364.685 60.0173 364.955 60.0173H366.677L366.775 60.6753L366.677 61.2773H364.955C364.451 61.2773 364.017 61.2213 363.653 61.1093C363.289 60.9973 362.963 60.834 362.673 60.6193C362.281 60.8433 361.805 61.0113 361.245 61.1233C360.695 61.226 359.981 61.2773 359.103 61.2773H358.459V60.0173ZM362.813 59.1913C363.009 59.014 363.294 58.7387 363.667 58.3653C363.957 58.076 364.241 57.8053 364.521 57.5533C364.643 57.4413 364.713 57.3247 364.731 57.2033C364.75 57.0727 364.708 56.97 364.605 56.8953C364.503 56.8113 364.353 56.7693 364.157 56.7693H360.923C361.129 57.012 361.446 57.4133 361.875 57.9733C362.202 58.4213 362.515 58.8273 362.813 59.1913ZM366.539 60.0173H368.079C368.509 60.0173 368.817 59.924 369.003 59.7373C369.199 59.5413 369.288 59.28 369.269 58.9533C369.251 58.6827 369.195 58.3 369.101 57.8053C369.017 57.3107 368.929 56.8487 368.835 56.4193L369.899 56.1393C370.002 56.5687 370.1 57.0587 370.193 57.6093C370.287 58.1507 370.343 58.5893 370.361 58.9253C370.38 59.3173 370.301 59.6953 370.123 60.0593C369.955 60.4233 369.694 60.7173 369.339 60.9413C368.994 61.1653 368.574 61.2773 368.079 61.2773H366.539V60.0173ZM366.889 63.4053C367.132 63.4053 367.37 63.4053 367.603 63.4053C367.837 63.4053 368.065 63.4053 368.289 63.4053C368.289 63.7227 368.289 63.956 368.289 64.1053C368.289 64.264 368.289 64.4973 368.289 64.8053C367.972 64.8053 367.734 64.8053 367.575 64.8053C367.426 64.8053 367.197 64.8053 366.889 64.8053C366.889 64.488 366.889 64.25 366.889 64.0913C366.889 63.942 366.889 63.7133 366.889 63.4053ZM380.713 58.5053C380.843 59.056 381.1 59.448 381.483 59.6813C381.875 59.9053 382.332 60.0173 382.855 60.0173H383.135L383.205 60.6473L383.135 61.2773H382.855C382.164 61.2773 381.511 61.0907 380.895 60.7173C380.279 60.3347 379.863 59.7 379.649 58.8133C379.275 57.236 378.902 55.6587 378.529 54.0813L379.593 53.8013L380.713 58.5053ZM380.307 56.8673C380.372 57.4553 380.377 57.9407 380.321 58.3233C380.274 58.706 380.153 59.0653 379.957 59.4013C379.714 59.8213 379.401 60.148 379.019 60.3813C378.636 60.6053 378.221 60.7173 377.773 60.7173C377.334 60.7173 376.909 60.596 376.499 60.3533C376.116 60.1293 375.813 59.8167 375.589 59.4153C375.365 59.0047 375.248 58.566 375.239 58.0993C375.239 57.6327 375.355 57.1987 375.589 56.7973C375.747 56.5173 375.934 56.284 376.149 56.0973C376.373 55.9013 376.718 55.6867 377.185 55.4533C377.661 55.2107 378.361 54.9027 379.285 54.5293L379.705 55.7053C378.995 55.9107 378.421 56.1207 377.983 56.3353C377.544 56.5407 377.217 56.732 377.003 56.9093C376.797 57.0867 376.643 57.264 376.541 57.4413C376.335 57.7867 376.279 58.132 376.373 58.4773C376.475 58.8133 376.69 59.084 377.017 59.2893C377.334 59.4853 377.693 59.5413 378.095 59.4573C378.505 59.364 378.837 59.1587 379.089 58.8413C379.247 58.6453 379.336 58.4213 379.355 58.1693C379.383 57.908 379.345 57.5113 379.243 56.9793L380.307 56.8673ZM383 60.0173H383.56C383.98 60.0173 384.293 59.9287 384.498 59.7513C384.713 59.5647 384.82 59.2427 384.82 58.7853V52.1913H385.898V58.7853C385.898 59.3547 385.777 59.826 385.534 60.1993C385.301 60.5727 385.012 60.848 384.666 61.0253C384.321 61.1933 383.985 61.2773 383.658 61.2773H383V60.0173ZM387.06 61.2773C386.734 61.2773 386.407 61.1933 386.08 61.0253C385.754 60.848 385.478 60.5727 385.254 60.1993C385.03 59.826 384.918 59.3547 384.918 58.7853L385.898 58.9533C385.898 59.336 385.992 59.6113 386.178 59.7793C386.365 59.938 386.659 60.0173 387.06 60.0173H387.578L387.648 60.6613L387.578 61.2773H387.06ZM387.388 60.0173H389.124C389.749 60.0173 390.332 59.9427 390.874 59.7933C391.415 59.6347 391.914 59.4387 392.372 59.2053C392.829 58.9627 393.403 58.6313 394.094 58.2113L394.556 57.9313L394.528 58.2393L393.66 57.8753C392.81 57.5207 392.129 57.2547 391.616 57.0773C391.112 56.8907 390.757 56.7973 390.552 56.7973C390.272 56.7973 390.052 56.8627 389.894 56.9933C389.744 57.1147 389.6 57.3667 389.46 57.7493L388.396 57.4133C388.62 56.7507 388.918 56.2747 389.292 55.9853C389.665 55.6867 390.085 55.5373 390.552 55.5373C390.869 55.5373 391.354 55.6587 392.008 55.9013C392.67 56.144 393.59 56.5127 394.766 57.0073C394.999 57.1007 395.228 57.194 395.452 57.2873L395.732 58.6173L394.99 59.0793C394.178 59.5927 393.506 59.994 392.974 60.2833C392.442 60.5727 391.854 60.8107 391.21 60.9973C390.575 61.184 389.88 61.2773 389.124 61.2773H387.388V60.0173ZM399.324 56.9653V60.9133C399.324 61.7533 399.179 62.4627 398.89 63.0413C398.61 63.62 398.195 64.0587 397.644 64.3573C397.093 64.656 396.421 64.8053 395.628 64.8053H394.746V63.5453H395.628C396.253 63.5453 396.753 63.4567 397.126 63.2793C397.509 63.102 397.789 62.822 397.966 62.4393C398.143 62.0567 398.232 61.548 398.232 60.9133V56.9653H399.324ZM399.324 58.9533C399.324 59.336 399.417 59.6113 399.604 59.7793C399.791 59.938 400.085 60.0173 400.486 60.0173H400.626L400.71 60.6613L400.626 61.2773H400.486C400.159 61.2773 399.861 61.2073 399.59 61.0673C399.319 60.9273 399.095 60.6847 398.918 60.3393C398.75 59.994 398.666 59.532 398.666 58.9533H399.324ZM400.487 60.0173H400.879C401.103 60.0173 401.28 59.9707 401.411 59.8773C401.551 59.7747 401.644 59.6253 401.691 59.4293L402.139 57.8193C402.344 57.0913 402.661 56.522 403.091 56.1113C403.52 55.6913 404.038 55.4813 404.645 55.4813C405.13 55.4813 405.559 55.626 405.933 55.9153C406.306 56.1953 406.595 56.578 406.801 57.0633C407.006 57.5393 407.109 58.0573 407.109 58.6173C407.109 59.308 407.011 59.8773 406.815 60.3253C406.619 60.764 406.362 61.0813 406.045 61.2773C405.737 61.4827 405.41 61.5853 405.065 61.5853C404.701 61.5853 404.332 61.5107 403.959 61.3613C403.585 61.212 402.997 60.932 402.195 60.5213L401.831 60.3393L402.335 59.2193C402.447 59.2753 402.554 59.3313 402.657 59.3873C403.413 59.77 403.935 60.022 404.225 60.1433C404.523 60.2647 404.803 60.3253 405.065 60.3253C405.382 60.3253 405.62 60.2087 405.779 59.9753C405.937 59.7327 406.017 59.28 406.017 58.6173C406.017 58.0293 405.9 57.572 405.667 57.2453C405.433 56.9093 405.093 56.7413 404.645 56.7413C404.309 56.7413 404.015 56.858 403.763 57.0913C403.52 57.3247 403.333 57.6793 403.203 58.1553L402.755 59.7653C402.671 60.064 402.531 60.33 402.335 60.5633C402.148 60.7873 401.924 60.9647 401.663 61.0953C401.411 61.2167 401.149 61.2773 400.879 61.2773H400.487V60.0173Z" fill="#98AFBA"/>
<defs>
<linearGradient id="paint0_linear_2113_19981" x1="70" y1="35.2773" x2="0" y2="35.2773" gradientUnits="userSpaceOnUse">
<stop stop-color="#007DC0"/>
<stop offset="1" stop-color="#00B8E7"/>
</linearGradient>
<clipPath id="clip0_2113_19981">
<rect width="70" height="70" fill="white" transform="translate(0 0.277344)"/>
</clipPath>
</defs>
</svg>
