<svg width="408" height="71" viewBox="0 0 408 71" fill="none" xmlns="http://www.w3.org/2000/svg">
<g clip-path="url(#clip0_2113_19917)">
<rect x="3.73333" y="4.01068" width="62.5333" height="62.5333" rx="31.2667" stroke="#98AFBA" stroke-opacity="0.25" stroke-width="7.46667"/>
<path d="M26.9938 28.272C27.2725 28.9689 27.4866 29.7006 27.6359 30.4672C27.7852 31.2238 27.8798 31.9556 27.9196 32.6624C27.9594 33.3693 27.9794 34.1309 27.9794 34.9472V35.44L27.9495 38.2773H26.5458L26.5756 35.44V35.0816C26.5756 34.2553 26.5557 33.5186 26.5159 32.8715C26.486 32.2144 26.4064 31.5424 26.277 30.8555C26.1475 30.1685 25.9484 29.5065 25.6796 28.8693L26.9938 28.272ZM31.3095 28.272L31.5783 30.1237C31.6778 30.731 31.6131 31.2736 31.3842 31.7515C31.1552 32.2194 30.8316 32.5828 30.4135 32.8416C29.9954 33.1005 29.5523 33.2299 29.0844 33.2299C28.4174 33.2299 27.8748 33.0357 27.4567 32.6475C27.0485 32.2592 26.725 31.642 26.486 30.7957L27.621 30.3776C27.7205 30.8555 27.8898 31.184 28.1287 31.3632C28.3776 31.5325 28.6962 31.6171 29.0844 31.6171C29.3234 31.6171 29.5324 31.5723 29.7116 31.4827C29.8908 31.3831 30.0252 31.2388 30.1148 31.0496C30.2044 30.8505 30.2243 30.6066 30.1746 30.3179L29.9058 28.5109L31.3095 28.272Z" fill="#263238"/>
<path d="M36.8036 27.6597H38.1774L33.9065 39.1883H32.5326L36.8036 27.6597Z" fill="#263238"/>
<path d="M40.4167 28.272C40.6954 28.9689 40.9095 29.7006 41.0588 30.4672C41.2081 31.2238 41.3027 31.9556 41.3425 32.6624C41.3824 33.3693 41.4023 34.1309 41.4023 34.9472V35.44L41.3724 38.2773H39.9687L39.9985 35.44V35.0816C39.9985 34.2553 39.9786 33.5186 39.9388 32.8715C39.9089 32.2144 39.8293 31.5424 39.6999 30.8555C39.5705 30.1685 39.3713 29.5065 39.1025 28.8693L40.4167 28.272ZM44.5084 28.6453L44.7473 30.3029C44.827 30.9003 44.7623 31.4329 44.5532 31.9008C44.3441 32.3687 44.0405 32.7321 43.6423 32.9909C43.254 33.2498 42.8458 33.3792 42.4177 33.3792C41.8204 33.3792 41.3077 33.1851 40.8796 32.7968C40.4515 32.4085 40.123 31.7963 39.894 30.96L41.0887 30.5867C41.1584 31.0446 41.2977 31.3582 41.5068 31.5275C41.7258 31.6868 42.0195 31.7664 42.3879 31.7664C42.587 31.7664 42.7662 31.7266 42.9255 31.6469C43.0848 31.5573 43.1993 31.418 43.2689 31.2288C43.3486 31.0297 43.3735 30.7858 43.3436 30.4971L43.1047 28.8693L44.5084 28.6453ZM47.7788 28.4363L48.0177 30.3029C48.0974 30.9501 48.0426 31.5076 47.8535 31.9755C47.6643 32.4434 47.3856 32.7968 47.0172 33.0357C46.6489 33.2647 46.2407 33.3792 45.7927 33.3792C45.2053 33.3792 44.7075 33.1502 44.2993 32.6923C43.8912 32.2343 43.6323 31.5076 43.5228 30.512L44.7473 30.3179C44.817 30.8754 44.9315 31.2587 45.0908 31.4677C45.2601 31.6669 45.489 31.7664 45.7777 31.7664C46.1162 31.7664 46.3552 31.6718 46.4945 31.4827C46.6339 31.2836 46.6737 30.955 46.614 30.4971L46.3751 28.6304L47.7788 28.4363Z" fill="#263238"/>
<mask id="path-6-inside-1_2113_19917" fill="white">
<path d="M35 3.99229C35 1.94058 36.6679 0.256944 38.7081 0.47431C43.494 0.98422 48.1372 2.47743 52.3411 4.87524C57.6238 7.88845 62.0302 12.2262 65.126 17.4609C68.2218 22.6956 69.9002 28.6467 69.9957 34.7276C70.0912 40.8085 68.6006 46.8093 65.6707 52.1387C62.7409 57.4681 58.4729 61.9421 53.2875 65.1197C48.102 68.2974 42.178 70.069 36.0994 70.2601C30.0207 70.4511 23.9972 69.0549 18.6225 66.2091C14.3454 63.9446 10.5967 60.8242 7.60171 57.0566C6.32501 55.4505 6.85284 53.1401 8.58516 52.0407C10.3175 50.9414 12.5953 51.4745 13.9174 53.0434C16.1888 55.7388 18.9637 57.9828 22.0991 59.6429C26.3329 61.8845 31.0777 62.9843 35.866 62.8338C40.6543 62.6834 45.3207 61.2878 49.4053 58.7847C53.49 56.2816 56.852 52.7574 59.1599 48.5593C61.4678 44.3613 62.6419 39.6343 62.5667 34.8443C62.4915 30.0543 61.1694 25.3665 58.7307 21.243C56.2921 17.1195 52.8211 13.7026 48.6598 11.3291C45.5781 9.57131 42.1966 8.43068 38.7038 7.95715C36.6707 7.68152 35 6.044 35 3.99229Z"/>
</mask>
<path d="M35 3.99229C35 1.94058 36.6679 0.256944 38.7081 0.47431C43.494 0.98422 48.1372 2.47743 52.3411 4.87524C57.6238 7.88845 62.0302 12.2262 65.126 17.4609C68.2218 22.6956 69.9002 28.6467 69.9957 34.7276C70.0912 40.8085 68.6006 46.8093 65.6707 52.1387C62.7409 57.4681 58.4729 61.9421 53.2875 65.1197C48.102 68.2974 42.178 70.069 36.0994 70.2601C30.0207 70.4511 23.9972 69.0549 18.6225 66.2091C14.3454 63.9446 10.5967 60.8242 7.60171 57.0566C6.32501 55.4505 6.85284 53.1401 8.58516 52.0407C10.3175 50.9414 12.5953 51.4745 13.9174 53.0434C16.1888 55.7388 18.9637 57.9828 22.0991 59.6429C26.3329 61.8845 31.0777 62.9843 35.866 62.8338C40.6543 62.6834 45.3207 61.2878 49.4053 58.7847C53.49 56.2816 56.852 52.7574 59.1599 48.5593C61.4678 44.3613 62.6419 39.6343 62.5667 34.8443C62.4915 30.0543 61.1694 25.3665 58.7307 21.243C56.2921 17.1195 52.8211 13.7026 48.6598 11.3291C45.5781 9.57131 42.1966 8.43068 38.7038 7.95715C36.6707 7.68152 35 6.044 35 3.99229Z" stroke="url(#paint0_linear_2113_19917)" stroke-width="14.9333" mask="url(#path-6-inside-1_2113_19917)"/>
</g>
<path d="M210.336 26.2453C210.059 26.8533 209.84 27.4347 209.68 27.9893C209.531 28.544 209.461 29.056 209.472 29.5253C209.483 30.08 209.568 30.5387 209.728 30.9013C209.899 31.264 210.171 31.536 210.544 31.7173C210.917 31.9093 211.408 32.0053 212.016 32.0053H213.392C214 32.0053 214.469 31.9627 214.8 31.8773C215.131 31.792 215.365 31.6587 215.504 31.4773C215.653 31.296 215.744 31.0507 215.776 30.7413C215.787 30.6453 215.781 30.5813 215.76 30.5493C215.739 30.5173 215.68 30.4907 215.584 30.4693L211.968 29.4773C211.723 28.5493 211.696 27.6533 211.888 26.7893C212.08 25.9253 212.427 25.2107 212.928 24.6453C213.355 24.1547 213.835 23.7813 214.368 23.5253C214.901 23.2693 215.467 23.1253 216.064 23.0933C216.395 23.0827 216.741 23.1093 217.104 23.1733C217.477 23.2267 217.787 23.3067 218.032 23.4133L217.552 25.4773C217.136 25.36 216.672 25.3173 216.16 25.3493C215.819 25.3707 215.509 25.4453 215.232 25.5733C214.955 25.7013 214.704 25.872 214.48 26.0853C214.245 26.3093 214.064 26.5493 213.936 26.8053C213.819 27.0613 213.76 27.3227 213.76 27.5893C214.165 27.696 214.672 27.84 215.28 28.0213C215.557 28.096 215.781 28.16 215.952 28.2133C216.123 28.256 216.32 28.3093 216.544 28.3733C216.917 28.4907 217.2 28.64 217.392 28.8213C217.584 28.992 217.707 29.2107 217.76 29.4773C217.824 29.7333 217.845 30.0853 217.824 30.5333C217.792 31.312 217.605 31.984 217.264 32.5493C216.923 33.1147 216.427 33.5467 215.776 33.8453C215.125 34.1547 214.331 34.3093 213.392 34.3093H212.016C211.077 34.3093 210.267 34.096 209.584 33.6693C208.901 33.2533 208.379 32.6827 208.016 31.9573C207.664 31.232 207.483 30.4267 207.472 29.5413C207.472 28.9333 207.579 28.2507 207.792 27.4933C208.016 26.7253 208.283 26.0053 208.592 25.3333L210.336 26.2453ZM223.351 30.2773C222.594 30.2773 221.97 30.128 221.479 29.8293C220.999 29.52 220.647 29.0987 220.423 28.5653C220.199 28.032 220.087 27.4027 220.087 26.6773V19.5893H222.119V26.6773C222.119 27.0827 222.141 27.3707 222.183 27.5413C222.237 27.712 222.343 27.8293 222.503 27.8933C222.674 27.9467 222.957 27.9733 223.351 27.9733H223.927L224.023 29.1573L223.927 30.2773H223.351ZM223.764 27.9733H226.388H226.484C227.198 27.9733 227.71 27.9307 228.02 27.8453C228.329 27.7493 228.532 27.5893 228.628 27.3653C228.734 27.1307 228.788 26.7467 228.788 26.2133V24.3253C228.788 23.952 228.692 23.6533 228.5 23.4293C228.318 23.1947 228.036 23.0773 227.652 23.0773C227.278 23.0773 226.996 23.1947 226.804 23.4293C226.612 23.664 226.516 23.9627 226.516 24.3253C226.516 24.592 226.596 24.8107 226.756 24.9813C226.916 25.1413 227.182 25.264 227.556 25.3493L229.684 25.8933L229.396 27.8453L227.348 27.5093C226.74 27.392 226.233 27.216 225.828 26.9813C225.422 26.736 225.113 26.4 224.9 25.9733C224.686 25.536 224.58 24.992 224.58 24.3413C224.58 23.6693 224.713 23.0773 224.98 22.5653C225.257 22.0533 225.625 21.6587 226.084 21.3813C226.553 21.0933 227.07 20.9493 227.636 20.9493C228.244 20.9493 228.777 21.0933 229.236 21.3813C229.694 21.6587 230.052 22.0533 230.308 22.5653C230.574 23.0667 230.708 23.6587 230.708 24.3413V25.6053C230.708 26.512 230.574 27.312 230.308 28.0053C230.041 28.6987 229.588 29.2533 228.948 29.6693C228.308 30.0747 227.454 30.2773 226.388 30.2773H223.764V27.9733ZM226.596 17.9573C226.958 17.9573 227.321 17.9573 227.684 17.9573C228.025 17.9573 228.372 17.9573 228.724 17.9573C228.724 18.4267 228.724 18.7787 228.724 19.0133C228.724 19.2373 228.724 19.5787 228.724 20.0373C228.233 20.0373 227.87 20.0373 227.636 20.0373C227.412 20.0373 227.065 20.0373 226.596 20.0373C226.596 19.568 226.596 19.2213 226.596 18.9973C226.596 18.7627 226.596 18.416 226.596 17.9573ZM238.211 26.2453C237.934 26.8533 237.715 27.4347 237.555 27.9893C237.406 28.544 237.336 29.056 237.347 29.5253C237.358 30.08 237.443 30.5387 237.603 30.9013C237.774 31.264 238.046 31.536 238.419 31.7173C238.792 31.9093 239.283 32.0053 239.891 32.0053H241.267C241.875 32.0053 242.344 31.9627 242.675 31.8773C243.006 31.792 243.24 31.6587 243.379 31.4773C243.528 31.296 243.619 31.0507 243.651 30.7413C243.662 30.6453 243.656 30.5813 243.635 30.5493C243.614 30.5173 243.555 30.4907 243.459 30.4693L239.843 29.4773C239.598 28.5493 239.571 27.6533 239.763 26.7893C239.955 25.9253 240.302 25.2107 240.803 24.6453C241.23 24.1547 241.71 23.7813 242.243 23.5253C242.776 23.2693 243.342 23.1253 243.939 23.0933C244.27 23.0827 244.616 23.1093 244.979 23.1733C245.352 23.2267 245.662 23.3067 245.907 23.4133L245.427 25.4773C245.011 25.36 244.547 25.3173 244.035 25.3493C243.694 25.3707 243.384 25.4453 243.107 25.5733C242.83 25.7013 242.579 25.872 242.355 26.0853C242.12 26.3093 241.939 26.5493 241.811 26.8053C241.694 27.0613 241.635 27.3227 241.635 27.5893C242.04 27.696 242.547 27.84 243.155 28.0213C243.432 28.096 243.656 28.16 243.827 28.2133C243.998 28.256 244.195 28.3093 244.419 28.3733C244.792 28.4907 245.075 28.64 245.267 28.8213C245.459 28.992 245.582 29.2107 245.635 29.4773C245.699 29.7333 245.72 30.0853 245.699 30.5333C245.667 31.312 245.48 31.984 245.139 32.5493C244.798 33.1147 244.302 33.5467 243.651 33.8453C243 34.1547 242.206 34.3093 241.267 34.3093H239.891C238.952 34.3093 238.142 34.096 237.459 33.6693C236.776 33.2533 236.254 32.6827 235.891 31.9573C235.539 31.232 235.358 30.4267 235.347 29.5413C235.347 28.9333 235.454 28.2507 235.667 27.4933C235.891 26.7253 236.158 26.0053 236.467 25.3333L238.211 26.2453ZM248.154 19.5893H250.186V30.2773H248.154V19.5893ZM254.227 32.0053C254.92 32.0053 255.438 31.9413 255.779 31.8133C256.131 31.6853 256.366 31.4773 256.483 31.1893C256.611 30.9013 256.675 30.48 256.675 29.9253V26.7413C256.675 26.2187 256.563 25.8133 256.339 25.5253C256.126 25.2267 255.774 25.0773 255.283 25.0773C254.846 25.0773 254.515 25.2267 254.291 25.5253C254.067 25.824 253.955 26.208 253.955 26.6773C253.955 27.1147 254.062 27.44 254.275 27.6533C254.488 27.856 254.83 27.9573 255.299 27.9573H257.603V30.1653H255.299C254.286 30.1653 253.48 29.872 252.883 29.2853C252.296 28.688 252.003 27.856 252.003 26.7893C252.003 26.032 252.142 25.36 252.419 24.7733C252.696 24.1867 253.086 23.7333 253.587 23.4133C254.088 23.0827 254.654 22.9173 255.283 22.9173C255.966 22.9173 256.563 23.0773 257.075 23.3973C257.598 23.7067 257.998 24.16 258.275 24.7573C258.563 25.344 258.707 26.0213 258.707 26.7893V29.9253C258.707 30.7787 258.552 31.5307 258.243 32.1813C257.944 32.8427 257.464 33.36 256.803 33.7333C256.142 34.1173 255.283 34.3093 254.227 34.3093H252.323V32.0053H254.227ZM270.371 26.5813C270.488 27.104 270.723 27.4667 271.075 27.6693C271.427 27.872 271.88 27.9733 272.435 27.9733H272.755L272.883 29.0933L272.755 30.2773H272.435C271.518 30.2773 270.675 30.0267 269.907 29.5253C269.15 29.0133 268.643 28.2133 268.387 27.1253C267.918 25.1733 267.448 23.2213 266.979 21.2693L268.963 20.7573L270.371 26.5813ZM269.811 24.7733C269.886 25.4667 269.886 26.0587 269.811 26.5493C269.747 27.0293 269.587 27.488 269.331 27.9253C269.022 28.4693 268.632 28.8907 268.163 29.1893C267.694 29.4773 267.187 29.6267 266.643 29.6373C266.099 29.648 265.56 29.4987 265.027 29.1893C264.483 28.8907 264.062 28.4693 263.763 27.9253C263.475 27.3707 263.331 26.784 263.331 26.1653C263.342 25.5467 263.496 24.992 263.795 24.5013C263.987 24.16 264.206 23.872 264.451 23.6373C264.707 23.4027 265.118 23.1413 265.683 22.8533C266.259 22.5547 267.102 22.1813 268.211 21.7333L268.979 23.8773C268.115 24.1867 267.454 24.448 266.995 24.6613C266.536 24.8747 266.206 25.056 266.003 25.2053C265.8 25.3547 265.651 25.5147 265.555 25.6853C265.384 25.9413 265.331 26.2187 265.395 26.5173C265.47 26.816 265.64 27.0507 265.907 27.2213C266.184 27.4027 266.488 27.472 266.819 27.4293C267.15 27.376 267.438 27.2107 267.683 26.9333C267.854 26.7413 267.96 26.5067 268.003 26.2293C268.046 25.952 268.024 25.5947 267.939 25.1573L269.811 24.7733ZM280.256 20.6613L275.776 22.6293L277.792 25.1413C278.336 25.8133 278.619 26.56 278.64 27.3813C278.661 28.192 278.411 28.88 277.888 29.4453C277.376 30 276.645 30.2773 275.696 30.2773H272.592V27.9733H275.744C276.032 27.9733 276.251 27.9147 276.4 27.7973C276.549 27.68 276.613 27.52 276.592 27.3173C276.581 27.1147 276.48 26.9067 276.288 26.6933L273.568 23.4933L274.064 20.9173L279.424 18.5493L280.256 20.6613ZM281.552 29.0933L281.424 30.2773H281.152C280.597 30.2773 280.107 30.1653 279.68 29.9413C279.264 29.7173 278.848 29.392 278.432 28.9653C278.027 28.5387 277.403 27.8133 276.56 26.7893L276.272 26.4373L277.792 25.1413L278.112 25.5573C278.677 26.2507 279.099 26.752 279.376 27.0613C279.664 27.3707 279.941 27.6 280.208 27.7493C280.485 27.8987 280.8 27.9733 281.152 27.9733H281.424L281.552 29.0933ZM285.904 24.9173V27.2373C285.904 27.5147 285.973 27.7067 286.112 27.8133C286.261 27.92 286.501 27.9733 286.832 27.9733H287.312L287.408 29.2053L287.312 30.2773H286.832C286.384 30.2773 285.93 30.1707 285.472 29.9573C285.024 29.7333 284.645 29.3867 284.336 28.9173C284.026 28.448 283.872 27.8613 283.872 27.1573V24.9173H285.904ZM285.808 27.2693C285.808 27.888 285.658 28.4267 285.36 28.8853C285.061 29.3333 284.666 29.68 284.176 29.9253C283.696 30.16 283.194 30.2773 282.672 30.2773H281.264V27.9733H282.672C283.109 27.9733 283.418 27.9147 283.6 27.7973C283.781 27.6693 283.872 27.456 283.872 27.1573L285.808 27.2693ZM281.184 32.2133C281.546 32.2133 281.909 32.2133 282.272 32.2133C282.624 32.2133 282.97 32.2133 283.312 32.2133C283.312 32.6933 283.312 33.0453 283.312 33.2693C283.312 33.504 283.312 33.8453 283.312 34.2933C282.832 34.2933 282.474 34.2933 282.24 34.2933C282.005 34.2933 281.653 34.2933 281.184 34.2933C281.184 33.824 281.184 33.472 281.184 33.2373C281.184 33.0133 281.184 32.672 281.184 32.2133ZM287.154 27.9733H288.322C288.696 27.9733 288.962 27.8987 289.122 27.7493C289.293 27.5893 289.378 27.3387 289.378 26.9973V24.9173H291.41V27.0453C291.41 27.3547 291.496 27.5893 291.666 27.7493C291.848 27.8987 292.093 27.9733 292.402 27.9733C292.733 27.9733 292.989 27.888 293.17 27.7173C293.352 27.5467 293.442 27.296 293.442 26.9653V24.9173H295.474L295.458 27.0453C295.458 27.3547 295.544 27.5893 295.714 27.7493C295.885 27.8987 296.12 27.9733 296.418 27.9733C296.749 27.9733 297.01 27.888 297.202 27.7173C297.394 27.536 297.474 27.2907 297.442 26.9813C297.378 26.5333 297.309 26.1173 297.234 25.7333C297.17 25.3387 297.085 24.88 296.978 24.3573L298.898 23.8773C299.026 24.4107 299.144 24.992 299.25 25.6213C299.368 26.2507 299.432 26.768 299.442 27.1733C299.453 27.7067 299.352 28.208 299.138 28.6773C298.936 29.1467 298.605 29.5307 298.146 29.8293C297.688 30.128 297.112 30.2773 296.418 30.2773C296.002 30.2773 295.629 30.1973 295.298 30.0373C294.968 29.8773 294.68 29.6533 294.434 29.3653C294.189 29.6427 293.885 29.8667 293.522 30.0373C293.17 30.1973 292.776 30.2773 292.338 30.2773C291.976 30.2773 291.592 30.1867 291.186 30.0053C290.792 29.824 290.504 29.6107 290.322 29.3653C290.13 29.6427 289.848 29.8667 289.474 30.0373C289.112 30.1973 288.701 30.2773 288.242 30.2773H287.154V27.9733ZM293.602 18.8053C294.018 18.8053 294.322 18.8053 294.514 18.8053C294.717 18.8053 295.021 18.8053 295.426 18.8053C295.426 19.2213 295.426 19.5307 295.426 19.7333C295.426 19.9253 295.426 20.224 295.426 20.6293C295.01 20.6293 294.701 20.6293 294.498 20.6293C294.306 20.6293 294.008 20.6293 293.602 20.6293C293.602 20.2133 293.602 19.9093 293.602 19.7173C293.602 19.5147 293.602 19.2107 293.602 18.8053ZM292.034 21.1093C292.322 21.1093 292.536 21.1093 292.674 21.1093C292.824 21.1093 293.042 21.1093 293.33 21.1093C293.533 21.1093 293.741 21.1093 293.954 21.1093C293.954 21.5467 293.954 21.872 293.954 22.0853C293.954 22.288 293.954 22.5973 293.954 23.0133C293.517 23.0133 293.192 23.0133 292.978 23.0133C292.776 23.0133 292.461 23.0133 292.034 23.0133C292.034 22.576 292.034 22.256 292.034 22.0533C292.034 21.8507 292.034 21.536 292.034 21.1093ZM295.074 21.1093C295.512 21.1093 295.832 21.1093 296.034 21.1093C296.248 21.1093 296.562 21.1093 296.978 21.1093C296.978 21.5467 296.978 21.872 296.978 22.0853C296.978 22.288 296.978 22.5973 296.978 23.0133C296.541 23.0133 296.221 23.0133 296.018 23.0133C295.816 23.0133 295.501 23.0133 295.074 23.0133C295.074 22.576 295.074 22.256 295.074 22.0533C295.074 21.8507 295.074 21.536 295.074 21.1093ZM307.393 30.2773C306.636 30.2773 305.99 30.0907 305.457 29.7173C304.934 29.344 304.561 28.8587 304.337 28.2613C304.113 27.6533 304.065 27.0187 304.193 26.3573C304.342 25.5787 304.497 24.8587 304.657 24.1973L306.529 24.6613L306.433 25.0933C306.252 25.8507 306.145 26.3893 306.113 26.7093C306.06 27.0827 306.145 27.3867 306.369 27.6213C306.593 27.856 306.934 27.9733 307.393 27.9733H314.273C314.71 27.9733 315.03 27.8773 315.233 27.6853C315.446 27.4933 315.548 27.2373 315.537 26.9173C315.526 26.4373 315.388 25.5467 315.121 24.2453L317.041 23.7653C317.393 25.28 317.569 26.384 317.569 27.0773C317.569 27.6107 317.446 28.1227 317.201 28.6133C316.966 29.104 316.614 29.504 316.145 29.8133C315.676 30.1227 315.105 30.2773 314.433 30.2773H307.393ZM308.433 22.5973C308.71 22.5973 308.918 22.5973 309.057 22.5973C309.206 22.5973 309.425 22.5973 309.713 22.5973C309.916 22.5973 310.124 22.5973 310.337 22.5973C310.337 23.0347 310.337 23.3547 310.337 23.5573C310.337 23.76 310.337 24.0747 310.337 24.5013C309.9 24.5013 309.574 24.5013 309.361 24.5013C309.158 24.5013 308.849 24.5013 308.433 24.5013C308.433 24.064 308.433 23.744 308.433 23.5413C308.433 23.328 308.433 23.0133 308.433 22.5973ZM311.425 22.5973C311.862 22.5973 312.182 22.5973 312.385 22.5973C312.598 22.5973 312.918 22.5973 313.345 22.5973C313.345 23.0347 313.345 23.3547 313.345 23.5573C313.345 23.76 313.345 24.0747 313.345 24.5013C312.908 24.5013 312.582 24.5013 312.369 24.5013C312.166 24.5013 311.852 24.5013 311.425 24.5013C311.425 24.064 311.425 23.744 311.425 23.5413C311.425 23.328 311.425 23.0133 311.425 22.5973ZM322.695 30.2773C321.938 30.2773 321.314 30.128 320.823 29.8293C320.343 29.52 319.991 29.0987 319.767 28.5653C319.543 28.032 319.431 27.4027 319.431 26.6773V19.5893H321.463V26.6773C321.463 27.0827 321.484 27.3707 321.527 27.5413C321.58 27.712 321.687 27.8293 321.847 27.8933C322.018 27.9467 322.3 27.9733 322.695 27.9733H323.271L323.367 29.1573L323.271 30.2773H322.695ZM330.772 30.2773H323.107V27.9733H330.772V30.2773ZM329.252 29.9573C328.313 29.9573 327.481 29.8027 326.756 29.4933C326.03 29.1733 325.465 28.7413 325.06 28.1973C324.654 27.6533 324.452 27.056 324.452 26.4053C324.452 25.808 324.596 25.2533 324.884 24.7413C325.172 24.2187 325.561 23.808 326.052 23.5093C326.553 23.2 327.102 23.0453 327.7 23.0453C328.212 23.0453 328.638 23.1147 328.98 23.2533C329.332 23.392 329.817 23.6533 330.436 24.0373L330.644 24.1813L329.716 25.8773C329.641 25.824 329.561 25.776 329.476 25.7333C329.028 25.488 328.686 25.3227 328.452 25.2373C328.228 25.152 327.972 25.1147 327.684 25.1253C327.332 25.136 327.028 25.264 326.772 25.5093C326.516 25.744 326.388 26.032 326.388 26.3733C326.388 26.6933 326.484 26.9707 326.676 27.2053C326.868 27.44 327.177 27.6267 327.604 27.7653C328.03 27.904 328.58 27.9733 329.252 27.9733V29.9573ZM340.795 30.2773C340.357 30.2773 339.925 30.1707 339.499 29.9573C339.083 29.7333 338.736 29.392 338.459 28.9333C338.181 28.464 338.043 27.872 338.043 27.1573H339.867C339.867 27.4453 339.941 27.6533 340.091 27.7813C340.24 27.9093 340.475 27.9733 340.795 27.9733H341.163L341.291 29.0933L341.163 30.2773H340.795ZM332.363 27.9733H336.795C337.136 27.9733 337.392 27.8933 337.563 27.7333C337.744 27.5627 337.835 27.3013 337.835 26.9493V19.5893H339.867V27.1573C339.867 27.8613 339.712 28.448 339.403 28.9173C339.093 29.3867 338.709 29.7333 338.251 29.9573C337.803 30.1707 337.355 30.2773 336.907 30.2773H332.363V27.9733ZM332.587 19.9093L334.619 19.7653L335.083 26.8213L333.035 26.9653L332.587 19.9093ZM340.998 27.9733H347.494C348.017 27.9733 348.417 27.872 348.694 27.6693C348.971 27.4667 349.11 27.152 349.11 26.7253C349.11 26.3093 348.998 25.9733 348.774 25.7173C348.561 25.4507 348.23 25.3173 347.782 25.3173C347.526 25.3173 347.302 25.36 347.11 25.4453C346.918 25.5307 346.731 25.664 346.55 25.8453C346.379 26.016 346.182 26.2507 345.958 26.5493L343.734 29.5253L342.246 28.4533L344.23 25.4933C344.817 24.64 345.382 24.016 345.926 23.6213C346.481 23.216 347.11 23.0133 347.814 23.0133C348.529 23.0133 349.131 23.1893 349.622 23.5413C350.113 23.8827 350.481 24.336 350.726 24.9013C350.982 25.4667 351.11 26.08 351.11 26.7413C351.11 27.392 350.961 27.9893 350.662 28.5333C350.363 29.0667 349.937 29.4933 349.382 29.8133C348.838 30.1227 348.209 30.2773 347.494 30.2773H340.998V27.9733ZM342.998 19.5893H345.03V27.1573L343.014 27.9733L342.998 19.5893ZM353.092 19.5893H355.124V30.2773H353.092V19.5893ZM363.252 30.2773C362.505 30.2773 361.865 30.0907 361.332 29.7173C360.798 29.344 360.42 28.8587 360.196 28.2613C359.982 27.6533 359.94 27.0187 360.068 26.3573C360.206 25.5787 360.356 24.8587 360.516 24.1973L362.388 24.6613L362.292 25.0933C362.121 25.8507 362.014 26.3893 361.972 26.7093C361.929 27.0827 362.014 27.3867 362.228 27.6213C362.452 27.856 362.793 27.9733 363.252 27.9733H370.212C370.66 27.9733 370.969 27.9147 371.14 27.7973C371.321 27.6693 371.412 27.456 371.412 27.1573V24.9173H373.46V27.2373C373.46 27.5147 373.529 27.7067 373.668 27.8133C373.817 27.92 374.052 27.9733 374.372 27.9733H374.852L374.948 29.1573L374.852 30.2773H374.372C374.041 30.2773 373.694 30.2133 373.332 30.0853C372.969 29.9467 372.649 29.7387 372.372 29.4613C372.126 29.728 371.817 29.9307 371.444 30.0693C371.07 30.208 370.66 30.2773 370.212 30.2773H363.252ZM364.548 22.5973C364.825 22.5973 365.033 22.5973 365.172 22.5973C365.321 22.5973 365.54 22.5973 365.828 22.5973C366.03 22.5973 366.238 22.5973 366.452 22.5973C366.452 23.0347 366.452 23.3547 366.452 23.5573C366.452 23.76 366.452 24.0747 366.452 24.5013C366.014 24.5013 365.689 24.5013 365.476 24.5013C365.273 24.5013 364.964 24.5013 364.548 24.5013C364.548 24.064 364.548 23.744 364.548 23.5413C364.548 23.328 364.548 23.0133 364.548 22.5973ZM367.54 22.5973C367.977 22.5973 368.297 22.5973 368.5 22.5973C368.713 22.5973 369.033 22.5973 369.46 22.5973C369.46 23.0347 369.46 23.3547 369.46 23.5573C369.46 23.76 369.46 24.0747 369.46 24.5013C369.022 24.5013 368.697 24.5013 368.484 24.5013C368.281 24.5013 367.966 24.5013 367.54 24.5013C367.54 24.064 367.54 23.744 367.54 23.5413C367.54 23.328 367.54 23.0133 367.54 22.5973ZM374.686 27.9733H377.31H377.406C378.12 27.9733 378.632 27.9307 378.942 27.8453C379.251 27.7493 379.454 27.5893 379.55 27.3653C379.656 27.1307 379.71 26.7467 379.71 26.2133V24.3253C379.71 23.952 379.614 23.6533 379.422 23.4293C379.24 23.1947 378.958 23.0773 378.574 23.0773C378.2 23.0773 377.918 23.1947 377.726 23.4293C377.534 23.664 377.438 23.9627 377.438 24.3253C377.438 24.592 377.518 24.8107 377.678 24.9813C377.838 25.1413 378.104 25.264 378.478 25.3493L380.606 25.8933L380.318 27.8453L378.27 27.5093C377.662 27.392 377.155 27.216 376.75 26.9813C376.344 26.736 376.035 26.4 375.822 25.9733C375.608 25.536 375.502 24.992 375.502 24.3413C375.502 23.6693 375.635 23.0773 375.902 22.5653C376.179 22.0533 376.547 21.6587 377.006 21.3813C377.475 21.0933 377.992 20.9493 378.558 20.9493C379.166 20.9493 379.699 21.0933 380.158 21.3813C380.616 21.6587 380.974 22.0533 381.23 22.5653C381.496 23.0667 381.63 23.6587 381.63 24.3413V25.6053C381.63 26.512 381.496 27.312 381.23 28.0053C380.963 28.6987 380.51 29.2533 379.87 29.6693C379.23 30.0747 378.376 30.2773 377.31 30.2773H374.686V27.9733ZM377.518 17.9573C377.88 17.9573 378.243 17.9573 378.606 17.9573C378.947 17.9573 379.294 17.9573 379.646 17.9573C379.646 18.4267 379.646 18.7787 379.646 19.0133C379.646 19.2373 379.646 19.5787 379.646 20.0373C379.155 20.0373 378.792 20.0373 378.558 20.0373C378.334 20.0373 377.987 20.0373 377.518 20.0373C377.518 19.568 377.518 19.2213 377.518 18.9973C377.518 18.7627 377.518 18.416 377.518 17.9573ZM386.742 30.2773C385.985 30.2773 385.361 30.128 384.87 29.8293C384.39 29.52 384.038 29.0987 383.814 28.5653C383.59 28.032 383.478 27.4027 383.478 26.6773V19.5893H385.51V26.6773C385.51 27.0827 385.531 27.3707 385.574 27.5413C385.627 27.712 385.734 27.8293 385.894 27.8933C386.065 27.9467 386.347 27.9733 386.742 27.9733H387.318L387.414 29.1573L387.318 30.2773H386.742ZM387.138 27.9733H388.914C389.394 27.9733 389.736 27.8933 389.938 27.7333C390.141 27.5627 390.232 27.3227 390.21 27.0133C390.189 26.7147 390.136 26.3147 390.05 25.8133C389.976 25.312 389.89 24.8267 389.794 24.3573L391.714 23.8773C391.842 24.4107 391.96 24.992 392.066 25.6213C392.184 26.2507 392.242 26.768 392.242 27.1733C392.253 27.7067 392.141 28.2133 391.906 28.6933C391.672 29.1627 391.314 29.5467 390.834 29.8453C390.365 30.1333 389.778 30.2773 389.074 30.2773H387.138V27.9733ZM386.242 32.2453C386.52 32.2453 386.733 32.2453 386.882 32.2453C387.021 32.2453 387.234 32.2453 387.522 32.2453C387.725 32.2453 387.933 32.2453 388.146 32.2453C388.146 32.6827 388.146 33.0027 388.146 33.2053C388.146 33.408 388.146 33.7227 388.146 34.1493C387.709 34.1493 387.389 34.1493 387.186 34.1493C386.973 34.1493 386.658 34.1493 386.242 34.1493C386.242 33.712 386.242 33.3867 386.242 33.1733C386.242 32.9707 386.242 32.6613 386.242 32.2453ZM389.234 32.2453C389.672 32.2453 389.992 32.2453 390.194 32.2453C390.408 32.2453 390.728 32.2453 391.154 32.2453C391.154 32.6827 391.154 33.0027 391.154 33.2053C391.154 33.408 391.154 33.7227 391.154 34.1493C390.717 34.1493 390.392 34.1493 390.178 34.1493C389.976 34.1493 389.661 34.1493 389.234 34.1493C389.234 33.712 389.234 33.3867 389.234 33.1733C389.234 32.9707 389.234 32.6613 389.234 32.2453ZM398.679 24.9173V29.4293C398.679 30.4427 398.498 31.3173 398.135 32.0533C397.783 32.7893 397.26 33.3493 396.567 33.7333C395.884 34.1173 395.047 34.3093 394.055 34.3093H393.047V32.0053H394.055C394.727 32.0053 395.244 31.9253 395.607 31.7653C395.98 31.616 396.242 31.3547 396.391 30.9813C396.551 30.6187 396.631 30.1013 396.631 29.4293V24.9173H398.679ZM404.881 22.8853C405.212 23.3867 405.5 23.8347 405.745 24.2293C406.001 24.6133 406.278 25.0453 406.577 25.5253C406.961 26.144 407.164 26.768 407.185 27.3973C407.206 28.0267 407.062 28.5653 406.753 29.0133C406.433 29.472 406.044 29.7973 405.585 29.9893C405.126 30.1813 404.572 30.2773 403.921 30.2773H403.073C402.401 30.2773 401.809 30.1707 401.297 29.9573C400.785 29.7333 400.385 29.4933 400.097 29.2373L401.057 27.3973L401.105 27.4453C401.35 27.5733 401.628 27.696 401.937 27.8133C402.257 27.92 402.641 27.9733 403.089 27.9733H403.873C404.225 27.9733 404.492 27.9467 404.673 27.8933C404.865 27.84 405.004 27.7547 405.089 27.6373C405.164 27.52 405.185 27.392 405.153 27.2533C405.121 27.104 405.03 26.912 404.881 26.6773C403.996 25.3333 403.18 24.1173 402.433 23.0293L404.145 21.7493L404.881 22.8853Z" fill="#263238"/>
<path d="M273.692 54.3753C273.794 54.618 274.116 55.3227 274.658 56.4893C274.826 56.8533 274.994 57.222 275.162 57.5953C275.386 58.062 275.521 58.524 275.568 58.9813C275.624 59.4293 275.516 59.8447 275.246 60.2273C274.966 60.6287 274.625 60.904 274.224 61.0533C273.832 61.2027 273.407 61.2773 272.95 61.2773H272.236C271.732 61.2773 271.284 61.2027 270.892 61.0533C270.5 60.8947 270.164 60.7173 269.884 60.5213L270.458 59.4573L270.528 59.4993C270.77 59.6393 271.022 59.7607 271.284 59.8633C271.545 59.966 271.862 60.0173 272.236 60.0173H272.95C273.286 60.0173 273.57 59.98 273.804 59.9053C274.037 59.8213 274.219 59.686 274.35 59.4993C274.471 59.3313 274.513 59.154 274.476 58.9673C274.448 58.7713 274.35 58.4913 274.182 58.1273L273.23 56.0833C273.015 55.6447 272.833 55.2527 272.684 54.9073L273.692 54.3753ZM275.176 57.6093C275.446 58.216 275.68 58.6873 275.876 59.0233C276.081 59.3593 276.296 59.6113 276.52 59.7793C276.744 59.938 277.005 60.0173 277.304 60.0173H277.528L277.598 60.6893L277.528 61.2773H277.304C276.828 61.2773 276.408 61.1513 276.044 60.8993C275.68 60.638 275.353 60.2833 275.064 59.8353C274.784 59.3873 274.485 58.8133 274.168 58.1133L275.176 57.6093ZM281.109 56.9653V58.9533C281.109 59.336 281.202 59.6113 281.389 59.7793C281.576 59.938 281.87 60.0173 282.271 60.0173H282.789L282.859 60.6613L282.789 61.2773H282.271C281.944 61.2773 281.604 61.1933 281.249 61.0253C280.904 60.848 280.61 60.5727 280.367 60.1993C280.134 59.826 280.017 59.3547 280.017 58.7853V56.9653H281.109ZM280.913 59.0233C280.913 59.5273 280.796 59.9473 280.563 60.2833C280.339 60.6193 280.05 60.8713 279.695 61.0393C279.34 61.198 278.976 61.2773 278.603 61.2773H277.385V60.0173H278.603C279.079 60.0173 279.434 59.9193 279.667 59.7233C279.9 59.5273 280.017 59.2147 280.017 58.7853L280.913 59.0233ZM278.491 53.9833C278.734 53.9833 278.972 53.9833 279.205 53.9833C279.438 53.9833 279.667 53.9833 279.891 53.9833C279.891 54.3007 279.891 54.5387 279.891 54.6973C279.891 54.8467 279.891 55.0753 279.891 55.3833C279.574 55.3833 279.336 55.3833 279.177 55.3833C279.028 55.3833 278.799 55.3833 278.491 55.3833C278.491 55.066 278.491 54.8327 278.491 54.6833C278.491 54.5247 278.491 54.2913 278.491 53.9833ZM282.649 60.0173H284.539C285.08 60.0173 285.458 59.924 285.673 59.7373C285.897 59.5507 285.999 59.2893 285.981 58.9533C285.962 58.6827 285.906 58.3 285.813 57.8053C285.729 57.3107 285.64 56.8487 285.547 56.4193L286.611 56.1393C286.713 56.5687 286.811 57.0587 286.905 57.6093C286.998 58.1507 287.054 58.5893 287.073 58.9253C287.091 59.3267 287.007 59.7093 286.821 60.0733C286.643 60.428 286.359 60.7173 285.967 60.9413C285.584 61.1653 285.108 61.2773 284.539 61.2773H282.649V60.0173ZM282.103 63.4193C282.308 63.4193 282.467 63.4193 282.579 63.4193C282.681 63.4193 282.84 63.4193 283.055 63.4193C283.204 63.4193 283.353 63.4193 283.503 63.4193C283.503 63.7367 283.503 63.97 283.503 64.1193C283.503 64.278 283.503 64.5113 283.503 64.8193C283.185 64.8193 282.947 64.8193 282.789 64.8193C282.639 64.8193 282.411 64.8193 282.103 64.8193C282.103 64.502 282.103 64.264 282.103 64.1053C282.103 63.956 282.103 63.7273 282.103 63.4193ZM284.609 63.4193C284.926 63.4193 285.159 63.4193 285.309 63.4193C285.467 63.4193 285.701 63.4193 286.009 63.4193C286.009 63.7367 286.009 63.97 286.009 64.1193C286.009 64.278 286.009 64.5113 286.009 64.8193C285.691 64.8193 285.453 64.8193 285.295 64.8193C285.145 64.8193 284.917 64.8193 284.609 64.8193C284.609 64.502 284.609 64.264 284.609 64.1053C284.609 63.956 284.609 63.7273 284.609 63.4193ZM289.205 53.1713H290.409V61.2773H289.205V53.1713ZM286.867 52.9193C286.979 52.3873 287.227 51.958 287.609 51.6313C287.992 51.3047 288.505 51.1413 289.149 51.1413H291.879V52.1913H289.149C288.767 52.1913 288.468 52.2847 288.253 52.4713C288.039 52.6487 287.88 52.896 287.777 53.2133L286.867 52.9193ZM296.252 56.9653V60.9133C296.252 61.7533 296.107 62.4627 295.818 63.0413C295.538 63.62 295.122 64.0587 294.572 64.3573C294.021 64.656 293.349 64.8053 292.556 64.8053H291.674V63.5453H292.556C293.181 63.5453 293.68 63.4567 294.054 63.2793C294.436 63.102 294.716 62.822 294.894 62.4393C295.071 62.0567 295.16 61.548 295.16 60.9133V56.9653H296.252ZM296.252 58.9533C296.252 59.336 296.345 59.6113 296.532 59.7793C296.718 59.938 297.012 60.0173 297.414 60.0173H297.554L297.638 60.6613L297.554 61.2773H297.414C297.087 61.2773 296.788 61.2073 296.518 61.0673C296.247 60.9273 296.023 60.6847 295.846 60.3393C295.678 59.994 295.594 59.532 295.594 58.9533H296.252ZM297.414 60.0173H299.654H299.738C300.41 60.008 300.9 59.952 301.208 59.8493C301.526 59.7373 301.736 59.5553 301.838 59.3033C301.941 59.042 301.992 58.6407 301.992 58.0993V56.6713C301.992 56.242 301.885 55.9107 301.67 55.6773C301.465 55.4347 301.157 55.3133 300.746 55.3133C300.364 55.3133 300.06 55.4393 299.836 55.6913C299.612 55.934 299.5 56.2607 299.5 56.6713C299.5 57.0447 299.603 57.3247 299.808 57.5113C300.014 57.698 300.326 57.7913 300.746 57.7913H302.566V59.0513H300.746C300.317 59.0513 299.925 58.9533 299.57 58.7573C299.216 58.552 298.931 58.272 298.716 57.9173C298.511 57.5533 298.408 57.138 298.408 56.6713C298.408 56.2047 298.516 55.7707 298.73 55.3693C298.945 54.968 299.23 54.6507 299.584 54.4173C299.948 54.1747 300.336 54.0533 300.746 54.0533C301.194 54.0533 301.596 54.1747 301.95 54.4173C302.305 54.6507 302.58 54.968 302.776 55.3693C302.982 55.7707 303.084 56.2047 303.084 56.6713V58.0993C303.084 58.8087 302.982 59.3967 302.776 59.8633C302.571 60.3207 302.216 60.6707 301.712 60.9133C301.218 61.156 300.532 61.2773 299.654 61.2773H297.414V60.0173ZM300.032 51.4213C300.266 51.4213 300.504 51.4213 300.746 51.4213C300.98 51.4213 301.208 51.4213 301.432 51.4213C301.432 51.7387 301.432 51.9767 301.432 52.1353C301.432 52.2847 301.432 52.5133 301.432 52.8213C301.115 52.8213 300.877 52.8213 300.718 52.8213C300.569 52.8213 300.34 52.8213 300.032 52.8213C300.032 52.504 300.032 52.2707 300.032 52.1213C300.032 51.9627 300.032 51.7293 300.032 51.4213ZM311.599 64.8053C310.824 64.8053 310.166 64.614 309.625 64.2313C309.084 63.8487 308.673 63.3447 308.393 62.7193C308.122 62.094 307.987 61.4267 307.987 60.7173C307.987 60.26 308.057 59.7653 308.197 59.2333C308.346 58.7013 308.519 58.2253 308.715 57.8053L309.681 58.2813C309.513 58.636 309.368 59.0373 309.247 59.4853C309.135 59.9333 309.079 60.344 309.079 60.7173C309.079 61.268 309.168 61.7533 309.345 62.1733C309.522 62.6027 309.798 62.9387 310.171 63.1813C310.544 63.424 311.02 63.5453 311.599 63.5453H312.285C312.92 63.5453 313.414 63.4707 313.769 63.3213C314.124 63.1813 314.376 62.9527 314.525 62.6353C314.674 62.3273 314.749 61.9027 314.749 61.3613L314.735 52.1913H315.827L315.841 61.3613C315.841 62.444 315.556 63.2887 314.987 63.8953C314.418 64.502 313.517 64.8053 312.285 64.8053H311.599ZM317.073 61.2773C316.69 61.2773 316.345 61.1933 316.037 61.0253C315.729 60.8573 315.482 60.5913 315.295 60.2273C315.108 59.854 315.015 59.3873 315.015 58.8273H315.841C315.841 59.2753 315.948 59.588 316.163 59.7653C316.387 59.9333 316.69 60.0173 317.073 60.0173H317.283L317.367 60.6753L317.283 61.2773H317.073ZM321.174 56.9653V58.9533C321.174 59.336 321.267 59.6113 321.454 59.7793C321.641 59.938 321.935 60.0173 322.336 60.0173H323.05L323.12 60.6753L323.05 61.2773H322.336C322.009 61.2773 321.669 61.1933 321.314 61.0253C320.969 60.848 320.675 60.5727 320.432 60.1993C320.199 59.826 320.082 59.3547 320.082 58.7853V56.9653H321.174ZM320.978 59.0233C320.978 59.5273 320.861 59.9473 320.628 60.2833C320.404 60.6193 320.115 60.8713 319.76 61.0393C319.405 61.198 319.041 61.2773 318.668 61.2773H317.184V60.0173H318.668C319.144 60.0173 319.499 59.9193 319.732 59.7233C319.965 59.5273 320.082 59.2147 320.082 58.7853L320.978 59.0233ZM317.576 63.4193C317.781 63.4193 317.935 63.4193 318.038 63.4193C318.15 63.4193 318.313 63.4193 318.528 63.4193C318.677 63.4193 318.827 63.4193 318.976 63.4193C318.976 63.7367 318.976 63.97 318.976 64.1193C318.976 64.278 318.976 64.5113 318.976 64.8193C318.659 64.8193 318.421 64.8193 318.262 64.8193C318.113 64.8193 317.884 64.8193 317.576 64.8193C317.576 64.502 317.576 64.264 317.576 64.1053C317.576 63.956 317.576 63.7273 317.576 63.4193ZM320.082 63.4193C320.399 63.4193 320.633 63.4193 320.782 63.4193C320.941 63.4193 321.174 63.4193 321.482 63.4193C321.482 63.7367 321.482 63.97 321.482 64.1193C321.482 64.278 321.482 64.5113 321.482 64.8193C321.165 64.8193 320.927 64.8193 320.768 64.8193C320.619 64.8193 320.39 64.8193 320.082 64.8193C320.082 64.502 320.082 64.264 320.082 64.1053C320.082 63.956 320.082 63.7273 320.082 63.4193ZM322.912 60.0173H323.304C323.528 60.0173 323.706 59.9707 323.836 59.8773C323.976 59.7747 324.07 59.6253 324.116 59.4293L324.564 57.8193C324.77 57.0913 325.087 56.522 325.516 56.1113C325.946 55.6913 326.464 55.4813 327.07 55.4813C327.556 55.4813 327.985 55.626 328.358 55.9153C328.732 56.1953 329.021 56.578 329.226 57.0633C329.432 57.5393 329.534 58.0573 329.534 58.6173C329.534 59.308 329.436 59.8773 329.24 60.3253C329.044 60.764 328.788 61.0813 328.47 61.2773C328.162 61.4827 327.836 61.5853 327.49 61.5853C327.126 61.5853 326.758 61.5107 326.384 61.3613C326.011 61.212 325.423 60.932 324.62 60.5213L324.256 60.3393L324.76 59.2193C324.872 59.2753 324.98 59.3313 325.082 59.3873C325.838 59.77 326.361 60.022 326.65 60.1433C326.949 60.2647 327.229 60.3253 327.49 60.3253C327.808 60.3253 328.046 60.2087 328.204 59.9753C328.363 59.7327 328.442 59.28 328.442 58.6173C328.442 58.0293 328.326 57.572 328.092 57.2453C327.859 56.9093 327.518 56.7413 327.07 56.7413C326.734 56.7413 326.44 56.858 326.188 57.0913C325.946 57.3247 325.759 57.6793 325.628 58.1553L325.18 59.7653C325.096 60.064 324.956 60.33 324.76 60.5633C324.574 60.7873 324.35 60.9647 324.088 61.0953C323.836 61.2167 323.575 61.2773 323.304 61.2773H322.912V60.0173ZM330.626 60.6473L330.556 61.2773H330.416C329.959 61.2773 329.586 61.1653 329.296 60.9413C329.016 60.7173 328.811 60.4093 328.68 60.0173C328.55 59.6253 328.484 59.1587 328.484 58.6173H329.534C329.534 59.0093 329.567 59.308 329.632 59.5133C329.698 59.7093 329.791 59.8447 329.912 59.9193C330.034 59.9847 330.202 60.0173 330.416 60.0173H330.556L330.626 60.6473ZM336.984 52.8913L332.574 54.8373L334.618 57.4273C335.001 57.9127 335.202 58.4633 335.22 59.0793C335.239 59.686 335.057 60.204 334.674 60.6333C334.301 61.0627 333.755 61.2773 333.036 61.2773H330.418V60.0173H333.036C333.466 60.0173 333.783 59.938 333.988 59.7793C334.203 59.6207 334.292 59.4107 334.254 59.1493C334.226 58.8787 334.086 58.594 333.834 58.2953L331.384 55.3273L331.72 53.8573L336.536 51.7433L336.984 52.8913ZM338.104 60.6473L338.034 61.2773H337.768C337.255 61.2773 336.826 61.198 336.48 61.0393C336.144 60.8713 335.818 60.6193 335.5 60.2833C335.192 59.938 334.716 59.3547 334.072 58.5333L333.806 58.1833L334.618 57.4273L334.968 57.8753C335.5 58.5567 335.892 59.0373 336.144 59.3173C336.406 59.588 336.648 59.7747 336.872 59.8773C337.096 59.9707 337.395 60.0173 337.768 60.0173H338.034L338.104 60.6473ZM337.897 60.0173H339.787C340.328 60.0173 340.706 59.924 340.921 59.7373C341.145 59.5507 341.247 59.2893 341.229 58.9533C341.21 58.6827 341.154 58.3 341.061 57.8053C340.977 57.3107 340.888 56.8487 340.795 56.4193L341.859 56.1393C341.961 56.5687 342.059 57.0587 342.153 57.6093C342.246 58.1507 342.302 58.5893 342.321 58.9253C342.339 59.3267 342.255 59.7093 342.069 60.0733C341.891 60.428 341.607 60.7173 341.215 60.9413C340.832 61.1653 340.356 61.2773 339.787 61.2773H337.897V60.0173ZM338.527 53.0873C338.732 53.0873 338.886 53.0873 338.989 53.0873C339.101 53.0873 339.264 53.0873 339.479 53.0873C339.628 53.0873 339.777 53.0873 339.927 53.0873C339.927 53.4047 339.927 53.6427 339.927 53.8013C339.927 53.9507 339.927 54.1793 339.927 54.4873C339.609 54.4873 339.371 54.4873 339.213 54.4873C339.063 54.4873 338.835 54.4873 338.527 54.4873C338.527 54.17 338.527 53.9367 338.527 53.7873C338.527 53.6287 338.527 53.3953 338.527 53.0873ZM341.033 53.0873C341.35 53.0873 341.583 53.0873 341.733 53.0873C341.891 53.0873 342.125 53.0873 342.433 53.0873C342.433 53.4047 342.433 53.6427 342.433 53.8013C342.433 53.9507 342.433 54.1793 342.433 54.4873C342.115 54.4873 341.877 54.4873 341.719 54.4873C341.569 54.4873 341.341 54.4873 341.033 54.4873C341.033 54.17 341.033 53.9367 341.033 53.7873C341.033 53.6287 341.033 53.3953 341.033 53.0873ZM348.401 57.3013C348.168 57.3013 347.967 57.222 347.799 57.0633C347.641 56.8953 347.561 56.6947 347.561 56.4613C347.561 56.228 347.641 56.032 347.799 55.8733C347.967 55.7053 348.168 55.6213 348.401 55.6213C348.635 55.6213 348.831 55.7053 348.989 55.8733C349.157 56.032 349.241 56.228 349.241 56.4613C349.241 56.6947 349.157 56.8953 348.989 57.0633C348.831 57.222 348.635 57.3013 348.401 57.3013ZM348.401 61.3193C348.168 61.3193 347.967 61.24 347.799 61.0813C347.641 60.9133 347.561 60.7127 347.561 60.4793C347.561 60.246 347.641 60.05 347.799 59.8913C347.967 59.7233 348.168 59.6393 348.401 59.6393C348.635 59.6393 348.831 59.7233 348.989 59.8913C349.157 60.05 349.241 60.246 349.241 60.4793C349.241 60.7127 349.157 60.9133 348.989 61.0813C348.831 61.24 348.635 61.3193 348.401 61.3193ZM354.779 54.3753C354.882 54.618 355.204 55.3227 355.745 56.4893C355.913 56.8533 356.081 57.222 356.249 57.5953C356.473 58.062 356.609 58.524 356.655 58.9813C356.711 59.4293 356.604 59.8447 356.333 60.2273C356.053 60.6287 355.713 60.904 355.311 61.0533C354.919 61.2027 354.495 61.2773 354.037 61.2773H353.323C352.819 61.2773 352.371 61.2027 351.979 61.0533C351.587 60.8947 351.251 60.7173 350.971 60.5213L351.545 59.4573L351.615 59.4993C351.858 59.6393 352.11 59.7607 352.371 59.8633C352.633 59.966 352.95 60.0173 353.323 60.0173H354.037C354.373 60.0173 354.658 59.98 354.891 59.9053C355.125 59.8213 355.307 59.686 355.437 59.4993C355.559 59.3313 355.601 59.154 355.563 58.9673C355.535 58.7713 355.437 58.4913 355.269 58.1273L354.317 56.0833C354.103 55.6447 353.921 55.2527 353.771 54.9073L354.779 54.3753ZM356.263 57.6093C356.534 58.216 356.767 58.6873 356.963 59.0233C357.169 59.3593 357.383 59.6113 357.607 59.7793C357.831 59.938 358.093 60.0173 358.391 60.0173H358.615L358.685 60.6893L358.615 61.2773H358.391C357.915 61.2773 357.495 61.1513 357.131 60.8993C356.767 60.638 356.441 60.2833 356.151 59.8353C355.871 59.3873 355.573 58.8133 355.255 58.1133L356.263 57.6093ZM358.473 60.0173H359.117C359.761 60.0173 360.293 59.994 360.713 59.9473C361.142 59.8913 361.506 59.8073 361.805 59.6953L360.797 58.3513C360.368 57.7727 360.032 57.3293 359.789 57.0213L360.685 55.6073H364.255C364.731 55.6073 365.118 55.78 365.417 56.1253C365.716 56.4707 365.856 56.8767 365.837 57.3433C365.818 57.8007 365.627 58.1927 365.263 58.5193L364.675 59.0513C364.376 59.3127 364.078 59.5787 363.779 59.8493C363.938 59.9147 364.106 59.9613 364.283 59.9893C364.47 60.008 364.698 60.0173 364.969 60.0173H366.691L366.789 60.6753L366.691 61.2773H364.969C364.465 61.2773 364.031 61.2213 363.667 61.1093C363.303 60.9973 362.976 60.834 362.687 60.6193C362.295 60.8433 361.819 61.0113 361.259 61.1233C360.708 61.226 359.994 61.2773 359.117 61.2773H358.473V60.0173ZM362.827 59.1913C363.023 59.014 363.308 58.7387 363.681 58.3653C363.97 58.076 364.255 57.8053 364.535 57.5533C364.656 57.4413 364.726 57.3247 364.745 57.2033C364.764 57.0727 364.722 56.97 364.619 56.8953C364.516 56.8113 364.367 56.7693 364.171 56.7693H360.937C361.142 57.012 361.46 57.4133 361.889 57.9733C362.216 58.4213 362.528 58.8273 362.827 59.1913ZM366.553 60.0173H368.093C368.522 60.0173 368.83 59.924 369.017 59.7373C369.213 59.5413 369.302 59.28 369.283 58.9533C369.264 58.6827 369.208 58.3 369.115 57.8053C369.031 57.3107 368.942 56.8487 368.849 56.4193L369.913 56.1393C370.016 56.5687 370.114 57.0587 370.207 57.6093C370.3 58.1507 370.356 58.5893 370.375 58.9253C370.394 59.3173 370.314 59.6953 370.137 60.0593C369.969 60.4233 369.708 60.7173 369.353 60.9413C369.008 61.1653 368.588 61.2773 368.093 61.2773H366.553V60.0173ZM366.903 63.4053C367.146 63.4053 367.384 63.4053 367.617 63.4053C367.85 63.4053 368.079 63.4053 368.303 63.4053C368.303 63.7227 368.303 63.956 368.303 64.1053C368.303 64.264 368.303 64.4973 368.303 64.8053C367.986 64.8053 367.748 64.8053 367.589 64.8053C367.44 64.8053 367.211 64.8053 366.903 64.8053C366.903 64.488 366.903 64.25 366.903 64.0913C366.903 63.942 366.903 63.7133 366.903 63.4053ZM380.726 58.5053C380.857 59.056 381.114 59.448 381.496 59.6813C381.888 59.9053 382.346 60.0173 382.868 60.0173H383.148L383.218 60.6473L383.148 61.2773H382.868C382.178 61.2773 381.524 61.0907 380.908 60.7173C380.292 60.3347 379.877 59.7 379.662 58.8133C379.289 57.236 378.916 55.6587 378.542 54.0813L379.606 53.8013L380.726 58.5053ZM380.32 56.8673C380.386 57.4553 380.39 57.9407 380.334 58.3233C380.288 58.706 380.166 59.0653 379.97 59.4013C379.728 59.8213 379.415 60.148 379.032 60.3813C378.65 60.6053 378.234 60.7173 377.786 60.7173C377.348 60.7173 376.923 60.596 376.512 60.3533C376.13 60.1293 375.826 59.8167 375.602 59.4153C375.378 59.0047 375.262 58.566 375.252 58.0993C375.252 57.6327 375.369 57.1987 375.602 56.7973C375.761 56.5173 375.948 56.284 376.162 56.0973C376.386 55.9013 376.732 55.6867 377.198 55.4533C377.674 55.2107 378.374 54.9027 379.298 54.5293L379.718 55.7053C379.009 55.9107 378.435 56.1207 377.996 56.3353C377.558 56.5407 377.231 56.732 377.016 56.9093C376.811 57.0867 376.657 57.264 376.554 57.4413C376.349 57.7867 376.293 58.132 376.386 58.4773C376.489 58.8133 376.704 59.084 377.03 59.2893C377.348 59.4853 377.707 59.5413 378.108 59.4573C378.519 59.364 378.85 59.1587 379.102 58.8413C379.261 58.6453 379.35 58.4213 379.368 58.1693C379.396 57.908 379.359 57.5113 379.256 56.9793L380.32 56.8673ZM383.014 60.0173H383.574C383.994 60.0173 384.307 59.9287 384.512 59.7513C384.727 59.5647 384.834 59.2427 384.834 58.7853V52.1913H385.912V58.7853C385.912 59.3547 385.791 59.826 385.548 60.1993C385.315 60.5727 385.025 60.848 384.68 61.0253C384.335 61.1933 383.999 61.2773 383.672 61.2773H383.014V60.0173ZM387.074 61.2773C386.747 61.2773 386.421 61.1933 386.094 61.0253C385.767 60.848 385.492 60.5727 385.268 60.1993C385.044 59.826 384.932 59.3547 384.932 58.7853L385.912 58.9533C385.912 59.336 386.005 59.6113 386.192 59.7793C386.379 59.938 386.673 60.0173 387.074 60.0173H387.592L387.662 60.6613L387.592 61.2773H387.074ZM387.401 60.0173H389.137C389.763 60.0173 390.346 59.9427 390.887 59.7933C391.429 59.6347 391.928 59.4387 392.385 59.2053C392.843 58.9627 393.417 58.6313 394.107 58.2113L394.569 57.9313L394.541 58.2393L393.673 57.8753C392.824 57.5207 392.143 57.2547 391.629 57.0773C391.125 56.8907 390.771 56.7973 390.565 56.7973C390.285 56.7973 390.066 56.8627 389.907 56.9933C389.758 57.1147 389.613 57.3667 389.473 57.7493L388.409 57.4133C388.633 56.7507 388.932 56.2747 389.305 55.9853C389.679 55.6867 390.099 55.5373 390.565 55.5373C390.883 55.5373 391.368 55.6587 392.021 55.9013C392.684 56.144 393.603 56.5127 394.779 57.0073C395.013 57.1007 395.241 57.194 395.465 57.2873L395.745 58.6173L395.003 59.0793C394.191 59.5927 393.519 59.994 392.987 60.2833C392.455 60.5727 391.867 60.8107 391.223 60.9973C390.589 61.184 389.893 61.2773 389.137 61.2773H387.401V60.0173ZM399.338 56.9653V60.9133C399.338 61.7533 399.193 62.4627 398.904 63.0413C398.624 63.62 398.208 64.0587 397.658 64.3573C397.107 64.656 396.435 64.8053 395.642 64.8053H394.76V63.5453H395.642C396.267 63.5453 396.766 63.4567 397.14 63.2793C397.522 63.102 397.802 62.822 397.98 62.4393C398.157 62.0567 398.246 61.548 398.246 60.9133V56.9653H399.338ZM399.338 58.9533C399.338 59.336 399.431 59.6113 399.618 59.7793C399.804 59.938 400.098 60.0173 400.5 60.0173H400.64L400.724 60.6613L400.64 61.2773H400.5C400.173 61.2773 399.874 61.2073 399.604 61.0673C399.333 60.9273 399.109 60.6847 398.932 60.3393C398.764 59.994 398.68 59.532 398.68 58.9533H399.338ZM400.5 60.0173H400.892C401.116 60.0173 401.294 59.9707 401.424 59.8773C401.564 59.7747 401.658 59.6253 401.704 59.4293L402.152 57.8193C402.358 57.0913 402.675 56.522 403.104 56.1113C403.534 55.6913 404.052 55.4813 404.658 55.4813C405.144 55.4813 405.573 55.626 405.946 55.9153C406.32 56.1953 406.609 56.578 406.814 57.0633C407.02 57.5393 407.122 58.0573 407.122 58.6173C407.122 59.308 407.024 59.8773 406.828 60.3253C406.632 60.764 406.376 61.0813 406.058 61.2773C405.75 61.4827 405.424 61.5853 405.078 61.5853C404.714 61.5853 404.346 61.5107 403.972 61.3613C403.599 61.212 403.011 60.932 402.208 60.5213L401.844 60.3393L402.348 59.2193C402.46 59.2753 402.568 59.3313 402.67 59.3873C403.426 59.77 403.949 60.022 404.238 60.1433C404.537 60.2647 404.817 60.3253 405.078 60.3253C405.396 60.3253 405.634 60.2087 405.792 59.9753C405.951 59.7327 406.03 59.28 406.03 58.6173C406.03 58.0293 405.914 57.572 405.68 57.2453C405.447 56.9093 405.106 56.7413 404.658 56.7413C404.322 56.7413 404.028 56.858 403.776 57.0913C403.534 57.3247 403.347 57.6793 403.216 58.1553L402.768 59.7653C402.684 60.064 402.544 60.33 402.348 60.5633C402.162 60.7873 401.938 60.9647 401.676 61.0953C401.424 61.2167 401.163 61.2773 400.892 61.2773H400.5V60.0173Z" fill="#98AFBA"/>
<defs>
<linearGradient id="paint0_linear_2113_19917" x1="70" y1="35.2773" x2="0" y2="35.2773" gradientUnits="userSpaceOnUse">
<stop stop-color="#007DC0"/>
<stop offset="1" stop-color="#00B8E7"/>
</linearGradient>
<clipPath id="clip0_2113_19917">
<rect width="70" height="70" fill="white" transform="translate(0 0.277344)"/>
</clipPath>
</defs>
</svg>
