<svg width="326" height="73" viewBox="0 0 326 73" fill="none" xmlns="http://www.w3.org/2000/svg">
<path d="M145.796 20.6787H143.876L143.616 10.6787H146.056L145.796 20.6787ZM144.836 25.4987C144.41 25.4987 144.05 25.3587 143.756 25.0787C143.476 24.7853 143.336 24.4187 143.336 23.9787C143.336 23.5653 143.476 23.2187 143.756 22.9387C144.05 22.6453 144.41 22.4987 144.836 22.4987C145.25 22.4987 145.603 22.6453 145.896 22.9387C146.19 23.2187 146.336 23.5653 146.336 23.9787C146.336 24.4187 146.19 24.7853 145.896 25.0787C145.603 25.3587 145.25 25.4987 144.836 25.4987ZM151.978 20.0587C151.618 20.8453 151.338 21.5987 151.138 22.3187C150.951 23.0253 150.858 23.6787 150.858 24.2787C150.871 24.9853 150.991 25.5853 151.218 26.0787C151.458 26.5853 151.818 26.972 152.298 27.2387C152.778 27.5187 153.404 27.6587 154.178 27.6587H156.038C156.718 27.6587 157.284 27.6053 157.738 27.4987C158.204 27.392 158.544 27.2453 158.758 27.0587C158.984 26.872 159.104 26.6653 159.118 26.4387C159.118 26.2787 159.064 26.1253 158.958 25.9787C158.851 25.832 158.651 25.7053 158.358 25.5987C158.091 25.4787 157.751 25.3853 157.338 25.3187C156.938 25.252 156.471 25.1987 155.938 25.1587C155.764 25.1453 155.504 25.1387 155.158 25.1387V22.6187H161.798L161.938 23.8387L161.798 25.1387H160.898C161.031 25.2987 161.131 25.4853 161.198 25.6987C161.278 25.9253 161.318 26.1653 161.318 26.4187C161.304 27.072 161.084 27.6787 160.658 28.2387C160.244 28.812 159.644 29.2787 158.858 29.6387C158.071 29.9987 157.131 30.1787 156.038 30.1787H154.178C153.044 30.1787 152.064 29.912 151.238 29.3787C150.424 28.8587 149.798 28.152 149.358 27.2587C148.918 26.3653 148.691 25.3787 148.678 24.2987C148.664 23.5253 148.791 22.672 149.058 21.7387C149.324 20.792 149.658 19.892 150.058 19.0387L151.978 20.0587ZM166.161 21.3587C166.161 22.212 165.975 22.9253 165.601 23.4987C165.228 24.0587 164.768 24.472 164.221 24.7387C163.688 25.0053 163.161 25.1387 162.641 25.1387H161.601V22.6187H162.481C162.975 22.6187 163.341 22.512 163.581 22.2987C163.835 22.072 163.961 21.6987 163.961 21.1787V11.9187H166.161V21.3587ZM173.155 25.1387C172.222 25.1387 171.469 24.9587 170.895 24.5987C170.322 24.2253 169.909 23.712 169.655 23.0587C169.402 22.4053 169.275 21.632 169.275 20.7387L169.255 11.9187H171.455L171.475 20.7387C171.475 21.312 171.509 21.7253 171.575 21.9787C171.655 22.2187 171.802 22.3853 172.015 22.4787C172.242 22.572 172.622 22.6187 173.155 22.6187H173.735L173.835 23.9187L173.735 25.1387H173.155ZM183.095 25.1387H173.535V22.6187H183.095V25.1387ZM181.215 24.7787C180.068 24.7787 179.055 24.592 178.175 24.2187C177.295 23.832 176.608 23.312 176.115 22.6587C175.635 21.992 175.395 21.2653 175.395 20.4787C175.395 19.7587 175.568 19.092 175.915 18.4787C176.261 17.8653 176.728 17.3787 177.315 17.0187C177.915 16.6453 178.568 16.4587 179.275 16.4587C179.901 16.4587 180.428 16.552 180.855 16.7387C181.281 16.912 181.848 17.2253 182.555 17.6787L182.875 17.8787L181.835 19.7187C181.728 19.6653 181.628 19.612 181.535 19.5587C180.948 19.2387 180.508 19.0253 180.215 18.9187C179.935 18.812 179.615 18.7587 179.255 18.7587C178.775 18.772 178.361 18.9387 178.015 19.2587C177.681 19.5787 177.515 19.9787 177.515 20.4587C177.515 20.872 177.641 21.2453 177.895 21.5787C178.148 21.8987 178.548 22.152 179.095 22.3387C179.641 22.5253 180.348 22.6187 181.215 22.6187V24.7787Z" fill="#02B23D"/>
<path d="M3.18794 60.1387C2.92127 60.1387 2.69194 60.048 2.49994 59.8667C2.3186 59.6747 2.22794 59.4453 2.22794 59.1787C2.22794 58.912 2.3186 58.688 2.49994 58.5067C2.69194 58.3147 2.92127 58.2187 3.18794 58.2187C3.4546 58.2187 3.6786 58.3147 3.85994 58.5067C4.05194 58.688 4.14794 58.912 4.14794 59.1787C4.14794 59.4453 4.05194 59.6747 3.85994 59.8667C3.6786 60.048 3.4546 60.1387 3.18794 60.1387ZM10.6754 52.2507C10.7928 52.528 11.1608 53.3333 11.7794 54.6667C11.9714 55.0827 12.1634 55.504 12.3554 55.9307C12.6114 56.464 12.7661 56.992 12.8194 57.5147C12.8834 58.0267 12.7608 58.5013 12.4514 58.9387C12.1314 59.3973 11.7421 59.712 11.2834 59.8827C10.8354 60.0533 10.3501 60.1387 9.82744 60.1387H9.01144C8.43544 60.1387 7.92344 60.0533 7.47544 59.8827C7.02744 59.7013 6.64344 59.4987 6.32344 59.2747L6.97944 58.0587L7.05944 58.1067C7.33677 58.2667 7.62477 58.4053 7.92344 58.5227C8.2221 58.64 8.58477 58.6987 9.01144 58.6987H9.82744C10.2114 58.6987 10.5368 58.656 10.8034 58.5707C11.0701 58.4747 11.2781 58.32 11.4274 58.1067C11.5661 57.9147 11.6141 57.712 11.5714 57.4987C11.5394 57.2747 11.4274 56.9547 11.2354 56.5387L10.1474 54.2027C9.9021 53.7013 9.6941 53.2533 9.52344 52.8587L10.6754 52.2507ZM12.3714 55.9467C12.6808 56.64 12.9474 57.1787 13.1714 57.5627C13.4061 57.9467 13.6514 58.2347 13.9074 58.4267C14.1634 58.608 14.4621 58.6987 14.8034 58.6987H15.0594L15.1394 59.4667L15.0594 60.1387H14.8034C14.2594 60.1387 13.7794 59.9947 13.3634 59.7067C12.9474 59.408 12.5741 59.0027 12.2434 58.4907C11.9234 57.9787 11.5821 57.3227 11.2194 56.5227L12.3714 55.9467ZM14.8966 58.6987H15.8726C16.3846 58.6987 16.7472 58.5867 16.9606 58.3627C17.1846 58.1387 17.2966 57.7813 17.2966 57.2907V55.2107H18.5446V57.4827C18.5446 57.9093 18.6459 58.2187 18.8486 58.4107C19.0619 58.592 19.3872 58.688 19.8246 58.6987C20.3366 58.688 20.6992 58.576 20.9126 58.3627C21.1366 58.1387 21.2486 57.7813 21.2486 57.2907V55.2107H22.4966V57.4827C22.4966 57.9093 22.5979 58.2187 22.8006 58.4107C23.0139 58.592 23.3392 58.688 23.7766 58.6987C24.2459 58.688 24.5872 58.576 24.8006 58.3627C25.0139 58.1387 25.1099 57.8453 25.0886 57.4827C25.0672 57.1733 25.0032 56.736 24.8966 56.1707C24.8006 55.6053 24.6992 55.0773 24.5926 54.5867L25.8086 54.2667C25.9259 54.7573 26.0379 55.3173 26.1446 55.9467C26.2512 56.5653 26.3152 57.0667 26.3366 57.4507C26.3579 57.888 26.2726 58.3147 26.0806 58.7307C25.8886 59.1467 25.5952 59.488 25.2006 59.7547C24.8059 60.0107 24.3312 60.1387 23.7766 60.1387C23.4352 60.1387 23.0832 60.0587 22.7206 59.8987C22.3686 59.728 22.0646 59.4667 21.8086 59.1147C21.5526 59.456 21.2592 59.712 20.9286 59.8827C20.5979 60.0533 20.2299 60.1387 19.8246 60.1387C19.4726 60.1387 19.1152 60.048 18.7526 59.8667C18.3899 59.6747 18.0912 59.424 17.8566 59.1147C17.6006 59.456 17.3019 59.712 16.9606 59.8827C16.6192 60.0533 16.2566 60.1387 15.8726 60.1387H14.8966V58.6987ZM20.9286 50.2987C20.9286 50.032 21.0246 49.8027 21.2166 49.6107C21.4192 49.408 21.6539 49.3067 21.9206 49.3067C22.1872 49.3067 22.4166 49.4027 22.6086 49.5947C22.8112 49.7867 22.9126 50.0213 22.9126 50.2987C22.9126 50.5653 22.8166 50.7947 22.6246 50.9867C22.4326 51.1787 22.1979 51.2747 21.9206 51.2747C21.6539 51.2747 21.4192 51.184 21.2166 51.0027C21.0246 50.8107 20.9286 50.576 20.9286 50.2987ZM19.5366 52.3147C19.5259 52.144 19.5686 51.984 19.6646 51.8347C19.7606 51.6747 19.8886 51.552 20.0486 51.4667C20.1872 51.3707 20.3472 51.3227 20.5286 51.3227C20.7952 51.3227 21.0246 51.424 21.2166 51.6267C21.4086 51.8187 21.5046 52.048 21.5046 52.3147C21.5046 52.5813 21.4086 52.816 21.2166 53.0187C21.0246 53.2107 20.7952 53.3067 20.5286 53.3067C20.2619 53.3067 20.0272 53.2107 19.8246 53.0187C19.6326 52.816 19.5366 52.5813 19.5366 52.3147ZM22.3366 52.3147C22.3366 52.048 22.4326 51.8187 22.6246 51.6267C22.8166 51.424 23.0459 51.3227 23.3126 51.3227C23.5792 51.3227 23.8086 51.424 24.0006 51.6267C24.2032 51.8187 24.3046 52.048 24.3046 52.3147C24.3046 52.5813 24.2032 52.816 24.0006 53.0187C23.8086 53.2107 23.5792 53.3067 23.3126 53.3067C23.0459 53.3067 22.8166 53.2107 22.6246 53.0187C22.4326 52.816 22.3366 52.5813 22.3366 52.3147ZM36.0608 64.1707C35.1755 64.1707 34.4235 63.952 33.8048 63.5147C33.1861 63.0773 32.7168 62.5013 32.3968 61.7867C32.0875 61.072 31.9328 60.3093 31.9328 59.4987C31.9328 58.976 32.0128 58.4107 32.1728 57.8027C32.3435 57.1947 32.5408 56.6507 32.7648 56.1707L33.8688 56.7147C33.6768 57.12 33.5115 57.5787 33.3728 58.0907C33.2448 58.6027 33.1808 59.072 33.1808 59.4987C33.1808 60.128 33.2821 60.6827 33.4848 61.1627C33.6875 61.6533 34.0021 62.0373 34.4288 62.3147C34.8555 62.592 35.3995 62.7307 36.0608 62.7307H36.8448C37.5701 62.7307 38.1355 62.6453 38.5408 62.4747C38.9461 62.3147 39.2341 62.0533 39.4048 61.6907C39.5755 61.3387 39.6608 60.8533 39.6608 60.2347L39.6448 49.7547H40.8928L40.9088 60.2347C40.9088 61.472 40.5835 62.4373 39.9328 63.1307C39.2821 63.824 38.2528 64.1707 36.8448 64.1707H36.0608ZM42.3168 60.1387C41.8795 60.1387 41.4848 60.0427 41.1328 59.8507C40.7808 59.6587 40.4981 59.3547 40.2848 58.9387C40.0715 58.512 39.9648 57.9787 39.9648 57.3387H40.9088C40.9088 57.8507 41.0315 58.208 41.2768 58.4107C41.5328 58.6027 41.8795 58.6987 42.3168 58.6987H42.5568L42.6528 59.4507L42.5568 60.1387H42.3168ZM48.8754 55.8667C49.3981 55.0453 49.9154 54.4587 50.4274 54.1067C50.9501 53.7547 51.5688 53.5787 52.2834 53.5787C52.8808 53.5787 53.3928 53.7333 53.8194 54.0427C54.2568 54.352 54.5874 54.768 54.8114 55.2907C55.0461 55.8027 55.1634 56.3627 55.1634 56.9707C55.1634 57.6107 55.0141 58.1707 54.7154 58.6507C54.4168 59.1307 54.0168 59.4987 53.5154 59.7547C53.0141 60.0107 52.4701 60.1387 51.8834 60.1387H47.8034C47.5048 60.1387 47.1581 60.0693 46.7634 59.9307C46.3688 59.792 46.0114 59.5307 45.6914 59.1467C45.3821 58.7627 45.2274 58.2347 45.2274 57.5627V55.2107H46.4754V57.5627C46.4754 57.9893 46.6088 58.288 46.8754 58.4587C47.1528 58.6187 47.4621 58.6987 47.8034 58.6987H51.8834C52.5234 58.6987 53.0194 58.5547 53.3714 58.2667C53.7341 57.968 53.9154 57.536 53.9154 56.9707C53.9154 56.352 53.7821 55.872 53.5154 55.5307C53.2488 55.1893 52.8381 55.0187 52.2834 55.0187C51.9528 55.0187 51.6701 55.072 51.4354 55.1787C51.2114 55.2747 50.9874 55.4347 50.7634 55.6587C50.5394 55.8827 50.2514 56.2293 49.8994 56.6987C49.5368 57.1787 48.8594 58.128 47.8674 59.5467L46.8914 58.9067L48.8754 55.8667ZM46.4754 57.5627C46.4754 58.1387 46.3261 58.624 46.0274 59.0187C45.7394 59.4027 45.3714 59.6853 44.9234 59.8667C44.4861 60.048 44.0488 60.1387 43.6114 60.1387H42.4434V58.6987H43.6114C44.0914 58.6987 44.4808 58.608 44.7794 58.4267C45.0781 58.2347 45.2274 57.9467 45.2274 57.5627H46.4754ZM56.1714 60.1387C55.7768 60.1387 55.3928 60.0587 55.0194 59.8987C54.6568 59.7387 54.3581 59.5307 54.1234 59.2747C53.8994 59.008 53.7874 58.736 53.7874 58.4587L54.6674 57.7387C54.7314 58.0587 54.8914 58.2987 55.1474 58.4587C55.4034 58.6187 55.7448 58.6987 56.1714 58.6987H56.6834L56.7954 59.4187L56.6834 60.1387H56.1714ZM61.1128 55.2107V57.4827C61.1128 57.92 61.2195 58.2347 61.4328 58.4267C61.6461 58.608 61.9821 58.6987 62.4408 58.6987H63.2568L63.3368 59.4507L63.2568 60.1387H62.4408C62.0675 60.1387 61.6781 60.0427 61.2728 59.8507C60.8781 59.648 60.5421 59.3333 60.2648 58.9067C59.9981 58.48 59.8648 57.9413 59.8648 57.2907V55.2107H61.1128ZM60.8888 57.5627C60.8888 58.1387 60.7555 58.6187 60.4888 59.0027C60.2328 59.3867 59.9021 59.6747 59.4968 59.8667C59.0915 60.048 58.6755 60.1387 58.2488 60.1387H56.5528V58.6987H58.2488C58.7928 58.6987 59.1981 58.5867 59.4648 58.3627C59.7315 58.1387 59.8648 57.7813 59.8648 57.2907L60.8888 57.5627ZM57.2408 52.6027C57.2301 52.432 57.2728 52.272 57.3688 52.1227C57.4648 51.9627 57.5928 51.84 57.7528 51.7547C57.8915 51.6587 58.0515 51.6107 58.2328 51.6107C58.4035 51.6 58.5635 51.6427 58.7128 51.7387C58.8728 51.8347 58.9955 51.9573 59.0808 52.1067C59.1661 52.2773 59.2088 52.4427 59.2088 52.6027C59.2088 52.8693 59.1128 53.104 58.9208 53.3067C58.7288 53.4987 58.4995 53.5947 58.2328 53.5947C57.9661 53.5947 57.7315 53.4987 57.5288 53.3067C57.3368 53.104 57.2408 52.8693 57.2408 52.6027ZM59.9608 52.6027C59.9608 52.336 60.0568 52.1067 60.2488 51.9147C60.4408 51.712 60.6701 51.6107 60.9368 51.6107C61.2035 51.6107 61.4328 51.712 61.6248 51.9147C61.8275 52.1067 61.9288 52.336 61.9288 52.6027C61.9288 52.8693 61.8275 53.104 61.6248 53.3067C61.4328 53.4987 61.2035 53.5947 60.9368 53.5947C60.7661 53.6053 60.6061 53.5573 60.4568 53.4507C60.3075 53.376 60.1848 53.2587 60.0888 53.0987C60.0035 52.9387 59.9608 52.7733 59.9608 52.6027ZM63.0997 58.6987H63.5477C63.8037 58.6987 64.0064 58.6453 64.1557 58.5387C64.3157 58.4213 64.4224 58.2507 64.4757 58.0267L64.9877 56.1867C65.2224 55.3547 65.585 54.704 66.0757 54.2347C66.5664 53.7547 67.1584 53.5147 67.8517 53.5147C68.4064 53.5147 68.897 53.68 69.3237 54.0107C69.7504 54.3307 70.081 54.768 70.3157 55.3227C70.5504 55.8667 70.6677 56.4587 70.6677 57.0987C70.6677 57.888 70.5557 58.5387 70.3317 59.0507C70.1077 59.552 69.8144 59.9147 69.4517 60.1387C69.0997 60.3733 68.7264 60.4907 68.3317 60.4907C67.9157 60.4907 67.4944 60.4053 67.0677 60.2347C66.641 60.064 65.969 59.744 65.0517 59.2747L64.6357 59.0667L65.2117 57.7867C65.3397 57.8507 65.4624 57.9147 65.5797 57.9787C66.4437 58.416 67.041 58.704 67.3717 58.8427C67.713 58.9813 68.033 59.0507 68.3317 59.0507C68.6944 59.0507 68.9664 58.9173 69.1477 58.6507C69.329 58.3733 69.4197 57.856 69.4197 57.0987C69.4197 56.4267 69.2864 55.904 69.0197 55.5307C68.753 55.1467 68.3637 54.9547 67.8517 54.9547C67.4677 54.9547 67.1317 55.088 66.8437 55.3547C66.5664 55.6213 66.353 56.0267 66.2037 56.5707L65.6917 58.4107C65.5957 58.752 65.4357 59.056 65.2117 59.3227C64.9984 59.5787 64.7424 59.7813 64.4437 59.9307C64.1557 60.0693 63.857 60.1387 63.5477 60.1387H63.0997V58.6987ZM79.2849 48.3307H77.7969V61.3867H79.2849V62.5707H76.3409V47.1307H79.2849V48.3307ZM86.6728 56.9707C86.8221 57.6 87.1155 58.048 87.5528 58.3147C88.0008 58.5707 88.5235 58.6987 89.1208 58.6987H89.4408L89.5208 59.4187L89.4408 60.1387H89.1208C88.3315 60.1387 87.5848 59.9253 86.8808 59.4987C86.1768 59.0613 85.7021 58.336 85.4568 57.3227C85.0301 55.52 84.6035 53.7173 84.1768 51.9147L85.3928 51.5947L86.6728 56.9707ZM86.2088 55.0987C86.2835 55.7707 86.2888 56.3253 86.2248 56.7627C86.1715 57.2 86.0328 57.6107 85.8088 57.9947C85.5315 58.4747 85.1741 58.848 84.7368 59.1147C84.2995 59.3707 83.8248 59.4987 83.3128 59.4987C82.8115 59.4987 82.3261 59.36 81.8568 59.0827C81.4195 58.8267 81.0728 58.4693 80.8168 58.0107C80.5608 57.5413 80.4275 57.04 80.4168 56.5067C80.4168 55.9733 80.5501 55.4773 80.8168 55.0187C80.9981 54.6987 81.2115 54.432 81.4568 54.2187C81.7128 53.9947 82.1075 53.7493 82.6408 53.4827C83.1848 53.2053 83.9848 52.8533 85.0408 52.4267L85.5208 53.7707C84.7101 54.0053 84.0541 54.2453 83.5528 54.4907C83.0515 54.7253 82.6781 54.944 82.4328 55.1467C82.1981 55.3493 82.0221 55.552 81.9048 55.7547C81.6701 56.1493 81.6061 56.544 81.7128 56.9387C81.8301 57.3227 82.0755 57.632 82.4488 57.8667C82.8115 58.0907 83.2221 58.1547 83.6808 58.0587C84.1501 57.952 84.5288 57.7173 84.8168 57.3547C84.9981 57.1307 85.0995 56.8747 85.1208 56.5867C85.1528 56.288 85.1101 55.8347 84.9928 55.2267L86.2088 55.0987ZM96.7912 50.5547L91.7512 52.7787L94.0872 55.7387C94.5245 56.2933 94.7539 56.9227 94.7752 57.6267C94.7965 58.32 94.5885 58.912 94.1512 59.4027C93.7245 59.8933 93.1005 60.1387 92.2792 60.1387H89.2872V58.6987H92.2792C92.7699 58.6987 93.1325 58.608 93.3672 58.4267C93.6125 58.2453 93.7139 58.0053 93.6712 57.7067C93.6392 57.3973 93.4792 57.072 93.1912 56.7307L90.3912 53.3387L90.7752 51.6587L96.2792 49.2427L96.7912 50.5547ZM98.0712 59.4187L97.9912 60.1387H97.6872C97.1005 60.1387 96.6099 60.048 96.2152 59.8667C95.8312 59.6747 95.4579 59.3867 95.0952 59.0027C94.7432 58.608 94.1992 57.9413 93.4632 57.0027L93.1592 56.6027L94.0872 55.7387L94.4872 56.2507C95.0952 57.0293 95.5432 57.5787 95.8312 57.8987C96.1299 58.208 96.4072 58.4213 96.6632 58.5387C96.9192 58.6453 97.2605 58.6987 97.6872 58.6987H97.9912L98.0712 59.4187ZM102.09 55.2107V57.4827C102.09 57.92 102.197 58.2347 102.41 58.4267C102.623 58.608 102.959 58.6987 103.418 58.6987H104.01L104.09 59.4347L104.01 60.1387H103.418C103.045 60.1387 102.655 60.0427 102.25 59.8507C101.855 59.648 101.519 59.3333 101.242 58.9067C100.975 58.48 100.842 57.9413 100.842 57.2907V55.2107H102.09ZM101.866 57.5627C101.866 58.1387 101.733 58.6187 101.466 59.0027C101.21 59.3867 100.879 59.6747 100.474 59.8667C100.069 60.048 99.6527 60.1387 99.2261 60.1387H97.8341V58.6987H99.2261C99.7701 58.6987 100.175 58.5867 100.442 58.3627C100.709 58.1387 100.842 57.7813 100.842 57.2907L101.866 57.5627ZM97.8661 63.4027C97.8554 63.1147 97.9514 62.8747 98.1541 62.6827C98.3674 62.5013 98.6021 62.4107 98.8581 62.4107C99.1354 62.4107 99.3701 62.5067 99.5621 62.6987C99.7541 62.8907 99.8501 63.1253 99.8501 63.4027C99.8501 63.68 99.7541 63.9147 99.5621 64.1067C99.3701 64.2987 99.1354 64.3947 98.8581 64.3947C98.5807 64.3947 98.3461 64.2987 98.1541 64.1067C97.9621 63.9147 97.8661 63.68 97.8661 63.4027ZM103.85 58.6987H104.826C105.338 58.6987 105.7 58.5867 105.914 58.3627C106.138 58.1387 106.25 57.7813 106.25 57.2907V55.2107H107.498V57.4827C107.498 57.9093 107.599 58.2187 107.802 58.4107C108.015 58.592 108.34 58.688 108.778 58.6987C109.29 58.688 109.652 58.576 109.866 58.3627C110.09 58.1387 110.202 57.7813 110.202 57.2907V55.2107H111.45V57.4827C111.45 57.9093 111.551 58.2187 111.754 58.4107C111.967 58.592 112.292 58.688 112.73 58.6987C113.199 58.688 113.54 58.576 113.754 58.3627C113.967 58.1387 114.063 57.8453 114.042 57.4827C114.02 57.1733 113.956 56.736 113.85 56.1707C113.754 55.6053 113.652 55.0773 113.546 54.5867L114.762 54.2667C114.879 54.7573 114.991 55.3173 115.098 55.9467C115.204 56.5653 115.268 57.0667 115.29 57.4507C115.311 57.888 115.226 58.3147 115.034 58.7307C114.842 59.1467 114.548 59.488 114.154 59.7547C113.759 60.0107 113.284 60.1387 112.73 60.1387C112.388 60.1387 112.036 60.0587 111.674 59.8987C111.322 59.728 111.018 59.4667 110.762 59.1147C110.506 59.456 110.212 59.712 109.882 59.8827C109.551 60.0533 109.183 60.1387 108.778 60.1387C108.426 60.1387 108.068 60.048 107.706 59.8667C107.343 59.6747 107.044 59.424 106.81 59.1147C106.554 59.456 106.255 59.712 105.914 59.8827C105.572 60.0533 105.21 60.1387 104.826 60.1387H103.85V58.6987ZM109.882 50.2987C109.882 50.032 109.978 49.8027 110.17 49.6107C110.372 49.408 110.607 49.3067 110.874 49.3067C111.14 49.3067 111.37 49.4027 111.562 49.5947C111.764 49.7867 111.866 50.0213 111.866 50.2987C111.866 50.5653 111.77 50.7947 111.578 50.9867C111.386 51.1787 111.151 51.2747 110.874 51.2747C110.607 51.2747 110.372 51.184 110.17 51.0027C109.978 50.8107 109.882 50.576 109.882 50.2987ZM108.49 52.3147C108.479 52.144 108.522 51.984 108.618 51.8347C108.714 51.6747 108.842 51.552 109.002 51.4667C109.14 51.3707 109.3 51.3227 109.482 51.3227C109.748 51.3227 109.978 51.424 110.17 51.6267C110.362 51.8187 110.458 52.048 110.458 52.3147C110.458 52.5813 110.362 52.816 110.17 53.0187C109.978 53.2107 109.748 53.3067 109.482 53.3067C109.215 53.3067 108.98 53.2107 108.778 53.0187C108.586 52.816 108.49 52.5813 108.49 52.3147ZM111.29 52.3147C111.29 52.048 111.386 51.8187 111.578 51.6267C111.77 51.424 111.999 51.3227 112.266 51.3227C112.532 51.3227 112.762 51.424 112.954 51.6267C113.156 51.8187 113.258 52.048 113.258 52.3147C113.258 52.5813 113.156 52.816 112.954 53.0187C112.762 53.2107 112.532 53.3067 112.266 53.3067C111.999 53.3067 111.77 53.2107 111.578 53.0187C111.386 52.816 111.29 52.5813 111.29 52.3147ZM122.758 57.3547L123.35 55.2267C123.585 54.3947 123.947 53.744 124.438 53.2747C124.929 52.7947 125.521 52.5547 126.214 52.5547C126.769 52.5547 127.259 52.72 127.686 53.0507C128.113 53.3707 128.443 53.808 128.678 54.3627C128.913 54.9067 129.03 55.4987 129.03 56.1387C129.03 56.928 128.918 57.5787 128.694 58.0907C128.47 58.592 128.177 58.96 127.814 59.1947C127.462 59.4187 127.089 59.5307 126.694 59.5307C126.321 59.5307 125.867 59.4453 125.334 59.2747C124.801 59.104 124.011 58.8213 122.966 58.4267L122.134 58.1067V64.2987H120.886V57.5787L122.166 56.6027C122.55 56.752 122.838 56.8693 123.03 56.9547C123.915 57.296 124.678 57.5733 125.318 57.7867C125.969 57.9893 126.427 58.0907 126.694 58.0907C127.057 58.0907 127.329 57.9573 127.51 57.6907C127.691 57.4133 127.782 56.896 127.782 56.1387C127.782 55.4667 127.649 54.944 127.382 54.5707C127.115 54.1867 126.726 53.9947 126.214 53.9947C125.83 53.9947 125.499 54.128 125.222 54.3947C124.945 54.6613 124.726 55.0667 124.566 55.6107L123.974 57.7387L122.758 57.3547ZM134.092 60.1387C133.367 60.1387 132.801 60.0053 132.396 59.7387C131.991 59.4613 131.703 59.0773 131.532 58.5867C131.372 58.096 131.292 57.488 131.292 56.7627L131.276 49.7547H132.524L132.54 56.7627C132.54 57.3387 132.572 57.7547 132.636 58.0107C132.711 58.2667 132.849 58.448 133.052 58.5547C133.265 58.6507 133.612 58.6987 134.092 58.6987H134.332L134.412 59.4347L134.332 60.1387H134.092ZM134.178 58.6987H135.938C136.428 58.6987 136.78 58.592 136.994 58.3787C137.218 58.1547 137.319 57.856 137.298 57.4827C137.276 57.1733 137.212 56.736 137.106 56.1707C137.01 55.6053 136.908 55.0773 136.802 54.5867L138.018 54.2667C138.135 54.7573 138.247 55.3173 138.354 55.9467C138.46 56.5653 138.524 57.0667 138.546 57.4507C138.567 57.8987 138.476 58.3307 138.274 58.7467C138.082 59.1627 137.783 59.4987 137.378 59.7547C136.983 60.0107 136.503 60.1387 135.938 60.1387H134.178V58.6987ZM135.714 51.5947C135.703 51.3067 135.799 51.0667 136.002 50.8747C136.215 50.6933 136.45 50.6027 136.706 50.6027C136.983 50.6027 137.218 50.6987 137.41 50.8907C137.602 51.0827 137.698 51.3173 137.698 51.5947C137.698 51.872 137.602 52.1067 137.41 52.2987C137.218 52.4907 136.983 52.5867 136.706 52.5867C136.428 52.5867 136.194 52.4907 136.002 52.2987C135.81 52.1067 135.714 51.872 135.714 51.5947ZM139.688 48.3307V47.1307H142.632V62.5707H139.688V61.3867H141.176V48.3307H139.688ZM154.548 56.9707C154.697 57.6 154.99 58.048 155.428 58.3147C155.876 58.5707 156.398 58.6987 156.996 58.6987H157.316L157.396 59.4187L157.316 60.1387H156.996C156.206 60.1387 155.46 59.9253 154.756 59.4987C154.052 59.0613 153.577 58.336 153.332 57.3227C152.905 55.52 152.478 53.7173 152.052 51.9147L153.268 51.5947L154.548 56.9707ZM154.084 55.0987C154.158 55.7707 154.164 56.3253 154.1 56.7627C154.046 57.2 153.908 57.6107 153.684 57.9947C153.406 58.4747 153.049 58.848 152.612 59.1147C152.174 59.3707 151.7 59.4987 151.188 59.4987C150.686 59.4987 150.201 59.36 149.732 59.0827C149.294 58.8267 148.948 58.4693 148.692 58.0107C148.436 57.5413 148.302 57.04 148.292 56.5067C148.292 55.9733 148.425 55.4773 148.692 55.0187C148.873 54.6987 149.086 54.432 149.332 54.2187C149.588 53.9947 149.982 53.7493 150.516 53.4827C151.06 53.2053 151.86 52.8533 152.916 52.4267L153.396 53.7707C152.585 54.0053 151.929 54.2453 151.428 54.4907C150.926 54.7253 150.553 54.944 150.308 55.1467C150.073 55.3493 149.897 55.552 149.78 55.7547C149.545 56.1493 149.481 56.544 149.588 56.9387C149.705 57.3227 149.95 57.632 150.324 57.8667C150.686 58.0907 151.097 58.1547 151.556 58.0587C152.025 57.952 152.404 57.7173 152.692 57.3547C152.873 57.1307 152.974 56.8747 152.996 56.5867C153.028 56.288 152.985 55.8347 152.868 55.2267L154.084 55.0987ZM164.666 50.5547L159.626 52.7787L161.962 55.7387C162.4 56.2933 162.629 56.9227 162.65 57.6267C162.672 58.32 162.464 58.912 162.026 59.4027C161.6 59.8933 160.976 60.1387 160.154 60.1387H157.162V58.6987H160.154C160.645 58.6987 161.008 58.608 161.242 58.4267C161.488 58.2453 161.589 58.0053 161.546 57.7067C161.514 57.3973 161.354 57.072 161.066 56.7307L158.266 53.3387L158.65 51.6587L164.154 49.2427L164.666 50.5547ZM165.946 59.4187L165.866 60.1387H165.562C164.976 60.1387 164.485 60.048 164.09 59.8667C163.706 59.6747 163.333 59.3867 162.97 59.0027C162.618 58.608 162.074 57.9413 161.338 57.0027L161.034 56.6027L161.962 55.7387L162.362 56.2507C162.97 57.0293 163.418 57.5787 163.706 57.8987C164.005 58.208 164.282 58.4213 164.538 58.5387C164.794 58.6453 165.136 58.6987 165.562 58.6987H165.866L165.946 59.4187ZM169.965 55.2107V57.4827C169.965 57.92 170.072 58.2347 170.285 58.4267C170.498 58.608 170.834 58.6987 171.293 58.6987H171.885L171.965 59.4347L171.885 60.1387H171.293C170.92 60.1387 170.53 60.0427 170.125 59.8507C169.73 59.648 169.394 59.3333 169.117 58.9067C168.85 58.48 168.717 57.9413 168.717 57.2907V55.2107H169.965ZM169.741 57.5627C169.741 58.1387 169.608 58.6187 169.341 59.0027C169.085 59.3867 168.754 59.6747 168.349 59.8667C167.944 60.048 167.528 60.1387 167.101 60.1387H165.709V58.6987H167.101C167.645 58.6987 168.05 58.5867 168.317 58.3627C168.584 58.1387 168.717 57.7813 168.717 57.2907L169.741 57.5627ZM165.741 63.4027C165.73 63.1147 165.826 62.8747 166.029 62.6827C166.242 62.5013 166.477 62.4107 166.733 62.4107C167.01 62.4107 167.245 62.5067 167.437 62.6987C167.629 62.8907 167.725 63.1253 167.725 63.4027C167.725 63.68 167.629 63.9147 167.437 64.1067C167.245 64.2987 167.01 64.3947 166.733 64.3947C166.456 64.3947 166.221 64.2987 166.029 64.1067C165.837 63.9147 165.741 63.68 165.741 63.4027ZM171.725 58.6987H172.701C173.213 58.6987 173.575 58.5867 173.789 58.3627C174.013 58.1387 174.125 57.7813 174.125 57.2907V55.2107H175.373V57.4827C175.373 57.9093 175.474 58.2187 175.677 58.4107C175.89 58.592 176.215 58.688 176.653 58.6987C177.165 58.688 177.527 58.576 177.741 58.3627C177.965 58.1387 178.077 57.7813 178.077 57.2907V55.2107H179.325V57.4827C179.325 57.9093 179.426 58.2187 179.629 58.4107C179.842 58.592 180.167 58.688 180.605 58.6987C181.074 58.688 181.415 58.576 181.629 58.3627C181.842 58.1387 181.938 57.8453 181.917 57.4827C181.895 57.1733 181.831 56.736 181.725 56.1707C181.629 55.6053 181.527 55.0773 181.421 54.5867L182.637 54.2667C182.754 54.7573 182.866 55.3173 182.973 55.9467C183.079 56.5653 183.143 57.0667 183.165 57.4507C183.186 57.888 183.101 58.3147 182.909 58.7307C182.717 59.1467 182.423 59.488 182.029 59.7547C181.634 60.0107 181.159 60.1387 180.605 60.1387C180.263 60.1387 179.911 60.0587 179.549 59.8987C179.197 59.728 178.893 59.4667 178.637 59.1147C178.381 59.456 178.087 59.712 177.757 59.8827C177.426 60.0533 177.058 60.1387 176.653 60.1387C176.301 60.1387 175.943 60.048 175.581 59.8667C175.218 59.6747 174.919 59.424 174.685 59.1147C174.429 59.456 174.13 59.712 173.789 59.8827C173.447 60.0533 173.085 60.1387 172.701 60.1387H171.725V58.6987ZM177.757 50.2987C177.757 50.032 177.853 49.8027 178.045 49.6107C178.247 49.408 178.482 49.3067 178.749 49.3067C179.015 49.3067 179.245 49.4027 179.437 49.5947C179.639 49.7867 179.741 50.0213 179.741 50.2987C179.741 50.5653 179.645 50.7947 179.453 50.9867C179.261 51.1787 179.026 51.2747 178.749 51.2747C178.482 51.2747 178.247 51.184 178.045 51.0027C177.853 50.8107 177.757 50.576 177.757 50.2987ZM176.365 52.3147C176.354 52.144 176.397 51.984 176.493 51.8347C176.589 51.6747 176.717 51.552 176.877 51.4667C177.015 51.3707 177.175 51.3227 177.357 51.3227C177.623 51.3227 177.853 51.424 178.045 51.6267C178.237 51.8187 178.333 52.048 178.333 52.3147C178.333 52.5813 178.237 52.816 178.045 53.0187C177.853 53.2107 177.623 53.3067 177.357 53.3067C177.09 53.3067 176.855 53.2107 176.653 53.0187C176.461 52.816 176.365 52.5813 176.365 52.3147ZM179.165 52.3147C179.165 52.048 179.261 51.8187 179.453 51.6267C179.645 51.424 179.874 51.3227 180.141 51.3227C180.407 51.3227 180.637 51.424 180.829 51.6267C181.031 51.8187 181.133 52.048 181.133 52.3147C181.133 52.5813 181.031 52.816 180.829 53.0187C180.637 53.2107 180.407 53.3067 180.141 53.3067C179.874 53.3067 179.645 53.2107 179.453 53.0187C179.261 52.816 179.165 52.5813 179.165 52.3147ZM195.001 56.9707C195.15 57.6 195.444 58.048 195.881 58.3147C196.329 58.5707 196.852 58.6987 197.449 58.6987H197.769L197.849 59.4187L197.769 60.1387H197.449C196.66 60.1387 195.913 59.9253 195.209 59.4987C194.505 59.0613 194.03 58.336 193.785 57.3227C193.358 55.52 192.932 53.7173 192.505 51.9147L193.721 51.5947L195.001 56.9707ZM194.537 55.0987C194.612 55.7707 194.617 56.3253 194.553 56.7627C194.5 57.2 194.361 57.6107 194.137 57.9947C193.86 58.4747 193.502 58.848 193.065 59.1147C192.628 59.3707 192.153 59.4987 191.641 59.4987C191.14 59.4987 190.654 59.36 190.185 59.0827C189.748 58.8267 189.401 58.4693 189.145 58.0107C188.889 57.5413 188.756 57.04 188.745 56.5067C188.745 55.9733 188.878 55.4773 189.145 55.0187C189.326 54.6987 189.54 54.432 189.785 54.2187C190.041 53.9947 190.436 53.7493 190.969 53.4827C191.513 53.2053 192.313 52.8533 193.369 52.4267L193.849 53.7707C193.038 54.0053 192.382 54.2453 191.881 54.4907C191.38 54.7253 191.006 54.944 190.761 55.1467C190.526 55.3493 190.35 55.552 190.233 55.7547C189.998 56.1493 189.934 56.544 190.041 56.9387C190.158 57.3227 190.404 57.632 190.777 57.8667C191.14 58.0907 191.55 58.1547 192.009 58.0587C192.478 57.952 192.857 57.7173 193.145 57.3547C193.326 57.1307 193.428 56.8747 193.449 56.5867C193.481 56.288 193.438 55.8347 193.321 55.2267L194.537 55.0987ZM197.615 58.6987H199.375C199.866 58.6987 200.218 58.592 200.431 58.3787C200.655 58.1547 200.757 57.856 200.735 57.4827C200.714 57.1733 200.65 56.736 200.543 56.1707C200.447 55.6053 200.346 55.0773 200.239 54.5867L201.455 54.2667C201.573 54.7573 201.685 55.3173 201.791 55.9467C201.898 56.5653 201.962 57.0667 201.983 57.4507C202.005 57.8987 201.914 58.3307 201.711 58.7467C201.519 59.1627 201.221 59.4987 200.815 59.7547C200.421 60.0107 199.941 60.1387 199.375 60.1387H197.615V58.6987ZM197.823 63.3867C197.813 63.0987 197.909 62.8587 198.111 62.6667C198.325 62.4853 198.559 62.3947 198.815 62.3947C199.093 62.3947 199.327 62.4907 199.519 62.6827C199.711 62.8747 199.807 63.1093 199.807 63.3867C199.807 63.664 199.711 63.8987 199.519 64.0907C199.327 64.2827 199.093 64.3787 198.815 64.3787C198.538 64.3787 198.303 64.2827 198.111 64.0907C197.919 63.8987 197.823 63.664 197.823 63.3867ZM210.533 60.1387C209.915 60.1387 209.371 60 208.901 59.7227C208.432 59.4347 208.08 59.0507 207.845 58.5707C207.611 58.0907 207.525 57.5733 207.589 57.0187C207.643 56.528 207.819 55.664 208.117 54.4267L209.285 54.7307L209.221 55.0187C208.965 56.1067 208.821 56.8213 208.789 57.1627C208.736 57.632 208.859 58.0053 209.157 58.2827C209.456 58.56 209.915 58.6987 210.533 58.6987H217.445C217.989 58.6987 218.395 58.5867 218.661 58.3627C218.928 58.1387 219.061 57.7813 219.061 57.2907V55.2107H220.309V57.4827C220.309 57.92 220.416 58.2347 220.629 58.4267C220.843 58.608 221.179 58.6987 221.637 58.6987H222.229L222.309 59.3867L222.229 60.1387H221.637C221.296 60.1387 220.939 60.0533 220.565 59.8827C220.192 59.712 219.877 59.456 219.621 59.1147C219.365 59.4453 219.04 59.7013 218.645 59.8827C218.251 60.0533 217.851 60.1387 217.445 60.1387H210.533ZM211.893 54.0747C211.883 53.904 211.925 53.744 212.021 53.5947C212.117 53.4347 212.245 53.312 212.405 53.2267C212.544 53.1307 212.704 53.0827 212.885 53.0827C213.056 53.072 213.216 53.1147 213.365 53.2107C213.525 53.3067 213.648 53.4293 213.733 53.5787C213.819 53.7493 213.861 53.9147 213.861 54.0747C213.861 54.3413 213.765 54.576 213.573 54.7787C213.381 54.9707 213.152 55.0667 212.885 55.0667C212.619 55.0667 212.384 54.9707 212.181 54.7787C211.989 54.576 211.893 54.3413 211.893 54.0747ZM214.613 54.0747C214.613 53.808 214.709 53.5787 214.901 53.3867C215.093 53.184 215.323 53.0827 215.589 53.0827C215.856 53.0827 216.085 53.184 216.277 53.3867C216.48 53.5787 216.581 53.808 216.581 54.0747C216.581 54.3413 216.48 54.576 216.277 54.7787C216.085 54.9707 215.856 55.0667 215.589 55.0667C215.419 55.0773 215.259 55.0293 215.109 54.9227C214.96 54.848 214.837 54.7307 214.741 54.5707C214.656 54.4107 214.613 54.2453 214.613 54.0747ZM226.628 55.2107V57.4827C226.628 57.92 226.735 58.2347 226.948 58.4267C227.162 58.608 227.498 58.6987 227.956 58.6987H228.772L228.852 59.4507L228.772 60.1387H227.956C227.583 60.1387 227.194 60.0427 226.788 59.8507C226.394 59.648 226.058 59.3333 225.78 58.9067C225.514 58.48 225.38 57.9413 225.38 57.2907V55.2107H226.628ZM226.404 57.5627C226.404 58.1387 226.271 58.6187 226.004 59.0027C225.748 59.3867 225.418 59.6747 225.012 59.8667C224.607 60.048 224.191 60.1387 223.764 60.1387H222.068V58.6987H223.764C224.308 58.6987 224.714 58.5867 224.98 58.3627C225.247 58.1387 225.38 57.7813 225.38 57.2907L226.404 57.5627ZM221.444 63.3867C221.434 63.216 221.476 63.0507 221.572 62.8907C221.668 62.7413 221.796 62.624 221.956 62.5387C222.095 62.4427 222.255 62.3947 222.436 62.3947C222.607 62.384 222.767 62.4267 222.916 62.5227C223.076 62.6187 223.199 62.7413 223.284 62.8907C223.37 63.0613 223.412 63.2267 223.412 63.3867C223.412 63.6533 223.316 63.8827 223.124 64.0747C222.932 64.2773 222.703 64.3787 222.436 64.3787C222.17 64.3787 221.94 64.2773 221.748 64.0747C221.546 63.8827 221.444 63.6533 221.444 63.3867ZM224.164 63.3867C224.164 63.12 224.26 62.8853 224.452 62.6827C224.644 62.4907 224.874 62.3947 225.14 62.3947C225.407 62.3947 225.636 62.4907 225.828 62.6827C226.031 62.8853 226.132 63.12 226.132 63.3867C226.132 63.6533 226.031 63.8827 225.828 64.0747C225.636 64.2773 225.407 64.3787 225.14 64.3787C224.97 64.3893 224.81 64.3413 224.66 64.2347C224.511 64.16 224.388 64.0427 224.292 63.8827C224.207 63.7227 224.164 63.5573 224.164 63.3867ZM228.551 58.6987H229.399C230.029 58.6987 230.605 58.6667 231.127 58.6027C230.733 58.3147 230.423 57.9893 230.199 57.6267C229.975 57.264 229.863 56.864 229.863 56.4267C229.863 55.8507 229.997 55.328 230.263 54.8587C230.53 54.3787 230.887 54 231.335 53.7227C231.794 53.4453 232.295 53.3067 232.839 53.3067C233.362 53.3067 233.847 53.4453 234.295 53.7227C234.743 54 235.101 54.3787 235.367 54.8587C235.634 55.3387 235.767 55.8613 235.767 56.4267C235.767 56.864 235.655 57.264 235.431 57.6267C235.207 57.9893 234.898 58.32 234.503 58.6187C235.069 58.672 235.645 58.6987 236.231 58.6987H236.999L237.095 59.4187L236.999 60.1387H236.231C235.794 60.1387 235.261 60.0853 234.631 59.9787C234.013 59.8613 233.41 59.696 232.823 59.4827C232.226 59.696 231.613 59.8613 230.983 59.9787C230.365 60.0853 229.837 60.1387 229.399 60.1387H228.551V58.6987ZM232.791 58.2507C233.357 58.0587 233.783 57.808 234.071 57.4987C234.37 57.1893 234.519 56.832 234.519 56.4267C234.519 55.9253 234.359 55.52 234.039 55.2107C233.719 54.9013 233.319 54.7467 232.839 54.7467C232.338 54.7467 231.922 54.9013 231.591 55.2107C231.271 55.52 231.111 55.9253 231.111 56.4267C231.111 56.832 231.25 57.1893 231.527 57.4987C231.815 57.808 232.237 58.0587 232.791 58.2507ZM230.503 51.3227C230.493 51.152 230.535 50.992 230.631 50.8427C230.727 50.6827 230.855 50.56 231.015 50.4747C231.154 50.3787 231.314 50.3307 231.495 50.3307C231.666 50.32 231.826 50.3627 231.975 50.4587C232.135 50.5547 232.258 50.6773 232.343 50.8267C232.429 50.9973 232.471 51.1627 232.471 51.3227C232.471 51.5893 232.375 51.824 232.183 52.0267C231.991 52.2187 231.762 52.3147 231.495 52.3147C231.229 52.3147 230.994 52.2187 230.791 52.0267C230.599 51.824 230.503 51.5893 230.503 51.3227ZM233.223 51.3227C233.223 51.056 233.319 50.8267 233.511 50.6347C233.703 50.432 233.933 50.3307 234.199 50.3307C234.466 50.3307 234.695 50.432 234.887 50.6347C235.09 50.8267 235.191 51.056 235.191 51.3227C235.191 51.5893 235.09 51.824 234.887 52.0267C234.695 52.2187 234.466 52.3147 234.199 52.3147C234.029 52.3253 233.869 52.2773 233.719 52.1707C233.57 52.096 233.447 51.9787 233.351 51.8187C233.266 51.6587 233.223 51.4933 233.223 51.3227ZM236.834 58.6987H239.394H239.49C240.258 58.688 240.818 58.624 241.17 58.5067C241.533 58.3787 241.773 58.1707 241.89 57.8827C242.007 57.584 242.066 57.1253 242.066 56.5067V54.8747C242.066 54.384 241.943 54.0053 241.698 53.7387C241.463 53.4613 241.111 53.3227 240.642 53.3227C240.205 53.3227 239.858 53.4667 239.602 53.7547C239.346 54.032 239.218 54.4053 239.218 54.8747C239.218 55.3013 239.335 55.6213 239.57 55.8347C239.805 56.048 240.162 56.1547 240.642 56.1547H242.722V57.5947H240.642C240.151 57.5947 239.703 57.4827 239.298 57.2587C238.893 57.024 238.567 56.704 238.322 56.2987C238.087 55.8827 237.97 55.408 237.97 54.8747C237.97 54.3413 238.093 53.8453 238.338 53.3867C238.583 52.928 238.909 52.5653 239.314 52.2987C239.73 52.0213 240.173 51.8827 240.642 51.8827C241.154 51.8827 241.613 52.0213 242.018 52.2987C242.423 52.5653 242.738 52.928 242.962 53.3867C243.197 53.8453 243.314 54.3413 243.314 54.8747V56.5067C243.314 57.3173 243.197 57.9893 242.962 58.5227C242.727 59.0453 242.322 59.4453 241.746 59.7227C241.181 60 240.397 60.1387 239.394 60.1387H236.834V58.6987ZM239.634 49.6907C239.623 49.4027 239.719 49.1627 239.922 48.9707C240.135 48.7893 240.37 48.6987 240.626 48.6987C240.903 48.6987 241.138 48.7947 241.33 48.9867C241.522 49.1787 241.618 49.4133 241.618 49.6907C241.618 49.968 241.522 50.2027 241.33 50.3947C241.138 50.5867 240.903 50.6827 240.626 50.6827C240.349 50.6827 240.114 50.5867 239.922 50.3947C239.73 50.2027 239.634 49.968 239.634 49.6907ZM246.837 62.7467C247.584 62.7467 248.16 62.656 248.565 62.4747C248.981 62.304 249.269 62.0373 249.429 61.6747C249.589 61.312 249.669 60.832 249.669 60.2347V57.0987C249.669 56.448 249.52 55.9413 249.221 55.5787C248.923 55.2053 248.48 55.0187 247.893 55.0187C247.349 55.0187 246.923 55.2107 246.613 55.5947C246.315 55.968 246.165 56.4693 246.165 57.0987C246.165 57.6853 246.304 58.1013 246.581 58.3467C246.859 58.5813 247.301 58.6987 247.909 58.6987H249.957H250.293H251.813L251.909 59.4347L251.813 60.1387H247.909C247.013 60.1387 246.288 59.872 245.733 59.3387C245.189 58.8053 244.917 58.0587 244.917 57.0987C244.917 56.448 245.04 55.856 245.285 55.3227C245.541 54.7893 245.893 54.368 246.341 54.0587C246.8 53.7493 247.317 53.5947 247.893 53.5947C248.501 53.5947 249.035 53.744 249.493 54.0427C249.952 54.3413 250.304 54.7573 250.549 55.2907C250.795 55.8133 250.917 56.416 250.917 57.0987V60.2347C250.917 61.024 250.779 61.712 250.501 62.2987C250.235 62.8853 249.797 63.344 249.189 63.6747C248.592 64.016 247.808 64.1867 246.837 64.1867H245.125V62.7467H246.837ZM251.647 58.6987H252.095C252.351 58.6987 252.553 58.6453 252.703 58.5387C252.863 58.4213 252.969 58.2507 253.023 58.0267L253.535 56.1867C253.769 55.3547 254.132 54.704 254.623 54.2347C255.113 53.7547 255.705 53.5147 256.399 53.5147C256.953 53.5147 257.444 53.68 257.871 54.0107C258.297 54.3307 258.628 54.768 258.863 55.3227C259.097 55.8667 259.215 56.4587 259.215 57.0987C259.215 57.888 259.103 58.5387 258.879 59.0507C258.655 59.552 258.361 59.9147 257.999 60.1387C257.647 60.3733 257.273 60.4907 256.879 60.4907C256.463 60.4907 256.041 60.4053 255.615 60.2347C255.188 60.064 254.516 59.744 253.599 59.2747L253.183 59.0667L253.759 57.7867C253.887 57.8507 254.009 57.9147 254.127 57.9787C254.991 58.416 255.588 58.704 255.919 58.8427C256.26 58.9813 256.58 59.0507 256.879 59.0507C257.241 59.0507 257.513 58.9173 257.695 58.6507C257.876 58.3733 257.967 57.856 257.967 57.0987C257.967 56.4267 257.833 55.904 257.567 55.5307C257.3 55.1467 256.911 54.9547 256.399 54.9547C256.015 54.9547 255.679 55.088 255.391 55.3547C255.113 55.6213 254.9 56.0267 254.751 56.5707L254.239 58.4107C254.143 58.752 253.983 59.056 253.759 59.3227C253.545 59.5787 253.289 59.7813 252.991 59.9307C252.703 60.0693 252.404 60.1387 252.095 60.1387H251.647V58.6987ZM268.264 60.1387C267.538 60.1387 266.973 60.0053 266.568 59.7387C266.162 59.4613 265.874 59.0773 265.704 58.5867C265.544 58.096 265.464 57.488 265.464 56.7627L265.448 49.7547H266.696L266.712 56.7627C266.712 57.3387 266.744 57.7547 266.808 58.0107C266.882 58.2667 267.021 58.448 267.224 58.5547C267.437 58.6507 267.784 58.6987 268.264 58.6987H268.504L268.584 59.4347L268.504 60.1387H268.264ZM268.35 58.6987H270.11C270.6 58.6987 270.952 58.592 271.166 58.3787C271.39 58.1547 271.491 57.856 271.47 57.4827C271.448 57.1733 271.384 56.736 271.278 56.1707C271.182 55.6053 271.08 55.0773 270.974 54.5867L272.19 54.2667C272.307 54.7573 272.419 55.3173 272.526 55.9467C272.632 56.5653 272.696 57.0667 272.718 57.4507C272.739 57.8987 272.648 58.3307 272.446 58.7467C272.254 59.1627 271.955 59.4987 271.55 59.7547C271.155 60.0107 270.675 60.1387 270.11 60.1387H268.35V58.6987ZM268.558 63.3867C268.547 63.0987 268.643 62.8587 268.846 62.6667C269.059 62.4853 269.294 62.3947 269.55 62.3947C269.827 62.3947 270.062 62.4907 270.254 62.6827C270.446 62.8747 270.542 63.1093 270.542 63.3867C270.542 63.664 270.446 63.8987 270.254 64.0907C270.062 64.2827 269.827 64.3787 269.55 64.3787C269.272 64.3787 269.038 64.2827 268.846 64.0907C268.654 63.8987 268.558 63.664 268.558 63.3867ZM282.004 53.0507C282.654 53.7547 283.15 54.3147 283.492 54.7307C283.833 55.1467 284.105 55.5733 284.308 56.0107C284.521 56.4373 284.628 56.8747 284.628 57.3227C284.628 57.8667 284.484 58.3627 284.196 58.8107C283.908 59.2587 283.518 59.6107 283.028 59.8667C282.548 60.1227 282.03 60.2507 281.476 60.2507C280.91 60.2507 280.382 60.1227 279.892 59.8667C279.412 59.6107 279.028 59.2587 278.74 58.8107C278.452 58.3627 278.308 57.8667 278.308 57.3227C278.308 56.8427 278.409 56.3893 278.612 55.9627C278.814 55.5253 279.06 55.1253 279.348 54.7627C279.636 54.4 280.03 53.9573 280.532 53.4347L280.932 53.0027L281.86 53.9947L281.428 54.4427C280.948 54.944 280.59 55.3387 280.356 55.6267C280.121 55.904 279.929 56.1867 279.78 56.4747C279.63 56.752 279.556 57.0347 279.556 57.3227C279.556 57.76 279.726 58.1173 280.068 58.3947C280.42 58.672 280.889 58.8107 281.476 58.8107C282.052 58.8107 282.51 58.672 282.852 58.3947C283.204 58.1173 283.38 57.76 283.38 57.3227C283.38 57.0667 283.3 56.8 283.14 56.5227C282.99 56.2347 282.772 55.9253 282.484 55.5947C282.206 55.264 281.769 54.7733 281.172 54.1227C281.012 53.9413 280.846 53.76 280.676 53.5787C280.505 53.3867 280.324 53.184 280.132 52.9707L281.06 52.0107L282.004 53.0507ZM289.686 60.1387C288.96 60.1387 288.395 60.0053 287.99 59.7387C287.584 59.4613 287.296 59.0773 287.126 58.5867C286.966 58.096 286.886 57.488 286.886 56.7627L286.87 49.7547H288.118L288.134 56.7627C288.134 57.3387 288.166 57.7547 288.23 58.0107C288.304 58.2667 288.443 58.448 288.646 58.5547C288.859 58.6507 289.206 58.6987 289.686 58.6987H289.926L290.006 59.4347L289.926 60.1387H289.686ZM297.292 51.0347L292.492 53.1627L294.572 55.7387C295.02 56.2827 295.254 56.9067 295.276 57.6107C295.297 58.304 295.089 58.9013 294.652 59.4027C294.214 59.8933 293.585 60.1387 292.764 60.1387H289.772V58.6987H292.764C293.254 58.6987 293.617 58.608 293.852 58.4267C294.097 58.2347 294.198 57.9893 294.156 57.6907C294.124 57.392 293.964 57.072 293.676 56.7307L291.132 53.7227L291.516 52.0427L296.78 49.7227L297.292 51.0347ZM298.476 60.1387H298.172C297.585 60.1387 297.094 60.048 296.7 59.8667C296.316 59.6747 295.942 59.3867 295.58 59.0027C295.228 58.608 294.684 57.9413 293.948 57.0027L293.644 56.6027L294.572 55.7387L294.972 56.2507C295.58 57.0293 296.028 57.5787 296.316 57.8987C296.614 58.208 296.892 58.4213 297.148 58.5387C297.404 58.6453 297.745 58.6987 298.172 58.6987H298.476V60.1387ZM291.74 50.2187L295.948 48.3787L296.188 48.9867L291.66 50.9707L291.74 50.2187ZM302.878 55.2107V57.4827C302.878 57.92 302.985 58.2347 303.198 58.4267C303.412 58.608 303.748 58.6987 304.206 58.6987H305.022L305.102 59.4507L305.022 60.1387H304.206C303.833 60.1387 303.444 60.0427 303.038 59.8507C302.644 59.648 302.308 59.3333 302.03 58.9067C301.764 58.48 301.63 57.9413 301.63 57.2907V55.2107H302.878ZM302.654 57.5627C302.654 58.1387 302.521 58.6187 302.254 59.0027C301.998 59.3867 301.668 59.6747 301.262 59.8667C300.857 60.048 300.441 60.1387 300.014 60.1387H298.318V58.6987H300.014C300.558 58.6987 300.964 58.5867 301.23 58.3627C301.497 58.1387 301.63 57.7813 301.63 57.2907L302.654 57.5627ZM299.006 52.6027C298.996 52.432 299.038 52.272 299.134 52.1227C299.23 51.9627 299.358 51.84 299.518 51.7547C299.657 51.6587 299.817 51.6107 299.998 51.6107C300.169 51.6 300.329 51.6427 300.478 51.7387C300.638 51.8347 300.761 51.9573 300.846 52.1067C300.932 52.2773 300.974 52.4427 300.974 52.6027C300.974 52.8693 300.878 53.104 300.686 53.3067C300.494 53.4987 300.265 53.5947 299.998 53.5947C299.732 53.5947 299.497 53.4987 299.294 53.3067C299.102 53.104 299.006 52.8693 299.006 52.6027ZM301.726 52.6027C301.726 52.336 301.822 52.1067 302.014 51.9147C302.206 51.712 302.436 51.6107 302.702 51.6107C302.969 51.6107 303.198 51.712 303.39 51.9147C303.593 52.1067 303.694 52.336 303.694 52.6027C303.694 52.8693 303.593 53.104 303.39 53.3067C303.198 53.4987 302.969 53.5947 302.702 53.5947C302.532 53.6053 302.372 53.5573 302.222 53.4507C302.073 53.376 301.95 53.2587 301.854 53.0987C301.769 52.9387 301.726 52.7733 301.726 52.6027ZM304.865 58.6987H305.841C306.353 58.6987 306.716 58.5867 306.929 58.3627C307.153 58.1387 307.265 57.7813 307.265 57.2907V55.2107H308.513V57.4827C308.513 57.9093 308.615 58.2187 308.817 58.4107C309.031 58.592 309.356 58.688 309.793 58.6987C310.305 58.688 310.668 58.576 310.881 58.3627C311.105 58.1387 311.217 57.7813 311.217 57.2907V55.2107H312.465V57.4827C312.465 57.9093 312.567 58.2187 312.769 58.4107C312.983 58.592 313.308 58.688 313.745 58.6987C314.215 58.688 314.556 58.576 314.769 58.3627C314.983 58.1387 315.079 57.8453 315.057 57.4827C315.036 57.1733 314.972 56.736 314.865 56.1707C314.769 55.6053 314.668 55.0773 314.561 54.5867L315.777 54.2667C315.895 54.7573 316.007 55.3173 316.113 55.9467C316.22 56.5653 316.284 57.0667 316.305 57.4507C316.327 57.888 316.241 58.3147 316.049 58.7307C315.857 59.1467 315.564 59.488 315.169 59.7547C314.775 60.0107 314.3 60.1387 313.745 60.1387C313.404 60.1387 313.052 60.0587 312.689 59.8987C312.337 59.728 312.033 59.4667 311.777 59.1147C311.521 59.456 311.228 59.712 310.897 59.8827C310.567 60.0533 310.199 60.1387 309.793 60.1387C309.441 60.1387 309.084 60.048 308.721 59.8667C308.359 59.6747 308.06 59.424 307.825 59.1147C307.569 59.456 307.271 59.712 306.929 59.8827C306.588 60.0533 306.225 60.1387 305.841 60.1387H304.865V58.6987ZM322.158 53.4187C322.542 54.016 322.824 54.464 323.006 54.7627C323.198 55.0507 323.48 55.4827 323.854 56.0587C324.152 56.5173 324.318 57.0293 324.35 57.5947C324.392 58.16 324.286 58.624 324.03 58.9867C323.72 59.424 323.347 59.728 322.91 59.8987C322.472 60.0587 321.992 60.1387 321.47 60.1387H320.606C320.03 60.1387 319.507 60.0587 319.038 59.8987C318.579 59.728 318.2 59.536 317.902 59.3227L318.558 58.1067L318.638 58.1547C318.883 58.304 319.155 58.432 319.454 58.5387C319.752 58.6453 320.136 58.6987 320.606 58.6987H321.47C321.854 58.6987 322.168 58.6613 322.414 58.5867C322.67 58.5013 322.867 58.3573 323.006 58.1547C323.123 57.9947 323.166 57.8133 323.134 57.6107C323.102 57.3973 322.99 57.136 322.798 56.8267C321.795 55.248 320.984 54 320.366 53.0827L321.422 52.2827L322.158 53.4187Z" fill="#263238"/>
</svg>
