<svg width="47" height="47" viewBox="0 0 47 47" fill="none" xmlns="http://www.w3.org/2000/svg">
<rect x="0.666992" y="0.2771" width="46" height="46" rx="5.93548" fill="#FF4C87"/>
<path d="M30.7373 23.1882C32.4392 23.1882 34.072 23.8647 35.2754 25.0681C36.4786 26.2714 37.1542 27.9036 37.1543 29.6052C37.1543 31.3071 36.4788 32.9399 35.2754 34.1433C34.072 35.3467 32.4392 36.0222 30.7373 36.0222C29.0356 36.0221 27.4035 35.3465 26.2002 34.1433C24.9968 32.9399 24.3203 31.3071 24.3203 29.6052C24.3204 27.9035 24.9969 26.2715 26.2002 25.0681C27.4035 23.8648 29.0355 23.1883 30.7373 23.1882ZM30.7373 24.8494C29.4761 24.8494 28.2668 25.3511 27.375 26.2429C26.4832 27.1347 25.9815 28.344 25.9814 29.6052C25.9814 30.8665 26.4831 32.0766 27.375 32.9685C28.2668 33.8602 29.4762 34.361 30.7373 34.3611C31.9986 34.3611 33.2087 33.8604 34.1006 32.9685C34.9925 32.0766 35.4932 30.8665 35.4932 29.6052C35.4931 28.3441 34.9923 27.1347 34.1006 26.2429C33.2087 25.351 31.9986 24.8494 30.7373 24.8494ZM27.9443 12.0164C28.4014 12.0164 28.7754 12.3893 28.7754 12.8464V14.8093H30.0391C31.6526 14.8093 32.9646 16.1206 32.9648 17.7341V21.6589L32.7988 21.616C32.3525 21.5001 31.8972 21.4222 31.4248 21.3835L31.3037 21.3738V20.656H14.8096V30.2996C14.8096 30.9989 15.374 31.5641 16.0732 31.5642H22.7217L22.748 31.6628C22.8727 32.1398 23.0357 32.5992 23.2373 33.0369L23.3242 33.2244L23.1172 33.2253L16.0732 33.2292C14.4597 33.2291 13.1484 31.9171 13.1484 30.3035V17.7341C13.1487 16.1207 14.4598 14.8094 16.0732 14.8093H17.3379V12.8464C17.3379 12.3895 17.711 12.0165 18.168 12.0164C18.6251 12.0164 18.999 12.3893 18.999 12.8464V14.8093H27.1143V12.8464C27.1143 12.3894 27.4873 12.0164 27.9443 12.0164ZM30.7373 25.9822C31.1944 25.9822 31.5683 26.3552 31.5684 26.8123V28.7751H32.832C33.2891 28.7751 33.6629 29.1482 33.6631 29.6052C33.6631 30.0623 33.2892 30.4363 32.832 30.4363H30.7373C30.2803 30.4361 29.9072 30.0623 29.9072 29.6052V26.8123C29.9073 26.3553 30.2803 25.9823 30.7373 25.9822ZM16.0732 16.4705C15.374 16.4706 14.8098 17.035 14.8096 17.7341V18.9988H31.3037V17.7341C31.3035 17.0349 30.7384 16.4705 30.0391 16.4705H16.0732Z" fill="white" stroke="white" stroke-width="0.264578"/>
</svg>
