<svg width="63" height="63" viewBox="0 0 63 63" fill="none" xmlns="http://www.w3.org/2000/svg">
<rect x="0.717773" y="0.554688" width="61.5882" height="61.5882" rx="30.7941" fill="#ECF7FB"/>
<path d="M35.5312 34.7021C35.7561 34.4477 36.0993 34.3227 36.4365 34.3936C41.1895 35.3584 44.7705 39.5615 44.7705 44.6045V45.5518C44.7703 46.0723 44.3447 46.4978 43.8242 46.498C43.3035 46.498 42.8772 46.0724 42.877 45.5518V44.6045C42.877 40.6743 40.2132 37.3595 36.5908 36.377L32.2285 41.4375C32.051 41.6505 31.7848 41.7694 31.5127 41.7695C31.2404 41.7695 30.9735 41.6447 30.7959 41.4375L26.4336 36.3828C22.8112 37.3654 20.1475 40.6802 20.1475 44.6104V45.5576C20.1472 46.0782 19.7217 46.5037 19.2012 46.5039C18.6804 46.5039 18.2541 46.0783 18.2539 45.5576V44.6104C18.2539 39.5674 21.8349 35.3642 26.5879 34.3994C26.9252 34.3285 27.2683 34.4477 27.4932 34.708V34.7021L31.5127 39.3604L35.5312 34.7021ZM31.5127 16.1934C33.5218 16.1935 35.4484 16.9915 36.8691 18.4121C38.29 19.8329 39.0889 21.7602 39.0889 23.7695C39.0888 25.7788 38.2899 27.7062 36.8691 29.127C35.4484 30.5475 33.5217 31.3456 31.5127 31.3457C29.5035 31.3457 27.5761 30.5476 26.1553 29.127C24.7345 27.7062 23.9356 25.7788 23.9355 23.7695C23.9355 21.7602 24.7344 19.8329 26.1553 18.4121C27.5761 16.9914 29.5034 16.1934 31.5127 16.1934ZM31.5127 18.0869C30.7665 18.0869 30.0272 18.234 29.3379 18.5195C28.6485 18.8051 28.0218 19.2234 27.4941 19.751C26.9665 20.2786 26.5483 20.9054 26.2627 21.5947C25.9771 22.2841 25.8301 23.0233 25.8301 23.7695C25.8301 24.5155 25.9773 25.2541 26.2627 25.9434C26.5482 26.6327 26.9666 27.2595 27.4941 27.7871C28.0218 28.3148 28.6485 28.734 29.3379 29.0195C30.0272 29.305 30.7666 29.4512 31.5127 29.4512C32.2586 29.4511 32.9974 29.3049 33.6865 29.0195C34.3759 28.734 35.0026 28.3148 35.5303 27.7871C36.0579 27.2595 36.4762 26.6327 36.7617 25.9434C37.0472 25.2541 37.1943 24.5156 37.1943 23.7695C37.1943 23.0233 37.0473 22.2841 36.7617 21.5947C36.4762 20.9054 36.0579 20.2786 35.5303 19.751C35.0027 19.2234 34.3758 18.8051 33.6865 18.5195C32.9973 18.2341 32.2587 18.087 31.5127 18.0869Z" fill="url(#paint0_linear_2137_15758)"/>
<defs>
<linearGradient id="paint0_linear_2137_15758" x1="18.2539" y1="31.3486" x2="44.7705" y2="31.3486" gradientUnits="userSpaceOnUse">
<stop stop-color="#007DC0"/>
<stop offset="1" stop-color="#00B8E7"/>
</linearGradient>
</defs>
</svg>
