<svg width="63" height="63" viewBox="0 0 63 63" fill="none" xmlns="http://www.w3.org/2000/svg">
<rect x="0.717773" y="0.55957" width="61.5882" height="61.5882" rx="30.7941" fill="#F5F7F8"/>
<path d="M35.5312 34.707C35.7561 34.4526 36.0993 34.3276 36.4365 34.3984C41.1895 35.3632 44.7705 39.5664 44.7705 44.6094V45.5566C44.7703 46.0772 44.3447 46.5027 43.8242 46.5029C43.3035 46.5029 42.8772 46.0773 42.877 45.5566V44.6094C42.877 40.6792 40.2132 37.3644 36.5908 36.3818L32.2285 41.4424C32.051 41.6554 31.7848 41.7743 31.5127 41.7744C31.2404 41.7744 30.9735 41.6495 30.7959 41.4424L26.4336 36.3877C22.8112 37.3703 20.1475 40.6851 20.1475 44.6152V45.5625C20.1472 46.083 19.7217 46.5085 19.2012 46.5088C18.6804 46.5088 18.2541 46.0832 18.2539 45.5625V44.6152C18.2539 39.5722 21.8349 35.3691 26.5879 34.4043C26.9252 34.3334 27.2683 34.4525 27.4932 34.7129V34.707L31.5127 39.3652L35.5312 34.707ZM31.5127 16.1982C33.5218 16.1984 35.4484 16.9964 36.8691 18.417C38.29 19.8378 39.0889 21.765 39.0889 23.7744C39.0888 25.7837 38.2899 27.711 36.8691 29.1318C35.4484 30.5523 33.5217 31.3505 31.5127 31.3506C29.5035 31.3506 27.5761 30.5525 26.1553 29.1318C24.7345 27.711 23.9356 25.7837 23.9355 23.7744C23.9355 21.765 24.7344 19.8378 26.1553 18.417C27.5761 16.9962 29.5034 16.1982 31.5127 16.1982ZM31.5127 18.0918C30.7665 18.0918 30.0272 18.2389 29.3379 18.5244C28.6485 18.81 28.0218 19.2283 27.4941 19.7559C26.9665 20.2835 26.5483 20.9103 26.2627 21.5996C25.9771 22.289 25.8301 23.0282 25.8301 23.7744C25.8301 24.5204 25.9773 25.259 26.2627 25.9482C26.5482 26.6376 26.9666 27.2644 27.4941 27.792C28.0218 28.3196 28.6485 28.7389 29.3379 29.0244C30.0272 29.3099 30.7666 29.4561 31.5127 29.4561C32.2586 29.456 32.9974 29.3098 33.6865 29.0244C34.3759 28.7389 35.0026 28.3196 35.5303 27.792C36.0579 27.2644 36.4762 26.6376 36.7617 25.9482C37.0472 25.259 37.1943 24.5204 37.1943 23.7744C37.1943 23.0282 37.0473 22.289 36.7617 21.5996C36.4762 20.9103 36.0579 20.2835 35.5303 19.7559C35.0027 19.2283 34.3758 18.8099 33.6865 18.5244C32.9973 18.239 32.2587 18.0919 31.5127 18.0918Z" fill="#98AFBA"/>
</svg>
