<svg width="440" height="225" viewBox="0 0 440 225" fill="none" xmlns="http://www.w3.org/2000/svg">
<rect width="440" height="225" transform="matrix(-1 0 0 1 440 0)" fill="url(#paint0_linear_1688_15192)"/>
<path d="M149.295 129.05C147.99 129.05 146.861 128.668 145.906 127.905C144.952 127.141 144.204 125.916 143.663 124.23C143.154 122.511 142.899 120.3 142.899 117.595H147.529C147.529 118.073 147.688 118.391 148.006 118.55C148.356 118.709 148.849 118.789 149.486 118.789H150.297L150.822 124.039L150.297 129.05H149.295ZM125.717 116.593C125.017 118.057 124.428 119.6 123.951 121.223C123.506 122.846 123.283 124.309 123.283 125.614C123.283 126.855 123.474 127.857 123.856 128.621C124.237 129.353 124.89 129.893 125.812 130.243C126.735 130.593 127.992 130.768 129.583 130.768H132.542C134.26 130.768 135.533 130.641 136.36 130.387C137.188 130.164 137.745 129.75 138.031 129.146C138.317 128.541 138.461 127.587 138.461 126.282V111.391H147.529V126.282C147.529 130.737 146.304 134.3 143.854 136.973C141.404 139.678 137.633 141.03 132.542 141.03H129.583C126.306 141.03 123.521 140.346 121.231 138.978C118.94 137.641 117.221 135.796 116.076 133.441C114.93 131.118 114.358 128.509 114.358 125.614C114.358 123.641 114.708 121.477 115.408 119.123C116.139 116.768 116.967 114.684 117.89 112.87L125.717 116.593ZM127.913 103.563C129.281 103.563 130.649 103.563 132.017 103.563C133.576 103.563 134.897 103.563 135.979 103.563C135.979 105.345 135.979 106.666 135.979 107.525C135.979 108.384 135.979 109.672 135.979 111.391C134.133 111.391 132.765 111.391 131.874 111.391C130.983 111.391 129.663 111.391 127.913 111.391C127.913 109.609 127.913 108.288 127.913 107.429C127.913 106.57 127.913 105.281 127.913 103.563ZM166.518 111.391V117.595C166.518 118.073 166.629 118.391 166.852 118.55C167.106 118.709 167.52 118.789 168.093 118.789H170.05L170.432 124.134L170.05 129.05H167.807C166.056 129.05 164.386 128.621 162.795 127.762C161.236 126.871 159.963 125.566 158.977 123.848C157.99 122.098 157.497 120.014 157.497 117.595V111.391H166.518ZM166.518 117.595C166.518 119.759 165.993 121.716 164.943 123.466C163.893 125.216 162.509 126.584 160.79 127.571C159.072 128.557 157.29 129.05 155.445 129.05H149.813V118.789H155.397C156.256 118.789 156.813 118.709 157.068 118.55C157.354 118.391 157.497 118.073 157.497 117.595H166.518ZM151.388 133.298C152.311 133.298 153.106 133.298 153.774 133.298C154.474 133.298 155.286 133.298 156.208 133.298C156.972 133.298 157.752 133.298 158.547 133.298C158.547 134.348 158.547 135.144 158.547 135.684C158.547 136.225 158.547 137.021 158.547 138.071C158.547 138.835 158.547 139.614 158.547 140.41C156.924 140.41 155.715 140.41 154.92 140.41C154.124 140.41 152.947 140.41 151.388 140.41C151.388 138.787 151.388 137.578 151.388 136.782C151.388 136.019 151.388 134.857 151.388 133.298ZM158.261 133.298C159.915 133.298 161.125 133.298 161.888 133.298C162.684 133.298 163.861 133.298 165.42 133.298C165.42 134.921 165.42 136.114 165.42 136.878C165.42 137.673 165.42 138.85 165.42 140.41C163.797 140.41 162.588 140.41 161.793 140.41C161.029 140.41 159.852 140.41 158.261 140.41C158.261 139.614 158.261 138.835 158.261 138.071C158.261 136.989 158.261 136.178 158.261 135.637C158.261 135.128 158.261 134.348 158.261 133.298ZM171.771 118.789H176.782C177.864 118.789 178.644 118.614 179.121 118.264C179.598 117.882 179.789 117.309 179.694 116.545C179.535 115.495 179.376 114.477 179.217 113.491C179.089 112.473 178.898 111.327 178.644 110.054L187.14 107.906C187.585 109.688 187.967 111.518 188.285 113.395C188.635 115.241 188.81 116.816 188.81 118.12C188.81 119.966 188.412 121.732 187.617 123.418C186.821 125.073 185.612 126.425 183.989 127.475C182.399 128.525 180.442 129.05 178.119 129.05H171.771V118.789ZM175.589 147.664C175.589 146.296 175.589 145.278 175.589 144.61C175.589 143.973 175.589 142.987 175.589 141.651C177.117 141.651 178.246 141.651 178.978 141.651C179.742 141.651 180.871 141.651 182.367 141.651C182.367 143.019 182.367 144.021 182.367 144.657C182.367 145.326 182.367 146.328 182.367 147.664C180.839 147.664 179.694 147.664 178.93 147.664C178.198 147.664 177.085 147.664 175.589 147.664ZM171.914 139.551C171.914 137.928 171.914 136.719 171.914 135.923C171.914 135.159 171.914 133.982 171.914 132.391C173.537 132.391 174.746 132.391 175.542 132.391C176.337 132.391 177.514 132.391 179.073 132.391C179.073 134.046 179.073 135.255 179.073 136.019C179.073 136.814 179.073 137.991 179.073 139.551C178.278 139.551 177.498 139.551 176.735 139.551C175.812 139.551 175.001 139.535 174.301 139.503C173.632 139.503 172.837 139.519 171.914 139.551ZM178.883 139.551C178.883 137.928 178.883 136.719 178.883 135.923C178.883 135.159 178.883 133.982 178.883 132.391C180.505 132.391 181.698 132.391 182.462 132.391C183.258 132.391 184.435 132.391 185.994 132.391C185.994 134.046 185.994 135.255 185.994 136.019C185.994 136.814 185.994 137.991 185.994 139.551C184.371 139.551 183.162 139.551 182.367 139.551C181.603 139.551 180.442 139.551 178.883 139.551ZM169.575 118.789H172.057L172.391 123.896L172.057 129.05H169.575V118.789ZM201.661 130.625C203.602 130.625 204.97 130.514 205.765 130.291C206.593 130.1 207.133 129.703 207.388 129.098C207.674 128.493 207.818 127.491 207.818 126.091V115.591C207.818 114.509 207.595 113.666 207.149 113.061C206.704 112.457 205.956 112.154 204.906 112.154C203.92 112.154 203.188 112.473 202.711 113.109C202.233 113.713 201.995 114.493 201.995 115.448C201.995 116.339 202.233 117.023 202.711 117.5C203.188 117.945 203.92 118.168 204.906 118.168H211.445V127.905H204.906C201.342 127.905 198.558 126.887 196.554 124.85C194.581 122.782 193.594 119.918 193.594 116.259C193.594 113.491 194.04 111.12 194.931 109.147C195.854 107.143 197.158 105.616 198.845 104.565C200.563 103.515 202.583 102.99 204.906 102.99C207.324 102.99 209.424 103.531 211.206 104.613C213.02 105.695 214.42 107.302 215.406 109.434C216.393 111.534 216.886 114.095 216.886 117.118V126.091C216.886 128.891 216.345 131.405 215.263 133.632C214.213 135.86 212.543 137.625 210.252 138.93C207.961 140.235 205.097 140.887 201.661 140.887H194.644V130.625H201.661Z" fill="white"/>
<path d="M316.024 141.907C321.161 137.868 324.912 132.329 326.754 126.06C328.596 119.79 328.439 113.103 326.303 106.927C324.168 100.751 320.161 95.3948 314.84 91.6023C309.518 87.8099 303.147 85.7703 296.613 85.7672L296.613 98.5724C300.481 98.5742 304.246 99.803 307.395 102.048C310.545 104.293 312.917 107.463 314.181 111.119C315.445 114.774 315.538 118.732 314.447 122.443C313.357 126.154 311.137 129.433 308.096 131.823L316.024 141.907Z" fill="white"/>
<path d="M280.607 85.7672H296.613L296.613 98.5724H280.607V85.7672Z" fill="white"/>
<path d="M280.89 110.791H297.187C300.723 110.791 303.59 113.657 303.59 117.193C303.59 120.729 300.723 123.596 297.187 123.596H280.89V110.791Z" fill="white"/>
<path d="M280.599 135.528H293.695L303.59 148.333H280.599V135.528Z" fill="white"/>
<path d="M222.299 123.601C222.712 125.41 223.301 127.474 224.03 129.19C225.644 132.989 227.991 136.433 230.936 139.325C233.881 142.217 237.367 144.501 241.194 146.046C245.022 147.591 249.116 148.367 253.244 148.329L253.164 135.533C250.721 135.555 248.261 135.066 245.995 134.151C243.73 133.237 241.666 131.885 239.923 130.173C238.18 128.462 236.775 126.132 235.82 123.884C235.78 123.79 235.741 123.695 235.702 123.601H222.299Z" fill="white"/>
<path d="M268.879 148.317L253.244 148.329L253.164 135.533L268.879 135.511V148.317Z" fill="white"/>
<path d="M256.074 135.533V103.811H268.88L268.879 135.511L256.074 135.533Z" fill="white"/>
<path d="M268.88 116.616H235.702L225.807 103.811H268.88V116.616Z" fill="white"/>
<path d="M253.746 85.7772L253.746 98.5724H240.941V88.0568C244.392 86.6667 248.419 85.7772 253.035 85.7772H253.746Z" fill="white"/>
<path d="M238.613 89.1099L238.613 98.5724H227.636C229.837 95.4851 233.479 91.6965 238.613 89.1099Z" fill="white"/>
<path d="M268.76 98.5724H256.074V85.7772H268.76L268.76 98.5724Z" fill="white"/>
<path d="M124.978 171.916C125.177 172.713 125.552 173.273 126.104 173.595C126.656 173.917 127.33 174.078 128.127 174.078H128.587L128.748 175.48L128.587 176.974H128.127C126.886 176.974 125.729 176.63 124.656 175.94C123.598 175.235 122.878 174.124 122.494 172.606C121.851 169.878 121.207 167.15 120.563 164.421L123.046 163.778L124.978 171.916ZM124.242 169.272C124.349 170.269 124.349 171.104 124.242 171.778C124.15 172.453 123.928 173.089 123.575 173.687C123.146 174.438 122.602 175.02 121.943 175.434C121.284 175.848 120.571 176.055 119.804 176.055C119.038 176.055 118.287 175.848 117.551 175.434C116.831 175.02 116.272 174.438 115.873 173.687C115.474 172.936 115.275 172.139 115.275 171.296C115.275 170.453 115.474 169.686 115.873 168.997C116.164 168.506 116.486 168.1 116.839 167.778C117.206 167.456 117.789 167.088 118.586 166.674C119.383 166.261 120.563 165.739 122.127 165.111L123.092 167.778C121.897 168.192 120.954 168.56 120.264 168.882C119.575 169.203 119.076 169.487 118.77 169.732C118.479 169.978 118.249 170.223 118.08 170.468C117.82 170.912 117.751 171.372 117.873 171.847C117.996 172.307 118.272 172.683 118.701 172.974C119.13 173.25 119.613 173.342 120.149 173.25C120.686 173.143 121.146 172.874 121.529 172.445C121.789 172.154 121.943 171.809 121.989 171.411C122.035 170.997 121.989 170.437 121.851 169.732L124.242 169.272ZM128.358 174.078H129.415C130.228 174.078 130.917 174.055 131.485 174.009C132.052 173.947 132.557 173.855 133.002 173.733L131.577 171.778C130.902 170.844 130.435 170.2 130.174 169.847L131.76 166.973H137.899C138.803 166.973 139.524 167.28 140.06 167.893C140.612 168.506 140.873 169.234 140.842 170.077C140.811 170.92 140.482 171.664 139.853 172.307L139.187 172.951C138.834 173.258 138.489 173.579 138.152 173.917C138.443 173.978 138.711 174.024 138.957 174.055C139.202 174.07 139.516 174.078 139.899 174.078H142.175L142.359 175.549L142.175 176.974H139.164C138.397 176.974 137.73 176.875 137.163 176.676C136.596 176.476 136.037 176.185 135.485 175.802C134.811 176.185 134.052 176.476 133.209 176.676C132.366 176.875 131.362 176.974 130.197 176.974H128.358V174.078ZM135.646 173.181C135.998 172.844 136.466 172.361 137.048 171.732C137.386 171.38 137.723 171.043 138.06 170.721C138.213 170.568 138.298 170.399 138.313 170.215C138.328 170.031 138.267 169.886 138.129 169.778C137.991 169.656 137.792 169.594 137.531 169.594H132.956C133.278 169.993 133.73 170.583 134.312 171.365C134.772 172.008 135.217 172.614 135.646 173.181ZM141.941 174.078H143.528C144.126 174.078 144.555 173.955 144.815 173.71C145.076 173.449 145.206 173.035 145.206 172.468V169.479H147.758V172.606C147.758 173.112 147.896 173.48 148.172 173.71C148.448 173.94 148.831 174.062 149.322 174.078C149.889 174.062 150.31 173.924 150.586 173.664C150.877 173.403 151.023 172.997 151.023 172.445L151 169.479H153.552V172.606C153.552 173.112 153.675 173.48 153.92 173.71C154.18 173.94 154.564 174.062 155.069 174.078C155.606 174.062 156.02 173.924 156.311 173.664C156.602 173.388 156.725 173.02 156.679 172.56C156.602 171.962 156.502 171.342 156.38 170.698C156.273 170.054 156.15 169.372 156.012 168.652L158.426 168.031C158.61 168.782 158.779 169.61 158.932 170.514C159.085 171.403 159.169 172.131 159.185 172.698C159.2 173.434 159.062 174.131 158.771 174.79C158.48 175.434 158.02 175.963 157.391 176.377C156.778 176.775 156.004 176.974 155.069 176.974C154.518 176.974 153.989 176.86 153.483 176.63C152.993 176.384 152.571 176.04 152.218 175.595C151.866 176.024 151.437 176.361 150.931 176.607C150.425 176.852 149.873 176.974 149.276 176.974C148.754 176.974 148.218 176.844 147.666 176.584C147.114 176.323 146.693 175.994 146.402 175.595C146.095 176.024 145.681 176.361 145.16 176.607C144.654 176.852 144.08 176.974 143.436 176.974H141.941V174.078ZM164.54 179.986C165.567 179.986 166.341 179.879 166.862 179.664C167.383 179.465 167.736 179.136 167.92 178.676C168.119 178.231 168.219 177.603 168.219 176.791V172.238C168.219 171.426 168.042 170.79 167.69 170.33C167.353 169.87 166.808 169.64 166.057 169.64C165.368 169.64 164.839 169.878 164.471 170.353C164.118 170.813 163.942 171.426 163.942 172.192C163.942 172.882 164.111 173.388 164.448 173.71C164.785 174.016 165.329 174.17 166.08 174.17H168.908L169.667 174.078H172.058L172.219 175.549L172.058 176.974H166.08C164.67 176.974 163.551 176.561 162.724 175.733C161.896 174.905 161.482 173.756 161.482 172.284C161.482 171.242 161.674 170.315 162.057 169.502C162.455 168.675 163 168.031 163.689 167.571C164.379 167.111 165.168 166.881 166.057 166.881C166.992 166.881 167.812 167.111 168.517 167.571C169.238 168.016 169.79 168.644 170.173 169.456C170.571 170.269 170.771 171.211 170.771 172.284V176.791C170.771 177.986 170.564 179.036 170.15 179.94C169.736 180.845 169.062 181.557 168.127 182.079C167.207 182.615 166.011 182.883 164.54 182.883H161.873V179.986H164.54ZM171.825 174.078H174.538C175.305 174.078 175.841 173.947 176.148 173.687C176.47 173.426 176.615 173.058 176.585 172.583C176.554 172.154 176.47 171.564 176.332 170.813C176.209 170.046 176.079 169.326 175.941 168.652L178.355 168.031C178.539 168.782 178.707 169.61 178.861 170.514C179.014 171.403 179.106 172.131 179.137 172.698C179.152 173.434 178.999 174.131 178.677 174.79C178.355 175.434 177.857 175.963 177.182 176.377C176.508 176.775 175.68 176.974 174.699 176.974H171.825V174.078ZM172.584 162.835C172.983 162.835 173.274 162.835 173.458 162.835C173.657 162.835 173.948 162.835 174.332 162.835C174.623 162.835 174.906 162.835 175.182 162.835C175.182 163.433 175.182 163.877 175.182 164.168C175.182 164.444 175.182 164.866 175.182 165.433C174.6 165.433 174.163 165.433 173.872 165.433C173.596 165.433 173.167 165.433 172.584 165.433C172.584 164.835 172.584 164.398 172.584 164.122C172.584 163.847 172.584 163.417 172.584 162.835ZM176.838 162.835C177.435 162.835 177.872 162.835 178.148 162.835C178.439 162.835 178.868 162.835 179.436 162.835C179.436 163.433 179.436 163.877 179.436 164.168C179.436 164.444 179.436 164.866 179.436 165.433C178.838 165.433 178.393 165.433 178.102 165.433C177.826 165.433 177.405 165.433 176.838 165.433C176.838 164.835 176.838 164.398 176.838 164.122C176.838 163.847 176.838 163.417 176.838 162.835ZM189.327 179.871C190.354 179.871 191.128 179.764 191.649 179.55C192.171 179.35 192.523 179.021 192.707 178.561C192.906 178.116 193.006 177.488 193.006 176.676V172.123C193.006 171.311 192.83 170.675 192.477 170.215C192.14 169.755 191.596 169.525 190.845 169.525C190.155 169.525 189.626 169.763 189.258 170.238C188.906 170.698 188.73 171.311 188.73 172.077C188.73 172.767 188.898 173.273 189.235 173.595C189.573 173.901 190.117 174.055 190.868 174.055H194.178V176.86H190.868C189.458 176.86 188.339 176.446 187.511 175.618C186.683 174.79 186.27 173.641 186.27 172.169C186.27 171.127 186.461 170.2 186.844 169.387C187.243 168.56 187.787 167.916 188.477 167.456C189.166 166.996 189.956 166.766 190.845 166.766C191.78 166.766 192.6 166.996 193.305 167.456C194.025 167.901 194.577 168.529 194.96 169.341C195.359 170.154 195.558 171.096 195.558 172.169V176.676C195.558 177.871 195.351 178.921 194.937 179.825C194.523 180.73 193.849 181.442 192.914 181.964C191.994 182.5 190.799 182.768 189.327 182.768H186.66V179.871H189.327ZM206.407 170.813C206.07 171.61 205.771 172.415 205.51 173.227C205.265 174.039 205.142 174.898 205.142 175.802C205.142 176.752 205.265 177.519 205.51 178.101C205.771 178.699 206.2 179.143 206.798 179.435C207.395 179.741 208.2 179.894 209.212 179.894H211.534C212.561 179.894 213.335 179.787 213.856 179.572C214.392 179.373 214.753 179.051 214.936 178.607C215.136 178.178 215.235 177.572 215.235 176.791V172.238C215.235 171.426 215.059 170.79 214.707 170.33C214.354 169.87 213.802 169.64 213.051 169.64C212.377 169.64 211.856 169.878 211.488 170.353C211.135 170.813 210.959 171.426 210.959 172.192C210.959 172.882 211.128 173.388 211.465 173.71C211.802 174.016 212.338 174.17 213.074 174.17H215.902L216.661 174.078H219.052L219.213 175.549L219.052 176.974H213.074C211.679 176.974 210.56 176.561 209.717 175.733C208.89 174.905 208.476 173.756 208.476 172.284C208.476 171.242 208.668 170.315 209.051 169.502C209.449 168.675 209.993 168.031 210.683 167.571C211.388 167.111 212.178 166.881 213.051 166.881C214.001 166.881 214.829 167.111 215.534 167.571C216.255 168.016 216.806 168.644 217.19 169.456C217.588 170.269 217.787 171.211 217.787 172.284V176.791C217.787 177.955 217.573 178.982 217.144 179.871C216.73 180.76 216.055 181.465 215.12 181.987C214.201 182.523 213.005 182.791 211.534 182.791H209.212C207.02 182.791 205.38 182.201 204.292 181.021C203.219 179.841 202.682 178.162 202.682 175.986C202.682 174.775 202.835 173.648 203.142 172.606C203.449 171.564 203.809 170.591 204.223 169.686L204.292 169.548L206.499 170.606L206.407 170.813ZM209.465 162.375C209.863 162.375 210.154 162.375 210.338 162.375C210.537 162.375 210.829 162.375 211.212 162.375C211.503 162.375 211.787 162.375 212.063 162.375C212.063 162.973 212.063 163.417 212.063 163.709C212.063 163.984 212.063 164.406 212.063 164.973C211.48 164.973 211.043 164.973 210.752 164.973C210.476 164.973 210.047 164.973 209.465 164.973C209.465 164.375 209.465 163.938 209.465 163.663C209.465 163.387 209.465 162.958 209.465 162.375ZM213.718 162.375C214.316 162.375 214.753 162.375 215.028 162.375C215.32 162.375 215.749 162.375 216.316 162.375C216.316 162.973 216.316 163.417 216.316 163.709C216.316 163.984 216.316 164.406 216.316 164.973C215.718 164.973 215.274 164.973 214.982 164.973C214.707 164.973 214.285 164.973 213.718 164.973C213.718 164.375 213.718 163.938 213.718 163.663C213.718 163.387 213.718 162.958 213.718 162.375ZM225.853 169.479V172.79C225.853 173.265 225.976 173.602 226.221 173.802C226.467 173.986 226.85 174.078 227.371 174.078H228.589L228.727 175.595L228.589 176.974H227.371C226.773 176.974 226.16 176.821 225.532 176.515C224.903 176.208 224.374 175.733 223.945 175.089C223.516 174.43 223.301 173.61 223.301 172.629V169.479H225.853ZM225.67 172.859C225.67 173.733 225.463 174.484 225.049 175.112C224.635 175.725 224.099 176.193 223.439 176.515C222.78 176.821 222.098 176.974 221.393 176.974H218.818V174.078H221.393C222.068 174.078 222.55 173.97 222.842 173.756C223.148 173.526 223.301 173.15 223.301 172.629L225.67 172.859ZM219.324 180.009C219.723 180.009 220.014 180.009 220.198 180.009C220.397 180.009 220.688 180.009 221.071 180.009C221.363 180.009 221.646 180.009 221.922 180.009C221.922 180.607 221.922 181.044 221.922 181.32C221.922 181.611 221.922 182.04 221.922 182.607C221.34 182.607 220.903 182.607 220.612 182.607C220.336 182.607 219.906 182.607 219.324 182.607C219.324 182.01 219.324 181.573 219.324 181.297C219.324 181.021 219.324 180.592 219.324 180.009ZM223.577 180.009C224.175 180.009 224.612 180.009 224.888 180.009C225.179 180.009 225.608 180.009 226.175 180.009C226.175 180.607 226.175 181.044 226.175 181.32C226.175 181.611 226.175 182.04 226.175 182.607C225.578 182.607 225.133 182.607 224.842 182.607C224.566 182.607 224.144 182.607 223.577 182.607C223.577 182.01 223.577 181.573 223.577 181.297C223.577 181.021 223.577 180.592 223.577 180.009ZM228.314 174.078H229.326C230.062 174.078 230.752 174.047 231.395 173.986C230.981 173.618 230.652 173.196 230.407 172.721C230.177 172.231 230.062 171.717 230.062 171.181C230.062 170.368 230.269 169.602 230.683 168.882C231.096 168.146 231.656 167.556 232.361 167.111C233.066 166.667 233.848 166.445 234.706 166.445C235.549 166.445 236.315 166.667 237.005 167.111C237.71 167.556 238.27 168.146 238.683 168.882C239.097 169.602 239.304 170.368 239.304 171.181C239.304 171.717 239.182 172.231 238.936 172.721C238.706 173.196 238.377 173.625 237.948 174.009C238.622 174.055 239.304 174.078 239.994 174.078H240.983L241.167 175.526L240.983 176.974H239.58C238.921 176.974 238.147 176.898 237.258 176.745C236.369 176.576 235.511 176.338 234.683 176.032C233.825 176.338 232.951 176.576 232.062 176.745C231.188 176.898 230.422 176.974 229.763 176.974H228.314V174.078ZM234.66 173.618C235.304 173.419 235.825 173.12 236.223 172.721C236.622 172.307 236.821 171.84 236.821 171.319C236.821 170.706 236.614 170.207 236.2 169.824C235.802 169.426 235.304 169.226 234.706 169.226C234.108 169.226 233.602 169.426 233.189 169.824C232.775 170.207 232.568 170.706 232.568 171.319C232.568 171.855 232.752 172.323 233.12 172.721C233.503 173.12 234.016 173.419 234.66 173.618ZM231.303 162.283C231.702 162.283 231.993 162.283 232.177 162.283C232.376 162.283 232.667 162.283 233.051 162.283C233.342 162.283 233.625 162.283 233.901 162.283C233.901 162.881 233.901 163.325 233.901 163.617C233.901 163.893 233.901 164.314 233.901 164.881C233.319 164.881 232.882 164.881 232.591 164.881C232.315 164.881 231.886 164.881 231.303 164.881C231.303 164.283 231.303 163.847 231.303 163.571C231.303 163.295 231.303 162.866 231.303 162.283ZM235.557 162.283C236.154 162.283 236.591 162.283 236.867 162.283C237.158 162.283 237.588 162.283 238.155 162.283C238.155 162.881 238.155 163.325 238.155 163.617C238.155 163.893 238.155 164.314 238.155 164.881C237.557 164.881 237.112 164.881 236.821 164.881C236.545 164.881 236.124 164.881 235.557 164.881C235.557 164.283 235.557 163.847 235.557 163.571C235.557 163.295 235.557 162.866 235.557 162.283ZM255.124 176.974C254.02 176.974 253.1 176.676 252.365 176.078C251.629 175.48 251.169 174.591 250.985 173.411L252.227 172.399C252.441 172.936 252.802 173.35 253.307 173.641C253.828 173.932 254.419 174.078 255.078 174.078H256.687L256.871 175.503L256.687 176.974H255.124ZM240.662 174.078H243.467C244.509 174.078 245.49 173.97 246.41 173.756C247.345 173.541 248.226 173.25 249.054 172.882C249.897 172.514 250.847 172.024 251.905 171.411L252.526 171.043L252.618 171.962L251.606 171.572C250.135 171.02 248.878 170.575 247.835 170.238C246.793 169.901 246.119 169.732 245.812 169.732C245.444 169.732 245.138 169.832 244.893 170.031C244.663 170.23 244.456 170.583 244.272 171.089L241.973 170.376C242.341 169.211 242.854 168.337 243.513 167.755C244.172 167.173 244.939 166.881 245.812 166.881C246.364 166.881 247.215 167.088 248.364 167.502C249.529 167.901 251.031 168.483 252.87 169.249C253.361 169.449 253.752 169.61 254.043 169.732L254.503 172.859L253.491 173.48C252.219 174.262 251.1 174.898 250.135 175.388C249.184 175.863 248.15 176.246 247.031 176.538C245.927 176.829 244.739 176.974 243.467 176.974H240.662V174.078ZM256.403 174.078H259.116C259.883 174.078 260.419 173.947 260.726 173.687C261.048 173.426 261.193 173.058 261.163 172.583C261.132 172.154 261.048 171.564 260.91 170.813C260.787 170.046 260.657 169.326 260.519 168.652L262.933 168.031C263.117 168.782 263.285 169.61 263.439 170.514C263.592 171.403 263.684 172.131 263.715 172.698C263.73 173.434 263.577 174.131 263.255 174.79C262.933 175.434 262.435 175.963 261.76 176.377C261.086 176.775 260.258 176.974 259.277 176.974H256.403V174.078ZM257.162 162.835C257.561 162.835 257.852 162.835 258.036 162.835C258.235 162.835 258.526 162.835 258.909 162.835C259.201 162.835 259.484 162.835 259.76 162.835C259.76 163.433 259.76 163.877 259.76 164.168C259.76 164.444 259.76 164.866 259.76 165.433C259.178 165.433 258.741 165.433 258.45 165.433C258.174 165.433 257.745 165.433 257.162 165.433C257.162 164.835 257.162 164.398 257.162 164.122C257.162 163.847 257.162 163.417 257.162 162.835ZM261.415 162.835C262.013 162.835 262.45 162.835 262.726 162.835C263.017 162.835 263.446 162.835 264.013 162.835C264.013 163.433 264.013 163.877 264.013 164.168C264.013 164.444 264.013 164.866 264.013 165.433C263.416 165.433 262.971 165.433 262.68 165.433C262.404 165.433 261.983 165.433 261.415 165.433C261.415 164.835 261.415 164.398 261.415 164.122C261.415 163.847 261.415 163.417 261.415 162.835ZM275.4 176.974C274.373 176.974 273.491 176.729 272.756 176.239C272.035 175.748 271.507 175.097 271.169 174.285C270.847 173.472 270.763 172.621 270.916 171.732C271.085 170.752 271.323 169.648 271.629 168.422L273.974 169.02L273.859 169.548C273.553 170.79 273.376 171.648 273.33 172.123C273.254 172.721 273.392 173.196 273.744 173.549C274.112 173.901 274.664 174.078 275.4 174.078H285.378C286.052 174.078 286.543 173.97 286.849 173.756C287.156 173.526 287.309 173.15 287.309 172.629V169.479H289.838V172.79C289.838 173.265 289.961 173.602 290.206 173.802C290.451 173.986 290.842 174.078 291.379 174.078H292.114L292.252 175.526L292.114 176.974H291.379C290.888 176.974 290.382 176.867 289.861 176.653C289.34 176.438 288.88 176.124 288.482 175.71C288.114 176.124 287.654 176.438 287.102 176.653C286.566 176.867 285.991 176.974 285.378 176.974H275.4ZM277.308 166.307C277.706 166.307 277.998 166.307 278.182 166.307C278.381 166.307 278.672 166.307 279.055 166.307C279.347 166.307 279.63 166.307 279.906 166.307C279.906 166.904 279.906 167.349 279.906 167.64C279.906 167.916 279.906 168.337 279.906 168.905C279.324 168.905 278.887 168.905 278.595 168.905C278.32 168.905 277.89 168.905 277.308 168.905C277.308 168.307 277.308 167.87 277.308 167.594C277.308 167.318 277.308 166.889 277.308 166.307ZM281.561 166.307C282.159 166.307 282.596 166.307 282.872 166.307C283.163 166.307 283.592 166.307 284.159 166.307C284.159 166.904 284.159 167.349 284.159 167.64C284.159 167.916 284.159 168.337 284.159 168.905C283.562 168.905 283.117 168.905 282.826 168.905C282.55 168.905 282.128 168.905 281.561 168.905C281.561 168.307 281.561 167.87 281.561 167.594C281.561 167.318 281.561 166.889 281.561 166.307ZM302.799 163.157L296.108 166.123L299.879 169.939C300.722 170.798 301.151 171.786 301.167 172.905C301.197 174.024 300.837 174.982 300.086 175.779C299.335 176.576 298.308 176.974 297.005 176.974H291.878V174.078H297.051C297.572 174.078 297.963 173.97 298.224 173.756C298.5 173.541 298.614 173.265 298.569 172.928C298.538 172.591 298.346 172.246 297.994 171.893L293.35 167.203L293.993 163.938L301.787 160.536L302.799 163.157ZM307.962 169.479V175.963C307.962 177.404 307.717 178.63 307.226 179.641C306.736 180.653 306.008 181.427 305.042 181.964C304.076 182.5 302.904 182.768 301.524 182.768H300.076V179.871H301.524C302.505 179.871 303.272 179.749 303.823 179.504C304.391 179.258 304.797 178.852 305.042 178.285C305.303 177.733 305.433 176.959 305.433 175.963V169.479H307.962ZM307.962 172.79C307.962 173.265 308.084 173.602 308.33 173.802C308.575 173.986 308.966 174.078 309.502 174.078H309.87L310.008 175.549L309.87 176.974H309.502C309.042 176.974 308.621 176.883 308.238 176.699C307.87 176.515 307.556 176.2 307.295 175.756C307.05 175.311 306.912 174.737 306.881 174.032L307.962 172.79ZM309.638 174.078H311.224C311.822 174.078 312.251 173.955 312.512 173.71C312.772 173.449 312.903 173.035 312.903 172.468V169.479H315.455V172.606C315.455 173.112 315.593 173.48 315.868 173.71C316.144 173.94 316.528 174.062 317.018 174.078C317.585 174.062 318.007 173.924 318.283 173.664C318.574 173.403 318.719 172.997 318.719 172.445L318.696 169.479H321.248V172.606C321.248 173.112 321.371 173.48 321.616 173.71C321.877 173.94 322.26 174.062 322.766 174.078C323.302 174.062 323.716 173.924 324.007 173.664C324.299 173.388 324.421 173.02 324.375 172.56C324.299 171.962 324.199 171.342 324.076 170.698C323.969 170.054 323.846 169.372 323.708 168.652L326.123 168.031C326.306 168.782 326.475 169.61 326.628 170.514C326.782 171.403 326.866 172.131 326.881 172.698C326.897 173.434 326.759 174.131 326.467 174.79C326.176 175.434 325.716 175.963 325.088 176.377C324.475 176.775 323.701 176.974 322.766 176.974C322.214 176.974 321.685 176.86 321.179 176.63C320.689 176.384 320.267 176.04 319.915 175.595C319.562 176.024 319.133 176.361 318.627 176.607C318.122 176.852 317.57 176.974 316.972 176.974C316.451 176.974 315.914 176.844 315.363 176.584C314.811 176.323 314.389 175.994 314.098 175.595C313.792 176.024 313.378 176.361 312.857 176.607C312.351 176.852 311.776 176.974 311.132 176.974H309.638V174.078ZM318.811 160.858C319.363 160.858 319.777 160.858 320.053 160.858C320.329 160.858 320.735 160.858 321.271 160.858C321.271 161.409 321.271 161.823 321.271 162.099C321.271 162.375 321.271 162.781 321.271 163.318C320.72 163.318 320.306 163.318 320.03 163.318C319.769 163.318 319.363 163.318 318.811 163.318C318.811 162.766 318.811 162.36 318.811 162.099C318.811 161.823 318.811 161.409 318.811 160.858ZM316.581 164.053C316.964 164.053 317.256 164.053 317.455 164.053C317.654 164.053 317.945 164.053 318.329 164.053C318.62 164.053 318.903 164.053 319.179 164.053C319.179 164.651 319.179 165.088 319.179 165.364C319.179 165.64 319.179 166.069 319.179 166.651C318.581 166.651 318.137 166.651 317.846 166.651C317.57 166.651 317.148 166.651 316.581 166.651C316.581 166.054 316.581 165.617 316.581 165.341C316.581 165.05 316.581 164.621 316.581 164.053ZM320.904 164.053C321.501 164.053 321.938 164.053 322.214 164.053C322.49 164.053 322.919 164.053 323.502 164.053C323.502 164.651 323.502 165.088 323.502 165.364C323.502 165.64 323.502 166.069 323.502 166.651C322.904 166.651 322.459 166.651 322.168 166.651C321.892 166.651 321.471 166.651 320.904 166.651C320.904 166.054 320.904 165.617 320.904 165.341C320.904 165.05 320.904 164.621 320.904 164.053ZM134.18 200.974C133.567 200.974 133.03 200.821 132.571 200.515C132.111 200.208 131.743 199.733 131.467 199.089C131.191 198.43 131.053 197.625 131.053 196.675H132.594C132.594 197.212 132.724 197.579 132.984 197.779C133.26 197.978 133.659 198.078 134.18 198.078H134.617L134.778 199.572L134.617 200.974H134.18ZM121.65 195.227C121.251 196.054 120.945 196.859 120.73 197.641C120.515 198.407 120.408 199.174 120.408 199.94C120.408 200.768 120.531 201.473 120.776 202.055C121.037 202.638 121.45 203.082 122.018 203.389C122.585 203.71 123.328 203.871 124.248 203.871H126.363C127.375 203.871 128.133 203.772 128.639 203.572C129.16 203.389 129.52 203.074 129.72 202.63C129.934 202.185 130.041 201.542 130.041 200.699V193.479H132.594V200.699C132.594 202.569 132.088 204.048 131.076 205.136C130.08 206.224 128.509 206.768 126.363 206.768H124.248C122.899 206.768 121.749 206.462 120.799 205.849C119.849 205.236 119.128 204.408 118.638 203.366C118.147 202.323 117.902 201.181 117.902 199.94C117.902 198.974 118.055 197.978 118.362 196.951C118.669 195.909 119.052 194.951 119.512 194.077L121.65 195.227ZM124.363 192.054C124.838 192.054 125.313 192.054 125.788 192.054C126.248 192.054 126.708 192.054 127.168 192.054C127.168 192.682 127.168 193.15 127.168 193.456C127.168 193.748 127.168 194.2 127.168 194.813C126.524 194.813 126.049 194.813 125.742 194.813C125.436 194.813 124.976 194.813 124.363 194.813C124.363 194.184 124.363 193.725 124.363 193.433C124.363 193.127 124.363 192.667 124.363 192.054ZM134.397 198.078H139.18L139.341 199.48L139.18 200.974H134.397V198.078ZM138.955 198.078H143.737L143.898 199.48L143.737 200.974H138.955V198.078ZM143.513 198.078H148.295L148.456 199.48L148.295 200.974H143.513V198.078ZM148.071 198.078H152.853L153.014 199.48L152.853 200.974H148.071V198.078ZM152.629 198.078H157.411L157.572 199.48L157.411 200.974H152.629V198.078ZM157.187 198.078H161.969L162.13 199.48L161.969 200.974H157.187V198.078ZM161.744 198.078H166.527L166.687 199.48L166.527 200.974H161.744V198.078ZM166.302 198.078H171.084L171.245 199.48L171.084 200.974H166.302V198.078ZM170.86 198.078H175.642L175.803 199.48L175.642 200.974H170.86V198.078ZM175.418 198.078H180.2L180.361 199.48L180.2 200.974H175.418V198.078ZM179.976 198.078H184.758L184.919 199.48L184.758 200.974H179.976V198.078ZM184.533 198.078H189.316L189.477 199.48L189.316 200.974H184.533V198.078ZM189.091 198.078H193.873L194.034 199.48L193.873 200.974H189.091V198.078ZM193.649 198.078H198.431L198.592 199.48L198.431 200.974H193.649V198.078ZM198.207 198.078H202.989L203.15 199.48L202.989 200.974H198.207V198.078ZM202.765 198.078H207.547L207.708 199.48L207.547 200.974H202.765V198.078ZM207.323 198.078H212.105L212.266 199.48L212.105 200.974H207.323V198.078ZM211.88 198.078H216.663L216.824 199.48L216.663 200.974H211.88V198.078ZM216.438 198.078H221.22L221.381 199.48L221.22 200.974H216.438V198.078ZM220.996 198.078H225.778L225.939 199.48L225.778 200.974H220.996V198.078ZM225.554 198.078H230.336L230.497 199.48L230.336 200.974H225.554V198.078ZM230.112 198.078H234.894L235.055 199.48L234.894 200.974H230.112V198.078ZM234.67 198.078H239.452L239.613 199.48L239.452 200.974H234.67V198.078ZM239.227 198.078H244.01L244.17 199.48L244.01 200.974H239.227V198.078ZM243.785 198.078H248.567L248.728 199.48L248.567 200.974H243.785V198.078ZM248.343 198.078H253.125L253.286 199.48L253.125 200.974H248.343V198.078ZM252.901 198.078H257.683L257.844 199.48L257.683 200.974H252.901V198.078ZM257.459 198.078H262.241L262.402 199.48L262.241 200.974H257.459V198.078ZM262.016 198.078H266.799L266.96 199.48L266.799 200.974H262.016V198.078ZM266.574 198.078H271.356L271.517 199.48L271.356 200.974H266.574V198.078ZM271.132 198.078H275.914L276.075 199.48L275.914 200.974H271.132V198.078ZM275.69 198.078H280.472L280.633 199.48L280.472 200.974H275.69V198.078ZM280.248 198.078H285.03L285.191 199.48L285.03 200.974H280.248V198.078ZM284.806 198.078H289.588L289.749 199.48L289.588 200.974H284.806V198.078ZM296.399 193.479V196.79C296.399 197.265 296.521 197.602 296.767 197.802C297.012 197.986 297.395 198.078 297.916 198.078H299.135L299.273 199.595L299.135 200.974H297.916C297.318 200.974 296.705 200.821 296.077 200.515C295.448 200.208 294.92 199.733 294.49 199.089C294.061 198.43 293.847 197.61 293.847 196.629V193.479H296.399ZM296.215 196.859C296.215 197.733 296.008 198.484 295.594 199.112C295.18 199.725 294.644 200.193 293.985 200.515C293.326 200.821 292.643 200.974 291.938 200.974H289.363V198.078H291.938C292.613 198.078 293.096 197.97 293.387 197.756C293.693 197.526 293.847 197.15 293.847 196.629L296.215 196.859ZM288.053 204.009C288.451 204.009 288.75 204.009 288.95 204.009C289.134 204.009 289.417 204.009 289.8 204.009C290.091 204.009 290.375 204.009 290.651 204.009C290.651 204.607 290.651 205.044 290.651 205.32C290.651 205.611 290.651 206.04 290.651 206.607C290.068 206.607 289.639 206.607 289.363 206.607C289.072 206.607 288.635 206.607 288.053 206.607C288.053 206.01 288.053 205.573 288.053 205.297C288.053 205.021 288.053 204.592 288.053 204.009ZM292.306 204.009C292.904 204.009 293.341 204.009 293.617 204.009C293.908 204.009 294.337 204.009 294.904 204.009C294.904 204.607 294.904 205.044 294.904 205.32C294.904 205.611 294.904 206.04 294.904 206.607C294.307 206.607 293.862 206.607 293.571 206.607C293.295 206.607 292.873 206.607 292.306 206.607C292.306 206.01 292.306 205.573 292.306 205.297C292.306 205.021 292.306 204.592 292.306 204.009ZM298.906 198.078H301.619C302.385 198.078 302.921 197.947 303.228 197.687C303.55 197.426 303.695 197.058 303.665 196.583C303.634 196.154 303.55 195.564 303.412 194.813C303.289 194.046 303.159 193.326 303.021 192.652L305.435 192.031C305.619 192.782 305.788 193.61 305.941 194.514C306.094 195.403 306.186 196.131 306.217 196.698C306.232 197.434 306.079 198.131 305.757 198.79C305.435 199.434 304.937 199.963 304.263 200.377C303.588 200.775 302.761 200.974 301.78 200.974H298.906V198.078ZM300.216 208.723C300.216 208.171 300.216 207.757 300.216 207.481C300.216 207.22 300.216 206.814 300.216 206.262C300.768 206.262 301.182 206.262 301.458 206.262C301.734 206.262 302.14 206.262 302.676 206.262C302.676 206.814 302.676 207.228 302.676 207.504C302.676 207.78 302.676 208.186 302.676 208.723C302.124 208.723 301.711 208.723 301.435 208.723C301.174 208.723 300.768 208.723 300.216 208.723ZM297.986 205.527C297.986 204.944 297.986 204.507 297.986 204.216C297.986 203.94 297.986 203.511 297.986 202.929C298.584 202.929 299.021 202.929 299.297 202.929C299.572 202.929 300.002 202.929 300.584 202.929C300.584 203.527 300.584 203.963 300.584 204.239C300.584 204.53 300.584 204.96 300.584 205.527C300.293 205.527 300.002 205.527 299.71 205.527C299.327 205.527 299.044 205.527 298.86 205.527C298.66 205.527 298.369 205.527 297.986 205.527ZM302.308 205.527C302.308 204.944 302.308 204.507 302.308 204.216C302.308 203.94 302.308 203.511 302.308 202.929C302.891 202.929 303.32 202.929 303.596 202.929C303.887 202.929 304.324 202.929 304.906 202.929C304.906 203.527 304.906 203.963 304.906 204.239C304.906 204.53 304.906 204.96 304.906 205.527C304.309 205.527 303.864 205.527 303.573 205.527C303.297 205.527 302.875 205.527 302.308 205.527ZM311.58 203.871C312.607 203.871 313.381 203.764 313.902 203.55C314.424 203.35 314.776 203.021 314.96 202.561C315.159 202.116 315.259 201.488 315.259 200.676V196.123C315.259 195.311 315.083 194.675 314.73 194.215C314.393 193.755 313.849 193.525 313.098 193.525C312.408 193.525 311.879 193.763 311.511 194.238C311.159 194.698 310.982 195.311 310.982 196.077C310.982 196.767 311.151 197.273 311.488 197.595C311.826 197.901 312.37 198.055 313.121 198.055H316.431V200.86H313.121C311.711 200.86 310.592 200.446 309.764 199.618C308.936 198.79 308.522 197.641 308.522 196.169C308.522 195.127 308.714 194.2 309.097 193.387C309.496 192.56 310.04 191.916 310.73 191.456C311.419 190.996 312.209 190.766 313.098 190.766C314.033 190.766 314.853 190.996 315.558 191.456C316.278 191.901 316.83 192.529 317.213 193.341C317.612 194.154 317.811 195.096 317.811 196.169V200.676C317.811 201.871 317.604 202.921 317.19 203.825C316.776 204.73 316.102 205.442 315.167 205.964C314.247 206.5 313.052 206.768 311.58 206.768H308.913V203.871H311.58ZM326.148 193.479V199.963C326.148 201.404 325.903 202.63 325.413 203.641C324.922 204.653 324.194 205.427 323.228 205.964C322.263 206.5 321.09 206.768 319.711 206.768H318.262V203.871H319.711C320.692 203.871 321.458 203.749 322.01 203.504C322.577 203.258 322.983 202.852 323.228 202.285C323.489 201.733 323.619 200.959 323.619 199.963V193.479H326.148ZM323.297 184.881C323.849 184.881 324.263 184.881 324.539 184.881C324.815 184.881 325.221 184.881 325.757 184.881C325.757 185.432 325.757 185.846 325.757 186.122C325.757 186.398 325.757 186.804 325.757 187.341C325.206 187.341 324.792 187.341 324.516 187.341C324.255 187.341 323.849 187.341 323.297 187.341C323.297 186.789 323.297 186.383 323.297 186.122C323.297 185.846 323.297 185.432 323.297 184.881ZM321.067 188.076C321.45 188.076 321.742 188.076 321.941 188.076C322.14 188.076 322.431 188.076 322.815 188.076C323.106 188.076 323.389 188.076 323.665 188.076C323.665 188.674 323.665 189.111 323.665 189.387C323.665 189.663 323.665 190.092 323.665 190.674C323.067 190.674 322.623 190.674 322.332 190.674C322.056 190.674 321.634 190.674 321.067 190.674C321.067 190.077 321.067 189.64 321.067 189.364C321.067 189.073 321.067 188.644 321.067 188.076ZM325.39 188.076C325.987 188.076 326.424 188.076 326.7 188.076C326.976 188.076 327.405 188.076 327.988 188.076C327.988 188.674 327.988 189.111 327.988 189.387C327.988 189.663 327.988 190.092 327.988 190.674C327.39 190.674 326.945 190.674 326.654 190.674C326.378 190.674 325.957 190.674 325.39 190.674C325.39 190.077 325.39 189.64 325.39 189.364C325.39 189.073 325.39 188.644 325.39 188.076Z" fill="white"/>
<defs>
<linearGradient id="paint0_linear_1688_15192" x1="220" y1="0" x2="220" y2="225" gradientUnits="userSpaceOnUse">
<stop stop-color="#007DC0"/>
<stop offset="1" stop-color="#00B8E7"/>
</linearGradient>
</defs>
</svg>
